<?xml version="1.0" encoding="utf-8"?>
<!-- Generator: Adobe Illustrator 18.0.0, SVG Export Plug-In . SVG Version: 6.00 Build 0)  -->
<!DOCTYPE svg PUBLIC "-//W3C//DTD SVG 1.1//EN" "http://www.w3.org/Graphics/SVG/1.1/DTD/svg11.dtd">
<svg version="1.1" id="Ebene_1" xmlns="http://www.w3.org/2000/svg" xmlns:xlink="http://www.w3.org/1999/xlink" x="0px" y="0px"
	 width="119.8px" height="136px" viewBox="0 0 119.8 136" enable-background="new 0 0 119.8 136" xml:space="preserve">
<path fill="#A59164" d="M39.9,129.4C39.9,129.4,39.9,129.4,39.9,129.4c-0.7,0.4-1.4,0.9-2,1.3C38.5,130.3,39.2,129.8,39.9,129.4z
	 M119.1,52.6c-0.8-6.3-2.1-12.5-5.1-18.2c-4.4-8.5-11-15-19.1-20c-2.1-1.3-4.2-2.6-6.3-3.9c0.3-1.1,0.6-2,0.7-2.8
	c0.1-0.8,0-1.7-0.1-2.5c-0.4-3.1-2.7-5.1-5.7-5.2c-2.3-0.1-3.8,1.2-4,3.5c-0.1,1.1,0.1,2.3,0.1,3.8C64.1,3.5,49.3,5,35,11.8
	c-0.1-1.1,1.1-1.7-0.1-2.7c-0.5-0.4-0.9-2.4,0.2-3.6c0.1-0.1-0.1-0.6-0.1-0.9c-0.5,0.3-1,0.5-1.9,1c0.6-1,0.8-1.5,1.1-1.9
	c3.4,0.1,2.6,2.9,3.3,5c1.4-1.9,0.6-3.5,0.1-5c-0.7-1.7-5.6-2.4-6.9-1c-0.3,0.3-0.6,1-0.5,1.4c0.6,1.6-1.1,0.8-1.5,1.5
	c0.1,3.1,0.2,6.4,0.3,9.6c-6.3,3.4-11,8.4-15.8,13.4c-0.7,0.7-1.2,1.5-1.7,2.3c-0.4,0.8-0.6,1.6,0.5,2.1c0,0.3,0.1,0.7,0,0.9
	c-0.3,0.3-0.7,0.5-1.1,0.6c-3,0.6-4.2,2.7-5.5,5.3C0.4,49.6-0.4,60.3,0.2,71C0.6,78.2,2.4,85.4,6,91.9c4.1,7.4,8.9,14.1,16,19
	c0.9,0.6,1.6,1.3,2.6,2.1c-0.5,1.4-1,2.8-1.6,4.2c-1.9,4.1-3.8,8.3-5.9,12.3c-0.9,1.7-0.7,3,0.7,4.2c1.1,1,2.1,2.2,3.8,1.4
	c0.3-0.1,0.8,0.2,1.2,0.3c2.8,0.2,5.5,0.6,8.3,0.6c3.3,0,6.5-0.4,9.8-0.4c6.9,0,13.7,0.4,20.6,0.3c12.6-0.1,25.2-0.5,37.8-0.8
	c1.1,0,2.1-0.6,3.1-0.9c0,0,0,0,0,0c2.3-1,2.5-1.3,2.2-3.4c-0.2-1.1-0.6-2.3-1-3.3c-2.2-5.1-4.5-10.3-6.5-15
	c4.4-4.6,8.5-8.8,12.5-13.2c1.6-1.8,3.2-3.8,4-6c1.9-5.2,3.8-10.6,4.9-16C120.2,69.2,120.1,60.9,119.1,52.6z M88.1,6.8
	c0,1,0,2.1,0,2.9c-1.9,1.6-1.6-2.8-3.5-0.9c-0.2-2.5,0.9-5-0.8-7.3C87.9,2.9,87.9,2.9,88.1,6.8z M31.7,8.3c0.2,0.1,0.3,0.2,0.5,0.2
	c-0.3,0.7-0.7,1.4-1,2.1c-0.2-0.1-0.4-0.3-0.5-0.4C31,9.6,31.3,9,31.7,8.3z M15.5,29.5c-1,0.6-1.7,0.9-2.4,1.3
	C13.4,29.7,13.9,28.9,15.5,29.5z M12,32.8c1.7-0.8,3.3-1.7,5-2.5c1.2-0.6,2.4-1.1,3.7-1.5c-1.3,2.2-3.8,3.4-4.5,5.9
	c-0.1-0.7-0.2-1.5-0.3-2C14.5,32.7,13.2,32.8,12,32.8z M17.7,27.9c1.9-0.8,3.7-1.5,5.6-2.3c-1.3,2.2-3.4,2.4-5.4,2.9
	C17.9,28.4,17.8,28.2,17.7,27.9z M16.1,34.7c-0.6,0.4-1.3,0.7-2.3,1.3C14.3,34.1,15.1,34.2,16.1,34.7z M13.7,36.1
	c0.2,0.2,0.3,0.5,0.5,0.7c-1.3,1.4-2.8,2.6-5.1,2.5C10.6,38.3,12.2,37.2,13.7,36.1z M11.6,40.6c-1.7,2.2-4.3,3-6.7,4.7
	C5.7,43.4,7.6,42,11.6,40.6z M3.4,50.1c1.9-1.9,3.4-3.3,5.6-4.1c0.7,2-1.6,1.8-1.8,3c0.4-0.1,0.7-0.2,1.9-0.5
	c-1.7,3-4.5,3.4-6.6,4.8c1.3-1.3,2.5-2.6,3.8-3.9C5.5,49.5,4.7,49.7,3.4,50.1z M8.3,50.8c-0.1,1.4-0.2,1.9-0.2,2.6
	c-0.8,0-1.6,0.1-2.9,0.1C6.2,52.5,7,51.8,8.3,50.8z M5.7,55.9c0.2-0.3,1-0.1,2.2-0.3c-0.8,1.2-1.2,2-1.8,2.7
	c-1.2,1.3-2.6,2.6-3.8,3.8c0,0,0,0,0,0c-0.2-0.4-0.7-1-0.5-1.2C2.9,59.3,4.2,57.6,5.7,55.9z M2.1,62.3C2.7,62,3.4,61.8,4,61.6
	c0.1,0.1,0.2,0.2,0.3,0.4c-0.8,0.7-1.6,1.5-3,2.7C1.7,63.4,1.9,62.8,2.1,62.3z M2.3,75.9c-1.1-3-1.3-6-1.1-9c0-0.6,0.3-1.3,0.7-1.6
	c1.4-1.2,2.9-2.3,4.7-3c-0.4,0.5-0.9,1-1.3,1.5c-0.7,0.8-2.3,1.2-1.2,2.9c0.2,0.4-1.2,1.8-1.9,2.7c0.3,0.7,0.5,1.2,0.8,1.9
	c0.7-0.4,1.4-0.9,2.2-1.4C3.3,71.3,5.1,74.6,2.3,75.9z M5.3,82.3c-0.5,0.1-1,0.2-1.8,0.3c0.2-0.8,0.4-1.5,0.6-2.1
	c-0.2-0.3-0.5-0.5-0.7-0.8c0.4-0.3,0.7-0.5,1.1-0.8c0,0,0.2,0.1,0.3,0.1c-0.1,0.3-0.3,0.7-0.4,1c0.9-0.5,1.8-1,3.1-1.7
	C6.7,79.9,6,81.1,5.3,82.3c0.7-0.5,1.3-1,2.6-1.9C7,82.3,6.5,83.6,6,84.9C4,84.4,4,84.3,5.3,82.3z M5.6,86c0.2-0.4,0.3-0.8,0.5-1.1
	c0,0,0,0,0,0l2.9-3c0.1,0.1,0.3,0.2,0.4,0.3c-0.5,0.6-1.1,1.2-1.6,1.8C7.1,84.6,6.4,85.2,5.6,86z M9.4,83.7c0.3,0.3,0.6,0.5,0.8,0.8
	c-0.8,0.6-1.6,1.1-2.4,1.7C7.7,86.1,7.6,86,7.5,86C8.1,85.2,8.7,84.4,9.4,83.7z M8.1,92.4c-0.2,0-0.4-0.1-0.6-0.1
	c0.1-0.6,0.2-1.3,0.3-1.9c0.1,0,0.3,0,0.4,0C8.2,91.1,8.1,91.7,8.1,92.4z M10.8,91.6c-0.3-0.2-0.6-0.4-1-0.7c0.5-0.6,1-1.2,1.7-2.1
	c0.6,1,1,1.9,1.6,2.8c-1.3,1.1-2.5,2.2-3.8,3.3C8.7,93.3,10.3,92.8,10.8,91.6z M14.2,94.3c-0.8,1.2-1.7,2.5-2.7,4
	C11.4,96.3,11.4,96.3,14.2,94.3z M12,99.1c1-1.2,2-2.3,2.9-3.5c1.1,1.4,1,1.7-1.7,5.1C12.8,100,12.4,99.6,12,99.1z M17.2,98.9
	c-0.8,1-1.6,2-2.3,3C14.6,100.2,15.7,99.4,17.2,98.9z M18.4,101c-0.8,0.6-1.5,1-2.2,1.5l-0.3-0.2c0.7-0.8,1.5-1.6,2.3-2.5
	c1.3,0.8,2.5,1.6,2.3,3.4c-0.2-0.3-0.3-0.7-0.7-1.4c-0.8,1-1.6,1.9-2.5,3C16.5,103.1,18.7,102.7,18.4,101z M19.9,107.6
	c-0.2-0.2-0.4-0.4-0.6-0.5c1-1.1,1.9-2.2,2.9-3.3C22.2,105.6,21.5,106.9,19.9,107.6z M22.1,108.6c-0.2-1.5,1-2.1,1.5-3
	c0.2,0.2,0.4,0.3,0.5,0.5C23.5,106.8,22.8,107.7,22.1,108.6z M11,83.5C8.6,76.3,7.4,68.7,8.3,61c0.4-3.3,0.8-6.5,1.3-9.7
	c1-6.6,4-12.3,8.4-17.2c5.1-5.7,10.7-10.9,17.7-14.3c5.1-2.5,10.5-3.9,15.9-5.4c8.5-2.3,16.5-0.5,24.8,1.2
	c9.8,2.1,17.5,7.4,24.4,14.1c4.5,4.4,7.3,9.9,9,15.9c1.8,6.4,3.1,13,2.9,18c-0.1,9.1-0.7,16.3-3.8,23.2c-4.4,9.8-11.5,16.9-20.7,22
	c-4.6,2.5-9.2,4.8-14.3,6.1c-5.7,1.4-11.5,1.7-17.3,1.2c-5.9-0.5-11.6-1.4-17.1-3.5C25.5,107.2,15.7,97.7,11,83.5z M75.3,116.2
	c-1.8,0.8-3.7,1.7-5.5,2.5c-0.1-0.2-0.3-0.3-0.4-0.5C70.8,116.1,73.1,116.3,75.3,116.2z M64.7,119.3c-1,1.1-0.9,3.7-3.9,2.9
	C62.3,121.1,63.5,120.2,64.7,119.3z M58.8,122.4c-0.1-1.6,1-1.9,2-2.4c0.7-0.8,1.4-1.5,2.1-2.3c0.2,0.2,0.3,0.3,0.5,0.5
	c-0.4,1-1.3,1.7-2.4,2C60.2,120.9,59.5,121.6,58.8,122.4z M42.9,119.6c-0.2-0.2-0.4-0.5-0.6-0.7c1.1-1,2.2-1.9,3.3-2.9
	c0.2,0.2,0.3,0.4,0.5,0.5C45.1,117.5,44,118.6,42.9,119.6z M43,125.7c-0.6,0.5-1.2,0.9-1.8,1.4c-0.1-0.2-0.2-0.3-0.3-0.5
	c0.6-0.4,1.2-0.9,1.8-1.3C42.8,125.4,42.9,125.6,43,125.7z M40.6,118.9c-0.3-0.3-0.5-0.5-0.8-0.8l3-2.6c0.2,0.2,0.3,0.3,0.5,0.5
	C42.4,116.9,41.5,117.9,40.6,118.9z M48.9,117c-1.1,1.1-2.1,2.2-3.6,3.6C45.8,118.4,46.2,118,48.9,117z M48,120.5
	c1.2-1.4,2.1-3.1,4-3.7C50.9,118.4,49.8,119.9,48,120.5z M49.2,122.8c-0.4,1.8-0.4,1.9-2,2.7C47.9,124.7,48.5,123.8,49.2,122.8z
	 M53.4,118.3l0.4,0.5c-1.1,0.8-1.2,2.8-2.9,2.8c-0.2-0.3-0.4-0.5-0.6-0.8L53.4,118.3z M55.7,118.9l0.4,0.5c-1.2,0.6-1,2.8-3.3,2.1
	C53.7,120.6,54.7,119.8,55.7,118.9z M57,120.3l0.1,0.1c-0.4,0.6-0.8,1.3-1.2,1.9c-0.2-0.2-0.4-0.3-0.5-0.5
	C56,121.3,56.5,120.8,57,120.3z M39.3,114.1c0,0.2,0,0.4-0.1,0.5c-0.8,0.9-1.6,1.9-2.7,3.1C35.9,115.6,36.8,114.6,39.3,114.1z
	 M33.2,112.8c-1,0.5-1.9,0.9-2.8,1.4c-0.1-0.1-0.2-0.2-0.3-0.3c0.9-0.9,1.8-1.8,2.8-2.8c0.9,0.5,1.7,0.9,2.6,1.4
	c-0.9,1.2-1.6,2.3-2.6,3.6C30.9,114.7,33.5,114.1,33.2,112.8z M31.3,109.5c-0.9,2.8-2.1,3.8-4,3.4C28.7,111.7,29.8,110.8,31.3,109.5
	z M27.2,111.4c0.3-0.4,1-1.3,1.7-2.1c0.1,0.1,0.2,0.1,0.3,0.2C28.4,110.2,27.6,111,27.2,111.4z M25.5,118.9c0.2,0.1,0.4,0.2,0.5,0.3
	c-0.9,1.1-1.8,2.2-3.2,3.7C23.1,120.6,24.8,120.1,25.5,118.9z M48,134.7c-0.3-0.3-0.6-0.6-0.8-0.8c0.2-0.2,0.4-0.6,0.6-0.5
	c0.3,0,0.6,0.3,0.8,0.5C48.4,134.1,48.3,134.3,48,134.7z M44.6,134.3c-1.2-0.1-2.5-0.1-4.1-0.2c0.4-0.6,0.7-1.1,1-1.6
	c-1,0.5-2,1-3.7,1.9c1.1-1.6,1.8-2.7,2.5-3.8c-1.1,1.1-2.2,2.2-3.3,3.3c-0.6,0.7-0.8,0.6-1.4-0.4c-0.5,0.2-1,0.3-1.4,0.5
	c-0.9,0.5-1-0.1-1.1-0.8c-0.4,0.2-0.8,0.4-1.8,0.9c0.6-1.1,1-1.7,1.3-2.4c-0.7,0.5-1.5,0.8-2,1.4c-1.3,1.6-2.7,1.5-4.5,0.6
	c0.3-0.3,0.5-0.6,0.7-0.9c-1.2,0.5-2.1,1.8-4,1.1c1.2-1.4,2.2-2.6,3.3-3.9c-0.3,0-0.6-0.1-1.2-0.1c0.4-0.7,0.8-1.2,1.2-1.8
	c-1.1,0.9-2.3,1.7-3.4,2.8c-0.8,0.8-1.4,1.9-2.1,2.9c-1.2-1.3-0.8-2-0.3-2.7c-0.6,0.3-1.2,0.5-2.5,1.1c3.8-6.4,9.3-10.2,13.8-15.1
	c-0.6,2-2.1,3.4-3.4,4.9c-0.7,0.8-1.3,1.9-1.9,2.8c2.5-2.3,5.1-4.6,7.6-6.9c0.1,0.1,0.2,0.1,0.3,0.2c-1,1.6-2,3.2-3,4.8
	c0.4-0.2,0.7-0.4,1.1-0.5c0.1,0.1,0.3,0.2,0.4,0.4c-0.7,0.8-1.3,1.6-2,2.4c-0.7,0.9-1.5,1.7-2.2,2.6c1.9-1.7,3.8-3.4,5.8-5
	c0.6-0.5,1.3-0.9,2-1.3c-1.6,2-3.3,4-4.9,6.1c2.4-1,6.3-4.8,7.4-7.4c-0.6,0.1-1.1,0.2-1.6,0.2c0.9-1.4,2-0.6,3.5,0
	c-2.3,2.4-4.3,4.7-6.4,7c0.1,0.1,0.2,0.2,0.3,0.3c2.5-2.2,5-4.5,7.6-6.7l0.4,0.4c-3,3.1-6,6.3-9,9.4c0.5-0.1,1-0.1,1.5-0.2
	c1.3-1.4,2.5-2.9,3.8-4.3l0.5,0.4c-0.5,0.7-1,1.4-1.5,2.1c0.5,0,0.9,0,1.4,0c0.2,0.2,0.4,0.5,0.5,0.7c0.5-0.4,1.1-0.7,1.6-1.1
	c1.4-1.1,2.7-2.3,4.3-3.3c-0.7,1.1-1.3,2.1-2,3.2c1.1-0.8,2.1-1.6,3.2-2.3c-0.1,0.6-0.1,1.3-0.2,1.9c0.3,0.3,0.6,0.6,0.9,1
	c1.4-1.1,2.7-2.1,4.1-3.2C50.2,129.1,46.1,130.5,44.6,134.3z M54.1,127.4c0.2,0.2,0.3,0.3,0.5,0.5c-1,1-2,1.9-3,2.9
	c-0.2-0.2-0.3-0.4-0.5-0.5C52,129.3,53.1,128.3,54.1,127.4z M51.3,134.4c1.9-3.7,5.4-5.3,8.1-7.7c-1,3.1-5.3,3.8-5.2,7.6
	C53.3,134.3,52.4,134.3,51.3,134.4z M102.6,128.9c0.7,1.8,1.3,3.6-0.1,5.4c-3.3-0.1-6.7-0.2-10-0.2c-6,0-11.9,0.2-18.6,0.3
	c1.8-2,3.1-3.5,4.8-5.4c-2.5,0.8-3.6,2.3-4.7,3.9c-0.6,0.8-1.1,1.7-2.2,1.5c-2.4-0.6-4.7,0.3-7.1,0.2c-0.9,0-1.4-0.2-1.2-1.2
	c-2.2,2-4.7,1.3-7.9,1.1c3.9-4,7.3-7.6,11.2-10.8l0.5,0.5c-1.7,1.9-3.5,3.8-5.2,5.7l0.3,0.3c1-0.8,2-1.7,3.2-2.7
	c0.2,0.4,0.3,0.8,0.5,1.3c1.2-0.9,2.3-1.8,3.4-2.7c0.1,0.1,0.2,0.2,0.3,0.3c-0.8,1.2-1.7,2.4-2.5,3.6c1.9-1.7,3.8-3.3,5.7-5
	c0.1,0.1,0.2,0.2,0.3,0.2l-3.8,4.8c0.1,0.1,0.3,0.3,0.4,0.4c1.4-1.6,3.1-3,4.3-4.8c2-2.9,4.5-4.7,7.9-5.9c3.5-1.1,6.7-3.2,9.9-4.8
	c1-0.5,2-1.1,3.4-1.9c0.5,0.8,1,1.6,1.4,2.4C98.9,119.9,100.7,124.4,102.6,128.9z M112.3,93.1c-0.6,1.4-1.4,2.9-2.4,4.1
	c-3.8,4.8-7.9,9.4-12.9,13.1c-1.4,1.1-3.1,1.8-4.7,2.6c-3.9,2-7.9,3.9-12.1,5.3c2.7-1.6,5.4-3.3,8.2-4.9c-5.6,1.7-10.2,5.2-14.9,8.6
	c-0.2-0.2-0.3-0.4-0.5-0.6c0.2-0.3,0.3-0.7,0.6-0.9c3.1-2,6.3-3.9,9.4-6c3.3-2.2,6.3-4.8,9.7-6.9c4.7-2.9,8.5-6.7,12-10.8
	c3.4-4.1,5.7-8.9,7.1-14.1c4.6-16.6,2.4-32.5-5.2-47.8c-1.9-3.9-5.4-6.7-8.6-9.6C90.5,18.5,81.6,15,72,13.2
	c-5.2-0.9-10.4-2.1-15.8-1.2c-7.8,1.4-15.5,3.5-22.7,7c-1.6,0.7-3.1,1.4-4.3,2.9c-0.9,1.2-2.9,1.7-4.4,2.3c-1.4,0.6-3,1-4.6,1.1
	c0.8-0.5,1.7-1,2.5-1.4c1.6-0.8,3.2-1.3,4.3-3c0.7-1.1,2.5-1.4,3.6-2.6c-1.2,0.4-2.4,0.8-3.7,1.3c-0.1-0.1-0.1-0.2-0.2-0.3
	c1.4-0.9,2.9-1.8,4.3-2.8c0-0.1-0.1-0.2-0.1-0.4c0.6-0.5,1.2-1.2,1.9-1.5c5-2.1,9.9-4.3,15-6.1c6.3-2.2,12.9-2.3,19.5-1.9
	c2.6,0.2,5.3,0.5,7.9,1c5.9,1,11.4,3.4,16.5,6.3c8.4,4.8,15.5,11,20.3,19.6c3.9,7.1,5.6,14.8,6.3,22.8
	C119.5,69.2,117.4,81.4,112.3,93.1z M34.6,15.2c-1.2,0.4-2.4,0.7-3.6,1.1c0,0.1,0.1,0.2,0.1,0.4C32.5,16.7,33.8,16.5,34.6,15.2z
	 M34.7,15.1c0,0-0.1,0.1-0.1,0.1C34.6,15.2,34.7,15.2,34.7,15.1L34.7,15.1z M67.4,94.9c5.9,1.3,11.7,1.7,17.6,0.5
	c1.5-0.3,2.9-0.9,4.4-1.3c-0.2-0.7-0.3-1.1-0.5-1.8c1.2,0.5,2.1,0.8,2.9,1.2c1.4-1,1.2-2.3,1.1-3.5c-0.2-6.5-0.4-12.9-0.7-19.4
	c-0.2-4.7-0.2-9.3-0.4-14c-0.2-5.2-0.5-10.4-0.9-15.5c-0.1-0.9-0.7-1.7-1.1-2.6c-0.6,0.2-0.8,0.3-1,0.4c-0.2,0.1-0.3,0.3-0.4,0.5
	c-2.8,4.4-4.9,9.1-4.6,14.5c0.4,8.1,0.4,16.3,0.9,24.5c0.2,3.5-0.7,7.1,1.1,10.3c-6.1-1.4-12.1-1.1-17.9-1.6
	c0.1-1.8,0.4-3.7,0.4-5.5C68.4,73.4,68.2,65.2,68,57c-0.1-3.5-0.3-7-0.6-10.5c-0.4-3.7-2.9-5.8-5.9-8c-0.3,1-0.6,1.4-0.6,1.9
	c-0.3,4.5-0.8,9.1-0.7,13.6c0.2,11.1,0.9,22.2,1,33.4C61.3,91.5,64,94.2,67.4,94.9z M89,89c-0.2,0-0.4-0.1-0.6-0.1
	c0.2-0.8,0.4-1.6,0.6-2.3c0.2,0,0.3,0.1,0.5,0.1C89.2,87.5,89.1,88.3,89,89z M89.3,75.9c-0.3-1.3,0.5-2.1,1.3-3.5
	C91,74.3,89.8,75,89.3,75.9z M89.9,60.3c0,0,0.3,0.1,0.6,0.2c-0.6,1.2-1.2,2.3-1.8,3.5c-0.2-0.1-0.3-0.1-0.5-0.2
	C88.8,62.6,89.4,61.4,89.9,60.3z M88.7,55.3c0.2,0.1,0.4,0.2,0.5,0.2c-0.3,0.6-0.6,1.2-0.9,1.9c-0.1,0-0.2-0.1-0.3-0.1
	C88.3,56.7,88.5,56,88.7,55.3z M89.1,76.3c-0.5,1.1-1,2.3-1.7,4C87.8,77.8,87.9,77.6,89.1,76.3z M82.6,91.4c0.1,0.3,0.2,0.5,0.3,0.8
	C81,92.8,79,93.4,77.1,94c-0.1-0.2-0.1-0.4-0.2-0.7C78.8,92.7,80.7,92,82.6,91.4z M55.2,95.8c1.3-0.3,1.7-1.2,0.9-2.2
	c-0.2-0.3-0.7-0.5-1-0.8c-0.2-0.2-0.2-0.5-0.2-0.8c0.9-0.1,1.8-0.1,2.4-0.2c0.2-4.3,0.5-8.3,0.4-12.3c-0.1-4-0.3-8.1-1.3-12.6
	c-2,1.5-3.5,2.6-4.9,3.8c-0.6,0.5-1.1,1.4-1.1,2.1c0.1,5.1-0.7,10.4,1.9,15.2c0.1,0.3,0,0.7,0,1.7c-2.1-3.4-5.1-3.2-7.8-3.4
	c-2.7-0.2-5.5-0.2-8.5-0.3c-1.9,2.8-5.5,4.6-6.4,8.5C36.9,97.1,47.2,97.6,55.2,95.8z M55.3,88.1c0.4,0.1,0.6,0.5,1.2,1
	c-0.6,0.3-1,0.6-1.2,0.5c-0.3-0.1-0.7-0.5-0.7-0.9C54.6,88.6,55.2,88.1,55.3,88.1z M33.5,92.3c-0.1-0.1-0.2-0.2-0.3-0.3
	c0.5-0.4,1-0.9,1.5-1.2c0.4-0.3,1-0.6,1.4-0.9c0.1,0.1,0.2,0.3,0.3,0.4C35.4,91,34.5,91.6,33.5,92.3z M41.2,95.2
	c-0.1-0.2-0.2-0.4-0.4-0.6c1.1-0.7,2.3-1.4,3.4-2c0.1,0.2,0.2,0.4,0.4,0.6C43.5,93.9,42.4,94.5,41.2,95.2z M44.4,88.3
	c0-0.2,0.3-0.4,0.5-0.6c0.3,0.2,0.5,0.3,0.7,0.5c-0.3,0.2-0.5,0.5-0.8,0.7C44.7,88.7,44.4,88.5,44.4,88.3z M27.4,66.9
	c0.2,0,0.6,0,0.8-0.2c0.7-0.4,1.4-1,2.1-1.4c-0.5,0.9-0.9,1.9-1.5,3c2.9,1.8,5.7,3.6,9.4,2.8c1.1-0.2,2.3-0.2,3.5-0.3
	c4-0.3,8.1-0.3,11.2-3.3c1-1,2-1.2,3.3-0.9c0.3-1.1,0.6-2.1,0.9-3.1c1.2-4.6,0.3-9.3,0.4-13.9c0-3-0.6-6.1-1.1-9.1
	c-0.2-1-0.7-2-1.2-3.4c-7,8-7.7,16.6-4.8,26.4c-3.4-3.4-7.5-2.4-11.3-2.6c-2.6-0.1-5.2,0.3-7,2.6c0.5-1.4,1.5-2.7,1.6-4.1
	c0.2-5.2,1.6-10.6-1.6-15.6c2.7,1.1,5.1,2.4,8.2,1.8c2.8-0.5,5.8,0,8.1-2c2.1-1.8,4.1-3.8,5.2-6.9c-8.6,0.5-16.9-0.7-25.2,0.8
	c0.1,0.9,0.3,1.6,0.4,2.5c-1.9-0.1-2.5,1.1-2.5,2.7c0,2.9,0.1,5.7,0,8.6C26.1,56.4,25.5,61.7,27.4,66.9z M52,52
	c0.1,0.1,0.3,0.1,0.4,0.2c-0.3,0.6-0.6,1.2-0.8,1.7c0,0.1-0.2,0.1-0.2,0.1c-0.1,0-0.1-0.2-0.3-0.4C51.4,53.2,51.7,52.6,52,52z
	 M36.5,62.3c0.2,0.2,0.3,0.4,0.5,0.6c-0.5,0.3-0.9,0.7-1.4,1c-0.1-0.2-0.2-0.3-0.4-0.5C35.7,63.2,36.1,62.8,36.5,62.3z M34.5,76.9
	c-0.2-1.1-0.2-2.5-0.9-3.3c-1.8-2.2-4-3.9-6.8-4.9C25,73.8,25.9,89,28.3,92.8c1.1-1.3,2-2.6,3.1-3.6C35,85.7,35.3,81.4,34.5,76.9z
	 M30,79.6c-0.2-0.1-0.4-0.1-0.6-0.2c0.4-1.1,0.8-2.2,1.2-3.4c0.2,0.1,0.3,0.1,0.5,0.2C30.7,77.4,30.3,78.5,30,79.6z M71.9,42.9
	c3.3,0.1,6.5,0.2,9.8,0.2c3.4,0,5.8-2.2,6.1-5.8c-8.3-3-16.6-1.1-25,0.2C65.4,40.1,68,42.7,71.9,42.9z M96.5,42.2
	c2.2,0.3,4.6-1.7,4.8-4.1c0.2-2.1-1.7-4.4-3.9-4.7c-1.8-0.3-5.2,2.3-5.4,4.1C91.9,39.5,94.2,41.9,96.5,42.2z M95.2,35.8L95,36
	C95.1,35.9,95.1,35.9,95.2,35.8C95.2,35.9,95.2,35.9,95.2,35.8c1.6-1.4,2.6-1.4,3.7-0.2c1.2,1.3,1.2,3.5,0,4.5
	c-1.3,1.1-3.5,0.7-4.7-0.8C93.2,38.1,93.5,37.2,95.2,35.8z M34.7,15.1C34.7,15.1,34.7,15.1,34.7,15.1c0.2,0,0.3-0.1,0.5-0.1
	C35,15,34.8,15,34.7,15.1z M39.1,13.1c-1.3,0.6-2.6,1.3-3.9,1.9c1.4-0.4,2.8-0.8,4.2-1.2L39.1,13.1z M35.4,16.7l0.2,0.4
	c0.6-0.3,1.2-0.6,1.8-0.9c-0.1-0.1-0.1-0.2-0.2-0.4C36.6,16.1,36,16.4,35.4,16.7z M40.6,14.6c0.1,0.1,0.2,0.2,0.3,0.3
	c0.5-0.3,1-0.6,1.5-0.9c-0.1-0.1-0.1-0.2-0.2-0.4C41.7,14,41.2,14.3,40.6,14.6z M74.4,128.7c0.2,0.2,0.4,0.3,0.6,0.5
	c1.8-1.9,3.6-3.7,5.3-5.6c-0.3-0.2-0.5-0.5-0.8-0.7C77.8,124.8,76.1,126.7,74.4,128.7z M63.8,133.1c1.1-1,2.3-2,3.4-3.1
	C65.5,130.4,64.6,131.7,63.8,133.1z M30.1,131.3c0.1,0.1,0.1,0.2,0.2,0.4c0.3-0.3,0.6-0.7,1-1c-0.1-0.1-0.2-0.2-0.2-0.2
	C30.7,130.7,30.4,131,30.1,131.3z M61,133.1c0.2,0.1,0.3,0.3,0.5,0.4c0.7-0.7,1.4-1.4,2.2-2.1c-0.2-0.2-0.3-0.3-0.5-0.5
	C62.4,131.6,61.7,132.3,61,133.1z M26.1,128.4c1.1-1.1,2.2-2.3,3.4-3.4C27.6,125.5,26.6,126.7,26.1,128.4z M21.9,129.2
	c1.1-0.9,2.1-1.8,3.2-2.7C23.4,126.5,22.7,127.9,21.9,129.2z M33.9,132.5c0.9-0.7,1.9-1.4,2.8-2c-0.5,0-1,0.1-1.6,0.1
	C34.7,131.3,34.3,131.9,33.9,132.5z M95,38c0.3,0.7,1.1,1.5,1.8,1.7c1,0.2,2.1-1.3,1.8-2.4c-0.3-1-0.7-2-2.1-1.7
	c-0.5,0.1-0.9,0.2-1.4,0.3C95.1,36.6,94.8,37.4,95,38z"/>
</svg>
