<?xml version="1.0" encoding="utf-8"?>
<!-- Generator: Adobe Illustrator 18.0.0, SVG Export Plug-In . SVG Version: 6.00 Build 0)  -->
<!DOCTYPE svg PUBLIC "-//W3C//DTD SVG 1.1//EN" "http://www.w3.org/Graphics/SVG/1.1/DTD/svg11.dtd">
<svg version="1.1" id="Ebene_1" xmlns="http://www.w3.org/2000/svg" xmlns:xlink="http://www.w3.org/1999/xlink" x="0px" y="0px"
	 width="187.8px" height="192.9px" viewBox="0 0 187.8 192.9" enable-background="new 0 0 187.8 192.9" xml:space="preserve">
<path fill="#232323" d="M145,39.4c0.1-0.3-1.1-0.9-2.2-1.7c-0.2,1.6-0.3,2.5-0.4,3.5c0.4,0.2,0.8,0.3,1.2,0.5
	C144.2,41,144.8,40.3,145,39.4z M139.5,38.1c-0.8,1.3-1.8,2.2-0.6,3.5C141.3,40.1,141.3,40.1,139.5,38.1z M114.2,66.6
	c0.8-0.5,1.6-1,2.3-1.6c1.9-1.6,3.9-3.3,6.1-5.1c0.5,3.6-0.7,6.6-0.9,9.7c-0.3,3.2-2.1,4.8-4.6,6c-1,0.5-1.9,1-3.3,1.6
	c2.7,2.1,4.2-0.7,6.2-0.7c0.6,3.7-1,7.5,0.8,11.2c2.2-1,3.4-2.2,3.4-4.6c0.2-6.4,0.8-12.6,6.2-17.1c0.2-0.2,0.2-0.6,0.4-1.1
	c3.8,6.5,5.8,6.4,10.2,0.4c0.5,1.3,0.9,2.4,1.4,3.6c1-0.1,1.9-0.1,2.6-0.2c0.1,1.1,0.1,1.9,0.1,2.7c0.3,0,0.5,0.1,0.8,0.1
	c3.5-6.4,2.9-14.1,6.2-20.6c3.5,3.5,5.4,3.3,9.1-0.5c-0.4,0-0.7-0.1-1-0.1c-4.2,0.9-5.2,0.4-6.9-3.7c-0.3-0.7-0.7-1.3-1.4-2.4
	c-0.9,2.8-1.5,5.1-2.3,7.7c-0.5-1.2-0.8-1.9-1.4-3.3c-2.6,5.5-0.9,11.3-3.7,16.1c-1.4-1.9-1.4-3.9-1-5.9c0.3-2.2,0.8-4.4,1.1-6.6
	c0.1-0.9,0-1.9,0-3.3c-2.6,1.3-2.7,3.2-2.8,5c-0.2,4.2-2,7.9-3.7,11.6c-0.4,0.8-1.2,1.3-2,2.2c-0.5-0.9-1.2-1.5-1.1-2
	c0.1-3.7,0.2-7.4,0.6-11.1c0.2-1.8,0.8-3.5-0.8-6c-1.3,7-4.2,12.6-8.2,17.8c0-3.7,0.2-7.4,0.6-11c0.1-0.6,0.6-1.2,1-1.8
	c2.2-3.4,4.7-6.7,6.7-10.3c1.3-2.3,2-4.9,2.9-7.5c0.6-1.8,0.5-3.5-1.2-4.7c-1.3-1-2.6-0.6-4.7,1.1c-2.3,1.8-3.2,4.3-3.9,6.9
	c-1.1,3.9-2.5,7.9-3.1,11.9c-0.5,3.6-2.6,5.8-5.1,8c-0.7,0.6-1.5,1.2-2.2,1.7c-2.2,1.7-4.4,3.3-6.7,5
	C112.9,67.3,112.9,67.3,114.2,66.6z M128.5,45.7c0.9-3.2,1.9-6.5,3-9.6c0.5-1.3,1.5-2.4,2.7-4.2c1.7,4.5-1.5,12.7-6.3,17.8
	C127.4,48.2,128.1,46.9,128.5,45.7z M107.9,147.4c-1.2,1-1.1,2.1,0.3,3.3c1.4-0.9,2.2-1.9,1.2-3.3
	C109.2,147.2,108.2,147.1,107.9,147.4z M169.9,94.8c-3.3,0.2-1.3,3.1-2.5,4.5c-0.9-1-1.6-1.8-2.4-2.7c-0.2,0.1-0.3,0.2-0.5,0.3
	c1.1,6.5,2.1,12.9,3.2,19.6c2.8-2,1.3-4.9,1.8-7.3c0.5-2.6,0.7-5.2,1-7.9c2.8,0.7,4.9-0.1,6.9-2.2C173.1,100.4,172,96.5,169.9,94.8z
	 M66.7,114.1c0.4,0.5,0.8,1.1,1.1,1.7c1.1,1.6,2.3,2.1,3.8,1.2c2.1-1.3,4.1-2.9,5.2-5.3c-1.2,0.6-2.3,1.4-3.3,2.3
	c-1.4,1.2-2.8,1-4.1,0c-1.3-1-1.5-2.4-0.7-4c0.7-1.4,1.6-2.6,2.1-4c1-2.8,2-5.8-0.7-8.5c-3,1.7-4.1,4.3-4.3,7.4
	c-0.1,1.7,0.2,3.5,0,5.3c-0.1,0.7-0.9,1.4-1.4,2.1c-0.7-0.5-1.5-0.9-2-1.6c-0.3-0.5-0.3-1.4-0.2-2.1c0.1-1.5,0.4-3,0.5-4.5
	c0.1-1.4,0-2.9,0-4.5c-2.7,0.9-2.7,0.9-3.1,2.7c-0.7,3.9-1.4,7.8-2.2,11.7c-0.1,0.7-0.5,1.5-0.9,2.6c-0.6-0.8-1.1-1.2-1.2-1.7
	c-0.5-4.9-1.7-9.7-1-14.6c0.6-4,1.5-8.1,2-12.1c0.2-1.3,1.2-3-0.7-4.1c-0.2-0.1-0.3-0.6-0.3-0.9c0.9-3,1.3-6.1,3.6-8.7
	c3.2-3.7,6.1-7.7,9.1-11.5c0.2-0.2,0.5-0.4,1.2-0.8v5.6c3.8,1.5,6.2,0.8,8.4-2.3c0.7-0.9,1-2.1,2.3-3c0.1,0.7,0.3,1,0.2,1.3
	c-0.3,2-0.8,4.4,1.4,5.2c2.2,0.8,3.7-1.2,4.7-2.9c1.7-2.7,3.1-5.5,4.6-8.3c0.4-0.6,0.8-1.2,1.2-1.8c0.3,0.1,0.6,0.2,0.9,0.3
	c-0.2,1.6-0.4,3.2-0.5,4.8c-0.1,1.8,0.1,3.6-0.2,5.3c-0.6,3.4,1.4,5.8,2.8,8.4c0.3,0.6,1.2,1.1,1.9,1.4c3,1.3,6.6-0.3,8.9-4.5
	c-1.8,1-2.9,1.7-4.1,2.3c-2.6,1.3-4,0.7-5.1-2c-2.2-5.2-1.1-10.3,0.2-15.4c7.6-1.9,7.6-1.9,7.9-3.8c-2.4,0.8-4.8,1.6-7.5,0.9
	c0.1-1,0.1-1.8,0.4-2.6c1.2-4.4,2.5-8.8,3.8-13.1c1.2-3.9,2.3-7.8,3.5-11.7c1.2-4.1,2.4-8.3,3.5-12.4c0.1-0.5-0.3-1.1-0.5-1.7
	c-3,7-5.2,14.1-7.7,21c-2.6,7-5.7,13.7-9.7,20.4c-1.3-1.1-2.3-1.8-3.5-2.8c-2.6,3.5,2.2,3.1,2.5,5.5c-2,3-3.1,7.2-6.6,10.3
	c-1.1-2.9-0.8-5.2,0-7.6c1-3,2.1-6,3.1-9c0.1-0.4-0.4-1.1-0.7-1.7c-0.5,0.2-1.1,0.3-1.5,0.7c-0.3,0.3-0.3,0.9-0.6,1.3
	c-2.5,4.4-4.9,8.8-7.5,13.1c-0.6,1-1.6,1.9-2.4,2.8c-0.3-0.1-0.5-0.3-0.8-0.4c0.3-1.7,0.4-3.4,0.9-5c1.2-4,2.6-8,5.3-11.4
	c1.2-1.6,0.6-2.6-0.8-3.6c-3.2,4.1-6.2,8.1-9.3,12.1c-3.1,4-6.2,8-9.3,12.1c-0.2-0.1-0.5-0.3-0.7-0.4c0.9-1.7,1.6-3.5,2.7-5.1
	c2.5-3.9,5.5-7.6,7.3-12c0.8-2,1.6-4.1,0.8-6.8c-1.1,0.6-2.2,0.8-2.8,1.5c-2.1,2-4.3,4-5.3,6.9c-1.1,3.6-2.2,7.1-3.3,10.7
	c-0.2,0.7-0.2,1.5-0.6,2c-3,3.1-6.1,6.2-10.6,7.1c-2.6,0.5-4-0.3-4.9-2.7c-0.4-1.2-0.7-2.5-1-3.7c-1.4-8,0.4-15.8,1.8-23.6
	c5-1.1,9.1-3.5,13.2-6c5.3-3.3,9.8-7.6,14.4-11.7c4.6-4.1,7.6-9.1,9.8-14.7c2.7-6.8-1.3-11.7-8.6-11c-0.8,0.1-1.6,0.3-2.4,0.5
	c-3,0.6-5.3,2.3-7.7,4.1C52.5,12,45.4,20.8,41.5,32c-1.2,3.5-2.5,7-3.7,10.4c-5.4,0.4-11.7-1-14.5-3.4C15.7,32.7,10.7,24.8,9,15.1
	C8.3,11.6,8.3,7.9,8,4.3c-0.1-0.7-0.4-1.4-0.6-2c-0.3,0-0.6,0.1-0.8,0.1C6.6,5.5,6.6,8.7,7,11.8c0.4,2.9,0.6,5.8-1.6,8.5
	c0.1-1.3,0.1-2.3,0.2-3.4c-0.1,0-0.3,0-0.4-0.1c-0.5,2.9-1.1,5.8-1.6,8.6c-0.2,0-0.3,0-0.5,0V19c-0.5,0.8-0.7,1.1-1,1.6
	c-0.4-1.8-0.7-3.3-1-4.8c-0.3,0-0.6,0-0.9,0.1C0.1,17-0.1,18,0,19.1c0.2,2.1,0.6,4.2,1,6.2c1.7,8.4,6.3,14.6,14.3,17.8
	c5.6,2.3,11.5,2.8,17.6,2.2c1.2-0.1,2.5,0,4.1,0c-0.3,2.4-0.6,4.7-0.9,7c-0.8,6.6,0,13.1,2.5,19.3c0.8,2,2.2,3.2,4.4,3.6
	c3.6,0.7,6.7-0.3,9.5-2.4c1.3-1,2.5-2.2,4.6-3.1c-0.9,3.1-1.6,5.6-3.3,7.8c-3.1,4.1-6.1,8.3-8.9,12.6c-1.7,2.6-2.4,5.5-0.4,8.8
	c3.6-2.1,6.4-4.7,8.5-8.2c-0.5,5-1,9.9-3,14.6c-0.5-0.4-0.8-0.6-1-0.8c-4-4.3-8.3-1.7-9.5,2.3c-1,3.2-1.2,6.7-1.6,10
	c-0.2,2.1,0.7,3.9,2.2,5.4c1.5,1.6,2.2,1.7,3.9,0.2c2.4-2.2,4-4.9,5.1-7.9c0.4-1.2,0.9-2.3,1.4-3.7c2.1,3.2,1.5,7.5,5.7,8.8
	c2.9-1,3.5-3.9,4.7-6.4C63.2,116.1,63.2,116.1,66.7,114.1z M69.5,101c0.7,2.4,0.5,2.9-1.5,5.8C67.6,104.6,67.8,102.7,69.5,101z
	 M67.8,48.2c0.2,4.1-2.2,7-4.3,10C64.7,54.8,65.5,51.1,67.8,48.2z M78.6,6.7c0.1,0,0.3,0,0.4,0v2.9c-0.1,0-0.3,0-0.4,0V6.7z
	 M75.3,1.8C75.6,2,76,2.3,76.2,2.6c0.1,0.2,0.1,0.6-0.4,1.1l-0.9-1.7C75,2,75.2,1.9,75.3,1.8z M44.8,37.1c3.3-9.2,7.3-18,13.5-25.7
	c2.1-2.6,4.8-4.7,7.4-6.9c1-0.9,2.4-1.4,3.7-1.9c2.9-0.9,4.5,0.1,4.9,3.2c0.5,3.7-0.4,7.2-1.7,10.6c-2.9,7.9-8.2,13.8-15.5,18
	c-3.3,1.9-6.7,3.8-10.1,5.6c-0.9,0.5-1.8,0.7-3.4,1.3C44.1,39.5,44.4,38.2,44.8,37.1z M8,31.7V21.5C9.2,25,8.7,28.3,8,31.7z
	 M14.5,33.5c0.1,0,0.3,0,0.4,0v3.4c-0.1,0-0.3,0.1-0.4,0.1V33.5z M11,36.1v-8.6C11.9,29.7,11.9,31.4,11,36.1z M14.6,40.3
	c-0.6-0.2-1.2-0.5-1.7-0.8c0.1-0.2,0.2-0.5,0.4-0.7c0.6,0.3,1.2,0.5,1.8,0.8C14.9,39.8,14.6,40.4,14.6,40.3z M20.7,42
	c-0.2-0.1-0.4-0.1-0.7-0.2c0.2-0.7,0.3-1.4,0.5-2.1c0.2,0.1,0.6,0.2,0.6,0.3C21,40.7,20.8,41.3,20.7,42z M45.3,95.8
	c-0.6-3.2,2.6-9.2,7.6-14C52.4,87.1,48.3,94.5,45.3,95.8z M44.4,118.9c-1.4,1.5-2.7,1.4-3.6-0.4c-0.7-1.5-0.9-3.3-1.3-5.3
	c0.6-1.8,1.1-3.9,2.1-5.7c0.4-0.7,1.7-1.4,2.5-1.3c0.8,0.1,1.9,1,2.3,1.8C48.1,111.4,47.2,116.1,44.4,118.9z M166.2,159.1
	c-2.2,1.9-4.3,3.9-6.7,5.6c-1.7,1.2-3.3,0.6-4.3-1.3c-1.3-2.3-0.6-6.4,1.4-8.3c0.6-0.6,1.2-1.2,1.8-1.7c2.2-1.7,3.2-4,3.4-6.7
	c0.1-1.2,0.6-2.6-0.8-3c-1.1-0.4-2.7-0.4-3.6,0.2c-1.6,1.1-3.2,2.5-4.1,4.2c-1.4,2.5-2.1,5.4-3.2,8.1c-0.4,0.9-0.7,2.2-1.4,2.6
	c-2.5,1.4-5.2,1.8-8.5,0.6c0.6-2.1,1.1-4.1,1.8-6.1c1.6-4.7,3.2-9.3,4.7-14c0.4-1.2,1.4-2.5,0-4.2c-2.7,3.3-3,7.3-4.5,10.7
	c-1.6,3.6-3.1,7.3-6.2,9.9c-0.9-0.4-1.7-0.8-2.5-1.2c-1.6,1.9,1.4,2.7,0.4,4.9c-3.3,4-6.1,9.5-11.9,13.3c0.2-4.4,0.7-8,2.5-11.4
	c2.4-4.7,4.6-9.5,6.4-14.4c0.8-2.2,0.7-4.9,0.4-7.2c-0.3-2.1-1.9-2.5-3.7-1.4c-1.8,1.1-3,2.7-3.4,4.7c-0.8,4.1-1.9,8.3-2.1,12.4
	c-0.2,5.7-3.3,10.1-5.8,14.9c-0.7,1.3-2,2.2-3.1,3.4c-0.7-2.5-0.1-5,0.2-7.6c0.1-1.3,0.4-2.6,0.3-3.8c-0.2-3.6-1.9-4.5-5.1-2.7
	c-0.9,0.5-1.7,1.2-2.5,1.8c-3,4.3-4.6,9.1-3.8,14.4c0.2,1.5,0.6,2.8,2.3,3.2c1.6,0.3,2.7-0.6,3.5-1.9c0.9-1.5,1.7-3,2.6-4.8
	c0.5,1.7,0.9,3.1,1.4,4.7c2.5-0.6,4.8-1,6.9,1.3c-0.2,1.7-0.3,3.7-0.5,5.7c-0.2,2.3-0.5,4.7-0.5,7c0,0.7,0.9,1.8,1.5,1.9
	c0.6,0.1,1.6-0.7,2.1-1.3c0.4-0.5,0.3-1.3,0.3-2c0-3.2,0.1-6.3,0-9.5c-0.1-1.8,0.4-3,1.9-4.1c4.7-3.5,8.6-7.9,11.2-13.2
	c0.3-0.7,0.9-1.2,1.3-1.8c0.2,1.8-0.2,3.4-0.4,5c-0.5,3.2-0.7,6.3,0.6,9.4c1,2.4,2.5,3.2,4.7,2c1.9-1.1,3.4-2.8,5-4.2
	c0.3-0.2,0.1-0.9,0.2-1.5c-1.7,1.3-3.2,2.3-4.5,3.3c-3.7-2.9-4.4-7.9-2.2-12.3c3.5-0.5,6.8-0.9,10.1-1.4c0.3,1,0.6,2,0.9,3
	c1.5,4.4,4.4,5.7,8.4,3.5c4-2.1,7.1-5.3,9.8-8.9c0.3-0.4,0-1.3,0-1.9C167.5,157.5,166.9,158.4,166.2,159.1z M159.2,145.6
	c1.2,3.4-1.2,5.2-3.5,7.8C155.8,149.9,156.7,147.4,159.2,145.6z M127.1,140.4c1.8,0.7,1.8,1.8,1.5,3.2c-0.6,3.8-2.4,7.1-4.5,10.3
	C124.2,149.2,124.3,144.5,127.1,140.4z M104.8,176.7c-2.1-4.7,1-13.5,5.3-15.3C111.1,164.9,107.8,174.3,104.8,176.7z M117.2,173.2
	c0.9-1.3,1.5-2.2,2.1-3.2c0.2,0.1,0.4,0.3,0.6,0.4C119.1,171.3,120.3,173.4,117.2,173.2z M179.8,105.4c2.1,2.5,6.5,1.7,8-1.5
	C184.9,103.1,182.4,104.4,179.8,105.4z M114.5,146.9c-0.9-0.3-2.1,0.9-2,2.3c0,0.6,0.5,1.1,1.1,2.3c0.9-1.4,1.6-2.2,2-3.2
	C115.7,148,115,147.1,114.5,146.9z M64.6,87.3c1.6-0.7,2.4-1.6,1.7-3.6c-0.9,0.1-2.1-0.1-2.5,0.4C62.7,85.2,63.3,86.3,64.6,87.3z
	 M106,161.4C106,161.4,106,161.4,106,161.4C106,161.4,106,161.4,106,161.4C106,161.4,106,161.4,106,161.4c-0.1,0-0.1,0-0.1,0
	c0,0,0,0.1,0,0.1C105.9,161.5,105.9,161.5,106,161.4C106,161.5,106,161.5,106,161.4L106,161.4z M97.8,158c-0.2,1.2-0.3,2.2-0.4,3.5
	c-1.1-0.4-2.1-0.8-3-1.1c-3.1,4.2-3.6,9.6-7.1,13.7c-2.7-2.6-2.3-5.7-2.7-8.5c-0.2-1.5,0.1-2.7,1.3-3.7c1.7-1.5,2.7-3.5,2.9-5.8
	c0.2-2-1.2-3.6-3.2-3.2c-1.3,0.2-2.5,1.1-3.7,1.8c-0.7,0.4-1.3,1.2-1.9,1.8c-0.1-3.1,0.2-6,0.8-8.8c0.2-1,1.1-2,2-2.7
	c2.8-2,5.3-4.3,6.7-7.5c0.6-1.2,1-2.7,0.8-4c-0.1-1-1.3-1.9-1.8-2.5c2.3-3.3,5.1-6.3,6.7-9.8c1.5-3.2,3.5-4.7,6.8-5.3
	c0.1,0.5,0.3,0.9,0.4,1.4c0.7,5,1.9,9.9,3.9,14.5c0.6,1.4,1.5,2.3,3.1,2.5c1.8,0.3,2.5-0.9,3.1-2.2c0.2-0.5,0.5-0.9,1-1.8
	c0.4,1,0.6,1.6,0.9,2.2c0.3,0.6,0.6,1.3,0.9,1.9c1.4,2.2,3,2.4,4.8,0.7c2.3-2.2,3.4-5,3.8-8.1c0.4-2.9,0.6-5.8,1-8.7
	c0.1-0.5,0.5-1,1-2c1.1,3.8,1.2,7.5,4.5,10c1.2-1.3,2.3-2.5,3.4-3.6c3,1.4,4.6,0.8,5.6-2.2c0.5-1.5,0.5-3.2,0.6-4.8
	c0-0.8-0.2-1.5-0.5-2.9c1.1,1.5,1.8,2.6,2.7,3.5c2.5,2.5,5.6,2.2,7.7-0.7c0.7-1,1.3-2,2.4-3.7c0,2.3-0.1,3.9,0,5.4
	c0.1,1.3-0.5,3,1.3,4.2c0.9-2.5,0.8-4.6,0.7-6.8c-0.2-3.8-0.2-7.5,1.8-10.9c0.7-1.2,1.3-2.2,2.9-2.1c1.6,0.1,2.1,1.3,2.4,2.6
	c0.5,2.4,1.1,4.8,1.4,7.2c0.3,2.4,0.4,4.8,0.7,7.3c1.7-0.1,2.3-1.2,2.1-2.5c-0.8-4.7-1.5-9.5-2.9-14c-1-3.4-3.1-3.7-6.2-1.8
	c-0.2,0.1-0.5,0.1-1.1,0.2c0.5-2.8,0.8-5.3,1.4-7.8c0.7-3.1,1-6.2,0.6-9.4c-0.2-1.8-0.9-3.1-2.6-3.8c-2.2,1.2-2.8,1.5-3.2,3.4
	c-0.5,2.7-0.6,5.6-0.6,8.3c0,3.3,0.6,6.6,0.5,9.8c-0.2,4.9-2.3,9.2-5,13.2c-0.2,0.2-0.6,0.3-1.2,0.5c-0.7-1.1-1.5-2.3-2.2-3.3
	c2.3-3.3,4.7-6.3,2.9-10.6c-5.2,0.4-5.5,4.8-6.9,8.3c-0.9-0.1-1.8-0.2-2.8-0.3c-0.5,3.8,2.7,7.5-0.4,11.3c-1.8-3.1-0.6-6.8-2.7-9.7
	c-1.8,2-1.1,3.9-0.8,5.9c0.3,2,0.7,4.1-1.2,5.8c-3.9-3.5-2.7-8.5-4.1-13.2c-1,1.6-1.6,2.6-2.4,3.8c-0.4-0.9-0.6-1.4-0.8-2
	c-0.2-0.7-0.3-1.4-0.6-2c-0.8-1.7-2.1-1.9-3.3-0.5c-0.5,0.6-0.9,1.4-1,2.2c-0.1,1.6-0.3,3.5,0.4,4.8c0.7,1.4,2.4,2.3,3.9,3.7
	c-0.7,4.9,0.2,10.6-4.8,14.6c-2.5-1.9-3.1-4.3-3.1-6.8c-0.1-4.6,0.6-9.1,1.7-13.5c1-4,1.5-8,1.9-12.1c0.2-1.7,0.4-3.6-2-4.9
	c-0.7,0.9-1.6,1.7-2.1,2.7c-1.6,3.2-1.6,6.8-1.7,10.3c0,3.4,0.1,6.8,0,10.2c-0.1,4-1.3,7.7-3.6,11.2c-2.2-3-3.5-5.7-3.4-9.1
	c0.1-1.7-0.3-3.5-0.6-5.2c-1.2-8.6-1.7-17.2-0.2-25.9c0.1-0.8-0.1-1.6-0.2-2.4c-0.3,0-0.6-0.1-0.8-0.1c-0.7,1.4-1.5,2.8-2,4.3
	c-2.6,6.8-5.1,13.6-7.6,20.4c-1,2.9-2.7,4.8-6,4.8c-0.5,0-1.1,0.6-1.7,0.9c0.1,0.2,0.2,0.4,0.3,0.7h4.2c-1.3,3.4-2.5,6.4-5.7,8.4
	c-3.1-3-1.9-7.6-5-11.3c-0.4,0.8-1,1.4-1,2c0,5.1-0.2,10.3,3.3,14c-1.3,3.9-2.5,7.4-3.8,11c-0.3,0.9-0.6,2-1.2,2.4
	c-3.5,2.4-7.3,4.4-11.8,2.5c-1.5-0.6-2.9-1.5-4.3-2.3c-1.3-0.7-2.2-0.5-2.6,1.2c5.9,4.5,12.1,5.3,19.2,0.7
	c-0.9,4.5-1.6,8.2-2.2,11.8c-1,5.5-2.1,11-3,16.6c-0.2,1,0.2,2.2,0.3,3.3c0.2,0.1,0.5,0.1,0.7,0.2c0.5-0.5,1.2-1,1.4-1.6
	c0.7-2.2,1.4-4.5,1.8-6.8c0.4-2.3,1.3-3.9,4-4.6c0.3,1.1,0.4,2.2,0.8,3.3c0.6,1.6,1.1,3.4,2.1,4.8c1.6,2.3,3.6,2.1,4.8-0.4
	c1.4-2.8,2.5-5.8,3.8-8.7c0.2-0.5,0.6-0.9,1.4-2c1.1,5.9-0.8,11.1-0.1,16.2c1.4,0.9,2.2,0.4,2.4-0.9c0.9-5.1,1.7-10.3,2.5-15.3
	c2.3-0.7,4.3-1.3,6.2-1.8c-0.1-0.4-0.1-0.8-0.3-1.5C102.5,161.8,100.7,158.3,97.8,158z M154,82.1c2.3,2.4,2.1,7-0.7,12.8
	C153.6,90.7,152.4,86.3,154,82.1z M122.1,113.6c-0.5-0.8-0.9-1.6-1.6-2.7C122.6,111.5,122.6,111.5,122.1,113.6z M116.8,100.2
	c0.3,0,0.5,0,0.8,0c-0.4,3.5-0.8,7-1.4,11.3C114.7,107.6,115,104.4,116.8,100.2z M100.4,108l0.6,0c0.2,1.2,0.5,2.4,0.8,3.8
	c-0.9,0.5-1.8,1-3.4,1.9C99.2,111.3,99.8,109.7,100.4,108z M86.4,133c1.5,3.2,0.5,5.3-4.2,9.3C82.9,138.4,83.6,135.3,86.4,133z
	 M81.5,158.8c1.2-1.6,2-3.4,4.5-4c0.7,2.7-0.7,4.2-2.2,5.9C83,160.1,82.3,159.5,81.5,158.8z"/>
</svg>
