<?xml version="1.0" encoding="utf-8"?>
<!-- Generator: Adobe Illustrator 18.0.0, SVG Export Plug-In . SVG Version: 6.00 Build 0)  -->
<!DOCTYPE svg PUBLIC "-//W3C//DTD SVG 1.1//EN" "http://www.w3.org/Graphics/SVG/1.1/DTD/svg11.dtd">
<svg version="1.1" id="Ebene_1" xmlns="http://www.w3.org/2000/svg" xmlns:xlink="http://www.w3.org/1999/xlink" x="0px" y="0px"
	 width="387.6px" height="283.8px" viewBox="0 0 387.6 283.8" enable-background="new 0 0 387.6 283.8" xml:space="preserve">
<path fill="#232323" d="M8.1,17.4c-0.8,0.9-1.5,1.9-2.3,2.8C7.5,20.3,8.4,19.5,8.1,17.4z M5.7,20.2C5.7,20.2,5.7,20.2,5.7,20.2
	C5.7,20.3,5.7,20.3,5.7,20.2L5.7,20.2z M1.4,13.1C3,9.7,4.6,9.3,7.3,11.6c1.2,1,2.2,2.2,3.2,3.4c4,4.9,7.9,9.8,11.9,14.7
	c0.7,0.9,1.3,2.1,2.9,1.5C25.9,24.8,24,18,27,11.7c-2.6-0.9-1.3-3.5-1.4-5.6c-0.1-1.9,0.5-3.7,2.5-4.5c0.4-0.2,1,0,1.5,0.1
	c-1-2-1.7-2.2-3.3-1.1c-2.2,1.5-2.7,3.7-2.6,6.2c0.1,6,0.1,12.1,0.1,18.1c0,0.7-0.2,1.4-0.4,2.8c-1.3-1.4-2.2-2.3-3-3.3
	c-3.7-4.5-7.3-8.9-11-13.4C8,9.2,6,8.3,3.7,8.4c-3.3,0.2-4.6,2.7-3,5.5C1,13.6,1.3,13.4,1.4,13.1z M29.6,1.8
	C29.6,1.8,29.6,1.8,29.6,1.8C29.6,1.8,29.6,1.8,29.6,1.8C29.6,1.8,29.6,1.8,29.6,1.8C29.6,1.8,29.6,1.8,29.6,1.8
	C29.6,1.8,29.6,1.8,29.6,1.8z M39.6,55l0.7-0.1c-0.1-1.3-0.2-2.6-0.2-3.9c-0.4,0-0.8,0.1-1.2,0.1C39.2,52.3,39.4,53.7,39.6,55z
	 M5.7,20.2L5.7,20.2l0.1,0C5.8,20.2,5.7,20.2,5.7,20.2z M32.5,7.8c0.7,7.5,1.2,15.1,1.6,22.7c0,0.9-0.9,2-1.7,2.8
	c-1.3,1.3-2.9,2.3-4,3.7c-0.8,1-1.9,2.3,0.1,3.8c2.3-4.7,6.2-7,12-7.8c-2.2-0.9-3.4-1.5-4.6-2c-0.2-5.2-0.2-10.4-0.7-15.4
	c-0.4-4.1-1.6-8.2-2.4-12.2c-0.4-1.9-1.6-2.1-3.2-1.5C31.8,3.1,32.3,5.5,32.5,7.8z M16.9,35.4c1.7-2.1,2.4-2.2,4.2-0.1
	c1.4,1.5,2.5,3.2,4,5.1c0.8-2.7-1-4.2-2.1-5.7c-0.7-1-1.8-1.9-3-2.3c-2.9-1-5.1,1.3-5.5,5.3C15.4,36.9,16.2,36.2,16.9,35.4z
	 M14.6,33.7c-3-4.6-5.9-9-8.9-13.5c-1.5-1.5-2-3.9-5-5.2C2.1,19.6,5,22.3,7,25.5C11.7,33,11.7,33,14.6,33.7z M37.6,47.1
	c-0.9,0.7-1.2,1-1.5,1.2c-0.4-0.7-0.9-1.3-1.7-2.6c-0.2,2.9-0.4,4.9-0.5,6.8c-5.3,0.3-6.7-0.8-7.1-5.3c-0.1-1.2,0-2.4,0-3.5
	c0-0.7-0.3-1.3-0.4-1.9c-0.3,0-0.6,0-0.9,0c-0.2,2.4-1,4.9-0.5,7.2c0.5,2.3,2.3,4.3,3.6,6.5c-1.7,0.7-2.4-0.4-3.2-1.8
	c-2.1-3.6-4.2-7.2-6.4-10.7c-1.2-1.9-2.9-3.5-4.3-5.2c0-0.1,0-0.2,0-0.2c0,0-0.1,0.1-0.1,0.1c0,0,0.1,0.1,0.1,0.1h-2.8
	c0.6,0.9,0.8,1.3,1.1,1.7c2.6,3.1,5.4,6,7.8,9.3c1.6,2.1,2.7,4.6,3.7,7.1c0.3,0.9,0,2.6-0.7,3.1c-0.5,0.4-2.1-0.1-3.1-0.6
	c-1.2-0.7-2-2-3.8-1.5c1.9,3.4,4.5,5,7.4,4.3c1.9-0.5,3.5-0.2,5,0.8c0.1,0.1,0.4,0.1,0.5,0.1c0.4-1.1,0.9-2.2,1.4-3.5
	c0.9,2.1,0.9,2.1,3.6,2.8c0.5-3.3,0.9-6.6,1.4-9.8c0.2,0,0.4,0,0.6,0.1v8.1C37.9,55.8,38.2,51.7,37.6,47.1z M382.8,124
	c-1.9-5.2-3.3-10.5-6.7-15c-10.8-14.4-25.5-22.2-42.5-26.5c-0.9-0.2-2,0.1-3.4,0.1c0.7,0.7,0.8,1,1,1.1c5.2,1.7,10.5,3.3,15.6,5.2
	c10.2,3.8,18.7,10,25.6,18.4c3.2,3.9,6.2,8.2,7.8,13.1c2.6,8.2,5.6,16.4,5.3,25.3c-0.1,2.9,0.3,5.7,0.2,8.6
	c-0.3,6.5-0.4,13.1-1.3,19.6c-1.8,12.9-6.5,24.8-14.6,35.1c-0.4,0.5-0.8,0.8-1.5,1.5c-0.7-5.8-3-10.4-6.1-14.7
	c-3.1-4.2-5.4-9-11.2-11.1c1.9-2.5,3.6-4.8,5.3-7c0,0,0,0,0,0c2.6-0.7,5.2-1.4,7.8-2.1c0.1,0.2,0.1,0.4,0.2,0.6
	c-2.8,1.4-5.5,2.8-8.3,4.3c0,0.1,0.1,0.2,0.1,0.3c2.5-0.7,5.1-1.4,7.6-2.1c-0.9,1.1-1.8,2.2-2.6,3.1c1.1,1,2.4,2.2,3.4,3.1
	c2.5,0.5,2.6-1.5,3.6-2.6c1.1-1.1,3.5-0.5,4.8-3c-1.7,0.4-2.9,0.6-4.1,0.9c0-0.1-0.1-0.2-0.1-0.3c1.2-0.7,2.5-1.4,3.8-2.2
	c0.1-0.7,0.1-1.3,0.3-1.9c0.2-0.6,0.6-1.2,0.8-1.8c0.4-1.8,1.1-3.6,1.1-5.3c0.1-4-0.1-8-0.3-12.1c-0.5-11.6-3.6-22.5-9.8-32.3
	c-6.5-10.3-14.5-18.9-26.9-22.4c-0.9,1.9-2.3,3.7-0.4,5.9c1.2-0.3,2.5-0.6,4.3-1.1c-1.9,2.1-6,1.1-4.8,5.1c2.7-1,5.2-2,7.8-3
	c0.1,0.3,0.2,0.5,0.3,0.8c-2,0.9-4,1.8-6.1,2.6c-2.4,1-4.2,2.5-4.9,5.2c7.2,1.9,12.4,6.3,16.3,12.3c1.9,2.9,3.6,6.1,5,9.4
	c3.5,8,4.5,16.4,2.4,25c-1.2,4.6-2.6,9.3-4.4,13.7c-1.4,3.5-3.7,6.6-5.3,10c-0.8,1.7-1.1,3.8-0.9,5.7c0.2,2.4,1.2,4.8,1.8,7.3
	c-9.1,7.7-19.7,12.5-31.5,14.6c5.8,0.7,10.8-0.4,17.1-3.2c9.2-4,17.1-10.1,24.7-17c1.5,2.3,2.9,4.5,4.4,6.9
	c-3.3,3.3-6.4,6.1-10.3,7.9c-8.2,3.8-16.3,7.8-24.7,11.2c-5.8,2.3-11.9,4.1-18,5.3c-2.7,0.5-4.4,1.7-6.3,3.3c-1.8,1.4-3.9,3.2-6,3.4
	c-4.9,0.5-7.3,3.6-9.3,7.4c-0.6,1.2-1.2,2.3-1.7,3.5c-1.7,3.9-4.3,7.2-7.4,10c-1.2,1-2.4,2-3.7,3c-1.9,1.4-2.9,3.2-2.8,5.7
	c0.1,3.4,0,6.8-0.1,10.2c-0.1,2.7-0.7,5.2-2.5,7.3c-2.5,2.9-6.1,2.3-7.3-1.4c-0.6-2-1-4.1-0.9-6.2c0.2-4.8,0.7-9.7,1.1-14.5
	c0.1-0.9,0.7-2.1-0.9-2.5c-0.2,0.3-0.6,0.6-0.7,1c-0.6,6-1.3,12-1.6,18c-0.1,2.1,0.7,4.4,1.5,6.4c1.4,3.2,4.5,3.8,7.5,2
	c4.2-2.5,5.9-6,5.8-10.8c-0.1-4.2,0-8.3,0-12.2c2.7-2.1,5.2-3.7,7.4-5.7c3.7-3.3,6.1-7.5,7.9-12.1c1.5-3.7,3.6-6.5,8-7.1
	c1.7-0.2,3.8-1,4.9-2.2c3.6-4.1,8.2-5.2,13.3-6.2c5.1-1,10.1-2.9,14.9-4.9c6.7-2.7,13.6-4.9,19.7-8.9c1.3-0.8,2.8-1.2,4.1-1.7
	c2.1,1.4,3.8,2.8,5.8,3.7c1.2,0.6,3,0.9,4,0.4c2-1,4-2.5,5.5-4.3c7.6-9.2,11.8-20,14.4-31.5c1.6-7.1,2.1-14.2,2.3-21.4
	C387.9,146.4,386.8,135,382.8,124z M363.9,178.3c0.8-0.3,1.6-0.7,2.4-1C366,179,365,178.6,363.9,178.3z M360.9,172
	c1.9-1,3.8-2.1,6.2-2C365.4,171.6,363.3,172,360.9,172z M361.5,159.8c-0.1-0.3-0.2-0.6-0.3-1c2.1-0.6,4.2-1.2,6.4-1.8
	c0.1,0.2,0.1,0.5,0.2,0.7C365.6,158.4,363.6,159.1,361.5,159.8z M366.5,160.4c-1.8,0.7-3.6,1.3-5.4,2c-0.1-0.3-0.3-0.6-0.4-0.9
	l5.6-1.7L366.5,160.4z M360.3,157.7c0.2-1.6,0.3-2.4,0.4-3.2c0.2,0,0.3,0,0.5-0.1c0.2,0.6,0.4,1.2,0.7,1.8c1-0.1,1.9-0.3,2.8-0.4
	c0,0.2,0.1,0.3,0.1,0.5C363.4,156.7,362.1,157.1,360.3,157.7z M360.3,164c4-1.3,8-2.5,11.9-3.8c0.1,0.3,0.2,0.5,0.3,0.8
	c-4.2,1.5-8.4,3-12.6,4.5c-0.1-0.2-0.3-0.4-0.4-0.6C359.8,164.6,360,164.1,360.3,164z M366.3,168.2c-1.6,0.6-3.2,1.3-4.8,1.9
	c-0.1-0.3-0.2-0.6-0.3-0.8c1.6-0.5,3.3-1.1,4.9-1.6C366.2,167.8,366.3,168,366.3,168.2z M369.9,171.6c0.8-0.2,1.6-0.4,2.7-0.6
	C372.1,173.2,371,172.6,369.9,171.6z M371,169.3c-1.1,0.3-2.3,0.4-3.4,0.5c1-0.5,2.1-0.9,3-1.5c0.7-0.5,1.2-1.2,2-1.9
	C372.9,167.7,372.6,168.9,371,169.3z M371.9,158.6c-0.5-0.8-1.1-1.6-1.6-2.5c0.2-0.2,0.5-0.3,0.7-0.5c0.5,0.8,1.1,1.7,1.6,2.5
	C372.4,158.3,372.2,158.4,371.9,158.6z M371.5,147.2c-3.6,1.9-8,2.1-11.2,6.2c-0.4-3.5-0.8-6.1-1.2-9.1c1.5-0.5,2.9-1,4.3-1.5
	c0.1,0.2,0.2,0.4,0.3,0.6c-0.7,0.4-1.4,0.8-2.2,1.3c0,1.3,2.9,3.1-0.2,4.6c3.3-1,6.7-2,10-3C371.4,146.6,371.5,146.9,371.5,147.2z
	 M348.1,111.8c-1.4,1.6-2.8,1.6-4.4,0.8C345.1,112.3,346.5,112.1,348.1,111.8z M337.5,115.1c2.1-0.8,4.2-1.7,6.2-2.5
	c-0.2,0.5-0.2,1.2-0.6,1.4c-0.8,0.6-1.7,1-2.5,1.4c0,0,0,0,0.1-0.1c-1,0.1-2,0.1-3.1,0.2C337.6,115.4,337.5,115.2,337.5,115.1z
	 M340.6,115.4c0.6,0.1,1.2,0.2,2.2,0.4c-1.3,0.5-2.2,0.9-3.7,1.4C339.9,116.4,340.2,115.9,340.6,115.4z M343.7,119.2
	c0.6-0.5,1.1-1,1.7-1.4c-0.9,0-1.7,0.1-2.6,0.1c0-0.2-0.1-0.3-0.1-0.5c2-0.6,4-1.3,6-1.9l0.1,0.3c-1.2,0.7-2.3,1.3-3.5,2
	c0.8,0.1,1.5,0.2,3.2,0.4c-2,0.7-3.2,1.1-4.4,1.5C343.9,119.5,343.8,119.3,343.7,119.2z M345.5,120.5c2.2-0.6,4.5-1.3,6.7-1.9
	C350.3,120.4,348.2,121.5,345.5,120.5z M347.9,123.4c1-0.6,1.8-1.1,3.1-1.8C350.8,124.6,350.8,124.6,347.9,123.4z M350.9,125.5
	c1.1-0.4,2.2-0.8,3.3-1.2c0.1,0.2,0.2,0.5,0.3,0.7c-1.1,0.4-2.3,0.8-3.4,1.1C351.1,125.9,351,125.7,350.9,125.5z M352.2,127.1
	c1.3-0.4,2.5-0.9,3.8-1.3c0.1,0.2,0.2,0.4,0.2,0.6c-1.3,0.4-2.5,0.8-3.8,1.3C352.4,127.5,352.3,127.3,352.2,127.1z M352.7,129
	c1.2-0.3,2.5-0.7,3.7-1c0.1,0.3,0.2,0.5,0.2,0.8c-1.2,0.4-2.5,0.8-3.7,1.2C352.9,129.6,352.8,129.3,352.7,129z M354.4,133.3
	c2.1-0.9,4-1.6,5.9-2.4c0,0,0,0,0,0c1.6-0.3,3.3-0.7,4.9-1c-1.4,1.6-3.2,1.1-4.9,1c-0.6,0.6-1.1,1.2-1.6,1.8
	c-0.8,0.9-1.6,1.7-2.5,2.7C355.7,135,355.1,134.3,354.4,133.3z M357.9,139.7c-0.4-0.8-0.7-1.7-1.3-3c1.2,0.2,1.9,0.3,2.5,0.4
	c-0.1,0.9-0.3,1.7-0.4,2.6C358.4,139.7,358.1,139.7,357.9,139.7z M358.7,140.6c2.4-0.8,4.7-1.5,7.1-2.3c0.1,0.2,0.2,0.5,0.3,0.7
	l-7.1,2.4C358.9,141.2,358.8,140.9,358.7,140.6z M365.7,165.8c-2.2,1-4.4,1.9-6.6,2.9c-0.2-0.3-0.3-0.6-0.5-0.9
	C360.5,165.8,363,165.7,365.7,165.8z M358.2,174.6c1.1-0.1,2.1-0.5,3.4-0.3c-1.8,1.1-3.6,2.2-5.4,3.3
	C356.3,176.2,356.2,174.8,358.2,174.6z M354.3,195.8c0-0.8-0.1-1.5-0.1-2.3c0.2,0,0.5-0.1,0.7-0.1c0.1,0.8,0.3,1.5,0.4,2.3
	C355,195.8,354.6,195.8,354.3,195.8z M98.1,110.6c-0.2-0.2-0.4-0.3-0.6-0.5c-0.6,0.6-1.1,1.2-1.7,1.8c0.1,0.1,0.3,0.3,0.4,0.4
	C96.9,111.8,97.5,111.2,98.1,110.6z M94.4,113.8c-0.2-0.2-0.4-0.4-0.5-0.5c-0.7,0.6-1.4,1.2-2.1,1.7c0.1,0.1,0.2,0.3,0.3,0.4
	C92.9,114.9,93.7,114.3,94.4,113.8z M142,69.6c-4.8,1.3-9.5,2.7-14.3,4.3c-12.7,4.1-25.3,8.5-38.4,11.3c-9.8,2-18.7,1.5-26.9-4.6
	c-1.2-0.9-2.2-0.8-3.6-0.7c-3.7,0.4-6.5,1.8-7.8,5.9c-4.4-4.3-6.4-9.6-9-14.4c1.2-1.4,2.4-2.5,3.3-3.8c5.4-7.5,5.6-15.9,3.4-24.4
	c-1-3.9-2.8-7.3-5.7-10.1c-0.4-0.4-1.2-0.4-1.8-0.6c-0.2,0.2-0.3,0.4-0.5,0.6c1,1.2,2.2,2.4,3,3.7c5.8,9.5,6.2,19.3,0.8,29.1
	c-1,1.7-2.6,3.1-4.3,5.2C43.2,78.9,46.7,87,55.6,92c-3.4,3.2-6.6,6.2-9.8,9.3c-5.1-7.7-8.6-15.6-11.7-23.7c-1-2.5-2.2-4-4.8-4.3
	c-6.2-0.7-10.3-4.5-14-9.3c-3.7-4.9-5.5-10.7-7.5-16.3c-1.3-3.7-0.7-7.3,2.9-9.8c-1.9-0.7-3.1,0-3.9,1.7C5,43.4,5,47.2,6.4,51
	c1,2.6,2,5.1,3.2,7.6c3.5,7.4,8.2,14.1,16.6,16.1c4.4,1,6.3,3.1,7.4,7.1c0.6,2.2,1.9,4.3,2.9,6.5c1.3,2.8,2.6,5.7,3.8,8.5
	c-0.7,0.9-1.3,1.6-1.8,2.3c-2.1,2.7-2.7,5.4-0.8,8.6c3.5,6,8.4,10.4,15,12.5c6.6,2,13.3,3.6,20.2,4.1c10.9,0.8,21.5-0.5,31.5-5.2
	c8-3.7,16.3-6.1,24.7-8.5c1.6-0.5,3.5-1,4.9,1.1c1-0.8,2-1.6,3.5-2.8c-2.4-0.2-4.1-0.4-6.4-0.6c1.7-1,2.8-1.7,4-2.4
	c-1.2-0.2-2.2,0.2-3.1,0.4c-0.9,0.2-1.7,0.2-2.6,0.2c1.4-1,2.8-2,4.1-2.9c-0.6-0.8-1.2-1.4-1.8-2.2c-1,0.4-2.2,0.9-3.7,1.6
	c0.7-1.1,1.2-1.8,1.7-2.6c-2.6,1.2-4.6,2.9-6.7,4.5c-1.4,1-2.9,1.8-4.3,2.7c0.7-0.9,1.3-2,2.2-2.7c3.1-2.4,6.3-4.7,9.5-7
	c0.3-0.2,0.6-0.5,0.9-0.8c-0.4-0.2-0.7-0.5-1-0.7c0.6-0.7,1.3-1.4,2.6-2.8c-2.2,0-3.5-0.2-4.9,0c-5.9,0.6-11.4,2.9-16.9,4.9
	c-7,2.6-13.7,5.9-21.2,6.6c-4.6,0.4-9.1,1.7-13.6,1.8c-5.1,0.1-10.1-0.6-15.4-1c-0.9,2.9-6.2,1.9-6.5,6.2c2.6-0.9,5.2-1.9,7.7-2.8
	c0.1,0.2,0.2,0.4,0.2,0.6c-2.9,1.4-5.9,2.7-8.8,4.1c0.1,0.2,0.2,0.4,0.3,0.7c3.5-1.4,7-2.9,10.6-4.3c-0.1,0.6-0.1,1-0.2,1.4
	c-2.9,1-5.7,2.1-7.9,4.4c2.8-1.2,5.8-1.9,7.9-4.3c1.6-0.5,3.2-1,5.1-1.6c-1.7,1.6-3,2.9-4.4,4.2c0.9-0.3,1.8-0.7,3-1.1
	c-0.3,0.8-0.5,1.3-0.7,1.8c-3.2,1.5-6.5,3-10.4,4.7c1.1-1.3,1.8-2.2,2.5-3.1c-1.3,0.7-2.6,1.5-4.1,2c-1.7,0.6-2-0.5-1.6-1.9
	c-1.1,1-2.2,1.2-3.6,0.3c-4.2-2.6-7.5-6-10.2-10.1c10.6-5.4,18.3-13.2,23.5-23.7c0.8,0.4,1.4,0.7,1.9,1.1c3.9,2.7,8.3,3.7,13,3.8
	c7.8,0.2,15.4-1.7,22.8-3.7c11.1-3,21.9-7,32.9-10.5c3.6-1.1,7.3-2,11-2.9c1.6-0.4,3.3-0.2,5.8-0.4C147.2,68.9,144.6,68.9,142,69.6z
	 M109,111.5c1-1.1,2-2.2,3-3.3c0.2,0.2,0.4,0.4,0.6,0.6C111.7,110.1,110.9,111.5,109,111.5z M129,106.7c0,1.6-1.2,1.9-2.6,2
	C127.3,108.1,128.2,107.4,129,106.7z M120.5,109.7c0.9,0.2,2.2-1.2,3.3-1.9c-2,3.5-5.6,4-9,4.9C116.6,111.7,117.6,109.2,120.5,109.7
	z M115.8,110.1c0.1-1.7,1-2.4,2.4-2.4C117.4,108.5,116.6,109.3,115.8,110.1z M127,96c0.1,0.2,0.3,0.4,0.4,0.5
	c-0.8,0.6-1.5,1.1-2.3,1.7c-0.1-0.2-0.3-0.4-0.4-0.6C125.5,97.1,126.3,96.5,127,96z M122.6,100.5c-1.4,1.3-2.8,2.7-4.3,4
	c-0.2-0.2-0.4-0.4-0.6-0.5c1.5-1.3,2.9-2.6,4.4-3.9C122.3,100.1,122.4,100.3,122.6,100.5z M119.2,97.2c0.1,0.2,0.3,0.5,0.4,0.7
	c-1,0.6-1.9,1.2-2.9,1.8c-0.2-0.3-0.4-0.6-0.6-0.8C117.1,98.4,118.2,97.8,119.2,97.2z M115.1,106.1c0.3-0.3,0.8-0.5,1.2-0.7
	c0.1,0.2,0.3,0.4,0.4,0.6c-0.7,0.5-1.4,1.1-2.1,1.6c-0.1-0.1-0.3-0.2-0.4-0.3C114.5,106.8,114.8,106.4,115.1,106.1z M76,108.8
	c-2.3,1.3-3.7,2.2-5.2,3C72.2,109.5,72.2,109.5,76,108.8z M62.3,117.9c1.6-1,3.1-2,4.7-3c0,0,0,0.1,0,0.1c3.5-1.8,7.1-3.5,10.6-5.3
	c0.1-0.1,0.3-0.3,0.4-0.4c1.3-2.3,3.6-1.3,5.9-1.1c-0.9,0.7-1.7,1.5-2.6,2.2c-0.1-0.6-0.1-1.2-0.2-1.8c-1.1,0.3-2.1,0.5-3.1,0.7
	c-0.2,0.1-0.3,0.2-0.4,0.4c-1.7,1.4-3.4,2.9-5.2,4.3c-1,0.8-2.3,1.2-2.1,2.9c3.7-1.2,7.7-1.8,10.3-5.2c1.9-1.3,3.7-2.5,5.6-3.8
	c0.6-0.4,1.3-0.8,2.5-1.5c-0.3,1.4-0.5,2.1-0.7,2.8c2.1-0.9,3.8-3,6.7-3.1c-1,1.1-1.7,1.9-2.5,2.7c2-1.1,4-2.3,6.8-3.9
	c-1.4,1.9-2.3,3.1-3.2,4.4c2.4-1.8,4.6-3.6,7.1-5.3c1.3-0.9,3-1.3,4.5-1.9c-1.3,1.3-2.7,2.6-4,3.8c2.4-0.4,4.1-1.7,5.5-3.7
	c0.7-0.1,1.4-0.3,2.8-0.6c-3.9,3.6-7.3,6.8-10.7,10c2.7-1.7,5.4-3.5,8.1-5.2c1.3-0.9,2.6-1.8,4.2-2.4c-4.4,3.9-8.4,8.4-13.4,11.5
	c0.1,0.6,0.3,1.2,0.5,2.1c1.9-1.5,3.8-3,5.7-4.3c0.8-0.6,1.8-1,2.7-1.5c-2.5,3.5-5.3,6.5-9.9,7.1c-1,0.1-1.8,1-2.8,1.3
	c-0.3,0.1-0.9-0.5-1.3-0.7c-1.6,0.8-3.2,1.7-4.9,2.3c-0.8,0.3-1.6,0-0.7-1.1c-2.7,1.4-5.5,2.3-8.5,2.1c-0.8-0.1-1.6-0.6-2.4-0.9
	c-2.6,1.5-5.1,0.8-8.1,0.1c0.5-0.8,0.7-1.2,1-1.6c-1.5,0.5-3,1-5.3,1.9c0.8-1.5,1.1-2.1,1.5-2.8c-2.3,0.7-4.5,3-7.4,0.1
	C60.6,119,61.4,118.4,62.3,117.9z M101.1,111.5c-1.5,0.5-2.9,1.1-3.3,2.9C98.9,113.5,100,112.5,101.1,111.5z M83,112.1
	c-1.6,1.3-3.2,2.5-4.8,3.8c1-0.4,2-0.9,3-1.3C81.7,113.8,82.3,113,83,112.1z M265,269.3c1.6-0.5,3-1,4.8-1.5
	C266.3,266.9,265.8,267.1,265,269.3z M256.2,230.1c6.6-3.6,6.6-3.6,7.5-7.7c-0.7-0.5-1.7-1.1-3.3-2.2c1.9-0.5,2.7-0.6,3.4-0.9
	c1.9-0.7,3.1-1.9,3.5-3.9c0.4-2.1-1.4-2.6-2.7-3.4c-5-3.3-10.8-2.6-16.3-3.3c-0.6-0.1-1.2,0.4-1.9,0.6c-2.6,1.1-4.7,2.7-5.9,5.5
	c-3-1.1-5.6-0.9-7.8,1.2c-1.2,1.1-2.3,2.4-3.6,3.6c-0.6,0.6-1.3,1.3-2,1.5c-2.9,0.7-4.8,2.5-6.3,4.9c-2.2,3.5-1,7.1,2.9,8.5
	c2,0.7,4,1.3,6.1,1.5c7,0.8,14,1.5,21.1,2.1c1.7,0.1,3.4-0.2,5-0.6c2.3-0.5,2.9-1.9,2-4.1C257.5,232.3,256.8,231.2,256.2,230.1z
	 M250.9,236.4c-7.8-0.7-15.6-1.7-23.4-2.7c-1-0.1-2-0.5-2.9-1c-3.4-1.8-3.9-3.7-1.4-6.5c1.3-1.5,3.2-2.8,5-3.5
	c1.4-0.5,2.1-1.2,2.9-2.3c2.2-3.1,6.1-5.6,11.8-4.3c0.4-2.2,1.4-4,3.7-4.9c2.1-0.8,4-1.5,6.4-0.7c3,1.1,6.3,1.4,9.4,2.4
	c1,0.3,2.4,1.8,2.3,2.6c-0.1,0.9-1.5,2.1-2.5,2.5c-2.7,1-5.4,1.7-8.4,1.2c-1.4-0.3-2.9,0-4.3,0c0,0.3,0,0.6,0,0.9
	c2.2,0.3,4.4,0.5,6.6,0.9c1.2,0.2,2.3,0.5,3.4,1c2,0.9,2.2,2.2,0.6,3.6c-2.3,1.9-4.7,3-7.9,2.6c-4-0.6-8.1-0.6-12.1-0.9
	c-0.9,0-1.9,0.2-2.8,0.3c0,0.3,0,0.6,0,0.9c1,0.1,2.1,0.2,3.1,0.3c3.6,0.3,7.3,0.4,10.9,0.9c2.7,0.4,4.8,2,5.1,5.6
	C254.3,235.7,252.5,236.5,250.9,236.4z M100.4,109.3c0.9-1,1.7-2,2.6-3c-1.1,0.7-2.2,1.5-3.3,2.2
	C99.9,108.8,100.1,109.1,100.4,109.3z M103,106.3c0.1-0.1,0.3-0.2,0.4-0.3c0,0,0,0,0,0l0,0c0,0,0.1-0.1,0.1-0.1c-0.1,0-0.1,0-0.2,0
	C103.2,106.1,103.1,106.2,103,106.3z"/>
</svg>
