<?xml version="1.0" encoding="utf-8"?>
<!-- Generator: Adobe Illustrator 18.0.0, SVG Export Plug-In . SVG Version: 6.00 Build 0)  -->
<!DOCTYPE svg PUBLIC "-//W3C//DTD SVG 1.1//EN" "http://www.w3.org/Graphics/SVG/1.1/DTD/svg11.dtd">
<svg version="1.1" id="Ebene_1" xmlns="http://www.w3.org/2000/svg" xmlns:xlink="http://www.w3.org/1999/xlink" x="0px" y="0px"
	 width="168.5px" height="227px" viewBox="0 0 168.5 227" enable-background="new 0 0 168.5 227" xml:space="preserve">
<path fill="#232323" d="M95.4,74.9c0.4-2.4-0.9-4.6-3-5c-2-0.4-4.1-0.6-6.1,0.4c0.8,7.2,1.6,14.4,2.4,21.5c0.3,0,0.6-0.1,0.9-0.1
	c-0.1-2.2,0-4.4-0.3-6.6c-0.3-2,0.5-2.8,2.6-3c1.1,1.7,2.2,3.5,3.3,5.1c1.1,1.6,2,3.6,4.6,1.9c0.3-0.2,1,0.1,1.5,0.3
	c1.5,0.5,2.5-0.2,3.4-1.2c1.6-1.8,1.7-3.7,0.7-5.8c-1.3-2.5-2.7-5-4-7.5c-0.9-1.8-1.4-3.6,0.2-5.3c2.4,0,2.2,2.4,3.5,3.5
	c1.2-1.6,0.3-2.8-0.5-3.7c-0.7-0.8-2.1-1.8-2.9-1.6c-1,0.3-2.2,1.6-2.4,2.6c-0.3,1.5-0.1,3.3,0.4,4.7c0.8,2,2.1,3.8,3.1,5.7
	c0.7,1.2,1.4,2.5,1.7,3.8c0.4,1.3-0.6,2.8-1.9,3c-1.7,0.3-2.4-0.6-2.3-2.3c0-0.1-0.3-0.1-0.6-0.2c-0.3,0.9-0.6,1.8-0.9,2.7
	c-1.9-1.4-4.3-4.7-5.9-8.2c0.4-0.7,1-1.4,1.3-2.2C94.8,76.8,95.2,75.9,95.4,74.9z M92.5,78.3c-0.7,0.9-2.1,1.2-3.2,1.7
	c-0.5-3-0.9-5.5-1.3-8.2c4.2-0.6,6,0.2,6,2.6C93.9,75.8,93.3,77.3,92.5,78.3z M120.1,29.2c1.3-0.1,2.9-2.7,2.7-4.3
	c-0.3-0.2-0.8-1-1.2-0.9c-1,0.2-2.2,0.6-2.7,1.3c-0.6,0.7-0.6,2-0.5,3C118.4,28.6,119.5,29.2,120.1,29.2z M122,25.5
	c-0.6,0.9-1.1,1.4-1.7,2.3C119.9,25.8,119.9,25.8,122,25.5z M54.9,172.5c0.5,1.3,1.4,1.6,2.5,0.7c1.8-1.4,1.7-2.8-0.6-5.2
	C54.8,169.7,54.3,170.9,54.9,172.5z M109.1,43.2c0.3-0.7,0.7-1.4,0.8-2.2c0.4-3.5,1-7.1,1-10.7c0.1-2.9-0.1-5.9-0.8-8.7
	c-0.9-3.8-4.4-4.6-7-1.6c-1.5,1.7-2.7,3.7-3.3,5.9c-1.7,6-2.8,12.2-2.7,18.9c2.4-1.3,3.1-2.2,3.5-4.9c0.2-0.9,0.1-2.1,0.7-2.7
	c1.9-2.4,4.4-3.9,8-4.5c-0.3,3.7-0.6,7-0.8,10.3L109.1,43.2z M102.2,33.6c-1.1-3.6,1-8.5,4.7-11.2c1.6,2.2,1.7,4.7,2,7.7
	C106.6,31.3,104.4,32.5,102.2,33.6z M51.5,101c1,0.8,1.8,0.2,2.6-0.5c2.4-2.5,3.5-5.5,3.3-8.9c-0.1-2.5-0.4-4.9-3.2-5.2
	c-0.2-2.4,0-4.6-0.5-6.7c-0.5-2.2-2.1-2.7-4-1.5c-1.6,1.1-3,2.5-3.7,4.9c2.2-0.6,2.3,0.9,2.6,2.1c0.8,3.8,1.7,7.6,2.5,11.5
	c0.1,0.7,0.3,1.6,0,2.1C50.5,99.8,50.8,100.4,51.5,101z M49.1,80.7c0.7-0.4,1.5-0.9,2.4-1.4c1.6,2,1.1,4,1,6
	c-0.1,1.9-1.7,3.6-0.9,5.6c0.3,0.2,0.7,0.3,1,0.5c0.3-1.1,0.7-2.2,1-3.4c3.5,2.9,3,8-0.5,11C51.4,93,49.9,87.1,49.1,80.7z
	 M127.7,156.1c1-3.8,3.4-5.8,7.2-6.2c-0.5-1.4-1.5-1.5-2.6-1.1c-0.8,0.3-1.5,0.8-2.2,1.3c-3.9,3.2-4.6,7.7-4.8,12.3
	c-0.1,2.5,1.1,4.1,3,5.4c1.8,1.2,3.3,0.4,4.8-0.8c1.1,1.3,0.5,3.1,2.3,4c0-0.8,0-1.3-0.1-1.8c-0.7-3.1-0.8-6.2,0.2-9.3
	c0.4-1.2,0.7-2.5,0.8-3.8c0.1-0.6-0.2-1.3-0.3-2.3c-2.2,1.8-3.9,3.3-5.9,5c1,0.6,1.6,1,2.2,1.5c1.3,1.2,1.6,3.1,0.7,4.8
	c-0.6,1.1-1.4,1.9-2.8,1.8c-1.4-0.1-2.8-1.5-3.2-3.3c-0.2-1.3-0.2-2.6-0.1-3.9C127.1,158.4,127.4,157.3,127.7,156.1z M134.5,157.4
	c-0.1,0.7-0.2,1.4-0.2,2.2C133.1,158.5,133.1,158.5,134.5,157.4z M63.2,129.6c1.5,1.4,2.9,2.7,4.3,4c2.7-3.7,2.6-10.4-0.4-20.5
	c-1.1,1.3-0.5,2.4-0.4,3.4c0.4,4.1,0.9,8.2,1.2,12.3c0.1,0.6-0.3,1.3-0.7,2.5c-1.2-1.4-2-2.4-2.8-3.4c-0.8-1-0.9-2.7-3-3
	c-0.3,3.2,0.4,6.5-1.3,9.8C57,128,57,121,54.2,114.8c-0.4,0.8-0.5,1.6-0.3,2.3c0.7,3.3,1.3,6.6,2.2,9.8c0.7,2.6,1.5,5.2,2.5,7.7
	c0.4,1,1.2,1.9,1.9,2.9C63.1,135.3,62.2,132.1,63.2,129.6z M54.6,31.2c-0.5-2.5-2.5-3.3-4.7-1.8c-1.1,0.7-2.1,1.7-2.8,2.7
	c-0.9,1.4-2,0.7-3,0.5c-0.9,7.9-1.8,15.7-2.6,23.5c-0.1,0.9,0.1,1.8,0.2,2.7c3.2-0.7,4.6-2.5,4.4-5.4c0-0.5,0.2-1.1,0.2-1.6
	c-0.1-2.3,0.8-4,3.2-4.8c0.4,0.9,0.7,1.8,1.1,2.6c0.4,0.9,0.7,1.8,1.3,2.6c2.3,3.2,5,2.9,6.8-0.9c-2.9,0.6-4.6-0.7-5.6-3.3
	c-0.5-1.2-1.2-2.2-1.6-2.9c1.1-3.6,2.1-6.8,3-10C54.8,33.8,54.8,32.5,54.6,31.2z M46.6,46.3c0-1.3,0.1-1.9,0.1-2.7
	C48.4,44.3,48.4,44.3,46.6,46.3z M49.6,42.5c-1.2-0.5-2.1-0.9-2.9-1.2c-1.1-3.7-0.3-6.6,3-8.5c0.6-0.3,1.7-0.7,2-0.5
	c0.6,0.5,1.1,1.5,1,2.2C52.4,37.3,51.3,39.8,49.6,42.5z M119.9,34.6c-0.5,1-0.8,2.1-1.2,3.2c2.2,0.8,3-0.4,3.6-1.7
	c0.2-0.5,0.1-1.6-0.2-2C121.4,33.5,120.3,33.6,119.9,34.6z M111.6,85.4c-0.6-1.8-1.3-3.2-1.5-4.6c-0.5-2.8-0.7-5.6-1.1-8.4
	c-0.2-1.1,0.1-2.6-1.8-3.2c-0.1,0.6-0.3,1-0.3,1.3c0.7,4.2,1.3,8.4,2,12.6c0.2,0.9,0.5,1.9,1,2.7c0.8,1.4,2.1,1.6,3.2,0.3
	c0.7-0.7,1.1-1.6,1.8-2.7c1,1.9,1,4.3,3.7,4.4c-0.2-0.7-0.3-1.2-0.6-2c2.7,0.2,4.9-0.1,5.8-3c0.5,0.3,0.8,0.4,1,0.6
	c1.7,1,3.4,0.7,4.9-0.4c1.4-1,0.8-2.6,0.4-4c-0.2-0.9-0.7-1.8-1.1-2.7c-0.6-1.4-1.4-2.7-2-4.1c-1.2-3-0.4-4.1,2.8-3.9
	c0.5,0,1,0.1,1.7,0.2c-1.9-2-3.1-2.3-4.9-1.3c-1.6,0.8-2.2,2.2-1.6,4.1c0.5,1.6,1.4,3.2,2.1,4.7c0.6,1.3,1.3,2.5,1.8,3.8
	c0.6,1.7,0,2.6-1.7,2.6c-1,0-2.4-0.3-2.9-1c-1.6-2.1-3.3-4.4-4.3-6.8c-1.4-3.1-0.1-4.6,3.3-4.5c0.1,0,0.3-0.3,0.5-0.6
	c-0.2-0.3-0.4-0.8-0.8-0.9c-2.2-0.8-4.1,0.2-4.8,2.6c-0.8,2.7,0.1,5.1,1.7,7.3c0.8,1,1.6,2.1,2.1,3.3c0.2,0.5-0.1,1.5-0.5,1.9
	c-1.2,1-3.1,0.6-3.9-0.7c-1.1-1.7-1.5-3.6-1.4-5.6c0.1-2.8,0.2-5.6,0.2-8.4c0-0.8,0.1-1.8-1.3-1.9c-0.1,0.4-0.4,0.8-0.4,1.2
	c-0.2,3.5-0.3,6.9-0.5,10.4C114.2,81.2,114,83.4,111.6,85.4z M102.1,165.7c2.7-2.7,3.3-6.1,2.7-9.6c-0.5-3-2.9-3.7-5.1-1.7
	c-0.4,0.4-0.7,0.7-1.2,1.2c-0.5-1.2-0.9-2.2-1.3-3.2c-0.2,0.1-0.5,0.1-0.7,0.2c0.2,7.5,2.3,14.9,2.2,22.5c1.9-2.4,0.4-5.3,1.4-8.2
	c1.1,0.9,2.2,1.6,2.9,2.4c1.8,2,3.8,2.6,6.1,1.2C106,169.9,103.8,168.2,102.1,165.7z M98.9,163.1c-0.4-2.3-1.4-4.7,0.8-6.6
	c0.7-0.6,1.6-1.6,2.2-1.5c0.8,0.2,1.4,1.3,1.9,1.9c-0.2,2.8,0,5.3-1.9,7.1C100.5,165.4,99.3,165.1,98.9,163.1z M44.7,132.4
	c1.2-0.2,2.5-1.5,2.4-2.6c-0.1-1.2-1.7-2.7-2.8-2.7c-1,0.1-1.9,1.5-1.7,3.1C42.7,131.7,43.6,132.5,44.7,132.4z M44.6,128.8
	c0.5,0.3,1,0.6,1.7,1.1c-0.6,0.5-0.9,1-1.3,1c-0.3,0-0.9-0.5-1-0.8C43.9,129.7,44.4,129.2,44.6,128.8z M113.2,126.5
	c-1.2-5.9-2.4-11.9-3.6-17.8c-0.1-0.3-0.3-0.5-0.9-1.2c-0.5,4.2,2.3,17.5,4.2,20.3C113.1,127.3,113.3,126.9,113.2,126.5z
	 M110.8,58.5c-0.1-0.2-1.2,0.2-1.5,0.5c-0.3,0.3-0.3,1.1,0,1.4c0.2,0.3,1.1,0.5,1.3,0.3c1.5-1.5,1.7,1.5,3,0.8
	c1-0.7,1.6-1.6,0.8-3.4C113,58.9,112,59.9,110.8,58.5z M71.7,192.3c4-0.6,8-0.9,11.9-1.5c14.5-2.1,28.8-5.4,42.5-10.9
	c4.4-1.8,8.8-3.6,13.2-5.4c-6.2,1.6-12.3,3.3-18.4,5.3c-9.1,3-18.3,5.6-27.7,7.1c-4,0.6-8,1-12,1.3c-6.2,0.4-11.9,2.2-17.1,5.4
	c0.1,0.2,0.1,0.4,0.2,0.7C66.8,193.6,69.2,192.7,71.7,192.3z M61.8,90.5c0.3,1.7,0.6,3.4,1,5.1c0.1,0.2,0.4,0.4,0.9,0.8
	c1.3-2.4-0.4-4.4-0.6-6.5c-0.1-2.3-0.6-4.5-1-6.7c-0.4-2.1-0.6-4.4-2.5-5.8C60.1,81.7,60.9,86.1,61.8,90.5z M109,170.6
	c0,0,0.1,0,0.1,0h0l0.1-0.1c0,0,0,0,0,0c0,0,0,0,0,0c0.2,0.9,0.3,1.8,1.6,1.5c3.4-0.7,6.5-2.1,8.8-5c-2.7,1.1-5,3.1-8.6,2.8
	c2.4-4,1.9-9.2,7.3-11.2c-1-0.2-1.6-0.3-2.3-0.5c0.4-1.5,0.9-2.8,1.1-4.2c0.6-3.9-1.9-6.1-5.7-4.9c-1.1,0.4-2.2,0.9-3.2,1.6
	c-0.4,0.2-0.5,0.9-0.8,1.6c1.8-0.7,3.2-1.4,4.6-1.7c2.4-0.6,4,0.6,3.7,3c-0.3,3-0.7,6.1-4.3,7.3c-1.1,0.4-2.8,0.6-3.2,2.8
	c1.6-0.5,2.8-1,4.8-1.7c-1.5,3.3-2.7,5.9-3.8,8.5C109.1,170.5,109,170.5,109,170.6z M7.3,24.9c1.9-1.6,4.2-2.3,6.5-2.7
	c4.1-0.8,8.1-1.4,12.2-2.3c13.6-2.9,27.2-6,40.8-9c7.3-1.6,14.6-3.2,22-4.8c8.4-1.8,16.7-3.6,25.4-5.5c-2.4-1.1-4.4-0.6-6.4-0.1
	C97.9,2.7,87.9,5,78,7.2c-7.7,1.7-15.5,3.4-23.2,5.1C43,14.7,31.3,17,19.6,19.4c-2.9,0.6-5.7,1.2-8.6,2C9.1,22,7.2,22.8,6.2,25
	C6.8,25,7.2,25.1,7.3,24.9z M67.4,27.4c-1.3,1.1-2.5,2-3.6,3c-4,4-4,9.2-4,14.2c0,1.8,0.4,3.7,1.1,5.4c1.8,4.3,4.2,4.4,7.9,1.6
	c0.6-0.5,1.1-1.4,1.4-2.2c1.6-5.2,2.8-10.5,2.2-15.9C72.1,30.6,70.6,28.6,67.4,27.4z M68.3,29.6c3,2,3.1,3.4,0.3,4.8
	c-0.9,0.4-1.8,0.6-2.8,0.9l-0.5-0.9C66.3,32.8,67.3,31.2,68.3,29.6z M67.4,50.8c-3-4.1-2.3-8.8-2.6-13.1c2.2-1.1,4.2-2,6.2-3
	C72.6,38.6,70.7,47.8,67.4,50.8z M132,212.8c-17.2,3.4-34.4,6.9-51.5,10.5c-6.7,1.4-13.5,2.2-20.4,2c-0.2-4.5-0.4-9-0.7-13.4
	c-0.1-1.1-0.2-2.2-0.5-3.2c-2.5-10.2-7.1-19.5-12.6-28.5c-3.8-6.3-7.8-12.6-10.6-19.4c-2.8-6.7-4.6-13.8-6.2-20.9
	c-1.3-5.9-1.9-12-2.5-18.1c-1.2-12.9-2.2-25.8-3.3-38.7c-1.2-13.5-2.9-26.8-7.1-39.7c-1.7-5.2-4.2-10-7.4-14.4
	c-0.5-0.7-1.2-1.2-1.9-1.7c-0.1-0.1-0.5,0.1-0.9,0.3c0.2,0.4,0.4,0.7,0.6,0.9C7.3,28.7,7.7,29,7.6,29c-3.1,8.8,0.3,16.8,2.1,24.8
	c-1.5-0.9-2-1.1-2.6-2.9C4.5,44.1,3.6,37.2,6,30c-0.7,0.5-1.2,1-1.4,1.5c-2.1,5.7-1.1,11.4,0,17.1c0.4,2.3,1.4,4.3,2.9,6.1
	c1.7,2,3.5,1.9,4.3-0.7c0.7-2.3,1.2-4.9,1.2-7.3c0-3.2-0.6-6.4-0.9-9.6c1.1,1.8,1.9,3.7,2.6,5.7c1.7,4.7,0.8,9.2-1.6,13.4
	c-1.7,3-4.5,2.9-6.4,0c-0.6-1-1.1-2.1-1.7-3.2c-3.3-6.6-4.8-13.5-3.1-20.9c0.5-2,1.5-3.9,2.2-5.8c-1,0.4-1.8,1-2,1.8
	c-0.9,2.7-2.1,5.4-2.2,8.1C-0.3,44,1.9,51.1,5.9,57.7c1.9,3.1,4.9,3.3,7.3,0.7c1.1-1.2,1.8-2.7,2.5-4.1c0.6-1.1,0.8-2.5,1.2-3.7
	c0.2,0,0.4,0,0.6,0.1c0.4,1.9,1,3.7,1.3,5.7c1.4,8.7,2.9,17.4,3.9,26.1c1,8.4,1.5,16.9,2.2,25.3c0.3,3.8,0.4,7.6,0.8,11.4
	c0.5,5.7,0.9,11.5,1.9,17.1c0.9,5,2.6,9.9,3.7,14.8c2.2,9.8,6.9,18.5,12.1,26.9c3.6,5.9,7.3,11.8,10.1,18.3
	c1.5,3.6,2.9,7.2,3.5,10.9c-1.9-3.8-3.7-7.7-5.9-11.4c-1.2-2-2.8-3.9-5.5-3.9c-1.5,1.8-2.1,3.7-1.7,5.9c0.6,3.1,0.9,6.2,1.8,9.2
	c1.8,6.1,4.6,11.7,8.7,16.7c2,2.5,4.5,4,8,3.3c0.7-0.2,1.5,0,2.3-0.1c3.8-0.3,7.6-0.3,11.3-1c8.4-1.7,16.7-3.9,25.1-5.7
	c9-1.9,18.1-3.6,27.2-5.3c4.3-0.8,8.6-1.5,12.8-2.2c6.1-1.1,12.2-2.1,18.3-3.3c1.5-0.3,2.8-1.2,4.2-1.8c-1.9,0-3.5,0.6-5.1,0.8
	C149.6,209.8,140.8,211.1,132,212.8z M9.4,34.6c-0.4,1.6-0.8,3.2-1.2,4.8c-0.1,0-0.3,0-0.4-0.1c0-2.2,0-4.4,0-7
	C9.2,32.9,9.6,33.5,9.4,34.6z M10.7,47c-0.4-2.7-0.8-4.7-1.1-6.8C11.3,42,11.6,43.7,10.7,47z M47.9,193.8c0.6,0.3,1.1,1,1.5,1.6
	c2.7,4.3,5.1,8.7,5.7,14c-0.3-0.4-0.6-0.9-0.8-1.3c-1-2.3-1.9-4.6-2.9-6.9c-1.9-4.3-2.1-4.5-5.5-7.5
	C46.7,193.7,47.4,193.6,47.9,193.8z M56.7,218.6c-2.2-1.2-2.6-3.1-3.1-4.9C54.6,215.2,56.4,216.2,56.7,218.6z M51.1,208.8
	c-2.4-2.3-4.3-7.9-3.8-11.7c1.7,1.4,1,3.7,1.8,5.5C50.1,204.4,50.5,206.6,51.1,208.8z M58,225.2c-6.4-6.1-9.6-13.4-11.2-21.2
	c2.1,4.1,4.1,8.3,6.3,12.4c0.9,1.6,2,3.1,3.2,4.5c0.6,0.7,1.5,1,2.4,1.7C58.5,223.1,58.3,223.8,58,225.2z M165.3,180.9
	c-5.1-13.4-10.8-26.6-16.1-39.9c-2.4-6-4.5-12-4.8-18.5c-0.1-1.8,0-3.7-0.1-5.5c-0.2-10.4-0.5-20.8-0.7-31.3
	c-0.2-7.9,0-15.9-0.5-23.8c-0.6-11.2-3.1-22.1-5.8-33c-2.4-9.5-7-17.7-13.4-25c-0.7-0.8-1.6-1.5-2.6-2.5c-0.1,0.7-0.3,1-0.2,1.1
	c0.2,0.4,0.5,0.7,0.8,1c5.2,5.8,9.3,12.4,12,19.6c2.7,7.3,4.4,15,5.7,22.7c1.3,7.7,2.5,15.5,2.6,23.3c0.1,9.1-0.1,18.2,0.1,27.4
	c0.1,6.9,0.6,13.9,0.7,20.8c0.1,6.1,0.6,12.1,2.8,17.9c2.2,5.9,4.3,11.8,6.7,17.7c3.5,8.8,7.4,17.4,10.8,26.2c3.1,8,5.2,16.2,3,24.8
	c-0.2,0.8-0.1,1.6-0.2,2.4c1.7-2.1,2-4.6,2.3-7.1C169.1,192.9,167.5,186.7,165.3,180.9z M38.5,91.5c0.6,0.2,2-0.2,2.2-0.6
	c0.4-1,0.7-2.4,0.3-3.3c-0.6-1.5-1.9-0.8-3.4-0.2C38,88.9,36.5,90.7,38.5,91.5z M39.4,88.3c1.1,1.2,0.9,1.8-0.7,2.3
	C39,89.7,39.2,89,39.4,88.3z M36.9,58.9c1.1-7.3,1.8-14.6,1.6-22c0-1.1-0.4-2.2-0.8-3.1c-0.7-1.4-1.7-1.5-2.8-0.4
	c-0.4,0.4-0.6,0.9-0.9,1.3c-5,7.6-7.8,16-9.8,24.7c-0.1,0.7,0,1.4,0,2.2c2.3-1.1,2.3-1.1,2.9-3c0.8-2.4,1.6-4.8,2.5-7.1
	c0.3-0.7,0.8-1.6,1.5-1.9c1.7-0.6,3.5-0.9,5.6-1.5c-0.7,4.3-1.4,8-2.1,12C36,60.8,36.7,60.3,36.9,58.9z M36.5,46.8
	c-1.8,0.4-3.5,0.8-6,1.3c2-4.2,2.6-8.3,6-11.4C37.4,40.2,37,43.3,36.5,46.8z M67.4,74.8c-0.3,1.3-1.4,1.2-2.3,1.4
	c-0.7,0.2-1.3,0.4-2.1,0.7c2.4,2.2,2.5,2.2,3,5.8c0.5,3.4,0.9,6.9,1.4,10.3c0.1,0.8,0.3,1.6,0.5,2.4c0.2,0,0.5,0,0.7-0.1
	c0.5-1.9-0.4-3.9-0.5-5.8c-0.2-2.1-0.5-4.1-0.7-6.1c-0.2-2-0.2-4.1-0.4-6.1c1.3-0.8,2.5-1.6,4.2-2.7c1.2,7.5,2.3,14.5,3.5,21.5
	c0.3,0,0.5-0.1,0.8-0.1c0.5-3.6-0.9-7-1.2-10.6c-0.3-3.7-0.9-7.5-1.3-11.2c1-0.6,1.9-1.1,2.7-1.6c0-0.2-0.1-0.4-0.1-0.6
	c-2.4,0.6-4.8,1.1-7.2,1.7C68.1,73.9,67.5,74.4,67.4,74.8z M92.8,163.7c0.2,3.5,0.5,6.8,0.7,10.1c0.2,0.1,0.4,0.1,0.7,0.2
	c0.2-0.4,0.6-0.9,0.6-1.3c-0.6-5.4-1-10.8-1.8-16.1c-0.4-2.4-1.8-4.4-4.3-5.2c-4.5,4.5-7.1,19.3-4.2,25.7c0.9-3.5-0.1-6.8,0.4-10
	C87.3,165.8,89.5,163.8,92.8,163.7z M89,153.5c2.8,2.1,3.2,5.1,3.5,8.5c-2.5,1.1-4.8,2-7.1,3C84.6,161.3,86.2,156.1,89,153.5z
	 M78.8,179.5c0.3-0.1,0.6-0.1,0.9-0.2c-0.4-2.9-0.9-5.9-1.3-8.8c-0.5-2.9-1-5.8-1.5-8.7c-1.2-7-1.2-7-2.8-8.5
	c0.7,4.4,1.4,8.6,2,12.6c-2.3,1.2-4.4,2.2-6.9,3.6c-0.4-2.6-0.6-4.9-1.2-7.1c-0.6-2.3-0.7-4.7-2.2-6.7c-0.3,0.1-0.6,0.1-0.8,0.2
	c1.8,8.2,3.6,16.3,5.4,24.5c0.1,0.6,0.7,1.2,1,1.7l0.4-0.2c-0.6-3.6-1.1-7.1-1.8-11c1.9-1.2,3.9-2.5,6.4-4.1
	C77.3,171.5,78.1,175.5,78.8,179.5z M82.4,133.2c0.2-0.1,0.4-0.1,0.6-0.2c-0.9-6.5-1.9-12.9-2.8-19.4c0-0.3-0.5-0.6-1.3-1.5
	c0,1.9,0,3-0.1,4.1c-0.1,2.7-0.1,5.4-0.3,8.1c-0.1,1.2-0.2,2.6-2.1,3.4c-0.8-2.3-1.4-4.6-2.3-6.8c-0.9-2.2-0.3-4.9-2.3-7.4
	c-0.2,1-0.5,1.5-0.4,2c1,4.1,2.1,8.2,3.2,12.3c0.1,0.3,0.3,0.6,0.5,0.8c0.9,1.2,2,1.3,2.9,0c0.6-0.8,1.1-1.8,1.8-3.2
	C80.9,128.5,81.6,130.9,82.4,133.2z M122.6,109.6c0.1,0,0.3-0.2,0.5-0.3c-2.3-2.8-3.7-2.9-5.9-0.4c-4.9,5.4-3.7,13.4-0.6,18.2
	c1.9,2.9,2.1,3,5,1.1c0.1-0.1,0.4,0,0.5,0.1c0.6,0.9,0,2.5,1.6,2.8c0.1-4.8,0.1-9.6,0.2-14.4c-1.2,0.2-2.1,0.6-2.9,0.4
	c-2.3-0.5-3,1-3.9,2.5c1.5,1.8,2.9-0.3,4.2,0c1.7,3.1,1.2,5.7-1.5,8.1c-4.4-3.1-5.9-11.1-3.2-15.7
	C118.5,108.9,119.1,108.6,122.6,109.6z M119.9,149.7c-0.3,2.1,0.1,4.1,0.3,6.2c0.3,2.2,0.7,4.5,1,6.7c0.6,4.3,0.5,4.3,2.4,5.9
	c-1.1-6.5-2-12.6-3-18.7C120.4,149.7,120.1,149.7,119.9,149.7z M85.9,88.7c-2,0.3-3.3,0.5-4.7,0.8c-0.4-2.3-0.7-4.3-1-6.3
	c1.4-1.2,3.8-1,5.1-3.4c-2.1,0.3-3.7,0.6-5.6,0.9c-0.1-2.4-0.3-4.4-0.4-6.5c1.9-1,3.7-2,5.5-3c-0.1-0.2-0.2-0.5-0.3-0.7
	c-1.4,0.4-2.8,0.7-4.2,1.2c-2.4,0.7-2.6,0.8-2.4,3.4c0.4,5.3,1.1,10.6,1.7,15.8c0,0.3,0.5,0.6,0.9,1C82.1,91,84.2,90.9,85.9,88.7z
	 M75.8,107.9c-0.8-0.3-1.4-0.7-1.8-0.6c-0.4,0.1-0.7,0.8-1,1.3c0.5,0.3,1,0.9,1.4,0.8C74.9,109.3,75.2,108.6,75.8,107.9z M92.7,25.7
	c-0.9-2.9-2.6-3.4-4.7-1.2c-1.1,1.1-2,2.4-3.1,3.9c-0.4-0.8-0.6-1.4-0.9-2c-1.5-3-2.7-3.3-5.2-1.1c-0.9,0.8-2,1.3-3.4,2.3
	c0.4,8.1,0.8,16.7,1.2,25.4c3-0.7,3-0.7,2.9-2.7c0-0.8-0.1-1.5-0.2-2.3c-0.6-5.1-1.2-10.1-1.8-15.2c-0.3-2.7,0.5-4.9,3.5-6.8
	c0.5,1.7,1.1,3,1.2,4.4c0.6,5,1,10,1.4,14.9c0.1,1.1,0,2.4,1.4,3.1c1.2-1.4,1.1-3.1,1.1-4.7c0-2.6-0.3-5.2,0-7.8
	c0.3-3.2,1.1-6.3,4.1-9c1.3,7,0.6,13.7,1.1,20.5c2-1,1.8-2.4,1.8-3.6c0.1-4.5,0.1-8.9,0.1-13.4C93.4,28.9,93.1,27.2,92.7,25.7z
	 M97.2,131.2c0.9-0.3,1.4-0.3,2.3,0c2.6,1,6.1-1.5,6.4-4.3c-2.7,2.2-2.7,2.2-5.2,2.6c-0.2-4.8,1.1-8.9,5.1-11.9
	c-0.7,0.1-1.5,0.2-2.2,0.4c-0.1-2-0.1-4-0.3-5.9c-0.2-1.7-1.6-2.5-3.2-2.8c-1.2-0.2-2.5-0.6-3.3,1.3c0.9,0.1,1.5,0.2,2.1,0.2
	c2.5,0.2,3.2,0.8,3.4,3.4c0.1,1-0.1,1.9-0.2,2.9c-0.2,1.8-1.1,3-3,3.2c-0.8,0.1-1.5,0.5-2.8,0.9c0.6,0.2,4.1,1.2,4.3,1.2
	c-1.5,2.5-0.4,6-3.9,8.1c-1.6-3.3-3.1-6.4-4.8-9.9c0.5-0.6,1.2-1.3,1.8-2c1.5-1.9,1.6-4,1-6.2c-0.6-2.2-2.3-3.2-4.5-2.6
	c-0.8,0.2-1.9,0.5-2.3,1.1c-1,1.3-2.3,1.4-3.9,1.1c1.6,6.8,3.1,13.3,4.6,19.8c0.5-0.1,0.9-0.1,0.9-0.2c0.5-3-1.5-5.7-1.1-9
	c1.9-0.7,2.8,0.3,3.5,1.7c0.8,1.7,1.3,3.4,2.1,5.1C94.9,131.5,95.4,131.8,97.2,131.2z M90.6,120.3c-1.3-0.4-2.3-0.7-3.4-1
	c-1-2.1-0.2-4.2,0.8-6.1c0.7-1.3,2.7-2,3.9-1.6c1.5,0.5,1.6,1.8,1.8,3.1C94,117.2,92.3,118.7,90.6,120.3z M79.2,107.7
	c0.1-0.3-0.2-0.8-0.3-1.3c-0.5,0.1-1.1,0.1-1.3,0.3c-0.3,0.6-0.6,1.2-0.6,1.9c0,0.3,0.8,0.5,1.2,0.8C78.6,108.8,79,108.3,79.2,107.7
	z"/>
</svg>
