<?xml version="1.0" encoding="utf-8"?>
<!-- Generator: Adobe Illustrator 18.0.0, SVG Export Plug-In . SVG Version: 6.00 Build 0)  -->
<!DOCTYPE svg PUBLIC "-//W3C//DTD SVG 1.1//EN" "http://www.w3.org/Graphics/SVG/1.1/DTD/svg11.dtd">
<svg version="1.1" id="Ebene_1" xmlns="http://www.w3.org/2000/svg" xmlns:xlink="http://www.w3.org/1999/xlink" x="0px" y="0px"
	 width="288.2px" height="174.8px" viewBox="0 0 288.2 174.8" enable-background="new 0 0 288.2 174.8" xml:space="preserve">
<path fill="#A59164" d="M263.7,118.5c-2.9,0.8-3.7,0.2-3.6-2.8c0.1-0.9,0.4-1.8-1.1-2.1c-0.3,0.6-0.7,1.3-0.8,2
	c-0.8,3.5,1.2,5.7,4.6,4.7c1.9-0.5,3.7-1.7,5.5-2.5c-0.1-0.2-0.2-0.4-0.3-0.7C266.5,117.6,265.1,118.1,263.7,118.5z M287.7,144.5
	c-0.5-2.1-1.2-4.2-2-6.3c-1.9-4.9-1.8-9.8-0.4-14.9c0.8-2.9,1.4-5.9,1.8-8.9c0.4-3.4-1-5.9-4.2-7.3c-4.6-2-9.2-4.1-13.9-6
	c-9.9-4-20.2-6.8-30.5-9.7c-15.8-4.4-31.9-7.5-48.3-8.7c-15.1-1-30.2-1.8-45.4-1.6c-1,0-1.9-0.1-3.4-0.2c1-1,1.5-1.7,2.1-2.3
	c5.5-5,11-9.9,16.4-15c2.7-2.5,4.7-5.4,5-9.2c0-0.5,0.3-1.1,0.5-1.6c0.9-1.8,1-3.7,0.3-5.5c-1.3-2.9-2.7-5.7-4.2-8.4
	c-1.8-3-2.6-6.1-2-9.6c0.3-1.4,0.3-2.9,0.2-4.4c-0.1-0.9-0.5-1.7-1-3.1c-0.5,1-0.8,1.2-0.8,1.5c-0.1,2,0,4-0.1,6
	c-0.2,2.6-0.4,5.2,0.9,7.6c1.4,2.6,2.8,5.1,4,7.7c1,2.2,2.3,4.4,1.4,7.8c-1.9-3.7-4.9-3.7-7.8-3.7c-5.2,0.1-10.2,1.4-15.1,2.9
	c-1.1,0.3-2.2,0.6-3.7,1c0.6-1.4,1-2.1,1.2-2.8c1.1-3.6,3.3-6.2,6.8-7.8c2.2-1,4.3-2.1,6.7-3.2c-3.8-0.5-6.4,2.4-9.8,3.1
	c0.7-1.6,1.2-3,1.9-4.2c0.9-1.5,0.9-2.7-0.4-3.9c-1.3-1.2-2.7-1.2-4-0.4c-1.4,0.8-2.6,1.8-3.9,2.7c-1.9,1.3-2.9,3.2-2.4,5.5
	c0.4,1.8,2.2,2.4,6,2c-1.3,1-2.2,1.6-3,2.2c-0.9,0.7-1.9,1.3-2.7,2.1c-1.8,1.7-1.8,2.5-0.2,4.5c0.2,0.3,0.5,0.6,0.7,1
	c-7,2.6-13.9,5.2-20.7,7.7c-4.6,1.7-9.1,4-13.9,5.1c-7.2,1.8-14.5,3.1-21.8,4.1c-6.8,1-13.1-1.3-19.1-4.4c-0.7-0.3-1.2-1-2-1.7
	c0.6-1.2,1.1-2.5,1.8-3.6c1.7-3.3,3.7-6.4,5.3-9.7c1.2-2.5,1.8-5.2,1.2-8.2c-0.6-3.1-0.5-6.4-0.8-10.4c6.1,6,13.2,8,20.6,8.5
	c10.9,0.7,21.4-1.3,31.4-5.7c7.6-3.3,15-7.1,22.7-10.1c5.9-2.3,11.6-6,19.1-4.1c-2.7-2.8-5.4-2.6-8-1.8c-2.4,0.7-4.7,1.6-6.9,2.6
	c-5.2,2.1-10.5,3.9-15.5,6.5c-8.3,4.2-16.7,8.2-25.9,10c-4.1,0.8-8.3,1.2-13.2,1.1c1.7-2.9,3.1-5.4,4.5-7.9c3-5.4,2.1-8.3-3.4-11.2
	c-0.3-0.2-0.6-0.2-0.9-0.4c-4.1-2.3-8.8-2.7-13.3-3.2c-7.3-0.9-14.7-1.1-22-2.7c-6.3-1.4-11.9-3.9-16.4-8.5
	c-1.8-1.7-3.3-3.7-4.9-5.5c1,9.3,6.1,16.3,13.7,22.5c-3.6,1-6.4,2.2-9.3,2.7c-3.3,0.6-6.7,0.5-10.1,0.9c-1.1,0.1-2.3,0.4-4,0.8
	c11.3,12.6,25.1,17.7,41.2,17.6c-0.4,5.1-2.5,9.2-5,13.1c-1.6,2.5-2.8,5-3.3,8c0.6,0.5,1,1,1.6,1.3c5.6,3.2,11.5,5.5,18.2,5.3
	c2.9-0.1,5.8-0.5,8.7-0.9c7.2-0.9,14.2-2.4,20.9-4.9c4.7-1.7,9.3-3.8,14-5.7c0.7-0.3,1.4-0.4,2.9-0.8c-0.8,1.4-1.2,2.3-1.7,3.1
	c-2.3,3.7-5.4,6.6-8.7,9.3c-3.4,2.7-7.4,4.8-10.3,8c-2.7,2.9-5.7,3-9,3.4c-0.8,0.1-1.6,0-2.4,0.1c-10,1.7-19.8,4.1-28.7,9.2
	c-0.7,0.4-1.4,0.9-2.1,1c-6.3,0.9-12.6,1.9-19,2.7c-8.7,1.1-17.4,1.6-26,3.1c-3.5,0.6-6.9,2.5-10.1,4.4c-4.1,2.4-5.6,8.5-2.5,13
	c0.6,0.9,1.2,1.9,1.9,2.8c4.2,5.4,7.3,11.3,9.6,17.7c1.4,3.8,4,5.5,8,5.2c2.7-0.2,5.4-0.6,8-1c10.6-1.8,20.4-5.9,30.3-9.9
	c7.3-3,14.4-6.8,22-9.1c6.1-1.8,12.1-4,18.3-5.5c9.4-2.2,19-3.1,28.7-3.4c8.5-0.3,17-0.5,25.6-0.4c6.8,0.1,13.6,1,20.5,1.3
	c9.7,0.5,19.5,1.3,29.1,3c2.1,0.4,4.2,0.8,6.3,1.1c12.3,1.4,24.3,4.3,36.2,7.7c4.5,1.3,8.9,3,13.4,4.6c2.7,1,4.4,2.7,5.2,5.7
	c1.3,5.3,1,10.2-2.6,14.6c-1.4,1.7-2.9,3.5-4.3,5.2c-0.5,0.6-0.9,1.3-1.5,2.3c1.5-0.8,2.6-1.9,3.6-1.9c3.8,0,7.2-1.7,10.7-2.6
	c3.2-0.8,6.4-1.6,9.6-2.4c0.1,0.2,0.1,0.5,0.2,0.7c-4.5,1.4-8.9,2.8-13.4,4.2c0.1,0.3,0.1,0.5,0.2,0.8c4.8-1.1,9.6-2.1,14.4-3.2
	c-1,1-2.1,1.4-3.3,1.7c-3.7,0.8-7.5,1.6-11.2,2.4c-1.3,0.3-2.6,0.5-3,2.5c3.9-0.5,7.5-1.8,11.3-1.6c-1.9,0.8-3.9,1.1-5.8,1.8
	c-1.6,0.6-4,0-5.1,3c4.7-1.3,8.8-2.7,13-2.9c-1.9,0.8-3.7,1.8-5.7,2c-2.1,0.2-2,2.8-3.9,2.9c1.6-0.1,3.2-0.1,5.5-0.2
	c-1.3,0.9-2,1.4-3.1,2.1c3.5-0.1,6.2-2.1,9.5-1.3c-0.8,1.5-1.2,3.4-2.3,3.8c-2.2,1-1.4,2.7-1.9,4.2c0.9-0.5,1.7-1.1,2.2-1.9
	c5-7.4,8.6-15.5,10.1-24.4C288.3,147.2,288.1,145.8,287.7,144.5z M139.3,42c-1.1,0.4-2.2,0.8-3.1-0.2c-0.9-1.1-0.9-2.4,0.1-3.4
	c1.4-1.4,3.1-2.6,4.7-3.7c0.5-0.3,1.5-0.1,2.1,0.2c0.3,0.2,0.2,1.2,0.2,1.6C142,38.6,141.8,41.1,139.3,42z M69.8,33.9
	c-0.1-0.2-0.2-0.3-0.3-0.5c0.5-0.3,1.1-0.7,1.6-1c0.1,0.1,0.2,0.2,0.2,0.3C70.8,33.1,70.3,33.5,69.8,33.9z M73.8,36.2
	c1.1-0.7,2.3-1.4,3.4-2.1C76.7,35.7,75.5,36.5,73.8,36.2z M77,37.4c-0.1-0.2-0.3-0.4-0.4-0.5c0.8-0.5,1.5-1,2.3-1.6
	c0.1,0.2,0.2,0.3,0.3,0.5C78.5,36.3,77.8,36.9,77,37.4z M63.5,38.6c0,1.2,0.1,2.4,0.2,3.8c-14.7,1.1-28.5-4.9-37.6-15.1
	c7.5-0.3,15-0.2,21.9-4.6c-1.2-1.5-2.1-3.1-3.4-4.1C41,15.6,38.3,12,36.4,7.2c0.8,0.5,1.4,0.6,1.8,1c4.3,3.8,9.3,5.9,14.9,7.1
	c7.9,1.6,15.9,2.3,24,3c4.6,0.4,9.1,1.4,13.1,3.9c0.9,0.6,1.9,1.3,2.6,2.1c1.9,2.3,0.8,5.4-2.1,5.9c-1.7,0.3-3.6,0.4-5.3,0.2
	c-4.7-0.7-9.5-1.8-14.2-2.7c-0.9-0.2-1.8-0.3-2.7-0.4c-2.7-0.2-5,1.8-5.1,4.5C63.3,34.1,63.5,36.4,63.5,38.6z M260.9,155.3
	c1.3-1.7,2.1-2.9,3.4-4.6C264.2,154.4,264.2,154.4,260.9,155.3z M277.9,165.3c-0.1-0.2-0.1-0.4-0.2-0.6c1-0.3,1.9-0.7,2.9-1
	c0.1,0.3,0.2,0.6,0.4,0.9C280,164.8,278.9,165.1,277.9,165.3z M140.4,68.8c-3.8,2.9-7.4,6-11.3,8.7c-1.9,1.4-4.1,2.2-6.5,3
	c0.5-0.4,1-0.9,1.6-1.2c4.1-2.9,8.2-5.8,12.3-8.7c1.2-0.8,2.5-1.4,3.7-2.2c0.6-0.6,1.2-1.1,1.9-1.7c0.1,0.2,0.3,0.3,0.4,0.5
	C141.8,67.8,141.1,68.3,140.4,68.8z M140.9,73.1c0.1,0.1,0.1,0.2,0.2,0.3c-0.7,0.5-1.5,1.1-2.2,1.6l-0.6-1
	C139.1,73.8,140,73.4,140.9,73.1z M136.2,74.1c0.8-0.7,1.6-1.4,2.4-2.1c0.2,0.2,0.3,0.5,0.5,0.7C138.2,73.2,137.2,73.6,136.2,74.1z
	 M135.8,79c-2,0.9-4.1,1.9-6.1,2.8C131.3,80.2,133.1,78.7,135.8,79z M124.7,82.2c3.6-2.7,7.1-5.5,11-7.7c-1.2,2-2.9,3.6-5.1,4.7
	C128.7,80.2,126.8,81.3,124.7,82.2z M121,79.3c1.1-1.7,3.9-3.7,6.9-4.6C125.6,77.5,125.4,77.6,121,79.3z M132,69.4
	c0.6-0.3,1.3-0.6,1.9-0.9c-0.5,0.5-1,1.1-1.5,1.6C132.2,69.8,132.1,69.6,132,69.4z M143,71.5c1.8-1.2,3.6-2.4,5.4-3.6
	c0.1,0.2,0.3,0.4,0.4,0.6C147.3,70.2,145.2,71,143,71.5z M148.5,62.6c1.6-1.1,3.2-2.3,4.9-3.4c0.1,0.2,0.3,0.4,0.4,0.6
	c-1.6,1.2-3.1,2.5-4.7,3.7C148.9,63.2,148.7,62.9,148.5,62.6z M150.6,63.9c2.5-1.9,4.9-3.9,7.6-6C157.5,59.8,153.2,63.3,150.6,63.9z
	 M158.2,50.4c0.2,0.2,0.3,0.4,0.5,0.6c-0.9,1.6-2.6,2.4-4.1,3.2c-0.2-0.2-0.4-0.4-0.5-0.6C155.4,52.6,156.8,51.5,158.2,50.4z
	 M154.8,50.7l0.4,0.6c-0.7,0.3-1.4,0.7-2.1,1C153.7,51.8,154.3,51.3,154.8,50.7z M148.6,56.4c-0.2-0.2-0.3-0.5-0.5-0.7
	c1.6-1.1,3.3-2.1,4.9-3.2C152,54.5,150.1,55.1,148.6,56.4z M148.5,52.8c-0.3,2-1.6,2-2.2,2.7c-0.2-0.2-0.4-0.3-0.5-0.5
	C146.5,54.4,147.3,53.8,148.5,52.8z M137.9,47.8c-0.6,1.2-1.1,2.5-1.7,3.8C134.1,49.7,134.2,49.7,137.9,47.8z M134.9,63.8
	c-1.4,1.1-2.7,2.1-4.1,3.2c1.4-0.5,2.7-0.9,4.1-1.4c-0.2,0.4-0.3,0.8-0.5,1.3c1.3-0.5,2.6-1.1,3.8-1.6c0.2-0.4,0.4-0.8,0.5-1.2
	c1.4-0.7,2.7-1.4,4.8-2.5c-1.8,2.1-3.3,3.3-5.3,3.7l0.1-0.1c0,0-0.1,0-0.1,0c0,0,0,0,0,0c-1.4,1-2.8,1.9-4.2,2.9
	c0.1-0.4,0.2-0.7,0.2-1.1c-3.1,2-6.2,4-9.3,6.1c-0.8,0.5-1.5,1.3-2.3,1.9c0.2,0.2,0.3,0.4,0.5,0.6c-1.4,0.9-2.9,1.8-4.3,2.7
	c-1,0.8-2.1,1.6-3.1,2.4c-0.2-0.2-0.3-0.4-0.5-0.6c1.1-0.7,2.2-1.4,3.4-2.1c0.2-0.6,0.4-1.3,0.6-1.9c1.4,1.1,2.1-0.6,3.2-0.8
	c-0.4-0.2-0.9-0.4-1.4-0.7c1.1-1,2-1.9,2.9-2.7c1.9-1.1,3.8-2.1,5.7-3.3c0.5-0.3,0.8-1,1.1-1.5c-2.1,1.1-4.3,2.2-6.4,3.4
	C127.3,67.2,131.4,65.9,134.9,63.8z M123.7,66.9c0.1,0.2,0.2,0.3,0.3,0.5c-1,0.6-2,1.2-2.9,1.9c-0.1-0.2-0.2-0.3-0.3-0.5
	C121.8,68.2,122.7,67.5,123.7,66.9z M124.3,70.6c-0.1,0.4-0.2,0.8-0.4,1.3c0,0,0.1,0,0.1-0.1c-1.6,1.2-3.3,2.4-4.9,3.7
	c-0.3-0.2-0.5-0.4-1.2-0.9C120.3,73.2,122.3,71.9,124.3,70.6z M113.2,73.7c1.1-0.8,2.2-1.5,3.7-1.8c-0.3,0.5-0.6,0.9-0.9,1.4
	c0.3,0,0.5-0.1,0.8-0.1c0.1,0.1,0.1,0.3,0.2,0.4c-1.2,0.8-2.5,1.5-4.3,2.7c0.5-1,0.7-1.4,0.9-1.7C113.5,74.2,113.2,73.7,113.2,73.7z
	 M114.6,76.5c-0.9,1.8-3.5,3.5-9.1,5.9C108.5,79.5,111.6,78.2,114.6,76.5z M106.1,79.3c0.1,0.2,0.2,0.3,0.3,0.5
	c-0.6,0.4-1.3,0.8-1.9,1.2c-0.1-0.1-0.2-0.3-0.3-0.4C104.9,80.1,105.5,79.7,106.1,79.3z M37.8,104.6c0.1,0.2,0.3,0.3,0.4,0.5
	c-0.6,0.4-1.2,0.8-1.8,1.2c-0.1-0.2-0.2-0.3-0.3-0.5C36.7,105.5,37.3,105.1,37.8,104.6z M34.3,100.3c-1.8,1.2-3.7,2.5-5.5,3.7
	C30.1,102,31.7,100.3,34.3,100.3z M23.4,106.3c0.1,0.2,0.2,0.4,0.3,0.5c-0.6,0.5-1.3,0.9-1.9,1.4c-0.1-0.1-0.2-0.2-0.3-0.4
	C22.1,107.3,22.7,106.8,23.4,106.3z M15.2,111c0.1,0.2,0.2,0.4,0.3,0.6c-0.6,0.4-1.1,0.9-1.7,1.3c-0.1-0.2-0.3-0.3-0.4-0.5
	C14,111.9,14.6,111.4,15.2,111z M8.6,110.9c0.2,0.2,0.3,0.4,0.5,0.6c-0.6,0.5-1.3,1.1-1.9,1.6c-0.1-0.1-0.3-0.3-0.4-0.4
	C7.4,112.1,8,111.5,8.6,110.9z M269.7,145.6c-0.1,0.8-0.2,1.2-0.3,1.7c-0.9,0.1-1.8,0.1-3,0.2C266.9,145.6,268.4,146,269.7,145.6z
	 M267,141.3c-0.1-2.2,0.8-2.4,1.7-2.3c0.2,0,0.5,0.7,0.5,0.7C268.6,140.2,268,140.6,267,141.3z M268.8,148.6
	c-0.2-0.3-0.3-0.4-0.3-0.4c0-0.1,0.2-0.2,0.2-0.2c0.2-0.2,0.4-0.4,0.7-0.6c1.1,0,2.3,0,3.4,0c0,0.1,0,0.2,0.1,0.3
	C271.5,148,270.1,148.3,268.8,148.6z M276.4,148.2c0,0.2,0.1,0.4,0.1,0.6c-1.8,0.5-3.6,1-5.4,1.5c-0.1-0.3-0.2-0.6-0.3-0.8
	C272.7,149,274.5,148.6,276.4,148.2z M267.2,153.1l11.2-3.3c0.1,0.3,0.2,0.5,0.3,0.8C274.9,151.9,271.3,153.6,267.2,153.1z
	 M272,134.2c-10.7-4.3-21.6-8.2-32.8-11.1c-10-2.6-20.1-4.7-30.3-6.1c-9.8-1.3-19.5-2.8-29.3-3.7c-11.7-1.1-23.4-2.1-35.2-1.6
	c-5.1,0.2-10.3,0.2-15.4,0.2c-0.4,0-0.9-0.1-1.8-0.3c1.4-3,2.8-5.7,4.1-8.6c3.1,1.4,5.5,0.2,7.8-1.6c1.1-0.9,2.2-1.8,3.3-2.6
	c0.3-0.8,0.8-1.6,1-2.5c0.9-3.5-1-5.2-4.4-4.2c-0.4,0.1-0.8,0.3-1.3,0.4c0-0.8,0-1.6,0-2.4c-2.2,1.4-10.8,17.3-11.9,21.7
	c-7.6,1-15.2,1.7-22.7,3c-5,0.9-10,2.5-14.9,4.1c-5.2,1.7-10.4,3.7-15.4,5.7c-7.4,3-14.6,6.3-22.1,9.1c-5.4,2.1-11.1,3.7-16.7,5.2
	c-3.9,1-7.9,1.4-11.9,2.1c-4.4,0.8-6.5-1.7-7.5-5c-1.9-5.8-4.9-11.1-8.5-16c-0.8-1.1-1.7-2.1-2.4-3.2c-0.3-0.5-0.5-1.2-0.8-2
	c5.8,0.6,11.3,0.3,16.5-1.2c6.4-1.8,12.6-4,18.8-6.4c3.4-1.3,6.7-3.1,9.9-4.9c6.4-3.5,12.6-7.6,19.2-10.8c7.8-3.8,16.3-5.9,24.9-6.5
	c11.1-0.7,22.2-0.8,33.3-1.2c4.5-0.2,8.9-0.6,13.4-0.7c8.3-0.2,16.6-0.5,24.9-0.1c12.3,0.5,24.6,1.4,36.9,2.3
	c4.5,0.3,8.9,1.1,13.3,1.9c6.7,1.3,13.5,2.4,20.1,4.3c12.6,3.6,25.3,6.9,37.4,12.2c3.7,1.6,7.4,3.1,11.2,4.7c2,0.8,3.2,2,2.9,4.3
	c-0.4,2.4-0.7,4.9-1.1,7.3c-0.6,3.5-1.6,7-1.7,10.6c-0.1,2.9,0.7,5.9,1.2,9C280,137.9,276.1,135.9,272,134.2z M135.7,96.4
	c1.2-0.9,2.1-1.9,3.3-2.7c1.5-1,2.9-0.2,3,1.6c0,0.3,0,0.7-0.1,1c-0.6,3-5.3,6.2-8.9,6C132.8,99.6,133.8,97.8,135.7,96.4z
	 M97.8,60.8c2.5-1.1,4.1-3.1,5.5-5.3c1.4-2,2.8-4,4.3-6.1c-0.1-0.9-0.1-2-0.3-3c-0.5-3.8-3.2-4.9-6.4-3.1c-3.6,2.1-5.8,5.2-7.5,8.8
	c-0.8,1.7-1,3.7-1.1,5.5C92.3,61.4,94.4,62.2,97.8,60.8z M100.4,46.4c0.3-1.4,2.5-2.7,3.6-2.3c1.2,0.5,2.1,2.6,1.8,4
	c-0.3,1.3-1.6,1.8-3.3,1.3C101.2,49,100.2,47.6,100.4,46.4z M98.2,47.7c2.1,3.2,2.1,3.2,6.5,3.7c-2.2,3-3.6,6.3-7,8
	c-2.4,1.2-3.6,0.5-3.7-2.2C93.8,53.5,95.7,50.6,98.2,47.7z M86.7,49.2c2.1-0.1,4.1-0.1,6-1.5c-2.9-0.1-5.7-0.2-8.7-0.4
	c-1.3,2.1-3.1,4-3,7c1.2,0,2.2,0,3.2-0.1c1.7-0.1,2.8,0.9,3.4,2.2c0.6,1.3,0.3,2.7-0.7,3.7c-1.4,1.4-2.7,2.7-5,2.2
	c-2.2-0.5-3.9-1.6-4.3-4.1c-0.3,0.9-0.5,1.9-0.7,2.7c4.6,4.3,8.9,4,12-0.6c1.7-2.5,1.4-5-1.1-6.7c-1.1-0.8-2.6-1.1-4.1-1.8
	C84.3,49.2,84.3,49.3,86.7,49.2z M245.2,103.6c-1.8,0.9-3.5,1.9-5.1,3.1c-1.6,1.3-3,1.4-4.7,0.6c0.9-1.5,1.7-2.8,2.5-4
	c-0.7-0.9-1.1-1.8-1.7-2.3c-0.6-0.5-1.6-1-2.3-0.8c-2.9,0.9-5.6,2.3-7.7,4.6c-2.2,2.5-1.8,4,1.1,5.7c-1.7,1.7-4.2,2.9-3.8,6.8
	c1.5-0.8,2.6-1.1,3.5-1.8c1.5-1.2,2.9-2.5,4.1-4c1.6-1.9,3.5-2.6,6.1-2c0.1,0.6,0.3,1.2,0.3,1.9c0,1.6,1.1,2.3,2.3,2.4
	c2.3,0.2,4.6,0.2,6.8-0.9c-1.2-0.2-2.5-0.1-3.7-0.2c-1.4-0.1-3.3,0.4-3.5-1.7c-0.2-2,1.6-2,3.1-2.3c1.4-0.3,2.9-0.7,4.2-1.3
	c1.2-0.5,1.9-1.6,1.3-3.1C247.5,103.1,246.2,103.1,245.2,103.6z M234.2,105.8c-1.6,2-3.1,2.6-7.1,2.7c0-3.4,3.5-6.3,7.9-6.5
	C236,103.4,235.1,104.6,234.2,105.8z M242.5,106.7c1.2-0.6,2.4-1.2,4-2C245.7,106.9,245.7,106.9,242.5,106.7z M257.9,159.7
	c1.7-0.5,3.5-1.1,5.2-1.6C261.2,158,259.3,158,257.9,159.7z M272.1,170.6c2-0.6,3.9-1.1,5.7-1.6C274,168.2,273.8,168.2,272.1,170.6z
	 M128,49.9c2.4-3.2,3.6-6,4.4-9.1c0.3-1.3,0.6-2.6-0.4-3.9c-3.4-0.1-4.2,3.3-6.4,4.6c-0.8-0.7-1.6-1.4-2.7-2.4c-2.1,2.1-4,4-6,6
	c0.5-2.3,0.5-2.3-0.4-4.4c-1.7,5.1-3.2,9.6-4.7,14.2c0.2,0.1,0.4,0.3,0.5,0.4c0.6-0.4,1.4-0.6,1.7-1.1c0.7-1.2,1.2-2.7,1.9-3.9
	c1.8-3.3,3.6-6.7,7.1-9.2c2.4,3.6-1.6,5.5-1.5,8.3c1.7,0.3,2-1.2,2.6-2.1c1.4-2.3,2.8-4.6,4.2-6.9c0.7-1.1,1.5-1.9,3.2-1.6
	c-0.5,1.9-0.9,3.7-1.5,5.3C129.5,45.8,127.8,47,128,49.9z M268.6,111.9c-1.2,0.4-2.1,1.1-1.3,2.6c2.1-0.5,2.6-0.8,2.4-1.8
	C269.6,112.3,268.9,111.8,268.6,111.9z M82.5,96.3c0.3-0.2,0.2-1.1,0.3-1.6c-0.5-0.1-1.2-0.4-1.4-0.2c-0.7,0.5-1.3,1.2-1.9,1.9
	c0.2,0.3,0.4,0.6,0.5,1C80.8,97,81.8,96.8,82.5,96.3z M52.4,110.2c-1.6,1.6-3,3.5-4.4,5.4c-0.6,0.8-0.8,2-2.7,2.3
	c0.7-2.3,1.4-4.1,1.9-6c0.5-1.8,1.9-3.6,0.9-5.7c-1.4,2.8-2.6,5.7-3.5,8.7c-1.2,3.6-1.4,3.8-5.6,4.1c-0.1,0.6-0.2,1.1-0.3,1.9
	c1.4-0.3,2.5-0.5,3.8-0.8c-0.2,3.1-3,5.5-1.8,9.4c1.7-3.9,3.2-7.2,4.6-10.5c0.5,0.3,0.8,0.4,0.8,0.6c1.1,3.2,1.2,3.3,4.1,1.7
	c0.9-0.5,1.7-1,2.8-0.2c0.4,0.3,1.2,0.1,1.8,0.1c-1.5-1.1-0.7-2.2-0.2-3.2c0.7-1.4,1.4-2.8,2.2-4.2c0.8-1.5,0.5-2.7-0.7-3.9
	C54.6,108.6,53.2,109.3,52.4,110.2z M48.7,120.5c-0.1,0-0.2-0.1-0.5-0.3c0.2-3.8,2.1-6.7,5.1-9c0.3-0.3,1.1-0.3,1.5-0.1
	c0.3,0.1,0.6,0.7,0.6,1.1C55.3,114.9,51.5,119.6,48.7,120.5z M68.8,107.4c-0.3-1.3-0.5-2.3-0.7-3.3c-2.4-0.5-3.2,3.4-5.8,1.3
	c-1.5,3.8-2.9,7.3-4.5,11.3c3.6-0.6,3.2-3.7,4.6-5.4c1.4-1.7,1.9-4.3,4.9-5.7c-0.4,1.9-0.6,3.2-1,4.6c-0.4,1.4-1,2.8-1.5,4.2
	c0.2,0.1,0.4,0.3,0.5,0.4c0.5-0.4,1.1-0.7,1.5-1.3c1.2-2,2.3-4.1,3.5-6.1c0.8-1.3,1.6-2.6,3.5-2.9c0.5,3.4-2.1,6-1.7,9.1
	c1.4-3.4,3.7-6.5,3-10.8C71.8,103,70.6,105.6,68.8,107.4z M76.2,111.2c2.4-2.7,3.7-7.2,3-9.7C77.7,104.7,76.2,107.7,76.2,111.2z
	 M89.1,98.5c-1.3,0.8-2.6,1.8-3.9,2.7c-0.3-0.8-0.6-1.4-1.2-2.6c-1.7,4.2-3.1,7.8-4.6,11.4c0.2,0.1,0.4,0.3,0.7,0.4
	c0.6-0.7,1.3-1.3,1.8-2c1.1-1.8,2-3.8,3.2-5.5c1.2-1.7,2.8-3.2,5.5-3.2c1,4.2-3,6.9-3.4,11.4c0.9-0.9,1.5-1.2,1.8-1.7
	c1.1-2.2,2.1-4.5,3.1-6.7c0.3-0.7,0.4-1.5,0.4-2.3C92.5,98.3,91,97.5,89.1,98.5z M225.9,100.4c0.1-1.4-0.9-2.1-2.2-1.8
	c-1.6,0.4-3.1,1.2-4.7,1.8c-0.2,0.1-0.3,0.1-0.7,0.2c0.3-0.9,0.5-1.7,0.8-2.4c-0.3-0.2-0.5-0.3-0.8-0.5c-2.6,3.3-5.2,6.6-7.9,10
	c1.6,0.7,2.1-0.2,2.9-0.9c2.2-1.9,4.4-3.7,6.7-5.5c1.1-0.8,2.5-1.4,4.1-0.8c0.1,3.4-3.1,5.5-3.2,8.8
	C223.1,106.6,225.7,104.1,225.9,100.4z M23.7,115.9c-0.4,0-0.8,0-1.2,0c0.1,5.9,0.2,11.8,0.3,18c2.8-1,3.9-3.1,5.1-4.9
	c3.2-5,6.2-10.3,9.2-15.5c-4.7,5.1-7.8,11.3-12.4,17.2C24,125.3,24.8,120.5,23.7,115.9z M38.9,118.9C38.9,118.9,39,118.9,38.9,118.9
	C39,118.9,39,118.9,38.9,118.9L38.9,118.9z M142.4,98.8c-0.3,1.1-0.6,2.1-0.9,3.2c0.2,0.1,0.4,0.3,0.7,0.4c0.7-0.7,1.5-1.4,2.1-2.2
	c1-1.3,1.7-2.9,2.8-4.2c1.2-1.4,2.7-2.5,4.8-2c-1,2.3-2.1,4.3-2.8,6.4c-0.2,0.8,0.2,2.1,0.7,2.6c0.4,0.4,1.7,0.3,2.5,0
	c2-0.8,4-1.9,4.8-4c0.7-1.9,2.1-2.4,3.8-2.7c0.1,0,0.2-0.3,0.4-0.5c-0.8-0.2-1.5-0.4-1.9-0.5c-0.5-1.7-1-3.1-1.4-4.6
	c-1.5,0.5-3,1-4.5,1.6c-1.2,0.3-2.7-0.2-3.8,0.3c-1.5,0.7-2.5,0.3-3.7-0.6c-0.7,1.3-1.2,2.5-1.8,3.5C143.7,96.7,143,97.8,142.4,98.8
	C142.3,98.9,142.3,98.9,142.4,98.8c-0.1,0.1-0.1,0.1-0.1,0.1C142.3,98.9,142.4,98.8,142.4,98.8z M154.3,94.7
	c0.8,0.7,1.6,1.2,2.4,1.9c-0.7,3.2-2.4,4.8-5.6,5.2C150.7,98.7,152.6,96.9,154.3,94.7z M204.1,97.4
	C204.1,97.4,204.1,97.4,204.1,97.4C204.1,97.5,204.1,97.5,204.1,97.4C204.2,97.5,204.2,97.5,204.1,97.4
	C204.2,97.5,204.2,97.4,204.1,97.4C204.2,97.4,204.1,97.4,204.1,97.4z M196.5,97c-0.2-0.7-0.4-1.3-0.6-2c-2.1,1.6-7.2,9.4-7.5,12
	c1.1-1,2-1.6,2.7-2.4c1.8-2,3.5-4.1,5.4-6c1.6-1.6,3.5-2.3,5.8-1.5c0.6,0.2,1.2,0.2,1.9,0.3C201.8,93.9,199.1,95.3,196.5,97z
	 M210.8,100.7c0.7-0.7,1.3-1.4,2-2c-2.7-2.8-5.4-2.9-8.3-1.2c-0.1,0-0.2,0-0.3-0.1c-0.7,0.5-1.5,0.9-2.1,1.6
	c-1.3,1.7-2.8,3.5-3.7,5.4c-0.7,1.6,0.3,2.7,2.1,2.4c1.4-0.2,2.8-0.8,4.3-1.3c0.5,1.5,0.9,3.5,3.7,2.5c-2-1.3-1.6-2.9-0.5-4.3
	C208.7,102.7,209.8,101.7,210.8,100.7z M200,105.2c0.5-2.9,2.2-4.8,4.6-6.1c1.5-0.8,3.1-2.2,5.3-0.5
	C204.8,104.5,203.9,105.1,200,105.2z M190.1,91.6c-0.6-2.6-2.4-3.8-4.9-2.8c-0.8,0.3-1.5,1-2.3,1.3c-6,2.2-8.3,7.4-10.8,12.5
	c-0.1,1.6-0.5,3.1-0.3,4.5c0.1,0.8,1,2.1,1.6,2.2c1.9,0.2,3.9,0.8,5.9-0.3c4.2-2.2,7.3-5.5,9.6-9.6C190,97,190.8,94.4,190.1,91.6z
	 M188.3,90.5c0.2,1.3,0.4,2.3,0.5,3.4c-2.1,0.4-3-0.6-4-2.5C186,91.1,186.9,90.8,188.3,90.5z M177.8,108.1c-1.2,0.3-2.6-0.1-3.8-0.1
	c-1.6-5.4,2.8-13.3,8.1-15.9c2,1.4,3.9,2.7,6.1,4.2C188.9,100,181.9,107.2,177.8,108.1z M134.4,67.1C134.4,67.1,134.4,67,134.4,67.1
	L134.4,67.1c0.1-0.1,0.1-0.1,0.1-0.2c0,0-0.1,0-0.1,0C134.4,67,134.4,67,134.4,67.1z M115,87.5c-6.3,3.1-9.7,8.5-11.2,15.1
	c-0.5,2.4,2.3,4.8,4.7,4.1c2.8-0.8,5.2-2.4,6.7-4.5c-1.8,0.9-3.8,1.9-5.9,2.7c-2.1,0.8-3.5-0.2-3.5-2.5c0-0.8,0.1-1.6,0.4-2.3
	c1.8-4.2,4-8,8-10.5c0.5-0.3,0.9-0.6,1.4-0.9c1.9-0.8,3.1-0.2,3.5,1.8c0.2,1-0.1,2.2-0.2,3.2c-0.1,0.5-0.3,1.1-0.5,2
	c3-1.9,3.4-3.9,2-6.8C119.3,86.8,117.7,86.2,115,87.5z M264.1,112.4c1.3-0.3,1.5-1.3,0.8-3c-0.5,0.2-1,0.5-1.4,0.7
	c-0.3,0.2-0.7,0.4-0.7,0.6c-0.1,0.5-0.1,1,0.1,1.4C263.1,112.4,263.7,112.5,264.1,112.4z"/>
</svg>
