<?xml version="1.0" encoding="utf-8"?>
<!-- Generator: Adobe Illustrator 18.0.0, SVG Export Plug-In . SVG Version: 6.00 Build 0)  -->
<!DOCTYPE svg PUBLIC "-//W3C//DTD SVG 1.1//EN" "http://www.w3.org/Graphics/SVG/1.1/DTD/svg11.dtd">
<svg version="1.1" id="Ebene_1" xmlns="http://www.w3.org/2000/svg" xmlns:xlink="http://www.w3.org/1999/xlink" x="0px" y="0px"
	 width="432.7px" height="112.7px" viewBox="0 0 432.7 112.7" enable-background="new 0 0 432.7 112.7" xml:space="preserve">
<path fill="#A59164" d="M281.4,26.5c6.1-0.1,12.3-0.3,18.3-1.2c7.1-1,14.2-2.7,21.2-4.3c8.1-1.8,15.9-4.4,23.5-8
	c4.7-2.2,8.9-5.8,14.3-6.5c-2.9-0.6-5.4,0.1-7.8,1.4c-7.9,4.5-16.1,8.3-24.9,10.5c-11,2.8-22.2,5.4-33.6,6.2
	c-8.3,0.6-16.5,1.5-24.8,0.5c-1.8-0.2-3.7,0-5.5,0c0,0.2,0,0.4,0,0.6c1,0.1,2,0.3,3.1,0.3C270.4,26.3,275.9,26.6,281.4,26.5z
	 M226.2,31.1c-1.4-1.4-2.7-1.4-4.1,0.1c-2.4,2.6-2.5,7.6-0.3,10.4c0.9,1.1,2,1.2,3.1,0.5c0.9-0.5,1.7-1.2,2.5-1.8c0.2-1,0.3-2,0.5-3
	C228.5,34.9,227.9,32.9,226.2,31.1z M224.3,40.9c-2.3-2.9-2.2-5.8,0.2-9.1C227.9,34.4,227.9,37.8,224.3,40.9z M332.6,39.5
	c2.3,0.4,3.1-1.4,4-2.9c2.8,0.4,4.8-0.8,7.1-2.4c-2.3-0.6-4.4,1.5-6.5-0.4c1.3-1.4,2.6-2.6,3.7-4c1.9-2.4,1.2-4.3-1.7-5
	c-2.7-0.6-5.1,0.2-6.8,2.5c0.2,2.3,0.9,4.3-0.3,6.6C331.3,35.3,332.4,37.6,332.6,39.5z M336.4,28.1c0.1-0.6,0.7-1.3,1.3-1.5
	c0.6-0.2,1.6,0.1,1.9,0.5c0.3,0.4,0.2,1.5-0.2,2c-0.7,1-1.6,1.8-2.4,2.8c-0.2-0.1-0.5-0.2-0.7-0.3C336.3,30.4,336.2,29.2,336.4,28.1
	z M233.9,41.2c0.8-2.9,1.4-5.8,2-8.7c0.2-0.9,0.3-1.8,0.5-2.9c-2.2,0.3-3.9,0.5-5.7,0.7c-0.2,0-0.3,0.5-0.6,0.9
	c0.9,0.3,1.7,0.5,2.7,0.8c0,3.5-0.1,6.9-2.8,9.7c-0.9-0.5-1.6-0.9-2.3-1.2c0.4,0.7,0.7,1.6,1.3,2.1
	C231.3,44.6,233.1,44.2,233.9,41.2z M323.6,89.4c-1.8,0-1.6,1.8-1.7,2.9c-0.4,4-0.7,8.1-1,12.2c0.6,0.2,1.2,0.4,2,0.7
	c0.4-2.4,0.8-4.5,1.2-7c0.6,0.5,1,0.8,1.4,1.2c1.8,1.6,3.5,3.7,6.4,2c0.2-0.1,0.6,0.1,0.9,0.2c2.6,0.1,5.2,0.2,7.8,0.4
	c0.3-2.7,1.8-5,0.5-7.5c-2.2,0.3-4.1,1.1-5.7,2.4c-0.1,0.1,0.1,0.4,0.1,0.8c0.7-0.1,1.5-0.2,2.5-0.2c-0.1,0.9-0.1,1.7-0.3,2.8
	c-1.3-0.1-2.7,0.1-3.6-0.5c-0.6-0.4-0.8-2.2-0.4-2.9c1.3-2.7,2.1-6,6-6.4c0.2,0,0.5-0.3,0.8-0.5c-1.1-1.7-2.4-1.3-3.7-0.6
	c-3.1,1.8-4.9,4.4-5.5,7.9c-0.1,0.9-0.3,1.8-0.5,3.1c-1.9-1.5-4.1-1.7-5.1-3.9c1.8-2.3,4.7-3.6,6-7.2c-1.6,0.6-2.7,0.9-3.6,1.5
	c-1,0.6-1.8,1.6-2.8,2.5c-0.2-0.5-0.3-0.6-0.3-0.7C324.9,91.2,325.6,89.4,323.6,89.4z M227.5,40.4c0.1,0,0.1,0.1,0.2,0.1
	C227.6,40.4,227.6,40.4,227.5,40.4C227.5,40.3,227.5,40.3,227.5,40.4C227.5,40.4,227.5,40.4,227.5,40.4
	C227.5,40.4,227.5,40.4,227.5,40.4z M302.9,99.5c-0.6,0.3-1.5,0.1-2.3,0.1v2.2c1.3-0.1,2.1-0.1,2.9-0.2c2.7-0.2,3-0.5,3.5-3.2
	c0.4-2.2,0.8-4.4,1-6.7c0.2-1.9-1-3-2.9-3c-2.5,0-3.7,1.2-4.5,4.2c-0.6,2.3-0.1,3.2,2,4c0.5,0.2,1.1,0.2,2.1,0.4
	C304,98.3,303.6,99.2,302.9,99.5z M303.4,94.1c-0.3-2.2-0.3-2.2,0.9-3.5c0.2,0.1,0.5,0.2,0.7,0.3C304.5,91.8,304.1,92.7,303.4,94.1z
	 M348.9,91.9c-0.4-2.9-2.6-5.3-5.6-5c5.9,6,2.6,10.9-1.2,15.8C346.4,101.6,349.5,96.5,348.9,91.9z M318.8,33.9c-2-1.1-2.4-1.1-4-0.3
	c-4.9,2.6-6.2,7.3-5.8,12c0.2,2.7,1.8,3.4,4.3,2.5c0.5-0.2,1-0.5,1.5-0.6c4.9-1,3.9-2,3.6-5.8c0-0.6-0.4-1.1-0.7-1.8
	c-1.9,0.6-3.7,1.2-5.7,1.9C312.7,37.3,315.2,35.2,318.8,33.9z M316.1,42.3c-0.2,1.1,0,2.2-0.5,2.5c-1.2,0.9-2.6,1.9-4.5,1.1
	C311.7,43.5,313.6,42.9,316.1,42.3z M297,89.4c0.6-0.9,1.5-1.8,0.5-3.1c-7.8,5-9.9,15.6-4.1,20.9c0.4-0.7,0.7-1.3,1-1.8
	c-3-3.1-3.4-5.3-1.2-9.4C294.3,93.8,295.7,91.6,297,89.4z M273.5,50.2c0.6-1,1.1-1.7,1.5-2.3c0.7,0.4,1.3,0.7,1.9,1
	c1-1.4,1.9-2.6,2.7-3.7c1.9-0.1,3.6-0.2,5.3-0.2c0.5,1.2,0.9,2.3,1.3,3.2c1.2-0.3,2.2-0.6,3.4-0.9c0.4-2,0.7-4,1.2-6.6
	c2,2.9,3.7,5.2,5.4,7.6c0.6-0.5,1-0.8,1.6-1.3c0.2,0.8-0.2,2.3,1.3,2c0.5-0.1,1.1-1,1.2-1.6c0.4-2.4,1.8-3.2,4.1-3.2
	c0.1,1.7,0.2,3.3,0.3,5.1c2.2,0,2.8-0.6,2.6-2.2c-0.5-3.1-0.8-6.2-1.4-9.2c-0.2-1.1-0.7-2.5-1.5-2.9c-1.5-0.7-2.2,1-2.9,1.9
	c-0.7,0.9-1.1,2.1-1.6,3.2c-0.6,1.6-1.1,3.2-1.6,5c-0.7-3.7,1.6-7.3-0.6-11.3c-1.7,3.1-1.1,6.3-1.8,9.5c-2.5-2.8-2.9-7-7.3-8
	c-0.3,3.6-0.6,6.8-0.9,10.4c-2-3.6-1.1-7.8-4.5-10.6c-2.6,3.7-5,7.1-7.6,10.7c-1-3.7,2.2-6.8,0.7-10.7c-2.1,2.2-3.8,4.1-5.8,6.2
	c-1.1-1.3-1.8-2.4-2.7-3.3c-0.5-0.5-1.3-1-1.8-0.9c-0.5,0.1-1,1-1.1,1.6c-0.5,3.1-0.9,6.2-1.2,9.3c-0.1,0.8,0.2,1.6,0.2,2.3
	c0.3,0.1,0.6,0.1,0.9,0.2c1.8-2.7,0.9-6.4,2.5-9.6c1.4,2.3,3.2,3,5.4,1.9C273.2,45,271.4,47.7,273.5,50.2z M302.8,40.4
	c0.2,0,0.5,0,0.7-0.1c0.3,0.6,0.6,1.2,1.1,2c-0.8,0.2-1.3,0.3-2.3,0.5C302.5,41.8,302.6,41.1,302.8,40.4z M282.8,38.9
	c0.2,0,0.4,0,0.7,0c0.4,1.2,0.7,2.4,1.2,4.1H281C281.7,41.5,282.3,40.2,282.8,38.9z M246.2,32.9c-2-2.6-5,0-7-2.1
	c-0.8,5.1-2.7,9.4-3,14.4c3.1,0.8,5.8,0.8,8.6-0.9c-1.4-0.5-2.9-1-4.6-1.7c-0.1-1.9,0.5-3.2,2.7-3.4c0.7-0.1,1.3-0.7,2.4-1.3
	c-1.7-0.7-2.8-1.2-3.9-1.7C241.9,33.9,241.9,33.9,246.2,32.9z M328.4,30.1c-0.1-0.1-0.1-0.3-0.2-0.4c-2.4,0.7-4.7,1.3-7,1.9
	c-0.2,2-0.3,3.6-0.5,5.2c-0.1,1.9-0.3,3.9-0.3,5.8c0.1,1.7,0.8,2.2,2.3,1.7c2.2-0.7,4.3-1.6,6.4-4c-2,0.8-3.2,1.3-4.6,1.9
	c-0.9-3.6,0.7-5.6,3.3-7.2c-1,0.1-2,0.2-3.1,0.3v-3C326.1,31.5,327.3,30.8,328.4,30.1z M246.6,45.7c2.5-0.3,1.8-2.9,3.5-4
	c1.2,1.1,2.4,2.3,3.6,3.5c0.8,0.7,1.5,0.8,2-0.3c-1.7-1.7-3.3-3.4-5.1-5.4c2-1.7,4-3.3,6.4-5.4c0.2,1.9,0.5,3.1,0.4,4.4
	c-0.1,1.7-0.4,3.4-0.5,5.1c0,1,0.2,2,0.3,3c0.3,0.1,0.7,0.1,1,0.2c2.8-3,1.3-7.3,2.7-10.8c1.6-0.4,3.1-0.7,4.6-1.1
	c-3.2-0.7-6.3-1.1-9.4-1.4c-0.6,0-1.3,0.5-1.9,1c-1.3,1-2.6,2.1-4.2,3.4c-0.4-2.4,0.3-4.8-2.1-6.4c-1.7,4-1.2,8.2-2,12.2
	C246,44.3,246.4,45,246.6,45.7z M312.7,89.5c-2.2,3.3-2.9,7-1.6,10.7c0.8,2.5,3.2,3,5.1,1.2c1.6-1.5,2.6-3.4,2.8-5.8
	c-0.5-1.6-0.8-3.4-1.6-4.9C316.4,88.7,313.7,88,312.7,89.5z M314.4,98.3c-1.8-1.8-1.8-4.6,0.1-7.6C316.7,93,316.7,95.2,314.4,98.3z
	 M166.2,32.1c1.2,10.1,1.2,10.1,3.2,11c-0.3-4.4-0.7-8.6-1.1-13.4c-3.5,1-6.7,1.8-9.8,2.7c-0.6,0.2-1.2,0.6-2.4,1.2
	c1.6,0.4,2.5,0.7,3.5,1c0.6,2.9,1,5.6,1.7,8.3c0.1,0.5,0.8,0.8,1.2,1.2c0.4-0.5,1-1,1.2-1.6c0.2-0.4-0.2-1-0.3-1.6
	c-0.2-1.9-0.4-3.9-0.4-5.8C163.1,32.7,163.3,32.7,166.2,32.1z M155.5,41.2c0.3,1.6,0.6,3,1,5c0.7-1,1.5-1.5,1.5-2.1
	c-0.2-3.4-1.3-6.6-2.7-9.8c-0.2-0.3-0.7-0.5-1.9-1.2c0.5,1.8,0.8,2.9,1.1,4c0.7,2.1,0.7,2.1-1.6,3c-0.9-2.2-1.7-4.4-2.6-6.7
	c-0.2,0-0.4,0.1-0.7,0.1c-0.1,0.6-0.4,1.2-0.3,1.7c0.2,2.1,0.5,4.3,0.8,6.4c0.4,3.1-0.4,4.2-3.7,5.2c-2.2-3.8-2.4-8.7-0.4-9.4
	c0.7,0.2,1.5,0.4,2.4,0.6c-0.2-2-1.7-2.2-2.8-2.3c-1.6-0.2-2.7,0.8-3.2,2.2c-1.4,3.9-0.5,7.4,1.5,10.8c0.8,1.2,2,1.2,3.1,0.4
	c0.9-0.7,1.7-1.6,2.5-2.4c0.2-0.2,0.5-0.3,0.7-0.5c0.3,0.4,0.6,0.7,1,1.2c1.2-0.9,2-1.5,1.7-3C152.7,42.8,153.5,41.7,155.5,41.2z
	 M125.3,52.7c0.6,0.3,1.1,0.6,1.7,0.9c0.7,0.4,1.4,1,2.2,1.3c2.5,1.1,4.6,0.2,4.6-2.5c0-3,1.8-3.8,4-4.6c1.3,1.1,1.1,3.5,3.4,3.7
	c1-0.8,1.6-1.6,0.4-2.8c-1.3-1.2-1.5-2.6-0.2-4.5c-2.4,0.7-3.1-0.4-3.5-1.9c-0.4-1.5-0.7-3.2-3.2-3.4c-0.5,2.3-1,4.6-1.6,6.9
	c-0.6,2.3-1.2,4.7-1.9,7.5c-1.3-0.9-2.4-1.7-3.5-2.4c0.4-1.1,1-1.8,1-2.6c0-1.3,0.1-3.2-0.7-3.9c-1.7-1.6-4-1.9-6.3-1.4
	c-2.2,0.5-1.7,2.3-1.7,4c-3.1-0.9-5.7-0.4-8.5,1.4c1.9,5,1.8,10.3,5,15.5c0.5-1.6,1.2-2.5,1.1-3.3c-0.2-1.5-0.9-3-1.4-4.7
	c3.5-0.5,3-3.9,4.7-6.3c0.4,1.7,0.7,2.9,1,4.1c0.4,1.5,0.6,3,1.2,4.3c0.3,0.6,1.3,1.3,1.9,1.2c1.1-0.1,1-1.2,0.8-2.1
	c-0.4-1.4-0.8-2.8-1.2-4.2C125,52.8,125.2,52.7,125.3,52.7z M135.4,43.2c0.2-0.1,0.4-0.1,0.6-0.2c0.4,0.9,0.8,1.9,1.3,3.1
	c-1.1,0.3-1.7,0.5-2.7,0.8C134.9,45.5,135.1,44.3,135.4,43.2z M115.8,54c-0.4-1.3-0.8-2.6-1.3-4c1.4-0.5,2.5-2,3.7-0.1
	C119,51.2,118.1,52.8,115.8,54z M123,50.2c-0.5-1.6-1-3.1-1.4-4.6c0.7-0.4,0.8-0.5,0.9-0.5c2.8-0.3,4.5,0.4,4.7,1.7
	C127.2,48,125.8,49.3,123,50.2z M191.1,28.4c0-0.2,0-0.5,0-0.7c-2.1-0.2-4.1-0.4-7-0.8c0.1,5.1-1.3,9.7-0.8,14.7
	c3.2,0.2,6.1,0.9,9.4-1.6h-6.5v-3.4c1.3-0.5,2.5-0.9,3.7-1.3c-0.1-0.2-0.1-0.3-0.2-0.5c-1-0.1-2.1-0.2-3.4-0.3
	c0.2-2,0.3-3.7,0.4-5.3C188.6,28.9,189.8,28.6,191.1,28.4z M178.8,30.8c-1.8-1.6-2.6-1.6-4,0c-2.2,2.4-3.4,5.2-3.2,8.5
	c0.1,1.6-0.1,3.3,1.6,4.3c1.6,0.9,2.5-0.3,3.7-0.9c0.5,0.8,0.8,1.6,1.1,1.6c0.6,0,1.7-0.5,1.8-0.9c0.5-2.4,0.8-4.9,1-7.3
	c0-0.4-1.2-1.2-1.5-1.1c-1.5,0.6-2.9,1.5-4.4,2.2c0.1,0.2,0.2,0.4,0.3,0.7c0.9-0.1,1.9-0.1,3.1-0.2c-0.9,1.8-2,2.8-3.7,2.9
	C172.7,36.7,174.4,32.6,178.8,30.8z M91.5,83.4c0.3-4.8-1.6-8.9-4.7-12.5c-1.9-2.3-3.3-4.8-3.7-7.7c-0.2-1.5,0-3,0-4.7
	c-0.8,0.3-1.1,0.3-1.2,0.5c-0.2,0.4-0.3,0.8-0.3,1.2c-0.4,4.3,0.7,8.2,3.4,11.4c2.7,3.2,4.3,6.8,5.2,10.9c0.8,3.4,2.3,3.9,5.3,2.1
	c0.7-0.4,1.3-0.9,2.2-1.6C95.3,82.4,93.7,85.1,91.5,83.4z M105.2,66.4c2.6-3,1.1-6.9-2.8-8c-0.6-0.2-1.2-0.3-1.9-0.5
	c0.1-1,0.4-2,0.3-2.9c-0.1-0.8-0.5-1.8-1.1-2.1c-2.7-1.5-7.1,1.2-7.5,4.7c2.2,0.1,2.9-3.7,5.7-2.5c-0.5,3.3-3.5,5-5.1,8.3
	c1.2-0.4,1.9-0.5,2.5-0.8c1.1-0.5,2-1.3,3.1-1.7c1.4-0.5,3-0.8,4.1,0.7c1.2,1.5,1.2,3.6,0.2,5.1c-1.8,2.6-5.3,3.4-8.1,1.8
	c-0.3,1.4,0.5,2.1,1.6,2.3c1,0.2,2.3,0.4,3.1-0.1C101.5,69.6,103.7,68.3,105.2,66.4z M137.4,36.4c1-0.5,0.9-1.3,0.3-2.1
	c-1.1-0.1-1.7,0.4-1.4,1.5C136.3,36.1,137.1,36.6,137.4,36.4z M135.1,36c-0.8-0.3-1.3-0.6-1.8-0.6c-0.4,0-1.1,0.6-1.1,0.8
	c0.2,0.5,0.6,1,0.9,1.4C133.5,37.4,133.9,37.1,135.1,36z M94.5,26.9c2.1,0.3,2.6,1.2,2.8,3.4c0.2,2.3-0.5,4.5-1.8,6.4
	c-3.6,5.4-7.3,10.7-10.9,16c-0.8,1.2-1.6,2.5-2.5,3.7c0.2,0.2,0.3,0.3,0.5,0.5c0.9-0.5,1.8-1,2.7-1.6c2.2-1.5,4.3-3.3,6.7-4.5
	c8.9-4.5,17.9-9.1,27.3-12.5c8.3-3,16.5-6.4,24.9-9.1c5.9-1.9,12-3.4,18.2-4.5c7.9-1.5,15.9-2.9,23.9-3.5
	c12.4-0.9,24.8-0.7,37.1,0.4c6.1,0.5,12.2,0.8,18.4,1.3c2.1,0.2,4.1,0.5,6.2,0.8c0-0.3,0.1-0.5,0.1-0.8c-13.4-2.2-26.9-2.9-40.4-3.4
	c-13.7-0.5-27.3,0.4-40.9,2.8c-20.2,3.6-39.2,10.7-58.3,18.8c1.7-3.7,3.3-6.8,4.6-10.1c2.3-5.7,3.5-11.7,3.5-17.9
	c0-4.3-2-6.5-5.7-8.4C103.1,1,94.8,0.3,86.5,0c-4.8-0.1-9.7,0.6-14.5,1.1c-9,1-17.8,3.2-26.4,6.2c-7.5,2.6-15.2,4.9-22.8,7.1
	c-6.3,1.8-12.8,2.9-19.5,1.8C2.3,16,1.1,16,0,16c4.1,3,8.8,3.7,13.5,4.6c4.7,0.9,9.4,1.9,14.4,2.9c-6.3,5.6-13.7,9.6-20.9,14.6
	c1.1,0.3,1.6,0.6,2.1,0.5c3.2-0.1,6.5,0.1,9.7-0.3c10.3-1.4,20.6-3.5,30.7-6.1c6.4-1.7,13-3,19.6-4c5.5-0.9,11.1-1.3,16.7-1.7
	C88.7,26.4,91.7,26.5,94.5,26.9z M87.7,51.9c-0.1-0.2-0.3-0.4-0.4-0.7c0.6-0.4,1.2-0.7,1.8-1.1c0.1,0.2,0.2,0.3,0.3,0.5
	C88.8,51,88.3,51.4,87.7,51.9z M90.2,48.7c0.3-2.3,2.2-1.5,3.6-1.9L90.2,48.7z M91.9,45.7c1-1.8,1.9-3.4,2.9-5.2
	C96.1,44.1,95.6,45,91.9,45.7z M61.1,28.2c-7,1.2-13.8,3.2-20.8,4.8c-8,1.8-16,3.5-24.2,3.8c-0.9,0-1.7,0.2-2.6,0.3
	c-0.7,0.1-1.4,0-2.1,0c6.2-3.9,12-8,17.4-12.8c0.5-0.5,0.7-1.3,1.1-2.2c-7.2-1.3-14.2-2.5-21.2-3.7c7.8-1.1,15.3-3,22.7-5.3
	c6.2-1.8,12.4-3.7,18.4-5.8C57,5,64.3,3.5,71.6,2.5c8-1.2,16.1-1.2,24.2-0.3c6,0.6,11.6,2.3,16.9,5.1c1,0.5,1.8,0.9,1.9,2.3
	c0.6,7.1-0.8,13.9-2.7,21c-2-3.8-5.5-4.1-8.7-4.7c-5.9-1.2-11.8-1.1-17.7-0.5C77.3,26,69.2,26.9,61.1,28.2z M432.7,46.4
	c-1.2,0.2-1.8,0.2-2.4,0.4c-8.1,2.5-16.3,3.9-24.7,4.8c-9,0.9-18.1,1.2-27.1,2c-4.3,0.4-8.5,1.2-12.7,2.2c-3.1,0.8-5.6,2.7-7.1,5.6
	c-2.4,4.6-4.7,9.2-5.2,14.5c-12.8,4.3-26.1,3.4-39.2,4.3c-0.6,0-1.1-0.3-1.6-0.5c0.9-1.2,1.7-2.3,2.4-3.3c0.7-1.1,1.4-2.2,2.2-3.2
	c3.3-4.4,7.5-8,11.7-11.6c1.5-1.3,3.2-2.5,5-3.5c5.9-3.3,11.8-6.6,18-9.6c6-2.9,8.7-9.7,7.2-15.6c-0.6-2.4-0.5-5.2-0.2-7.7
	c0.4-3.2,1.5-6.3,2-9.5c0.3-2.1,0.2-4.3,0.2-6.4c0-0.9-0.5-1.5-1.3-1.6c-0.1,2.4-0.1,4.6-0.4,6.8c-0.3,2.3-1,4.6-1.5,6.9
	c-1,4.2-1.8,8.4-0.3,12.7c0.7,2.1,0.5,4.2-0.2,5.9c-2.4,0-4.5-0.4-6.4,0.1c-4.5,1.2-8.8,2.8-13.2,4.4c-4.7,1.8-9.2,4.2-14,5.9
	c-5.2,2-10.6,3.7-15.9,5.4c-6.4,2-13,3.1-19.7,3.4c-10.9,0.5-21.7-0.7-32.6-2c-11.8-1.4-23.5-3-35.2-4.5
	c-12.8-1.6-25.6-1.2-38.4-0.5c-1.1,0.1-2.1,0.2-3.2,0.4c-10.8,1.6-21.3,4.3-31.7,7.6c-15.6,4.9-30.7,10.8-44.9,18.8
	c-1.4,0.8-2.9,1.6-3.6,3.2c0.7-0.1,1.2-0.3,1.7-0.6c4.1-2.3,8.1-5,12.4-6.9c8.8-3.8,17.4-7.9,26.7-10.5c9.1-2.5,17.9-6,27.2-8
	c9.4-2,18.9-3.1,28.5-3.3c10.5-0.2,20.9,0.5,31.3,1.9c13.1,1.8,26.2,3.6,39.4,4.9c9.1,0.9,18.3,1.8,27.4,0.2c0.6-0.1,1.3,0,1.9,0
	c0.1,0.2,0.1,0.4,0.2,0.6c-2.9,2.4-5.8,4.8-8.6,7.2c-1.5,1.3-2.3,2.7-3,4.7c-1,2.9-1,5.9-1.7,8.7c-1.4,5.2-1.2,10.5-1.3,15.7
	c-0.1,2.3,0.4,4.7,1,7c0.5,2,1.7,3.4,4,4.1c6.1,2,12.4,3,18.7,3.8c4.1,0.5,8.2,0.6,12.2,0.7c3.2,0.1,6.4,0.2,9.7,0
	c7.8-0.5,15.3-2.6,22.7-5c4.5-1.5,9-2.9,13-5.7c0.5-0.3,0.7-0.9,1.1-1.4c-3.3,1.1-6,2.9-9,3.9c-4.8,1.7-9.6,3.1-14.5,4.4
	c-6.6,1.8-13.3,3-20.1,2.8c-7.1-0.2-14.2-0.6-21.2-1.9c-3.9-0.7-7.8-1.8-11.6-2.9c-2.9-0.8-4.3-3-4.3-5.9c0-3.4-0.2-6.9,0-10.3
	c0.4-5.3,1.2-10.5,1.9-16.1c1.5,1.1,2.4,1.9,3.5,2.6c5.5,3.5,11.7,4.3,18,4.3c9.2,0.1,18.3-0.2,27.5-0.7c7.3-0.4,14.6-1.1,21.6-3.7
	c3.4-1.3,6.9-2.1,10.5-3.2c0.5,8.3-1.8,16.2-1.7,24.4c0.3-0.3,0.7-0.4,0.7-0.7c0.4-2.8,2.3-4.6,4.4-6.1c2.2-1.6,4.5-3.4,6.9-4.6
	c5.2-2.4,10.4-4.8,15.8-6.6c8-2.6,16.1-4.9,24.5-5.9c1-0.1,2-0.5,3.1-0.7c-0.4-2.2-2-2.6-3.5-3.1c-3.9-1.2-7.7-2.6-12.3-4.1
	C414.9,61.9,424.3,55.3,432.7,46.4z M317.3,56.6c0.1,0.2,0.2,0.5,0.2,0.7c-1.4,0.5-2.8,1-4.2,1.4c-0.1-0.2-0.1-0.3-0.2-0.5
	C314.6,57.6,316,57.1,317.3,56.6z M315.4,59.9c0.1,0.2,0.2,0.4,0.2,0.6c-1.3,0.5-2.6,1-4,1.5c-0.1-0.2-0.1-0.4-0.2-0.6
	C312.8,60.9,314.1,60.4,315.4,59.9z M316.4,61.3c-2.3,1.6-4.7,3.3-7.9,2.8C311.2,63.2,313.8,62.2,316.4,61.3z M303.8,70.3
	c-2.5,0.7-4.9,1.5-7.4,2.2c-0.1-0.2-0.1-0.4-0.2-0.7c2.5-0.7,4.9-1.5,7.4-2.2C303.7,69.9,303.7,70.1,303.8,70.3z M297.1,68.1
	c0.1,0.2,0.3,0.5,0.4,0.7c-1.3,0.5-2.6,0.9-3.8,1.4c-0.1-0.2-0.2-0.4-0.3-0.7C294.6,69.1,295.8,68.6,297.1,68.1z M295.4,78.4
	c-2.8-1.1-5.6-2.5-9-4c1.1-1,1.7-1.5,2.1-1.8c1.2,0.6,2.1,1,3,1.5c-0.2,0.4-0.4,0.7-0.8,1.3c4.7,0.6,8.2-3,12.8-2.5
	c-2.6,1.1-5.2,2.2-7.8,3.4c0.1,0.2,0.1,0.4,0.2,0.6c1.4-0.5,2.8-1.1,4.2-1.4c1.5-0.3,3.1-0.3,5.1-0.4c-0.7,0.6-1.2,1-1.8,1.3
	c-1.2,0.6-2.6,1.1-3.8,1.8C298.2,79,296.8,79,295.4,78.4z M299.9,78.8c1.9-0.5,3.8-1,5.7-1.5C304,78.9,302.3,79.9,299.9,78.8z
	 M305.5,60.9c-0.3,0.1-0.7,0.2-1.1,0.3c0-0.1-0.1-0.2-0.1-0.3c0.6-0.3,1.2-0.5,1.8-0.8c0.1,0.1,0.1,0.2,0.2,0.3
	C306,60.5,305.8,60.8,305.5,60.9z M306.9,74.9c-0.1-0.3-0.2-0.5-0.3-0.8c1-0.4,2-0.8,3-1.2c0.1,0.2,0.2,0.4,0.3,0.6
	C308.9,73.9,307.9,74.4,306.9,74.9z M312.4,71.2c0.7-0.5,1.5-0.9,2.2-1.4c0.1,0.2,0.3,0.4,0.4,0.7c-0.8,0.4-1.6,0.8-2.3,1.2
	C312.6,71.5,312.5,71.3,312.4,71.2z M415.6,58.6c-4.8,2.5-9.4,5.1-14.6,7.9c2.4,1.7,4.8,2.4,7.1,3.3c2.4,0.9,4.8,1.8,7.7,2.8
	c-3.2,0.7-5.8,1.2-8.3,1.7c-9.6,1.9-19,4.7-28,8.6c-2.7,1.2-5.3,2.5-7.7,4.1c-2.1,1.4-4,3.2-6.3,5c0.2-1.8,0.4-3.6,0.5-5.3
	c0.4-4.3,0.8-8.6,1-12.9c0.1-1.2-0.2-2.6-0.7-3.8c-0.2-0.5-1-0.7-1.8-1.2c-0.2-0.6-0.4-1.6-0.7-2.6c-0.2-0.6-0.7-1.1-1-1.6
	c-2.1-3.5-1.4-6,2.6-7.2c3.5-1,7.1-1.8,10.7-2.1c6.7-0.7,13.6-0.7,20.3-1.4c7.6-0.8,15.1-2.1,22.7-3.3c3.2-0.5,6.2-1.4,10.1-2.2
	C424.5,52.4,420.5,56,415.6,58.6z M58.3,10.9c0-0.2-0.1-0.5-0.1-0.7c-3.7-0.8-7.3,0.3-10.9,0.9c-0.1,0-0.2,0.5-0.4,1.1h3.9
	c0.1,0.7,0.5,1.6,0.3,1.8c-0.9,0.7-2,1.2-3.1,1.8c0,1.8,1.6,0.9,2.6,1.6c0.1,1.9,0.1,3.8,0.4,5.5c0.4,2.1,1.5,2.4,3.6,1.4
	c-0.3-2.5-0.7-5-1-7.4c1.5-0.7,2.6-1.3,4.2-2.1c-1.8-0.2-2.9-0.2-4.1-0.3c0.2-1.1,0.3-2,0.5-2.8C55.7,11.4,57,11.2,58.3,10.9z
	 M68.4,8.3c-1.5,4.1-1.2,8.1-3.4,11.6c-1.7-0.7-1.9-2.1-2.2-3.4c-0.3-1.1-0.4-2.3-0.7-3.5c-0.3-1.1-0.5-2.3-2.7-2.8
	c0.5,3.3,0.4,6.3,1.4,9.2c0.8,2.4,2.6,3.1,4.8,2.1c0.6-0.2,1-0.7,1.5-1c0.7,0.5,1.4,0.9,2.2,1.4c-0.2-2.5-0.4-4.6-0.6-6.8
	C68.6,13.1,69.9,11,68.4,8.3z M63.4,8.5c0.4-0.7,0.8-1.1,0.7-1.5c-0.1-0.3-0.6-0.6-1-0.9c-0.3,0.4-0.8,0.7-0.8,1.1
	C62.3,7.6,62.8,7.9,63.4,8.5z M218.4,34.4c0.6-1,1.1-2.2,1.1-3.3c0-1.4-3-3.5-4.6-3.5c-2,0-2.9,0.7-3.3,3.2c-0.6,3.6-1,7.2-1.5,10.7
	c2.9,1.3,3.4,1,3.9-1.8c0.1-0.7,0.4-1.4,0.6-2.1c2.4,1.3,2.9,4.2,5.6,5.5c-0.2-3.1-2.6-4.5-3.7-6.8C217.2,35.6,218,35.1,218.4,34.4z
	 M215.1,33.5v-4.3C216.8,31.3,216.8,31.5,215.1,33.5z M76.8,14.6c0.8-0.5,1.8-0.8,2.5-1.4c1.1-1,2-2.3,1.3-3.7
	c-0.4-0.9-1.8-1.5-2.8-1.8c-1.9-0.5-3.9-0.3-5.4,1c0,4.3,0,8.3,0,12.3c0,1.2,0.3,2.1,2,2.3c0.3-1,0.7-1.9,0.8-2.9c0.1-1,0-2,0-3.2
	c8.3,3.8,8.3,3.8,11.3,2.2C81.7,18.9,79.5,17.8,76.8,14.6z M74.6,13.7c-0.2-1.5-0.3-2.7-0.5-3.9c1.9-1.2,3.5-0.8,5.2,0.3
	C78.9,12.8,76.8,13.1,74.6,13.7z M201.4,27.5c-0.4,4.8-0.9,9.6-1.3,14.6c1.9,0.7,3.1,0.3,3.1-1.4c0-2.7,1.3-4.2,3.4-5.6
	c1.2-0.9,2.1-2.4,2.7-3.8c0.8-1.8,0.1-3-1.6-3.5C205.7,27.2,203.7,26.6,201.4,27.5z M206.9,31.4c-0.5,1.7-1.5,3.1-3.1,4.1
	c0.2-2.3,0.4-4.3,0.6-6.6C207.1,29.4,207.3,29.7,206.9,31.4z M66.4,7.3c1.2,0.5,1.7-0.2,2.1-2.2c-1.2,0.6-1.9,0.9-2.5,1.3
	C65.9,6.4,66.1,7.2,66.4,7.3z"/>
</svg>
