<?xml version="1.0" encoding="utf-8"?>
<!-- Generator: Adobe Illustrator 18.0.0, SVG Export Plug-In . SVG Version: 6.00 Build 0)  -->
<!DOCTYPE svg PUBLIC "-//W3C//DTD SVG 1.1//EN" "http://www.w3.org/Graphics/SVG/1.1/DTD/svg11.dtd">
<svg version="1.1" id="Ebene_1" xmlns="http://www.w3.org/2000/svg" xmlns:xlink="http://www.w3.org/1999/xlink" x="0px" y="0px"
	 width="150.7px" height="65px" viewBox="0 0 150.7 65" enable-background="new 0 0 150.7 65" xml:space="preserve">
<path fill="#232323" d="M8,4.7C7.4,3,6.8,1.5,6.3,0C6,0,5.7,0.1,5.5,0.1C5.4,1.5,5.3,2.9,5.3,4.5C3.6,4.5,2,4.5,0,4.4
	c1.2,2.7,3.6,1.9,4.9,3c0.6,2.1-2.7,3.4-0.9,6.1c1.1-1.6,2-2.7,2.9-4.1c0.9,0.9,1.5,1.5,2.1,2c2.5-0.9,0.5-2.3,0.5-3.4
	c0.6-1,2.7-1.2,1.8-3.2C10.2,4.8,9.1,4.7,8,4.7z M66.5,22.4C65.4,14,57.4,11,51.4,13.6c-1.5,0.7-3,1.3-4.5,2
	c-3.5,1.6-5.7,4.5-7.3,7.8c-1.2,2.6-0.7,3.7,2.2,4.7c0.4-0.7,1.2-1.4,1.3-2.2c0.3-3.5,2.7-5.7,4.9-7.9c3.5-3.6,9.2-4.9,13.4-0.4
	c2,2.1,2.2,4.8,2,7.4c-0.5,8.4-3.6,15.9-9.3,22.1c-1.8,1.9-4.2,3.2-6.3,4.7c-0.6,0.4-1.5,0.3-2.6,0.5c1.8-5.5,3.6-10.6,5.2-15.8
	c1.6-5.1,4.1-9.9,4.2-15.4c-2.2-1-2.7,0.1-3.2,1.6c-1.6,5.3-3.2,10.6-5,15.8c-1.6,4.8-3.5,9.6-5.4,14.7c-6.7-2.3-9.4-7.8-12.4-13.6
	c-1.8,2-1.8,4.1-0.9,6.2c0.7,1.6,1.6,3.2,2.6,4.6c3,4.5,10.7,6.8,15.9,5C57.4,51.7,68.3,36.4,66.5,22.4z M143.4,38.6
	c-2.3,0.4-4.1,1.5-6,2.4c-1.6,0.7-3.3,1.4-5,1.6c-2.8,0.3-4.1-1.8-2.9-4.3c1-2,2-4.1,3.2-6c1.2-2,0.7-3.8-0.3-5.7
	c-0.7-1.4-1.8-1.6-3.2-1.1c-2.7,0.9-4.3,3-4.4,6.4c-0.1,2.3,0,4.5,0.1,6.8c0,1.3-0.4,2.3-1.9,2.4c-3.5,0.2-7.1-5.1-5.7-8.4
	c0.7-1.7,1.5-3.5,2-5.3c0.5-1.9,0.5-3.8-1.3-5.1c-5.9,1.8-9.7,6.3-13.7,10.8c0-1.9,0.2-3.6,0.7-5.3c1.6-5.4,3.4-10.8,4.8-16.2
	c0.5-1.9,0.1-4,0-6c-0.1-1.4-1.1-2.2-2.5-2.3C106,3.1,105,3.8,104.7,5c-0.6,2.4-1.3,4.9-1.6,7.3c-0.6,5.8-0.9,11.5-1.4,17.3
	c-0.1,1.2-0.4,2.5-1,3.6c-1.6,3.1-3.4,6.2-5.1,9.3c-0.6,1.1-1.3,1.9-2.7,1.4c-2.5-5,0.4-10.7-1.6-16c-3,0.3-3.7,3.3-5.7,4.7
	c-0.7-2.3-0.7-2.3-2.7-3.4c-3.4,4.1-3.4,9.9-7,14.5c0-1.3-0.1-2.2,0.1-2.9c0.9-3.5,1.8-7,2.8-10.6c0.4-1.7,1-3.4-0.8-4.7
	C77,26.1,76,27.2,75.5,27c-3.5-1.2-5.4,1.2-6.8,3.4c-2.5,4.1-2.8,8.8-2.2,13.5c0.2,1.8,1.7,2.5,3.3,1.6c1.1-0.6,1.9-1.5,3.1-2.4
	c0.2,0.7,0.3,1.2,0.3,1.6c0.2,1.3,0.4,2.6,2.1,2.7c1.7,0.1,2.2-1,2.6-2.5c0.8-2.8,2.1-5.4,3.1-8c-2.1,10.2-2.1,10.2-0.5,12
	c0.5-1.3,1-2.4,1.5-3.4c1.6-3.6,3.1-7.1,4.8-10.6c0.3-0.7,1.1-1.1,2-2.1c0.1,1.4,0.1,2.2,0.1,2.9c0.1,3,0,6.1,0.5,9
	c0.6,3.2,3.2,4.1,5.5,1.8c1.5-1.4,2.5-3.4,3.6-5.2c0.5-0.8,0.8-1.6,1.2-2.4c0.6,1.8,0.5,3.4,0.4,5c-0.3,4.9-0.8,9.8-1,14.7
	c-0.1,1.8-0.2,3.9,2.4,4.6c1.4-1.5,2.2-3.3,2.2-5.4c0-5.3,0.1-10.6-0.1-15.8c-0.1-2.3,0.3-4.3,1.7-6c2.1-2.6,4.4-5.2,6.8-7.5
	c1.1-1.1,2.7-1.6,4.3-2.5c1.2,3.5-1,5.4-1.8,7.9c-3.6-0.2-6.2,1.1-7.8,4.3c-1.6,3.3-0.8,4.8,3.1,5.7c1-1.1,2.1-2.2,3.2-3.4
	c5.1,5.8,6.1,6,13.2,3.2c0.3,0.1,0.6,0.3,0.9,0.5c4.5,3,6.7,2.9,10.8-0.5c1.4-1.1,2.7-2.2,4.1-3.4C142.7,39.7,143,39.1,143.4,38.6z
	 M107.1,7.1c1.1,4.4-0.2,8.4-1.6,12.5C104.8,15.3,105.1,11.1,107.1,7.1z M74.1,33.7c-1,2.8-1.5,6-4,8.3c-1-3.9,0.3-8.5,3.5-12
	C73.9,31.5,74.5,32.8,74.1,33.7z M109.9,40.8c-0.9-2.2-0.3-3.1,1-3.6c0.3,0.2,0.6,0.4,0.9,0.5C111.3,38.6,110.7,39.5,109.9,40.8z
	 M129,27.5c2.8,2,2.6,3.5-0.9,7.9C128.4,32.5,128.7,30.1,129,27.5z M150.6,55.8c-1.6,0.2-3.3,0.3-4.7,0.5c-1.2-1.5-0.9-3.5-3.1-4.3
	c-0.3,1.4-0.6,2.6-1,4.1c-1.1,0-2.1-0.1-3.1-0.1c-1,3,2.4,1.7,2.7,3.3c-0.5,1.9-0.9,3.7-1.4,5.6c0.2,0.1,0.5,0.2,0.7,0.3
	c1-1.4,2.1-2.8,3.4-4.5c1.1,1.6,1.9,2.8,2.6,3.8c2.4-1.6,0-3.4,0.6-4.8C148.2,58.1,151.2,58.8,150.6,55.8z"/>
</svg>
