<?xml version="1.0" encoding="utf-8"?>
<!-- Generator: Adobe Illustrator 18.0.0, SVG Export Plug-In . SVG Version: 6.00 Build 0)  -->
<!DOCTYPE svg PUBLIC "-//W3C//DTD SVG 1.1//EN" "http://www.w3.org/Graphics/SVG/1.1/DTD/svg11.dtd">
<svg version="1.1" id="Ebene_1" xmlns="http://www.w3.org/2000/svg" xmlns:xlink="http://www.w3.org/1999/xlink" x="0px" y="0px"
	 width="144.5px" height="44.7px" viewBox="0 0 144.5 44.7" enable-background="new 0 0 144.5 44.7" xml:space="preserve">
<path fill="#232323" d="M94.9,10.5c0.8-2.8,0.6-5.3-0.4-7.9C93.8,1,92-0.1,90.1,0c-1.5,0.1-2.4,1.2-2.8,2.6c-0.5,1.9-1,3.7-1.5,5.6
	c-0.6,2.1-1.3,4.2-2,6.5c-1-3.2-1.9-6-2.9-8.8c-1.1-3.1-2.6-4.2-5.8-4.2c-3.3,0-5.4,2.1-5.5,5.5c0,4.4,0,8.8,0,13.2
	c-0.2,0-0.5,0-0.7,0c-0.8-5-1.6-10-2.3-14.9c-2.4-1.8-5.1-1.7-7.9-1.5c-1.6,4.8-3.2,9.5-4.8,14.2c-0.2-0.1-0.5-0.1-0.7-0.2
	c-0.1-0.3-0.2-0.7-0.2-1c0.1-5.9-3-9.9-7.6-12.9c-3-1.9-6.3-3.2-10-2.8c-2.9,0.3-3.6,1.3-3.6,4.2c0,0.3,0,0.7,0,1
	c0.8,8.8,1.5,17.7,2.3,26.5c0.2,2.3,1.1,4.3,3.4,5.7c4.4-2.2,8.5-5,12-8.7c-0.9,2.6-1.7,5.3-2.6,8c2.6,1,4.8,0.6,7,0.1
	c2.2-0.6,3.8-1.7,4.1-4.2c0.2-2.1,0.8-4.2,1.3-6.3c0.2,0,0.3,0,0.5,0c0.7,3,1.4,6.1,2.2,9.5c2.3-0.9,4.4-1.6,6.5-2.4v1.6
	c2.8,2,5.5,1.5,8.3,0.1c0.4-1.7,0.7-3.4,1.1-5.1c0.2,0,0.4,0,0.6,0c0.3,2.4,0.6,4.8,0.9,7.1c1.6,0.9,3.1,1.8,4.7,2.8
	c1.7-0.4,3.8-0.5,4.3-3.2c0.6-3.3,1.6-6.6,2.3-9.9C92.1,22.2,93.2,16.3,94.9,10.5z M38.3,36.4c-2.3-0.9-2.5-3-2.7-5
	C34.7,23.3,34,15.2,33.2,7c-0.1-1.1,0-2.2,0-3.7c1.4-0.2,2.5-0.5,3.5-0.4c8.9,1.3,16.4,7.4,14.1,18.5C49.4,28.6,45.2,33.4,38.3,36.4
	z M63.5,34.3c-1.5-3.3-1.6-7-2.3-10.6c-3-1.3-3.4-1.2-4.3,1.8c-1,3.5-1.9,7-3,10.7c-1.5,0.2-2.9,0.3-4.9,0.6
	c1.2-3.8,2.3-7.1,3.4-10.3c1.9-5.8,3.8-11.6,5.9-17.4c0.5-1.5,0.5-3.9,3.7-3.4c0.3,1.4,0.8,2.8,1,4.3c1,7.2,2,14.4,3,21.5
	C66.2,33.2,66.1,34.6,63.5,34.3z M83.4,38.1c-1.2-0.4-2.1-0.7-3-1c0.2-4.4-3.1-18.3-5.1-20.7c-0.5,3.5-0.9,6.5-1.3,9.6
	c-0.4,3.1-0.8,6.2-1.2,9.5c-1.2-0.2-2.1-0.4-3.1-0.5c0.1-0.6,0.1-1,0.2-1.4c0.9-8.4,1.4-16.7,1-25.1c-0.1-2.7,0.7-4.3,4.1-4.9
	c1.9,5.9,3.8,11.8,5.7,17.6c2.2,0,3-1.1,3.4-2.8c1.5-5.4,3.2-10.8,4.9-16.6c1.1,0.1,2.1,0.2,3.6,0.4C89.6,14.3,86.5,26,83.4,38.1z
	 M16.8,8.8c-1.1-4-1.1-4-5.7-4.2C10,6.5,8.9,8.4,7.8,10.5c-1.5,0.1-3,0.1-4.5,0.3c-1.2,0.1-2.7-0.5-3.2,1.1
	c-0.5,1.4,0.9,1.9,1.7,2.6c0.7,0.7,1.4,1.4,2.1,2.2c-0.9,2.7-1.8,5.2-2.6,7.7c3.3,2.1,5.9-0.3,8.7-1.2c1.6,1.7,3.1,3.4,4.7,5.1
	c1.6,0,3.3-0.1,4.4-2c-1-3.6,0.7-6.2,3.7-8.2c0.6-0.4,1-1.1,1.8-2.1c-2.5-0.9-4.6-1.7-6.6-2.4C17.5,11.9,17.2,10.3,16.8,8.8z
	 M14,20.2c0.1,1.3,0.1,2.5,0.2,4.5c-1.9-1.8-3.4-3.2-4.9-4.7c-1.8,0.7-3.4,1.4-5.7,2.3c0.8-2.3,1.3-4,1.9-5.9
	c-0.9-1.2-1.9-2.5-3.1-4c2.1-0.3,4.1-0.2,5.6-1c1.4-0.8,2.2-2.7,3.7-4.6c0.6,1.5,1.2,2.5,1.3,3.6c0.5,3.2,2.3,5,6.3,5.2
	C17.3,17.4,15.6,18.8,14,20.2z M57.5,19.3c2.3,1.3,3.6,1.2,3.4,0.1c-0.2-1.9,0.1-4-2-6.1C58.4,15.6,57.9,17.3,57.5,19.3z M38.2,8.8
	c0.2,1.4,0.4,2.5,0.5,3.6c0.5,4.6,0.9,9.3,1.5,13.9c0.1,1.1,0.7,2.2,1.1,3.4c2.4-1.6,5.2-6.5,5.5-9.5c0.3-2.9,0.2-5.7-1.2-8.3
	C44,8.8,41.3,7.7,38.2,8.8z M44.1,22.4c-0.3-3.4-0.7-6.7-1-10.1C45.8,15.4,45.7,18.9,44.1,22.4z M144.2,33.1h-14.7
	c0.4-1.8,0.7-3.2,1.1-4.9h4.4c0.2-1.7,0.5-3.4,0.7-5.4c-2.5,0.1-4.6,0.2-6.8,0.3c0-1,0-1.5,0-2.1c0.2-3.2,0.5-3.5,3.7-4.2
	c3.5-0.8,7-1.7,11.1-2.7c0.1-1.5,0.3-3,0.3-4.4c0-1-0.6-1.7-1.7-1.6c-2.3,0.3-4.7,0.4-7,0.9c-5.3,1.1-10.6,2.3-16.2,3.6
	c-1.5-1.6-3.1-3.3-4.8-5.1c-3.6,1.5-4.8,5.6-8.5,7.3c0.5-1.8,0.8-3.3,1.4-4.6c1-2,0.8-3.8-0.5-5.4c-1.1-1.3-2.4-2.3-3.8-3.1
	c-2.1-1.2-3-0.7-3.6,1.7c-1.3,5.4-2.7,10.8-4,16.2c-0.8,3.4-1.6,6.8-2.4,10.3c-0.6,2.4-1.4,4.8-2,7.2c-0.6,2.6,0.2,3.8,2.9,4.2
	c1,0.2,2,0.4,3,0.4c2.6,0.1,2.7,0,3.6-2.5c0.5-1.4,1.2-2.8,1.9-4.6c0.5,1,0.8,1.6,1.1,2.2c0.7,2,1.4,4.1,2.2,6.1
	c0.8,2,1.5,2.2,3.3,1.1c3.2-1.9,4.6-5.6,3.2-9c-0.5-1.3-1-2.5-1.5-3.8c-1.6-4-1.5-7.5,2.4-10.2c0.9-0.6,1.5-1.7,2.4-2.4
	c0.9-0.8,1.9-1.4,2.8-2c0,5.1,0,9.7,0,14.3c0,2.2,0.3,4.3,0.4,6.4c0.1,1.4,0.9,2,2.3,2c1.6,0,3.2,0,4.8,0c5.3-0.1,10.6-0.1,16-0.3
	c0.7,0,1.6-0.5,1.9-1C144.3,36.7,144.9,35.2,144.2,33.1z M115.6,12.8c-2.7,2.9-5.3,5.9-8.2,8.6c-2.2,2.1-2.9,4.3-1.8,7.3
	c1.3,3.6,2.3,7.4,3.3,11.1c0.4,1.3,0.7,2.8-1.9,3c-1.9-5.4-3.8-10.9-6-17c-0.7,1.1-1.2,1.6-1.4,2.2c-1,3-1.8,6.1-2.8,9.1
	c-1,2.9-1.3,3-4.8,1.9C95,27.1,97.9,15.2,101,2.9c1.5,0.7,2.4,1.1,3.4,1.6c-0.5,6.6-4,12.5-4.1,19.3c2.8-1.8,4.1-4.9,6.4-7.1
	c2.2-2.2,4.4-4.5,6.8-6.9c1,0.8,1.7,1.4,2.5,2C115.8,12.2,115.8,12.6,115.6,12.8z M138.8,37.2c-0.6,0-1.1,0.2-1.7,0.2
	c-4.3,0.2-8.6,0.4-12.9,0.5c-1.4,0-2.8-0.2-4.3-0.4V14.4c6.7-2.1,13.3-3.6,20.5-4.7c0.1,1.4,0.2,2.4,0.2,3.7
	c-4.8,1.2-9.4,2.4-14.4,3.7c-0.3,2.4-0.6,4.9-0.9,7.5c2.2,1.2,4.8-0.7,7.4,1.4c-1.5,0.5-2.5,0.9-3.5,1.1c-3.4,0.9-3.6,1.2-3.6,4.7
	c0,0.8,0,1.6,0,2.6h14.7C140.6,36,140.5,37.1,138.8,37.2z"/>
</svg>
