<?xml version="1.0" encoding="utf-8"?>
<!-- Generator: Adobe Illustrator 18.0.0, SVG Export Plug-In . SVG Version: 6.00 Build 0)  -->
<!DOCTYPE svg PUBLIC "-//W3C//DTD SVG 1.1//EN" "http://www.w3.org/Graphics/SVG/1.1/DTD/svg11.dtd">
<svg version="1.1" id="Ebene_1" xmlns="http://www.w3.org/2000/svg" xmlns:xlink="http://www.w3.org/1999/xlink" x="0px" y="0px"
	 width="276px" height="66.3px" viewBox="0 0 276 66.3" enable-background="new 0 0 276 66.3" xml:space="preserve">
<path fill="#A59164" d="M276,6.7c-0.1-0.5-0.2-1-0.3-1.4c-0.7-1.8-2.3-3.3-4.4-3.8c-1.1-0.2-1.8-0.1-2.7-0.2c-0.8,0-1.7,0-2.5-0.1
	c-3.3-0.1-6.8-0.2-10.3-0.3c-7.1-0.2-14.5-0.4-22.3-0.5c-15.5-0.3-32.3-0.4-50.1-0.5c-4.4,0-8.9,0-13.5-0.1c-4.6,0-9.2,0-13.8,0
	c-9.3,0-18.9,0-28.6,0.1c-19.4,0.1-39.4,0.3-59.8,0.4C57.5,0.6,47.3,0.7,37,0.8C26.7,1,16.3,1.1,6,1.3c-1.7,0-3.3,0.8-4.4,2
	C1,3.9,0.6,4.6,0.3,5.4C0.2,5.8,0.1,6.2,0,6.6C0,6.9,0,7,0,7.2l0,0.3l0,0.2l0.1,7.8C0.2,20.7,0.3,25.8,0.3,31
	c0,5.2,0.1,10.3,0.1,15.4c0,2.6,0,5.1,0,7.7l0,3.8l0,1l0,0.5l0,0.6c0.1,0.7,0.3,1.5,0.7,2.1c0.7,1.3,2,2.3,3.4,2.6
	c0.7,0.2,1.5,0.2,2.1,0.2l1.9,0c2.5,0,5.1,0,7.6,0c5,0,10.1,0,15.1,0.1c10,0.1,19.8,0.3,29.5,0.5c9.7,0.2,19.2,0.3,28.6,0.5
	c4.7,0.1,9.3,0.2,13.8,0.2c4.6,0,9.1,0.1,13.5,0.1c17.8,0.1,34.6,0.1,50.1-0.2c15.5-0.2,29.7-0.6,42.3-0.9
	c6.3-0.1,12.2-0.3,17.7-0.4c2.7-0.1,5.3-0.1,7.8-0.2c2.5,0,4.9-0.1,7.1-0.1c9-0.1,16.2-0.1,21-0.2c4.8,0,7.4,0,7.4,0s0.2,0,0.5,0
	c0.3,0,0.8-0.1,1.4-0.4c0.6-0.3,1.3-0.7,1.9-1.5c0.6-0.7,1.1-1.8,1.1-3.1c0-4.8,0-12,0.2-21c0-2.3,0.1-4.6,0.1-7.1
	c0.1-2.5,0.1-5.1,0.2-7.8c0.1-2.7,0.1-5.6,0.2-8.5c0-1.5,0.1-3,0.1-4.5c0-0.8,0-1.5,0.1-2.3l0-0.6C276,7.2,276,6.9,276,6.7z
	 M273.6,62.1c-0.6,0.7-1.2,1.1-1.7,1.3c-0.5,0.2-1,0.3-1.3,0.3c-0.3,0-0.5,0-0.5,0s-2.6,0-7.4,0c-4.8,0-12,0-21-0.2
	c-2.3,0-4.6-0.1-7.1-0.1c-2.5-0.1-5.1-0.1-7.8-0.2c-5.5-0.1-11.4-0.2-17.7-0.4c-12.6-0.3-26.8-0.7-42.3-0.9
	c-15.5-0.3-32.3-0.3-50.1-0.2c-4.4,0-8.9,0.1-13.5,0.1c-4.6,0.1-9.2,0.2-13.8,0.2c-9.3,0.2-18.9,0.3-28.6,0.5
	c-9.7,0.2-19.6,0.4-29.5,0.5c-5,0.1-10,0.1-15.1,0.1c-2.5,0-5.1,0-7.6,0l-1.9,0c-0.7,0-1.2,0-1.7-0.1c-1-0.3-1.9-1-2.5-1.9
	c-0.3-0.5-0.4-1-0.5-1.5l0-0.4l0-0.5l0-1l0-3.8c0-2.6,0-5.1,0-7.7c0-5.1,0.1-10.3,0.1-15.4c0.1-5.2,0.1-10.3,0.2-15.5l0.1-7.8l0-0.2
	c0-0.1,0,0,0-0.2c0-0.2,0-0.4,0-0.4c0-0.2,0.1-0.4,0.2-0.6c0.2-0.4,0.4-0.8,0.8-1.2C4.2,4.4,5.1,4,6,4c10.3,0.2,20.7,0.3,31,0.5
	c10.3,0.1,20.6,0.2,30.7,0.3c20.4,0.1,40.4,0.3,59.8,0.4c9.7,0.1,19.2,0.1,28.6,0.1c4.7,0,9.3,0,13.8,0c4.6,0,9.1,0,13.5-0.1
	c17.8-0.1,34.6-0.2,50.1-0.5c7.8-0.1,15.2-0.3,22.3-0.5c3.5-0.1,7-0.2,10.3-0.3c0.8,0,1.7,0,2.5-0.1c0.8,0,1.7-0.1,2.2,0
	c1.2,0.2,2.2,1,2.7,2.1c0.1,0.3,0.2,0.6,0.2,0.9c0,0.1,0,0.3,0,0.5l0,0.6c0,0.8,0,1.5,0.1,2.3c0,1.5,0.1,3,0.1,4.5
	c0.1,2.9,0.1,5.8,0.2,8.5s0.1,5.3,0.2,7.8c0,2.5,0.1,4.9,0.1,7.1c0.1,9,0.2,16.2,0.2,21C274.6,60.5,274.2,61.4,273.6,62.1z M42.2,31
	c0.6-0.7,1-1.5,1.3-2.3c0.3-0.8,0.5-1.6,0.6-2.3c0.1-0.5,0-1.1-0.1-1.8c-0.1-0.7-0.3-1.3-0.7-1.9s-0.9-1.1-1.5-1.5s-1.5-0.6-2.6-0.6
	s-2,0.1-2.9,0.3c-0.9,0.2-1.6,0.4-2.3,0.7s-1.2,0.5-1.7,0.8c-0.4,0.3-0.8,0.5-1,0.7c-0.4,0.3-0.6,0.6-0.6,0.9s0.1,0.5,0.2,0.8
	c0,0.1,0.1,0.2,0.2,0.3c0.1,0.1,0.1,0.2,0.2,0.3c0.1,0.1,0.2,0.2,0.3,0.3c0.3-0.3,0.6-0.6,0.9-0.9c0.3-0.3,0.6-0.5,0.9-0.7
	c0.3-0.3,0.6-0.5,0.9-0.7c-0.1,0.4-0.2,0.9-0.4,1.5c-0.2,0.6-0.4,1.3-0.6,2.1s-0.4,1.6-0.6,2.5s-0.5,1.8-0.7,2.7
	c-0.5,0.1-0.8,0.3-1.2,0.6c-0.3,0.3-0.5,0.6-0.5,1c-0.1,0.6,0.3,1.1,0.9,1.5c-0.2,0.7-0.3,1.3-0.5,1.9c-0.1,0.6-0.3,1.1-0.3,1.5
	c-0.2,1-0.5,1.9-0.7,2.5s-0.4,1.1-0.6,1.4s-0.4,0.5-0.5,0.7c-0.1,0.1-0.2,0.2-0.3,0.2c0.2,0.3,0.5,0.5,0.7,0.6s0.5,0.2,0.9,0.2
	c0.6,0,1-0.1,1.3-0.4c0.3-0.3,0.5-0.6,0.6-1c0.2-0.4,0.3-0.9,0.5-1.5c0.2-0.6,0.3-1.2,0.5-1.8c0.1-0.6,0.3-1.3,0.4-2
	c0.1-0.7,0.3-1.3,0.4-2c0.9-0.1,1.6-0.2,2.3-0.3c0.1,0.1,0.1,0.2,0.2,0.3s0.1,0.3,0.2,0.4c0.3,0.8,0.5,1.7,0.5,2.7c0,1,0.1,2,0.1,3
	c0,0.8,0.1,1.4,0.2,2c0.1,0.5,0.3,1,0.5,1.3c0.2,0.3,0.4,0.6,0.7,0.8c0.3,0.2,0.6,0.3,0.9,0.3c0.5,0.1,0.9,0,1.3-0.2
	c0.4-0.2,0.7-0.5,1-0.8c0.3-0.3,0.5-0.6,0.7-0.9c0.2-0.3,0.3-0.4,0.3-0.4c-0.2,0.1-0.4,0.2-0.8,0.3s-0.7,0.1-1,0.1S40,44,39.7,43.8
	c-0.3-0.2-0.4-0.6-0.5-1.1c0-0.3-0.1-0.7-0.1-1.2c-0.1-0.5-0.1-1-0.2-1.5s-0.2-1.1-0.3-1.7c-0.1-0.6-0.2-1.1-0.4-1.7
	c-0.1-0.4-0.2-0.8-0.4-1.1c-0.1-0.3-0.3-0.6-0.4-0.9c1-0.4,1.9-0.9,2.7-1.6C40.9,32.5,41.6,31.8,42.2,31z M34.3,34.2
	c-0.2,0-0.4,0.1-0.6,0.1c0-0.3,0.1-0.5,0.1-0.8c0.5,0.1,0.9,0.2,1.1,0.5C34.7,34.1,34.5,34.1,34.3,34.2z M38.2,32.3
	c-0.6,0.4-1.2,0.8-1.8,1.1c-0.4-0.4-0.8-0.6-1.2-0.8s-0.8-0.3-1.2-0.4c0-0.1,0-0.2,0-0.2c0-0.1,0-0.1,0-0.2c0.1-0.5,0.2-1.1,0.4-2
	c0.2-0.7,0.3-1.6,0.6-2.7c0.2-1.1,0.5-2.5,0.9-4.1c0-0.1,0-0.2-0.1-0.2c0-0.1-0.1-0.1-0.1-0.2c-0.1-0.1-0.1-0.1-0.2-0.1
	c0.4-0.2,0.8-0.3,1.2-0.5c0.4-0.1,0.8-0.2,1.2-0.2c0.4,0,0.9,0.1,1.3,0.2c0.4,0.1,0.8,0.4,1.2,0.7c0.3,0.3,0.6,0.8,0.8,1.4
	s0.2,1.3,0.2,2.1c-0.1,0.9-0.3,1.8-0.6,2.6c-0.3,0.8-0.7,1.4-1.2,2C39.3,31.4,38.7,31.9,38.2,32.3z M164.7,23.2
	c-0.7-0.8-1.6-1.5-2.6-1.9s-2.1-0.6-3.1-0.6c-0.6,0-1.2,0.1-1.8,0.3c-0.5,0.1-1,0.3-1.6,0.6s-1.1,0.6-1.5,1.1l0.1,2.1
	c1.8-1.4,3.6-2.1,5.3-2.1c0.7,0,1.4,0.2,2,0.5s1.1,0.8,1.5,1.4s0.7,1.4,0.9,2.3s0.3,1.9,0.2,3.1c-0.2,2.2-0.6,4.1-1.3,5.7
	s-1.4,3-2.3,4.1s-1.8,1.9-2.7,2.4s-1.8,0.8-2.5,0.8c-0.6,0-1.1-0.2-1.3-0.6c0.7-2.4,1.2-4.3,1.6-5.7c0.2-0.8,0.4-1.5,0.6-2.2
	c0.2-0.7,0.4-1.4,0.6-2.3s0.4-1.7,0.6-2.5s0.3-1.6,0.5-2.3s0.2-1.2,0.3-1.5c0.1-0.6,0.1-1,0-1.2s-0.3-0.2-0.6-0.1l-2,0.9
	c-0.1,0.8-0.2,1.5-0.3,2.2s-0.2,1.2-0.3,1.7c-0.1,0.6-0.2,1.1-0.3,1.5c-0.1,0.4-0.2,0.9-0.3,1.6s-0.3,1.4-0.5,2.2s-0.4,1.6-0.6,2.4
	s-0.4,1.6-0.6,2.2s-0.4,1.3-0.6,1.8s-0.3,0.8-0.5,0.9c-0.1,0.1-0.2,0.3-0.3,0.4c-0.1,0.1-0.1,0.2-0.1,0.4s0.1,0.2,0.2,0.3
	c0.4,0.4,0.9,0.7,1.3,0.9s0.8,0.3,1.1,0.4c0.4,0.1,0.7,0.2,1,0.2c1,0,2.1-0.2,3-0.6s1.9-0.9,2.8-1.6s1.7-1.5,2.4-2.4
	s1.4-1.9,1.9-2.9s1-2.1,1.3-3.1s0.5-2.1,0.6-3.1c0.1-1.7,0-3.2-0.4-4.5S165.5,24,164.7,23.2z M248.4,33.4c-0.1,0-0.2,0.1-0.3,0.2
	c-0.1,0.1-0.2,0.3-0.5,0.6s-0.5,0.6-0.8,1s-0.7,0.8-1.1,1.2s-0.8,0.8-1.2,1.2s-0.8,0.7-1.1,0.9s-0.6,0.4-0.9,0.4
	c-0.2,0-0.4-0.1-0.6-0.3s-0.2-0.5-0.2-0.9c0-0.3,0.1-0.7,0.1-1.1s0.2-1,0.2-1.5c0.6-0.8,1.1-1.7,1.6-2.7s0.9-1.9,1.3-2.8
	s0.7-1.8,0.9-2.7s0.4-1.7,0.4-2.4c0-0.6,0-1.1,0-1.4s-0.1-0.6-0.2-0.8s-0.2-0.3-0.3-0.3s-0.3-0.1-0.5-0.1c-0.1,0-0.3,0-0.4,0.1
	c-0.1,0-0.3,0.1-0.4,0.2s-0.3,0.2-0.5,0.3c-0.3,0.9-0.5,1.8-0.7,2.6s-0.4,1.5-0.6,2.2c-0.2,0.7-0.4,1.4-0.5,2
	c-0.1,0.4-0.2,0.9-0.3,1.3s-0.2,1-0.3,1.4c-0.1-0.2-0.1-0.5-0.2-0.8s-0.2-0.5-0.4-0.7s-0.4-0.4-0.6-0.6s-0.5-0.2-0.8-0.2
	c-0.7,0-1.3,0.2-2,0.6s-1.2,0.9-1.8,1.5s-0.9,1.4-1.3,2.3c-0.2,0.5-0.3,1.1-0.4,1.7c-0.2,0.3-0.5,0.6-0.8,0.9
	c-0.3,0.4-0.6,0.8-1,1.1s-0.6,0.6-0.9,0.8s-0.5,0.3-0.7,0.3c-0.2,0-0.4,0-0.5-0.1s-0.2-0.2-0.2-0.4s-0.1-0.3-0.1-0.5s0-0.3,0-0.5
	c0.1-0.3,0.1-0.5,0.1-0.6s0.1-0.3,0.1-0.4l0.1-0.4c0-0.1,0.1-0.3,0.1-0.4c0.2-0.8,0.3-1.4,0.4-1.9s0.2-0.9,0.2-1.2s0.1-0.5,0.1-0.6
	s0-0.2,0-0.2c0,0-0.1,0-0.2,0c-0.1,0-0.2,0-0.4,0s-0.4,0.1-0.6,0.1c0.4-0.5,0.5-1,0.4-1.3s-0.2-0.6-0.5-0.7
	c-0.3-0.2-0.7-0.3-1.1-0.4c-0.4,0-0.9,0.1-1.5,0.4s-1.2,0.8-1.8,1.4c-0.2,0.2-0.4,0.4-0.5,0.6c-0.1,0-0.1,0.1-0.2,0.2
	c-0.2,0.2-0.5,0.4-0.8,0.7s-0.7,0.5-1.1,0.7s-0.8,0.5-1.2,0.7s-0.8,0.4-1.2,0.6c0-0.1,0-0.3,0.1-0.5s0-0.4,0-0.5
	c0-0.7-0.1-1.2-0.3-1.7s-0.5-0.9-0.8-1.2s-0.6-0.5-1-0.7s-0.6-0.2-0.8-0.3c-0.1,0-0.1,0-0.1-0.1s-0.1,0-0.1,0c-0.3,0-0.6,0-0.9,0.1
	s-0.6,0.2-0.9,0.3s-0.5,0.3-0.7,0.5s-0.4,0.5-0.5,0.8c-0.3,0.3-0.5,0.7-0.7,1.1s-0.4,0.8-0.5,1.2s-0.2,0.8-0.3,1.2s-0.1,0.7-0.1,1.1
	c0,0.5,0,0.9,0.1,1.5s0.2,1,0.4,1.4s0.5,0.8,0.9,1.1s0.9,0.4,1.6,0.4c0.6,0,1.1-0.1,1.6-0.3s0.9-0.5,1.3-1s0.7-0.9,1-1.4
	s0.5-1.2,0.7-1.8c0.5-0.2,1-0.4,1.6-0.8s1.1-0.7,1.5-1c0,0,0.1-0.1,0.1-0.1c-0.3,0.6-0.5,1.3-0.7,2c-0.2,0.8-0.3,1.4-0.2,2
	s0.2,1,0.4,1.3s0.4,0.6,0.7,0.8s0.5,0.2,0.8,0.2c0.5,0,1-0.1,1.5-0.3c0.4-0.2,0.9-0.4,1.4-0.8s0.9-0.9,1.3-1.6c0,0.5,0,0.8,0.1,1.1
	s0.2,0.5,0.2,0.7c0.1,0.2,0.2,0.4,0.4,0.5c0.2,0.1,0.3,0.2,0.5,0.2s0.4,0.1,0.6,0s0.5-0.1,0.7-0.1s0.4-0.2,0.6-0.3
	c0.3-0.2,0.6-0.5,1-0.9s0.8-0.9,1.2-1.4c0-0.1,0.1-0.1,0.1-0.2c0,0.3,0.1,0.6,0.1,0.9c0.1,0.4,0.3,0.8,0.5,1.1s0.5,0.5,0.7,0.6
	s0.5,0.2,0.8,0.2c0.7,0,1.3-0.2,2.1-0.7s1.4-1.1,2.1-1.9c0,0.3-0.1,0.5-0.1,0.6c0,0.3,0,0.5,0.1,0.8s0.2,0.5,0.4,0.7
	s0.4,0.4,0.6,0.5s0.4,0.2,0.7,0.2c0.3,0,0.7-0.1,1.1-0.3s0.8-0.5,1.2-0.8s0.9-0.7,1.3-1.2s0.8-0.9,1.2-1.3s0.7-0.9,1.1-1.3
	s0.6-0.8,0.8-1.1c0.1-0.2,0.2-0.4,0.2-0.5s0-0.2-0.1-0.3S248.5,33.4,248.4,33.4z M217.5,37.2c-0.2,0.3-0.3,0.6-0.5,0.8
	s-0.4,0.4-0.7,0.6s-0.5,0.2-0.8,0.2c-0.3,0-0.5-0.1-0.7-0.2s-0.3-0.3-0.4-0.6s-0.2-0.5-0.2-0.8s-0.1-0.6-0.1-0.9s0-0.6,0.1-1
	s0.2-0.7,0.3-1c0.3,0.6,0.6,1.1,1.1,1.5s1,0.6,1.7,0.6c0.1,0,0.3,0,0.4,0s0.2,0,0.3,0C217.8,36.6,217.7,36.9,217.5,37.2z
	 M218.6,33.7c0,0.1,0,0.3-0.1,0.5s-0.1,0.4-0.1,0.6c-0.1,0-0.2,0-0.3,0s-0.2,0-0.3,0c-0.5,0-0.9-0.1-1.2-0.2s-0.5-0.4-0.6-0.6
	s-0.2-0.5-0.3-0.8s-0.1-0.6-0.1-0.9c0-0.2,0-0.3,0.1-0.5c0.3-0.3,0.5-0.6,0.8-0.7s0.6-0.3,0.9-0.3c0.2,0,0.4,0.1,0.5,0.3
	s0.3,0.4,0.4,0.7s0.2,0.6,0.2,0.9S218.6,33.4,218.6,33.7z M229.1,32.3c0,0.3-0.1,0.6-0.2,1.1s-0.2,0.9-0.3,1.3s-0.2,0.9-0.3,1.2
	c0,0.1-0.1,0.2-0.2,0.4s-0.3,0.4-0.5,0.6s-0.4,0.4-0.7,0.6s-0.5,0.4-0.7,0.5s-0.5,0.2-0.7,0.2s-0.4-0.1-0.6-0.3
	c-0.1-0.1-0.2-0.3-0.2-0.6s0-0.7,0-1.2s0.2-0.9,0.3-1.4s0.4-1,0.6-1.4c0.6-1.1,1.1-1.8,1.6-2.2s0.8-0.5,1-0.4
	c0.1,0.1,0.1,0.2,0.1,0.3c0,0.1,0,0.2,0,0.4s-0.1,0.4-0.2,0.7c0.1,0,0.3-0.1,0.4-0.1s0.2,0,0.3-0.1c0.1,0,0.2-0.1,0.3-0.1
	C229.2,31.8,229.2,32,229.1,32.3z M240.8,34.3c-0.1,0.3-0.1,0.6-0.2,1c-0.2,0.2-0.4,0.5-0.7,0.9s-0.6,0.7-1,1s-0.7,0.6-1.1,0.9
	s-0.7,0.4-1,0.4c-0.4,0-0.7-0.2-1-0.5s-0.3-0.9-0.3-1.8c0-0.5,0.2-1.1,0.4-1.7s0.5-1.2,0.9-1.8s0.7-1,1.1-1.4s0.8-0.6,1.2-0.6
	c0.3,0,0.5,0.1,0.6,0.3s0.3,0.5,0.3,0.7s0.1,0.5,0.1,0.8s0,0.4,0,0.5c0,0.2,0,0.4,0.1,0.4s0.2,0.1,0.4,0c0,0,0.1,0,0.1-0.1
	s0.1,0,0.1-0.1C241,33.6,240.9,34,240.8,34.3z M97.2,26c-0.1,0-0.3-0.1-0.5-0.2c-0.2-0.1-0.6-0.2-0.9-0.3c-0.4-0.1-0.9-0.2-1.4-0.3
	c-0.6-0.1-1.2-0.1-1.9-0.1c0.2-0.9,0.3-1.6,0.3-2.1c0-0.6,0-0.9-0.1-1c-0.1-0.1-0.2-0.2-0.4-0.2c-0.2,0-0.4,0-0.6,0
	s-0.4,0.1-0.6,0.1s-0.3,0.1-0.3,0.2c-0.2,0.2-0.4,0.7-0.6,1.3c-0.2,0.6-0.4,1.3-0.6,2.1c-0.3,0.1-0.6,0.1-0.9,0.1
	c-0.3,0-0.6,0.1-0.9,0.1c-0.4,0-0.8,0-1.2,0s-0.7-0.1-1-0.1c-0.1,0-0.2,0-0.3,0.1s-0.2,0.2-0.3,0.3c-0.1,0.1-0.1,0.3-0.2,0.4
	c0,0.1,0,0.2,0.2,0.3c0.2,0.1,0.6,0.2,1.1,0.4s1,0.2,1.5,0.2c0.2,0,0.5,0,0.8-0.1c0.3,0,0.6-0.1,0.9-0.1c-0.2,1-0.5,2-0.7,3.1
	c-0.2,1.1-0.4,2-0.6,3c0,0.2-0.1,0.4-0.1,0.6c-0.1,0.1-0.1,0.1-0.2,0.2c-0.1,0.1-0.3,0.3-0.5,0.6s-0.5,0.6-0.7,0.9
	c-0.3,0.3-0.6,0.7-1,1.1c-0.4,0.4-0.7,0.7-1.1,1c-0.4,0.3-0.8,0.6-1.2,0.8s-0.8,0.3-1.2,0.3c-0.1,0-0.1,0-0.2,0s0,0,0,0s0,0,0,0
	c0,0-0.1,0-0.1,0c0.3-0.4,0.6-0.8,0.9-1.3c0.3-0.5,0.5-1,0.8-1.4c0.2-0.5,0.4-1,0.5-1.4s0.2-0.9,0.2-1.3c0-0.4,0-0.8,0-1.2
	c0-0.4-0.1-0.8-0.3-1.1c-0.1-0.3-0.3-0.6-0.6-0.8c-0.2-0.2-0.6-0.3-1-0.3c-0.3,0-0.6,0.1-0.9,0.2c-0.3,0.1-0.6,0.3-0.9,0.5
	c-0.3,0.2-0.6,0.4-0.9,0.7c-0.3,0.3-0.6,0.5-0.8,0.8c0-0.1,0-0.1,0-0.2c0-0.1,0-0.1,0-0.2c0.1-0.6,0.1-1,0-1.2
	c-0.1-0.3-0.4-0.4-0.9-0.4c-0.2,0-0.4,0-0.6,0.1c-0.2,0-0.4,0.1-0.6,0.2c-0.2,0.1-0.4,0.2-0.6,0.4c0.3,0.3,0.4,0.6,0.4,1
	c0,0.4-0.1,0.9-0.3,1.6c-0.1,0.3-0.1,0.6-0.2,0.9c-0.3,0.4-0.7,0.9-1.2,1.4c-0.5,0.6-1.1,1.1-1.7,1.6c-0.6,0.5-1.2,1-1.8,1.3
	c-0.6,0.4-1.2,0.5-1.8,0.5c-0.3,0-0.5,0-0.8-0.1c-0.3-0.1-0.5-0.2-0.7-0.4s-0.4-0.4-0.5-0.7c-0.1-0.3-0.2-0.6-0.2-1.1
	c0.3-0.2,0.5-0.4,0.9-0.6c0.3-0.2,0.7-0.5,1.1-0.7c0.3-0.2,0.7-0.5,1.1-0.8s0.7-0.6,1.1-1c0.3-0.4,0.6-0.8,0.9-1.2
	c0.2-0.4,0.4-0.9,0.4-1.4c0-0.5-0.1-0.9-0.4-1.2c-0.3-0.3-0.8-0.5-1.4-0.5c-0.7,0-1.4,0.2-2,0.6c-0.7,0.4-1.3,1-1.8,1.6
	s-1,1.3-1.3,2.1c-0.4,0.8-0.6,1.5-0.6,2.2c0,0.2,0,0.4,0,0.6c-0.2,0.3-0.5,0.5-0.7,0.7c-0.5,0.5-1.1,0.9-1.8,1.3
	c0-0.4-0.1-0.8-0.2-1.2s-0.4-0.6-0.8-0.6c-0.3,0-0.6,0-0.9,0.1c-0.3,0.1-0.6,0.2-0.9,0.3c0.2-0.3,0.4-0.5,0.7-0.9
	c0.2-0.3,0.5-0.7,0.8-1.1c0.7-1,1.2-2,1.5-2.8c0.3-0.8,0.6-1.4,0.7-1.7c0.1-0.3,0-0.6-0.2-0.7c-0.2-0.2-0.7-0.3-1.5-0.3
	c-0.4,0-0.8,0-1.3,0c-0.5,0-0.9,0.1-1.4,0.1c-0.4,0.1-0.8,0.1-1.2,0.2c-0.3,0.1-0.6,0.1-0.7,0.1c-0.1,0-0.2,0.1-0.4,0.1
	c-0.1,0.1-0.3,0.1-0.4,0.2c-0.1,0.1-0.2,0.2-0.3,0.4S56,31,56,31.3c0,0.2,0,0.4,0,0.5c0,0.1,0,0.3,0.1,0.4c0,0.1,0.1,0.2,0.2,0.2
	c0.5-0.2,0.9-0.4,1.4-0.6s0.8-0.2,1.2-0.3c0.4-0.1,0.8-0.2,1.1-0.2c0.6-0.1,1.1-0.1,1.5,0c-0.1,0.3-0.2,0.7-0.4,1s-0.4,0.7-0.6,1
	c-0.2,0.3-0.4,0.6-0.6,0.9c-0.2,0.3-0.4,0.5-0.5,0.7c-0.4,0.6-0.9,1.2-1.4,1.6c-0.5,0.4-0.8,0.7-1.1,0.9c-0.2,0.2-0.4,0.4-0.4,0.7
	s0.1,0.6,0.2,0.9c0.1,0.1,0.2,0.2,0.3,0.3c0.1,0.1,0.2,0.2,0.3,0.2s0.3,0.1,0.4,0.1c0.6-0.6,1.1-1,1.5-1.3c0.4-0.3,0.8-0.4,1.1-0.4
	c0.2,0,0.4,0.1,0.5,0.3c0.1,0.2,0.1,0.6,0,1.1c-0.3,0.2-0.7,0.3-1,0.5c-0.4,0.2-0.8,0.4-1.2,0.5c-0.9,0.4-1.7,0.9-2.4,1.6
	c-0.7,0.6-1.4,1.3-1.9,2c-0.5,0.7-0.9,1.4-1.2,2c-0.3,0.7-0.4,1.3-0.5,1.8c0,0.4,0,0.8,0,1.2c0,0.4,0.1,0.8,0.3,1.1s0.5,0.6,0.8,0.9
	s0.9,0.3,1.5,0.3s1.3-0.2,1.9-0.7c0.6-0.4,1.1-1,1.6-1.8c0.5-0.7,1-1.5,1.4-2.4s0.8-1.7,1.1-2.6s0.5-1.6,0.7-2.3
	c0.2-0.7,0.3-1.3,0.4-1.7c0.5-0.3,1-0.7,1.5-1.1c0.5-0.4,0.9-0.8,1.2-1.1c0,0.1,0,0.2,0.1,0.4c0.2,0.6,0.5,1.1,0.9,1.4
	s0.7,0.6,1.2,0.8s0.8,0.3,1.2,0.3c0.7,0,1.4-0.2,2.2-0.5c0.8-0.3,1.5-0.8,2.2-1.3c0.7-0.5,1.4-1.2,2-1.9c0.2-0.2,0.4-0.5,0.6-0.7
	c-0.1,0.3-0.1,0.6-0.2,0.9c-0.2,0.7-0.3,1.4-0.5,2c-0.2,0.7-0.4,1.6-0.7,2.6c-0.2,0.9-0.5,2-0.9,3.4s-0.7,2.9-1.2,4.7
	c0.1,0.2,0.2,0.3,0.3,0.5s0.2,0.2,0.3,0.3c0.1,0.1,0.2,0.2,0.4,0.2c0.3,0.1,0.6,0.2,0.9,0.1c0.3-0.1,0.4-0.3,0.5-0.8
	c0.3-1.7,0.6-3.2,0.8-4.5c0.3-1.3,0.5-2.4,0.7-3.3c0.2-1.1,0.4-2,0.6-2.8c0-0.1,0-0.2,0-0.2c0-0.1,0-0.1,0-0.2
	c0.1,0.2,0.1,0.4,0.2,0.6c0.1,0.2,0.2,0.4,0.3,0.5c0.1,0.2,0.3,0.3,0.5,0.4c0.2,0.1,0.5,0.1,0.7,0.1c0.3,0,0.6-0.1,0.9-0.2
	c0.3-0.1,0.6-0.3,0.9-0.5c0.1,0.1,0.2,0.1,0.3,0.1c0.1,0,0.2,0.1,0.3,0.1c0.1,0,0.2,0.1,0.3,0.1c0.1,0,0.3,0,0.5,0
	c0.5,0,0.9-0.1,1.4-0.4s1-0.6,1.4-0.9s0.9-0.8,1.3-1.2c0.4-0.5,0.8-0.9,1.1-1.3c0.2-0.3,0.4-0.5,0.5-0.7c0,0,0,0,0,0
	c-0.1,0.7-0.2,1.2-0.2,1.5c0,0.3,0,0.7,0.1,1.1c0.1,0.4,0.2,0.7,0.4,1.1c0.2,0.3,0.5,0.6,0.9,0.8c0.4,0.2,0.8,0.3,1.4,0.3
	c0.4,0,0.9-0.2,1.4-0.6c0.6-0.4,1.2-1,1.8-1.6s1.2-1.3,1.7-2.1c0.5-0.7,1-1.4,1.3-2.1c0.1-0.2,0.1-0.4,0.1-0.5c0-0.1,0-0.2-0.1-0.3
	c-0.1-0.1-0.2-0.1-0.3,0c-0.1,0-0.2,0.1-0.3,0.2c-0.1,0.1-0.3,0.4-0.5,0.7s-0.6,0.7-0.9,1.1c-0.3,0.4-0.7,0.8-1.1,1.2
	c-0.4,0.4-0.8,0.8-1.2,1.2c-0.4,0.4-0.8,0.6-1.1,0.9c-0.4,0.2-0.7,0.3-0.9,0.3c-0.3,0-0.6-0.1-0.8-0.3c-0.2-0.2-0.3-0.4-0.5-0.8
	s-0.1-0.9,0-1.7c0.4-1,0.8-2,1.2-2.9s0.7-1.7,0.9-2.4c0.3-0.8,0.5-1.5,0.8-2.2c0.1-0.3,0.2-0.6,0.2-0.8c0.1-0.3,0.1-0.5,0.2-0.8
	c0.1,0,0.3,0,0.4,0s0.2,0,0.3,0c0.5,0,1,0,1.4,0.1s0.8,0.1,1.1,0.1c0.3,0,0.5,0.1,0.8,0.1c0.2,0.1,0.4,0.1,0.6,0.1
	c0.2,0,0.3,0,0.5-0.1c0.1-0.1,0.2-0.2,0.3-0.4c0.1-0.1,0.1-0.3,0.1-0.4C97.4,26.1,97.3,26,97.2,26z M67.7,33.1
	c0.2-0.5,0.5-1,0.8-1.4c0.3-0.4,0.5-0.7,0.8-0.9s0.5-0.3,0.7-0.3c0.2,0,0.3,0.1,0.4,0.2s0.1,0.4,0.1,0.7c0,0.3-0.2,0.7-0.5,1.1
	c-0.3,0.4-0.8,0.9-1.5,1.5c-0.2,0.2-0.5,0.4-0.7,0.5c-0.2,0.2-0.5,0.3-0.7,0.5C67.3,34.3,67.5,33.7,67.7,33.1z M60.3,40.8
	c0,0.1-0.1,0.2-0.1,0.4c-0.2,0.7-0.6,1.4-0.9,2.3c-0.4,0.9-0.8,1.8-1.3,2.6c-0.4,0.8-0.9,1.5-1.4,2.1c-0.5,0.6-0.9,0.9-1.3,0.9
	c-0.4,0-0.6-0.1-0.8-0.4c-0.1-0.3-0.2-0.6-0.2-1c0-0.7,0.2-1.3,0.5-2s0.7-1.3,1.3-1.9s1.2-1.2,1.9-1.7c0.7-0.5,1.5-1.1,2.4-1.6
	C60.4,40.6,60.4,40.7,60.3,40.8z M80.4,36.8c-0.3,0.4-0.5,0.7-0.8,1c-0.4-0.2-0.8-0.4-1-0.6c-0.3-0.2-0.5-0.3-0.7-0.3
	c-0.2,0-0.3,0-0.5,0.1c-0.2,0.1-0.3,0.1-0.5,0.2c0.1-0.5,0.2-1,0.3-1.4c0.1-0.4,0.2-0.7,0.3-1c0.6-1,1.3-1.8,1.9-2.4
	c0.6-0.6,1.2-0.9,1.7-0.9c0.4,0,0.6,0.1,0.8,0.4s0.2,0.7,0.2,1.2c0,0.4-0.1,0.8-0.3,1.2c-0.2,0.4-0.4,0.8-0.6,1.2
	S80.7,36.4,80.4,36.8z M55.2,34.5c0.1-0.2,0.2-0.4,0.2-0.5s0-0.2-0.1-0.3s-0.2-0.1-0.3-0.1s-0.2,0.1-0.4,0.2
	c-0.3,0.4-0.8,0.9-1.3,1.4c-0.5,0.6-1.1,1.1-1.7,1.6c-0.6,0.5-1.2,1-1.8,1.3c-0.6,0.4-1.2,0.5-1.8,0.5c-0.3,0-0.5,0-0.8-0.1
	c-0.3-0.1-0.5-0.2-0.7-0.4s-0.4-0.4-0.5-0.7c-0.1-0.3-0.2-0.6-0.2-1.1c0.3-0.2,0.5-0.4,0.9-0.6c0.3-0.2,0.7-0.5,1.1-0.7
	c0.3-0.2,0.7-0.5,1.1-0.8s0.7-0.6,1.1-1c0.3-0.4,0.6-0.8,0.9-1.2c0.2-0.4,0.4-0.9,0.4-1.4c0-0.5-0.1-0.9-0.4-1.2
	c-0.3-0.3-0.8-0.5-1.4-0.5c-0.7,0-1.4,0.2-2,0.6c-0.7,0.4-1.3,1-1.8,1.6s-1,1.3-1.3,2.1c-0.4,0.8-0.6,1.5-0.6,2.2
	c-0.1,0.8,0,1.6,0.2,2.2s0.5,1.1,0.9,1.4s0.7,0.6,1.2,0.8s0.8,0.3,1.2,0.3c0.7,0,1.4-0.2,2.2-0.5c0.8-0.3,1.5-0.8,2.2-1.3
	c0.7-0.5,1.4-1.2,2-1.9C54.1,35.9,54.7,35.2,55.2,34.5z M46.4,33.1c0.2-0.5,0.5-1,0.8-1.4c0.3-0.4,0.5-0.7,0.8-0.9s0.5-0.3,0.7-0.3
	c0.2,0,0.3,0.1,0.4,0.2s0.1,0.4,0.1,0.7c0,0.3-0.2,0.7-0.5,1.1c-0.3,0.4-0.8,0.9-1.5,1.5c-0.2,0.2-0.5,0.4-0.7,0.5
	c-0.2,0.2-0.5,0.3-0.7,0.5C46,34.3,46.1,33.7,46.4,33.1z M212.7,22.6c0-0.3,0-0.4-0.1-0.5c0-0.1-0.1-0.1-0.2-0.2s-0.2,0-0.4,0
	c-0.2,0-0.3,0-0.5,0.1s-0.4,0.1-0.6,0.1c-0.2,0-0.3,0.1-0.5,0.1s-0.3,0.1-0.4,0.2c0.1,0.2,0.1,0.5,0.1,0.8s0,0.6-0.1,0.8
	c0,0.3-0.1,0.6-0.1,0.9c-0.1,0.5-0.3,1.3-0.6,2.5c-0.2,1-0.6,2.4-1,4.3c-0.2,0.7-0.3,1.5-0.5,2.3c-0.2,0.3-0.5,0.6-0.8,1.1
	c-0.4,0.5-0.9,1.1-1.3,1.6s-0.9,1-1.4,1.3s-0.9,0.6-1.2,0.6s-0.5-0.1-0.5-0.4s0-0.6,0.1-1c0.2-0.6,0.3-1.1,0.5-1.6s0.2-0.9,0.3-1.3
	l0.3-1.1c0.2-0.5,0.2-1,0.2-1.5s-0.1-0.9-0.3-1.2s-0.3-0.6-0.6-0.8s-0.5-0.3-0.9-0.3c-0.4,0-0.8,0.1-1.1,0.2s-0.7,0.4-1.1,0.6
	s-0.6,0.5-0.9,0.9s-0.5,0.6-0.7,0.9c0.1-0.3,0.2-0.6,0.3-0.8c0.1-0.2,0.1-0.5,0.2-0.7s0.1-0.4,0.2-0.5c-0.1-0.1-0.2-0.1-0.3-0.2
	s-0.2-0.1-0.4-0.1c-0.1,0-0.3,0-0.4,0c-0.2,0-0.3,0.1-0.4,0.1c-0.1,0-0.3,0.1-0.4,0.1s-0.2,0.1-0.4,0.2c-0.2,0.6-0.3,1.2-0.4,1.8
	c-0.1,0.3-0.1,0.5-0.2,0.8c-0.3,0.2-0.5,0.4-0.8,0.6c-0.3,0.2-0.6,0.3-1,0.4s-0.8,0.2-1.2,0.2c-0.5,0-0.9-0.1-1.2-0.2
	c0.3-0.8,0.4-1.6,0.6-2.3s0.2-1.1,0.2-1.4c0-0.4-0.2-0.6-0.6-0.6c-0.2,0-0.5,0.1-0.8,0.2s-0.5,0.3-0.8,0.5s-0.4,0.6-0.6,0.9
	s-0.2,0.8-0.2,1.3c0,0.2,0,0.4,0.1,0.6s0.1,0.4,0.1,0.5c-0.1,0.4-0.2,0.9-0.4,1.5s-0.4,1.1-0.6,1.6s-0.5,0.9-0.8,1.3s-0.7,0.5-1,0.5
	c-0.3,0-0.5-0.1-0.7-0.3s-0.3-0.4-0.5-0.7s-0.2-0.6-0.3-1s-0.1-0.7-0.2-1c0-0.1,0.1-0.1,0.1-0.2c0.5-1.2,1-2.3,1.4-3.3
	s0.6-1.8,0.6-2.3c0-0.2-0.1-0.4-0.2-0.5s-0.3-0.2-0.5-0.2c-0.5,0-0.9,0.2-1.2,0.5s-0.6,0.7-0.7,1.2s-0.3,1.1-0.4,1.8
	s-0.1,1.4-0.1,2.2v0.3c0,0.1,0,0.2,0,0.3c-0.5,1.1-1,1.9-1.5,2.4s-1,0.7-1.4,0.7c-0.4,0-0.6-0.1-0.8-0.4s-0.3-0.6-0.3-1.2
	c0-0.4,0.1-1,0.2-1.7s0.3-1.3,0.5-2s0.4-1.3,0.5-1.9s0.3-1,0.4-1.3c0.1-0.2,0.1-0.4,0.1-0.5s-0.1-0.2-0.3-0.2c-0.4,0-0.8,0-1.2,0.2
	s-0.7,0.3-0.8,0.5c-0.1,0.1-0.2,0.4-0.3,0.8c-0.1,0.4-0.2,0.8-0.3,1.2c-0.3,0.2-0.5,0.4-0.8,0.6c-0.4,0.2-0.8,0.5-1.2,0.7
	s-0.8,0.4-1.2,0.6c0-0.1,0-0.3,0.1-0.5s0-0.4,0-0.5c0-0.7-0.1-1.2-0.3-1.7s-0.5-0.9-0.8-1.2s-0.6-0.5-1-0.7s-0.6-0.2-0.8-0.3
	c-0.1,0-0.1,0-0.1-0.1s-0.1,0-0.1,0c-0.3,0-0.6,0-0.9,0.1s-0.6,0.2-0.9,0.3s-0.5,0.3-0.7,0.5s-0.4,0.5-0.5,0.8
	c-0.3,0.3-0.5,0.7-0.7,1.1s-0.4,0.8-0.5,1.2s-0.2,0.8-0.3,1.2s-0.1,0.7-0.1,1.1c0,0.5,0,0.9,0.1,1.5s0.2,1,0.4,1.4s0.5,0.8,0.9,1.1
	s0.9,0.4,1.6,0.4c0.6,0,1.1-0.1,1.6-0.3s0.9-0.5,1.3-1s0.7-0.9,1-1.4s0.5-1.2,0.7-1.8c0.5-0.2,1-0.4,1.6-0.8s1.1-0.7,1.5-1
	c0,0,0.1,0,0.1-0.1c0,0.2-0.1,0.4-0.1,0.7c-0.1,0.7-0.2,1.3-0.2,1.9v0.3c0,0.5,0,1,0.1,1.4s0.2,0.8,0.4,1.1s0.4,0.6,0.7,0.8
	s0.7,0.3,1.1,0.3c0.3,0,0.6-0.1,1-0.3s0.6-0.4,0.9-0.7s0.6-0.6,0.9-0.9s0.5-0.7,0.8-1.1c0.2,0.8,0.4,1.4,0.8,2s1,0.8,1.8,0.8
	c0.5,0,0.9-0.1,1.4-0.4s0.8-0.6,1.2-1.1s0.7-1,1-1.5s0.6-1.2,0.8-1.8c0.1,0,0.2,0.1,0.4,0.1s0.2,0,0.3,0c0.6,0,1.2-0.1,1.8-0.3
	s1.1-0.4,1.5-0.7c0.2-0.1,0.3-0.2,0.5-0.3c-0.1,0.2-0.1,0.5-0.2,0.7c-0.1,0.5-0.2,1-0.4,1.5s-0.3,1.1-0.4,1.5s-0.2,0.9-0.3,1.3
	s-0.1,0.6-0.2,0.7c0,0.2,0.1,0.2,0.3,0.2s0.5-0.1,0.7-0.2s0.6-0.2,0.8-0.4s0.4-0.3,0.5-0.5c0.1-0.2,0.1-0.5,0.2-0.7s0.1-0.6,0.2-0.9
	s0.2-0.7,0.3-1.2s0.2-0.9,0.4-1.5c0.3-0.4,0.6-0.8,0.9-1.2s0.6-0.7,0.9-1.1s0.6-0.5,0.9-0.7s0.6-0.3,0.8-0.3c0.2,0,0.4,0.1,0.4,0.4
	s0.1,0.6,0.1,0.9s-0.1,0.8-0.2,1.3s-0.2,0.9-0.4,1.4s-0.2,0.9-0.4,1.3s-0.2,0.7-0.3,1c-0.1,0.4-0.1,0.7-0.1,1s0.2,0.6,0.3,0.8
	s0.4,0.4,0.7,0.6s0.6,0.2,1,0.2c0.4,0,0.8-0.1,1.2-0.3s0.8-0.5,1.3-0.9s0.8-0.8,1.2-1.2c0.4-0.4,0.7-0.9,1.1-1.3
	c-0.2,0.9-0.4,1.8-0.6,2.7c0.1,0.2,0.1,0.3,0.2,0.4s0.2,0.2,0.3,0.3c0.1,0.1,0.2,0.1,0.4,0.2c0.1,0,0.3,0,0.4,0c0.1,0,0.2,0,0.3-0.1
	s0.2-0.1,0.3-0.2c0.8-3.1,1.4-5.6,1.9-7.6s0.9-3.6,1.2-4.8c0.4-1.4,0.6-2.4,0.8-3.1c0.1-0.4,0.2-0.7,0.2-1
	C212.6,23.2,212.7,22.9,212.7,22.6z M172.8,37.2c-0.2,0.3-0.3,0.6-0.5,0.8s-0.4,0.4-0.7,0.6s-0.5,0.2-0.8,0.2
	c-0.3,0-0.5-0.1-0.7-0.2s-0.3-0.3-0.4-0.6s-0.2-0.5-0.2-0.8s-0.1-0.6-0.1-0.9s0-0.6,0.1-1s0.2-0.7,0.3-1c0.3,0.6,0.6,1.1,1.1,1.5
	s1,0.6,1.7,0.6c0.1,0,0.3,0,0.4,0s0.2,0,0.3,0C173.1,36.6,172.9,36.9,172.8,37.2z M173.8,33.7c0,0.1,0,0.3-0.1,0.5s-0.1,0.4-0.1,0.6
	c-0.1,0-0.2,0-0.3,0s-0.2,0-0.3,0c-0.5,0-0.9-0.1-1.2-0.2s-0.5-0.4-0.6-0.6s-0.2-0.5-0.3-0.8s-0.1-0.6-0.1-0.9c0-0.2,0-0.3,0.1-0.5
	c0.3-0.3,0.5-0.6,0.8-0.7s0.6-0.3,0.9-0.3c0.2,0,0.4,0.1,0.5,0.3s0.3,0.4,0.4,0.7s0.2,0.6,0.2,0.9S173.9,33.4,173.8,33.7z
	 M145.7,33.3c-0.1,0-0.2,0.1-0.3,0.2c-0.3,0.4-0.6,0.8-1.1,1.4s-0.9,1.2-1.4,1.7s-1,1-1.5,1.4s-1,0.6-1.4,0.6
	c-0.5,0-0.7-0.4-0.5-1.3l0.9-3.4c0.1-0.5,0.2-0.9,0.2-1.4s0-0.9-0.1-1.4s-0.3-0.8-0.5-1s-0.6-0.4-1.1-0.4c-0.4,0-0.8,0.1-1.2,0.3
	s-0.8,0.4-1.1,0.7s-0.7,0.6-1,1s-0.6,0.7-0.9,1.1c0.1-0.4,0.1-0.8,0.1-1.2s-0.1-0.7-0.2-1s-0.3-0.5-0.5-0.7s-0.4-0.3-0.7-0.3
	c-0.4,0-0.7,0.1-1.1,0.3s-0.8,0.4-1.1,0.7s-0.7,0.6-1.1,1s-0.7,0.7-1,1.2c0.1-0.5,0.2-0.9,0.3-1.2c0.2-0.9,0-1.4-0.5-1.4
	c-0.1,0-0.3,0-0.4,0.1c-0.1,0-0.3,0.1-0.5,0.2c-0.2,0.1-0.5,0.2-0.8,0.3c0,0.1,0,0.3,0,0.4s0,0.4-0.1,0.5c0,0.2-0.1,0.4-0.1,0.6
	l-0.3,1.4c-0.1,0.1-0.1,0.1-0.2,0.2c-0.2,0.3-0.4,0.6-0.7,1s-0.6,0.8-1,1.2s-0.7,0.8-1,1.1s-0.7,0.6-1,0.9s-0.6,0.3-0.8,0.3
	c-0.1,0-0.3,0-0.4-0.1s-0.2-0.2-0.3-0.3s-0.1-0.4-0.2-0.7s-0.1-0.7-0.1-1.2c0.1-0.1,0.2-0.2,0.3-0.4s0.2-0.3,0.3-0.6
	s0.2-0.5,0.3-0.8s0.2-0.7,0.3-1.2c0.2-0.6,0.3-1.1,0.3-1.7s0.1-0.9,0.1-1.2c0-0.2-0.1-0.3-0.3-0.3c-0.1,0-0.1,0-0.2,0s-0.2,0-0.3,0
	c-0.3,0-0.6,0.1-0.7,0.2s-0.3,0.3-0.5,0.7c-0.1,0.2-0.2,0.5-0.4,0.8s-0.3,0.8-0.4,1.2s-0.2,0.9-0.3,1.4s-0.1,1-0.1,1.6
	c0,0.3,0,0.6,0.1,0.8c-0.3,0.5-0.7,1-1.1,1.3s-0.8,0.5-1.3,0.5c-0.7,0-1.1-0.2-1.3-0.6s-0.3-1-0.2-1.7c0-0.3,0.1-0.8,0.3-1.3
	c0.1-0.5,0.3-1.1,0.6-1.9s0.6-1.8,1.1-2.9c-0.1-0.1-0.3-0.1-0.4-0.1s-0.3,0-0.5,0c-0.2,0-0.4,0.1-0.5,0.1c-0.4,0.1-0.8,0.4-1,0.7
	s-0.4,0.8-0.6,1.3c0,0.1-0.1,0.3-0.2,0.6s-0.2,0.7-0.3,1.2s-0.2,1-0.3,1.6c0,0.2,0,0.4-0.1,0.5c-0.3,0.3-0.6,0.6-0.9,0.9
	c-0.5,0.5-1.1,0.9-1.8,1.3c0-0.4-0.1-0.8-0.2-1.2s-0.4-0.6-0.8-0.6c-0.3,0-0.6,0-0.9,0.1s-0.6,0.2-0.9,0.3c0.2-0.3,0.4-0.5,0.7-0.9
	s0.5-0.7,0.8-1.1c0.7-1,1.2-2,1.5-2.8s0.6-1.4,0.7-1.7c0.1-0.3,0-0.6-0.2-0.7s-0.7-0.3-1.5-0.3c-0.4,0-0.8,0-1.3,0s-0.9,0.1-1.4,0.1
	s-0.8,0.1-1.2,0.2s-0.6,0.1-0.7,0.1c-0.1,0-0.2,0.1-0.4,0.1c-0.1,0.1-0.3,0.1-0.4,0.2c-0.1,0.1-0.2,0.2-0.3,0.4s-0.1,0.4-0.1,0.6
	c0,0.2,0,0.4,0,0.5c0,0.1,0,0.3,0.1,0.4c0,0.1,0.1,0.2,0.2,0.2c0.5-0.2,0.9-0.4,1.4-0.6s0.8-0.2,1.2-0.3c0.4-0.1,0.8-0.2,1.1-0.2
	c0.6-0.1,1.1-0.1,1.5,0c-0.1,0.3-0.2,0.7-0.4,1s-0.4,0.7-0.6,1s-0.4,0.6-0.6,0.9s-0.4,0.5-0.5,0.7c-0.4,0.6-0.9,1.2-1.4,1.6
	s-0.8,0.7-1.1,0.9c-0.2,0.2-0.4,0.4-0.4,0.7s0.1,0.6,0.2,0.9c0.1,0.1,0.2,0.2,0.3,0.3c0.1,0.1,0.2,0.2,0.3,0.2s0.3,0.1,0.4,0.1
	c0.6-0.6,1.1-1,1.5-1.3s0.8-0.4,1.1-0.4c0.2,0,0.4,0.1,0.5,0.3s0.1,0.6,0,1.1c-0.3,0.2-0.7,0.3-1,0.5s-0.8,0.4-1.2,0.5
	c-0.9,0.4-1.7,0.9-2.4,1.6c-0.7,0.6-1.4,1.3-1.9,2c-0.5,0.7-0.9,1.4-1.2,2c-0.3,0.7-0.4,1.3-0.5,1.8c0,0.4,0,0.8,0,1.2
	c0,0.4,0.1,0.8,0.3,1.1s0.5,0.6,0.8,0.9s0.9,0.3,1.5,0.3s1.3-0.2,1.9-0.7s1.1-1,1.6-1.8s1-1.5,1.4-2.4s0.8-1.7,1.1-2.6
	s0.5-1.6,0.7-2.3s0.3-1.3,0.4-1.7c0.5-0.3,1-0.7,1.5-1.1c0.5-0.4,0.9-0.8,1.2-1.1c0,0.2,0.1,0.4,0.1,0.7c0.1,0.3,0.3,0.7,0.5,1
	s0.5,0.5,1,0.7s0.9,0.3,1.6,0.3s1.2-0.2,1.8-0.5s1-0.8,1.4-1.4c0.2,0.6,0.4,1,0.7,1.4s0.6,0.5,1.1,0.5c0.5,0,1-0.2,1.6-0.6
	s1.1-0.9,1.7-1.5c0.5-0.6,1-1.2,1.5-1.8l-0.7,2.9c-0.1,0.4-0.1,0.7-0.1,0.8s0.1,0.3,0.2,0.4s0.2,0.1,0.4,0.1s0.2,0,0.3-0.1l1.3-0.6
	c0-0.1,0.1-0.2,0.1-0.4s0-0.3,0.1-0.4c0-0.1,0.1-0.3,0.1-0.4v0.1c0.3-1.4,0.7-2.5,1.1-3.4s0.9-1.6,1.3-2s0.8-0.8,1.2-1
	s0.6-0.3,0.8-0.3c0.2,0,0.4,0.1,0.5,0.2s0.2,0.3,0.2,0.7c0,0.5-0.1,1-0.2,1.6s-0.3,1.2-0.4,1.9s-0.3,1.2-0.5,1.7s-0.3,0.9-0.4,1.1
	c-0.1,0.5-0.2,0.8-0.1,0.9s0.3,0.2,0.7,0.2c0.1,0,0.3,0,0.4-0.1c0.3-0.1,0.6-0.2,0.9-0.3c0.3-1.5,0.6-2.8,1.1-3.8s0.9-1.8,1.4-2.4
	s0.9-1,1.3-1.2s0.7-0.4,0.8-0.4c0.3,0,0.5,0.1,0.6,0.4s0.1,0.6,0,1c-0.1,0.4-0.2,0.8-0.3,1.2s-0.2,0.9-0.4,1.4s-0.2,1-0.3,1.4
	s-0.1,0.9-0.1,1.2s0.1,0.6,0.2,0.9s0.3,0.4,0.5,0.5s0.4,0.2,0.6,0.3s0.5,0.1,0.7,0.1c0.7,0,1.4-0.2,2.1-0.6s1.3-0.9,1.9-1.6
	s1.1-1.3,1.6-2s0.9-1.4,1.2-2c0.1-0.2,0.1-0.4,0.1-0.5s-0.1-0.2-0.1-0.3S145.8,33.3,145.7,33.3z M108.5,40.8c0,0.1-0.1,0.2-0.1,0.4
	c-0.2,0.7-0.5,1.4-0.9,2.3s-0.8,1.8-1.3,2.6s-0.9,1.5-1.4,2.1s-0.9,0.9-1.3,0.9c-0.4,0-0.6-0.1-0.8-0.4c-0.1-0.3-0.2-0.6-0.2-1
	c0-0.7,0.2-1.3,0.5-2s0.7-1.3,1.3-1.9s1.2-1.2,1.9-1.7c0.7-0.5,1.5-1.1,2.4-1.6C108.6,40.6,108.6,40.7,108.5,40.8z"/>
</svg>
