<?xml version="1.0" encoding="utf-8"?>
<!-- Generator: Adobe Illustrator 18.0.0, SVG Export Plug-In . SVG Version: 6.00 Build 0)  -->
<!DOCTYPE svg PUBLIC "-//W3C//DTD SVG 1.1//EN" "http://www.w3.org/Graphics/SVG/1.1/DTD/svg11.dtd">
<svg version="1.1" id="Ebene_1" xmlns="http://www.w3.org/2000/svg" xmlns:xlink="http://www.w3.org/1999/xlink" x="0px" y="0px"
	 width="35.6px" height="36.9px" viewBox="0 0 35.6 36.9" enable-background="new 0 0 35.6 36.9" xml:space="preserve">
<path fill="#A59164" d="M8.9,25.1h17.9V11.8H8.9V25.1z M10.4,23.6l4.9-4.9l2.5,1.9l2.5-1.9l4.9,4.9H10.4z M25.2,21.5l-3.7-3.7
	l3.7-2.9V21.5z M24.7,13.4l-6.9,5.3l-6.9-5.3H24.7z M10.4,14.9l3.7,2.8l-3.7,3.7V14.9z M33.2,0.3c-0.2-0.1-0.4-0.1-0.6-0.2
	C32.5,0.1,32.1,0,32,0l-0.2,0l-0.3,0l-0.3,0c-0.5,0-0.9,0-1.4,0c-0.9,0-1.9,0-2.8,0c-3.8,0.1-7.8,0.2-11.8,0.2
	C11.2,0.3,7.1,0.6,3,0.8c-1.4,0-2.7,1.1-2.9,2.4C-0.1,4,0,4.4,0,4.9l0,1.5c0,2,0.1,4.1,0.1,6.1c0.1,4,0.1,8,0.1,11.8
	c0,1.9,0,3.8,0,5.6c0,0.9,0,1.8,0,2.7l0,0.7c0,0.3,0,0.5,0.1,0.8c0.2,0.5,0.5,1,0.9,1.3c0.4,0.3,0.9,0.6,1.5,0.6
	c0.4,0,0.9,0,1.3,0.1c0.9,0,1.7,0.1,2.5,0.2c1.7,0.1,3.2,0.3,4.8,0.4c3.1,0.2,5.9,0.2,8.4,0c2.5-0.2,4.7-0.5,6.4-0.7
	c1.8-0.2,3.2-0.3,4.1-0.3c1,0,1.5,0,1.5,0c0,0,0.6,0.1,1.5-0.5c0.4-0.3,0.8-0.8,1-1.6c0.1-0.7,0.1-1.5,0.1-2.4
	c0.1-1.8,0.2-4,0.4-6.4c0.2-2.5,0.4-5.3,0.6-8.4c0.2-3.1,0.3-6.4,0.3-9.9c0-0.9,0-1.8,0-2.7C35.7,2.4,34.7,0.8,33.2,0.3z M33.8,33.6
	c-0.1,0.6-0.4,1.1-0.8,1.4c-0.7,0.5-1.3,0.4-1.3,0.4c0,0-0.5,0-1.5,0c-1,0-2.4-0.1-4.1-0.3c-1.8-0.2-4-0.5-6.4-0.7
	c-2.5-0.2-5.3-0.2-8.4,0c-1.5,0.1-3.1,0.3-4.8,0.4C5.7,34.9,4.9,35,4.1,35c-0.4,0-0.9,0.1-1.3,0c-0.3,0-0.7-0.2-0.9-0.4
	c-0.3-0.2-0.5-0.5-0.6-0.9c0-0.2-0.1-0.3-0.1-0.5l0-0.7c0-0.9,0-1.8,0-2.7c0-1.8,0-3.7,0-5.6c0-3.8,0.1-7.8,0.1-11.8
	c0-2,0.1-4,0.1-6.1l0-1.5c0-0.5,0-1.1,0.1-1.4C1.7,2.9,2.4,2.4,3,2.4c4.1,0.2,8.2,0.4,12.2,0.5c4,0.1,8,0.2,11.8,0.2
	c1,0,1.9,0,2.8,0c0.5,0,0.9,0,1.4,0l0.3,0l0.1,0l0,0l0.1,0c0.1,0,0,0,0.1,0c0,0,0.1,0,0.1,0c0.3,0.1,0.4,0.3,0.4,0.7
	c0,0.9,0,1.8,0,2.7c0,3.5,0.1,6.8,0.3,9.9c0.2,3.1,0.4,5.9,0.6,8.4c0.2,2.5,0.3,4.7,0.4,6.4C33.8,32.1,33.8,33,33.8,33.6z"/>
</svg>
