<?xml version="1.0" encoding="utf-8"?>
<!-- Generator: Adobe Illustrator 18.0.0, SVG Export Plug-In . SVG Version: 6.00 Build 0)  -->
<!DOCTYPE svg PUBLIC "-//W3C//DTD SVG 1.1//EN" "http://www.w3.org/Graphics/SVG/1.1/DTD/svg11.dtd">
<svg version="1.1" id="Ebene_1" xmlns="http://www.w3.org/2000/svg" xmlns:xlink="http://www.w3.org/1999/xlink" x="0px" y="0px"
	 width="595.4px" height="381.1px" viewBox="0 0 595.4 381.1" enable-background="new 0 0 595.4 381.1" xml:space="preserve">
<path fill="#A59164" d="M595.2,248.5c-1.3-4-2.7-8-7.3-9.4c-0.7-0.2-1.4-0.7-1.7-1.3c-1.1-1.7-2.7-2.2-4.7-2.2c-4.5,0-8.9-1-13-3
	c-3.1-1.5-6-3.3-9.1-4.8c-1.6-0.8-3.4-1.8-5-1.7c-5.6,0.5-11,0.2-16.4-1.5c-2-0.6-3-1.6-3.8-3.4c-1-2.1-2.2-4.2-3.6-6
	c-0.8-1.1-1.2-2.1-1.3-3.5c-0.1-1.7-0.5-3.4-1.1-4.9c-0.3-0.8-1.5-1.2-2.3-1.9c-0.6,1.1-2.3,1-2.3,2.7c0,2.3-2.3,2.7-3.3,3.4v2.6
	c-3,0-2.9,2-3.2,3.9c-0.4-0.4-0.8-0.8-0.9-0.8c-2.1,1.5-3.9,3.7-6.9,3.5c-0.1,0-0.3,0.2-0.4,0.4c-0.9,1.7-1.8,3.5-2.7,5.4
	c-1-1.2-1.8-2.2-2.8-3.3c0.1,1.2,0.2,2.3,0.3,3.3h-4.8c-1,2-1.5,3.8-3.6,5.1c-1-1.1-1.8-2.1-2.8-3.2c-0.3,0.9-0.5,1.5-0.7,2.4
	c-0.7-1.1-1.2-1.9-1.9-2.9c-1.1,2,1,3.2,0.7,5.4c-1.1-1.8-1.8-3-2.7-4.5c-0.3,1.1-0.4,1.7-0.7,2.6c-0.4-0.6-0.7-0.9-0.8-1.3
	c-0.2-0.6-0.3-1.2-0.5-1.8c0.4-0.2,0.7-0.5,1-0.5c7.3-1,13.4-4.2,17.6-10.5c1.8-2.8,5.2-3.2,8-4.6c1.5-0.8,3.6-0.5,5.5-0.7
	c-0.1-3.7,1.8-5.9,4.9-7.4c-2.7-0.8-4,0.7-4.8,2.5c-0.9,2.1-2.7,3.1-4.5,3.3c-4.4,0.5-7.5,3.1-10.2,6.2c-4.5,5.1-10.1,7.4-16.7,7.4
	c-1.1,0-2.5-0.5-3.4-1.3c-3.7-3-5.3-7.2-5.3-11.9c0-3.7,0.2-7.5,0.7-11.2c0.7-5.2,1.9-10.3,4-14.6c2.2-1.1,4-2,5.9-2.7
	c0.6-0.3,1.4-0.4,2.1-0.3c1.7,0.1,3.4,0.4,5.1,0.6c3.5,0.3,6.8,0.5,9.8,3c1.7,1.4,4.3,1.8,6.6,2.1c2.1,0.3,3.6-1.2,3.7-2.8
	c0.1-1.9-1.3-3.9-3.3-4.1c-1.1-0.1-2.2,0.4-3.4,0.6c-1.4-1.7-2.9-3.4-4.3-5.1c0.1-0.2,0.3-0.3,0.4-0.5c6.1,1.2,12.1,2.4,18.7,3.8
	c-3,0.8-5.4,1.4-7.9,2c1.8,1,1.8,1.1,2.9,0.8c2.3-0.6,4.5-1.3,6.8-1.8c2.1-0.5,4.2-0.8,6.2-1.3c1.6-0.4,3.2-1,4.8-1.6
	c0.9-0.3,1.6-1.1,2.5-1.4c9.6-4.1,18.7-9,26.9-15.5c7.1-5.7,13-12.2,15.1-21.3c2.5-10.9-2.2-19.5-13.1-22.5
	c-6.9-1.9-13.5,0-19.1,4.1c-5.4,4-10.2,8.8-15.3,13.2c-2.4,2.1-4.9,4.1-7.3,6.3c-1.4,1.2-2.8,1.9-4.7,1.6c-1.4-0.2-2.4,0.4-3.3,1.5
	c-1.5,2-5.3,3.3-8.1,3c0.7-1.1,1.4-2.2,2.1-3.3c5.3-8,9.2-16.4,9.8-26.1c0.2-3.2-0.6-4.7-3.6-5.9c-1.6-0.6-2.9-0.3-4.1,0.8
	c-1.2,1.2-1.6,2.7-0.9,4.1c1.7,3.3,0.2,6.3-0.6,9.4c-0.3-1.2-0.3-2.3-0.3-3.5c-0.1-2.8-1.6-4.6-4-5.7c-1.3-0.6-4.1,0.1-5.1,1.1
	c-1,1.1-1,2.6-0.2,4.4c0.5,1.2,1.1,2.6,1.1,3.9c0,2.7-0.3,5.4-0.8,8c-0.4,1.9-1,3.9-2.8,5.4c-0.7-4-1.5-7.8-2.1-11.5
	c-0.5-3.5-2.1-4.8-5.7-4.4c-3.2,0.4-4.2,2.8-2.6,5.6c0.8,1.5,1.6,3.3,1.7,5c0.1,2.7-0.3,5.5-0.5,8.3c0,0.5-0.4,0.9-0.5,1.3
	c-0.9-1.9-1.5-3.4-1.2-4.6c0.8-2.8,0.2-5.2-0.7-7.7c-0.6-1.7-1.1-3.2-2.4-4.4c-0.7-0.7-1.3-1.8-1.3-2.7c-0.2-8.2-0.4-16.5-0.4-24.7
	c-0.1-13.2,0-26.3,0-39.5c0-7.3-0.5-14.5-0.2-21.8c0.3-10.2,0.1-20.3-0.5-30.4c-0.1-2.4-0.2-4.8-0.3-7.2h-1.1
	c0.5,10.8,1.1,21.7,0.9,32.6c-0.2,14.9,0,29.8,0,44.7c0,14.5,0.1,28.9,0.1,43.4c0,3.6-0.2,3.9-3.7,4.5c-1.4,0.2-2.4,0.9-2.8,2.3
	c-0.4,1.5-0.6,3.1,0.8,4.2c3.8,3.1,3.1,7.5,4.3,12c-6.5-1.5-11.6-4.2-15.4-9c-2.7-3.5-4.8-7.3-6-11.6c-0.7-2.6-1.7-5.1-2.7-7.6
	c-0.9-2.3-2.5-4.1-4.5-5.7c-1.8-1.4-3.8-2.1-5.7-3.1c-7.5-3.9-14.6-3.4-21,1.9c-4.5,3.7-8.2,8.4-12.3,12.6c-0.4,0.4-0.8,0.8-1.2,1.2
	c-1.3-2.8-2.4-5.5-3.8-8c-1.5-2.7-3.7-4.4-7-4.4c-2.6,0-5.3,0.1-7.9-0.1c-3-0.2-5.2,1.1-7.1,3.1c-1.2,1.2-2.1,2.7-3.1,4.1
	c-1,1.3-2,2.6-3.3,4.3c-1.3-6.4-3.5-11.8-6.2-17c-2.8-5.3-7-8.8-12.9-10.2c-0.5-0.1-1,0.1-1.8,0.2c1.8,1.6,3.6,2.8,4.9,4.5
	c2,2.5,4,5.1,5.2,8c2.5,5.7,4.5,11.6,6.7,17.3c0.3,0.8,0.7,1.6,1.3,2.8c2.2-2.7,4-4.9,5.9-7.1c1.7-2.1,3.3-4.2,5.1-6.2
	c2.5-2.8,5.9-2.7,9.2-2.3c2.3,0.3,2.1,2.7,3.1,4.1c0.5,0.7,0.7,1.6,1,2.4c1.3,3.4,2.7,6.8,4,10.1c0.5,1.3,1.1,2.6,3.1,2.7
	c0.6-0.8,1.2-1.8,1.8-2.8c3.9-6.4,8.8-11.9,14.3-16.8c6-5.3,12.9-6.4,20.3-3c2.5,1.1,4.5,2.5,4,5.7c-0.1,0.5,0.1,1.1,0.2,1.6
	c2,7.8,4.4,15.4,8.6,22.4c1.8,3,4.4,5.3,7.2,7.2c1.6,1.1,2.5,2.3,3.5,4.1c-0.6-0.3-1-0.5-1.3-0.7c-1.8-1.4-3.7-0.7-5.5-0.1
	c-1.4,0.5-2.4,2.4-2.3,3.6c0.2,1.6,1.4,2.5,2.9,2.5c1.6,0,2.4,0.8,3,2c1.4,2.6,2.7,5.3,3.9,7.7c-1.4,2.3-2.6,3.8-5.1,4.1
	c-2.1,0.2-4.3,0.7-6,1.8c-2.8,1.8-5.5,2-8.5,0.8c-1.3-0.5-2.6-0.8-3.9-1.2c-2.2-0.7-4.8,0.2-6.1,2.3c-1.1,1.7-0.9,3.9,0.8,5.6
	c0.9,0.8,2.1,1.3,3.6,2.1c-0.6,4.1,2.1,5.5,5.8,6.2c2.4,0.5,4.7,1.2,7,1.7c0.1,3.5-1.3,6.2-2.9,8.9c-3.6,5.7-7,11.6-8.6,18.2
	c-0.9,3.5-1.5,7.1-2.1,10.7c-1.4,7.8-1.2,15.5,1.3,23.2c-1.5,1.7-3.7,1.4-5.6,1.8c-2.8,0.6-5.6,0.9-8.3,1.9c-2.5,1-4,2.8-4.8,5.3
	c-0.7,2.3,0.1,4.3,2,5.6c0.6,0.4,1.1,0.9,1.5,1.4c1.5,1.8,2.8,3.8,4.6,5.4c6.7,6.2,11.9,13.4,17.1,20.8c1.1,1.5,2.7,2.2,4.1,1.1
	c1.7-1.4,3.1-3.2,4.2-5.1c0.9-1.5-0.4-2.8-1-4.2c-0.6-1.5-1.8-2.9-1.9-4.3c-0.2-2.8-1.5-4.5-3.6-6c-1.8-1.3-3.2-3-3.7-5.7
	c2,0.4,3.6,0.6,5.3,1c3.8,1,7.6,1.2,11.5,0.8c1.3-0.1,2.9-0.3,3.6-1.1c2.1-2.3,4.7-2.3,7.5-2.4c3.2-0.1,6.4-0.7,9.6-1
	c9.5-1.1,17.8-4.4,24-12.1c1.3-1.6,2.7-3,4-4.5c4.3,2.3,8.6,2.1,13,1.4c5.8-1,11.5-1.6,17.4-0.3c7.4,1.7,14.3,4.2,20.4,8.8
	c3.3,2.5,7,4.5,10.9,6.1c4,1.6,8.2,3,12.8,2.6c1-3.5,0.5-6.6-1.8-9.4c-2.6-3.3-7.2-4-10-7.1c-0.4-0.4-1.4-0.3-2.2-0.5
	c-3-0.7-5.3-2.4-7.5-4.4c3.3,0.9,6.6,1.9,9.7,3.1c4.4,1.7,8.7,3.6,13.4,4.3C594.5,251.8,595.9,250.7,595.2,248.5z M513.7,184
	c-1.4-0.3-2.4-0.5-3.4-0.7C511.6,182.1,512.9,181.3,513.7,184z M511.4,184.9c0.3-0.1,0.6,0,1,0.1c0,0.2,0,0.3,0,0.5
	c-0.5,0.1-1.1,0.1-2.3,0.3C510.9,185.3,511.1,185,511.4,184.9z M505.5,180.9c0-0.1,0.2-0.1,0.5-0.4c0.6,0.4,1.3,0.9,2,1.4
	c-0.1,0.2-0.2,0.4-0.4,0.6c-0.7-0.5-1.4-0.9-2-1.4C505.5,181.1,505.5,181,505.5,180.9z M515.7,124.5c-0.2-0.1-0.5-0.2-0.7-0.3
	c0.5-1,0.9-1.9,1.4-2.9c0.2,0.1,0.4,0.2,0.6,0.3C516.6,122.5,516.1,123.5,515.7,124.5z M516,112.5c0.4-0.3,1.4-0.1,2,0.2
	c0.4,0.2,0.8,1.1,0.6,1.6c-0.5,1.7-1.2,3.4-1.9,5c0,0.1-0.4,0-1.2,0.1c0.5-1.1,0.9-1.9,1.2-2.4c-0.8-0.8-1.9-1.4-2-2.2
	C514.6,114.1,515.4,113,516,112.5z M517.2,172.2c-0.7-0.1-1.4-0.2-2.1-0.3c0-0.2,0.1-0.4,0.1-0.7c0.7,0.2,1.4,0.4,2.1,0.5
	C517.3,172,517.2,172.1,517.2,172.2z M527.2,176.9c-1.5-0.6-2.8-0.9-4.5-1.9h8.6C530.2,176,527.8,174.4,527.2,176.9z M537,171.5
	c-0.6-0.2-1.2-0.5-1.9-0.7c0-0.2,0.1-0.4,0.1-0.6c0.4,0.1,0.8,0,1.2,0.2c0.3,0.1,0.6,0.4,0.8,0.6C537.2,171.1,537.1,171.3,537,171.5
	z M536.6,169.4c-1.8-0.7-1.8-2.1-1.2-4.4c1.5,0.5,2.9,1,4.2,1.4C538.6,169,537.7,169.9,536.6,169.4z M562.6,160.3
	c-0.1,0.5-0.8,0.8-1.7,1.7c0.2-4.4,1.5-7.8,2.7-11.2c0.2,0,0.4,0.1,0.7,0.1C563.7,154,563.2,157.2,562.6,160.3z M570.1,154.1
	c0.2-3.4,0.4-6.2,0.6-9c0.3,0,0.6-0.1,1.2-0.1c-0.1,1.1-0.1,2.2-0.2,3.3c0.2,0,0.3,0.1,0.5,0.1c0.5-2.3,1-4.6,1.6-6.9
	c0.2,0,0.4,0.1,0.6,0.1c-0.5,3.1-0.9,6.3-1.6,9.3C572.5,152,571.3,152.8,570.1,154.1z M569.5,137.7c0.1-0.7,0.2-1.4,0.3-2.1
	c0.2,0,0.5,0,0.5,0v2.1C570.2,137.7,569.8,137.7,569.5,137.7z M573.3,131.3c0.2,0.6,0.5,1.2,0.4,1.7c-0.9,4-1.9,8-2.9,12
	c-0.6-2.1-0.3-4.2,0.3-6.3C571.8,136.4,572.2,133.9,573.3,131.3z M571.1,131.4c0.1-1.4,0.2-2.3,0.4-3.6
	C572.9,129.3,572.1,130,571.1,131.4z M573.9,135.2c0.3,0,0.6,0.1,0.8,0.1c-0.2,1.1-0.3,2.2-0.5,3.3c-0.2,0-0.5-0.1-0.7-0.1
	C573,137.3,574,136.3,573.9,135.2z M575,148.2l-0.7-0.2c0.3-1.1,0.6-2.2,0.9-3.4c0.2,0,0.3,0.1,0.5,0.1
	C575.5,146,575.2,147.1,575,148.2z M577.9,142.2c-0.6-3-1-6-1.9-8.7c-1-2.9-2.2-5.8-3.8-8.4c-1.6-2.6-3.8-4.8-5.7-7.1
	C577.8,119.7,583.1,131.5,577.9,142.2z M568.9,133.3c-0.5-1.4-1-2.8-1.6-4.7C569.8,131,569.8,131,568.9,133.3z M559.5,120.4
	c2.9,2.6,5.3,5.6,6.4,9.4c1,3.5,2.1,7,2.6,10.5c0.5,3.9,0.6,7.9,0.6,11.8c0,3.4-0.1,3.4-3.7,5.8c0-1.5-0.1-2.7,0-3.8
	c0.4-9.9-1.7-19.3-6.3-28c-1.2-2.4-3.4-4.3-5.1-6.4C556.3,118.4,557.3,118.4,559.5,120.4z M556.6,145.4c0.6-2.7,1.5-5.3,2.3-7.9
	c0.2,0,0.4,0.1,0.6,0.1c-0.2,0.9-0.3,1.8-0.5,2.7c-0.5,2.5-1,5-1.5,7.4C555.9,147.6,556.4,146.1,556.6,145.4z M555.1,136.3
	c-1.5-3,0.2-5.4,1.3-8C556,131,555.6,133.6,555.1,136.3z M553.3,123.8c0.2,0,0.3,0.1,0.5,0.1c-0.3,1.8-0.6,3.6-0.9,5.4
	c-0.2,0-0.3-0.1-0.5-0.1C552.7,127.4,553,125.6,553.3,123.8z M550,121.8c0.2,0,0.5,0.1,0.7,0.1c-0.1,1.2-0.3,2.4-0.4,3.6
	c-0.3,0-0.6-0.1-0.9-0.1C549.7,124.2,549.8,123,550,121.8z M546.9,124.1c8.7,12,9.4,25.3,8.8,39.1c0.4-1.6,0.8-3.2,1.2-4.8
	c0.3-1.1,0.5-2.2,0.8-3.3c0.1-0.2,0.3-0.5,0.2-0.6c-2.4-2.2,0-4.5-0.1-6.8c0,0,0,0-0.1,0c1.3-3.9,2.5-7.8,3.9-12
	c0.1,0.8,0.2,1.4,0.1,1.9c-0.9,4-1.9,8.1-2.3,12.3c1-3.1,2-6.2,2.9-9.3c0.1,0,0.3,0.1,0.4,0.1c-1.3,5-2.5,10-3.8,14.9
	c0.2,0.1,0.3,0.1,0.5,0.2c1.2-3.6,2.3-7.1,3.5-10.7c1.4,1,0.6,2,0.4,3c-0.9,3.3-1.9,6.6-2.7,9.9c-0.3,1.3-0.4,2.7-0.6,4.5
	c-5.5,4-11.9,7.2-18.3,10.4c-0.1-0.4-0.3-0.7-0.2-0.8c2.8-3.7,2-8.1,2.6-12.2c0.4-2.6,0.5-5.3,0.8-7.9c-0.8,0.4-1.2,0.2-1.2-0.7
	c0-0.9,0.2-1.8,0.3-2.7c2.1-1,1,0.9,1.3,1.6c0.8-3.7,1.6-7.4,2.5-11.1c1.4,0.7,1.5,1.8,1.1,3.1c-0.9,3.4-1.7,6.8-2.7,10.2
	c-0.3,1.2,1.6,1.8,0.6,3.3c-0.6,0.9-0.5,2.4-0.6,3.6c2.1-3.5,1.7-7.8,3.8-11.3c0.2,0,0.4,0.1,0.7,0.1c-0.9,3.9-1.8,7.8-2.7,12
	c0.6-0.5,0.8-0.6,1.4-1.1c-0.2,2.1-0.4,4-0.6,5.8c0.1,0,0.1,0,0.2,0c0.6-2,1.2-4,2-6.6c1,2.8-1.6,5.1,0.1,7.5c1.2-0.8,1.2-2,1.3-3.1
	c0.7-5.5-0.1-10.8-0.8-16.3c-1-7.2-3.6-13.8-7-20.4C545.2,125.6,545.9,125,546.9,124.1z M544.6,142.7c0.7,2-0.3,3.9-0.6,5.7
	c-0.3-1.1-0.6-2.2-1-3.3c0-1.4-0.1-2.9-0.1-4.3c1.2,1.4,0.6,2.8,0.1,4.3C543.5,144.4,544,143.6,544.6,142.7z M545.4,137
	c0.2-1,0.3-2,0.5-3.5C547.8,135.5,545.5,136,545.4,137z M548.2,136.8v2.2C547.2,138.5,546.2,137.9,548.2,136.8z M549.3,144.8
	c0.2,0.1,0.5,0.1,0.7,0.2c-0.1,0.5-0.3,1.1-0.4,1.6c-0.2-0.1-0.6-0.1-0.5-0.2C549.1,145.8,549.2,145.3,549.3,144.8z M544,128.2
	c-0.4,3.3-0.7,6.1-1,9c-0.1,1.1-0.1,2.3-0.1,3.4c-0.6-0.1-1.3,0-1.2-1c0.5-3.5,1-6.9,1.6-10.4C543.3,129,543.6,128.8,544,128.2z
	 M540.8,134.1c0-1.3,0.1-2.6,0.1-3.9c0.3,0,0.6,0,0.8,0.1c-0.1,2.4-0.3,4.8-0.4,7.1C540.8,136.9,540.7,136.5,540.8,134.1z
	 M519.6,144.2c0.6-1.1,1.4-1,3.3,0.1c-0.5,0.7-1,1.1-1.3,1.6c-0.6,1-1.5,0.8-2.1,0.2C519.2,145.8,519.3,144.7,519.6,144.2z
	 M517.1,148.5c0,0.2,0,0.5,0,0.5h-3.3c0,0,0-0.6,0-0.9C514.9,148.2,516,148.4,517.1,148.5z M515.9,156.6c0.2-1.7,0.9-2.7,2.3-3.9
	c4-3.2,7.7-6.7,11.4-10.2c2.7-2.6,5.2-5.4,7.9-8.3c4.9,9.8,5.4,20.1,4.7,30.9c-1.1-0.2-2-0.4-2.8-0.5c-0.8-0.2-1.6-0.5-2.5-0.6
	c-3.2-0.3-4,0.3-3.6,3.5c0.2,1.7-0.3,2.6-1.5,3.5c-2,1.5-4.1,2.7-7.2,2.2c0.6-1.2,1.1-2.2,1.6-3.1c0.8-1.5,1.8-2.9,2.4-4.5
	c0.7-2-0.1-3.8-1.7-5.1c-1.6-1.4-3.6-1.5-5.4-0.9c-1.9,0.6-2.5,2.6-1.8,5.2c1.4-1.4,1.2-5.5,4.8-3.4c-0.2,1.7-0.8,3.3-1.9,3.6
	c-1.5,0.4-0.3,1.6-1.3,2.3c-0.3-0.7-0.6-1.3-0.8-1.8c-1.7,1.3-3.2,3.2-5.2,3.9c-1.9,0.7-4.3,0.4-6.6,0.2
	C513.6,166.4,515.3,161.8,515.9,156.6z M503.7,170.3c1,0.7,2,1.4,3.5,2.5C505,172.9,504.3,171.5,503.7,170.3z M505.7,134.6
	c0.1,0.2,0.3,0.5,0.4,0.7c-0.4,0.3-0.9,0.5-1.3,0.7c0,0-0.3-0.4-0.3-0.4C504.9,135.2,505.3,134.9,505.7,134.6z M505.5,132.8
	c0.2-0.6,0.4-1.2,0.5-1.7l0.8,0.2c-0.2,0.6-0.3,1.2-0.5,1.7C506.3,133,505.8,132.8,505.5,132.8z M504.4,118.7
	c0.6-0.6,1.5-0.9,2.3-1.3c0.3,0.6,0.7,1.2,0.8,1.9c0.2,1.1,0.3,2.3,0.3,3.4c0,1.1,0.5,2.5-1.1,3.6c-1.3-1.8-1.3-3.3-0.4-5
	c-0.5-0.3-1.1-0.4-1.3-0.8C504.6,120,504.2,118.9,504.4,118.7z M497.4,144.2c0.3,0.4,0.6,0.9,0.9,1.3c-0.2,0.1-0.3,0.2-0.5,0.3
	c-0.3-0.5-0.6-0.9-0.8-1.4C497.1,144.4,497.3,144.3,497.4,144.2z M500.6,156c1-1,3.1-0.9,5.1-1.5c-0.8,3-0.8,5.6-3,7.3
	c-2.4,1.9-5.4,2.1-8.1,3.1c-0.1-0.2-0.2-0.4-0.3-0.7C496.4,161.4,498.2,158.5,500.6,156z M496.3,175.5c1.4,1.7,2.8,3.4,4.5,5.6
	c-2.5-0.1-4.3-0.3-6-0.4c-2.2-0.1-3.9-0.7-5.1-3c-1-1.9-3.2-3.2-5.4-5.2c0.2-2.1,0.6-2.6,2.7-2.1
	C490.7,171.1,493.9,172.5,496.3,175.5z M488.7,168.8c0-0.1,0.1-0.3,0.1-0.4c0.7,0.2,1.5,0.4,2.2,0.6l-0.1,0.5
	C490.1,169.2,489.4,169,488.7,168.8z M491.1,126.5c-0.1-0.4,0.6-1.5,1-1.6c1.7-0.4,1.4,0.9,1.7,2
	C492.7,127.5,491.7,127.9,491.1,126.5z M491.7,144.4c0.1,0.1,0.3,0.3,0.4,0.4c-0.5,0.5-1,1-1.6,1.5c-0.2-0.2-0.4-0.4-0.6-0.6
	C490.5,145.3,491.1,144.8,491.7,144.4z M488.1,148.8c0.6,0.1,1.2,0.3,1.7,0.4c0,0.1,0,0.2,0,0.4c-0.6,0-1.2-0.1-1.8-0.1
	C488.1,149.2,488.1,149,488.1,148.8z M489.2,155.3c0.1,0.2,0.3,0.4,0.4,0.5l-4.4,4.1l-0.4-0.4C486.3,158.1,487.8,156.7,489.2,155.3z
	 M485.2,141.8c0.2,0.2,0.4,0.3,0.6,0.5c-0.4,0.7-0.8,1.4-1.2,2.1c-0.2-0.1-0.3-0.2-0.5-0.3C484.4,143.4,484.8,142.6,485.2,141.8z
	 M480.6,130.8c-1.6-0.3-2.3-1-1.8-2.4c0.5-1.4,1.5-1.6,2.9-0.9C481.4,128.6,481,129.6,480.6,130.8z M478.9,176.2
	c0.2,0.1,0.4,0.3,0.7,0.4c-0.4,0.7-0.8,1.3-1.1,2c-0.2-0.1-0.3-0.2-0.5-0.3C478.3,177.7,478.6,177,478.9,176.2z M373.2,106.2
	c0,0-0.5,0-0.6,0c-0.1-0.9,0-1.8-0.1-2.7c0.2,0-0.3,0,0.7,0.1V106.2z M376.2,112.2c0,0-0.2,0-0.3,0c-0.1-0.9-0.2-1.9-0.3-2.8l0.6,0
	V112.2z M463.9,137.5c-0.2-0.3-0.4-0.5-0.5-0.8c-0.1-0.4-0.2-0.7-0.2-1.1c0.1,0,0.2-0.1,0.3-0.1c0.3,0.6,0.5,1.2,0.8,1.7
	C464.2,137.3,464,137.4,463.9,137.5z M462.9,151.4c0.8-2.1,1.9-1.8,3-1.3C465,150.5,464.1,150.8,462.9,151.4z M442.6,172.8
	c0.3-1.5,1.2-2,2.6-1.7C444.8,173,444.8,173,442.6,172.8z M454.1,212c-0.2-0.5-0.3-0.9-0.5-1.4c0.2-0.1,0.3-0.1,0.5-0.2
	c0.1,0.5,0.3,0.9,0.4,1.4C454.4,211.9,454.3,211.9,454.1,212z M456.2,210h-1v-3h1V210z M458,228.7l-1.3-1.9c0.1-0.1,0.3-0.2,0.4-0.3
	c0.5,0.6,0.9,1.2,1.4,1.8C458.3,228.4,458.1,228.6,458,228.7z M456.8,222.7c0.8,1,1.5,2,2.2,3C456.9,225.7,456.8,225.4,456.8,222.7z
	 M473.1,194.7c0,0.3,0.1,0.7,0,1c-0.1,0.4-0.4,0.7-0.6,1.1c-0.1-0.1-0.3-0.2-0.4-0.4c0.2-0.6,0.5-1.1,0.7-1.7
	C472.9,194.7,473,194.7,473.1,194.7z M472.3,145c-0.3,0.6-0.7,1.2-1.1,2C470.2,145.6,470.9,145.1,472.3,145z M469.5,203.6
	c-0.7,1.7-1.4,3.4-2.1,5c-0.2-0.1-0.4-0.1-0.5-0.2l2.1-5.1C469.1,203.5,469.3,203.6,469.5,203.6z M466.3,213.7
	c0.3,0.1,0.5,0.1,0.8,0.2c-0.3,0.9-0.6,1.8-0.9,2.7c-0.3-0.1-0.5-0.2-0.8-0.2C465.7,215.5,466,214.6,466.3,213.7z M465.3,209.7
	c-0.3-0.1-0.6-0.2-0.8-0.3c1-3,2-6,2.9-9c0.2,0.1,0.5,0.2,0.7,0.2C467.3,203.6,466.6,206.7,465.3,209.7z M467.6,188.2
	c-0.7,1.8-1.8,3.2-3.9,3.5C465,190.5,466.3,189.4,467.6,188.2z M461.7,187.1c0-0.7,0.1-1.3,0.1-2c0.2,0,0.4,0,0.7,0
	c-0.1,0.7-0.1,1.4-0.2,2.1C462.1,187.1,461.9,187.1,461.7,187.1z M464.2,196.3c0.2,0.1,0.4,0.2,0.6,0.4c-0.6,1.4-1.3,2.9-1.9,4.3
	c-0.2-0.1-0.4-0.2-0.6-0.3C463,199.2,463.6,197.7,464.2,196.3z M462.6,207.2c0.3-3.7,3.5-11.2,6.2-14
	C466.7,197.9,464.7,202.5,462.6,207.2z M467,225.3c-0.4-0.5-0.8-0.9-1-1.3c-0.6-1.4-1.1-2.9-1.6-4.4c-0.1-0.3,0.4-0.7,1-1.7
	c0.3,1.8,0.1,3.3,0.8,4C467.2,222.9,467.7,223.8,467,225.3z M467.1,219.9c0-0.7,0.1-1.5,0.1-2.2c0.2,0,0.4,0,0.6,0
	c0.1,0.7,0.1,1.5,0.2,2.2C467.7,219.9,467.4,219.9,467.1,219.9z M468.6,222.9c-0.1-0.6-0.2-1.2-0.3-1.8c0.2-0.1,0.4-0.1,0.6-0.2
	c0.2,0.6,0.3,1.2,0.5,1.8C469.2,222.8,468.9,222.9,468.6,222.9z M468.5,215.9c0.5-1.2,0.9-2.2,1.4-3.3
	C470.3,215.7,470.2,216,468.5,215.9z M470.7,218c0.1-0.9,0.3-1.8,0.4-2.6l0.8,0.2c-0.2,0.9-0.4,1.7-0.6,2.6
	C471.1,218.1,470.9,218.1,470.7,218z M472.7,229.5c-0.4-0.5-0.7-1-1.1-1.6c0.2-0.1,0.5-0.3,0.7-0.4c0.3,0.5,0.5,1.1,0.8,1.6
	C472.9,229.3,472.8,229.4,472.7,229.5z M472.7,223.4c-0.3,0-0.5-0.1-0.8-0.1c0.1-1.4,0.3-2.7,0.4-4.1c0.4,0.1,0.7,0.1,1.1,0.2
	C473.2,220.7,472.9,222.1,472.7,223.4z M475,150.5c0.3,0,0.6,0.1,0.8,0.1c-0.1,0.5-0.1,1-0.3,1.5c0,0-0.6-0.1-0.9-0.1
	C474.8,151.5,474.9,151,475,150.5z M475.4,230.5c-0.2-0.6-0.4-1.2-0.6-1.8c0.2-0.1,0.3-0.1,0.5-0.2c0.2,0.6,0.3,1.2,0.5,1.8
	C475.7,230.4,475.5,230.5,475.4,230.5z M480.2,230.8c-0.2,0-0.5-0.1-0.7-0.1c-0.2-1.6-0.3-3.2-0.5-5.2
	C480.5,227,480.5,227,480.2,230.8z M481.4,230.4c-0.1-1.2-0.2-2.2-0.4-3.6c0.9,0.2,1.6,0.2,1.8,0.5
	C483.3,228.1,483,228.6,481.4,230.4z M490,235.1c1,1.4,1.9,2.7,3,4.2C491.3,239.2,491.3,239.2,490,235.1z M500.5,234.8
	c-0.2-0.6-0.6-1-0.5-1.2c0.1-0.3,0.5-0.5,0.8-0.8c0.2,0.3,0.6,0.6,0.6,0.9C501.4,234,501,234.3,500.5,234.8z M513.9,223.5
	c-0.3,0-0.5-0.1-0.8-0.1c0.2-1.1,0.5-2.3,0.7-3.4l0.6,0.1C514.3,221.2,514.1,222.3,513.9,223.5z M519.7,218.3c0.1-1.5,0.2-3,0.3-4.5
	c0.1,1.5,0.3,3,0.4,4.4C520.1,218.2,519.9,218.3,519.7,218.3z M520.6,222.7c0.2-0.7,0.3-1.4,0.5-2.1c0.2,0,0.4,0.1,0.6,0.1
	c-0.1,0.7-0.2,1.5-0.3,2.2C521.1,222.9,520.8,222.8,520.6,222.7z M522.1,226.3c-0.2-0.1-0.4-0.1-0.7-0.2c0.2-0.8,0.4-1.6,0.7-2.3
	c0.3,0.1,0.5,0.1,0.8,0.2C522.6,224.8,522.3,225.6,522.1,226.3z M523.7,222.1c-0.2,0-0.4-0.1-0.6-0.1c0.1-0.6,0.2-1.2,0.3-1.8
	c0.2,0,0.4,0.1,0.5,0.1C523.9,220.8,523.8,221.5,523.7,222.1z M531.2,239.9c-0.1-0.1-0.2-0.1-0.3-0.2c0.3-0.4,0.7-0.9,1-1.3
	c0.1,0.1,0.2,0.2,0.3,0.2C531.9,239,531.6,239.5,531.2,239.9z M548.6,243.7c-1.1-0.8-2.2-1.5-3.3-2.3
	C547.2,241.2,548,242.2,548.6,243.7c0.9,0.4,1.7,0.8,2.5,1.2C549.8,245.3,549,244.8,548.6,243.7z M552.4,244.3
	c-1-1.1-1.5-1.8-2.4-2.7C551.9,241.4,552.5,242,552.4,244.3z M558.2,248.1c-0.7-0.8-1.3-1.6-2-2.4c-0.6-0.7-1.2-1.3-1.9-2
	c0.2-0.1,0.4-0.3,0.6-0.4c0.5,0.8,1,1.5,1.5,2.3c0.8,0.7,1.5,1.4,2.3,2.1C558.6,247.8,558.4,248,558.2,248.1z M558.9,245.3
	c-0.9-0.7-1.8-1.5-2.8-2.2c0.2-0.2,0.3-0.4,0.5-0.7c1,0.7,1.9,1.4,2.9,2.1C559.3,244.9,559.1,245.1,558.9,245.3z M562.6,249.5
	c0.9,1.1,1.8,2.1,2.6,3.2C563.6,252.4,562.7,251.3,562.6,249.5z M561.5,246.5c2.1,0.4,2.1,0.4,2.7,2.4
	C563.4,248.2,562.6,247.5,561.5,246.5z M570.1,257.3c-0.6-0.6-1.2-1.2-1.8-1.8c0.2-0.2,0.4-0.4,0.6-0.7c0.6,0.6,1.3,1.1,1.9,1.7
	L570.1,257.3z M578,254.1c1.9,2.4,4.7,2,7.2,2.1c1.5,0.1,2.2,0.6,2.8,1.6c1.1,1.9,1.6,3.9,1.2,6.2c-5.5,0.8-8.8-2.4-12.1-5.7
	c0.6-1,0-2.7-1.7-5.1C576.5,253.5,577.6,253.6,578,254.1z M572,254c-3.4-1.4-4.1-2-5.5-4.5C568,249.9,568,249.9,572,254z
	 M589.5,249.1c-1.5-0.3-2.6-1.6-4.4-1.3c-0.8,0.1-1.9-1.1-2.8-1.8c-0.7-0.7-1.1-1.6-2.5-0.9c-0.5,0.2-1.7-0.7-2.5-1.2
	c-0.8-0.6-1.6-1.4-2.5-2.3c-0.2,0.6-0.3,0.9-0.4,1.4c-1-0.5-2.1-0.9-3.1-1.5c-1-0.6-2-1.3-3.2-2c-0.2,0.5-0.4,0.9-0.7,1.5
	c-2.7-0.9-4.2-3.3-6.4-5.2c-0.2,0.6-0.3,0.9-0.4,1.3c-1.4,0.4-1.5-2.8-3.5-1.1c-0.8-0.9-1.8-1.9-3.1-3.4c0,2.3,1.9,2.9,2.1,4.6
	c-2,0.1-2-2.4-3.8-2.8c0,2,2,2.7,2.4,4.4c-1.9-1.8-3.9-3.5-5.9-5.3c-0.2,0.6-0.3,1.1-0.5,1.6c-1.2-0.8-2.3-1.6-3.4-2.5
	c-0.1,0.1-0.2,0.3-0.4,0.4c0.2,0.5,0.3,1.1,0.7,2.2c-2.1-1.7-3.7-3.1-5.6-4.7c0.6,0,1.1,0,1.5,0.1c4.1,0.6,8.1,0.6,12-1
	c1.7-0.7,3.1-0.4,4.4,0.7c1.1,0.9,2.2,1.7,3.2,2.7c3.6,3.3,7.9,5,12.7,5.8c3,0.5,6.2,0.7,9.2,1.3c1,0.2,1.9,1.1,3,1.9
	c4.9-0.1,7.9,2.7,7.8,8.3C592.1,249.8,590.8,249.4,589.5,249.1z M212.2,78.3c0-0.2,0.1-0.4,0.1-0.7C212.2,77.8,212.1,78,212.2,78.3
	L212.2,78.3z M210.8,84.6c0.4-2,0.8-4,1.2-5.9C211.1,80.5,210.5,82.4,210.8,84.6z M31.2,78l0.5,0c0-1,0-2,0.1-3c-0.2,0-0.6,0-0.6,0
	V78z M212.2,78.3C212.2,78.3,212.1,78.2,212.2,78.3c-0.1,0.1-0.1,0.2-0.2,0.3C212.1,78.5,212.1,78.4,212.2,78.3z M62.4,314.6
	c1.3-14,7.6-25.9,17.5-35.9c-2.6,1-4.2,2.9-5.9,4.7c-5.1,5.3-7.9,12-10.2,18.7c-5.2,14.7-4.1,29.2,1.5,43.6c0.9,2.4,2.5,4.5,3.9,6.6
	c0.3,0.5,1.1,0.7,1.6,1.1C62.7,341.5,61.2,328.3,62.4,314.6z M213.4,145.2c0,0.1,0,0.1,0,0.2C213.4,145.4,213.4,145.4,213.4,145.2
	L213.4,145.2z M213.4,145.2L213.4,145.2c0.1,0,0.1-0.1,0.1-0.1C213.5,145.2,213.4,145.2,213.4,145.2z M384.7,205.2
	c0.1,0.1,0.3,0.3,0.4,0.4c1.2-1.1,2.6-2,3.6-3.2c3-3.5,5.1-7.6,6.9-11.9c3-7,4.3-14.1,1.8-21.5c-0.9-2.7-1.5-5.6-2.2-8.4
	c-1-4.4-1.2-8.8-0.7-13.8c0.8,0.8,1.3,1.2,1.5,1.7c2,3.7,4,7.3,5.8,11c1.5,3,2.7,6.1,4.2,9c1,2,1.8,2.3,3.9,1.4c1-0.4,1.9-1,2.7-1.7
	c2.3-2,4.1-4.4,5.1-7.3c1.8-4.9,3.6-9.8,5.2-14.8c1.2-3.8,3.3-7.2,5.5-10.5c0.8-1.2,2.1-2,3.4-3.3c0.6,1.4,1,2.4,1.3,3.4
	c0.8,2.2,1.2,4.6,2.3,6.7c3.9,8,8.4,15.7,15.1,21.8c1.8,1.6,3.5,3.6,6.5,3.5c-0.6-0.9-1.4-1.6-2.2-2.2c-8.5-7-14.5-16-18.9-25.9
	c-1.1-2.5-1.5-5.3-2.3-8c-0.9-3.2-2.9-4.2-5.7-2.4c-1.4,0.9-2.7,2.1-3.7,3.4c-3.9,5.1-7,10.7-9.3,16.8c-0.6,1.7-1.7,3.3-2.1,5
	c-0.9,3.7-1.4,7.5-2.1,11.3c-0.2,1.3-0.7,2.5-2.8,2.5c-1-1.8-2.1-3.9-3.1-6c-2.7-6.1-5.1-12.3-9.4-17.5c-1.1-1.3-2.1-2.6-4.4-3
	c-0.5,1.4-1.4,2.7-1.5,4.1c-0.5,4.4-1.1,8.9-1.2,13.4c-0.1,6.5,1.8,12.6,3.8,18.8c2.3,7,1.7,13.7-2.4,20
	C388.2,200.5,386.4,202.8,384.7,205.2z M396.7,176.5c0.5,1.4,1,2.7-0.5,3.9C396.4,179.1,396.6,177.8,396.7,176.5z M395.5,169.7
	c0.2,0,0.4,0.1,0.6,0.1c-0.2,0.8-0.4,1.6-0.6,2.5c-0.2-0.1-0.4-0.2-0.6-0.3C395.1,171.2,395.3,170.5,395.5,169.7z M392.1,161
	c-0.2,0-0.3,0-0.5-0.1c0.2-1.5,0.3-2.9,0.5-4.4c0.2,0.1,0.4,0.1,0.5,0.2C392.5,158.2,392.3,159.6,392.1,161z M393.2,162.8
	c1,0,1,0,1,0v3.5c0,0,0,0-1,0V162.8z M18,258.6c6.8,2.1,13.1,4,19.6,6c2.1,6.8,1.8,14.2,4.7,21.4c3.7-2.9,5.5-6.7,7.7-10.1
	c2.3-3.5,4.1-7.2,6.2-11c4,0.1,8,1.1,12.6,0.3c-2.3-3.2-4-6.1-6.3-8.4c-2.5-2.4-2.9-4.7-1.2-7.6c0.4-0.6,0.7-1.3,1-2
	c1.9-4.4,3.9-8.8,5.8-13.2c0.3-0.8,0.4-1.7,0.8-3c-1.2,0.4-1.8,0.5-2.3,0.8c-4.8,2.7-9.7,5.4-14.4,8.3c-1.5,0.9-2.7,1.1-4-0.1
	c-2.9-2.5-5.9-5-8.8-7.5c-1.2-1.1-2.5-2.1-3.8-3.1c-0.2,0.1-0.4,0.3-0.6,0.4c0.3,5.8,0.6,11.6,0.8,17.4c-2.9,1.9-5.9,3.6-8.6,5.7
	C24.4,254.9,20.7,255.4,18,258.6z M63.7,261.8c0.2,0,0.3,0.1,0.5,0.1c0,0.7-0.1,1.4-0.1,2l-0.9-0.2
	C63.3,263.2,63.5,262.5,63.7,261.8z M59,250.5c-0.6,1.1-1.1,2.3-1.7,3.4C56.4,252.1,58.1,251.5,59,250.5z M47.4,266.2
	c-0.5,0.5-1.1,1.1-1.8,1.9c0-1.8,0.9-2.8,1.8-3.7C47.4,265,47.4,265.6,47.4,266.2C47.4,266.2,47.4,266.2,47.4,266.2z M47,268.4
	c0.2-0.7,0.3-1.5,0.5-2.2c0.3-0.1,0.7-0.2,1.4-0.3c-0.6,1-1.1,1.9-1.5,2.7C47.2,268.5,47.1,268.5,47,268.4z M55.1,240.2
	c-0.5,1.3-0.9,2.2-1.2,3.1c-0.5-0.7-1-1.3-1.4-1.9C53.1,241.1,53.8,240.8,55.1,240.2z M52.3,241.4c-0.6,1.4-1.1,2.9-1.6,4.4
	C50.4,244,51,242.5,52.3,241.4z M55.3,255.6c-0.8,5.3-3.8,9.5-7,13.6L55.3,255.6z M48.5,261.5c0.2,0.1,0.4,0.2,0.7,0.3
	c-0.2,0.9-0.7,1.8-1.6,2.3C47.9,263.3,48.2,262.4,48.5,261.5z M46.1,253.3l0.9-0.8c0.1,0.1,0.2,0.1,0.4,0.2
	c-0.4,0.9-0.8,1.8-1.3,2.7c-0.1,0-0.3-0.1-0.4-0.1l0.1-1.4c-0.9,1.5-1.9,3.1-2.7,4.7c-1.1,2.2-2.1,4.6-3.4,6.7
	c1.3-6.8,4.8-12.7,8.4-18.6C47.4,248.9,46.7,251.1,46.1,253.3z M38.5,262.2c0.4-3.2,1.9-5.9,3.5-9.2C42,255.5,40.8,258.5,38.5,262.2
	z M43.3,237c0.3,2-0.1,3.9-1.5,5.4C42.2,240.6,42.8,239,43.3,237L43.3,237z M43.3,237.4c-0.6,0.5-1.2,0.9-2,1.5
	C41.7,237.4,41.7,237.4,43.3,237.4z M41.6,243.2c-0.2,0.8-0.4,1.7-0.6,2.5c-0.2-0.1-0.5-0.2-0.7-0.3C40.7,244.7,41.1,244,41.6,243.2
	z M39.9,235.8c0.2,0.1,0.4,0.1,0.6,0.2l-1.5,4c-0.1,0-0.3-0.1-0.4-0.1C39,238.5,39.4,237.1,39.9,235.8z M39.7,241.2
	c0.2,0.1,0.4,0.2,0.6,0.2l-2.4,6c-0.2-0.1-0.4-0.2-0.7-0.3C38.1,245.2,38.9,243.2,39.7,241.2z M36.6,248.7c0.1,0.3,0.2,0.5,0.3,0.8
	c-0.6,0.1-1.2,0.3-1.7,0.4c-0.1-0.2-0.1-0.3-0.2-0.5C35.5,249.2,36,249,36.6,248.7z M32.8,255.7c0.1,0,0.2,0,0.3,0.1
	c0.1,0.5,0.1,0.9,0.2,1.4c-0.4,0.4-0.8,0.7-1.2,1.1C32.3,257.5,32.6,256.6,32.8,255.7z M32,258.6c0.1,0.4,0.1,0.7,0.2,1.1
	c0.1,0,0.3,0,0.4,0c0.2-0.9,0.5-1.7,0.7-2.6c0.5-0.7,1.1-1.4,1.6-2c0.1,0,0.2,0.1,0.3,0.1c-0.6,1.6-1.1,3.2-1.7,4.8
	c0.2,0.1,0.4,0.2,0.6,0.2c0.7-1.6,1.4-3.1,2.2-5.1c0.4,0.9,0.6,1.5,0.8,2c2-4.5,4.1-8.9,6.1-13.4c0.6-1.4,0.7-3.1,2.6-3.8
	c-0.8,2.1-1.6,4.3-2.5,6.4c-1.7,4.1-3.5,8.2-5.2,12.4c-0.5,1.2-0.7,2.4,0.4,3.5c0,0,0,0,0,0c-0.6,1.5-1.5,0.4-2.6,0.3
	c0.3-1.6,0.6-3.1,1-4.7c-0.7,1.2-1.3,2.4-2.2,3.9c-1.1-0.3-2.3-0.6-3.9-1.1C31.2,259.9,31.6,259.3,32,258.6z M26,259.1
	c-0.7-1.8-0.1-3.1,1.5-4.1L26,259.1z M392.6,292.1c3.2,2.8,6.8,5.2,11.2,5.9c4.6,0.8,9,0.4,13.2-1.4c3.4-1.5,5.5-4.1,7.1-7.4
	c3.1-6.7,3.6-13.3,0.5-20.1c-1.7-3.8-4.7-6.4-7.7-8.9c-8.8-7.3-15.9-15.7-21.1-26c-2.3-4.6-5.2-8.9-8.1-13.1
	c-3.3-4.8-7.7-7.1-13.8-5.9c-2.6,0.5-5,1.1-7.2,2.5c-5.1,3.3-10.4,6.4-14.4,11.1c-1.7,2-3.5,4-5.5,6.2c-0.4-1-0.6-1.8-0.9-2.6
	c-1.3-3.3-3.3-4.6-6.8-4.7c-1.8,0-3.5,0-5.2,0c1.2-3.6,2.2-6.8,3.3-10.3c5.1-2.1,11-6.9,13-9.5c6.2-8.3,11.3-17.2,13.6-27.4
	c0.2-1,0.7-1.9,1-2.7c1.1,5.5,2,11.1,3.4,16.5c1,4.1,2.5,8,5.3,11.2c2.3,2.7,6.1,3.8,8.9,2.6c0.4-0.2,0.7-0.8,1-1.2
	c-3.6,0.9-6.6,0.1-8.9-2.5c-1.2-1.4-2.2-3.2-2.9-4.9c-3.4-8.5-5.3-17.5-4.7-26.7c0.5-8.3,1.9-16.6,2.6-24.9
	c0.4-5.2,0.6-10.5,0.3-15.7c-0.2-3.2-0.9-6.5-2.8-9.4c-3.4-5.3-6.8-7-12.9-5.7c-5,1.1-9.9,2.6-14.9,3.8c-1.9,0.5-3.9,0.8-5.7,1.2
	c-3.6-5.6-1.6-18.8,2.6-22.9c0.3,0,0.6,0.1,0.9,0.2c5.4,0.6,10.7,0.6,15.3-3c1-0.8,2.5-1.1,3.8-1.5c1.1-0.3,2.3-0.3,3.4-0.5
	c-3.1-1.4-5.9-1.1-8.7,0.8c-4.5,3.2-9.5,3.8-14.7,2.3c-2.2-0.6-4.2-1.4-6.4-2.2c-0.8-0.3-1.5-0.6-2.3,0.2c0.5,1.3,3.4,0.8,2.4,3
	c-0.7,0.1-1.2,0.2-1.8,0.3c0-0.5-0.1-0.9-0.1-1.4c-5.6,7.7-7.3,16.4-7.4,26c-2-1-4-0.4-5.4-1.6c0.4-2.3,1.7,0.1,2.3-0.6
	c0-1.5-0.5-3.4,0.1-4.4c0.8-1.1,0.9-2.1,1-3.2c0.2-6.6,2.9-12.2,6.6-17.4c1.4-1.9,2.7-3.8,4.1-5.8c0.7-1,1.2-2,0.1-3.5
	c-0.9,0.5-1.9,0.9-2.5,1.6c-0.7,0.8-1.1,1.9-1.5,2.6c-1.3-0.3-2.6-1.1-3.2-0.7c-1.3,0.9-2,0-2.8-0.6c-4-2.5-8.4-3.7-13.2-3.3
	c-7.7,0.6-12.1,4.8-13.1,12.4c-0.8,5.7,1.3,10.5,5.2,14.6c1.2,1.3,2.2,2.9,3.6,4c1.3,1,3,1.6,4.5,2.3c2.2,1,4.5,2,7.4,3.2
	c0.4,20.3,0.2,41.1,0.1,61.8c-2.9,2.4-4.2,5.4-4.9,8.9c-3.5-2.9-6.3,0.4-9.5,0.9c-2.6-3.1-2.7-7-3.6-10.6c-0.9-3.5-1.4-7.1-1.8-10.7
	c-0.4-3.7-0.4-7.5-0.6-11.2c-0.2-3.8,0.2-7.5,1-11.1c0.9-3.6,1.4-7.4,2.5-10.9c1.1-3.4,2.6-6.8,4.2-10c1.6-3.2,3.7-6.2,5.7-9.7
	c-2.3,0.4-3.1,1.9-3.8,3.2c-5.6,9.3-9.4,19.1-10.5,30c-0.9,9.1-0.3,18.2,1.2,27.2c0.8,5.3,2,10.5,4.2,15.2
	c-6.7,6.6-10.3,13.9-8.3,23.3c1.9,9.1,7.5,15,15.6,18.6c-1,1.6-2.2,2.9-2.7,4.5c-3.5,10.7-8.4,20.8-13.2,31
	c-1.7,3.5-4.1,6.8-6.6,9.8c-3.2,3.9-7.1,3.7-10.2-0.2c-0.6-0.7-1.1-1.5-1.8-2.4c3.1-3.9,6.1-7.7,9.2-11.3c4.1-4.7,7.6-9.8,10.4-15.4
	c1.4-2.8,2.5-5.7,3.3-8.6c1-3.7,1.2-7.5-1.1-10.8c-1.2-1.8-3.1-3.3-4.9-4.5c-2.7-1.7-5.3-3.5-8.8-3.3c-4.8,0.3-9,1.9-12.7,4.8
	c-6.1,4.9-9.5,11.5-12.2,18.6c-0.9,2.4-1.8,4.9-2.7,7.4c-1-6-2.8-11.6-4.9-17.1c-1.4-3.7-4.1-6-8.1-6.5c-4-0.5-7.6,0-10.3,3.6
	c-2.3,3-3.5,6.3-4.1,10c-0.1,0.9-0.4,2-0.2,2.8c1.1,3.4,2.3,6.6,3.5,10c0.4,1.1,0.4,2.3,1,3.2c4.2,6.3,6.6,13.2,7.5,20.6
	c0.4,3.2-0.4,6.6-1.2,9.8c-0.5,2.1-2,2.4-3.7,1c-1.1-0.8-2.1-2-2.6-3.2c-1.8-4.2-3.5-8.5-5.2-12.8c-1.5-4-2.6-8.1-4.2-12.1
	c-1.3-3.3-4-4.6-7.4-4.1c-0.6,0.1-1.3,0.2-1.9,0.1c-2.1-0.7-3.5,0.5-4.8,1.8c-0.7,0.6-1.2,1.3-2.3,2.5c0.3-2.3,0.5-3.9,0.6-5.5
	c0.3-5.7,0.7-11.3,0.8-17c0-1.8-0.6-3.9-1.4-5.5c-5.3-10.4-17.1-14-28-8.7c-2.6,1.3-5.1,2.7-7.5,4.3c-2,1.3-4,2.7-6.3,4.3
	c0.1-1.5,0.1-2.7,0.2-3.8c0.3-3,0.9-5.9,1.1-8.9c0.1-1.6,0.7-2.8,1.6-4c3.6-4.6,7.2-9.4,10.8-14c0.8-1.1,1.7-2.1,2.6-3.1
	c0.8,1.7,1.5,3.5,2.6,5c2.1,2.8,4.4,5.6,6.7,8.1c1.3,1.5,2.9,3,4.7,3.7c4.8,2.1,9.7,3.9,14.7,5.5c3.5,1.1,7.1,1.3,10.8,0.9
	c9.6-1,17.9-5.4,26-10.1c1.2-0.7,2.2-1,3.5-0.5c1.3,0.5,2.7,0.8,4,0.9c6.8,0.5,12.9-1.3,18.4-5.3c2.9-2,5.6-4.3,8.2-6.6
	c1.3-1.1,2.4-2.5,3.2-4c4.4-7.7,7.6-15.8,9-24.6c2-12.1,1.9-24.3-0.3-36.4c-1-5.5-3.6-10.5-7.7-14.5c-3.9-3.8-8.7-6.2-13.6-8.4
	c-1.5-0.7-3.3-1-4.9-1.2c-2.8-0.4-5.7-0.6-8.6-1c-3.1-0.4-6,0-8.7,1.4c-1.7,0.9-3.4,1.8-5.1,2.6c-4.3,2.1-7.4,5.4-10.2,9.1
	c-4.6,6.1-7.1,13.1-9.1,20.4c-2.2,7.8-2.6,15.8-1.9,23.8c0.3,3.8,0.5,7.7,2.6,10.9c-1.3,3-2.7,5.8-3.8,8.7c-1,2.7-3.5,4.1-5.1,6.2
	c-0.3,0.4-1.1,0.6-1.7,0.8c-3.6,1.1-7.2-0.2-9.5-3.6c-3.1-4.7-5.5-9.7-6.5-15.2c-0.2-0.9,0-2.1,0.5-3c3.8-6.8,7.8-13.5,11.7-20.3
	c1.1-1.9,2.5-3.8,3.5-5.8c1.2-2.4,3.1-4.5,3.2-7.3c-4.1,6.8-8.5,13.4-12.2,20.4c-4.9,9.2-10.8,17.7-16.9,26.1
	c-6.9,9.4-13.9,18.7-21,28c-5,6.6-9.9,13.2-15.8,19c-3.7,3.7-7.6,7.2-11.3,10.9c-5.8,5.8-11.5,11.8-17.3,17.6
	c-8.7,8.8-16.8,18-23.1,28.7c-3.2,5.5-5.9,11.2-6.8,17.5c-0.7,5-0.1,9.9,2.9,14.1c1,1.3,2.4,2.5,3.9,3.2c1.3,0.6,3.1,0.7,4.5,0.4
	c1.8-0.5,3.6-1.5,5.1-2.6c4.7-3.7,8.2-8.4,11.2-13.5c6.1-10.6,8.8-22.5,12.4-34c1-3.3,1.7-6.6,2.7-9.9c1.1-3.6,2.5-7.1,3.3-10.7
	c0.4-1.8,1.1-3.1,2.3-4.4c5-5.3,9.9-10.7,14.8-16c0.6-0.6,1.2-1.2,2.3-2.3c-0.2,1.6-0.2,2.5-0.3,3.3c-0.3,3-1.4,5.5-3.5,8
	c-4.1,4.6-7,10-7.6,16.3c-0.6,6.5,0.1,12.7,6.2,16.8c-0.7,3-1.3,5.4-1.9,7.8c-0.1,0.5-0.1,1.1-0.2,1.6c-1.8,6.4-3.7,12.7-5.3,19.1
	c-2.3,9-6.2,17.3-11.3,25c-5.5,8.3-11.9,15.7-20.7,20.6c-9.4,5.2-19,4.9-28.8,0.9c-2.2-0.9-4.3-1.8-6.5-2.7
	c-0.8-0.3-1.6-0.3-2.4-0.5c-0.1,0.3-0.1,0.5-0.2,0.8c1.7,0.8,3.4,1.7,5.1,2.5c8,3.7,16.1,6,25.1,5.2c4.5-0.4,8.9-1.1,13.2-2.6
	c1.6-0.5,3.2-1.3,4.6-2.3c5.8-4,10.4-9.3,14.1-15.2c3.4-5.4,6.1-11.3,9.2-16.9c4.7-8.9,7.1-18.5,8.9-28.4c0.9-4.7,1.8-9.4,2.7-14.1
	c1.4-0.4,2.7-0.8,4-1.3c4.9-1.9,8.3-5.6,11.1-9.8c3.3-5,6.3-10.2,9.7-15.1c1.4-2,2.8-4.3,5.8-4.8c0,0.8,0.1,1.5,0,2.1
	c-1,5.8-2.6,11.5-4.8,16.9c-3.9,9.2-6.2,18.7-6.1,28.7c0,4.3,0.9,8.2,3.2,11.9c0.9,1.5,2,2.5,3.5,3c4.1,1.3,8.1,0.9,11.4-1.9
	c2.4-2.1,4.2-4.8,6.2-7.3c1.2-1.5,2.4-3.1,3.9-5.1c0.7,1.6,1.2,2.5,1.6,3.5c0.9,2.3,1.7,4.6,2.5,7c2.4,7,9.5,11.1,16.8,11
	c4.1-0.1,7.6-1.8,10.8-4.3c5.5-4.4,9.8-9.8,13.3-15.9c1.8-3.2,3.2-6.7,4.9-10.4c2.7,5.1,5.4,9.9,10.8,12.3c0,0,0,0,0-0.1
	c0.7,0.5,1.4,1.3,2.2,1.4c4.3,0.9,8.6,1.4,13-0.1c9-3,16-8.4,21-16.4c1.5-2.4,3.1-4.7,4.9-7.5c0.3,1,0.5,1.6,0.7,2.2
	c1.2,3.2,2,6.7,3.8,9.5c3.2,5,7.8,7.6,14.1,7.1c3.8-0.3,6.5-1.4,7.7-5.4c0.9,5.4,2.9,10.2,7.3,13.6c4.7,3.7,11.7,4.6,14.7,1.5
	c-0.6,0.1-1,0.1-1.4,0.2c-8.3,1.5-15.7-3.2-17.9-11.3c-1.1-4.2-1.5-8.4-1.5-12.7c-0.1-7.6-0.2-15.2-0.6-22.8
	c-0.3-5.3-1.4-10.6-3.9-15.5c-1.3-2.6-2-5.4-2.2-8.3c0-0.5-0.1-1-0.2-1.5c-0.2,0-0.5,0-0.7,0c-0.1,0.9-0.5,1.8-0.4,2.6
	c0.6,2.6,0.9,5.3,2.1,7.7c2.5,5.1,3.7,10.5,4,16.1c0.3,6.1,0.2,12.2,0.2,18.3c0,0.7-0.1,1.4-0.2,2.6c-4.4-5.9-7.9-11.6-8.7-18.5
	c-0.4-3.6-0.7-7.2-1-10.9c-0.5-5.5-0.9-11.1-4.3-15.8c2.3-0.8,4.7-1.5,6.9-2.4c0.9-0.4,2.8-0.1,2-2.2c0-0.1,0.4-0.3,0.7-0.4
	c1.3-0.9,2.7-1.7,3.9-2.6c1.2-0.9,2.1-2.5,4.1-1.7c1.6,0.7,3.3,0.9,4.3,2.6c0.7,1.2,1.5,2.4,1.9,3.7c0.8,2.1,1.3,4.3,2,6.4
	c0.2,0.7,0.7,1.4,1.1,2.2c0.5-0.5,0.8-0.6,0.9-0.9c0.3-0.4,0.6-0.9,0.8-1.4c4.2-10.2,12.1-16.9,21-22.7c3.8-2.5,8.6-1.9,12.3,0.6
	c4.2,2.9,6,7.4,8.1,11.6c2.9,5.6,5.4,11.4,9.3,16.4c0.6,0.8,1,1.6,0.5,2.6c-1.7,3.7-3.4,7.4-7.2,9.5c-2,1.1-4.1,2.3-6.2,3.4
	c-0.7,0.4-1.4,0.9-2.1,1.3c0.3,0.9,0.6,1.6,0.8,1.9c0.9,0,1.5-0.1,2.5-0.1c0.4-0.5,1-1.4,1.6-2.3c-0.1,1.7-0.9,3.2-1.1,4.7
	c-0.2,1.2,0.8,2.5,0.4,3.9c1.2-2.3,2.5-4.6,3.7-6.9c0.1,0,0.2,0.1,0.3,0.1c-0.1,0.5-0.1,1-0.2,1.5c0.6-1,1.2-1.9,1.6-3
	c0.7-1.5,1.2-3.2,1.7-4.7c0.2,0.1,0.5,0.2,0.7,0.2c-1,2.9-1.9,5.8-3.1,9.1c-0.5-0.9-0.7-1.3-0.9-1.7c-1,2-2,4-3,6
	c-0.6,1.2-1.3,2.5-3.4,2.1c-1.2-2.8-2.5-5.7-3.7-8.7c-2.2-5.6-2.6-11.7-3.9-17.5c-1-4.3-2.3-8.4-3.8-12.5c-0.8-2.1-1.9-2.2-3.8-1
	c-1.3,0.9-2.5,2-3.9,2.9c-8,4.7-12.6,11.7-13.5,21c-0.4,3.6,0,7,1.4,10.4c1.9,4.6,3.7,9.3,5.5,14c2.7,7.1,2.5,14-0.9,20.8
	c-0.3,0.7-0.6,1.3-0.9,2.1c0.7,0.4,1.3,0.8,1.9,1.2c4.1-6.3,6.9-12.7,6.5-20.2c-0.3-5.5-2.3-10.4-5-15.1c-2.3-3.9-3.9-8.1-5.2-12.4
	c-1.3-4.6-0.6-8.9,2.6-12.6c1.2-1.5,2.4-3.1,3.8-4.4c2.8-2.6,5.6-5.2,9.7-6.6c0.6,1.4,1.3,2.6,1.6,3.8c1.3,5.6,2.6,11.2,3.7,16.9
	c1.4,7.3,4.1,14.1,7.6,20.7C384.5,284.3,388.3,288.4,392.6,292.1z M233.8,221.3c-1.1-1.3-1.5-4.7-1-10.3c0.4,0.2,1,0.4,1,0.6
	C233.9,214.7,233.8,217.8,233.8,221.3z M235.4,220.2c-1-2.5-0.9-4.7-0.8-7.2C236.8,214.9,236.9,215.8,235.4,220.2z M237.2,219.1
	v-3.2c0,0.1,0.8,0.1,1,0.2C239.7,217.3,238.2,217.8,237.2,219.1z M240.5,216c-0.8-0.6-1.6-1-2.1-1.6c-5.6-6-10.3-12.5-12.9-20.4
	c-0.9-2.7-1.7-5.6-1.8-8.4c-0.1-2.1,1.1-4.2,1.7-6.3c0.3,0,0.5,0.1,0.8,0.1c0.1,11.9,5.9,21,13.9,29.1c1.2,1.2,2.4,2.5,3.8,3.9
	C242.8,213.7,241.7,214.8,240.5,216z M228.2,207.3v-3.7C228.2,205.1,228.2,205.1,228.2,207.3z M222.9,195.4c0.3,3.8,0.7,7.7,1,11.5
	c-0.3,0-0.5,0-0.8,0C222.1,203.1,222.3,199.3,222.9,195.4z M222.7,188.6c0.1,0,0.5,0,0.5,0v2.1c0,0-0.2,0-0.3,0
	C222.9,190.1,222.8,189.3,222.7,188.6z M223.8,196.1c1.1,1.5,1.1,1.5,1.2,6.2c0,2.2,0,4.4,0,6.6c-0.1,0-0.2,0-0.3,0
	C224.3,204.6,224.1,200.5,223.8,196.1z M228.9,179c0.1,0.4,0.2,0.8,0.2,1.2c-0.1,1.8-0.2,3.7-0.3,5.5
	C227.3,183.4,228.4,181.2,228.9,179z M229.2,186.9v-4.5c1,0.1,1,0.2,1,0.3v4.2C230.2,186.9,230.2,186.9,229.2,186.9z M230.1,175.1
	C230.2,175.1,230.2,175.1,230.1,175.1l0.1,2c0,0,0,0-0.1,0C230.1,176.4,230.2,175.7,230.1,175.1z M232.2,180.3v14.1
	C230.2,192.6,230.2,187.3,232.2,180.3z M236.4,180.2c1.6,4.9,4.7,8.8,8.4,12.4c2.2,2.1,4.7,4.1,7.2,6.3c-0.8,1.5-1.6,3.1-2.6,5
	c-5-4.6-9.3-9.2-12.6-14.7c-2.1-3.5-2.5-7.4-3.3-11.2c-0.3-1.5-0.5-3.1-0.8-4.7c-0.4-2.2,0-2.8,3.1-4.1
	C235,172.8,235.2,176.5,236.4,180.2z M236.5,175.5c0.3-0.1,0.5-0.1,0.8-0.2c0.3,1.3,0.5,2.5,0.8,3.8c-0.3,0.1-0.6,0.1-0.9,0.2
	C237,178.1,236.8,176.8,236.5,175.5z M240.1,181c0.4-2.6,0.8-5.3,1.2-7.9c0.5,4.1,0.7,8.1-0.2,12.3c-4.2-4.5-2.2-9.1-0.7-13.6
	c-0.2,3.1-0.5,6.1-0.7,9.2C239.8,180.9,239.9,180.9,240.1,181z M259.1,174c-0.5-2-1.4-4-2.4-5.9c-1.7-3.3-4.3-5.3-8-5.6
	c-0.3,0-0.6-0.2-0.9-0.3c-0.1,0-0.2-0.1-0.8-0.6c0.2-2.3,0.2-4.7,0.7-7.1c0.9-4.4,1.9-8.8,4.4-12.6c1.1-1.6,2.7-2.9,4.2-4.3
	c1.2-1.1,2.5-0.9,3.4,0.3c1.4,1.8,2.9,3.7,3.8,5.8c0.9,2.2,1.2,4.7,1.6,7.1c1.3,8,1.1,16-0.2,23.9c-0.7,4.6-2.6,9-4,13.5
	c-0.1,0.3-0.3,0.6-0.6,0.7C260.5,183.8,260.2,178.9,259.1,174z M249.7,167.5c2.4,1.9,4,4.4,4.6,7.2c0.8,3.9,1,8,1.3,12.1
	c0.1,0.7-0.7,1.5-1,2.2c0,0,0,0,0,0c-7-4.7-10.1-11.7-11.7-19.6c-0.2-1.2,0-2.4,0-3.7C245.8,164.8,247.8,166,249.7,167.5z
	 M250.2,195.6c-1.3-3.1-0.5-5.6,0-8.2c1.6,0.5,3,1,4.4,1.5c-1,2.4-0.2,5.2-2,7.7c-1.5-2.3-0.9-4.5-0.7-7.2
	C250.2,191.5,251.2,193.6,250.2,195.6z M248.8,193.3c-0.2,0.1-0.4,0.2-0.7,0.3c-0.4-0.5-0.8-0.9-1.2-1.4c0.4-0.4,0.9-0.8,0.9-1.2
	c-0.1-1.9-0.4-3.7,0.8-5.5C249.2,188.2,248.3,190.7,248.8,193.3z M246.9,192.2c-0.4-0.4-1.1-0.7-1.1-1.1c-0.1-2.8-0.1-5.6-0.1-8.8
	c1.3,0.4,1.6,1.1,1.5,2C247,187,247,189.6,246.9,192.2z M243,176.9c0.2,0,0.5,0,0.7,0.1c-0.2,3.4-0.4,6.9-0.5,10.3l0.4,0
	c0.3-1.7,0.8-3.5,1.1-5.2c0.1,0,0.6,0,0.6,0v8c-2-1.1-3.2-2.2-3.1-3.9C242.3,183.2,242.7,180.1,243,176.9z M241.2,202.4
	c0.4,1.7,0.5,3.5,0.7,5.6c-1.7-1.4-2-4.1-1.5-11.2C242.7,198.7,240.8,200.6,241.2,202.4z M239.6,195.4c-0.2,1.4-0.2,2.9-0.4,4.3
	c0,0,0-0.1,0-0.1v-4.2C239.2,195.4,239.4,195.4,239.6,195.4z M237.2,193.7v9.4c0,0,0,0,0,0V193.7L237.2,193.7z M235.6,202.1
	c-0.5-1-1.5-2.1-1.5-3.1c-0.2-3.5-0.1-7-0.1-10.5c0.3,0,0.7-0.1,1-0.1c0.1,0.9,0.6,1.8,0.3,2.5C233.9,194.7,235.2,198.3,235.6,202.1
	z M233.2,189v7.7c0,0,0,0.1,0,0.1V189L233.2,189z M242.7,208.2c0-2.8-0.2-5.5-0.4-8.3l1-0.2c1.5,2.6-0.1,5.9,1.9,8.6v-6.2
	c3,2.5,3.3,5.1-0.1,9C243.7,210.7,242.7,209.9,242.7,208.2z M284,185.3c-0.3-0.8-0.4-1.3-0.6-1.8c0.3-0.2,0.7-0.4,1.4-0.7
	C284.5,183.8,284.3,184.4,284,185.3z M284.2,135.4c1,0.7,0,1.4,0,2.5V135.4z M280.3,130.4c0.2,0,0.4,0,0.6,0.1
	c-0.1,1.3-0.1,2.5-0.2,3.8c-0.3,0-0.5,0-0.8-0.1C280,132.9,280.1,131.6,280.3,130.4z M220.7,180.5c-2.4-14.9-0.9-29.2,5.8-42.8
	c2.4-5,5.5-9.6,9.9-12.9c4.8-3.5,9.9-7.3,16.3-6.5c6.4,0.8,12.5,3.1,17.4,7.6c6.1,5.6,10.2,12.5,12.3,20.6
	c2.6,9.7,2.2,19.5,1.4,29.3c-0.2,2.6-0.3,5.1-0.5,7.7c0,0,0,0,0.1,0c-1.3,5-2.5,9.9-4.8,14.5c-3.2,6.5-7.2,12.2-13.8,15.5
	c-5.5,2.7-11.3,4.7-17.6,3.1c-0.5-0.1-0.9-0.4-1.3-0.6c3-3.9,5.9-7.8,8.8-11.6c2.4-3.2,3.8-6.9,4.9-10.8c0.2-0.7,0.3-1.5,0.8-2.1
	c2.9-3.7,3.9-8.3,5.2-12.7c1.9-6.7,1.7-13.6,1.8-20.4c0.1-5.4-0.6-10.9-2.4-16.1c-1.1-2.9-2.7-5.5-5.5-7.3c-1.7-1-3.4-1.2-5.2-0.6
	c-3.9,1.1-6.8,3.7-8.9,7c-4.4,6.8-6.4,14.2-5.5,22.3c0,0.2-0.1,0.4-0.2,1c-8.1,3.4-13.8,9.8-17.8,18.1
	C221.3,182.2,220.8,181.4,220.7,180.5z M221.2,193.9v7c0,0,0,0,0,0V193.9C221.2,193.9,221.2,193.9,221.2,193.9z M184.5,193.7
	c1.3-1.9,2.8-3.7,4.4-5.9c0.3,0.9,0.6,1.6,0.8,2.4c1.6,5.6,4.1,10.5,8.9,14.1c3.4,2.5,7.8,2.6,11.4,0.5c3.7-2.2,6.2-5.5,8.3-10.1
	c1.2,9.2,4.5,16.7,9.5,23.5c-0.9-2.8-2.1-5.5-2-8.6c0.1-3-0.2-5.9-0.3-9.3c1.4,0.6,1.6,1.4,1.6,2.4c0.1,3.4,0.1,6.8,0.4,10.2
	c0.1,0.8,0.7,1.6,1.7,3v-9.3c0-0.1,0.5-0.1,0.7-0.2c0.5,0.9,1.4,1.7,1.5,2.6c0.4,4.3,0.5,8.5,0.8,12.9c-4.1,2.5-8.5,3.5-13,4.4
	c-6.1,1.2-11.9,0.3-17.6-1.9c-2.7-1-5.5-1.8-8.2-2.8c-3.5-1.3-6.3-3.6-8.5-6.6c-2.1-2.8-4.1-5.7-6.2-8.5c-0.5-0.6-1.2-1-1.8-1.5
	C179.4,201.3,181.9,197.5,184.5,193.7z M131.8,266.2c-1.5,5.3-2.9,10.7-4.6,16c-3.4,10.6-5.8,21.7-11.5,31.5
	c-3.2,5.5-7.1,10.4-12.1,14.3c-2.7,2.1-3.9,1.9-5.6-1.1c-3.2-5.7-3.8-11.7-1.9-18c1.5-5.3,4.4-9.9,7.2-14.6
	c5.8-9.6,13.1-17.9,21.2-25.6c2.8-2.6,5.4-5.4,8.1-8.1c0.2,0.1,0.5,0.3,0.7,0.4C132.8,262.8,132.3,264.5,131.8,266.2z M237.7,254.3
	c-1.9,1.2-4,2.3-6.3,3.7c0.5-2.6,2.9-2.3,3.9-3.6c0,0,0,0,0,0c3-1.2,5.2-2.5,8.2-4C242.2,253.4,239.5,253.1,237.7,254.3z M240.3,255
	c-0.9,0.4-1.9,0.8-2.8,1.3c-0.1-0.2-0.2-0.4-0.3-0.6c0.9-0.4,1.9-0.8,2.8-1.3C240.1,254.6,240.2,254.8,240.3,255z M235.5,254.4
	c0.2-2.1,0.2-2.1,3-2.8C237.3,252.7,236.4,253.6,235.5,254.4z M238.4,237.8c-0.9,1.3-1.8,2.5-2.7,3.8c0.4-0.2,0.7-0.3,1.1-0.5
	c0.1,0.1,0.2,0.3,0.4,0.4c-1.1,1-2.1,1.9-3.2,2.9c-0.2-0.2-0.4-0.3-0.6-0.5c0.8-0.8,1.5-1.6,2.3-2.4
	C235.3,239.5,237,238.8,238.4,237.8z M234.8,236.1c-0.6,5.7-4.2,9.2-9,12.4C225.6,241.4,229.8,235.8,234.8,236.1z M230.9,248.1
	l-2.2,1.3c0.1,0.2,0.2,0.3,0.3,0.5c1.8-0.9,3.6-1.8,5.4-2.8c-2.2,2.5-5,3.9-8.3,5.1C225.8,249.5,227.2,248.3,230.9,248.1z
	 M227.7,257.2c-0.4-1.2-0.8-2.2-1.2-3.3c7.1-1.9,11.1-6.9,13.7-13.3c0.3,0.1,0.6,0.1,0.9,0.2c0,0.9,0.4,1.9,0.1,2.6
	c-2.6,5.4-6.6,9.7-11.4,13.2C229.3,256.9,228.6,256.9,227.7,257.2z M230,262.9c2.6-1.2,5.1-2.2,7.2-3.6c2.2-1.5,4-3.5,6.5-5.1
	c-0.2,0.9-0.1,2.1-0.6,2.8c-2.9,4-7.1,6.4-11.4,9.2C231.1,264.8,230.6,264,230,262.9z M244,261.2c-0.9,0.4-1.7,0.8-2.6,1.2
	c-0.1-0.2-0.2-0.3-0.2-0.5c0.8-0.5,1.6-0.9,2.5-1.4C243.8,260.8,243.9,261,244,261.2z M222.4,293.4c-0.9-1.9-1.8-3.8-2.7-5.7
	C221.3,288.9,222,290.2,222.4,293.4z M199.4,267.8c0-0.1,0.2-0.2,0.2-0.1c0.1,0,0.1,0.2,0.3,0.4c-0.2,0.4-0.4,1-0.6,1.5
	c-0.2,0-0.3-0.1-0.5-0.1C199,268.9,199.2,268.4,199.4,267.8z M198.4,273.8c0.2,0.1,0.5,0.2,0.7,0.3c-0.4,0.9-0.9,1.7-1.3,2.6
	c-0.2-0.1-0.3-0.2-0.5-0.2C197.6,275.6,198,274.7,198.4,273.8z M159.4,242.9c0.3,3,0.6,5.9,0.9,8.9c-0.3,0-0.5,0-0.8,0.1
	c-0.3-3-0.6-5.9-0.9-8.9C158.8,243,159.1,242.9,159.4,242.9z M149.2,282.4C149.3,282.5,149.3,282.7,149.2,282.4L149.2,282.4z
	 M147.9,279.2c-1-1.2-2.1-2.6-2.5-4c-1.2-4.3-1.3-8.8,0.2-13.1c-0.3,8.4,4.1,14.1,10.5,18.7C153.2,282,149.9,281.4,147.9,279.2z
	 M155.4,271.9c0.2,0,0.3,0,0.5-0.1c0,0.6,0,1.2,0,2.3C155.7,273.1,155.6,272.5,155.4,271.9z M164.5,276.3c-2.5-1.9-4.9-3.7-7.2-5.6
	c-4.3-3.4-6.7-7.9-7.7-13.3c-0.7-3.4-0.7-3.4,1.2-5.8c0.6,5,1.9,9.5,4.7,13.3c2.8,3.8,5.7,7.6,11.4,8.5
	C165.9,274.6,165.3,275.4,164.5,276.3z M156.1,256.5c0.1,0,0.2,0,0.2,0v3.3c0,0,0,0-0.1,0C156.1,258.7,156.1,257.6,156.1,256.5z
	 M159.4,261.2c0.3,0.3,1.5,3.4,1.6,3.9c0.3,1.4,0.6,2.8,0.9,4.3C159.9,267,159.6,264.2,159.4,261.2z M162.1,264.3c0.2,0,0.4,0,0.7,0
	c0.2,1.4,0.4,2.8,0.6,4.2c-0.2,0-0.3,0-0.5,0.1C162.6,267.1,162.3,265.7,162.1,264.3z M164.1,266.1c0.3,0,0.5-0.1,0.8-0.1
	c0.3,1.7,0.5,3.4,0.8,5.2c-0.3,0-0.5-0.1-0.8-0.1C164.6,269.4,164.4,267.7,164.1,266.1z M167.6,271.2l-0.5,0.1
	c-0.3-1.3-0.5-2.6-0.8-3.9c0.2-0.1,0.4-0.2,0.7-0.2c0.2,0.3,0.5,0.7,0.6,1C167.7,269.2,167.6,270.2,167.6,271.2z M168.8,269.6
	c-0.1-0.6-0.2-1.2-0.3-1.8l0.6-0.1c0.1,0.6,0.2,1.2,0.3,1.8C169.2,269.5,169,269.6,168.8,269.6z M170.2,266.2
	c-2.2-0.1-3.9-1.1-5.4-2.5c-4.2-3.8-7.7-8.2-9.7-13.8c-0.3,0-0.6-0.1-0.8,0c-0.3,0.1-0.6,0.3-1,0.6c-0.2-0.5-0.6-1.2-0.4-1.4
	c1.3-1.6,2.7-3.2,4.4-4.7c-0.4,2.1-1.1,4.1,0,6.1c1.1,1.8,2,3.8,3.4,5.4c1.6,1.9,3.4,3.6,5.3,5c1.9,1.4,4.2,2.3,6.5,3.6
	C172.3,265.6,171.7,266.3,170.2,266.2z M166.3,254.4c0.6,1.9,1.2,3.7,1.8,5.6C166.6,259.4,166.2,258.4,166.3,254.4z M169.9,256.9
	c1.8,0.9,2,1.2,1.9,5.3C171.2,260.5,170.6,258.8,169.9,256.9z M175.4,259.8c-0.1,0-0.3-0.1-0.4-0.1c0.1-0.5,0.2-0.9,0.2-1.4
	c0.2,0.1,0.5,0.2,0.7,0.3C175.7,259,175.6,259.4,175.4,259.8z M241.4,299.9c-1.9,6.8-5.6,12.8-11.1,17.3c-3,2.5-6.3,3.6-10.4,2.6
	c-6.2-1.5-10.4-4.7-12.4-10.8c-0.8-2.3-1.6-4.6-2.6-6.9c-0.5-1.2-1.3-2.4-2.1-3.6c-2.8,1.6-4,4.1-5.6,6.4c-1.6,2.3-3.2,4.6-5.1,6.5
	c-1.7,1.7-3.9,2.7-6.6,2.7c-5.7-0.1-8.7-4.6-9.3-9.7c-1.1-9.1,0.1-18.1,3.2-26.8c2.3-6.3,5.1-12.5,6.3-19.2c0.3-1.6,0.5-3.2,0.9-4.7
	c0.4-1.5-0.2-2.4-1-3.5c-2.5,0.1-4.1,1.7-5.3,3.4c-2.1,3.1-4.5,3-7.8,2.2c-6-1.6-10.5-8.1-11.2-13.6c-0.2-1.3,0.3-2.3,1.3-3
	c6-3.9,11.8-8.2,19.2-9.2c6.8-0.9,12.4,3,13.5,9.7c1,5.8,0.3,11.6-0.5,17.3c-1.3,10-3.1,19.9-4.6,29.8c-0.4,2.6-0.4,5.3-0.3,8
	c0,0.8,0.6,2,1.2,2.3c1.2,0.5,2.4-0.1,2.9-1.3c1.3-2.6,2.8-5.1,3.6-7.8c1.1-3.9,1.8-7.9,2.6-11.9c0.7-3.7,2.4-6.9,4.8-9.7
	c2.2-2.6,4.6-2.5,6.6,0.3c0.6,0.8,1.1,1.9,1.3,2.9c0.8,3.8,1.4,7.6,2.1,11.3c1.1,6.1,2.7,11.9,7.1,16.5c1,1.1,1,2.8,3.1,3.2
	c3.5,0.7,6.3,0.3,8.3-2.6c1.2-1.8,2.3-3.9,2.8-6c1.2-5.2,0.8-10.4-1-15.5c-0.7-1.9-1.3-3.8-2-6.1c3.6-2.1,6.8-4,10.6-6.3
	c0,6.3,0.1,12.1,0.1,17.8C244.5,288.1,243,294.1,241.4,299.9z M364.3,122c2.7,3.5,4.1,7.5,4,11.9c0,5.4-0.3,10.9-0.5,16.3
	c-0.2,0-0.5,0-0.7,0.1c-0.2-1.6-0.5-3.1-0.7-4.7c-0.6-7.7-2.2-15.2-5.8-22.1c-0.8-1.6-1.7-3.2-2.9-5.3
	C360.8,118.7,362.8,120,364.3,122z M332,97.8c0.2,1.1,0.5,2.2,0.7,3.3c-0.2,0.1-0.5,0.1-0.7,0.2c-0.3-1.1-0.7-2.2-1-3.3
	C331.4,98,331.7,97.9,332,97.8z M331,122.1c-1.8,0.8-1.8,0.8-3.1-2.6C329.2,120.6,330.1,121.4,331,122.1z M328,111.1
	c0.1-0.1,0.3-0.1,0.4-0.2l0.8,1.6c-0.1,0.1-0.3,0.1-0.4,0.2L328,111.1z M327.9,99c1.4,2.3,3.1,4.6,3,7.4c-0.2,0.1-0.5,0.2-0.7,0.3
	c-0.4-1-0.8-2-1.2-3c-0.5-1.2-1.1-2.5-1.6-3.7C327.4,99.7,327.7,99.3,327.9,99z M327.1,101.3c1,2.8,2,5.6,2.9,8.4
	c-0.2,0.1-0.4,0.2-0.6,0.3c-1.2-2.8-3.1-5.2-3.1-8.4C326.6,101.4,326.8,101.3,327.1,101.3z M325.2,106.3l0.8,2.2
	c-0.2,0.1-0.3,0.1-0.5,0.2c-0.3-0.7-0.5-1.5-0.8-2.2C324.8,106.4,325,106.4,325.2,106.3z M323.7,108.8c0.9,1.2,0.9,1.2-0.8,3.3
	C323.2,111,323.4,110,323.7,108.8z M328,122.5c-0.2,0.1-0.4,0.2-0.6,0.3c-0.8-1.5-1.5-3.1-2.3-4.6c-0.8-1.5-1.7-2.9-2.3-4.6
	C325.3,116.2,326.4,119.5,328,122.5z M322.6,118.9c0.3,0.7,0.6,1.4,0.9,2c-0.2,0.1-0.4,0.2-0.6,0.3c-0.3-0.7-0.6-1.4-0.9-2.1
	C322.2,119.1,322.4,119,322.6,118.9z M315.5,97.4c-1.2-1.8-0.7-3.1,0.8-4.2C316.4,94.6,317,96.1,315.5,97.4z M317.6,102.3
	c-0.1,0.4-0.3,0.7-0.5,1c-0.2-0.1-0.4-0.2-0.6-0.3c0.2-0.5,0.4-1.1,0.9-2.3C317.5,101.7,317.6,102,317.6,102.3z M321,95.4
	c0,0.3-0.3,0.5-0.8,1.3c-0.4-1.5-0.7-2.5-1-3.5c-0.2-0.2-0.4-0.4-0.6-0.6c-0.2,0.6-0.3,1.2-0.5,1.8c-0.8-0.6-1.3-0.9-1.8-1.3
	c0.3-0.7,0.5-1.3,0.8-2C320.7,92.2,321.3,92.9,321,95.4z M311.2,88.6c2,0.8,2,1.5,0,2.9V88.6z M308.1,88.3c0.2,2,0.5,4,0.7,6
	c-0.3,0-0.5,0-0.8-0.1C308.1,92.3,306.8,90.4,308.1,88.3z M305.5,90.3c2,3.1,2.4,5.7,0.8,8.1c-0.5-2.8-0.9-5.1-1.3-7.3
	C305,90.8,305.4,90.6,305.5,90.3z M305.9,100.1c-0.3,0.1-0.7,0.1-1,0.2c-0.3-1.6-0.6-3.2-0.9-4.8c0.2,0,0.3-0.1,0.5-0.1
	C305,97,305.5,98.6,305.9,100.1z M297.7,109.9c-3-2.6-4.1-8.5-2.6-13.1c1.4-4.4,4-7.4,9.1-7.7C299.2,95.2,297.6,102.2,297.7,109.9z
	 M300.9,100.1c0.2,1.1,0.5,2.1,0.7,3.1c-0.2,0-0.3,0.1-0.5,0.1c-0.3-1-0.6-2.1-0.9-3.1C300.5,100.2,300.7,100.2,300.9,100.1z
	 M301.6,115c-0.4-1.4-0.9-2.8-1.3-4.3c0.2-0.1,0.4-0.1,0.6-0.2c0.5,1.4,1,2.8,1.5,4.2C302.1,114.9,301.9,115,301.6,115z M303,106.6
	c-0.3-1.3-0.6-2.6-0.9-4c0.2-0.1,0.5-0.2,0.7-0.3c0.3,1.4,0.6,2.7,0.9,4.1C303.5,106.5,303.2,106.5,303,106.6z M302.8,94.8
	c0.6,2.7,1.2,5.4,1.8,8.2C303,100.4,302,97.8,302.8,94.8z M308.3,118.9c-2,0-2.7-0.8-3-2.6c-1.6-9.9,2-18,8.4-25.2
	c1.6-1.8,1.7-1.7,3.5-0.1c-4.9,4-6.9,9.5-8.4,15.3C307.7,110.5,307.5,114.6,308.3,118.9z M311.3,104c0.2,0.6,0.4,1.1,0.7,1.7
	c-0.3,0.1-0.5,0.2-0.8,0.3c-0.2-0.6-0.3-1.2-0.5-1.8C310.9,104.1,311.1,104,311.3,104z M309.2,111.3c0-0.1,0.5-0.2,0.7-0.2
	c0.5,0.8,1,1.6,1.8,2.8c-1.1-0.1-1.6-0.1-2.6-0.2V111.3z M311.3,119.1c-0.4-1.4-2.6-1.9-1.7-4.5c1,1.7,1.7,2.8,2.4,4
	C311.8,118.7,311.6,118.9,311.3,119.1z M309.4,109.9c0.2-1,0.4-2,0.6-3c0.2,0,0.5,0,0.7-0.1c0.4,1,0.9,2,1.6,3.6
	C311,110.2,310.3,110,309.4,109.9z M312.9,103.8c-1.4-1.1-1-2.3-0.6-3.5C313.2,101.6,313.2,101.7,312.9,103.8z M312.4,100.1
	c0.3-0.7,0.7-1.3,1-2c0.3,0.1,0.6,0.1,0.6,0.3c0.2,0.4,0.2,0.7,0.3,1.2C313.6,99.8,313,99.9,312.4,100.1z M313.1,187.2
	c0.8,1.3,1.5,2.8,2.3,3.8h-4C312.2,191,312.7,189.3,313.1,187.2z M302.5,195.8c-2.1,1.8-4.2,3.6-6.4,5.4
	C297.4,198.4,299.6,196.8,302.5,195.8z M300.6,212c-0.2,0.3-0.4,0.7-0.6,1c-0.3-1.3-1.7-2.6-0.2-4.5C300.2,210,299,211.4,300.6,212z
	 M303.7,231.3c-0.3,0.1-0.6,0.3-0.8,0.2c-0.7-0.4-1.4-0.8-2.5-0.8c1.4,1.3,2.7,2.5,4.5,4.1c-1.3-0.4-2.2-0.5-2.8-0.9
	c-5.5-3.6-9.9-8-10.9-14.9c-0.1-0.7-0.2-1.5-0.4-2.2c-0.6-2.4-0.4-4.6,1.2-6.6c-0.2,0-0.6-0.1-0.6-0.1c0.1-1.4,2.3-6.5,3.2-7.4
	c0.1-0.1,0.4-0.1,0.8-0.2c-0.3,2.6-2.1,4.6-2.3,7.2c0.3,0,0.6,0,1.3,0.1c-0.9,2.3-0.7,4.6,0.9,6.7c0.1-1.1,0.3-2.2,0.4-3.3
	c0.1-1.1,0.2-2.2,0.3-3.4c1.8,0.1,1.8,1,1.8,2.2c0,0.8,0.7,1.6,1.3,2.8c0.5-0.8,0.8-1.2,1.1-1.6c0.5,0.1,1,0.1,1.7,0.2
	c0.9-2.3,0.6-5.2,3.7-6.1c-0.9,2.6-1.9,5.3-2.8,7.9c0.2,0.1,0.3,0.2,0.5,0.2c0.6-0.6,1.1-1.3,2-2.2c0.3,1.1,0.4,1.9,0.7,2.9
	c1-2,1.8-3.8,2.9-5.9c1.8,2.5-0.8,4.3-0.2,6.5c0.9-0.7,1.8-1.4,2.7-2.1l0.5,0.3c-0.6,1-1.1,2.1-1.7,3.1c0.1,0.1,0.2,0.2,0.4,0.3
	c0.8-0.8,1.6-1.5,2.8-2.6c0.1,2.7-2.3,3.6-2.5,5.7c0.4,0.3,0.8,0.7,1.4,1.2c-0.4,0.8-0.9,1.5-1.3,2.3c-1-0.1-2-0.3-3.5-0.4
	c1,1.2,1.6,2,2.3,2.7c-1.4,2.3-2.8-1.2-4.8,0.6c1.1,0.5,2.1,1,3.6,1.7c-2.8,1.7-4.2-0.6-6.3-0.3
	C302.5,229.9,303.1,230.5,303.7,231.3z M311.1,212.8c0.4-0.5,0.7-1.1,1.1-1.6c0.2,0.2,0.4,0.3,0.6,0.5l-1.2,1.5
	C311.4,213,311.3,212.9,311.1,212.8z M312,220.5c0.6-0.5,1.1-1.1,2.2-2.1C313.6,220.3,313.6,220.3,312,220.5z M314.5,232.9
	c0.1,0.2,0.1,0.4,0.2,0.6c-0.7,0.2-1.3,0.4-2,0.6c-0.1-0.2-0.1-0.3-0.2-0.5C313.1,233.3,313.8,233.1,314.5,232.9z M311.3,235.1
	l-1.4,0.6l-0.2-0.5c0.5-0.2,0.9-0.3,1.4-0.5C311.2,234.9,311.3,235,311.3,235.1z M273.7,275.1c-0.1-0.1-0.3-0.3-0.4-0.4
	c0.6-0.7,1.3-1.4,1.9-2c0.1,0.1,0.2,0.2,0.3,0.3C274.9,273.7,274.3,274.4,273.7,275.1z M247.2,260.6c0.4-1.7,0.7-3.3,1.1-5
	c0.3,0.1,0.5,0.1,0.8,0.2c-0.4,1.7-0.9,3.3-1.3,5C247.5,260.7,247.4,260.6,247.2,260.6z M248.5,277.1c-0.2,0-0.3-0.1-0.5-0.1
	l0.4-1.9l0.4,0.1C248.7,275.8,248.6,276.5,248.5,277.1z M247.4,269.4c0.6-2.4,1-4.1,1.6-6.1C249.4,265.6,249.2,266.3,247.4,269.4z
	 M302.1,278.3c-0.2,0-0.3-0.1-0.5-0.1c0.2-0.8,0.3-1.7,0.5-2.5c0.2,0.1,0.5,0.1,0.7,0.2C302.6,276.6,302.3,277.4,302.1,278.3z
	 M327.4,285.4c0.2,0.1,0.5,0.1,0.7,0.2c-0.2,0.6-0.5,1.2-0.7,1.8c-0.2-0.1-0.4-0.1-0.5-0.2C327,286.7,327.2,286,327.4,285.4z
	 M321.8,276.6c0.1,0,0.5,0,0.5,0v2.3c0,0-0.4,0-0.6,0.1C321.7,278.1,321.7,277.3,321.8,276.6z M318.2,262.6c2,2.8,0,5.3,0,8V262.6z
	 M327.3,292.9c1.7,1.2,1.8,2.3,0.3,3.6c-0.9,0.7-2,1.5-3.1,1.6c-6.4,0.8-12.9-2.4-15.4-8c-2.6-5.8-4.1-11.7-3.7-18
	c0.1-2.2-0.2-4.4-0.3-6.7c-1.1-0.2-1.2,0.9-1.5,1.5c-2.4,5.7-4.6,11.5-7.1,17.2c-2.5,5.6-6,10.6-10.7,14.7
	c-5.3,4.6-11.6,6.2-18.5,5.2c-1.4-0.2-2.9-0.2-4.4-0.3c-0.3-0.7-0.5-1.6-1.1-2c-6.5-4.7-9.3-11.6-10.5-19.2
	c-1.3-8.1-0.8-16.3,1.4-24.2c2.2-7.7,4.8-15.3,10.3-21.5c0.6-0.7,1.3-1.4,2-2.1c5.6-5.7,16.5-4.8,20.6,0.9c2.6,3.5,3.1,7.3,2,11.3
	c-3,9.9-7.5,18.9-14.8,26.3c-2,2.1-4.1,4-6.2,6.1c-3.2,3.2-2.5,3.1-1.2,6.4c1.3,3.4,3.9,5.4,7.3,6.1c2,0.5,3.9,0.1,5.6-1.6
	c5.6-5.5,10.1-11.6,13.5-18.6c2.2-4.7,4.3-9.5,6.4-14.3c1.9-4.4,3.7-8.9,5.6-13.3c1.8-4.2,2.7-4.7,7.6-4.5c1.6,3.2,2.6,6.6,2.5,10.3
	c-0.1,7-0.1,13.9,1.1,20.8C316.6,279.3,319.6,287.4,327.3,292.9z M313.2,238.1c-0.1-0.2-0.1-0.4-0.2-0.7c1.4-0.4,2.8-0.9,4.2-1.3
	c0.1,0.2,0.1,0.4,0.2,0.6C316,237.2,314.6,237.6,313.2,238.1z M318,217.3c-0.2-0.1-0.3-0.3-0.5-0.4c0.4-0.4,0.7-0.8,1.1-1.2
	c0.1,0.1,0.3,0.2,0.4,0.3C318.7,216.4,318.4,216.8,318,217.3z M331.1,200.1c-2.3-2.2-4.8-4.2-7.5-5.9c-1.1-0.7-2.6-2.1-4.2-0.2
	c-0.3,0.3-1.7-0.3-2.6-0.5c-0.7,4.9-1.3,5.5-5.3,4.4c-0.3-1.5-0.5-3.1-0.8-5c1.6,0,2.9,0.2,4.1-0.1c1-0.2,2.1-0.9,2.8-1.7
	c0.2-0.2-0.7-1.6-1.3-2.2c-1.1-1.2-1.3-2.6-1.3-4.2c0.1-10.1,0.2-20.1,0.3-30.2c0-9.4-0.1-18.9-0.1-28.3c0-0.8,0.1-1.7,0.1-2.5
	c2.7,0.3,5.2,0.8,7.7,1c5.8,0.3,11.5-1,17.1-2.4c4-1.1,8-2.2,12.5-3.4c-0.4,0.9-0.6,1.5-0.7,1.7c1.8,3.4,3.6,6.6,5,9.9
	c1.2,2.7,2.1,5.6,2.6,8.6c1.1,7.7,2,15.5,1.3,23.4c-1.2,12.7-4.5,24.9-10.8,36c-2.5,4.3-4.7,9-9.1,11.8c-1.2,0.8-2.5,1.4-3.9,2.2
	C335.6,207.7,334.4,203.3,331.1,200.1z M386.9,265.7c-0.1,0-0.2-0.1-0.4-0.1c0.2-0.6,0.5-1.3,0.7-1.9c0.2,0.1,0.4,0.2,0.5,0.3
	C387.5,264.5,387.2,265.1,386.9,265.7z M403.3,295.9c-1.1,0.2-1.4-0.5-1.4-1.4c0.5,0,1-0.1,1.8-0.2
	C403.6,295,403.5,295.9,403.3,295.9z M407.2,294.3c0,0-0.4,0-0.6,0c-0.1-1.2-0.1-2.4-0.1-3.6c0.2,0.1,0.7,0.2,0.7,0.2V294.3z
	 M409.2,295.7c-1,0-1,0-1,0v-4.2c0,0,0-0.1,1-0.1V295.7z M417.2,269.9c3.7,2.9,5.5,8.4,4.6,13.6c-1,6.1-3.8,10.2-8.1,11.8
	C419,287.3,418.8,278.8,417.2,269.9z M413.3,288.4c0.3,1.1,0.5,2.2,0.8,3.2c-0.2,0-0.4,0.1-0.6,0.1l-0.5-3.3
	C413.1,288.4,413.2,288.4,413.3,288.4z M411.5,285.7c0.4,2.7,0.8,5.4,1.2,8.1c-0.3,0.1-0.5,0.1-0.8,0.2c-0.3-2.7-0.7-5.5-1-8.2
	C411.2,285.8,411.3,285.8,411.5,285.7z M410.3,296.8c-1.1-3.4-0.2-6.2-0.5-8.9C411.2,292.5,411.3,293.4,410.3,296.8z M410,263.4
	c1.7,7.7,0.9,15.1-2.8,22.1c-1.6,3.1-3.6,5.9-5.4,8.9c-1,0.3-1.9,0.9-2.9,0.1c-1.9-1.3-3.9-2.5-5.9-3.8c5-3.4,8.9-7.6,11.3-12.7
	c2.4-5,4.6-10.4,3.3-16.5C409.1,261.8,409.7,262.1,410,263.4z M393.2,288.6v-2.1c0,0,0,0,0,0.1V288.6L393.2,288.6z M394.2,288.6
	c0.3-1.5,0.5-3.1,0.8-4.6c0.2,0.1,0.5,0.2,0.7,0.2c-0.3,1.5-0.6,3-0.8,4.5C394.6,288.7,394.4,288.7,394.2,288.6z M399.2,281.3v-4.9
	c0,0,0,0,0,0V281.3C399.2,281.3,399.2,281.3,399.2,281.3z M400.8,270.4c0.8,5.5,0.7,8.6-0.4,11.1C399.4,277.5,401.1,274,400.8,270.4
	z M402.2,278.9v-4.4c0,0.1,0,0.1,0,0.2V278.9C402.2,278.9,402.2,278.9,402.2,278.9z M404.7,271.5c-0.3-3.6-0.6-7.2-0.8-10.8
	C405.3,264.2,406,267.8,404.7,271.5z M403.2,269c0,2.2,1,4.4,0,6.7V269z M390.9,268.5c0.2,0.2,0.5,0.4,0.7,0.5c-0.8,1-1.5,2-2.3,3
	c-0.2-0.1-0.4-0.3-0.6-0.4C389.4,270.6,390.1,269.6,390.9,268.5z M382.9,277.8c9.7-4.3,14.6-12.7,18.2-22.1c1.5,0.5,1.7,1.4,1.5,2.8
	c-0.8,8.8-5.2,15.4-12.2,20.5c-0.6,0.4-1.2,0.8-1.9,1.3c-0.2,0.1-0.3,0.3-0.6,0.6c0.2,1.4,0.5,2.9,0.8,4.5
	C386.3,284.1,384.7,282.2,382.9,277.8z M230.2,209.7C230.2,209.7,230.2,209.7,230.2,209.7v7.9c0,0,0,0,0,0V209.7z M266.4,271.1
	c3.4-6,6.8-11.9,9.9-18c0.9-1.8,1.3-4.1,1.5-6.2c0.2-2.4-2-3.5-3.9-2.1c-2.1,1.6-4.1,3.5-5.6,5.6c-3.5,4.8-4.7,10.5-5.7,16.2
	c-0.4,2.2-0.9,4.7,1.4,7.1C264.9,272.8,265.8,272.1,266.4,271.1z M276.3,247.6c-0.8,6-4.1,10.9-7,16.4
	C268.5,258.9,272.1,250.2,276.3,247.6z M214.8,143.6c1.5-3.4,2.9-6.9,4.2-10.4c5.3-13.6,8.8-27.7,10.5-42.2c1-7.9,1.3-15.7-0.8-23.5
	c-1.3-5.1-3.7-9.6-7.7-13.1c-2.5-2.2-5.4-4-9-3.1c-6.4,1.5-12.1,4.3-16.8,9c-3.8,3.7-6.8,8.1-9,12.8c-3.1,6.5-6,13.1-8.2,19.8
	c-2.1,6.5-3.3,13.3-4.8,20c-3,13.6-4.2,27.3-4,41.1c0.2,11.4,1.3,22.6,3.3,33.8c0.2,0.9,0.2,2.1-0.2,2.6c-1.7,1.9-3.6,3.5-5.6,5.3
	c0.7-5.5,0-10.9-1.7-16.1c-1.4-4.3-3.7-8-8-9.9c-1.1-0.5-2.1-1.1-3.1-1.7c-10.3-6-21-6.9-32.1-2.9c-3.9,1.4-7.6,3.5-10.3,6.9
	c-3.9,5-2.5,10.8,3.3,13.1c3.5,1.4,7.2,2.3,11,1.6c3.9-0.7,7.7-1.6,11.5-2.8c2.1-0.6,4-1.8,6.1-2.8c0,0.6,0.1,1,0,1.4
	c-1.2,7.7-4.5,14.3-9.2,20.5c-3.9,5-12.9,4.7-16.6,0.4c-1.9-2.2-3.7-4.7-5-7.4c-1.6-3.1-3-6.4-4-9.8c-1.7-5.5-3.1-11.1-4.5-16.7
	c-0.4-1.4-0.3-2.9-0.4-4.7c6.2-1.1,11.6-4.1,17-6.9c3.4-1.8,6.8-3.6,10-5.7c5.1-3.3,9.2-7.8,13.5-12.2c6-6.2,10.7-13.1,13.6-21.2
	c3.1-8.6,2.9-16.9-2.9-24.3c-2.1-2.7-4.6-5.2-7.3-7.1c-8.5-6-17.7-9.1-28.4-7.6c-7.4,1.1-14,3.9-20.3,7.7c-6.3,3.7-11.9,8.4-17,13.6
	c-6.2,6.3-11.7,13.1-15.4,21.2c-0.4,0.8-1,1.5-1.7,2.7c-1.8-3-3.7-5.5-5-8.3c-3.1-7-6.2-14.1-8.8-21.4c-2.6-7.1-5.5-14.1-9.1-20.8
	c-3.6-6.7-9.7-9-16.5-9.2c-6.5-0.2-12,3-16.1,7.9C2.9,80.8,0,89.3,0.5,98.9c0.1,1.8,0.3,3.6,0.7,5.3c2.2,8.5,7.1,15.8,11.6,23.2
	c0.9,1.5,1.8,2.9,2.9,4.2c6,7.3,12.5,14.1,20.2,19.6c6.3,4.5,12.7,8.7,20,11.5c1.9,0.7,2.8,1.8,3.2,3.9c2.6,13.2,6.9,25.8,13,37.8
	c0.6,1.1,1.2,2.3,1.9,3.4c0.6,1,1.3,1.9,1.9,2.9c-2.9-7.7-6.5-15-9.3-22.5c-2.7-7.5-5.7-15.1-6.2-23.4c2.5,0.7,4.8,1.1,7,1.9
	c7.5,2.6,15,1.2,22.6,0.9c0.5,0,1-0.2,1.5-0.4c2-0.7,3.9-0.7,5.7-0.3c1.5,6.6,2.8,12.9,4.4,19.3c1.9,7.6,5.5,14.4,10.7,20.2
	c3.2,3.5,7.4,4.6,11.6,4.2c4.1-0.3,7.9-2.1,10.9-5.5c5.3-6.1,8.3-13.2,10-20.9c0.9-4.1,0.1-8.1-2.6-11.6c-1.2-1.6-2.7-2.6-4.8-3
	c-4.5-0.7-9-0.1-13.3,1c-1.3,0.3-2.6,1.1-3.7,1.9c-1.7,1.2-3.3,2.6-3.5,5c1.5,1.2,3,1.4,4.7,0.7c3.4-1.3,6.8-2.6,10.1-4
	c0.9-0.4,1.8-0.9,2.3-1.7c1.3-2,2.8-1.6,4.6-1c2.3,0.8,3.3,2.6,4,4.7c0.7,2,0.4,3.2-1.2,4.4c-0.5,0.4-1.1,0.6-1.7,0.9
	c-5.1,2.7-10.6,4-16.4,4.1c-3.5,0-7-0.7-10.1-2.8c-1.9-1.3-2.7-3-2.5-5.2c0.3-3.7,2.5-6.1,5.4-7.9c11.8-7.2,23.7-6.9,35.7-0.6
	c0.7,0.4,1.4,0.9,2,1.6c2.7,3,4.6,6.4,5.4,10.4c1.3,6.4,1.4,12.7-0.1,19.1c-1,4.5-2.8,8.6-6.1,11.8c-4.1,3.9-8.1,7.9-12.5,11.5
	c-10.2,8.4-21.4,13-35,8.8c-5.7-1.8-11.2-3.6-15.4-7.4c-0.4-3.6-0.5-7-1.1-10.3c-0.4-2.6-1.7-3.2-4.1-2c-2.6,1.3-5.1,2.7-7.6,4.1
	c-6.5,3.5-13,7.1-19.5,10.5c-2.3,1.2-2.8,1-4.3-0.9c-4.7-5.6-9.5-11.1-14.1-16.6c-2.4-2.8-5.4-4.8-8.8-6.3c-2.4-1.1-5-1.9-8.1-1.6
	c0.1,1.5,0.1,2.8,0.2,4.2c1.3,12.7,2.6,25.3,4,38c0.2,2-0.5,3-2.1,3.8c-4.4,2.3-8.7,4.6-13,7c-3.3,1.8-6.6,3.6-9.9,5.4
	c-1.3,0.7-2.4,1.5-1.8,3.5c5.9,1.8,11.9,3.7,17.9,5.4c3.3,0.9,6.6,1.6,10,2.2c1.9,0.3,2.8,1.2,3,3.1c0.3,2.3,0.7,4.7,1,7
	c1,8.1,2.1,16.1,3.1,24.2c0.2,1.3,0.4,2.3,2,2.6c0.6-0.3,1.2-0.8,1.8-1.1c4.9-2.7,9.4-5.9,12.4-10.8c3.6-5.8,7.4-11.6,10.8-17.5
	c1.5-2.6,3.5-3.3,6.4-2.9c6.9,1,13.8,1.8,20.7,2.7c0.8,0.1,1.7,0.2,2.5,0.2c0-0.3,0.1-0.6,0.1-0.9c-5.4-1.5-11-1.8-16.5-2.4
	c-5.6-0.6-11.2-1.5-16.3-2.2c-7.6,11-14.8,21.5-22.4,32.4c-1.6-12-3.2-23.4-4.8-35.2c-10.3-1.6-20.2-4.6-30.2-8.4
	c9.2-5.1,18.1-10,27-14.9c-1.4-14.4-2.8-28.5-4.1-42.2c1.5,1.4,3.6,2.6,4.9,4.5c5.6,7.5,12.2,14,18.7,20.7c1.8,1.8,3,2,5.3,1
	c0.8-0.3,1.6-0.7,2.3-1.1c8.2-4.5,16.5-9.1,24.7-13.6c1.5-0.8,3.2-1.6,5.5-2.7c-0.5,1.7-0.7,2.6-1.1,3.4c-2.3,5-4.6,10.1-7.1,15.1
	c-2.8,5.6-5.9,11.1-8.9,16.7c-1.2,2.3-1.2,2.8,0.6,4.8c1.1,1.3,2.5,2.4,3.6,3.6c5.3,5.7,10.6,11.5,15.9,17.2c1,1.1,2.2,2,3.6,3.4
	c1.7-4.1,0.4-7.4-1-11.1c4.4-4,8.8-8.2,13.5-12.1c7.2-6,14.7-11.8,22-17.7c4.1-3.3,7.8-7,12.1-10.1c8-5.7,14.6-12.9,20.8-20.3
	c4-4.7,8.1-9.4,12.1-14.2c3-3.5,6.2-6.8,8.8-10.6c4.7-6.9,9.1-13.9,12.8-21.5c5.9-12.1,11.9-24.2,15.5-37.3c0.7-2.5,1.6-4.9,2.3-7.3
	c2.1-6.8,3-13.8,3-20.9c0-4.2-1.2-5.6-5.2-7c-0.2-0.1-0.3-0.3-0.3-0.3c-0.9-3.2-0.3-6.1,0.5-9c-0.4,0.6-0.8,1.2-1.4,2.2
	c-0.4-2.5-0.7-4.5-1.1-6.5c0,0,0,0,0,0c1.1-3.1,2.4-6.1,3.3-9.2c1-3.3,1.6-6.6,2.4-9.9c0.1-0.3,0.4-0.5,0.8-1
	c-0.8,7.2-2.6,13.7-4.4,20.3c0.8-2,1.6-4,2.4-6c0.1,0,0.3,0.1,0.4,0.1c-0.2,1.5-0.5,3.1-0.7,4.6c0.6-1,1.1-1.9,2.1-3.5
	c-0.5,3.1-0.9,5.5-1.2,7.9c0.7-2.1,1.3-4.3,2.1-6.4c0.2-0.6-0.1-1.8,1.2-1.6c-0.1,3.5-1.8,6.9-0.7,11.1c3.5-9.4,2.6-18.3,0.5-27.4
	c3.3,0.5,5.2,2.6,7,4.7c4.5,5.3,5.8,11.8,6.6,18.4c0.6,4.8-0.4,9.6-0.8,14.4c-0.9,10.5-3.1,20.7-6.4,30.7c-2.4,7.4-5.3,14.7-7.9,22
	c-0.2,0.5-0.3,1.1-0.4,1.6C214,144.6,214.5,144.2,214.8,143.6z M37,76.9c-0.5,0.3-1,0.6-1.9,1.1c-0.2-1.3-0.4-2.4-0.5-3.4
	C36.1,74.5,36.6,75.6,37,76.9z M3,87.3c2.5-6.8,5.9-13,12.2-17.2c4.4-2.9,12.6-3.7,17.7,1.7c0.8,0.8,1.8,1.2,1.5,3.2c0,0,0,0,0,0
	c-1.2,1-0.4,2.2,0,3.6c-1.5,1-3,1.9-5,3.3c0.3-2.6,0.3-4.8,0.8-6.8c0.2-0.7,1.2-1.3,2-2.2c-2.4-0.7-4.4,0.4-6.2,1.3
	c-7.1,3.6-13.4,8.3-18.4,14.7c-1.9,2.4-3.6,5-5.5,7.6C1.6,93.3,1.9,90.2,3,87.3z M28.9,81.1c0,1-0.4,1.8-1.9,1.8
	c0.4-2.6,0.8-5,1.1-7.4c0.2,0,0.4,0,0.6,0c0.1,0.8,0.2,1.6,0.2,2.4C29,79,29,80,28.9,81.1z M25.7,85.1c-0.2,0-0.5-0.1-0.7-0.1
	c0.3-2.9,0.6-5.8,0.9-8.7l0.8,0.1C27,79.4,26.7,82.3,25.7,85.1z M22.8,86.2l1.2-6.8c0.3,3.5,1.1,7.2-3.4,9.6
	c0.9-3.9-0.1-7.7,1.6-11.1c0.3,0,0.5,0.1,0.8,0.1c-0.2,2.7-0.5,5.4-0.7,8.1C22.5,86.1,22.7,86.1,22.8,86.2z M20.5,81.9
	c-0.2,2.6-0.5,5.2-0.7,7.7c-0.2,0-0.4,0-0.6-0.1c0.3-2.6,0.5-5.2,0.8-7.7C20.2,81.9,20.4,81.9,20.5,81.9z M16.8,93.2
	c0.7-4.1-0.1-8.4,1.7-12.4C18.1,85,19.6,89.4,16.8,93.2z M14.7,95.1c0.5-4,1-8.1,1.5-12.1C16.6,87.1,16.5,91.2,14.7,95.1z
	 M13.2,97.6c0.2-4.5-0.3-9.1,1.2-13.5C14.9,88.7,14.4,93.2,13.2,97.6z M11.8,86.1c0.3,0,0.7,0.1,1,0.1c-0.9,4.6-0.2,9.4-1.1,14
	l-0.8-0.1C11.2,95.5,11.5,90.8,11.8,86.1z M10,102c-0.2,0-0.4,0-0.6,0l0.6-13.7c0.3,0,0.6,0,0.9,0C10.6,92.8,10.3,97.4,10,102z
	 M7.5,103c0,0.6-0.1,1.1-0.1,1.7c-0.1,0-0.1,0-0.2,0c0-0.6-0.1-1.2-0.1-1.7L7.5,103z M5,109.5c0.2-5.3,0.6-10.6,0.9-15.9
	c0-0.1,0.3-0.3,0.9-0.8c-0.4,6.3-0.7,12.2-1,18.1C5.5,110.4,5,109.9,5,109.5z M9.1,117.6c-0.8-0.9-1.6-1.9-2.4-2.8
	c-0.3-1.2-0.5-2.5-0.8-3.7c1.5,0.9,0.7,2.4,0.8,3.7c0.6-1.7,1.4-3.3,1.9-5c1.7-5.5,4.8-10.2,8.5-14.6c5.1-5.8,10.5-11.2,17.3-15.1
	c1.2-0.7,2.4-1.2,3.6-1.9c2.4,2,2.9,4.6,3.6,7C26.4,91.6,15,101.6,9.1,117.6z M38.1,96.9c-0.9,0.8-1.9,1.6-2.9,2.4
	c-0.8-2.4-0.6-6.2,0.9-9c0.2,2.1,0.4,4.1,0.5,6.2c0.1,0,0.2,0.1,0.4,0.1c0.1-0.6,0.3-1.2,0.5-2.4C37.8,95.3,37.9,96,38.1,96.9z
	 M33.2,91.9v8.9c0,0,0,0,0,0V91.9C33.2,91.9,33.2,91.9,33.2,91.9z M30.9,103.1c0-3.3,0-6.4,0-9.5c0,0,0.3-0.1,0.5-0.1
	C31.9,97.6,31.7,101.7,30.9,103.1z M29.4,104.8c0,0.4-0.3,0.8-0.5,1.1c-0.2-0.1-0.4-0.2-0.6-0.4c0-3.6,0-7.2,0-10.8
	c0-0.4,0.3-0.8,0.5-1.2c0.2,0.1,0.4,0.3,0.7,0.4C29.4,97.6,29.4,101.2,29.4,104.8z M26.9,108.1l-0.7-0.1V96.7
	C26.2,100.5,28.3,104.3,26.9,108.1z M25,111.4c-0.3,0-0.7,0-1,0c-0.1-0.6-0.4-1.1-0.4-1.7c0-3.3,0-6.6,0.1-9.9c0-1.1,0-2.2,1.8-2.5
	C25,102.1,26.5,106.9,25,111.4z M21.5,101.9c-0.4,5.2-0.2,10.5-0.5,15.7c-0.2,0-0.5,0-0.7,0c0-3,0-6,0-9.1c0-1.3,0-2.6-0.2-3.8
	c-0.4-3-0.4-3,2.4-5.1c1.1,7.3,0.9,13.9-0.8,16.6c0.2-5.1,0.5-9.7,0.7-14.3C22.1,101.9,21.8,101.9,21.5,101.9z M13.5,125.8
	l-0.6-13.1c1.7,4.2,1,8.7,1.5,13.1C14.1,125.8,13.8,125.8,13.5,125.8z M15,119.9c-0.2-3.4-0.4-6.7-0.6-10.1
	C15.4,113.1,15.5,116.5,15,119.9z M15,120c1.1,0.3,1,1.3,1,2.1c0,1.8,0.3,3.6,0.3,5.4V117c1,1.3,0.9,1.3,1,4.5c0,1.7,0,3.4,0.2,5.1
	c1.2-6.1-0.5-12.2,0.2-18.4c0.1,1.5,0.1,3.1,0.3,4.6c0.2,0,0.4,0,0.4,0v-9.2c2,6.3,1.8,12.5,1.5,18.8c-0.2,0-0.5,0-0.5,0v-7
	c-1,5.1,0.4,10.3-2.3,15.4C14.3,127.5,14.8,123.7,15,120z M23.8,138.7c-1.8-2.1-3.4-3.8-4.8-5.5c-0.3-0.3-0.3-1-0.2-1.5
	c1.7-5.5,2.8-11.3,5.2-16.4c2.8-5.9,7.1-11,12.3-15.1c1.9-1.5,3.9-3,5.9-4.5c0.4-0.3,0.6-0.7,0.9-1.1c-0.1-0.2-0.2-0.4-0.4-0.5
	c-1.1,0.6-2.3,1.1-3.7,1.8c-0.8-2.7-0.1-5.2,0.8-7.7l0.4,4.2c0.2,0,0.4,0,0.6,0c0.2-1.7,0.3-3.4,0.5-5.1c0.2,0,0.3,0,0.5,0
	c-0.1,1.2-0.1,2.3-0.2,3.4c0.6,0.3,1.6,0.4,1.7,0.7c1.4,5.7,2.8,11.4,4.1,17.1c0.2,0.9,0.2,1.9,0.6,2.8c0.7,1.7,0.1,2.8-1.4,3.6
	l-1.7,2.9c-0.2,0-0.4,0-0.6,0c-0.2-1.5-0.5-3-0.7-4.5c-0.2-1.8-0.5-3.6-0.6-5.4c0-0.6,0.3-1.2,0.5-1.8c0.4,1.1,0.9,2.2,1.2,3.3
	c0.5,1.7,0.9,3.4,1.4,5.1c-0.2-2.6-0.4-5.2-0.7-7.8c-0.2-1.6-0.5-1.7-1.8-0.8c0,0,0,0,0,0c-1.7,1.1-3.6,2-5,3.4
	c-6.1,5.9-10.4,13-12.9,21.1C25,132.9,24.6,135.5,23.8,138.7z M39.5,110.7c0-0.1,0.3-0.3,0.7-0.6c0.5,3.2,1,6.2,1.6,9.2
	c0.1,0.5,0.4,1,0.6,1.6c0,0,0,0,0,0c-0.2,1.2-0.4,2.4-0.6,3.8c-0.6-0.5-0.9-0.8-1.2-1.1C40.2,119.3,39.8,115,39.5,110.7z
	 M40.5,123.6C40.5,123.6,40.4,123.5,40.5,123.6c-0.1,1.3-0.1,2.7-0.2,4.1c-1.7-2.4-2.7-10.2-2.3-14.8
	C38.8,116.4,39.6,120,40.5,123.6z M41.3,108.7c0.2,0,0.4-0.1,0.6-0.1c0.1,0.6,0.3,1.1,0.4,1.7c0.4,2.3,0.9,4.6,1.1,6.9
	c0.1,1.2,1.1,3-1.1,3.6C42,116.8,41.7,112.8,41.3,108.7z M30.8,126.5c-0.1,0-0.3,0.1-0.4,0.1c-0.2-0.6-0.4-1.2-0.6-1.8l0.5-0.2
	C30.4,125.3,30.6,125.9,30.8,126.5z M27.1,142c-0.9-1-2.6-1.7-1.1-3.9c0.6,1.4,1.1,2.4,1.6,3.5C27.4,141.7,27.3,141.8,27.1,142z
	 M28.6,141.1c-1.2-2.5-2.3-5.1-2.3-7.9c0.2-0.1,0.4-0.1,0.6-0.2c0.7,2.7,1.4,5.3,2.1,8C28.9,141.1,28.6,141.2,28.6,141.1z M29,143.2
	c-0.1-0.7,0.1-1.4,0.1-2.1c0.4,0.9,0.9,1.7,1.3,2.6C29.7,144.2,29,144.3,29,143.2z M30.4,143.7C30.4,143.7,30.4,143.7,30.4,143.7
	c-0.6-2.6-1.1-5.3-1.7-8c0.2,0,0.4-0.1,0.5-0.1c0.7,2.4,1.5,4.8,2.2,7.2C31.7,143.6,31.3,144.1,30.4,143.7z M31.5,139.9
	c-1.1-4-2.1-8.1-3.2-12.1c0.4-0.1,0.7-0.2,1.1-0.3c1,4.1,1.9,8.1,2.9,12.2C32,139.8,31.8,139.9,31.5,139.9z M31.4,131.2
	c0.9,1.5,2,3,0.9,4.8C32,134.4,31.7,132.8,31.4,131.2z M37.5,140c-0.2,0-0.4,0.1-0.6,0.1c-0.3-0.4-0.7-0.9-1-1.3
	c0.3,2.2,0.5,4.4,0.8,6.5c0.2,0.9-0.2,1.1-0.9,1.2c0,0.7-0.4,1.2-0.8,0.5c-0.5-0.9-0.8-1.9-1.1-2.9c-0.6-2.7-1.1-5.3-1.7-8
	c0.4,0.4,0.9,0.7,1.1,1.1c0.5,1.2,0.9,2.4,1.3,3.7c-0.8-4.1-1.6-8.1-2.4-12.2c-0.3-1.4-0.6-2.9-0.4-4.5c0.5,1.7,1,3.5,1.5,5.2
	c0.4,1.3,0.9,2.5,1.4,3.8c-0.8-3.5-1.5-7-2.3-10.5c-0.7-3-0.7-3.1,1.9-5.9c0.7,3.1,1.3,6,2.1,9c0.2,0.9,0.7,1.7,1.1,2.5
	c-0.7-3.7-1.5-7.3-2.1-11c-0.2-0.9,0.2-1.9,0.3-2.9c0.3,0,0.5,0,0.8,0c0.2,2,0.4,4,0.7,6c0.5,3,1.1,6.1,1.5,9.1
	c0.1,0.6,1,2.2-1.1,1.7C37.7,134.1,37.6,137.1,37.5,140z M84.2,166.7c-12.8,1.5-23.9-3.4-35-8.6c-3.1-1.4-5.9-3.5-8.8-5.3
	c-1.3-0.8-1.9-1.9-2-3.4c-0.7-10.9,1.8-21,7.3-30.4c0.5-0.8,1.1-1.6,1.7-2.4c0.6-0.7,1.2-1.4,2.2-2.6c1.1,2.1,2.1,3.9,2.9,5.8
	c2.3,4.9,5.6,9.1,9.5,12.8c3.5,3.3,7.2,6.3,11.2,9.1c6.4,4.5,13.3,5.9,21,5.5c8.6-0.4,15.5-4.4,21.9-9.5c4.8-3.8,9.1-8.1,12.3-13.4
	c3.1-5.1,5.8-10.5,6.7-16.5c0.7-4.4-2-7.5-6.5-7.6c-2.9-0.1-5.5,0.8-7.9,2.3c-5.5,3.4-9.9,7.8-13,13.5c-2.5,4.6-5.3,9.1-7.4,13.8
	c-1.7,3.7-2.5,7.7-4,12.1c-1.1-0.1-2.5-0.2-3.8-0.3c-8.7-0.7-15.8-4.9-22.3-10.4c-1.3-1.1-2.2-2.6-3.2-4c-0.7-1-0.5-2,0-3
	c4.9-9.7,11.5-18,19.6-25.2c6-5.4,12.6-10,19.9-13.4c9.1-4.2,18.6-5.5,28.4-2.5c0.7,0.2,1.4,0.5,2.1,0.9
	c11.1,6.6,17.6,17.3,14.1,30.7c-2.2,8.3-6.1,15.8-10.5,23c-2.9,4.7-7.1,8.6-11.7,11.8c-7.1,4.9-14.4,9.6-22.7,12.6
	C99.1,164.5,91.8,165.8,84.2,166.7z M102.7,141.6c0.9-5,2.4-9,4.2-13c3.3-7.3,7.9-13.7,13.5-19.4c2.3-2.4,5-4.4,8-5.7
	c3.5-1.5,5.7-0.1,5.2,3.6c-0.4,3-1.2,6.1-2.5,8.8c-2,4-3.9,8-6.8,11.6c-2.8,3.4-6,6-9.8,8.1c-1.6,0.9-3.2,1.8-4.6,2.9
	C108,140.2,105.7,140.7,102.7,141.6z M123.1,175.4c-0.8-1.5,0.2-2.3,1.3-2.9c2.7-1.4,5.6-1.5,8.5-1.3
	C130.1,173.4,125.9,175.1,123.1,175.4z M53.7,287.8c0.2,0.2,0.5,0.4,0.7,0.6c-0.4,0.5-0.7,1.1-1.1,1.6c-0.4-0.3-0.7-0.6-1.1-1
	C52.8,288.6,53.3,288.2,53.7,287.8z M40.3,219.5c-0.1-0.5-0.2-1-0.4-1.5c0.1,0,0.2-0.1,0.2-0.1c0.2,0.5,0.4,0.9,0.6,1.4L40.3,219.5z
	 M79.3,258.4c-0.5-0.2-1.1-0.4-1.6-0.6c0-0.1,0.1-0.3,0.1-0.4c0.6,0.2,1.1,0.4,1.7,0.6c0.1,0,0.1,0.1,0.2,0.2
	C79.6,258.2,79.5,258.3,79.3,258.4z M85.1,263c-0.6-0.2-1.3-0.4-1.9-0.6c0-0.2,0.1-0.3,0.1-0.5c0.6,0.2,1.3,0.3,1.9,0.5
	C85.1,262.5,85.1,262.7,85.1,263z M90.2,270.2c-1.1-0.3-2.1-0.6-3.2-0.9c0-0.1,0.1-0.3,0.1-0.4c1.2,0.3,2.3,0.5,3.5,0.8
	C90.4,269.8,90.3,270,90.2,270.2z M90.5,266.2c-4.7-5.6-9.1-10.9-13.6-16.4c4.2-7.8,8.3-15.6,12.5-23.6c12.4,9.5,26,11.2,40.7,6.2
	C117,243.9,102.7,253.7,90.5,266.2z M163.1,184.8c-0.1,0-0.3-0.1-0.4-0.1c0.2-0.5,0.4-1.1,0.7-1.6c0-0.1,0.2-0.1,0.2-0.2
	c0.1,0.1,0.1,0.2,0.3,0.4C163.6,183.7,163.4,184.3,163.1,184.8z M210.4,53.9c-0.9,1.2-1.6,2.2-2.4,3.2
	C207.6,54.4,207.6,54.4,210.4,53.9z M208.3,61.2c0.2,0,0.4,0.1,0.6,0.1l-0.8,3.3l-0.4-0.1C207.9,63.4,208.1,62.3,208.3,61.2z
	 M207.5,59.8c-0.4,2.9-0.7,5.8-1.2,9.5C205,65.6,206.2,62.7,207.5,59.8z M204.5,56.4c0.8,2.2,0.7,4.4,0.1,6.5
	c-0.3,0-0.6-0.1-0.9-0.1C204,60.6,204.2,58.5,204.5,56.4z M196.2,80.9c-2.2-1.7-1.3-3.5-1.4-5c-0.2-1.6-0.2-3.2-0.3-4.8
	c-0.1-1.7-0.3-3.3-0.4-5c0.3,0,0.5,0,0.8-0.1C195.3,70.8,195.7,75.6,196.2,80.9z M196.2,67.4c0.7,1,1.2,1.3,1.2,1.6
	c0.2,4.6,0.3,9.2,0,13.9c-0.2-0.3-0.6-0.6-0.7-0.9C196.5,77.4,196.4,72.8,196.2,67.4z M191.2,69c0.4,2.3,1.1,4.6,1.5,6.9
	c0.1,0-0.5,0,0.5,0v-5.7c0,0,0.1,0,0.3,0c0.3,2.6,0.5,5.2,0.9,8.2c-2.4-0.6-3.5-1.7-3.4-3.9C191.1,72.7,189.9,70.9,191.2,69z
	 M189.4,72c0.3,1,0.5,2.1,0.8,3.1c-0.2,0.1-0.4,0.2-0.6,0.2c-0.2-1.1-0.4-2.2-0.6-3.2C189.1,72.1,189.2,72,189.4,72z M186.7,75.7
	c7,4.1,11.6,9.9,14.2,17.3c0.6,1.8-0.5,3.1-1.5,4.9c-2.6-8.2-8.4-13-15.4-17.4C185,78.7,185.8,77.3,186.7,75.7z M203.4,91.3
	c-0.4,0.4-0.8,0.8-1.6,1.5c-0.5-1.6-0.9-2.8-1.3-4c0.2-0.1,0.4-0.2,0.6-0.4c0.4,1.1,0.9,2.2,1.3,3.3
	C202.8,91.7,203.1,91.5,203.4,91.3z M202.6,83.9c1.5,1.8,1.1,3.5,1,5.4C202,87.6,202.6,85.9,202.6,83.9z M201.5,82.8
	c0.2-2.7-2.8-4.8-1.2-7.7C200.7,77.7,203.3,79.9,201.5,82.8z M200.4,88c-2.1-3-2.1-3-1.6-6.2C199.4,83.8,199.8,85.6,200.4,88z
	 M198.2,75v-3.6C199.2,72.5,199.2,72.5,198.2,75z M194.7,92.2c0.2,0,0.4,0,0.6,0c0,1.5-0.1,3.1,0,4.6c0.2,2-0.2,4,1.7,5.7
	c1.1,1-0.2,2.4-1,4.3c-0.7-3.1-2-5.2-1.4-7.9C195.1,96.9,194.7,94.5,194.7,92.2z M196.7,100.8c-0.2-1.8-0.4-3.6-0.6-5.4
	c0.3,0,0.6-0.1,0.9-0.1C198.3,97,197.3,98.9,196.7,100.8z M198.9,108.8c0.1,0.1,0.2,0.2,0.3,0.2c-0.4,0.5-0.7,1.1-1.1,1.6
	c-0.2-0.1-0.3-0.2-0.5-0.3C198,109.9,198.4,109.4,198.9,108.8z M193.2,99.8c-0.3-3.4-1.4-6.7-0.9-10.4c0.5,0.3,0.9,0.5,0.9,0.7
	C193.3,93.3,193.3,96.5,193.2,99.8z M190.5,91.7c-0.1-1.4-0.2-2.8-0.2-4.3c0.3,0.1,0.7,0.2,0.7,0.4C191,89.1,191,90.5,190.5,91.7z
	 M190.2,87.5c-0.3,0.6-0.6,1.2-0.7,1.8c-0.1,1.4,0,2.7-0.3,4.1l-1.3-7.6c0.2-0.1,0.5-0.2,0.7-0.3L190.2,87.5
	C190.2,87.4,190.2,87.4,190.2,87.5z M186.6,91.7c-0.2,0-0.5,0.1-0.7,0.1c-0.3-1.8-0.5-3.6-0.8-5.4c0.2,0,0.4-0.1,0.5-0.1
	C185.9,88.1,186.3,89.9,186.6,91.7z M184.4,88.2c0,0.8,0.1,1.6,0.1,2.4c-0.2,0-0.3,0-0.5,0c-0.1-0.8-0.1-1.6-0.2-2.3
	C184.1,88.3,184.2,88.2,184.4,88.2z M182.5,87.5c0.2,0.8,0.4,1.6,0.7,2.4c-0.1,0-0.3,0.1-0.4,0.1c-0.2-0.8-0.4-1.6-0.7-2.4
	C182.3,87.6,182.4,87.5,182.5,87.5z M186,164.7c0.1,1.9,0.5,3.8,0.8,5.8c-3.3,6-7.3,11.8-12.1,17c-1.6-2.5-3.2-12.4-3.6-23.9
	c-0.3-8.2-0.3-16.5,0-24.7c0.3-8.1,1.6-16.2,3.2-24.1c1.6-7.9,2.9-15.9,5.9-24c1.8,1,3.6,1.8,5,2.9c4.5,3.5,7.9,7.8,9.9,13.2
	c0.3,0.9,0.4,2.1,0.1,3c-3.5,10.2-5.7,20.6-7.7,31.1C186.1,148.9,185.6,156.8,186,164.7z M212,91.3c2.1,3,1.6,6.2,1.2,9.2
	c-1.5,13.4-5.7,26-10.9,38.3c-2.8,6.5-5.7,12.9-8.6,19.3c-0.2,0.4-0.5,0.8-1.3,1.2c0-0.7-0.1-1.4-0.1-2c-0.2-7.1,1-14.1,2.7-20.9
	c2.8-11,5.8-21.9,9-32.7c0.9-3.2,2.8-6.2,4.3-9.3C208.9,92.9,210.1,91.8,212,91.3z M208.4,86.5c0.1,0.3,0,0.6-0.1,1.1
	c-0.9,0.5-2,1-2.8,1.4c-1.2-4.1-2.3-8-3.4-12c-1.4-5.1-3.3-9.9-7.7-13.5c1.6-1.5,3-2.7,4.4-4.1c2.8,2.3,4.4,5.1,5.2,8.1
	C205.7,73.8,207,80.2,208.4,86.5z M209.3,67c-0.6,2.5-1.4,4.9-2.1,7.3c-0.6-1.6-0.6-3.1,0-4.8c1.2-3.3,2-6.7,3-10.1
	c0.1-0.4,0.5-0.8,0.9-1.2C210.5,61.2,210,64.1,209.3,67z M211.1,57.9c-0.6-1.2-0.2-2.3,0.9-3.3C211.7,55.7,211.4,56.8,211.1,57.9z
	 M216.1,66.4c-0.2,1-0.3,2-0.5,2.9c-0.1-1-0.2-2-0.3-3C215.5,66.4,215.8,66.4,216.1,66.4z M35.3,128.3c-0.1-2.6-0.7-5.1-1.8-7.4
	C33.8,123.4,33.6,126.1,35.3,128.3z M35.3,128.4c0,0.1,0.1,0.2,0.1,0.3C35.4,128.6,35.4,128.5,35.3,128.4
	C35.4,128.4,35.3,128.4,35.3,128.4z M35.7,132.4c0,1.1-0.1,2.2-0.1,3.3l0.2,0.1c1-2.4,0.2-4.7-0.4-7
	C35.5,129.9,35.7,131.2,35.7,132.4z M346.8,154.1c-0.1-1.9-0.1-3.9-0.3-5.8c-0.4-4.8-1.9-9.2-5.2-12.9c-3.4-3.7-8.6-3.9-11.9-0.2
	c-2.1,2.4-4.3,4.8-5.8,7.6c-4.7,8.8-6.8,18.2-5.8,28.2c0.6,5.9,2.6,11.2,7.1,15.4c2.5,2.4,6.9,3.2,9.1,1.5c1.8-1.3,3.6-2.9,4.6-4.8
	C343.7,174.2,346.6,164.5,346.8,154.1z M334.6,185.5c-2.6-1.6-3.9-4.1-4.8-6.9c-1.7-5-2.1-10.3-2.2-15.5c0-6.3,0.6-12.6,2.7-18.6
	c1.1-3.2,2.7-6,5.5-8c1.8-1.3,2.5-1.4,4.1,0.2c2.1,2.1,3.4,4.7,4.1,7.5c1.6,7,1.7,14-0.1,20.9c-1.2,4.7-2.8,9.4-4.5,14
	C338.5,181.6,337.4,184.2,334.6,185.5z M35.3,128.3c0,0.1,0,0.1,0,0.2c0,0,0.1-0.1,0.1-0.1C35.4,128.4,35.4,128.3,35.3,128.3z
	 M497.9,325.5c-0.7,0-1.7-0.2-2.4,0c-2.9,1-5.2,0.2-7.2-2c-0.8-0.9-1.9-1.6-3.5-2.8c0,1.8-0.1,2.7,0,3.6c0.4,3.3-0.6,5.7-4,6.8
	c-0.6,0.2-1,1-1.7,1.7c1,0.6,1.6,1.1,2.4,1.3c3.5,0.9,5.1,2.9,4.9,6.6c-0.1,1.6,0.1,3.4,1.9,4.4c1.6-2.9,3.2-5.7,4.9-8.7
	c2.9,0.2,5.5,0.3,8.9,0.5c-1.4-2-2.3-3.7-3.6-5C496.5,329.8,499.2,327.7,497.9,325.5z M487.3,333.2c-0.1-0.9-0.1-1.8-0.2-2.7
	c0.2,0,0.4,0,0.5,0c0.1,0.9,0.2,1.8,0.2,2.7C487.7,333.2,487.5,333.2,487.3,333.2z M509.9,332c-0.3-0.8-0.3-1.8,0-2.6
	c1-3,2.2-6,3.2-9c0.9-2.5-0.5-4.5-3.1-4.5c-1.1,0-2.1,0.3-3.1,0.5c-3.1,0.7-6.2,1.4-9.1,2.1c-3.5-3.5-6.7-6.5-9.7-9.7
	c-2.5-2.6-5.5-2.7-8.8-2c0,5.7-0.1,11,0.1,16.3c0.1,2.6-0.6,4.2-3.2,5.2c-3.3,1.3-6.4,3-10,4.8c4.3,3.8,9.9,3.3,14.2,6.2
	c0.9,5.7,1,11.6,2.5,17.7c3.8-1.3,6.8-2.6,9-5.6c2.1-2.9,4.4-5.6,6.8-8.6c4.9,1.4,9.7,2.8,14.5,4.1c1.9-3.5,2.1-6.5-0.4-9.6
	C511.3,335.8,510.6,333.8,509.9,332z M502.9,342c-2.2-0.6-4.3-1.3-6.5-2c-1.4-0.5-2.5-0.2-3.4,1.1c-1.8,2.6-3.8,5.1-5.8,7.6
	c-0.9,1.1-1.8,2.2-3.3,4.1c-0.7-4.6-1.4-8.3-1.6-12c-0.1-2.5-1.1-3.9-3.5-4.6c-2.6-0.8-5.2-1.8-7.8-2.6c0-0.3,0.2-0.6,0.2-0.8
	c3.2-1.6,6-3.2,10-4.9v-17.2c4,4.1,8.2,7.7,12.1,11.4c4.7-1.2,9.3-2.4,14.7-3.8c-1.9,4.7-3.4,8.6-5,12.6c2.5,4,5,8.1,8.1,13.1
	C507.9,343.2,505.4,342.7,502.9,342z M462.1,339.7c-0.1-0.2-0.2-0.5-0.3-0.7c-25.2,10-50.4,20-75,31.5c0.8,0.2,1.6,0.1,2.3-0.2
	c24-9.9,47.9-19.8,71.8-29.7C461.4,340.5,461.7,340,462.1,339.7z M473.7,342c-17.3,9.9-34.6,19.8-52,29.8
	C428.1,370.4,471.9,345.4,473.7,342z M451.6,370c-4,3.8-9,6.6-12.3,11.1c6.8-4.9,13.5-10,19.7-15.5c6.2-5.4,13.1-10.2,18.2-17
	c-5,2.6-8.5,7-12.9,10.4C459.8,362.4,455.6,366.1,451.6,370z"/>
</svg>
