<?xml version="1.0" encoding="utf-8"?>
<!-- Generator: Adobe Illustrator 18.0.0, SVG Export Plug-In . SVG Version: 6.00 Build 0)  -->
<!DOCTYPE svg PUBLIC "-//W3C//DTD SVG 1.1//EN" "http://www.w3.org/Graphics/SVG/1.1/DTD/svg11.dtd">
<svg version="1.1" id="Ebene_1" xmlns="http://www.w3.org/2000/svg" xmlns:xlink="http://www.w3.org/1999/xlink" x="0px" y="0px"
	 width="171.1px" height="94.5px" viewBox="0 0 171.1 94.5" enable-background="new 0 0 171.1 94.5" xml:space="preserve">
<path fill="#232323" d="M126.9,16.8c-0.5-0.3-1-0.8-1.2-0.7c-0.4,0.2-0.8,0.7-1,1.1c0,0.1,0.7,0.8,0.9,0.7
	C126,17.8,126.3,17.3,126.9,16.8z M94.5,22.8c-0.3,5.8-0.5,11.4-0.8,16.9c3.7,0.2,5.7-0.4,7.1-2.2c-1.7,0.2-3.4,0.4-5.4,0.6
	c-0.1-0.7-0.2-1.3-0.2-1.8c0.1-3.7,0.3-7.4,0.4-11.1C95.6,24.4,95.9,23.4,94.5,22.8z M110,22.6c-0.3-0.2-0.5-0.3-0.8-0.5
	c-1.6,2.2-2.6,5-4.9,7c-0.9-2.9,0.6-5.7-1-8.4c-1.2,1.7-0.4,3.4-0.6,5c-0.2,1.7-0.1,3.5-0.1,5.3c0,1.7,0,3.3,0.1,5
	c0.1,1.6-0.6,3.3,0.3,5.4c1.4-2.5,0.1-4.9,1.4-7c1.7,2,2.1,4.7,4.6,6c-0.8-3.4-2.7-6.3-4.2-9.5c1-1.4,2.1-2.6,3-4
	C108.6,25.5,109.3,24,110,22.6z M111.6,41.3c1.6-2.5,0.3-5.7,1.8-8.4c3.1,1.4,3.6,4.9,5.9,6.6c1.8-0.3,2-1.7,2.6-3
	c0.4-0.9,0.8-2,1.5-2.4c1.5-0.8,3.2-1.2,5-1.8c0.5,2.2,1,4,1.5,5.9c0.2-0.1,0.5-0.1,0.7-0.2c0.9-2.7-0.9-5.2-1.1-7.8
	c-0.2-3-0.7-6.1-2.8-9.4c-2.3,5.8-3.6,11.5-6.9,16.7c-1.3-1.9-2.5-3.7-3.8-5.6c1.7-2,3.7-4.2,2.2-7c-1.3-2.4-3.6-3.3-6.6-3.2
	C112.7,28.4,111.4,34.8,111.6,41.3z M126.3,25.2c0.2,0,0.5,0,0.7,0c0.4,1.8,0.8,3.7,1.2,5.7c-1.5,0.5-2.8,0.9-4.7,1.5
	C124.6,29.6,125.5,27.4,126.3,25.2z M113.3,27.1c0-1,0.1-2.1,0.2-3.1c2.5,0.5,3.8,1.8,3.8,3.7c-0.1,1.9-1.5,3.1-4,3.5
	C113.3,29.8,113.2,28.4,113.3,27.1z M170.8,21.7c-0.4-3.9-2.2-6.9-6-9.4c1.4,13,2.6,25.4-0.6,37.3c-9.1-0.5-17.8-1.2-26.5-1.2
	c-9,0-18,0.7-27,1.1c-4,0.2-8,0.4-12,0.9C91.1,51.1,83.6,52,76,52.9c-9,1.1-18.1,1.9-27.1,3.3c-9.1,1.4-18.1,3.5-27.1,5.3
	c-3.1,0.6-6.1,1.3-9.2,2c-0.9,0.2-1.6,0.8-2.8,1.5c2,1.2,3.6,2.1,5.2,2.9c0.3,0.1,0.8-0.1,1.1-0.1c2.8-0.6,5.5-1.3,8.3-1.8
	c8.2-1.5,16.3-3.1,24.6-4.4c9.7-1.5,19.4-2.6,29.1-3.8c0.8-0.1,1.7,0,2.8,0c0.6,3.9,1.2,7.7,1.8,11.5c0.6,3.9,1.1,7.8,1.6,11.6
	c0.5,3.7,0.5,7.4,1.8,11c0.3-1.5,0.3-3,0.1-4.5c-0.2-1.5-0.2-2.9,1.2-4c1.4-1.1,1.8-2.7,1.7-4.5c-0.3-4-0.5-8-0.8-12
	c-0.1-1.2-0.3-2.3-0.7-3.4c-0.8-2.4-1.8-2.7-4.2-1.4c-0.3-1.5-0.6-3-1-4.8c1.8-0.1,3.4-0.2,5.3-0.3c0.3,1.8,0.6,3.3,0.8,4.8
	c0.6,6.1,1.2,12.3,1.8,18.4c0.3,2.7,1.2,5.6,0.7,8.2c-0.5,2.8,0.9,4.3,2.1,6.1c-1.2-12.5-2.4-25-3.6-37.6c0.3-0.1,0.8-0.2,1.2-0.3
	c6.2-0.6,12.5-1.4,18.7-1.7c8.8-0.4,17.6-0.7,26.4-0.7c7.7,0,15.5,0.3,23.2,0.7c2.5,0.1,5.1,0.6,7.6,0.9c1,0.1,2.2,0.2,2.4-1.1
	c0.6-2.8,1-5.6,1.3-8.4c0.2-2,0.2-4.1,0.3-6.2C171,34,171.5,27.8,170.8,21.7z M43,61.3c-0.1-0.1-0.2-0.3-0.4-0.4
	c0.9-0.9,1.9-1.7,2.8-2.6c0.2,0.1,0.3,0.3,0.5,0.4L43,61.3z M58.6,58.6c-0.1-0.1-0.2-0.3-0.4-0.4c0.7-0.6,1.3-1.2,2-1.8
	c0.1,0.1,0.3,0.3,0.4,0.4C60,57.4,59.3,58,58.6,58.6z M63.8,58c1.1-1,2.2-1.9,3.4-3C66.6,56.7,65.7,57.8,63.8,58z M67.3,57.4
	c1-0.9,2.1-1.9,3.1-2.8c0.2,0.2,0.4,0.5,0.6,0.7c-1.1,0.9-2.1,1.8-3.2,2.7C67.7,57.7,67.5,57.6,67.3,57.4z M70.3,57.4
	c0.9-0.6,1.5-1,2.1-1.5C72.7,57.3,72.1,57.7,70.3,57.4z M72.6,55.9c0.5-0.4,1.1-0.9,1.7-1.3C74.1,55.6,73.5,55.9,72.6,55.9z
	 M74.6,57.1l-0.3-0.5c0.5-0.4,1-0.7,1.6-1.1c0.1,0.1,0.2,0.3,0.3,0.4C75.6,56.3,75.1,56.7,74.6,57.1z M87.4,79.1c0.1,0,0.2,0,0.3,0
	v2.1c-0.1,0-0.2,0-0.3,0V79.1z M86.3,82.9c-0.8-2.7-1.2-5.4-0.9-8.2c0.3,0,0.6,0.1,1,0.1c0.1,0.3,0.2,0.5,0.2,0.8
	C86.5,78,86.5,80.4,86.3,82.9z M85.4,62.2c0.6,1.6,1,2.8,1.5,3.9c-0.1,0.1-0.3,0.2-0.4,0.2c-0.6-0.6-1.2-1.1-2.3-2.1
	c0.5,2.9,0.8,5.1,1.2,7.4c-0.2,0-0.4,0-0.7,0C84.4,68.8,82.3,65.8,85.4,62.2z M93.9,53c-0.1-0.2-0.2-0.4-0.2-0.6
	c0.6-0.2,1.1-0.4,1.7-0.6c0.1,0.1,0.1,0.3,0.2,0.4C95,52.4,94.4,52.7,93.9,53z M100.4,54.3c-0.1-0.2-0.2-0.4-0.4-0.7
	c1.1-0.6,2.2-1.2,3.3-1.9C102.7,53.3,101.8,54.2,100.4,54.3z M135.1,52.2c-0.5,0.3-1.1,0.5-1.7,0.8c-0.1-0.1-0.1-0.2-0.2-0.4
	c0.6-0.4,1.3-0.8,2.3-1.3C135.3,51.8,135.3,52.1,135.1,52.2z M141.8,52.7c1.7-1,3.4-2.1,5.1-3.1C145.5,51.2,144,52.6,141.8,52.7z
	 M153.4,53.3c1.3-1.7,1.9-0.5,2.9,0H153.4z M158.1,53.4c0.2-1.6,1.4-1.5,2.5-1.7C159.8,52.3,158.9,52.8,158.1,53.4z M167.6,30.7
	c0.3,0,0.6,0.1,0.9,0.1c-0.3,0.9-0.5,1.9-0.8,2.8c-0.1,0-0.2,0-0.3,0C167.5,32.6,167.5,31.6,167.6,30.7z M167,51
	c0.5-1.3,0.9-2.4,1.3-3.5C168.8,49.8,168.8,49.8,167,51z M168.1,46.1c-0.2-0.1-0.4-0.2-0.5-0.3c0.3-0.5,0.6-1.1,0.9-1.6
	c0.2,0.1,0.4,0.2,0.7,0.3C168.8,45.1,168.4,45.6,168.1,46.1z M90,16.7c-0.5,0.3-1,0.7-1.4,1.1c0.3,0.3,0.7,1,0.8,0.9
	c0.5-0.2,1-0.6,1.7-1.1C90.6,17.2,90.2,16.6,90,16.7z M158.9,22.2c0-0.1,0-0.2-0.1-0.4h-7.7c-0.7,5.9-1.3,11.7-2,17.8
	c3.7-0.7,6.9-1.1,9.6-3.3c-2.5,0.4-5.1,0.8-8.1,1.3c0.4-2.5,0.6-4.5,0.9-6.3c2.1-0.7,3.9-1.4,5.7-2c0-0.2-0.1-0.3-0.1-0.5
	c-1.7,0.1-3.3,0.3-5.3,0.4c0.2-2,0.3-3.8,0.4-5.5C154.6,23.3,156.8,22.7,158.9,22.2z M3.3,49.5c-1.4-5.4-1.7-11-1.9-16.6
	c-0.1-2.2,0.2-4.4,0.4-6.7c1.2-0.4,2.1-0.8,3-1c7.2-1.8,14.4-3.7,21.7-5.3c6.9-1.5,13.8-2.6,20.8-3.8C53.8,15,60.4,13.7,67,13
	c9.7-1,19.5-1.8,29.3-2.3c8.5-0.5,17-0.7,25.5-0.7c8.4,0,16.8,0.4,25.2,0.7c3.5,0.1,7,0.7,10.5,1c2.2,0.2,4.5,0,7.3,0
	c-0.8-0.4-1.1-0.7-1.5-0.7c-26.3-3-52.6-2.6-79.2-0.9c-0.2-2.3-0.3-4.3-0.5-6.3c-0.3-2.9-3.5-4.6-6.1-3.4c-0.4,0.2-0.7,0.9-1.2,1.6
	c1.5-0.1,2.5-0.2,3.3-0.2c0.3,3,0.6,5.7,0.9,8.6h-2.2c-1.8-2.1,0-5.2-2.8-6.8c0.3,2.3,0.7,4.6,1,7c-1.1,0.2-1.9,0.4-2.8,0.5
	c-11.6,1.7-23.3,3.1-34.9,5.2C28.3,18.1,17.9,20.6,7.5,23C5,23.6,2.6,24.6,0,25.4c0,2.4,0,4.5,0,6.5c0.1,2.7,0.1,5.5,0.3,8.2
	c0.4,3.6,0.8,7.2,1.5,10.7c0.7,3.5,1.6,7,2.6,10.5c0.6,2,1.2,2.2,3.4,1.9c-0.7-1.2-1.7-2.5-2.1-3.9C4.7,56.2,4.2,52.8,3.3,49.5z
	 M135.5,38c0.4-3,0.8-5.7,1.1-8.2c1.2-0.6,2.3-1.1,3.8-1.8c-1.6-0.2-2.5-0.3-3.7-0.4c0.1-1.5,0.3-2.8,0.4-4.2
	c1.6-0.3,2.9-0.5,4.7-0.9c-3.4-1.3-8-0.8-9.7,0.9c1.2,0.2,2.3,0.3,3.5,0.5c-0.1,1.3-0.1,2.5-0.2,3.3c-1.1,1.1-3.1-0.1-3.3,2.2
	c1,0.1,1.9,0.2,3,0.4c-0.1,1.5-0.1,2.9-0.3,4.2C134.7,35.3,133.8,36.7,135.5,38z M143.8,37.5c0.9-4.5-0.3-9.1,1.3-13.5
	c1.7-0.3,3.2-0.6,4.8-0.9c0-0.2-0.1-0.4-0.1-0.6c-4.6-0.5-8.4,0.5-10,2.7c1.2-0.1,2.2-0.2,3.3-0.4c0,2.2,0,4.3,0,6.5
	C143.1,33.4,142.5,35.6,143.8,37.5z M130.4,15.8c-0.4,0.2-0.9,0.5-1.2,0.9c-0.1,0.2,0.4,0.7,0.8,1.3c0.5-0.7,0.8-1.1,1-1.5
	C131,16.3,130.4,15.7,130.4,15.8z M39.5,23.9c-0.4,0.5-0.8,0.8-0.9,1.1c0,0.2,0.5,0.8,0.6,0.7c0.4-0.1,0.7-0.4,1.1-0.6
	C40.1,24.8,39.8,24.4,39.5,23.9z M38.7,30.1c-0.1,5.8-0.3,11.6,0.4,17.3c0.2,0,0.5-0.1,0.7-0.1V29.1C39.2,29.7,38.7,29.9,38.7,30.1z
	 M34.9,31.7c0.6,0.1,1.2,0.3,2,0.5c-1.1-2-1.9-2.5-3.5-1.9c-0.9,0.3-1.8,0.9-2.5,1.5c-2.3,1.8-2.6,4.3-0.9,6.7
	c0.6,0.9,1.3,1.7,1.9,2.6c2.1,3.2,1.2,6.3-2.3,8c-1.3,0.6-2.3,0.7-2.9-0.9c-0.3,1.4-0.3,3.1,1.2,2.8c4.6-0.9,7.5-4.9,5.8-8.9
	c-0.6-1.5-1.7-2.8-2.6-4.2c-0.9-1.3-1.3-2.7-0.3-4.1C31.9,32.3,33.2,31.5,34.9,31.7z M23.2,31.8c1-0.4,2-0.8,3.5-1.3
	c-2.9-1-4.7,0.5-7.1,0.9c0,2.7,0,5.1,0,7.6c0,3.7-0.1,7.4-0.2,11.2c0,1.1,0.1,2.3,1.4,2.1c1.5-0.2,3.2-0.3,4.4-2.3
	c-1.6,0.2-2.8,0.3-4.4,0.5c0-2.7-0.1-5.1,0.1-7.5c0-0.5,0.7-1.1,1.1-1.5c1.1-0.9,2.2-1.8,3.3-2.7c-0.1-0.2-0.2-0.3-0.3-0.5
	c-1.4,0.5-2.7,1.1-4.4,1.7c0.1-1.9,0.5-3.4,0.3-5C20.7,33.1,21.7,32.3,23.2,31.8z M11.2,54.8c5.2-1.1,6.7-8,2.9-13.3
	c0.4-1.4,1-2.7,1.3-4.2c0.3-1.8-0.2-3.4-1.7-4.4c-1.4-0.9-2.8-0.5-4.2,0.6C8.9,40.6,11.7,47.6,11.2,54.8z M12.7,52.4
	c-0.3-2.1-0.8-4.1-0.9-6.1c0-0.9,0.9-1.7,1.5-2.9C16,46.8,15.7,49.9,12.7,52.4z M11.3,42.7c-0.2-2.7-0.4-5.5-0.6-8.5
	c2.7,0.1,3.7,0.8,3.5,2.8C13.9,39.2,12.9,41,11.3,42.7z M76.1,40.8c1.3-5.1-0.1-10.3-0.2-15.4c0-0.6-0.5-1.2-0.7-1.9
	c-0.2,0.1-0.4,0.1-0.5,0.2v9.2c-1.2,0.2-2.5,0.4-3.9,0.6c-0.4-3.1-0.8-5.9-1.2-8.6c-0.4,0-0.7,0.1-1.1,0.1c-0.4,3.1,0.9,6.2,0.7,9.3
	c-0.2,2.4,1.8,7.4,3.2,8.5c-0.4-2.5-0.8-4.9-1.3-7.3c1.4-0.6,2.5-1.4,4.2-1.2v6.4C75.6,40.8,75.9,40.8,76.1,40.8z M77.8,23
	c-0.1,1-0.3,2-0.2,2.8c0.2,3,0.6,6,0.8,9c0.1,1.8,0.1,3.5,0.1,5.3c0,1.2,0.7,2,1.9,1.6c1.8-0.6,3.5-1.3,5-3.6
	c-2.1,0.7-3.5,1.2-5.3,1.9c-0.1-2.8-0.3-5.4-0.4-7.9c2.1-1.6,5-0.6,6.5-2.9c-2.2,0.1-4.2,0.2-6.3,0.3c-0.2-1.7-0.4-3.1-0.6-4.6
	c2.3-0.5,4.8,0.3,7-1.3C83.4,23.4,80.8,23.2,77.8,23z M88.6,23c0,5.5,0,10.7,0,15.8c0,0.3,0.3,0.6,0.7,1.1c0.3-1.2,0.6-2,0.6-2.8
	c0-3.7,0.1-7.4-0.1-11.1C89.9,25,89.9,23.9,88.6,23z M48.6,27.9c-3.9,0.1-6.9,0.9-7.9,2.3c1,0.1,1.9,0.2,2.9,0.3
	c0.2,2.6,0.4,5.3,0.6,7.9c0.2,2.6-0.2,5.3,0.8,7.8c0.7-5.3,0.2-10.6,0-15.9C46.1,29,48.1,29.8,48.6,27.9z M64.3,26.5
	c-2.2,0-4.4,0-6.6,0c-0.3,0-0.8,0.6-0.8,0.7c0.2,0.4,0.5,0.9,0.8,1c0.8,0.2,1.7,0.2,2.9,0.3c0.1,3,0,5.9,0.2,8.8
	c0.2,2.9-0.6,5.9,0.7,8.7c0.7-5.8,0.5-11.7,0.5-17.6c0.8-0.4,1.5-0.8,2.3-1.2C64.3,26.9,64.3,26.7,64.3,26.5z M48.6,48.7
	c3.1,0.1,5.8-0.8,8.3-3.3c-2.9-0.1-4.9,2.2-7.8,1.3c2.3-3.7,2.5-8.7,7.6-10.1c0.1,0,0.1-0.2,0.2-0.4c-0.6-0.1-1.2-0.2-1.9-0.3
	c0.5-1.8,1.2-3.4,1.5-5.1c0.3-1.4-0.5-2.4-1.9-2.9c-1.4-0.5-2.7,0-3.6,1.4c0.8,0,1.4,0,2.1,0c2.1,0,2.7,0.8,2,2.7
	c-1,2.6-1.9,5.2-5.4,5.2c-0.2,0-0.4,0.3-0.6,0.4c0,1.9,1.5,0.5,2.3,1.2c-0.2,0.6-0.4,1.2-0.7,1.8c-1,2-2.1,4-3,6
	C47,47.8,47.4,48.6,48.6,48.7z"/>
</svg>
