<?xml version="1.0" encoding="utf-8"?>
<!-- Generator: Adobe Illustrator 18.0.0, SVG Export Plug-In . SVG Version: 6.00 Build 0)  -->
<!DOCTYPE svg PUBLIC "-//W3C//DTD SVG 1.1//EN" "http://www.w3.org/Graphics/SVG/1.1/DTD/svg11.dtd">
<svg version="1.1" id="Ebene_1" xmlns="http://www.w3.org/2000/svg" xmlns:xlink="http://www.w3.org/1999/xlink" x="0px" y="0px"
	 width="90.9px" height="121.7px" viewBox="0 0 90.9 121.7" enable-background="new 0 0 90.9 121.7" xml:space="preserve">
<path fill="#232323" d="M89.8,20.2c-0.3,0.3-0.7,0.5-0.9,0.8c-2.6,3.7-6,6.4-9.8,8.7c-3,1.8-5.4,4.1-7.1,7.2c-0.2,0.4-0.5,0.7-0.8,1
	c-0.7-0.6-1.3-1.2-2-1.8c-3.8,2.7-4.9,7.2-7.3,10.7c-0.8-1.1-1.5-2.1-2.5-3.4c-4,4.9-7.3,9.8-9.9,15.4c-4-6.7-7.8-13-14.8-17.1
	c0.2,1.7,0.3,2.9,0.4,4.5c-3.5-4-7.7-6.7-12.6-8c0.5,2.3,1,4.3,1.6,6.7c-7-4.8-20.2-9.7-24.1-9.2C0.1,36,0,36.2,0,36.4
	c0.1,0.3,0.3,0.6,0.5,0.8c2.4,2.3,3.6,5.3,4.6,8.4c1.6,4.9,3.4,9.7,8.2,12.8c-3.2,1-3.2,1.2-2,3.8c1.4,3,4,4.4,6.6,5.7
	c-0.9,2.3-0.9,3.2,0.8,4.5c2.6,2.1,5.2,4.2,8.7,4.4c0.7,0,1.4,0.4,2.3,0.7c-1.5,3.5-0.5,6.6,1.4,9.6c-4,1.4-5.9,4.1-5.9,7.9
	c0.1,3.4,3.1,7.4,6,8c4.9,1,7.8-1.9,10.1-5.7c2.9,1.8,5.8,2.9,9.1,1.2c3.5-1.8,3.4-5.1,3.6-8.2c4.1-1.3,4.2-1.4,7.5-7.5
	c12.6,0.5,23.8-11.4,25.7-22.7c-0.8-0.6-1.7-1.1-2.2-1.5c1.8-3.2,3.5-6.2,5.3-9.4c-1.8-0.8-3.2-1.4-4.7-2c2.5-4.3,4.8-8.3,5.1-13.1
	C91.2,28.4,90.8,22.3,89.8,20.2z M80.5,30c1.5,2.3,1.7,5.7,1,10c-0.4-0.2-0.9-0.4-0.9-0.6C80.5,36.5,80.5,33.5,80.5,30z M78.5,32.5
	c0.7,3.6,1.6,7.2,0,10.8V32.5z M76.2,33.6c0.3,0,0.6,0,0.9,0.1c0,4.2,0,8.4,0,12.6c0,0.2-0.5,0.4-0.9,0.7V33.6z M74.6,35.2
	c0.9,4.9,0.6,9.1,0.7,13.2c0,0.2-0.5,0.5-1.1,1c-0.2-3.6-0.3-6.8-0.5-10c0-0.2-0.6-0.3-1.2-0.6C73.1,37.7,73.7,36.7,74.6,35.2z
	 M71.9,44.6c0.1-1.1,0.3-2.2,0.5-3.4c1.3,2.9,1.3,7.7-0.4,10.4c0-1,0-2.1,0-3.1C71.9,47.2,71.8,45.9,71.9,44.6z M70.3,44.3
	c0.8,3.4,0.6,6.9,0.2,10.3C69.4,51.2,70.2,47.7,70.3,44.3z M68,39.8c0.3,0.6,0.6,1.1,0.7,1.6c0.3,3.5,0.5,7,0.6,10.5
	c0,1.2,0.3,2.1,1.2,2.7c0,0,0,0,0,0c-0.7,0.4-1.4,0.7-2.5,1.3V39.8z M66.2,42.8c1,1.6,1.2,11.4,0,14.7V42.8z M62.9,50.8
	c0.3,2.6,0.6,5.2,0.8,7.9c0.1,0,0.2,0,0.3,0V46.1c0.2-0.2,0.5-0.3,0.7-0.5c0.1,0.3,0.1,0.6,0.2,0.9c0.2,3.7,0.6,7.5,0.7,11.2
	c0,0.9-0.6,1.9-1.1,2.8c-0.5,0.9-1.3,1.8-2.3,3.2C61.4,59,62.3,54.9,62.9,50.8z M60.2,50.6c0.9,1.5,0.9,1.5,0.8,7.6
	c-0.1,2.7,0.6,5.4,0.1,8.1c-0.3,0-0.6,0-0.9,0V50.6z M6.9,47.3c-0.5-2.6-1-5.3-1.5-7.9c0.2,0,0.5-0.1,0.7-0.1
	c0.5,2.6,1.1,5.3,1.6,7.9C7.4,47.2,7.2,47.3,6.9,47.3z M14,63.5c-0.2-0.9-0.4-1.8-0.6-2.6c0.3,0,0.7-0.1,1-0.1
	c0.1,0.9,0.1,1.7,0.2,2.6C14.4,63.4,14.2,63.5,14,63.5z M16.5,64.7c-0.1,0-0.3,0-0.4,0c-0.1-1.2-0.3-2.4-0.4-3.5
	c0.3-0.1,0.5-0.1,0.8-0.2V64.7z M18.3,65.2C18.1,64.3,18,64,18,63.7c0.1-3.2-0.9-5.4-4-6.9c-3.2-1.6-5.2-4.4-5.6-8.1
	C8.1,45.8,7.8,43,8,40c0.5,3.2,1.1,6.5,1.6,9.7c0.4-3.3-1-6.6,0.5-9.9l1.6,8.7c0.1,0,0.2,0,0.4,0c-0.2-2.7-0.4-5.4-0.6-8.2
	c5.2,1.2,9.2,4.2,13.3,7.4c1.5-2.4-0.4-4.4-0.1-6.6c2.7,0.4,4.7,2,6.8,3.4c2.1,1.3,2.4,4.3,5.3,5.8v-4.6c1.6,0.8,2.9,1.6,3.8,2.8
	c2.2,3,4.6,6,6.5,9.1c1.2,2,2,4.2,1.6,6.7c-0.4,2.3,0.4,4.6-0.9,6.9c-0.4,0.7,0.1,2,0.2,3c-0.2,0-0.3,0.1-0.5,0.1
	c-0.6-2.2-1.2-4.4-1.8-6.9c-1.5,1.8,0,3.5-0.8,5.3c-0.5-1.7-1-3.4-1.7-5.6c-0.2,1.3-0.4,2.2-0.5,3.1c-0.1,0-0.4-0.1-0.4-0.1
	c-0.3-1.5-0.7-3.1-1.1-4.9c-0.2-0.2-0.8-0.6-1.2-1.1c-5-6.3-11.9-10-18.7-13.9c-1.5-0.8-2.8-1.6-4.6-0.7
	C16.8,54.5,19.3,59.4,18.3,65.2z M46.5,83.3c-0.1,0.3-0.1,0.6-0.2,0.9c-0.2,0.3-0.4,0.6-0.7,0.9c-0.2-0.1-0.3-0.2-0.5-0.3
	c0.3-0.5,0.6-1.1,0.9-1.6C46.2,83.2,46.3,83.3,46.5,83.3z M36.7,71.5l-1.1-0.2c-0.1-1.4-0.4-2.7-0.4-4.1c0.1-1.3-0.4-2-1.3-2.7
	c-3.5-2.5-5.7-6-8.5-9.3c2.4,0.1,5.5,1.6,8.1,4c2.5,2.2,4.9,4.5,7.3,6.8c-0.2,0.7-0.4,1.6-0.8,2.9c-0.2-1.2-0.4-1.9-0.5-2.5
	c-0.2,0-0.3,0-0.5,0v4.8c-1.9-2.3-1.3-4.7-2.3-6.8C35.5,66.8,37.5,69.3,36.7,71.5z M34.1,69.4c-0.2,0-0.4,0-0.7,0.1
	c-0.1-1-0.3-2-0.4-3c0.3,0,0.6,0,0.9,0C33.9,67.5,34,68.5,34.1,69.4z M31.6,66.9c-0.2,0-0.4,0.1-0.6,0.1c-0.1-0.8-0.1-1.5-0.2-2.3
	c0.1,0,0.3,0,0.4-0.1C31.3,65.4,31.5,66.2,31.6,66.9z M41.3,77.8c0.1,0.1,0.2,0.2,0.4,0.3c-0.6,0.8-1.2,1.6-1.8,2.4
	c-0.4,0-0.8-0.1-1.1-0.1c0.3-0.4,0.6-0.7,0.8-1.1c0,0,0,0,0,0C40.1,78.8,40.7,78.3,41.3,77.8z M42.1,79.6c-0.2,0.6-0.3,1.1-0.4,1.6
	c-0.6-0.2-1.8,1.2-1.9-0.6C40.5,80.3,41.2,80,42.1,79.6z M41.7,81.3c1.1,0.6,0.4,1.2,0,1.8c-0.4-0.1-0.8-0.1-1.2-0.2
	C40.9,82.3,41.3,81.8,41.7,81.3z M21.4,60.1c-0.3,0-0.5,0.1-0.8,0.1l-0.8-4.7l1,0C21,57,21.2,58.6,21.4,60.1z M18.6,57.6
	c0-0.8-0.1-1.7-0.1-2.5c0.2,0,0.3,0,0.5,0c0,0.8,0.1,1.7,0.1,2.5L18.6,57.6z M25.5,71.2c-0.5-1.3-0.9-2.6-1.4-3.8c0,2.1,0,4.3,0,6.5
	c-0.2,0-0.4,0.1-0.6,0.1c-0.4-1.2-0.8-2.4-1.4-4.2c-0.4,1.1-0.6,1.7-1,2.6c-0.8-0.7-1.4-1.2-2.4-2c1.6-0.7,2.8-1.2,4.3-1.9
	c-0.4-4.8-0.7-9.8-1.1-14.7c0.2,0,0.3,0,0.5-0.1c0.4,3.6,0.8,7.1,1.3,10.7c0.1,1,0.4,2,0.5,3.1v-7c0.2,0,0.4,0,0.6,0
	c0.4,3.6,0.8,7.1,1.1,10.7C25.8,71.2,25.6,71.2,25.5,71.2z M27.6,71.1c-0.3,0-0.6,0-0.8,0.1c-0.3-4.2-0.6-8.3-0.9-12.5
	C27.6,62.7,27.8,66.9,27.6,71.1z M30.2,74.5c0,0.4-0.2,0.8-0.3,1.2l-0.7-0.6l-0.8-13C30.2,66,30.3,70.3,30.2,74.5z M36.3,99.5
	c0.4,0.7-2.4,2.4-3.7,2.1c-4.7-1-7.2-7.3-4.5-11.2c0.9-1.3,2.6-1.9,4.2-1.5c1.6,0.4,2.2,1.3,2.2,3.4c0,0.7,0.1,1.5,0.2,2.2
	c1.7-0.5,0.4,2.3,2.3,1.6C36.8,97.5,35.4,98,36.3,99.5z M40.4,87.9c-4.9,2.1-9.5-1.3-9.6-7.1c-0.1-4.1,2.4-6.3,5.9-8
	c0.9,1.2-1.1,2.8,0.9,4c0.8-1.2,1.7-2.4,2.6-3.6c-0.4,2.1-0.9,4.1-0.6,6.1c-1.7-0.5-3.5-1.6-4.8,0.6c-0.4,0.6-0.5,1.3-0.7,1.9
	c0.7,0.2,1.5,0.8,2.2,0.6c2.5-0.5,2.5-0.5,3.6,1.9c0.6-0.4,1.2-0.7,1.8-1.1c0,0,0,0,0,0c0.3,0.3,0.5,0.6,0.8,1
	c-0.6,0.4-1.2,0.7-1.7,1.1C42.3,87.1,42.3,87.1,40.4,87.9z M37,80.5c-0.4,0.3-0.9,0.6-1.3,0.9c-0.2-0.2-0.3-0.4-0.5-0.7
	c0.4-0.3,0.8-0.6,1.3-0.8C36.6,79.8,36.8,80.2,37,80.5z M47.8,97.7c-1.4-0.1-3-0.4-4.2-1.1c-1.7-1-1.1-3.3,1.6-6.1
	c1.6,1.8,3.3,3.7,5.2,5.8C49.3,96.9,48.6,97.8,47.8,97.7z M50.1,76.2c-0.3-0.7-0.5-1.5-0.8-2.2c0.2-0.1,0.5-0.1,0.7-0.2
	c0.2,0.7,0.4,1.5,0.6,2.2C50.4,76.1,50.3,76.2,50.1,76.2z M54.3,85.8c0.7,0.5,1.5,1,2.5,1.7C55,87.3,55,87.3,54.3,85.8z M58.8,83.9
	c-0.3,0.3-1.1,0.2-1.7,0.2c-0.1-0.3-0.2-0.5-0.3-0.8c0.2-0.3,0.5-0.7,0.7-1c0.7-1.8-0.1-3-2-2.7c-1.1,0.2-2.2,0.6-3.4,0.9
	c-0.9-1.6,0.2-2.2,1.3-2.7c2.1-1,4.4-0.4,5.7,1.4C60.2,80.8,60.1,82.5,58.8,83.9z M83.3,48.2c1.1,0.6,1.8,1,2.5,1.3
	c0.7,0.3,1.4,0.3,2.4,0.6c-0.9,1.8-1.5,3.6-2.6,5c-1.1,1.4-2.7,2.3-4.4,3.8c1.6,1,2.9,1.8,4.1,2.6c-2.7,10.8-12.8,20.3-23.3,20
	c-0.8-1.3-1.5-2.8-2.6-3.9c-1-0.9-2.5-1.7-3.7-1.7c-1.3,0-2.1-0.3-2.7-1.1c-0.5-0.6-1-1.4-1.1-2.2c-0.2-4.1-0.4-8.1-0.5-12.2
	c0-0.6,0.2-1.2,0.3-1.7c0.2,0,0.4,0,0.6,0v13.4c0.3,0,0.5,0,0.8,0V56c0.9,3.2,1.6,6.4,1,9.7c-0.2,1-0.8,2.4,0.8,2.9V52.8
	c0.2,0,0.4,0,0.6,0c0.3,3.5,0.6,7,0.8,10.4c0.2,3.5,0.1,7,0.5,10.5V50.3c0.1,0,0.2-0.1,0.3-0.1c0.2,1.2,0.6,2.3,0.6,3.5
	c0.1,4.5,0.1,9,0.1,13.5c0,1.5,0,3.1,0.3,4.6c0.4-5,0.1-10.1,0.8-15.1c0.2,0,0.5,0,0.7,0v17.4c0.2,0,0.3,0.1,0.5,0.1
	c0.3-0.5,0.8-0.9,0.8-1.4c0.6-6.1,3.8-10.8,7.8-15.2c2.4-2.6,4.9-5.1,7.8-8.2c-0.4,1.2-0.5,1.8-0.8,2.4c-1.4,3-2.9,6-4.1,9.1
	c-1.3,3.4-3.1,6.3-6.2,8.4c-0.3,0.2-0.6,0.6-0.9,0.9c-0.1,0.1-0.1,0.2-0.2,0.7c2.2-1,4-2,5.3-3.7c0.7-1,1.4-1.9,1.9-3
	c3.3-7.5,6.6-15.1,9.9-22.6c0.2-0.5,0.1-1,0.2-1.6c0,0,0,0-0.1,0c0.7-2.4,1.4-4.8,1.9-6.6c0.1,0.9,0.2,2.6,0.3,4.2
	c0.1,0,0.2,0,0.2,0c0.4-3.6,0.8-7.1,1.2-10.7c0-0.1,0.4-0.1,0.7-0.3V39c0.5-4.9,1-9.3,1.4-13.7c0.2,0,0.4,0,0.6,0v7.4
	c0.4,0.1,0.8,0.1,1.4,0.2C89.2,38.6,86.3,43.4,83.3,48.2z M22.4,7.5c1.9,0.1,0.9,2.3,1.9,3.2c2-0.6,0.9-2.2,1.2-3.3
	c0.8-0.9,2.7-0.4,2.6-2.4c-0.9-0.3-1.9-0.7-3-1c0.1-0.8,0.3-1.4,0.3-2c0.1-0.6,0-1.3,0-2c-0.3,0-0.5-0.1-0.8-0.1
	c-0.5,1.1-1,2.2-1.6,3.5c-1.2-0.5-2.3-0.9-3.5-1.3c-1.3,2,1.2,2.2,1.5,3.4c-0.8,0.8-1.7,1.6-2.5,2.4C20,8.1,21.2,7.5,22.4,7.5z
	 M64.1,109.4c0.5-1.1,2.1-1.9,1.1-3.3c-1.8,1.4-3.5,2.7-5.3,4.2c-1.5-1.7-2.7-3.1-4.1-4.8c-1.1,2.7,1.7,4.1,0.8,6.6
	c-1.9,0.7-4,1.6-6.5,2.5c2.7,2,5.5-1.4,7.9,1.5c-0.1,1.6-0.2,3.5-0.4,5.7c2.9-0.6,1.5-4.1,3.6-5c3.8,1,3.8,1,4.7,0
	c-1.2-1.2-2.3-2.4-3.6-3.8C63,111.7,63.6,110.6,64.1,109.4z M78.1,110.4c-0.2,0.1-0.4,0.1-0.6,0.2v2.6c-1.1,0.3-2,0.5-3.6,0.9
	c1.4,0.7,2.2,1.1,3,1.5c-0.3,0.9-0.6,1.7-0.8,2.6c1.8,1.2,2.3-0.6,3.3-1.2c0.7,0.5,1.4,1,2.5,1.9c-0.1-2.1-0.9-3.8,1.2-5.4h-3.4
	C79,112.3,78.5,111.4,78.1,110.4z M55,73.7v-5C53.9,70.4,54.9,72.1,55,73.7z M44.3,94.9c0.1,0.7,0.8,1.2,1.6,2.4
	c0.7-1.2,1.4-1.8,1.4-2.5c0-0.4-0.8-1.2-1.4-1.3C45,93.4,44.1,93.8,44.3,94.9z M55.1,68.7C55.1,68.6,55,68.7,55.1,68.7L55.1,68.7
	C55,68.7,55.1,68.7,55.1,68.7z M30.3,94.2c0,0.8,0.2,1.5,0.5,2.3c0,0.1,1,0.1,1.1-0.1c0.4-0.7,0.7-1.5,0.7-2.2
	c0-0.5-0.7-0.9-1.3-1.7C30.7,93.3,30.3,93.8,30.3,94.2z M15.6,47.1c-2.3,0.2-1-2.1-2.2-2.8c-0.1,1.6,0,3.1,0.2,4.6
	c0.2,1.5,0.5,3,0.6,4.4c0.1,1.5,1.5,2,2.4,3.6c-0.3-3.3-0.5-6.2-0.8-9C15.8,47.6,15.7,47.1,15.6,47.1z M88.1,35.6L87.8,33
	c-0.1,0.9-0.2,1.7-0.3,2.6C87.7,35.6,87.9,35.6,88.1,35.6z M55.1,68.6C55.1,68.6,55.1,68.6,55.1,68.6L55.1,68.6L55.1,68.6z M87.8,33
	c0-0.1,0-0.2,0-0.3c0,0,0,0,0,0v-0.1c0,0,0,0-0.1,0C87.8,32.8,87.8,32.9,87.8,33z"/>
</svg>
