<?xml version="1.0" encoding="utf-8"?>
<!-- Generator: Adobe Illustrator 18.0.0, SVG Export Plug-In . SVG Version: 6.00 Build 0)  -->
<!DOCTYPE svg PUBLIC "-//W3C//DTD SVG 1.1//EN" "http://www.w3.org/Graphics/SVG/1.1/DTD/svg11.dtd">
<svg version="1.1" id="Ebene_1" xmlns="http://www.w3.org/2000/svg" xmlns:xlink="http://www.w3.org/1999/xlink" x="0px" y="0px"
	 width="82.3px" height="34.5px" viewBox="0 0 82.3 34.5" enable-background="new 0 0 82.3 34.5" xml:space="preserve">
<g>
	<g>
		<path fill="#ECEEF7" d="M81,31.5c0,1-0.8,1.8-1.8,1.8H3c-1,0-1.8-0.8-1.8-1.8V3C1.2,2,2,1.2,3,1.2h76.2C80.2,1.2,81,2,81,3V31.5z"
			/>
		<path fill="#C2CCDC" d="M79.2,1.2C80.2,1.2,81,2,81,3v28.5c0,1-0.8,1.8-1.8,1.8H3c-1,0-1.8-0.8-1.8-1.8V3C1.2,2,2,1.2,3,1.2H79.2
			 M79.2,0H3C1.4,0,0,1.4,0,3v28.5c0,1.7,1.4,3,3,3h76.2c1.7,0,3-1.4,3-3V3C82.3,1.4,80.9,0,79.2,0L79.2,0z"/>
	</g>
	<path fill="#FFFFFF" d="M79.2,1.7c0.7,0,1.3,0.6,1.3,1.3v28.5c0,0.7-0.6,1.3-1.3,1.3H3c-0.7,0-1.3-0.6-1.3-1.3V3
		c0-0.7,0.6-1.3,1.3-1.3H79.2 M79.2,1.2H3C2,1.2,1.2,2,1.2,3v28.5c0,1,0.8,1.8,1.8,1.8h76.2c1,0,1.8-0.8,1.8-1.8V3
		C81,2,80.2,1.2,79.2,1.2L79.2,1.2z"/>
	<g>
		<path fill="#3A5A98" d="M36.4,25.7V11.1h2v12.7h7v1.9H36.4z"/>
		<path fill="#3A5A98" d="M48.1,12.6c-0.9,0-1.3-0.7-1.3-1.4c0-0.7,0.4-1.4,1.3-1.4c0.9,0,1.3,0.7,1.3,1.4
			C49.4,12,49,12.6,48.1,12.6z M47.2,25.7V14.9l1.9-0.3v11H47.2z"/>
		<path fill="#3A5A98" d="M53.7,20.4v5.3h-1.9V9.9l1.9-0.3v10.2h0l4.4-4.9h2.4L55.7,20l4.9,5.6h-2.4L53.7,20.4L53.7,20.4z"/>
		<path fill="#3A5A98" d="M62.6,20.6c0.1,2.1,1.5,3.6,3.5,3.6c1.1,0,2.3-0.3,3.2-0.9l0.3,1.8c-1,0.6-2.2,0.9-3.6,0.9
			c-3.2,0-5.4-2.3-5.4-5.6c0-3.5,2.3-5.8,5.3-5.8c2.6,0,4.1,1.6,4.1,4.2c0,0.6-0.1,1.2-0.2,1.7C69.8,20.5,62.6,20.6,62.6,20.6
			L62.6,20.6z M68.2,19.1v-0.2c0-1.6-0.7-2.6-2.4-2.6c-1.8,0-2.9,1.4-3.1,2.8L68.2,19.1z"/>
	</g>
	<g>
		<g>
			<g>
				<g>
					<path fill="#31353A" d="M31.1,17.6c1.2-1.2,0.8-3.5-1.2-3.5l-5.3,0c0.2-1.1,0.5-3,0.5-3.2c-0.1-1.7-1.2-3.7-1.2-3.8
						c-0.2-0.4-1.2-0.9-2.2-0.6c-1.3,0.3-1.4,1.1-1.4,1.3c0,0,0.1,2.2,0.1,2.8c-0.6,1.3-2.7,4.9-3.3,5.1c-0.2-0.1-0.3-0.1-0.5-0.1
						H9.7c-0.6,0-1,0.5-1,1l0,9.3c0,0.5,0.5,0.9,1,0.9h6c0.5,0,1-0.4,1-1v-0.3c0,0,0.2,0,0.3,0c0.4,0.2,0.9,0.6,1.5,0.6h9
						c3.4,0,3-3,2.7-3.4c0.6-0.6,0.9-1.7,0.4-2.6C31,19.8,31.6,18.7,31.1,17.6"/>
					<path fill="#FFFFFF" d="M29.7,15.1h-6.3c0.2-1,0.7-4.1,0.7-4.1c-0.1-1.5-1.1-3.4-1.1-3.4c-1.2-0.5-1.7,0.2-1.7,0.2
						s0.1,2.4,0.1,2.9c0,0.6-2.7,5-3.4,5.5c-0.4,0.3-1,0.7-1.5,1v7.1l0.4,0c0.5,0,1.1,0.7,1.7,0.7l9.2,0c1.8,0,2.1-2.1,0.9-2.3
						l0.1-0.2c1.2-0.1,1.9-2,0.4-2.3l0.1-0.2c1.1-0.1,1.9-1.9,0.4-2.3l0.1-0.2C31,17.3,31.3,15.1,29.7,15.1"/>
					<path fill="#EDEFF8" d="M29.4,17.8l0.1-0.2c1.5-0.2,1.8-2.5,0.2-2.5h-3.1c1.6,0,1.3,2.2-0.2,2.5l0,0.1c1.6,0.4,0.7,2.3-0.4,2.4
						l0,0.1c1.5,0.4,0.7,2.3-0.4,2.4l0,0.1c1.2,0.2,0.9,2.4-1,2.4l-6.1,0c0,0,0,0,0,0l9.2,0c1.8,0,2.1-2.1,0.9-2.3l0.1-0.2
						c1.2-0.1,1.9-2,0.4-2.3l0.1-0.2C30.2,20,31,18.2,29.4,17.8"/>
					<rect x="9.7" y="16.6" fill="#6883AF" width="6" height="9.3"/>
					<path fill="#748FB5" d="M9.7,25.9h6v-9.3h-6V25.9z M15.3,25.5h-5.3v-7.7l5.3,0V25.5z"/>
					<g opacity="0.5">
						<g>
							<path fill="#D3D4D3" d="M17.3,24.7v-7.9c0,0-0.8,0.6-0.9,0.6v7.1l0.4,0C16.9,24.5,17.1,24.6,17.3,24.7"/>
							<rect x="16.4" y="16.8" fill="none" width="0.9" height="7.9"/>
						</g>
					</g>
					<path fill="#EDEFF8" d="M22.1,7.5L22.1,7.5c0,0,0.7,2.8,0.7,3.2c0,0.4-2.3,3.8-2,4.2c0.4,0.6,2.5,0.3,2.5,0.3
						c0.2-1,0.7-4.1,0.7-4.1c-0.1-1.5-1.1-3.4-1.1-3.4C22.9,7.6,22.6,7.5,22.1,7.5"/>
					<rect x="8.7" y="6.5" fill="none" width="23" height="20.4"/>
				</g>
				<rect x="8.7" y="6.5" fill="none" width="23" height="20.4"/>
			</g>
			<rect x="8.7" y="6.5" fill="none" width="23" height="20.4"/>
		</g>
	</g>
</g>
</svg>
