<?xml version="1.0" encoding="utf-8"?>
<!-- Generator: Adobe Illustrator 18.0.0, SVG Export Plug-In . SVG Version: 6.00 Build 0)  -->
<!DOCTYPE svg PUBLIC "-//W3C//DTD SVG 1.1//EN" "http://www.w3.org/Graphics/SVG/1.1/DTD/svg11.dtd">
<svg version="1.1" id="Ebene_1" xmlns="http://www.w3.org/2000/svg" xmlns:xlink="http://www.w3.org/1999/xlink" x="0px" y="0px"
	 width="625.7px" height="506.2px" viewBox="0 0 625.7 506.2" enable-background="new 0 0 625.7 506.2" xml:space="preserve">
<path fill="#232323" d="M280,244c-0.7,1.6-0.4,2.9,1,3.9c3.9-1.7,4-1.9,2.8-5.9C281.8,241.6,280.7,242.5,280,244z M342.3,193.4
	c2.6-0.1,4-1.2,3.9-3c0-1.6-1.3-3-2.8-2.9c-1.6,0.1-2.9,1.8-2.9,3.8C340.5,192.8,341.3,193.4,342.3,193.4z M343.6,189.2
	c0.4-0.1,1.1,0.6,2.1,1.1c-0.8,0.6-1.3,1.2-1.9,1.3c-0.4,0.1-0.9-0.5-1.3-0.8C342.8,190.3,343,189.4,343.6,189.2z M331.5,302.2
	c1.3,0.1,2.4-1.2,2.5-3.5c-0.3-0.3-0.8-1.3-1.5-1.5c-1.1-0.4-2.4,1.2-2.5,2.8C330,301.1,330.2,302.1,331.5,302.2z M317.8,176.2
	c0.5,0.4,1.2,1.5,2.2,1.9c1.3,0.4,3.2-1.6,3.2-3c0-1.4-1.2-2.7-2.6-2.6C319.1,172.5,317.8,174,317.8,176.2z M322.4,175.2
	c-0.8,0.6-1.3,1.1-1.8,1.4c-0.2,0.1-0.7-0.5-1-0.8c0.5-0.5,0.9-1,1.4-1.3C321.1,174.2,321.6,174.7,322.4,175.2z M306.8,132.9
	c1,0,1.9-1.1,3.4-2c-1.3-1.1-1.9-2.1-2.8-2.4c-1.2-0.4-2.7,0.9-2.4,2.1C305.3,131.5,306.2,132.9,306.8,132.9z M314.3,220.9
	c2.4,0.6,2.7-1.5,3.6-3.3c-1-0.8-2-1.7-3.3-2.7C312.7,218,312.7,220.5,314.3,220.9z M612.8,240.5c1.7,0.5,3.4-1,3.6-3.3
	c-0.4-0.4-0.9-1.5-1.8-1.9c-0.9-0.5-3.8,2.2-3.6,3.3C611.1,239.3,612,240.3,612.8,240.5z M295.5,294.7c0.3,0.4,0.7,1.6,1.5,1.9
	c1.2,0.5,3.5-1.4,3.6-2.7c0.1-1.3-1.1-2.9-2.4-3C296.8,290.8,295.8,292,295.5,294.7z M299,293.4c-0.2,0.7-0.6,1.3-0.9,1.9
	c-0.4-0.2-0.7-0.4-1.1-0.5c0.3-0.7,0.6-1.3,0.9-2C298.3,293,299,293.3,299,293.4z M292.8,151c2.2-0.1,4.3-2.2,4.3-4
	c0-1.4-1-2.5-2.3-2.4c-2,0.1-4,2.3-3.9,4.4C291,150.4,291.8,151.1,292.8,151z M295.3,146.3c1.1,2.3-0.5,2.8-2.4,3.8
	C292.3,147.5,293.4,146.7,295.3,146.3z M321.4,148.4c0-1.6-1.1-2.2-2.4-2.4c-1.3-0.3-2.6,1.3-2.5,3.1c0.1,0.9,0.8,1.8,1.1,2.4
	C319.6,151.6,321.5,149.9,321.4,148.4z M294.3,165.5c-1.3,1.5-1.6,3.1-0.6,4.8c2.9,0.1,4-0.5,4.6-2.3c0.5-1.3,0.1-2.3-1-2.9
	C296.3,164.4,295.2,164.5,294.3,165.5z M297,167.4c-0.4,0.6-0.9,1.2-1.3,1.8c-0.3-0.3-0.6-0.5-1-0.8c0.4-0.6,0.8-1.2,1.3-1.8
	C296.3,166.8,297,167.3,297,167.4z M444.1,138.3C444,138.3,444,138.3,444.1,138.3c-0.1,0.1-0.1,0.1-0.1,0.1L444.1,138.3z
	 M557.4,87.2c0-0.3-0.1-0.6-0.1-0.9c-5.5,0.6-11.1,1.1-16.6,1.8c-0.7,0.1-1.6,1.2-1.8,2c-1.5,5.9-2.8,11.9-4.1,17.8
	c-0.3,1.6-0.4,3.3-0.5,4.9c-0.1,1.2,0.7,1.9,1.9,1.9c4.3,0.2,8.1-0.8,11.4-3.7c-1.8,0.3-3.6,1-5.4,1.4c-1.8,0.4-3.7,1.1-5.5,0.1
	c-1-2.7,0-5.1,0.6-7.5c0.4-1.7,1-2.6,2.9-2.9c2.6-0.4,5.2-1.3,7.8-2c1.1-0.3,2.2-0.8,3.3-1.3c-0.1-0.3-0.2-0.6-0.3-0.9
	c-4,0.9-7.9,1.8-12.3,2.8c0.8-3.7,1.4-6.9,2.2-10.7C546.3,89.1,551.9,88.1,557.4,87.2z M444.6,150.4c1.4,0.3,2.9,0.2,4.4,0.3
	c-5.8-2.3-6.4-3.3-4.6-8.5c2-0.2,4.2-0.4,6.3-0.7c3.9-0.6,7.9-1.2,11-3.9c0.7-0.6,1.2-1.9,1.2-2.9c0-1.3-1.3-1.6-2.5-1.9
	c-4.3-0.9-8,0.6-11.6,2.7c-1.6,0.9-3.2,1.9-4.8,2.8c-0.9,1.8-2,3.5-2.6,5.3C440.4,146.8,441.9,149.9,444.6,150.4z M460.8,135.4
	c-3.8,4.2-8.8,4.7-14,4.3C450.7,135.8,455,133.4,460.8,135.4z M444.1,138.3l-0.1,0.1C444,138.4,444,138.4,444.1,138.3
	C444,138.4,444,138.3,444.1,138.3z M452.5,156.4c0.1,0.7,1,1.7,1.6,1.8c3.2,0.6,6.4,1.4,9.5-0.7c-1.9,0-3.8,0.1-5.7,0
	c-3.2-0.3-3.7-0.9-3.9-4c0-0.8-0.1-1.5,0-2.3c0.3-2.3,0.9-2.9,3.3-3.2c1.3-0.2,2.6-0.1,3.8-0.3c3.6-0.8,7.2-1.5,10.6-2.6
	c1.6-0.5,2.9-2.2,2.3-3.9c-0.4-1-2-1.7-3.2-2.2c-0.8-0.3-1.8-0.4-2.6-0.2c-4.8,0.8-9.2,2.4-12.8,6.1
	C452.1,148.1,451.9,152.1,452.5,156.4z M470,140.4c0.8,0.1,1.5,1,2.3,1.5c-0.5,0.6-1,1.5-1.6,1.8c-4,1.8-8.2,2.7-13.3,2.1
	C461.1,141.8,465.1,140,470,140.4z M479,90.1c-0.3-3.1-1.9-4-4.7-2.7c-0.5,0.2-0.8,0.6-1.3,0.9c-5.9,4.1-9.9,9.6-12.7,16.1
	c-0.2,0.5,0.1,1.2,0.2,1.8c1.6-1.8,2.5-3.7,3.5-5.5c0.4-0.7,1.1-1.9,1.6-1.9c3.2,0.1,6.5-1.5,10,0.1c-0.9,3-1.7,5.9-2.5,8.7
	c0.2,0.2,0.4,0.4,0.6,0.5c0.5-0.4,1.3-0.8,1.5-1.4c1.3-4.6,2.6-9.3,3.7-14C479.2,91.9,479.1,91,479,90.1z M476.1,97.2
	c-2.8-0.3-5.5-0.7-8.8-1.1c2.8-3.5,5.1-6.3,9.1-7.3C478.6,91.7,476.8,94.2,476.1,97.2z M514.1,335.5c0,1.7,0.9,2.8,2.4,2.8
	c1.7,0,3.4-1.4,3.4-2.9c0.1-1.5-1.2-3-2.8-3.1C515.5,332.2,514.1,333.7,514.1,335.5z M519.3,335.4c-1,0.7-1.6,1.3-2.1,1.3
	c-0.5,0-1.3-0.8-1.3-1.2c0-0.5,0.8-1.5,1.1-1.5C517.7,334.1,518.3,334.7,519.3,335.4z M463.9,162.6c-0.6,0.7-1.2,1.5-1.8,2.3
	c0.2,0.3,0.5,0.5,0.7,0.8c3.5-1.4,4.3-6.2,8-7.2c2,0.7,3.9,1.3,6.1,2.1c-0.5,1.9-1,3.7-1.4,5.5c-1.2,5.7,2.1,9.4,8,8.8
	c0-0.1-0.1-0.3-0.1-0.3c-0.6-0.3-1.1-0.5-1.7-0.8c-3.7-1.7-4.4-3.1-3.7-7.2c0.4-2.1,0.9-4.2,1.3-6.4c1.4-0.1,2.7-0.1,3.9-0.3
	c2.9-0.7,6-1.3,8.7-2.5c1.5-0.6,3-2.1,3.9-3.5c2.1-3.2,1-6-2.7-6.9c-3.1-0.7-6.3-0.9-9.5-1.3c-0.1-0.4-0.2-1.1-0.3-2
	c-5.7,5.4-11.2,10.6-16.7,15.8C465.7,160.4,464.8,161.5,463.9,162.6z M486.9,147.7c2-0.1,4,0.4,6,0.9c2,0.5,2.5,1.8,1.8,3.8
	c-0.8,2.2-2.5,3.4-4.5,4.3c-3.3,1.4-6.8,1.9-10.5,1.6c-1.2-1.7-2.2-3.1-3.4-4.7C478.3,149.3,482.5,148.1,486.9,147.7z M476.9,157.9
	c-1.7,0.7-2.6,0.3-3.7-0.7C475.2,155.7,475.9,156.7,476.9,157.9z M404.8,106.2c2.2,5.1,4.9,10.1,7.5,15c2.2,4.2,4.8,8.1,6.8,12.3
	c3.8,7.9,9.2,14.6,14.9,21.2c5.4,6.3,11,12.3,17.5,17.5c5.4,4.3,11.1,8.1,17.4,10.9c3.2,1.4,6.7,2.3,10.1,3.5
	c10.9,4,21.7,3.5,32.4-0.4c8.1-3,16.6-11.5,15.8-21.2c0.2-5.1-1.8-9.4-4.9-13.3c-4.2-5.3-9.9-8.3-15.9-10.7
	c-9.7-3.8-19.8-6.4-29.9-9c-6-1.6-12.1-3.1-17.7-5.9c-2.5-1.3-5-2.5-7.6-3.7c-13-5.7-25.1-12.9-36.2-21.8c-4.2-3.3-7.9-7.2-12-10.7
	c-0.6-0.5-1.5-0.6-2.3-0.8c-0.3,0.9-1,1.9-0.8,2.7C401.5,96.6,402.8,101.5,404.8,106.2z M464.8,179.1c0-0.3,0-0.6,0-0.8h3.1
	c0,0.2,0,0.4,0,0.6C467,179,465.9,179.1,464.8,179.1z M488.6,187.4l-0.5-0.9c1.2-0.7,2.5-1.4,3.7-2.1c0.1,0.2,0.2,0.4,0.3,0.6
	C491,185.8,489.8,186.6,488.6,187.4z M505.9,186.1c-0.2-0.3-0.4-0.5-0.6-0.8c1.3-1,2.7-2,4-2.9c0.2,0.2,0.4,0.5,0.5,0.7
	C508.5,184.1,507.2,185.1,505.9,186.1z M513.5,182.6c0.4-3.6,3.2-3.2,4.8-4.4c0.2,0.2,0.3,0.5,0.5,0.7
	C517.2,180.1,515.5,181.2,513.5,182.6z M402.4,91.9c3.1,2.8,6.1,5.7,9.4,8.2c9.7,7.4,19.2,15,30.7,19.6c6,2.4,11.5,5.9,17.5,8.4
	c5.2,2.2,10.8,3.8,16.2,5.5c4.6,1.4,9.4,2.4,14,3.8c5.9,1.8,11.9,3.7,17.6,6c6.4,2.5,11.8,6.3,15.1,12.6c4.3,8.1,2.2,16.6-6.5,21.3
	c-13.3,7.1-26.8,6.9-40.6,2.2c-10.5-3.5-19.6-9.4-28.2-16.2c-5.1-4-9.8-8.4-13.5-13.8c-0.3-0.4-0.7-0.7-1-1c-1.3-1.1-2.9-2-3.9-3.4
	c-5.5-6.7-9.8-14.2-13.7-21.9c-2.5-5-5.4-9.8-7.7-14.9c-2.3-5.2-4.1-10.6-6.1-15.9C401.9,92.2,402.2,92,402.4,91.9z M425.9,133.1
	c1.6,0.2,3.2,0,5,0c-0.8,1.4-1.4,2.4-2.2,3.7c3.5-0.2,4.6-3.7,7.3-4.1c2.1,1.4,4.1,2.6,6.4,4.1c-1.5,1.2-3,2.1-4.2,3.4
	c-1.2,1.2-2.9,2.2-2.8,4.4c1.3-0.6,2.3-1.5,3.3-2.3c1.8-1.3,3.6-2.6,5.4-3.9c2.5-2.9,5-5.8,7.4-8.6c-4.1,0.1-5,4.3-8.6,5.7
	c-1.6-1.2-3.4-2.6-5.2-4c2.1-2.8,6-3.4,6.2-7.7c-0.9,0.5-1.5,0.7-1.9,1.1c-2.1,1.7-4.2,3.3-6.1,5.1c-2.6,2.5-5.7,2.5-8.9,1.8
	c-2-0.4-2.6-1.3-2-3.2c1.3-3.9,4-6.5,7.9-7.5c3.3-0.9,4.2,0.3,3.5,3.8c0,0.2,0.2,0.4,0.4,0.7c1.9-0.2,2.2-1.7,2-3
	c-0.2-1.5-1.1-2.8-2.9-3.2c-5.3-1.2-12.9,4.5-13.4,10C422.5,131.6,423.4,132.8,425.9,133.1z M481.1,108.3c0.4-1.7,0.8-3.4,1.3-5
	c1.3-3.7,2.6-7.4,3.9-11.1c0.3-0.9,0.6-1.9-0.5-2.8c-1.1,3.2-2.1,6.1-3.1,9.1c-1,2.6-2.1,5.2-3,7.8c-0.5,1.3-0.5,2.8-0.8,4.8
	c4.3-0.4,8-0.8,11.6-1.1c0-0.4,0-0.8-0.1-1.1C487.5,107.5,484.5,109.2,481.1,108.3z M460.9,61.7c0.6-0.4,1.5-0.8,1.9-1.5
	c1.5-2.1,3-4.3,4.2-6.6c0.7-1.4-1-4.5-2.3-5.2c-1.3-0.7-3-0.1-4.6,1.7c-0.6,0.7-1.2,1.5-1.6,2c-0.9-0.1-1.5-0.2-3-0.4
	c3.6,5.6,1.9,12.2,6,17.6C462.8,66.2,460.3,64.2,460.9,61.7z M463.3,50c3.6,2.9,2.7,6.4-2.4,9.4C458.6,55.4,459.3,52.8,463.3,50z
	 M461,91.4c-0.1,0.3,0.2,0.6,0.4,1c1.9-2.5,1.8-4-0.3-5.7c-1.8-1.4-3.7-1.2-5.3,0.7c-2.3,2.6-2.3,5.3-0.5,8.4
	c0.9,1.5,1.6,3.2,1.7,4.8c0,1.1-1.1,2.6-2.1,3.3c-1.3,0.9-2.7-0.1-3.7-1.1c-0.6-0.7-1.1-1.6-1.6-2.4c-0.7,2.5,0.4,4.1,2.5,5.1
	c1.9,0.8,3.7,0.2,5.4-1.6c2-2.3,2.2-4.8,0.6-7.7c-0.6-1.1-1.4-2.1-2-3.2c-0.8-1.7,0.1-3,1.3-4c0.6-0.5,1.6-0.9,2.3-0.8
	C461.1,88.5,461.3,89.9,461,91.4z M418.9,77.3c4.8,0,9.7,0.1,14.5,0.1c9.1,0,18.3,0,27.4-0.1c5.6-0.1,11.2-0.5,16.8-1.1
	c7.2-0.8,14.4-1.8,21.5-3c6-1,12-2.2,17.9-3.6c4.9-1.2,9.7-2.9,14.6-4.3c2.3-0.7,4.7-1.3,6.9-2.2c9.4-4.1,18.7-8.5,26.9-15
	c6.1-4.8,11.1-10.4,14.1-17.6c4.1-9.7,1-18.6-6.2-25.1c-0.9-0.8-2.1-1.5-3.2-2c-6.6-2.5-13.5-3.6-20.6-3.2
	C534.7,0.9,521,5.6,508,12.4c-6.3,3.3-12.1,7.5-18.2,11.2c-8.4,5.1-16.5,10.5-24,16.8c-8.6,7.3-17.7,14.1-27.6,19.7
	c-0.2,0.1-0.4,0.3-0.6,0.4c-10.9,6.8-22.3,12.3-35.1,14.5c2.4,0.3,4.8,0.2,7,0.9C412.6,77,415.7,77.3,418.9,77.3z M477.6,74.9
	c-0.2-0.4-0.5-0.7-0.7-1.1c1.2-0.7,2.4-1.3,3.6-2c0.1,0.2,0.3,0.4,0.4,0.7C479.8,73.3,478.7,74.1,477.6,74.9z M490.1,72.4
	c1-0.8,1.8-1.5,3.3-2.6C493.2,72.5,492.2,73.1,490.1,72.4z M498,70.3c-0.1-0.2-0.4-0.5-0.3-0.5c0.6-0.6,1.3-1.2,1.9-1.8
	c0.2,0.2,0.4,0.4,0.6,0.7C499.5,69.2,498.7,69.8,498,70.3z M500.3,70.4c1.5-1.2,3.1-2.4,4.6-3.6c0.2,0.2,0.3,0.4,0.5,0.7
	C504,68.9,503,70.8,500.3,70.4z M507.3,69.9c-0.2-0.3-0.4-0.6-0.6-0.9c1.5-1.3,2.6-3.2,5.3-2.6C510.4,67.6,508.8,68.7,507.3,69.9z
	 M516.8,68.1c-0.3-0.3-0.5-0.5-0.8-0.8c1.6-1.3,3.2-2.5,4.8-3.8c0.2,0.3,0.4,0.5,0.6,0.8C519.9,65.5,518.4,66.8,516.8,68.1z
	 M522.3,65.3c1-0.8,2-1.5,3-2.3C525.2,64.8,523.9,65.2,522.3,65.3z M531.4,63.4c1.9-1.8,3.4-3.4,5-4.9c0.2,0.2,0.3,0.4,0.5,0.6
	C535.3,60.5,535,63.6,531.4,63.4z M540.8,60.1c0.7-3,1.3-3.4,4.4-3.2C544.6,59,542.8,59.6,540.8,60.1z M548.9,56.2
	c-1.1,0.6-2.2,1.8-3.6,0.6c1-0.8,2.1-1.5,3.5-2.5C548.8,55.2,549.1,56.1,548.9,56.2z M551,54.7c0.8-0.9,1.4-1.6,2.2-2.6
	C553.1,54,553.1,54,551,54.7z M556.4,50.8c0.9-0.9,1.7-1.7,2.6-2.6C559,50,558.4,51,556.4,50.8z M563.7,47.3
	c-0.3-0.1-0.6-0.2-0.9-0.3c0.4-0.9,0.8-1.8,1.2-2.7c0.2,0.1,0.5,0.2,0.7,0.3C564.3,45.5,564,46.4,563.7,47.3z M568.3,43.5
	c-0.2-0.1-0.5-0.2-0.7-0.3c0.3-0.9,0.5-1.7,0.8-2.6c0.3,0.1,0.7,0.2,1,0.3C569,41.8,568.7,42.7,568.3,43.5z M571.8,39.7l-0.8-0.4
	c0.7-1.3,1.3-2.7,2-4c0.4,0.2,0.7,0.4,1.1,0.6C573.3,37.1,572.6,38.4,571.8,39.7z M576.2,32.9c-0.3-0.1-0.6-0.3-0.8-0.4
	c0.5-0.9,1-1.8,1.6-2.7c0.2,0.1,0.4,0.2,0.6,0.3C577.2,31,576.7,32,576.2,32.9z M416.1,72.8c7.8-2.2,14.7-6.4,21.6-10.3
	c3.9-2.2,7.7-4.6,11.3-7.2c5-3.5,9.7-7.4,14.6-11.1c7.4-5.6,14.1-12,22.5-16.3c4.7-2.4,8.8-6,13.3-8.9c13.1-8.4,27.3-14.2,42.8-16.5
	c8.9-1.3,17.7-1.3,26.2,2.3c4,1.7,6.8,4.4,8.6,8.2c0.3,0.7,0.5,1.5,1,2.1c2.1,3,1.4,5.9,0,9c-4.5,10-11.9,17.3-21.1,23
	c-7,4.3-14.2,8-22,10.4c-4.6,1.4-9,3.6-13.7,4.7c-6.4,1.6-13,2.5-19.4,3.7c-6.4,1.2-12.7,2.5-19.1,3.8c-8.8,1.8-17.8,3.1-26.8,4
	c-12.4,1.2-24.8,1.9-37.3,1.9c-1.3,0-2.6,0-3.8-0.1c-1-0.1-1.9-0.5-3.5-0.9C413.3,73.8,414.7,73.2,416.1,72.8z M503.9,54.6
	c2.4-6.7,3.4-13.8,2-21c-0.3-1.6-1-3.2-1.9-4.5c-2-3.1-6.5-3.4-9.2-0.9c-4.2,3.8-4.7,8.8-5,13.1c0,5.8,1.8,11.2,3.9,14.5
	C496.3,59.7,501.6,60.9,503.9,54.6z M493.2,33c0.6-1.6,2-3,3.2-4.1c1.7-1.6,5-0.5,6.5,1.8c1.7,2.8,2.3,5.9,2.6,9.2
	c-0.9,4.5-1.7,9-2.6,13.4c-0.4,1.8-1.5,3.3-3.5,3.6c-1.9,0.3-3.1-1-4-2.5C491.3,47.7,490.2,40.5,493.2,33z M474.1,68.1
	c0.1-3.7-0.7-7.4-0.7-11c1.2-0.6,2.4-1.3,3.6-1.9c2.2-1.2,2.9-1.1,4.6,0.9c1,1.2,1.9,2.4,2.8,3.6c2.7,3.4,4.6,3.5,7.8-0.3
	c-3.5,2.4-5.1-0.1-6.9-2.1c-1.9-2-3.7-4-5.6-6.1c0.9-1.2,1.8-2.5,2.6-3.7c1.4-2,1.8-4.2,1.6-6.6c-0.3-3.6-3.2-5.2-6.2-3.4
	c-1.6,0.9-2.8,2.6-4.2,3.8c-1.1,0.9-2.2,1.8-3.5,2.8c0.9,7.8,1.9,16,2.8,24.1C473.2,68.2,473.7,68.2,474.1,68.1z M477,40.1
	c1.3-1.2,2.8-2,4.5-0.8c1.5,1.1,1.6,2.7,1,4.5c-1.4,4.9-5.1,8-9,11.3C471.3,49,472.4,44.1,477,40.1z M492.5,177.3
	c-2.2-1.1-3.8-2.5-4.2-4.9c-0.4-2.3,0.5-4.2,2.1-5.8c-4.5,2-5,6.3-1.4,10.2c2.3,2.5,4.4,2.6,6.9,0.4c3.6-3.1,5.8-7,7-11.5
	c0.6-2.5,1.3-4.9,2.2-7.3c0.8-2.3,2.5-3.7,5-4.2c2.8-0.6,4.8,1.2,4.3,4c-0.2,0.9-0.5,1.9-0.9,3.1c3-2.2,3.6-3.9,2.3-6.2
	c-1.5-2.8-3.5-3.6-6.2-2.8c-3.3,0.9-5.5,3-6.7,6.2c-0.6,1.7-1,3.4-1.5,5.1c-0.9,2.6-1.7,5.3-2.9,7.8
	C497.2,173.9,495.2,176.1,492.5,177.3z M498.7,110.8c-2.1-3-1.2-5.9-0.9-8.5c0.4-3.3,1.3-6.5,1.9-9.7c0.1-0.6-0.3-1.3-0.5-1.9
	c-0.3,0-0.6,0.1-0.9,0.1c-1,5.3-2.1,10.7-3,16c-0.2,1.1,0,2.3,0.3,3.4c0.6,2.2,2.2,2.8,4,1.5c1.6-1.1,3-2.4,4.3-3.7
	c1.1-1.1,2.1-2.4,3.1-3.7c0.2,0.1,0.4,0.1,0.5,0.2c-0.3,2.8-0.7,5.5-1.1,8.7c2.5-1.1,2-3.1,2.4-4.5c0.7-2.5,1.1-5.2,1.8-7.7
	c0.5-1.8,1.4-3.6,1.9-5.4c0.4-1.3,1-2.8-0.3-4.6C509.2,98.8,505.5,105.6,498.7,110.8z M535.8,89.4c-2.2-1.2-4.6-1.6-7.2-1.6
	c-4,0.1-8.1-0.1-12.1,0c-0.5,0-0.9,0.6-1.5,1c2.3,2.2,5.1,0.8,7.6,1.7c-0.1,0.8-0.2,1.5-0.4,2.2c-1.4,5.5-2.9,11.1-4.3,16.6
	c-0.3,1.2-1,2.5,0.7,4.4c1.2-4.3,2.3-8,3.3-11.7c1-3.9,1.9-7.8,3-12.1c3.8,0.2,7.3,0.3,10.9,0.5C535.8,90,535.8,89.7,535.8,89.4z
	 M389.7,170.5c1.3,0.2,2.8-1.3,3-3.6c-0.4-0.3-1-1.1-1.8-1.4c-1.3-0.4-2.8,0.9-2.9,2.4C387.9,169.2,388.3,170.2,389.7,170.5z
	 M354.2,239.2c0.3-0.7,0.1-2.2-0.4-2.7c-0.6-0.5-2.1-0.8-2.7-0.4c-1.7,1.1-1.8,2.9-1,4.7C352,241.6,353.5,240.9,354.2,239.2z
	 M352.6,237.8c0.1,0.3,0.5,0.7,0.4,0.9c-0.2,0.4-0.6,0.7-1,1.2c-0.3-0.5-0.6-1-0.6-1.1C351.7,238.5,352.2,238.2,352.6,237.8z
	 M397,282.9c0.9,0.4,2.3,0.3,3.1-0.2c0.6-0.4,1-1.8,0.9-2.5c-0.2-0.8-1.2-1.5-2.2-2.7c-0.9,1.2-1.8,1.9-2.1,2.8
	C396.4,281.1,396.5,282.8,397,282.9z M414.3,235.9c-0.7,0-1.7,0.5-2,1.1c-0.7,1.5-0.7,3.1,0.7,4.4c2.7-1.4,3.2-2.1,2.6-4.1
	C415.4,236.8,414.7,235.9,414.3,235.9z M428.9,358.2c-0.1,1.4,0.4,2.5,1.8,2.8c1.5,0.1,3-1.5,3-3c-0.1-1.3-0.6-2.5-2.1-2.8
	C430.2,354.9,429,356.4,428.9,358.2z M431.9,359.3c-0.3,0-0.5,0-0.8-0.1v-2.1c0.4,0,0.7,0.1,1.1,0.1
	C432.1,357.9,432,358.6,431.9,359.3z M559.3,74.4c-6.2-0.7-12.4-1.2-18.6-1.2c-6,0.1-11.9,1.1-17.8,1.5c-9.8,0.7-19.4,2.6-29,4.5
	c-10.6,2-21.3,3.9-32.1,4.2c-6.4,0.2-12.7,0.2-19.1,0.5c-8.6,0.4-17-0.4-25.4-1.9c-4.4-0.8-8.8-1.9-13.7-3c0.5,1,0.8,2,1.5,2.6
	c2.3,2.3,4.6,4.7,7.2,6.8c4.7,3.9,9.3,8,14.5,11.2c8.1,4.9,16.6,9.3,25.4,13.1c11,4.9,22.4,8.1,34.1,10.6c9.2,1.9,18.4,3.9,27.8,4.9
	c7.8,0.8,15.5,0.8,23.2-0.2c5.6-0.7,11.2-2.4,16.6-4.2c7.6-2.5,14.8-5.6,20.8-11.4c6.1-5.9,8-12.7,7.6-20.7
	c-0.1-1.6-0.4-3.3-0.6-4.7c-1.1-0.9-2.2-1.7-3.2-2.6C573,79.1,566.8,75.3,559.3,74.4z M502.7,124.8c-2-0.4-4-0.7-6-1.1
	c0-0.2,0.1-0.4,0.1-0.6c2,0.3,4,0.6,6.1,1C502.8,124.3,502.7,124.5,502.7,124.8z M544.2,121.5c2.3,0.3,4.1,0.6,6.2,0.9
	C547.3,124.2,547.3,124.2,544.2,121.5z M549.8,121h3.3C551.9,122.1,551.1,122.5,549.8,121z M564.2,115.8c1.2-0.2,2.1-0.3,3.7-0.5
	C566.5,117,565.6,117.4,564.2,115.8z M579.5,93.2c-3,9.1-7.7,16.3-17.1,20.2c-9.7,4-19.4,7.6-29.9,8.7c-11.3,1.3-22.6,1.6-33.8-0.3
	c-5.3-0.9-10.6-1.5-15.8-2.5c-16.3-3.1-32-7.8-46.6-16c-9.6-5.4-18.2-12.1-26.5-19.2c-0.4-0.4-0.8-0.9-1.8-2
	c5.3,0.9,9.7,1.7,14.2,2.4c7.3,1,14.7,1.3,22.1,0.9c6.7-0.4,13.5-0.2,20.2-0.7c6.6-0.5,13.1-1.3,19.7-2.3c6.7-1,13.2-2.4,19.9-3.4
	c8.8-1.4,17.6-3.1,26.4-3.8c10.5-0.8,21.2-1.4,31.5,1.5c6.7,1.9,12.7,5.2,16.8,11.2C579.8,89.5,580.1,91.1,579.5,93.2z M447.1,211.3
	c-0.1-1.5-0.7-2.2-2-2.1c-1.6,0.1-2.8,1.7-2.8,3.5c0,1.3,0.6,2.2,2.1,2.1C446.1,214.7,447.2,213.3,447.1,211.3z M351.7,281.7
	c0,0.7,0.7,1.7,1.3,2.1c0.5,0.3,1.5,0,2.1-0.3c2.5-1.5,2.2-3.4-0.8-5.9C352.6,278.3,351.7,279.8,351.7,281.7z M355.4,281.1
	c-0.2,0.5-0.6,0.9-1.3,1.6c-0.4-0.8-0.8-1.3-0.7-1.5c0.2-0.5,0.8-0.8,1.2-1.1C354.9,280.4,355.5,280.9,355.4,281.1z M602.6,369.6
	c2.8,0.1,4.3-1.1,4.3-3c0.1-1.7-0.9-3.1-2.1-3.1c-1.7,0-4,2.4-3.8,4.1C601.3,368.6,602.3,369.3,602.6,369.6z M605,365.5
	c0.6,2.4,0.6,2.4-2,2.5C602.8,366.5,603.5,365.7,605,365.5z M364.9,172.9c2.2-0.1,3.7-2.1,3.5-3.9c-0.1-1.2-0.6-1.8-1.9-1.7
	c-1.6,0.1-3.2,1.9-2.9,3.7C363.8,171.8,364.6,172.5,364.9,172.9z M384.9,329.1c1.5,0,2.3-1.2,2.3-2.5c0-0.9-0.9-1.7-1.9-3.3
	c-1.1,1.7-2,2.5-2.2,3.6C382.8,328.1,383.5,329.2,384.9,329.1z M510.5,232.6c-0.9-0.5-2.1-0.5-3.1-0.7c-1.2,1.4-2,3.1-0.5,4.4
	c0.8,0.7,2.5,0.7,3.8,0.5c0.7-0.1,1.6-1.4,1.6-2C512.2,234,511.3,233.1,510.5,232.6z M510.5,235.4c-0.8-0.1-1.5-0.1-2.2-0.2
	c-0.1-0.5-0.2-0.7-0.1-0.8c0.9-0.7,1.7-0.7,2.4,0C510.5,234.8,510.5,235.1,510.5,235.4z M540.2,410.6c-0.4,0.9,0,2.5,0.6,3.4
	c0.6,1.1,3,0.9,4.5-0.1c1.9-1.3,1.4-3,0.8-4.9C543.6,408.7,541.3,407.9,540.2,410.6z M545.1,411.3c-0.1,1.9-1.4,1.9-3.1,2
	c-0.4-2.2,0.2-3.1,2-3.1C544.4,410.2,545.1,411,545.1,411.3z M518,55.4c2.6,0.9,6.8-0.5,7.5-2.3c1.2-3.2,2-6.4,0.7-10
	c-1.4-3.9-4.4-6.2-7.2-8.7c-3.4-3.2-4.9-7-4.9-11.6c0-2.5,1.3-4.1,3.7-4.6c2.1-0.5,4.1,0.3,5.2,2.2c0.4,0.7,0.6,1.5,1.3,3.1
	c0.3-1.4,0.7-1.9,0.6-2.4c-0.6-3-3.2-5.1-5.9-4.9c-3.4,0.2-6.5,2.9-6.6,6.3c-0.1,4.5,0.8,8.9,4.2,12.3c1.6,1.6,3.4,3.1,5,4.7
	c3.3,3.4,4.6,7.3,3,11.9c-0.3,0.8-0.9,1.8-1.6,2c-2.3,0.6-4.8,1.3-6.9-0.7c-1.4-1.4-2.8-2.9-4.3-4.5c0,0.7-0.3,1.3-0.1,1.8
	C513,52.5,515.2,54.4,518,55.4z M552.8,353c1.3,0.7,2.1,1.5,2.6,1.3c0.8-0.3,1.4-1.2,2-1.8c-0.6-0.7-1.4-2-1.9-1.8
	C554.7,350.8,554,351.9,552.8,353z M534.9,33.3c0.2,4.3,1.6,8.2,3.2,12.1c1.1,2.6,3.1,4.1,5.8,4.4c2.4,0.3,5-1.8,6.3-4.5
	c-1.1,0.6-2,1.3-3,1.8c-2.5,1.2-4.7,0.7-6.4-1.5c-0.5-0.7-0.8-1.6-1.2-2.3c-2.7-5.4-3.1-11.2-3.4-17.3c2.2-1.8,4.6-3.6,6.9-5.5
	c-0.1-0.2-0.2-0.4-0.3-0.6c-2.2,1.2-4.3,2.3-6.6,3.5c-1.6-4,0.5-8.2-2.2-11.8v13.2c-2.1,1.9-4.8,2.9-5.7,5.9
	c1.8-1.1,3.6-2.3,5.8-3.7C534.5,29.5,534.8,31.4,534.9,33.3z M447.3,266.1c0-1.5-1.5-3.5-2.8-3.6c-1.4-0.2-3.2,2.1-3.2,4
	c0,1.4,0.6,2.4,2.2,2.3C445.8,268.9,447.3,267.8,447.3,266.1z M444.4,264.2c1.3,0.8,2.1,1.5,1.3,2.8c-0.3,0.4-1.6,0.8-1.9,0.6
	C442.4,266.3,443.3,265.3,444.4,264.2z M454.2,324.4c0.5,0.3,1.5,0.2,2.1,0c2.2-1,2.3-2.5-0.1-6c-1.1,1.6-2,2.8-2.6,4
	C453.3,323,453.7,324.1,454.2,324.4z M438.2,305.8c0.2,0.8,1.1,1.4,1.3,1.7c2.3,0,3.3-1.1,3.2-2.6c-0.1-1.2-0.6-2.2-2-2.3
	C439.6,302.5,437.9,304.6,438.2,305.8z M111,56.9c-0.1,0-0.1,0-0.2,0.1C110.9,57,110.9,57,111,56.9C111,57,111,56.9,111,56.9z
	 M200.1,459.2c-0.4-6.4-0.6-12.9-2.2-19.4c-1.9,0.7-3.9-1.7-5.6,0.4c-8.9-0.2-17.8-0.4-26.7-0.6c-0.2,0-0.4-0.3-0.9-0.6
	c-0.2-1.3-0.5-2.7-0.5-4.2c-0.5-11.9-1.2-23.9-1.5-35.9c-0.4-14.6-0.5-29.3-0.8-43.9c-0.1-2.7-0.1-5.4-0.4-8
	c-0.4-4.5-3.9-7.1-8.3-6.7c-2.7,0.2-5.3,0.2-8,0.2c-5,0-9.9-0.1-14.9,0.1c-3.5,0.1-3.6,0.2-3.6,3.7c0,10.9,0,21.9,0,32.9
	c0,17.1,0.1,34.1,0.1,51.2c0,5.4-0.1,10.9-0.3,16.3c-0.1,3.3-0.3,6.5-0.5,9.8c-1.3,0-1.6-0.7-1.4-1.9c0.9-4.5-0.6-8.6-1.9-12.8
	c0.2,3.7,0.5,7.5,0.7,11.5c-2.3-1.9-2.6-2-2.2-3.5c1-3.8-0.4-7.3-1-10.8c0-0.3-0.4-0.5-0.7-0.8c0,1-0.1,1.9-0.1,2.9
	c-2.5-1.3-2.4-4.7-6.1-5.7c3,3.3,3,6.4,2.3,10.3c-2.1-1.7-3.8-2.9-5.4-4.3c-0.3-0.3-0.4-0.9-0.5-1.4c-0.5-2.4-1-4.8-1.6-7.2
	c-0.1-0.5-0.7-1-1.3-1.2c-0.9-0.4-1.8-0.5-3.2-0.8c2.7,2.8,4.4,5.4,4.7,9.2c-2.2-0.9-3.6-1.6-4.4-3.9c-1.4-4.2-4.7-6.5-9.1-7
	c1.3,1.9,2.6,3.9,4,6c-2.8,0.1-4.6-0.2-5.3-3.2c-0.3-1.5-1.6-2.8-2.5-4.1c-0.7-0.1-1.5-0.2-2.2-0.3c0.6,0.8,1.3,1.6,1.9,2.4
	c0.8,1,1.9,1.9,1,3.8c-2-2.4-3.5-5.1-7.2-4.6c0.7,0.3,1.5,0.6,2.2,0.9c-0.1,0.1-0.3,0.2-0.4,0.2l-8.8-2.5c0.9,0.5,1.8,1,2.7,1.5
	c1.2,0.6,2.5,1.1,3.8,1.7c-2.3,0.1-4.3-0.5-6.4-1c-2.1-0.5-4.1-0.8-6.2-1.2c0.5,0.4,1,1,1.6,1.2c1.1,0.4,2.3,0.7,3.5,1
	c-0.1,0.2-0.1,0.3-0.2,0.5c-2,0.1-3.9,0.2-5.9,0.4c2.7,1.2,5.7-0.2,8.2,1.7c-2.3,2.2-5.9,0-8.2,3.1c3.7,0,6.9-0.4,9.8-2
	c1.7-0.9,3.2-1.2,5.2-0.5c-0.6,0.8-1.1,1.4-1.6,2c0.6-0.1,1.2-0.1,1.6-0.4c2.3-1.9,4.5-1.5,6.7,0.2c-3.9,1.1-7.8,2.2-11.7,3.3
	c0.1,0.2,0.1,0.5,0.2,0.7h4l-0.1,0.1c1.6-0.6,3.2-1.2,4.7-1.8c-1.2,1.6-3,1.7-4.7,1.8h0l0.1-0.1c-0.4,0.4-0.8,0.8-1.6,1.5
	c3.7,0.3,7.3,0,10.3,1c3.4,1.1,6.2,0.2,9.2-0.8c3.4-1.2,3.8-1.2,6.4,2c-2.3,0.4-4.3,0.8-6.4,1.1c-2,0.3-4.1-0.5-6.5,1
	c1.4,0.3,2.3,0.7,3.1,0.7c1.8,0,3,1,3.5,2.4c0.9,2.4,2.7,2.8,4.8,2.9c3,0.2,6.1,0.6,9.1,0.4c3.1-0.2,4.7,1.1,5.9,3.9
	c-5,1-9.4-0.5-13.9-2c0,0.9,0.1,1.4,0.1,2.1c-1.2-0.2-2.4-0.8-3.3-0.5c-3.3,1-4.7-1.6-6.3-3.3c-1.6-1.7-3.6-2.8-5.5-4.1
	c0,0.2,0,0.4-0.1,0.6c-1.1-0.5-2.1-0.9-3.2-1.3c-0.3-0.1-0.6-0.1-1.1-0.2c0.8,1,1.4,1.9,2.2,2.8c-2.3,0.7-4.4,1.3-6.5,2
	c0.3,0.3,0.5,0.5,0.7,0.6c0.5,0.4,1.1,0.7,1.6,1c-0.5,0.5-0.9,1.1-1.5,1.4c-0.7,0.3-1.5,0.2-2.3,0.2c-2.2,0-4.3,0-6.5,0
	c2,0.7,4.1,0.7,6.1,0.7c1.8,0,3.7,0.1,5.5,0.2l-0.1,0.5c-4.7,0.3-9.4,0.7-14.2,1c5,0.6,9.9,0.1,14.8,1.3c-1.4,0.6-2.9,1-4.3,0.7
	c-5-1.1-9.8,0.2-14.7,1.2c-0.5,0.1-1,0.6-1.4,0.9c2.1-0.1,4-0.6,6-0.8c1.8-0.2,3.7,0,5.6,0c0,0.3,0.1,0.6,0.1,0.8
	c-1.4,0.2-2.9,0.5-4.3,0.7c-5,0.7-10,1.5-13.8,5.3c-0.5,0.9-0.9,1.7-1.6,3c4.2-2.4,7.8-4.8,12.5-4.4c-0.2,0.8-0.4,1.4-0.5,1.9
	c1.4-1.1,2.8-2.2,4.2-3.3c0,0,0,0,0,0c0.8-0.2,1.6-0.4,2.3-0.6c-2.3,2.6-4.5,5.3-8,6.4c0.1,1.1,0.8,1,1.5,0.6c4-2,7.5-4.7,10.1-8.3
	c1-1.4,2-1.7,3.9-1.1c-2,2.5-3.8,4.8-5.7,7.3c2.5,0,2.5,0,4.7-1.5l0,0c0,0,0,0,0,0c0-0.1,0.1-0.1,0.2-0.2c-0.1,0-0.1,0.1-0.2,0.1
	c-0.2-0.4-0.7-1-0.5-1.2c0.6-1,1.6-1.7,2.1-2.7c1.6-3.6,4.4-4,8.4-3.4c-1.3,1.6-2.4,3-3.5,4.2c-1.1,1.2-2.4,2.2-3.7,3.2
	c4-1.5,7-3.9,8.9-7.7c0.4,0.1,0.7,0.2,1.1,0.2c0.4,0,0.8,0,1.8,0c-1.9,2-3.3,3.5-4.7,5c0.1,0.1,0.3,0.3,0.4,0.4
	c2.3-1.8,4.5-3.6,6.8-5.4c0.1,0.1,0.1,0.1,0.2,0.2c-1.1,1.5-2.2,2.9-3.4,4.4c0.2,0.2,0.5,0.4,0.7,0.6c1.4-1.5,2.9-3,4.2-4.7
	c0.9-1.1,1.5-0.9,2.7-0.1c-4.1,3.2-6.9,7.6-12.2,8.2c-0.2,0-0.3,0.2-0.5,0.4c-3.3-0.8-4.6,2.4-7.1,3.3c2.7-0.5,5.3-1,8-1.5
	c0.1,0.3,0.1,0.6,0.2,0.9c-0.9,0.3-1.8,0.5-2.7,0.8c-0.9,0.3-1.7,0.7-2.5,1c0.4,0.1,0.8,0.3,1.6,0.5c-2.7,1.9-5.3,3.4-5.3,6.7
	c1.4-1.2,2.7-2.3,4-3.4c3.1,1.3,3.9-1.6,5.4-3c1.2-1.2,2.5-1.9,5.2-2.3c-2.1,2.6-3.7,4.6-5.3,6.5c1.3-0.3,2.4-0.9,3.2-1.8
	c1.3-1.5,2.6-3.1,3.7-4.8c1.1-1.6,2.3-2,4.5-1.2c-1.7,2.2-3.1,4.1-4.6,6c2-1.2,3.8-2.6,5.1-4.4c1.5-2.1,3.4-2.8,5.8-2.8
	c-1.9,2.2-3.7,4.4-6,7.1c1.7-0.8,2.7-1.3,3.7-1.7c-0.3,0.7-0.7,1.4-1.1,2.4c2.1-1,3.8-1.8,5.4-2.5c0.1,0.2,0.2,0.4,0.3,0.6
	c-1.2,1-2.3,2-3.5,3c0.1,0.1,0.2,0.3,0.2,0.4c1.9-0.7,3.8-1.4,5.8-2.1c-1.9,3.6-6.6,2.9-8.7,6.5c2-0.8,3.8-1.6,5.6-2.3
	c0.1,0.2,0.2,0.4,0.3,0.6c-2.1,1.5-4.2,2.9-6.3,4.4c2.4,0,4-2.3,6.7-2.2c-3.7,2.7-7.1,5.3-10.5,7.9c0.1,0.2,0.2,0.3,0.3,0.5
	c0.5,0,1.1-0.1,1.7-0.1c-0.1,0.7-0.2,1.3-0.2,1.7c0.6,0.1,0.9,0.2,1.3,0.3c-2.5,4.9-2.8,8.1-1.2,11.7c0.9-2.5,1.8-5.2,3-8.7
	c0.4,1.7,0.6,2.5,0.8,3.3c0.6-1.5,0.7-3,0.8-4.5c0.1-1.3-0.3-2.8,1.2-4.7c0.1,2.6,0.2,4.2,0.3,5.9c2.1-3.1,0.5-7.1,3.2-10.5
	c0.2,2.3,0.4,4.2,0.6,6.8c1.4-2.8,1.1-4.9,1.1-7c0-1.8,0.1-3.5,2.5-4.4c-0.3,3.1-0.6,6-0.9,8.8c1.1-1.9,1.3-3.9,2-5.8
	c0.7-1.8-0.6-4.1,1.8-5.4l-0.7,7.8c0.9-1.5,1.2-3.1,1.8-4.6c0.5-1.3-0.5-3.4,2-4.3v7.8c2-3.9,0.4-7.9,3.7-11.1
	c-0.3,2.9-0.6,5.1-0.8,7.3c0.2,0,0.4,0.1,0.6,0.1c0.7-2.1,1.3-4.2,2.1-6.8c0.2,1.8,0.3,3.1,0.5,4.3c0.2,0,0.4,0,0.6,0
	c0.4-2.4,0.8-4.8,1.3-7.7c0.2,2.6,0.4,4.6,0.6,6.8c0.4-2.1,0.7-4.1,1.1-6.2c9.8-0.2,19.4-0.5,28.9-0.7c3.9-0.1,7.9-0.1,11.8-0.2
	c5.3-0.1,10.7-0.5,16-0.4c4.7,0.1,7.4-2.4,7-7C200.1,461.2,200.1,460.2,200.1,459.2z M89.4,438.8c3.6-3.7,6.8-4.7,9.5-3.3
	c0.4,0.2,0.6,0.9,0.8,1.4C96.5,437.5,93.2,438.1,89.4,438.8z M98.3,438.8c0.8-1,1.2-1.5,1.5-1.9c0.9-0.1,1.8-0.3,2.7-0.4
	c0.1,0.3,0.2,0.6,0.2,1C101.5,437.9,100.2,438.3,98.3,438.8z M98.6,430.6c2.6,0.6,2.6,0.6,4.3,4.6C99.9,434.7,100.4,432,98.6,430.6z
	 M116.8,448.2c-1.5-0.3-3.6,1.1-4.3-1.9c-3-0.2-6.5,0.8-9.8-1.8c2.6-0.8,4.7-1.6,6.9-2.1c0.8-0.2,2,0.2,2.7,0.7
	c1.7,1.3,3.2,2.8,4.8,4.2C117,447.7,116.9,447.9,116.8,448.2z M119.4,447c-3.1-2.3-3.1-2.3-1.9-5.5
	C117.5,443.6,121.5,443.9,119.4,447z M72.7,463.1c-1.9-0.3-3.9,0.3-5.9,0.3c3.2-1.2,6.2-3.1,9.7-0.9C75.2,463,74.1,463.3,72.7,463.1
	z M88,450.9c1.2-1.6,2.5-0.7,3.6-0.9c0,0.3,0,0.6,0,0.9H88z M90.4,454.3c1.4,0.2,2.2,0.3,3.6,0.5C92.4,456.3,91.6,455.8,90.4,454.3z
	 M94.5,449.7c-1.2-0.6-2.1-1.4-1.2-3.1c0.6,0.9,1.3,1.8,1.9,2.6C95,449.4,94.7,449.6,94.5,449.7z M104.9,455.9
	c-1.1-0.2-2.2-0.5-3.2-0.7c0.1-0.3,0.1-0.5,0.2-0.8c1.2,0.3,2.3,0.5,3.5,0.8C105.1,455.4,105,455.6,104.9,455.9z M123.8,455
	c0.4,0.9,0.9,1.8,1.4,2.9c-3.9,0.3-6.2-0.2-9.6-2.3C118.6,455.4,121.1,455.2,123.8,455z M111.7,459.2c0.9,0.6,1.6,1.1,3.1,2.2h-4.1
	C111.2,460.4,111.4,459.9,111.7,459.2z M94.3,467.1c3-0.3,6.1-0.6,9.1-1C100.5,468.3,97.4,468,94.3,467.1z M102.4,463.6
	c1.9-1.2,3.1-1.9,4.9-3.1C105.9,463.7,105.9,463.7,102.4,463.6z M108.1,460.6c-0.2-0.3-0.4-0.6-0.6-0.9c0.7-0.5,1.4-1,2.1-1.4
	c0.2,0.3,0.4,0.6,0.6,0.9C109.5,459.7,108.8,460.1,108.1,460.6z M108.6,463.9c-0.1-0.3-0.2-0.5-0.3-0.8c0.7-0.3,1.4-0.7,2.2-1
	l0.4,0.8C110,463.2,109.3,463.5,108.6,463.9z M111.3,472.6c1.1-1.3,2.2-2.6,3.4-3.9C114.2,471.3,113.8,471.6,111.3,472.6z
	 M114.8,465.3c-0.9-0.3-1.7-0.6-2.6-0.8c0.1-0.3,0.2-0.6,0.3-0.9c0.9,0.2,1.8,0.5,2.6,0.7C115,464.6,114.9,464.9,114.8,465.3z
	 M115.2,463c1.6-1.6,2.4-1.1,3.3,1.1C117,463.5,116.1,463.2,115.2,463z M117.6,470.1c0.7-1.3,1.2-3.2,3.6-2
	C120.4,469.7,118.9,469.8,117.6,470.1z M120.1,477c-0.2-0.2-0.5-0.4-0.7-0.6c0.7-0.7,1.3-1.4,2-2.1c0.2,0.2,0.4,0.4,0.6,0.6
	C121.4,475.5,120.8,476.2,120.1,477z M119.1,472.6c1.4-1.6,3-2.7,5.6-2.5C123,471.8,121.6,473.2,119.1,472.6z M121.1,464.3
	c0-0.3,0.1-0.6,0.1-0.8c1.6,0.4,3.1,0.8,5.1,1.3C124.4,466.1,124.4,466.1,121.1,464.3z M119.8,459.8c5.9-1.2,6.3-1.1,8.2,3.1
	C124.6,463,122.3,461.7,119.8,459.8z M193.6,467.2c-1.2,0.1-2.2,0.2-3.1,0.2c-11,0.3-21.9,0.5-32.9,0.8c-5,0.1-9.9,0.5-14.9,0.6
	c-1.9,0.1-3.8-0.2-5.8-0.3c-0.3-1.3-0.6-2.3-0.9-3.6c-1.3,0.7-2.4,1.2-3.7,1.9c2.4-4.5,4.3-8.9,3.2-14c-1.1,3.7-2.1,7.2-3.2,10.7
	c-0.1,0.4-0.6,0.6-1.3,0.8c1.7-3.7,2.5-7.5,2.4-12.1c-1.4,3.4-1.1,6.8-3.6,9.6c-1.4-2.8,0.7-5,0.5-7.4c-0.2-2.3,0-4.7-0.4-7.1
	c-0.5,3.5-1.1,6.9-1.7,10.9c-1.5-1.3-2.6-2.1-2.1-3.9c0.5-0.2,1.2-0.5,1.3-0.7c0.2-1.9,0.1-3.8,0.2-5.7c0-2-0.7-4,0.9-5.8
	c0.3-0.4,0.2-1.2,0.2-1.8c-0.1-5.6-0.2-11.2-0.3-16.7c-0.1-13.2,0-26.5-0.1-39.7c-0.1-7-0.4-14-0.4-21c0-6.7,0.3-13.4,0.5-20.5h28
	c0.5,16.5,1.1,33,1.6,49.5c0.4,16.4,0.7,32.8,1,49.6c11.6,0.2,23,0.4,34.7,0.6V467.2z M62,469.9c2.7-1.4,5.1-2.6,7.6-3.9
	C65,466.7,63.7,467.5,62,469.9z M274.4,461.1c4.4-7.1,7.2-14.9,7.6-23.3c0.3-5.7,0.3-11.4,0.4-17.1c0.2-9.4,0.3-18.8,0.7-28.2
	c0.4-9.4,0.3-18.8-1.2-28.1c-0.6-3.5-1.6-7-4-9.8c-8.8-9.9-19.2-17.1-32.8-18.3c-9.4-0.8-18.6-0.5-27.1,4.4
	c-3.2,1.8-6.4,3.8-9.1,6.3c-3.5,3.3-6.3,7.2-6.8,12.2c0.2,0.1,0.5,0.2,0.7,0.3c0.3-0.4,0.7-0.7,0.9-1.1c2.9-7.7,8.7-12.6,15.8-16.3
	c5.3-2.8,11-3.7,16.9-4.1c6.6-0.5,12.9,0,18.9,3c0.9,0.5,1.9,0.8,2.8,1.1c6.3,2.3,11.7,5.8,15.1,11.7c2.8,5,4.7,10.4,4.7,16.3
	c0,10.2,0.1,20.4-0.1,30.5c-0.3,11.5-1,22.9-1.2,34.3c-0.2,9-2.4,17.3-7.3,24.9c-1.2,1.8-2.7,3.3-4.1,4.9c-1.7,1.9-3.7,2.2-6.2,1.8
	c-3-0.5-6.1-0.7-9.1-0.6c-5.8,0.1-11.7,0.6-17.5,0.9c-1.3,0.1-2.6-0.2-3.8,0.2c-2.8,0.9-5,0.1-7.4-1.4c-6.6-4-11.8-9.1-14.9-16.4
	c-4-9.5-4.8-19.5-5.4-29.5c-0.5-7.7-0.5-15.5-0.4-23.2c0.1-6.4,0.6-12.7,0.9-19c0.2-4.5,0.6-9,0.8-13.5c-0.9,0.8-1.4,1.7-1.5,2.7
	c-0.6,6-1.4,11.9-1.6,17.9c-0.4,14.7-0.6,29.5,0.9,44.2c0.7,7.4,1.9,14.6,4.8,21.5c2.4,5.6,5.6,10.6,11,13.8c1.7,1,3.2,2.2,5.2,3.6
	c-3,1-5.4,1.8-7.8,2.6c0.6,0.7,1.1,0.8,1.5,0.8c5.8-0.8,11.5-1.8,17.3-2.4c3.3-0.3,6.7,0.5,9.9,0c6.9-1.1,13.6-1.1,20.5,0.2
	c4.3,0.8,8.6,0.4,12.7-1.6h-5.5C271.5,464.9,273.2,463.1,274.4,461.1z M142.7,379.1c-1.1,0.9-2.1,1.9-3.2,2.8
	C140.9,381.4,142.3,380.9,142.7,379.1z M138.5,437c-0.8,1.1-1.5,2-2.2,2.9c0.9-0.5,1.7-1,2.6-1.5C138.8,438.1,138.7,437.7,138.5,437
	z M155.7,424.1c-0.5-12.6-1.1-25.2-1.5-37.8c-0.4-12.6-0.7-25.2-1-37.8c-0.1-3.8-0.7-4.3-4.6-4.2c-5,0.2-9.9,0.5-14.9,0.6
	c-1.5,0-2.1,0.7-2.3,2c-0.1,1.1,0,2.3,0.1,3.4c0.1,5.7,0.2,11.4,0.2,17.2c0.1,7.7,0,15.5,0.2,23.2c0.2,7.4,0.6,14.8,0.7,22.1
	c0.2,8.4,0.1,16.8,0.3,25.2c0.1,3.6,0.4,7.3,0.7,11.1c1.3-0.2,2.1-0.3,3-0.5v3.8c1.1,0.7,1.9,1.4,2.6,1.8c-0.4,2.6-0.6,4.9-1.1,7.1
	c-0.7,2.8-0.6,3.1,2,3.1c8.1-0.1,16.3-0.2,24.4-0.3c6.5-0.1,13-0.2,19.5-0.3c2,0,3.9,0,6,0c0-5.1,0-9.7,0-14.2c0-4.4-0.7-5-5.1-5
	c-7.8,0-15.5,0-23.3-0.1c-1.6,0-3.2-0.3-5-0.5C156.2,437,155.9,430.5,155.7,424.1z M150.9,347c-0.9,0.8-1.8,1.6-2.8,2.5
	C149,347.3,149,347.3,150.9,347z M140.9,351.1c-1.7,1.6-3.4,3.2-5.1,4.8l-0.6-0.6c1.7-1.6,3.4-3.2,5-4.8
	C140.4,350.7,140.7,350.9,140.9,351.1z M145.1,349.4c-2.4,2.5-4.2,5.7-7.7,7.1C139.1,353.2,142.4,351.6,145.1,349.4z M137.2,356.7
	c-0.4,0.7-0.9,1.5-1.3,2.2C135.8,357.4,135.8,357.4,137.2,356.7z M136,346.7c0.1,1.8-1,2.6-2.7,2.9
	C134.2,348.7,135.1,347.7,136,346.7z M133.1,370.9c-1-5.3,2-8,6.1-10.5c4.1-2.4,7.9-5.4,12.4-8.5c0.3,4.8,0.5,8.8,0.9,12.9
	c0.2,2-0.5,3.5-1.9,4.6c-5.3,4.2-10.6,8.3-16,12.4c-0.2,0.1-0.5,0.1-1.2,0.4c-0.2-3.4-0.3-6.8-0.5-10.1
	C133,371.6,133.2,371.2,133.1,370.9z M133.8,392.3c-0.3-1.4,0.6-2.2,1.5-3c1.3-1.2,2.4-2.5,3.6-3.7c-1.7,1.2-3.5,2.5-5.2,3.7
	c-0.2-0.1-0.3-0.2-0.5-0.3c0.5-0.9,0.9-1.8,1.4-2.7c-1.8,0-1.5-1.1-0.7-1.9c1.3-1.3,2.8-2.5,4.3-3.7c2.2-1.8,4.5-3.7,6.7-5.5
	c0.5-0.4,1.1-0.5,2.5-1.2c-1.8,2.1-3.1,3.5-4.3,4.9c1.6-1.1,3.3-2.2,4.8-3.4c1.4-1.1,2.6-2.4,3.9-3.6l0.6,0.5
	c-0.5,0.7-0.9,1.5-1.5,2.1c-2.2,2.3-4.4,4.5-6.7,6.7c1.6-0.9,3.3-1.7,5.3-2.8c-0.6,0.8-0.9,1.5-1.4,2c-2.6,2.6-5.2,5.2-7.7,7.8
	c2.2-1.6,4.5-3.2,6.6-4.9c1.6-1.3,3-2.7,5-3.8c-0.3,0.7-0.4,1.5-0.9,1.9c-3.4,3.1-6.8,6-10.2,9.1c-0.4,0.4-0.8,0.8-1.1,1.3
	c-1.9,1.4-3.7,2.8-5.9,4.4c-0.1-2.6,2.2-3.4,2.9-5.1C135.7,391.4,134.8,391.8,133.8,392.3z M142.6,392.6c-1.5,1.3-3,2.5-4.5,3.8
	l0.1-0.1c-1,0.5-1.9,0.9-2.9,1.4l-0.5-0.5c0.7-0.7,1.4-1.5,2.1-2.2c0.9-1.1,1.8-2.1,2.7-3.2c3.6-0.9,5.7-3.9,8.4-5.9
	c1.2-0.9,2.3-2,3.9-2.6c-0.3,0.5-0.5,1.1-0.9,1.5C148.2,387.3,145.4,390,142.6,392.6z M146.9,390.9c-0.9,0.6-1.8,1.2-2.6,1.8
	c-2.1,3.1-5.3,4.8-8.5,6.7c0.7-1,1.5-1.9,2.2-2.9c2.1-0.6,3.7-1.8,4.6-3.8c0.5-0.1,0.9-0.1,1.4-0.2l2.3-2.3
	C146.5,390.4,146.7,390.6,146.9,390.9z M151.2,385.8c0.2,0.2,0.5,0.5,0.7,0.7c-0.1,0.6-0.2,1.2-0.3,1.9c-0.7-0.1-1.4-0.2-2.4-0.3
	C150,387.2,150.6,386.5,151.2,385.8z M134.1,413.4c0-1.5,0.3-3.1,0-4.6c-0.8-3.9,1.2-6.1,4.2-8.1c4.3-2.9,8.5-6,12.8-8.9
	c0.4-0.3,0.9-0.4,1.6-0.7c0.2,1.3,0.5,2.4,0.6,3.5c0.2,5.1,0.3,10.2,0.4,15.2c0.1,2.3,0.2,4.6-1.7,6.4c-0.3,0.3-0.2,1-0.4,1.5
	c0.5-0.3,1-0.7,1.8-1.2c0,2,0.1,3.7-0.1,5.3c-0.1,0.5-1.2,0.9-1.8,1.3c0.2-0.7,0.5-1.4,0.9-2.5c-0.8,0.2-1.2,0.3-1.8,0.4
	c0.1-0.9,0.2-1.9,0.2-2.8c-0.2,0.1-0.4,0.2-0.6,0.3c0-0.5,0-1.1,0.2-1.5c0.6-1.4,1.3-2.7,1.9-4c-2.6-1,1.5-2-0.6-3.3
	c-5.7,3.6-10.8,8.7-17.6,12.5C134.1,419.2,134.1,416.3,134.1,413.4z M136.5,423.9c-0.5,0.7-1,1.4-1.7,2.6
	C134.2,424.5,135.2,424.1,136.5,423.9z M135.7,436.9c0.9-1,1.8-2,2.7-3.1c-0.9,0.6-1.9,1.3-2.8,1.9c0.7-1.6-0.2-3.4,0.3-5
	c0.5-1.6,1.6-3.1,2.4-4.6c-1.1,1.3-2.2,2.7-3.3,4.1c-0.3-1.8-0.3-1.8,3-6.8c1.4-2.1,2.5-4.5,5.5-5.7c-1,2-1.8,3.7-2.6,5.3
	c-0.9,1-1.8,2-2.7,3.1c1.8-0.3,2.5-1.5,2.8-3.2c0,0,0,0,0,0c1.8-2.3,3.6-4.7,5.3-7c0.4-0.5,0.9-1,1.3-1.6l0.7,0.5
	c-1.4,2.2-2.8,4.3-4.1,6.5c-0.7,1.2-1.3,2.4-1.9,3.6c0.4-0.3,0.8-0.6,1.5-1.1c-0.1,1.7-0.7,2.5-2,2.9c0.1-0.5,0.2-1,0.4-1.5
	c-0.9,0.7-1.8,1.4-2.7,2.2c0.1,0.1,0.2,0.3,0.3,0.4c0.6-0.3,1.2-0.6,1.8-0.9c-1.1,2.3-2.2,4.6-3.3,6.8c2.4-3,4.8-5.9,7.2-8.9
	c-1,2.1-2.1,4.1-3,6.2c-0.4,0.8-0.5,1.8-0.7,2.7c0.3,0,0.6,0,0.9,0.1c1.1-0.9,2.3-1.7,3.2-2.8c1.5-2,2.8-4.1,4.2-6.1
	c-1,5-4.2,8.5-8.1,11.7c0.2-0.9,0.5-1.8,0.7-2.7c-0.3,0-0.6,0-0.9-0.1c-1,1.5-2,3-3.1,4.5c-0.9,0.5-1.7,1-2.6,1.5
	c-0.6,0.6-1.1,1.3-1.7,1.9c-0.2-0.1-0.3-0.1-0.5-0.2C134.6,440,135.2,438.5,135.7,436.9z M146,428.8c-0.4,0.8-0.8,1.5-1.3,2.3
	c-0.2-0.1-0.3-0.2-0.5-0.3c0.4-0.7,0.9-1.5,1.3-2.2C145.7,428.7,145.9,428.7,146,428.8z M143.3,462.2c0.4-1.1,0.9-2.1,1.6-3.8
	C145.6,460.6,144.4,461.4,143.3,462.2z M146.8,462.4c1-1.6,2-3.1,3.1-4.8C149.9,460.8,149.5,461.5,146.8,462.4z M151.4,462.3
	c0.9-1.5,1.8-2.9,2.8-4.4c0.2,0.2,0.5,0.4,0.7,0.6c-1,1.4-1.9,2.8-2.9,4.2C151.8,462.6,151.6,462.5,151.4,462.3z M154.9,453
	c0.3-0.9,0.6-1.8,1-2.7c0.2,0.1,0.4,0.1,0.7,0.2c-0.3,0.9-0.6,1.8-0.9,2.6C155.3,453.2,155.1,453.1,154.9,453z M183.6,446.6
	c2.5-1.3,4.3-0.2,4.3,2.5c0.1,3,0,6.1-0.1,9.1c-0.1,2.6-1,3.8-3.6,3.9c-6.5,0.1-12.9,0-20.1,0c1.3-1.3,2.3-2.4,3.5-3.3
	c4.2-3.4,8.5-6.8,12.8-10.2C181.5,448.1,182.5,447.2,183.6,446.6z M171.2,447.7c0.3-0.5,0.7-1,1-1.5c0.2,0.1,0.4,0.3,0.7,0.4
	c-0.6,0.9-1.2,1.8-1.9,2.7c-0.9,1.8-1.8,3.7-2.7,5.5c-1-2.6,1.2-4,2.6-5.6C171,448.6,171,448.1,171.2,447.7z M163.7,446.3
	c-1,2.6-1.7,5.5-4.2,7.3C160.3,450.8,161.5,448.2,163.7,446.3z M160.3,446.1c0.3,0.1,0.6,0.2,1,0.3c-0.4,0.8-0.8,1.6-1.2,2.4
	c-0.2-0.1-0.4-0.2-0.6-0.2C159.8,447.8,160,446.9,160.3,446.1z M164.4,448.8c0.6-0.9,1.2-1.8,1.8-2.6c0.2,0.1,0.5,0.3,0.7,0.4
	c-0.8,1.7-1.6,3.5-2.5,5.2c-1.1,2.2-2.4,4.4-3.5,6.7c2.2-3.2,4.4-6.3,6.6-9.5c0.7-1,0.9-2.3,2.7-2.5c-1.5,2.7-2.9,5.4-4.4,8.1
	c-0.5,1-0.9,2-1.4,3.1c0.7-0.7,1.3-1.6,2-2.2c0.4-0.3,1.1-0.3,1.7-0.4c-0.9,1.4-1.9,2.8-2.9,4c-0.5,0.6-1.4,1.3-1.8-0.2
	c-1.2,1.3-2.5,2.6-3.9,4.1c-0.3-0.6-0.5-1.1-0.7-1.6c-0.6,0.3-1.3,0.6-2.3,1.1c0.2-0.8,0.3-1.5,0.4-2.1c-0.5,0.2-1.1,0.4-2.2,0.9
	c1.2-3.1,2.8-5.2,4.7-7.3c-0.5,1.6-1.1,3.2-1.6,4.9C160,455.5,162.2,452.1,164.4,448.8z M156.9,454.6c-0.2-0.1-0.4-0.2-0.5-0.3
	c0.6-1.1,1.1-2.2,1.7-3.4c0.2,0.2,0.5,0.4,0.7,0.6C158.2,452.6,157.5,453.6,156.9,454.6z M140.5,460.7c0-1.5-0.2-2.4,0-3.1
	c1.1-2.9,1-5.3-2.2-6.5c0.1-1.7,0.3-3.1,0.4-4.9c-1.7,0.2-2.9,0.4-4.4,0.6c0.2-0.9,0.2-1.6,0.6-1.9c6-4.6,12.1-9.2,18.2-13.8
	c0.2-0.1,0.5-0.1,1-0.1c0.2,3.6,0.5,7.2,0.7,10.9c0.1,2.1,0.4,4,3.7,4.4C152.3,451.3,146.7,455.8,140.5,460.7z M68,469.9
	c0.9-0.6,1.8-1.1,2.7-1.7c0.5-0.7,1-1.5,1.4-2.2C70.1,466.5,69.1,468.3,68,469.9z M216.8,356.6c0,0.1,0,0.1,0,0.2c0,0,0-0.1,0.1-0.1
	L216.8,356.6z M214.5,397.6c1-3,2.1-6,3.1-8.9C215.6,391.3,214.9,394.4,214.5,397.6z M278.2,145.3c1.6,0.5,2.8-0.6,3.6-3.2
	c-2.9-1.7-3.9-1.7-4.8-0.1C276.3,143.3,276.8,144.8,278.2,145.3z M279.1,141.7c0.8,0.8,1,1.1,1.2,1.3c-0.3,0.3-0.7,0.6-1,0.8
	c-0.1,0.1-0.7-0.4-0.7-0.6C278.6,142.7,278.9,142.3,279.1,141.7z M218.4,392.1c-0.5,1.4-1.1,2.9-1.6,4.3
	C218.3,395.4,218.4,393.8,218.4,392.1z M216.9,356.6c0-0.1,0-0.1,0-0.1c0,0,0,0.1-0.1,0.1L216.9,356.6z M89,424.4
	c-0.5,0.1-1.1,0.2-1.6,0.4c0,0.2,0.1,0.4,0.1,0.6c0.4,0,0.9,0,1.3-0.1c0,0,0,0,0,0h0c0,0,0,0,0,0c0,0,0,0,0,0
	C88.8,425,88.9,424.7,89,424.4z M83.8,433.9L83.8,433.9c-0.1,0-0.1,0-0.2,0C83.7,433.9,83.7,433.9,83.8,433.9z M83.8,433.9
	c0,0,0.1-0.1,0.1-0.1C83.8,433.8,83.8,433.8,83.8,433.9L83.8,433.9z M61,464.5c-3-0.4-6.1-0.7-9.1-0.9c-1.4-0.1-2.8,0.1-4.1,0.6
	c-4.8,1.7-9.6,2.1-14.6,1.3c-2.2-0.4-4.6-0.5-6.8-0.3c-8.1,0.7-16.2,1.6-24.2,2.5c-0.7,0.1-1.4,0.5-2,0.7c5.2-0.1,10.3-0.5,15.3-0.9
	c6.5-0.5,12.9-1,19.4-0.2c3.7,0.4,7.7,0,11.3-0.9c3.1-0.8,5.9-1,9-0.7c2.2,0.3,4.6-0.2,6.9-0.4C61.5,464.9,61.3,464.5,61,464.5z
	 M83.6,433.9c-5.9,0.4-7.6,0.7-9.3,2.1C77.9,436,81.1,436.5,83.6,433.9z M61.8,465.3c0,0,0.1,0.1,0.1,0.1c0,0,0,0,0.1-0.1
	c0,0,0-0.1,0-0.1C62,465.2,61.9,465.3,61.8,465.3z M72.2,466L72.2,466C72.3,466,72.3,465.9,72.2,466C72.3,465.9,72.3,465.9,72.2,466
	L72.2,466C72.2,466,72.2,466,72.2,466C72.2,466,72.3,466,72.2,466L72.2,466z M71.4,426.4L71.4,426.4
	C71.4,426.4,71.4,426.4,71.4,426.4L71.4,426.4z M70.7,468.2c0,0,0,0.1-0.1,0.1C70.7,468.3,70.7,468.3,70.7,468.2
	C70.8,468.3,70.8,468.2,70.7,468.2C70.8,468.2,70.8,468.2,70.7,468.2z M273.3,369.8c-0.1-2.9-0.6-5.8-1.3-8.6
	c-2.1-8.9-8.6-13.8-16.4-17c-3.5-1.4-7.4-1.8-11.1-2.4c-10.7-1.7-20.5,0.9-29.2,7.1c-5.4,3.9-9.3,9.1-9.8,16.1
	c-0.5,7.6-1.4,15.2-1.4,22.8c-0.1,14.2,0.2,28.5,0.6,42.7c0.1,4.4,0.7,8.7,2.4,13c1.9,5.1,4.8,9.6,8.2,13.7
	c4.7,5.5,10.5,9.4,18.3,7.4c4.4-1.1,8.8-1.3,13.2-1.1c1.5,0.1,3,0,4.6-0.1c2.8-0.2,5.6-0.7,8.3-0.6c1.8,0.1,2.9-0.5,3.9-1.8
	c2.5-3.3,4.6-6.7,5.5-10.8c0.6-3.1,0.9-6.3,1.6-9.3c2-9.5,2.1-19.2,2.7-28.8c0.4-7.1,0.1-14.2,0.1-21.4c0,0,0,0,0,0
	C273.4,383.8,273.5,376.8,273.3,369.8z M270.7,361.8c-1,2.9-1.9,5.7-2.9,8.6c-0.3-0.1-0.7-0.2-1-0.3c0.9-2.9,1.8-5.7,2.6-8.6
	C269.8,361.5,270.2,361.6,270.7,361.8z M263.8,372.4c1-3.4,2.1-6.8,3.1-10.2c0,0,0,0,0,0C267.6,366.1,265.6,369.2,263.8,372.4z
	 M266.7,353.5c-1.9,6.1-3.8,12.1-5.8,18.2c2.3-5.3,4.6-10.6,7-16c-0.3,2.3-0.7,4.4-1,6.5c-0.6,1.1-1.4,2.3-1.9,3.5
	c-1.4,3.9-2.9,7.7-5.9,10.9c0.2-1.3,0.5-2.7,0.7-4c0-0.9-0.3-1.8,0-2.6c1.8-5.4,3.7-10.7,5.6-16
	C265.5,353.7,265.9,353.6,266.7,353.5z M260.2,406.1c0.7-1.8,1.2-3.6,2.4-5.2c-1.3,4.4-2.6,8.8-3.9,13.3c0,0,0.1,0,0.1-0.1
	c-0.5,0.8-1.1,1.5-1.6,2.3c-0.4-1.9,0.2-3.5,0.8-5.1C258.6,409.6,259.5,407.9,260.2,406.1z M258.3,405c0.3-0.9,0.6-1.8,0.9-2.7
	c0.2,0.1,0.5,0.2,0.7,0.3c-0.3,1-0.6,2.1-1.1,3.8C258.5,405.5,258.3,405.2,258.3,405z M270.4,394.3v3.6l-0.1-0.1l0,0l0,0
	c0,0.1,0,0.2-0.1,0.3c0-0.1,0.1-0.1,0.1-0.2c0.9,2.6,0.1,5.6-2,7.6c0.6-2.5,1.2-5,1.9-7.4c-2.6,4.1-3.1,9-4.5,13.5
	c-1.4,1.1-1.5,2.6-1.5,4.3c0.5-1.4,1.1-2.9,1.6-4.3c0.5-0.6,1-1.3,1.5-1.9c-0.9,2.8-1.7,5.7-2.7,8.5c-0.2,0.6-0.9,2.3-1.9,0.3
	c-0.7,0.5-1.4,0.9-2.4,1.7C263.7,411.6,266.9,403.4,270.4,394.3z M266.6,400.6c-0.3,1.1-0.7,2.3-1,3.4
	C265,402.5,265.4,401.3,266.6,400.6z M266.8,400.2c0-1.2,0.1-2.3,0.1-3.5c0.3,0,0.6,0.1,0.9,0.1C267.9,398,267.4,399.1,266.8,400.2z
	 M266.5,416.9c0.6-1.8,1.1-3.3,1.7-5.1C268.9,415.3,268.9,415.3,266.5,416.9z M262,409.7c-0.3-0.1-0.5-0.2-0.8-0.4
	c0.6-1.7,1.2-3.5,1.7-5.2c0.2,0.1,0.4,0.1,0.6,0.2C263,406.1,262.5,407.9,262,409.7z M260.2,413.1v3.1c-0.2,0-0.5,0.1-0.7,0.1
	l-0.7-2.1C259.2,413.8,259.7,413.5,260.2,413.1z M258.2,419.5c-0.1,0.8-1.1,1.5-2.1,2.7v-4.1C257.5,417.7,258.4,418.4,258.2,419.5z
	 M256.2,371.8c-0.4-0.2-1.1-0.4-1.1-0.5c0.2-1.1,0.5-2.2,0.8-3.3c-0.4,0.3-0.7,0.7-1.5,1.4c0.4-4.1,1.4-7.5,3.8-10.4
	c-0.7,2.4-1.5,4.8-2.2,7.1c2.4-2,2.5-5.1,3.5-7.8c0.5-1.5,1-3,2.2-4.3c-0.7,2.9-1.4,5.8-2.1,8.7c0,0,0.1-0.1,0.1-0.1
	c-0.5,1.7-1.1,3.3-1.6,5c0.5-0.6,1-1.2,1.5-1.8c-0.1,0.9-0.1,1.9-0.3,2.8c-0.4,2.1-0.7,4.2-1.2,6.2c-0.2,0.9-0.6,1.7-1,2.9
	C255,375.7,256,373.7,256.2,371.8z M227.5,443.2c0.3,0.1,0.6,0.2,0.9,0.3c-0.7,1.7-1.4,3.4-2.1,5.1c-0.3-0.1-0.5-0.2-0.8-0.3
	C225.6,446.4,226.8,444.9,227.5,443.2z M225.1,443.3c0.3-0.8,0.7-1.7,1-2.5c0.2,0.1,0.4,0.2,0.6,0.2c-0.3,0.9-0.7,1.9-1,2.8
	C225.5,443.7,225.3,443.5,225.1,443.3z M228.1,440.2c-3.6-6.6-5.2-13.8-5-21.3c0.3-12.6,0.8-25.2,1.4-37.8c0.2-4.7,0.8-9.4,1.4-14
	c0.5-3.9,2.7-6.4,6.5-7.6c3.8-1.1,7.6-2.2,11.6-0.7c1.3,0.5,2.7,1,3.5,2c1.5,1.7,2.9,3.6,3.8,5.6c3.1,6.8,4.1,13.1,4.4,23.1
	c-0.5,13.3-1,26.7-1.5,40c-0.2,4.5-1.5,9-4.6,12.2c-4.6,5-12.5,5.8-18.9,1.6C229.6,442.7,228.8,441.4,228.1,440.2z M251.9,363.7
	c0.4-1.2,0.8-2.4,1.3-3.6c0.2,0.1,0.4,0.1,0.6,0.2c-0.4,1.2-0.7,2.5-1.1,3.7C252.5,363.9,252.2,363.8,251.9,363.7z M261.1,361.4
	c-0.5,1.4-0.9,2.8-1.4,4.2c0-1,0-1.9,0-2.9C260.2,362.2,260.6,361.8,261.1,361.4z M261.2,361c0-3.5,2.1-6.2,3.1-9.3
	C264.3,354.3,262.5,359.1,261.2,361z M243.8,343.1c0.1,0.2,0.1,0.5,0.2,0.7c-0.7,0.2-1.5,0.4-2.2,0.6c-0.1-0.3-0.1-0.6-0.2-0.9
	C242.4,343.4,243.1,343.2,243.8,343.1z M239.7,342.5c-0.8,5.2-2.2,6.8-5.1,7c0.9-1,1.9-1.8,2.7-2.9
	C238,345.6,238.6,344.3,239.7,342.5z M225.2,349.1c0.8-1.5,1.4-3.1,2-4.6c0.3,0.1,0.6,0.2,0.8,0.4c-1,2.5-2,5-2.9,7.4
	c1.8-2.8,3.6-5.5,5.4-8.3c0.2,0.1,0.3,0.1,0.5,0.2c-1,2.7-1.9,5.4-2.9,8.1c1.3-2.1,2.6-4.2,4-6.3c0.5-0.8,1.1-1.6,2-3
	c0.5,2.4-0.8,3.4-1.3,4.7c-0.5,1.4-1,2.8-1.5,4.2c1.8-2.8,3.6-5.7,5.4-8.5c0.2,0.1,0.3,0.1,0.5,0.2c-0.9,2-1.8,4-2.7,6
	c-0.6,0.8-1,1.7-1.7,2.5c-0.3,0.3-1,0.3-1.5,0.5c-0.8,0.5-1.6,1-2.3,1.6c-0.6,0.6-1.1,1.5-2.2,1.9l1.4-4c-0.8,1.2-1.7,2.3-2.5,3.5
	c-1.1,1.6-2.2,3.2-3.6,5.3c-0.4-1.2-0.5-1.6-0.6-2c0,0-0.1,0.1-0.1,0.1c1-1.9,2.1-3.9,3.1-5.8c-0.9,1.1-1.7,2.2-2.6,3.3
	c-0.1,0.2-0.3,0.5-0.4,0.7c0,0.6-0.1,1.2-0.1,1.8c-0.8,0.9-1.5,1.8-2.3,2.7c0-1.9,0.7-3.4,2.4-4.4c0.1-0.2,0.3-0.5,0.4-0.7
	c0.1-1,0.2-2,0.2-3C224.4,352.9,224.3,350.6,225.2,349.1z M222.2,347.8c-0.5,1.8-1.1,3.7-1.6,5.5C218.8,351,221.1,349.5,222.2,347.8
	z M215.9,352.6c-0.2,0.5-0.3,1.1-0.5,1.6c-0.8,1.7-1.6,3.4-2.7,5C212.5,356.6,214.1,354.6,215.9,352.6z M211.9,353.9l0.9,0.3
	c-0.7,1.2-1.3,2.4-2,3.6C211.2,356.5,211.6,355.2,211.9,353.9z M215.5,356.4c0.5-0.8,1.1-0.9,1.4,0.1c0.6-0.8,1.2-1.7,1.6-2.6
	c0.5-1.1,1.2-0.9,2-0.6c0,0,0,0,0,0c-0.3,0.5-0.6,1-0.9,1.5c0.6-0.6,1.2-1.2,1.8-1.8c-0.4,2.7-0.7,3.1-2.5,3.7
	c-0.5,0.8-0.9,1.6-1.4,2.4c-0.3-0.8-0.5-1.7-0.8-2.5c-1.8,3.3-3.7,6.5-5.5,9.8h0c-0.6,0.7-1.3,1.4-1.9,2c-0.1-0.1-0.2-0.1-0.3-0.2
	c0.6-1.5,1-3,1.7-4.4C212.2,361.4,213.9,358.9,215.5,356.4z M217.6,360c0,0.6,0,1.3,0,1.9c-0.8,1.2-1.6,2.3-2.6,3.8
	c-0.4-0.6-0.6-1-0.9-1.5c-0.7,0.6-1.4,1.1-2.1,1.7c0.7-0.6,1.4-1.1,2.1-1.7C215.3,362.8,216.5,361.4,217.6,360z M210.5,358.7
	c-0.7,1.9-1.4,3.8-2.1,5.7c-0.3-0.1-0.6-0.3-0.9-0.4C208.5,362.2,209.5,360.5,210.5,358.7z M205.6,384.2c0-2.2,0.3-4.3,0.2-6.5
	c-0.1-2.5,1-4.3,3-5.8c11.3-8.4,22.6-16.9,34-25.3c0.7-0.5,1.5-1,2.2-1.5c1.8-1.1,3.5-1.5,5.7-0.9c4.3,1.2,8.4,2.7,12.3,6
	c-4.6,3.6-9,7-13.4,10.4c-5.8-5.3-12.1-5.2-18.4-2.5c-3.7,1.6-6.4,4.7-6.9,9c-0.7,5.5-1,11.1-1.5,16.7c-0.1,1.2,0.2,2.8-1.7,2.9
	c0.2-1.5,0.5-3.1,0.8-4.6c-0.2-0.2-0.5-0.3-0.7-0.5c-5,4.3-10.1,8.7-15.6,13.4C205.6,391.1,205.5,387.7,205.6,384.2z M208.4,396.1
	c0.3,0.1,0.6,0.2,0.9,0.3c-1,2.6-1.9,5.1-2.9,7.7c-0.3-0.2-0.6-0.4-0.9-0.5L208.4,396.1z M205.7,413.9c0.5-1.3,0.8-2.6,1.3-3.8
	c-0.3,0.2-0.6,0.3-0.9,0.5c-1.5-0.7,3.3-13.3,7.3-19.6c0.2,0.6,0.3,1.1,0.4,1.5c1-1.7,1.9-3.3,3.2-5.6c0.4,1.1,0.5,1.5,0.6,1.9
	c0.7-1.1,1.4-2.1,2.5-3.8c-0.4,2.4-0.7,4.2-1,6c0.6-1.3,1.3-2.6,1.9-3.8c0,1.1,0.2,2.1-0.1,3.1c-0.8,3.1-1.7,6.2-2.6,9.3
	c1.2-2.6,2.4-5.1,3.5-7.7c0.1,0,0.3,0,0.4,0c-0.1,0.8-0.2,1.6-0.4,2.4c-0.7,2.3-1.4,4.6-2.1,6.8c0.7-0.8,1.3-1.6,2-2.4
	c0.1,0.1,0.3,0.1,0.4,0.2c-0.7,2.4-1.4,4.8-2.1,7.3c-0.3,0-0.6-0.1-0.9-0.1c0.1-0.8,0.2-1.6,0.4-2.5c0.1-0.9,0.2-1.7,0.4-2.6
	c-0.5,1.5-1,3-1.6,4.4c-0.6,1.2-1.2,2.5-2.2,3.2c-0.9,0.7-1.2-0.1-0.9-1c-1.3,1.7-2.5,3.4-4.2,5.6c-0.1-1.2-0.2-1.8-0.2-2.3
	c-0.8,1.4-1.6,2.7-2.4,4.1l-0.5-0.1c0.1-0.4,0.2-0.9,0.3-1.3c-0.7,0.9-1.3,1.9-2.1,3C205.2,415.7,205.3,414.9,205.7,413.9z
	 M206,430.4c-0.3-3-0.5-6.1-0.4-9.1c0-1.1,0.4-2.7,1.2-3.3c4.6-3.8,9.3-7.3,14-11c0.3,0.2,0.7,0.3,1,0.5v21.2
	c-4,3.6-8.5,7.4-14.5,10.2C206.8,435.8,206.2,433.1,206,430.4z M211.5,444.5c0.4-1.4,0.7-2.8,1.1-4.3c0.2,0,0.3,0.1,0.5,0.1
	c-0.3,1.4-0.6,2.9-1,4.3C211.9,444.6,211.7,444.5,211.5,444.5z M215.8,435c0.7,3-0.5,7.6-2.8,10.4
	C213.9,441.9,214.8,438.4,215.8,435z M214.1,449.1c-0.1,0-0.2-0.1-0.4-0.1c0.3-1,0.7-2,1.1-3.3c0.4,0.9,0.5,1.3,0.7,1.8c0,0,0,0,0,0
	C215,448,214.5,448.5,214.1,449.1z M216.4,454.7c-0.3-0.1-0.5-0.1-0.8-0.2c0.5-2.3,1.1-4.6,1.6-6.9c-0.4,0.5-0.9,0.9-1.7,1.8
	c0.1-1,0.1-1.5,0.1-2c0.6-0.2,0.6-1.8,1.7-0.6c-0.9-1.8-0.3-3.4,1-5.5v3.3c1.8-3.6,2.6-7.6,3.5-11.9c-1.3,1-2.2,1.6-3.1,2.3
	c-0.2-0.3-0.4-0.5-0.6-0.8l4.2-3.4c0.2,0.2,0.5,0.3,0.7,0.5c-0.7,6.3-3.1,12.3-4.1,18.6c1.1-3.1,2.2-6.1,3.2-9.2
	c0.5-1.4,0.8-2.9,1.3-4.9c0.7,4.6-1.7,13.8-4.7,18c0.2-1.6,0.3-2.8,0.4-4C218,451.3,217.2,453,216.4,454.7z M248.7,462.1
	c-0.5-3-0.2-4.3,1.8-7.1C249.8,457.6,249.3,459.6,248.7,462.1z M250.2,461.5c0.8-2.8,1.6-5.7,2.3-8.5c0.3,0.1,0.5,0.1,0.8,0.2
	C253.3,456.2,252.1,458.9,250.2,461.5z M254.3,461c1-3.2,2.1-6.3,3.1-9.5c0.2,0,0.5,0.1,0.7,0.1c-0.4,1.8-0.7,3.7-1.1,5.5
	c0,0,0.1-0.1,0.1-0.1c-0.8,1.4-1.5,2.8-2.3,4.2C254.7,461.1,254.5,461,254.3,461z M257.4,460.6c-0.2,0-0.3-0.1-0.5-0.2
	c0.1-1.1,0.2-2.3,0.3-3.4c0.5-0.4,1-0.9,2-1.9C258.5,457.4,258,459,257.4,460.6z M261.7,460.5c-0.1,0.4-1.4,0.6-2.5,1
	c0.8-1.5,1.3-2.6,1.9-3.6c0,0,0,0,0,0c0.8-1.5,1.6-3.1,2.4-4.6C264.1,455.9,262,458,261.7,460.5z M260.6,453.7c0.8-2,1-4.1,1.6-6.2
	c0.2-0.8,0.5-1.6,1-3.1c0.9,2,0.4,3.3,0.1,4.5c-0.7,3-1.5,6-2.3,8.9C260.2,456.5,260,455.3,260.6,453.7z M263.6,452.7
	c0.1-0.8,0.2-1.5,0.3-2.3c0.3,0.1,0.5,0.2,0.8,0.2C264.4,451.3,264,452,263.6,452.7z M270.2,435.3c-0.1,1.4-1,3-2.1,3.8
	c-6,4.7-12.1,9.3-18.2,13.8c-3.3,2.4-6.4,5.1-9.8,7.2c-8.7,5.6-16,4.4-22.4-2.6c-0.2-0.3-0.3-0.7-0.4-1.1c4.5-3.2,8.9-6.3,13.4-9.4
	c1.6-1.1,3-0.6,4.6-0.1c7.4,2.3,14.8-1.3,18-8.2c1.7-3.7,2.6-7.4,2.5-11.5c5-3.7,9.9-7.4,14.8-11c0.5,0.4,0.8,0.6,0.8,0.7
	C271,423.1,270.7,429.2,270.2,435.3z M271.9,391.4c-4.6,3.3-9.4,6.7-14.7,10.4c-0.1-1.3-0.3-2-0.3-2.8c-0.1-5.3-0.2-10.6-0.1-15.9
	c0-0.9,0.3-2.1,0.9-2.7c3.9-3.4,8-6.6,12-9.9c0.5-0.4,1.1-0.5,2.2-1.1V391.4z M73.6,425.3h3c-1-0.2-1.9-0.5-2.9-0.7
	C73.7,424.8,73.7,425,73.6,425.3z M76.6,425.3c0.1,0,0.2,0.1,0.4,0.1c0,0,0,0,0,0c0.2,0,0.3,0.1,0.5,0.1c-0.1-0.1-0.3-0.1-0.4-0.2
	H76.6z M247.7,439.8c0.7-0.8,1.5-1.4,2-2.3c0.8-1.4,1.9-2.8,2.1-4.3c0.5-4.3,0.7-8.6,0.7-12.9c0.1-8.1,0-16.2,0-24.3
	c0-6.5,0.5-13-1.3-19.3c-1.2-4.3-2.1-8.7-5.1-12.2c-2.1-2.6-4.7-4.3-8.3-3.6c-1.1,0.2-2.2,0.5-3.3,0.6c-2.6,0.3-1.7,4.2-4.6,4.2
	c-0.3,0-0.7,1-0.9,1.6c-0.4,1.5-0.9,2.9-1,4.4c-0.7,10.3-1.3,20.6-2,32.3c0.2,6.9,0.5,15.3,0.8,23.7c0.2,3.9,0.9,7.6,3.2,10.9
	C234.4,444.6,240.9,447.4,247.7,439.8z M234.4,370.3c0.1-2.3,0.9-4.2,2.7-6c1.7-1.6,3-1.7,4.7-0.9c1.1,0.6,2.3,1.4,2.9,2.4
	c1.6,2.8,3.3,5.7,4.4,8.8c2.9,8.2,2.2,16.8,2.1,25.3c-0.1,8.1-0.2,16.2-0.4,24.3c0,2.7,0,5.4-0.4,8c-0.2,1.3-0.9,2.6-1.7,3.7
	c-0.9,1.4-2.1,2.5-3.2,3.8c-1.9,2.2-4.7,2.6-6.6,0.4c-1.4-1.5-2.4-3.6-2.9-5.6c-0.8-3.7-1.3-7.5-1.5-11.3
	c-0.5-10.2-0.8-20.3-1.2-29.5C233.7,385.3,234,377.8,234.4,370.3z M413.3,385C413.4,384.9,413.4,384.9,413.3,385
	c0.1-0.1,0-0.1,0-0.1L413.3,385c0.1-0.2,0.1-0.3,0.2-0.4l-0.2,0.2C413.3,384.9,413.3,384.9,413.3,385z M410.8,384.3
	c-0.3,0.4-0.7,0.7-0.9,1.1c-0.2,0.4-0.2,0.9-0.3,1.4c0.2,0,0.3,0.1,0.5,0.1c0.4-0.7,0.7-1.4,1.1-2.2
	C411,384.6,410.9,384.4,410.8,384.3z M479.2,426.4c0.2-1,0.4-2,0.6-3c-0.5,0.9-1,1.8-1.4,2.7C478.7,426.2,478.9,426.3,479.2,426.4z
	 M478.4,390.7c0.5-1.8,1.1-3.6,1.6-5.5c-0.5,0.6-1,1.2-1.5,1.8c0-0.7,0-1.5,0-2.2c-0.5,1.6-1.1,3.2-1.6,4.8c0.5-0.7,1-1.5,1.5-2.2
	C478.4,388.5,478.4,389.6,478.4,390.7z M411.9,388.7c0.9-1.1,1.8-2.1,1.5-3.7c-0.7,1.1-1.5,2.2-2.2,3.3
	C411.4,388.4,411.6,388.5,411.9,388.7z M403,345.1c-2.5,1.5-4.7,4.8-7,9.8C399.4,352.7,400.7,349.1,403,345.1z M352.2,398.8
	c1.5-1.4,1.7-3.2,1.6-5.1C353.3,395.4,352.7,397.1,352.2,398.8z M395.8,355L395.8,355c0.1,0,0.1-0.1,0.2-0.1
	C395.9,355,395.9,355,395.8,355z M616.4,448.1c-9.6,1.3-19.1,2.8-28.7,3.8c-7.1,0.7-14.2,0.8-21.3,1.1c-7.8,0.3-15.5,0.5-23.3,0.9
	c-1.2,0-2.5,0-3.2,1.8c9.7-1.8,19.3-1.4,28.8-1.1c12,0.3,23.8-1.4,35.6-3.4c7.1-1.2,14.2-3,21.5-1.8
	C622.6,448.3,619.6,447.6,616.4,448.1z M476.2,431.4c0.2,0.1,0.3,0.1,0.5,0.2c0.3-0.7,0.7-1.4,1-2c-0.2-0.1-0.4-0.2-0.5-0.3
	C476.8,429.9,476.5,430.6,476.2,431.4z M479.9,423.1C479.9,423.1,479.9,423.1,479.9,423.1c-0.1,0.1-0.1,0.2-0.1,0.3
	C479.9,423.3,479.9,423.2,479.9,423.1C480,423.1,480,423.1,479.9,423.1L479.9,423.1c0.1-0.1,0.1-0.1,0.1-0.2
	C480,422.9,479.9,423,479.9,423.1L479.9,423.1z M469.4,447.5c0.3,0.1,0.5,0.2,0.8,0.2c0.4-1.5,0.7-3,1.1-4.5c-0.2,0-0.3-0.1-0.5-0.1
	C470.4,444.5,469.9,446,469.4,447.5z M563.2,474.7c0.1-0.2,0.2-0.5,0.2-0.7c-3.8-1.4-7.5-2.8-11.3-4.3c0.1-0.2,0.1-0.4,0.2-0.6
	c2.5,0.4,5.1,0.8,7.6,1.1c-0.6-0.6-1.3-1.1-2-1.2c-3-0.4-6-0.6-9.1-1c-1.9-0.3-4-0.1-5.7-2.5c3.3-0.5,6.1-0.9,9-1.4
	c-3.6-0.2-7.1,0.2-10.6,0.5c-1.5,0.1-3-0.1-4.6-0.2c0-0.4-0.1-0.7-0.1-1.1c3.3-0.7,6.7-1.5,10-2.2c-4.2,0.1-8.4,0.6-12.4,1.4
	c-1.8,0.4-3.4,0.2-5.3-1c4-1,7.7-2,11.6-3c-1.4-0.1-2.4-0.2-3.4-0.3c0,0-0.1,0-0.1,0c-1.2-0.2-2.3-0.6-3.5-0.7
	c-4.5-0.4-8.9,0.4-13.1,1.8c-1.5,0.5-3,0.8-5.2,0c2.3-0.9,4.1-1.6,6.6-2.7c-5.9-0.2-10.2,3.7-15.9,2.3c5-2.9,10.3-2.3,15.4-4.2
	c-5.8-0.3-11.3-0.9-16.5,1.2c-2.7,1.1-5.4,2.2-8,3.6c-2.7,1.4-5.5,1.1-8.4,0.9c0.4-0.5,0.8-0.9,1.3-1c0.7-0.1,1.6,0.3,2.2,0.1
	c3-1.2,5.8-2.5,8.8-3.7c2-0.8,4-1.6,6-2.3c1.2-0.4,2.4-0.6,3.7-0.9c0-0.2-0.1-0.4-0.1-0.6c-4.3,1-8.7,2-13,2.9
	c4.5-2.5,9.1-4.7,14.3-5c-3.3,0.1-6.6,0.3-9.8,1c-3.1,0.6-5.9,2.4-9.6,2.7c0.5-0.8,0.7-1.5,1.1-1.6c4.4-1.6,8.9-3.2,13.3-4.8
	c-0.1-0.2-0.1-0.4-0.2-0.6c-3.4,0.8-6.8,1.6-10.6,2.6c1-1.9,1.5-2.7,3.7-2.9c3.6-0.3,7.2-1.8,10.8-2.8c-0.1-0.2-0.1-0.5-0.2-0.7
	c-3.3,0.7-6.6,1.3-9.9,2c-0.1-0.3-0.1-0.6-0.2-0.8c4.3-1.2,8.6-2.4,12.8-3.6c-1.5-0.4-3-0.3-4.4,0c-1.6,0.3-3.1,0.6-5.4,1.1
	c2.7-3.9,6.8-2.5,9.9-4.7h-4c0-0.1,0-0.3,0-0.4c3.5-0.7,7-1.4,10.5-2c0-0.2-0.1-0.4-0.1-0.6c-2.2,0.1-4.3,0.2-6.5,0.3
	c0.6-0.8,1.2-1,1.9-1.1c4-0.8,7.9-1.5,11.9-2.4c0.8-0.2,1.4-1,2.6-1.9H521c4.1-1.9,8.8,0.2,12.7-2.5h-6.9c4.9-1.7,10.2-1.1,15.7-3.7
	c-3,0.3-5.3,0.6-7.5,0.8c0-0.2-0.1-0.4-0.1-0.7c2.6-0.9,5.2-1.8,7.8-2.8c-0.1-0.2-0.1-0.4-0.2-0.6l-8.7,2.1c0-0.1-0.1-0.2-0.1-0.3
	c1.5-0.9,3-1.8,4.5-2.8c-0.1-0.2-0.2-0.4-0.3-0.6c-4.2,2.1-8.3,4.2-12.5,6.4c-0.1-0.1-0.2-0.2-0.2-0.4c1.4-1.3,2.8-2.6,4.2-3.9
	c-5,1.9-8,6.7-13.1,8.5c1.6-1.8,3.2-3.6,4.8-5.4c-0.2-0.2-0.4-0.4-0.6-0.6c-2.9,3.1-5.7,6.1-8.6,9.2c-0.1,0-0.3-0.1-0.4-0.1
	c0.7-1.6,1.4-3.3,2.4-5.5c-2.7,2-3.7,4.2-4.4,6.6c-0.5,1.7-1.3,2.8-3.8,3.3c1.2-2.3,2.2-4.2,3.1-6c-0.3-0.1-0.5-0.3-0.8-0.4
	c-1.4,2.5-2.9,5-4.1,7.6c-0.7,1.5-1.4,2.8-3.2,3.6c0.4-4.2,3-7.1,4.9-10.8c-2,1.6-3.4,2.8-4.9,4c0.3,0.2,0.8,0.6,0.7,0.7
	c-1.3,3.1-2.6,6.2-4.3,10c-0.7-4.4,1.7-7,2.9-10c-0.7,0.4-1.4,0.8-2.5,1.3c-0.2-2.2-0.5-3.9-0.5-5.7c-0.1-4.1-0.1-8.2-0.2-12.2
	c-0.4-12-1.1-23.9-1.3-35.9c-0.2-10.7,0.1-21.4,0.4-32.1c0.1-3.7-1.6-6.6-3.6-9.4c-0.3-0.4-1-0.3-2.2-0.7c0,3.6,0,6.7,0,9.8
	c0,10.6-0.2,21.2,0,31.7c0.2,19.2,0.5,38.5,0.8,57.7c0.1,2.9-0.4,5.5-1.9,8c-1.9,3.3-3.3,6.8-2.4,10.9c0.5,2.4-2.3,5.4-4.7,5.6
	c-5.7,0.5-11.3,0.9-17.2,1.3c-0.3-5.8-0.6-11.3-0.8-16.7c-0.2-5.6-0.1-11.2-0.3-16.8c-0.1-5.5-0.5-10.9-0.6-16.4
	c-0.1-5.6,0.4-11.2-0.2-16.8c-0.6-5.3,0.4-10.8-1.3-16.1c-0.8,0.9-1.3,1.9-1.5,2.9c-0.4,2-0.6,4-1,6c-2.1,9.7-4.5,19.3-6.5,29
	c-2.2,10.2-4.1,20.5-6.1,30.7c-0.7,3.2-1.4,6.5-2.1,9.7c-0.4,1.9-1.4,3.2-3.6,3.3c-4.1,0.2-8.1,0.6-12.2,0.7c-4.2,0.2-4.5-0.1-6-4.2
	c-0.2-0.6-0.4-1.2-0.6-1.8c-1.5-5-3.2-9.9-4.5-14.9c-2.2-8-4.4-15.9-6.3-24c-2.1-8.5-3.9-17.1-5.9-25.6c-0.4-1.7-0.9-3.3-1.4-5
	c-2,0.2-1.8,1.3-1.8,2.5c0.4,9.9,0.9,19.8,1.2,29.8c0.3,9.7,0.4,19.4,0.4,29c0,4.5-0.2,9.1-0.3,13.9c-9.1-0.1-17.7,1.8-26.1,1.7
	c-0.8-41.9-1.2-83.2-0.4-124.7c12.9-0.6,25.4-2.3,38-1.9c0.5,1.2,1.1,2.2,1.4,3.3c1.4,4.6,2.9,9.2,4.2,13.9
	c4,13.9,7.9,27.9,11.7,41.9c0.2,0.7-0.2,1.5-0.3,2.2c-2.3-5.1-4.1-10.1-5.7-15.1c-1.3-4-2.3-8.1-3.5-12.1
	c-2.9-9.1-5.8-18.1-8.7-27.2c-0.9-2.8-1.3-3.3-4.3-3.4c-3.1,0-6.1,0.1-9.2,0.2c-5.7,0.2-11.4,0.4-17.2,0.7c-3,0.2-3.3,0.5-3.4,3.4
	c-0.4,7.6-0.9,15.3-0.8,22.9c0,12.3,0.4,24.6,0.6,36.9c0.1,4.7,0.2,9.4,0.4,14.1c0.2,7.1,0.6,14.2,0.6,21.4c0.1,6-0.2,12-0.2,18
	c0,1.3,0.4,2.6,0.6,3.7c3-0.5,5.5-0.9,8-1.3c3-0.5,6-1.1,8.9-1.8c1.7-0.4,2.4-1.6,2.3-3.4c-0.1-2.2-0.2-4.3-0.1-6.5
	c0.3-9,0.7-18.1,0.9-27.1c0.2-10.9,0.3-21.9,0.2-32.8c0-2.7,0.9-4.8,2-7.1c2.5,1.1,3.3,3.1,4,5.2c0.7,2.3,1.3,4.7,2,7
	c1.6,5.4,3.4,10.6,4.8,16.1c2.9,11.4,5.4,22.9,8.2,34.3c1.2,5.1,2.6,10.2,4,15.6c4.1-0.2,8.2-0.4,12.4-0.6c1.3-0.1,2.2-0.6,2.6-1.9
	c0.6-1.9,1.4-3.8,1.9-5.8c1.5-6.3,2.7-12.7,4.2-19c3.1-13.1,6.4-26.2,9.6-39.3c1.5-6.3,3.1-12.6,4.7-18.8c0.2-0.9,0.7-1.7,1.1-2.5
	c1.3,8.1,1.9,16.1,2.6,24.1c0.3,4.2,0.8,8.4,0.9,12.6c0.2,12.5,0.2,24.9,0.4,37.4c0.1,4.5,0.4,9,0.6,14.1c4.8-0.2,9.1-0.3,13.4-0.7
	c3.3-0.3,3.6-0.8,3.4-4.2c-0.1-3.4,0.3-6.6,2-9.6c0.8-1.4,1.5-3.1,1.5-4.6c-0.1-4.2,0.1-8.4-0.3-12.6c-0.5-5.4-0.3-10.9-0.3-16.4
	c-0.1-9.4-0.1-18.9-0.1-28.3c-0.1-12.7-0.1-25.4-0.2-38.2c0-1.3,0-2.6,0-3.8c-6.2,0.4-11.9,0.8-17.6,1c-4.5,0.2-8.9,0.1-13.4,0.2
	c-2.8,0.1-3.7,0.7-4.5,3.2c-0.8,2.5-1.5,5.1-2.2,7.7c-1.2,4.8-2.2,9.7-3.7,14.4c-3.3,10.4-6.8,20.8-10.2,31.2
	c-0.2,0.6-0.3,1.4-0.7,1.7c-0.5,0.3-1.3,0.2-2,0.3c0.1-0.7,0-1.8,0.2-1.9c1.1-0.2,1.3-0.9,1.5-1.8c0.9-4.3,1.9-8.7,3-13
	c2.2-9.2,4.3-18.3,6.8-27.4c1.5-5.6,3.7-11.1,5.6-16.9c13.3-0.8,26.4-1.5,39.4-2.3c-0.1-0.9-0.5-1.3-0.8-1.3
	c-13,0.5-26.1,1.1-39.6,1.6c-1.7,4.8-3.6,9.7-5,14.6c-2.5,8.8-4.7,17.7-7,26.5c-0.2,0.6-0.6,1.2-1.1,2.2c-1.5-4.3-2.9-8.1-4.1-11.9
	c-1.5-5.1-2.7-10.3-4.2-15.4c-1.6-5.4-2.4-11-7.1-15.1c-2.9-2.6-5.7-4.4-9.7-4.2c-10.5,0.6-21.1,1.1-31.7,1.7
	c-2.9,0.2-3.7,1.2-3.5,4.2c0.1,2.2,0.2,4.3,0.2,6.5c-0.1,8-0.5,16-0.5,24.1c0,9.3,0.2,18.6,0.3,27.9c0.2,16.7,0.3,33.4,0.4,50.1
	c0,5.3,0,10.6,0,16.2c1.7-0.2,3.2-0.6,4.7-0.5c8.7,0.3,17.3-2.3,26.1-1.8c2.6,0.2,3.4-0.9,3.5-3.5c0.1-1.8,0.1-3.6,0-5.4
	c-0.5-11.1-1.1-22.1-1.6-33.2c-0.1-2.8,0-5.6,0-8.4c4.5,17,9,33.9,15.1,50.7c8.7,1.1,17.2-0.6,26.3-2.1c0.9-2.9,2.2-6.1,2.9-9.4
	c2.5-10.7,4.8-21.3,7.2-32c0.2-0.9,0.6-1.7,0.9-2.5c1,1.3,1.3,2.5,1.3,3.8c0.2,5,0.4,9.9,0.5,14.9c0.3,8.1,0.5,16.3,0.9,24.4
	c0,1.2,0.6,2.3,1,3.8c7-0.5,13.7-1,20.3-1.5c0.8,2.4,1.4,4.7,2.4,6.9c1.3,3,1.7,6.7,5.4,8.3c0.4,0.2,0.6,0.8,0.8,1.3
	c1.1,2.5,2.2,5.1,3.4,7.6c1.3,2.7,2.9,5.3,4.3,8c0.8-2.2-0.5-4.7,2.6-6.3c-0.7,3.5-2.5,6.6,0,10.1c0.2-2.4,0.4-4.2,0.5-6
	c0.3,0,0.5,0,0.8,0c0.4,3.7,0.8,7.4,1.2,11.1c2.8-6.7,1-13.1-1-19.4c0.3-0.2,0.5-0.4,0.8-0.5c0.7,1.2,1.4,2.3,2,3.5
	c0.2-0.2,0.5-0.4,0.7-0.6c-2.4-5.5-5-11-7.1-17c2.4,0,3.3,0.7,3.3,2.7c0.1,2.9,0.7,5.7,3.9,8.1c-1.4-3.1-2.7-5.5-2.2-8.5
	c3.3,2,3.3,2,3.6,4.9c0.2,1.8,0.4,3.7,2.2,5.7c-0.3-2.4-0.5-4.1-0.7-6.1c2.3,1.1,2.3,1.1,2.8,3c0.6,2.4,1.2,4.7,3.3,6.4
	c-0.6-2-1.1-4-1.9-6.5c2.9,1.1,3.9,2.7,4.2,5.1c0.4,3.1,0.6,3.2,2.8,5.2c0.1-0.3,0.2-0.6,0.4-0.9c0.5,0.7,1.1,1.4,2.1,2.7
	c-0.2-1.9-0.4-2.9-0.5-3.8c4.3,0.9,1.9,5.6,5,7.3c-0.2-1-0.4-1.9-0.5-2.8c0.2-0.1,0.3-0.2,0.5-0.2c1.2,1.4,2.3,2.7,3.5,4.1
	c-1.2-3-2.6-5.8-4.4-8.5c-1.4-2.2-4.4-2.9-5.4-5.5c-1.1-2.8-4.4-2.4-6.3-4.2c-0.1-0.1-0.1-0.4-0.2-0.8c1.4,0.3,2.7,0.6,4.2,0.9
	c-1.4-3.9-4.9-4.4-7.9-5.4c-2.6-0.9-5.3-1.2-6.1-4.4c0.8-0.1,1.7-0.3,2.6-0.5c0-0.3,0-0.6,0.1-0.9c-1.5-0.3-3-0.6-4.5-0.9
	c-2.5,0-5,1.1-7.3-1c2.4,0.3,4.9,0.6,7.3,1c-1.9-1-3.7-2-5.7-3c0.5-0.5,1.1-1,1.6-1.4c0,0,0,0,0,0c4,2.8,11,5.2,14.4,4.9
	c-2.1-2.4-4.7-4.2-5.4-7.6h3.6c1.6,3.6,3,7.1,7.5,9.1c-2.5-2.9-4.4-5.3-5.1-8.9c1.5,0.1,2.7,0.2,3.7,0.3c1.5,6.5,3.7,8.6,8.2,8.9
	c-0.8-2-1.7-4.1-2.4-6.4c-0.3-1.1,0.4-1.6,1.8-1.2c0.9,2.8,1.1,6.2,5,7.9c-1.3-2.5-3-4.3-2.8-7c1.8-0.7,2.4,0.2,2.9,1.6
	c0.7,1.6,1.3,3.4,2.4,4.7c1,1.2,2,3.1,4.2,1.8c-3.6-1-3.8-4.2-5.1-7.1c1.7-0.4,2.6,0.1,3.1,1.6c0.6,1.8,1.5,3.5,2.3,5.2
	c1,0.5,2,1,3.1,1.6c-1.4-2.2-2.6-4.3-4.2-6.8c2.4-0.1,3.5,0.1,4.1,2.1c0.8,3.1,3.2,4.8,6.6,6.4c-1.7-2.7-4.3-3.9-5-7.1
	c2.5,0.8,4.4,1.3,5.2,3.8c0.7,2,2.4,3.3,4.5,3.9c-1-1.4-1.9-2.7-3.2-4.6c4.6,0.2,4.7,4.5,7.4,6.4c0.1-0.7,0.2-1.1,0.3-1.8
	c1.8,0.8,3.6,1.6,5.3,2.3c0.1-0.2,0.2-0.4,0.3-0.6c-2.6-1.6-5.2-3.3-7.8-4.9c0.1-0.2,0.3-0.5,0.4-0.7
	C558.3,472.9,560.7,473.8,563.2,474.7z M495.5,439.7c-0.1,4.3-1.2,7.6-3.2,9.8C492.5,445.9,493.9,443,495.5,439.7z M490.5,446.3
	c0.2,0.1,0.5,0.1,0.7,0.2c-0.4,2-0.8,4-1.2,6c-0.3-0.1-0.6-0.1-0.9-0.2C489.5,450.4,490,448.3,490.5,446.3z M422.7,379.3
	c-0.5,1.3-1.3,2.5-1.6,3.8c-0.3,1.5-0.7,2.7-3.3,2.7c1.5-2.6,2.7-4.7,4-6.9C422.2,379.1,422.4,379.2,422.7,379.3z M418.8,377.7
	c-0.3,0.5-0.6,1.1-0.9,1.6C418.2,378.8,418.5,378.2,418.8,377.7c0.3-1.8,0.6-3.6,0.9-5.8c-0.9,0.5-1.3,0.7-1.7,1
	c0.3-1,0.6-2.1,1-3.3C421.8,372.6,420.7,375.2,418.8,377.7z M389.9,344.9c-2,3.6-3.9,6.7-5.6,9.8c-0.6,1-0.9,2.2-1.4,3.3
	c-0.4,0.1-0.9,0.2-1.5,0.4c-0.1-0.5-0.4-1.1-0.2-1.4c2.3-3.9,4.6-7.8,7-11.7C388.4,345.2,388.9,345.2,389.9,344.9z M382,345.4
	c0.3,0,0.5,0.1,0.8,0.1c-0.1,0.7-0.2,1.4-0.3,2c-0.3,0-0.5-0.1-0.8-0.1L382,345.4z M385.4,345.3c0,3.3-1.7,5.7-3.6,8.1
	c-0.2-0.1-0.5-0.3-0.7-0.4C382.5,350.4,384,347.8,385.4,345.3z M380.7,367.5c0.5-1.4,1-2.7,1.4-4.1c-1,0-1.7-0.4-1.1-1.6
	c0.7-1.3,1.3-2.6,2-3.9c0,0,0,0-0.1,0c2.4-3.5,4.7-7.1,7.1-10.6c0.5-0.7,1-1.3,1.8-1.9c-1.4,5.4-5,9.5-7.4,14.4
	c1.4-1.5,2.8-2.9,4.5-4.7c-0.6,1.8-1.1,3.3-1.6,4.7c2.9-4.6,5.8-9.1,8.8-13.7c0.5-0.8,0.5-2.2,2.5-1.5c-0.8,1.4-1.6,2.7-2.3,4.1
	c-0.7,1.5-1.4,3.1-2,4.6c-1.8,0.5-2,2-2.3,3.5c0.8-1.1,1.5-2.3,2.3-3.4c2.9-2.2,4-5.7,5.8-8.9h4.4c-2.2,3.8-3.6,7.6-6.7,10.3
	c-0.6,0.6-1.3,1.3-2,0.1c-1.6,1.8-3.1,3.6-4.7,5.4c-0.2-0.1-0.4-0.2-0.5-0.3c0.1-0.5,0.3-1.1,0.4-1.6c-1.2,1.3-2.4,2.7-3.6,4
	c-0.9,1-1.8,1.9-2.8,2.8c0,0-0.6-0.5-0.9-0.7c-0.9,1-1.8,2-2.7,3C380.9,367.6,380.8,367.6,380.7,367.5z M407.4,344.5
	c-0.9,3.9-0.9,3.9-3.7,5.9C404.2,347.7,405.9,346.1,407.4,344.5z M382.9,391.4c-0.6,1.8-0.9,2.8-1.3,4
	C380.4,393.2,380.4,393.2,382.9,391.4z M384.5,457.5c-0.7,0.9-1.4,1.8-2.4,3.1c0.4-1.7,0.6-2.8,0.9-3.9c0.6-0.6,1.1-1.3,1.7-1.9
	c-0.1,0.9-0.2,1.9-0.2,2.8c1.3-2.4,3.3-4.5,2.8-7.6c2.4-1.1,2.5-3.6,3.4-5.7c1.7-1,2.2-2.6,2.4-4.5c-0.8,1.2-1.6,2.3-2.4,3.5
	c0-0.9,0.1-1.8,0.1-2.7c-1.8,3.4-3.6,6.9-5.4,10.3c-0.9,1.8-1.6,3.8-2.3,5.7c-0.1-0.9-0.6-1.9-0.3-2.6c2.2-5.4,4.6-10.7,7-16.1
	c0.9-2,2-4,3.3-6c-0.3,1.7-0.6,3.4-1,5c1.1-2.1,2.1-4.2,3.2-6.2c0.4-0.8,0.9-1.6,1.4-2.3c0.3,0.1,0.6,0.3,0.9,0.4
	c-0.8,1.9-1.6,3.8-2.4,5.7c-0.8,1.8-1.5,3.7-2.3,5.5c1.7-2.6,3.3-5.3,5-7.9c0.2,0,0.3,0,0.5,0c-0.1,0.8-0.1,1.8-0.4,2.5
	c-1.6,3.6-3.3,7.2-4.9,10.7c-0.6,1.3-1.1,2.5-1.7,3.8c1-1.4,2-2.8,2.9-4.3c0.7-1.2,1.4-2.4,2.4-3.4c-1,2.7-2,5.3-3,8
	c0.5-0.8,1.1-1.5,1.6-2.3c0.2,2.5-0.6,4.6-2.9,6.7c0.3-1.4,0.4-2.2,0.5-2.9c-1.4,1.9-2.8,3.7-4.2,5.6c-0.2-0.1-0.4-0.1-0.6-0.2v-1.3
	c-1,1.3-1.9,2.6-3.4,4.6C384.5,458.4,384.5,458,384.5,457.5z M383.4,444.8C383.4,444.8,383.4,444.8,383.4,444.8c1.1-2,2.2-4,3.3-6
	c0.4-0.7,1-1.3,1.4-2c0.1-1.1-0.5-2.5,1.5-3.3c-0.1,1.5-0.2,2.6-1.4,3.4c-0.7,4.8-3.4,8.8-5.2,13.1c-0.3-0.1-0.5-0.2-0.8-0.2
	C382.6,448.2,383,446.5,383.4,444.8z M385.1,439.3c-0.6,1.8-1.1,3.7-1.7,5.5C381.6,442.5,383.9,441,385.1,439.3z M398.2,458.8
	c-3.7,2-8.1,1.8-12.2,2.6c-0.1-0.3-0.2-0.6-0.3-1c4-2.8,8-5.6,12-8.4C398.8,454.5,398.8,454.5,398.2,458.8z M399.3,425.2
	c-5.6,3.2-10.5,7.8-17,10.9c-0.1-2-0.2-3.3-0.3-4.7c-0.2-4.2-0.4-8.4-0.7-12.6c-0.1-2.2,0.4-3.9,2.3-5.2c5.1-3.5,10.1-7.2,15.5-11
	V425.2z M396,399.6c0.3,0.1,0.5,0.2,0.8,0.3c-0.5,1.3-1,2.5-1.5,3.8C394.4,401.9,395.5,400.9,396,399.6z M399.1,401
	c-0.3-0.1-0.7-0.2-1-0.3c0.3-1,0.6-2,0.9-3c0.3,0.1,0.5,0.1,0.8,0.2C399.6,399,399.3,400,399.1,401z M398.2,395.5
	c0.3-0.8,0.6-1.5,0.8-2.3c0.2,0.1,0.4,0.2,0.6,0.3c-0.3,0.7-0.7,1.4-1,2.1C398.5,395.7,398.3,395.6,398.2,395.5z M393.4,398.2
	c0.9-1.5,1.9-2.9,2.8-4.4c1-1.9,1.8-3.9,3.2-5.7c-0.1,0.6-0.1,1.3-0.3,1.8c-2,4.7-4.1,9.3-6.2,13.9c-0.7,1.6-1.6,3.1-3.9,3.8
	c1.1-2.5,2.1-4.6,3.1-6.8c-1.5,2.4-3.1,4.7-4.6,7.2c-0.8,1.3-1.4,2.6-3.1,2.8c0.8-2.2,1.5-4.3,2.3-6.5c-1,1.6-2.1,3.1-3,4.8
	c-0.2,0.4,0.4,1.1,0.7,1.8c0,0,0,0,0,0c-0.7,0.7-1.4,1.5-2.8,2.9c-0.1-5-0.8-9,1-12.9c-0.4,0-0.8-0.1-1.2-0.1c0.1-1,0.1-2,0.4-2.9
	c1-2.7,2.2-5.4,3.4-8c0.3-0.6,1-1,1.9-1.2c-1.3,3.6-2.5,7.3-3.8,10.9c1.7-3.4,3.4-6.7,5.1-10.1c0.6-1.1,1.2-2.1,2-3.1
	c-0.5,5.1-3.3,9.4-4.8,14.1c3.4-4.7,5.3-10,6.9-15.4c0.6-2,1.7-2.4,3.1-3.2c-1.2,6.7-4.2,12.6-6.7,18.7c4-6.1,7-12.6,8.7-19.7
	c0.4-1.7,1.7-2.9,3.7-2.6C398.6,384.9,396,391.6,393.4,398.2z M380.9,390.5v-20.1c10-7.7,20.2-15.7,31-24.1
	c2.4,7.1,4.7,13.8,7.1,20.6c-0.8,0.5-1.5,0.9-2.1,1.3c0.2-1.2,0.5-2.5,0.7-3.7l-0.8-0.5C404.8,372.3,393.2,381.2,380.9,390.5z
	 M403,381.4c-0.3-0.1-0.6-0.2-0.8-0.3c0.1-0.8,0.2-1.6,0.1-2.4c0-0.2-0.5-0.4-0.9-0.5c0.5-2.6,3.3-2.8,4.7-4.5
	C405.7,376.7,404.8,379.2,403,381.4z M404.8,382.7c-0.3-2.4,4.3-11.1,6.8-12.8C411.1,373.4,407.3,380.6,404.8,382.7z M408.2,384.8
	c-0.5,0.1-1,0.1-2,0.3c1.5-5.6,5-9.7,7.9-14.2l-4.6,11.8c3.4-4.2,5.4-9.2,7.3-14.2c-0.1,1.4-0.1,2.8-0.6,4c-1.2,3.2-2.7,6.4-3.7,9.9
	c1.7-2.7,3.4-5.5,5.1-8.2c-0.4,1.3-0.7,2.6-1.2,3.9c-0.9,2.2-1.9,4.3-2.8,6.5c1.1-1.2,2.3-2.4,3.4-3.7c-0.1,1.1-0.3,2.2-0.4,3.3
	c-0.1,0.5,0,1.1-0.3,1.4c-1.9,2.3-3.8,4.5-6.2,7.2C409,389.8,408,387.5,408.2,384.8z M410.2,393.9c3.3-2.3,6.4-4.5,9.6-6.6
	c1.8-1.1,3.1-2.3,3.3-4.7c2.9,6,4.5,12.3,6.6,18.8c-4.6,3.4-9.2,6.8-14,10.4C413.9,405.8,412.2,400.2,410.2,393.9z M425.7,409.3
	c-0.3,1-0.6,1.9-0.9,2.9c-0.3-0.1-0.5-0.2-0.8-0.3c0.3-0.9,0.7-1.9,1-2.8C425.3,409.2,425.5,409.2,425.7,409.3z M417.3,417.8
	c0.3-0.8,0.6-1.5,0.9-2.3c0.2,0,0.3,0,0.5,0c0,0.5,0.1,1,0,1.4c-0.1,0.4-0.5,0.8-0.8,1.2C417.6,418.1,417.5,417.9,417.3,417.8z
	 M418.4,422.1c-0.2-0.1-0.3-0.2-0.5-0.2c1.7-4.4,3.3-8.7,5-13.1c0.2,0.1,0.5,0.1,0.7,0.2c-1.1,3.5-2.3,7.1-3.4,10.6
	c1-1.5,2-3.1,3-4.6c0.1,0,0.2,0.1,0.3,0.1c-1,3.4-2.1,6.8-3.1,10.2c-0.4,0.2-0.8,0.3-1.6,0.6c0.5-2.4,1-4.4,1.5-6.5
	C419.6,420.3,419,421.2,418.4,422.1z M419.6,428.9c0.3-1.4,0.6-2.5,0.8-3.6c0,0-0.1,0-0.1,0c1.5-3.6,2.9-7.1,4.4-10.6
	c1.1-2.5,2.2-5,3.8-7.4c-1.3,4.5-2.5,8.9-3.8,13.4c2-4.8,3.9-9.5,6-14.7c0.2,0.7,0.7,1.4,0.5,1.9c-2.9,7.5-5.9,15.1-8.9,22.6
	c-0.3,0.6-1,1.1-1.9,1.4c0.3-1.2,0.5-2.5,0.8-3.7C420.9,428.3,420.4,428.5,419.6,428.9z M428.5,459.5c-0.1,0-0.1,0-0.2,0v-1.7l0.2,0
	V459.5z M430.7,460.9c-1.4-4.3,1.4-7.3,1.2-10.7C432.9,453.3,432.5,457,430.7,460.9z M432.5,459.7c0.9-4.3,1.7-8.7,2.4-13.1
	c0.5,0.1,1,0.2,1.5,0.3c-0.9,4.3-1.9,8.6-2.8,12.9C433.2,459.8,432.9,459.8,432.5,459.7z M438.8,445c0.6,5.2-1.3,10-2.9,14.8
	C435,457.5,436.5,450,438.8,445z M439.3,459.7l-1.5-0.1c0.2-1.4,0.4-2.8,0.6-4.2c0.3-1.6,0.8-3.2,1.2-4.8c0.4-1.5,0.6-3,1-4.4
	c0.4-1.2-1.6-3.1,1.3-3.8C442.3,448.4,439.1,453.7,439.3,459.7z M448.3,424.1c-0.4,1.6-0.8,3.2-1.2,4.8c-1.9,8.5-1.8,8.5-8.6,13.8
	c-3.8,3-7.7,5.8-11.6,8.6c-0.4,0.3-0.9,0.5-1.7,0.9c-1.5-6.1-3-11.9-4.5-18.1c9.9-7.5,19.8-14.9,29.7-22.4c0.2,0.2,0.5,0.4,0.7,0.5
	C450.2,416.3,449.2,420.2,448.3,424.1z M442.2,396.9c-0.7-2.3,0.6-3.1,3-4c-1,2.9-1.9,5.2-2.7,7.5c-1.5,4.3-3,8.6-4.5,12.9
	c-0.8,2.2-1.1,4.7-3.9,6.4c0.4-1.3,0.5-2.1,0.8-2.8c2.2-5.8,4.5-11.6,6.7-17.4C441.8,398.6,442.4,397.6,442.2,396.9z M447.2,399.3
	c0.8-1.8,1.6-3.6,2.4-5.4c0.3,0.1,0.5,0.2,0.8,0.3c-1.6,4.6-3.3,9.2-4.9,13.7c0,0,0,0,0.1,0c-1.1,2-2.1,4-3.5,6.6
	c-0.1-1.4-0.1-2.1-0.2-2.8c-1,1.7-2,3.3-3,5c-0.2-0.1-0.4-0.2-0.6-0.2c0.5-1.3,0.9-2.6,1.4-3.9c2.6-6.7,5.2-13.4,7.7-20.2
	c0.7-2,1.9-3.2,3.8-3.8c0.1,0.2,0.3,0.6,0.2,0.6c-2.2,1.4-2.9,3.5-3.6,5.8c-1.1,3.9-2.5,7.7-3.7,11.5
	C445,404,446.1,401.7,447.2,399.3z M445,411.7c0.3-1.7,0.4-2.8,0.6-3.9c0.6-0.1,1.4-0.7,1.8,0.3C446.7,409.2,446,410.2,445,411.7z
	 M448.7,409.4c0.3,0.2,0.7,0.4,1,0.6c-0.7,0.6-1.4,1.2-2.1,1.8c-0.2-0.2-0.3-0.3-0.5-0.5C447.6,410.7,448.2,410.1,448.7,409.4z
	 M446.2,413.2c-0.8,0.3-1.5,0.5-2.2,0.8c0.4-0.5,0.8-1.1,1.3-1.7L446.2,413.2z M453.5,397.1c-1.5,4.1-3.2,8.2-4.8,12.2
	c-0.4-0.4-0.9-0.8-1.3-1.2c0,0,0,0.1-0.1,0.1c2.2-5.1,4.4-10.2,6.5-15.3c0.6-1.4,1.1-2.8,2.3-3.9
	C455.4,391.6,454.5,394.4,453.5,397.1z M455.8,385.1c-0.4,0.9-0.7,1.8-1.2,3.1C454,386.4,453.8,385.3,455.8,385.1z M466.2,388.3
	c0.2-0.1,0.5-0.1,0.7-0.2c0.3,0.6,0.7,1.1,0.7,1.7c-0.1,1.7-0.3,3.5-0.5,5.2c-0.2,0-0.3,0.1-0.5,0.1
	C466.5,392.8,466.4,390.6,466.2,388.3z M469.4,383.2c-0.5,0.3-0.9,0.6-1.4,0.9l-0.5-0.2c0.5-0.9,1.1-1.8,1.6-2.7
	C469.3,381.9,469.4,382.5,469.4,383.2z M470.9,377.1c0,1.5-0.3,2.9-1.6,3.9C469.2,379.4,469.6,378.1,470.9,377.1z M467.1,397.9
	c2.7-3,2.8-6.9,3.9-10.4c-0.3-0.6-0.7-1.2-1-1.8c-1.4-0.6-0.5-1.6-0.4-2.5c0.7-0.2,0.9-1.8,2-0.6c0.4-0.5,0.7-1.1,1.4-2.2v2.3
	c1.7-3.6,3.4-7.2,5.1-10.8c0.1,0,0.3,0,0.4,0.1c-0.5,1.7-1,3.3-1.4,5c-0.3,1.4-0.6,2.9-0.8,4.3c0,0,0,0,0,0
	c-0.6,1.2-1.1,2.5-1.7,3.7c-1.6,1.3-1.4,3.2-1.6,4.9c1.7-1.3,3.3-2.6,2.8-5c1.4-1,1.9-2.4,1.7-4c0.5-0.4,1.1-0.8,1.6-1.1
	c-0.2,1.8-0.5,3.5-0.7,5.3c0.8-1.5,1.5-3,2.3-4.5c0,1.2,0,2.4,0,3.6c0.4-0.6,0.8-1.2,1.2-1.8c0.2,0,0.3,0.1,0.5,0.1
	c-0.3,1.1-0.6,2.2-0.9,3.4c-0.5,1.9-0.9,3.8-1.6,5.7c-0.1,0.3-1,0.5-1.5,0.7c-1.4,2.3-1.6,2.4-3,1.1c-0.4,0.8-0.6,1.6-1.1,2.3
	c-0.7,1-1.6,1.7-2.8,0.7c1.5-1.2,1.6-2.8,1.6-4.5c-1.9,0.7-1.9,2.3-2,3.9c-1.2,1.4-2.3,2.7-3.8,4.4
	C467.2,399.1,466.8,398.2,467.1,397.9z M480.1,376.5c0.1-0.3,0.9-0.3,1.4-0.4c0.4-0.3,0.8-0.6,1.1-0.9c0.2,0.1,0.3,0.2,0.5,0.3
	c-0.8,1.6-1.6,3.1-2.3,4.7c0-0.8,0-1.7,0-2.5c-0.5,0.6-1,1.2-1.5,1.7C479.5,378.4,479.7,377.4,480.1,376.5z M479.8,373
	c0-2.9,0-2.9,3.2-4.5C482,370,480.9,371.6,479.8,373z M484.4,382c-0.3,2.9-0.9,5.7-2.4,8.2c-0.3-0.1-0.6-0.2-0.9-0.3
	c0.2-0.8,0.4-1.6,0.7-2.4C482.5,385.6,483.4,383.8,484.4,382z M468.9,433.8c1.2-2.2,2.1-4.6,3.2-6.9c0.5-1.1,1-2.2,1.6-3.3
	c0.3,0.1,0.6,0.2,0.9,0.3c-0.5,1.8-1,3.6-1.6,5.4c0,0,0.1,0,0.1-0.1c-2.2,3.8-4.9,7.4-3.9,12.2c-0.4,0.2-0.7,0.5-1.3,0.9
	C467.6,439.3,467.4,436.5,468.9,433.8z M469.3,429.3c0.3-0.9,0.6-1.7,0.9-2.6c0.2,0.1,0.4,0.1,0.6,0.2c-0.3,0.8-0.6,1.7-0.9,2.5
	C469.7,429.4,469.5,429.4,469.3,429.3z M484.6,446.7c-1.9,2.2-2.4,5-2.4,7.9c0,1.5,0,3,0,4.8c-4.3,1.6-8.7,1.6-13.2,1.4
	c-0.6-2.2-1.7-4.3,1.9-6c-1.5-0.1-1.9-0.1-2.3-0.2c0-0.4,0-1.3,0.2-1.3c2.6-0.3,3-3.1,5.1-4.2c2-1,3.7-2.7,5.5-4.1
	c1.8-1.3,3.7-2.6,5.7-4.1C486.1,443,486.2,444.8,484.6,446.7z M483.8,426.9c0.5-0.4,1-0.8,2-1.6c-1.7,5.2-3.2,9.8-4.8,14.4l4-7.4
	c0.2,0,0.3,0,0.5,0c-0.1,1,0.1,2.1-0.3,3c-0.7,1.7-1.7,3.3-2.7,4.9c0,0.1-0.9-0.4-1.4-0.6c-0.8,1.3-1.5,2.6-2.2,4
	c-0.2-0.1-0.5-0.2-0.7-0.2c0.1-1,0.2-2,0.4-3c-0.6,1.1-1.3,2.2-1.6,3.3c-0.6,1.9-2.1,2.7-3.6,3.6c-0.1,0-0.5-0.6-0.8-0.9
	c-1.1,1.5-2.1,3-3.5,4.8c-2-3.8,0.6-6.7,0.2-9.7c0,0,0,0,0,0c0.6-1.4,1.3-2.8,1.9-4.1c0.8-1.7,1.5-3.3,2.3-5c-0.1-1-0.2-2.1-0.3-3.1
	c0.3-0.2,0.7-0.4,1.4-0.7v2.1c1.8-3.7,3.6-7.5,5.4-11.2c0.2,0.1,0.3,0.1,0.5,0.2c-0.1,1.1-0.3,2.1-0.4,3.2c0.7-1.3,1.6-2.5,1.8-3.9
	c0.2-1.3,0.7-1.6,1.9-1.8c-1,3.5-2.1,7-3.1,10.4c1.4-3,2.8-6,4.2-9.1c0.2,0.1,0.4,0.1,0.6,0.2c-0.6,2.8-1.2,5.5-1.8,8.3
	c-1.4,1.1-1.4,2.7-1.5,4.2C482.8,429.8,483.3,428.4,483.8,426.9z M485.1,415.2c-6.4,2.5-11.3,6.8-17.2,10.8
	c-0.3-8.5-0.5-16.2-0.8-23.6c5.9-4.1,11.7-8.1,17.9-12.5V415.2z M483.8,378.5c-0.2-0.1-0.4-0.1-0.6-0.2c0.3-1,0.5-2,0.8-3
	c0.3,0.1,0.6,0.2,0.9,0.2C484.5,376.5,484.2,377.5,483.8,378.5z M468,349.1c0.2,0.1,0.4,0.2,0.6,0.4c-1.1,1.9-2.1,3.8-3.2,5.6
	c-0.3-0.1-0.5-0.3-0.8-0.4C465.7,352.8,466.8,350.9,468,349.1z M464.1,346.6c-0.7,5.2-6.5,14.9-9.9,16.8v-1.8c0,0,0,0,0,0
	c0.9-1.1,1.9-2.2,2.6-3.4c2.1-3.5,4.1-7,6.1-10.5C463.1,347.4,463.5,347.1,464.1,346.6z M463.3,352.9c-0.1,2.8-1.5,4.8-3.1,6.7
	c-0.2-0.2-0.4-0.3-0.7-0.5C460.7,357,462,354.9,463.3,352.9z M455.3,347.4c0.3,0.2,0.6,0.4,0.9,0.5c-1.5,2.8-3.1,5.7-4.6,8.5
	C451.9,353,453.8,350.3,455.3,347.4z M450.5,360.3c0.9-1.5,1.8-3.1,2.7-4.6c0.9-1.4,1.8-2.8,3.2-3.9c-1.6,3.4-3.1,6.8-4.7,10.2
	c1.2-1.7,2.5-3.4,3.5-5.2c1.8-3.2,3.4-6.4,5.7-9.5c-0.2,0.7-0.2,1.5-0.6,2.1c-1.8,3.4-3.6,6.7-5.4,10c-0.4,0.7-0.6,1.6-0.9,2.4
	c-0.9,1-1.8,2-3.2,3.5c0.5-1.6,0.7-2.5,1-3.5c-0.9,0.9-1.9,1.9-2.8,2.8C448.9,362.9,448.9,362.9,450.5,360.3z M445,376.4
	c0-0.1,0.1-0.2,0.2-0.3c0.9-5.4,4.8-7.8,9.3-9.8c1-0.5,1.6-1.8,2.5-2.5c6.5-4.9,13.2-9.6,19.3-14.8c2.5-2.2,5.2-2.7,8.4-3.5
	c0,5.9,0,11.6-0.1,17.3c0,0.8-0.6,1.7-1.2,2.2c-5.8,4.5-11.6,9-18.1,14c-0.4-2.7-0.7-4.8-1-7c-0.9-0.2-1.7-0.3-2.9-0.5
	c-1,3.5-1.9,6.9-2.9,10.4c-0.7,0-1.6-0.2-2.3,0.1c-0.7,0.2-1.2,0.9-1.8,1.4c-4.7,3.8-9.5,7.5-14.8,10.9
	C441.3,388.2,443.2,382.3,445,376.4z M438.4,397.8c0.1,1,0.3,1.4,0.2,1.8c-0.1,0.4-0.5,0.8-0.7,1.2c-0.2-0.1-0.4-0.2-0.6-0.4
	C437.5,399.8,437.8,399.1,438.4,397.8z M432.3,408.7c0.2,1.6,0.3,2.6,0.4,3.6c1.3-2.8,2.7-5.5,4-8.3c0.2,0.1,0.3,0.1,0.5,0.2
	c-2.3,6.9-4.6,13.8-6.9,20.7c-0.2,0.5-0.9,0.8-1.8,1.5c0.1-3.4,1.6-5.9,2.5-8.6c0.6-1.9,1.3-3.8,1.9-5.7c-1.5,3.2-3,6.3-4.4,9.5
	c-0.8,1.9-1.4,3.8-2.2,5.7c-0.3,0.6-0.9,1-1.9,1.1c1.2-3.3,2.4-6.6,3.7-9.8C429.3,415.5,430.7,412.4,432.3,408.7z M521.6,486.6
	c1.6,1.3,1,3,1.2,4.5C521.5,489.3,521.5,489.2,521.6,486.6z M512.6,476.4c1.4,0.3,2.9,0.7,4.3,1c-0.1,0.3-0.3,0.6-0.4,0.8
	c-1.4-0.4-2.7-0.7-4.1-1.1C512.5,476.9,512.5,476.7,512.6,476.4z M489.9,464.4c1,0.4,2,0.8,2.9,1.2c-0.1,0.2-0.2,0.5-0.3,0.7
	c-1-0.4-1.9-0.9-2.9-1.3C489.7,464.8,489.8,464.6,489.9,464.4z M489.8,476.8c-0.7-2.1-1.3-4.1-2-6.5c4.4,1.1,1.8,4.3,2.8,6.3
	C490.3,476.7,490,476.8,489.8,476.8z M492.9,477.2c-0.8-1-1.6-2,0-3.1V477.2z M491.1,468.4c3.8,0.1,3.7,2.7,4.7,4.3
	c-0.3,0.2-0.5,0.4-0.8,0.6C493.9,471.8,492.7,470.4,491.1,468.4z M495.6,482.8c-1.4-1.6-0.9-3.5-1-5.9
	C498.1,479,495.2,481,495.6,482.8z M496.7,476.9c0.2-0.3,0.3-0.6,0.5-0.9c0.9,0.5,1.8,1.1,2.7,1.6l-0.4,0.7
	C498.6,477.9,497.7,477.4,496.7,476.9z M497.6,481.8c1.4,1.1,1.4,1.1,0,2.8V481.8z M499,492.2c-1.2-2.2-0.1-4.2,0.6-6.7
	C501.9,489.2,501.9,489.2,499,492.2z M499.8,480.5c1.2,0.7,2.1,1.2,3.2,1.9C500.9,482.7,500.9,482.7,499.8,480.5z M501.3,476.7
	c-3.1-1-3.8-3.7-5-6.8C501.3,470.4,499.6,474.6,501.3,476.7z M494.1,463.1c3.6-1.8,3.6-1.8,6.8,1C498.4,465.6,496.9,463,494.1,463.1
	z M509,467.2c-2.5-1.5-4.9-3.1-7.8-4.9c2.9-0.9,2.9-1,3.8-0.2c1.6,1.4,3.1,2.9,4.6,4.3C509.4,466.7,509.2,466.9,509,467.2z
	 M522.1,461.9c2.3,1.7,0.9,4.1,2,5.7C522.4,466.3,521.5,464.6,522.1,461.9z M525.3,461.2c-0.6,0.1-1.3-0.4-2.5-0.8
	c5-2.1,9.6-2.6,14.3-2C533.2,459.3,529.3,460.3,525.3,461.2z M349,350.2c-2.2,3.3-5.2,9.8-5.5,11.8h1.1c0.8-2.3,1.7-4.5,2.5-6.8
	C347.7,353.5,348.3,351.8,349,350.2z M342.3,353.7c0.1,0,0.1-0.1,0.2-0.1c0,0,0,0,0,0l0.1,0c0.1-0.2,0.1-0.5,0.2-0.7
	c-0.1,0.2-0.2,0.4-0.3,0.6C342.3,353.6,342.3,353.7,342.3,353.7z M340.8,358.4c0.5-1.6,1-3.1,1.5-4.7
	C340.5,354.8,340.4,356.5,340.8,358.4z M349,350.2c0.1-0.1,0.2-0.3,0.3-0.4c0-0.1,0-0.1,0-0.2c0,0-0.1,0.1-0.1,0.1
	C349.1,349.9,349,350,349,350.2z M357.6,383.3c-0.5,1.6-1.1,3.2-1.6,4.8c0,0,0,0,0,0c-0.6,1.3-1.3,2.5-1.9,3.8
	c1.7-0.8,1.8-2.4,2-3.9C357.4,386.7,357.7,385.1,357.6,383.3z M333.4,360.9c-1.8-1.1-3.6-0.4-5.2-1.1c-1.5-0.7-2.6-0.4-4,0.1
	c-4,1.3-6.3,3.9-7.5,8c-1.4,5.2-1.6,10.4-1.8,15.8c-0.4,13.4-0.7,26.7-0.1,40.1c0.2,4.7,0.9,9.4,2.2,13.9c1.2,4.1,4.1,7.4,8.7,8.2
	c4.2,0.8,10.6-2.6,13-6.7c-2.3,1.2-4.3,2.5-6.5,3.5c-3,1.4-4.7,1-6.5-1.7c-1-1.6-1.8-3.4-2.5-5.1c-2.1-5.1-1.8-10.5-2.1-15.8
	c-0.5-8-0.3-16-0.4-24c0-7.1,0-14.2,0.2-21.3c0-2.3,0.4-4.6,0.9-6.8c0.6-3,2.6-5.1,5.5-5.8c4.1-0.9,8.1,1.2,10.1,5.1
	c1.1,2.1,2,4.4,2.6,6.7c1.5,5.6,1.3,11.3,1,17.1c-0.7,15.5,0.7,31-0.9,46.7c0.5-1.1,1.3-2.1,1.5-3.2c0.4-2.2,0.8-4.5,0.8-6.8
	c0.2-14.5,0.4-29,0.6-43.5c0-4.9-0.8-9.6-2.4-14.2C339.3,366.2,337,363.1,333.4,360.9z M353,334.8c-7.8-1.9-15.7-3.1-23.8-2.8
	c-7.6,0.3-14.9,1.6-22,4.2c-2,0.7-3.9,1.8-5.8,2.9c-0.4,0.2-0.5,1.1-0.9,2.1c1.6-0.7,2.6-1.2,3.7-1.7c5.7-3,11.9-4.4,18.2-5.3
	c8.6-1.2,17-0.4,25.4,1.1c7.9,1.4,13.8,5.6,16.2,13.7c0.8,2.6,1.6,5.2,1.9,7.8c0.6,6,0.9,11.9,1.1,17.9c0.4,12.8,1.2,25.7,1,38.5
	c-0.1,9.8-1.2,19.6-2.3,29.3c-0.9,7.7-2.7,15.3-9,21.6c-4.4-0.8-9.2-1.7-14-2.6c0-0.3,0.1-0.5,0.1-0.8c2.2,0.3,4.4,0.8,6.6,1
	c3.5,0.3,6.2-0.5,8.1-4.1c2.8-5.1,4.4-10.4,4.4-16.3c0-2.7,0.1-5.4,0.2-8c0.4-6.7,1.2-13.5,1.2-20.2c0.2-14,0.1-28-0.1-42
	c-0.1-6.3-0.2-12.7-2.1-18.9c-1.8-6.2-4.9-10.9-11.7-12.6c-16.4-4.2-32.1-2.5-47.1,5.3c-5.9,3.1-9.3,8.5-9.9,15.3
	c-0.3,2.8-0.3,5.6-0.4,8.4c-0.1,7.1,0.3,14.2-0.1,21.3c-0.8,13.1-1,26.1-0.5,39.2c0.2,5,0.8,9.9,2.3,14.6c1.7,5.2,3.9,10.2,8.8,13.5
	c1.5,1,2.6,1.1,4.2,0.7c3.1-0.8,6.2-1.7,9.3-2c8.3-0.9,16.1,1.3,23.8,4.1c0.1,0,0.1,0.4,0.1,0.8c-1.2-0.2-2.3-0.3-3.4-0.5
	c-6.3-1-12.5-2.6-18.9-2c-4.4,0.4-8.9,0.9-13.2,1.6c-2,0.3-3.6,0.1-4.9-1.2c-2-1.9-4.3-3.8-5.5-6.2c-3.2-6.7-5.5-13.7-5.6-21.2
	c-0.1-5.5-0.1-10.9-0.2-16.4c-0.1-4.7-0.1-9.4-0.2-14.1c-0.1-3.7-0.3-7.4-0.2-11c0.3-8.6,0.8-17.3,1.1-25.9
	c0.2-5.5,1.6-10.5,4.2-15.3c1.1-2,2.4-4,3.8-6.5c-3.5,2.3-5.2,5.5-6.8,8.6c-2.8,5.6-3.1,11.7-3.2,17.9c-0.1,9.5-0.1,19.1-0.2,28.6
	c-0.1,6.2-0.4,12.5-0.5,18.7c-0.1,8-0.1,16.1,1.6,23.9c1.6,7.6,3.7,15.1,10.2,20.4c0.1,0.1,0.1,0.5,0.1,0.9
	c-6.1,2.2-12.8,3-18.9,5.3c0.8,0.3,1.6,0.4,2.3,0.2c6.1-1.4,12.1-3.2,18.2-4.2c6.8-1.2,13.7-2.5,20.4-2.2c8.3,0.4,16.6,2.1,24.8,3.7
	c6.8,1.3,13.5,2.5,20.3,2c0.1-0.7,0.1-1.5,0.5-2c2.3-2.8,3.1-6.1,3.9-9.4c1-4.5,2.4-8.9,2.6-13.4c0.5-8.9,0.3-17.8,0.3-26.7
	c0-8.8-0.4-17.6,0.2-26.4c0.7-10.3,0.2-20.5-0.9-30.8C371.1,346.6,360.1,336.5,353,334.8z M345.6,459.1c4.2-4.1,8.7-7.1,13.3-10.5
	C358.2,457,353.6,462.1,345.6,459.1z M356.7,447.2c0.3-1.1,0.5-2.2,0.8-3.4c0.2,0.1,0.5,0.3,0.7,0.4l-0.8,3.1
	C357.2,447.3,356.9,447.2,356.7,447.2z M360.8,428c-1.9,7-3.8,13.9-5.7,20.9c-0.2,0.6-0.9,1-1.4,1.4c-0.2-0.1-0.4-0.3-0.6-0.4
	c0.3-1.6,0.6-3.2,1-4.7c-0.6,1.1-1.2,2.1-1.7,3.2c-0.5,1.4-0.9,2.8-1.6,5c-0.3-3.6,3.9-18.1,6.9-23.4c-1.2,5.1-2.5,10.2-3.7,15.4
	c0.5-1.1,1.1-2.2,1.5-3.4c1.6-5.1,3.2-10.2,4.8-15.2c0-0.1,0.4-0.2,0.9-0.5C360.9,426.9,360.9,427.5,360.8,428z M354.9,430
	c-0.6,1.5-1,2.5-1.5,3.8C352,431.6,353.1,431,354.9,430z M361.3,423.4c-5,3.5-9.8,6.8-14.7,10.2c0-6.9,0-13.5,0-20
	c0-0.6,0.3-1.3,0.8-1.6c4.7-3.6,9.4-7.1,14.6-11C362.7,409,361.6,416.3,361.3,423.4z M348.6,402.2c-0.3,0.5-0.7,0.9-1.3,1.8
	c-1.5-6.9,1.4-12.4,3.1-18.1c0.4,0.1,0.7,0.2,1.1,0.2c-1,3.6-1.9,7.2-3.2,10.7C347.5,398.7,347.7,400.4,348.6,402.2z M347.3,391
	c-0.3,0-0.6,0-0.9-0.1c0.1-0.7,0.3-1.3,0.4-2c0.2,0,0.4,0.1,0.6,0.1C347.4,389.7,347.4,390.3,347.3,391z M360.8,395.9
	c0.2,1.2,1.1,2.5-0.8,3.4C360.3,398.2,360.5,397,360.8,395.9z M360.5,390.9c0.3-0.9,0.6-1.8,0.9-2.7c0-0.1,0.2-0.1,0.3-0.1
	c0.1,0,0.2,0.2,0.4,0.4c-0.3,0.8-0.6,1.7-0.9,2.6C361,391,360.8,390.9,360.5,390.9z M361.1,384.6c-1,4-2.2,8-3.3,12.1
	c-0.1,0.4,0.1,0.9,0.1,1.4c0.1,1.4,1.2,2.9-1,4.2c0.4-1.6,0.7-2.9,1-4.2c-0.7,1.1-1.4,2.3-1.9,3.5c-0.8,1.7-1.4,3.5-3.9,4.6
	c1.3-3.5,2.3-6.5,3.4-9.5c-1.1,2.1-2.2,4.2-3.3,6.3c-0.8,1.7-1.4,3.4-2.8,5c-0.1-0.5-0.2-1.1-0.2-1.6c-0.6,1-1.3,2-1.9,2.9
	c-0.2,0-0.4-0.1-0.5-0.1c0.6-2.4,1.2-4.7,1.8-7.1c0,0,0,0.1-0.1,0.1c1.2-2.9,2.4-5.7,3.5-8.6c1.2-3.4,2.2-6.9,3.3-10.4
	c0.3-0.8,1-1.5,2.1-1.9v2.2c0.5-0.6,0.9-1.2,1.9-2.6c-1.3,5.4-2.4,10-3.5,14.6c3.1-4.5,3.2-10,5-15c-0.8-0.2-1.3-0.3-2.2-0.6
	c1.1-0.8,2-1.4,2.8-2.1c0.2,0.1,0.5,0.2,0.7,0.3C361.9,380.3,361.6,382.5,361.1,384.6z M361.3,361.6c0.2,3.7,0.2,7.4,0.5,11
	c0.1,1.6-0.2,2.6-1.4,3.6c-4.5,3.5-8.9,7.1-13.7,11c-0.8-7-1.5-13.6-2.1-19.7c2.8-1.7,4.5-4.8,7.4-6.4c2.8-1.6,5.3-3.7,8.4-6
	C360.8,357.7,361.2,359.6,361.3,361.6z M358.5,350.9c0.2,0.1,0.4,0.1,0.7,0.2c-0.3,0.9-0.6,1.7-0.8,2.6c-0.2-0.1-0.5-0.2-0.7-0.2
	C357.9,352.6,358.2,351.7,358.5,350.9z M353.2,358.5v-2.2c0,0-0.1,0.1-0.1,0.1c1.3-2.4,2.7-4.7,4-7.1
	C356.4,352.4,355.7,355.4,353.2,358.5z M357,346c-0.4,0.9-0.7,1.8-1.1,2.7c-0.2-0.2-0.5-0.3-0.7-0.5c0.4-0.8,0.8-1.6,1.1-2.5
	C356.5,345.9,356.8,346,357,346z M349.1,343.5c0,0.1-0.1,0.3-0.1,0.4C349,343.8,349.1,343.7,349.1,343.5
	C349.2,343.6,349.2,343.6,349.1,343.5C349.2,343.6,349.2,343.6,349.1,343.5L349.1,343.5c1.1,0.1,1.5-3,3.1-0.7
	c-2.1,1.8-2.5,4.2-2.9,6.8c0.5-0.4,1-0.7,1.5-1.1c-0.5,1.5-0.9,3.1-1.5,4.6c-0.7,2-1.4,3.9-2.1,5.9c-0.8,1-1.7,2-2.5,2.9h0
	c0,0,0,0.1,0,0.1l0,0c0,0,0,0,0,0l0.1-0.1c-0.1,0.9,0.2,1.4,1.2,1.4c0.5-1.5,0.9-2.9,1.4-4.4c3-4.2,4.8-9,6.6-13.7
	c-0.3-0.1-0.5-0.3-0.8-0.4c-0.5,0.8-1.1,1.7-1.6,2.5c0.3-1.5,0.6-3,0.9-4.4c1,0.2,2.1,0.3,3.3,0.5c-1.8,5-3.4,9.6-5.1,14.2
	c0.7-1,1.4-1.9,2.2-2.9c0.1,0.6,0.2,1.1,0.4,1.7c-0.6,0.8-1.3,1.7-2.1,2.7c-0.1-0.6-0.3-1.2-0.4-1.7c-1.8,1.9-2.1,5-4.9,6l0,0
	c0,0,0.1-0.1,0.1-0.1c0,0,0,0-0.1,0c0,0,0,0,0,0c-0.7,0.5-1.4,0.9-2.2,1.5c-3.3-3.4-6.6-6.7-10.3-10.4c0.1-0.2,0.4-1,0.9-2
	c0.2,0.4,0.3,0.7,0.4,0.9c0.3,0.9,0.7,1.8,1.3,3.4c1.4-2.5,2.4-4.2,3.3-5.9c0.2,0.1,0.4,0.2,0.6,0.2c-0.6,1.9-1.2,3.8-1.8,5.7
	c0.2,0.1,0.3,0.2,0.5,0.2c1.9-3.9,3.8-7.8,5.7-11.7c0.1,0.1,0.3,0.1,0.4,0.2c-0.7,2.5-1.3,5-2,7.5c1.3-2.7,2.6-5.4,3.9-8
	C347.1,343.9,347.4,342.3,349.1,343.5z M314.2,341.6c1.2-0.2,2.4-0.4,4.2-0.7C316.8,342.8,315.4,341.7,314.2,341.6
	c0,1,0.1,1.9,0.2,2.9c-0.3,0-0.5,0.1-0.8,0.1c-0.2-0.4-0.3-0.8-0.8-1.7c-1.3,1.8-2.4,3.4-3.6,5.2c-0.8-1.8,2-3,0.4-4.5
	C311.1,343,312.6,342.3,314.2,341.6z M309.3,343.6c-0.6,0.9-1.3,1.7-2,2.7C306.9,344.3,307.8,343.8,309.3,343.6z M303.4,348.5
	c0.3,0.1,0.5,0.3,0.8,0.4c-0.4,1-0.7,1.9-1.1,2.9c-0.2-0.1-0.5-0.2-0.7-0.2C302.7,350.6,303.1,349.5,303.4,348.5z M301.5,347.2
	c0.3,0.2,0.6,0.3,0.8,0.5c-1.5,3.6-2.6,7.3-5.3,10.2c-0.2-0.1-0.5-0.3-0.7-0.4C298,354,299.7,350.6,301.5,347.2z M294.1,363.3
	c0-0.8,0.9-1.8,1.6-2.4c2.6-2.3,5.2-4.5,7.9-6.6c5.8-4.4,11.6-8.6,17.4-12.9c1.7-1.2,3.5-1.8,5.6-2c6.8-0.8,13.4-0.5,20.5,1.6
	c-0.6,0.7-0.9,1.1-1.3,1.4c-5.1,3.5-10.3,7-15.4,10.5c-1.8,1.2-3.7,2-5.9,2.2c-4.3,0.5-8.2,2.1-10,6.5c-1.3,3.3-4.3,4.9-6.8,7
	c-3.6,3-7.5,5.7-11.3,8.5c-0.7,0.5-1.5,0.8-2.4,1.3C294.1,373.1,294,368.2,294.1,363.3z M301.9,375.7c-0.6,1.3-1.2,2.6-1.8,3.9
	c-0.2-0.1-0.4-0.2-0.6-0.2c0.5-1.4,1-2.8,1.5-4.2C301.3,375.4,301.6,375.6,301.9,375.7z M296.3,384.9c0.3,0.1,0.6,0.3,0.9,0.4
	c-1,2-1.9,4-2.9,6c-0.3-0.1-0.5-0.3-0.8-0.4C294.4,388.9,295.4,386.9,296.3,384.9z M294.3,396.7c-0.3-0.5-0.9-1.1-0.7-1.4
	c2.4-5.1,4.9-10.1,7.3-15.1c0.3,0.1,0.6,0.3,0.8,0.4c-1.4,3.4-2.7,6.8-4.1,10.2c4-5.3,6.6-11.4,8.5-17.7c0.5-1.5,0.8-2.6,2.5-2.8
	c0.8-0.8,1.6-1.5,2.5-2.3c0.2,0.2,0.5,0.3,0.7,0.5c-0.7,3.6-2.2,6.8-4,10c0.4-1.7,0.8-3.4,1.1-5.1c0.2-1,1.2-2.1-0.3-2.9
	c-2.8,8.7-6.5,17.1-11.3,24.8c1.2-1.2,2.4-2.5,3.6-3.7c1.8-3.6,3.6-7.3,5.5-10.9c0,0.9-0.1,1.9-0.1,2.8c0.4-0.2,0.9-0.4,1.6-0.7
	c-0.7,2.2-1.3,4.2-1.9,6.2c0.8,2.6,0.8,2.6-1.3,4c0.5-1.5,0.9-2.8,1.3-4.1c-1.6,2.4-3.3,4.8-4.9,7.2c-0.1-0.1-0.3-0.1-0.4-0.2
	c0.2-0.9,0.4-1.9,0.6-2.8c-1.2,1.7-2.3,3.5-3.5,5.1c-0.4,0.5-1.2,1.6-1.9,0.1c-0.6,0.9-1.2,1.7-1.8,2.6c-0.2-0.1-0.5-0.2-0.7-0.2
	C293.6,399.5,294,398.1,294.3,396.7z M309,380.2c-0.1-0.1-0.1-0.2-0.3-0.4c0.3-0.6,0.6-1.2,0.9-1.8c0.1,0,0.3,0.1,0.4,0.1
	c-0.2,0.6-0.5,1.3-0.7,1.9C309.2,380.1,309.1,380.2,309,380.2z M309.1,389c-0.2,0.5-0.4,1-0.6,1.5l-0.6-0.2c0.2-0.5,0.3-0.9,0.6-1.4
	C308.4,388.8,308.8,389,309.1,389z M292.8,422.9c0-5,0.3-9.9,0-14.9c-0.1-3.1,1.2-5.1,3.5-6.7c3.2-2.3,6.4-4.6,9.6-6.9
	c1.2-0.9,2.5-1.8,4-2.9c0.2,0.9,0.4,1.7,0.4,2.5c0,6.9,0.4,13.8-0.1,20.6c-0.4,4.5-2.2,8.8-3.4,13.2c-0.6,2.3-1.3,4.6-2,6.9
	c0.5-0.5,1-1,1.5-1.5c-0.2,3.3-1.4,6.2-2.7,9.1c-0.3-0.1-0.6-0.2-0.9-0.3c0.7-2.5,1.5-5,2.2-7.5c-1.2,2.2-2.3,4.4-3.4,6.6
	c-0.5,0.9-0.9,1.9-1.6,2.8c3-9.9,7.1-19.4,9.7-30.2c-6,3.6-10.8,7.7-16.2,11.5C293,424.3,292.8,423.6,292.8,422.9z M311.2,432.8
	c0.3,1.2,1.4,2.6-1.7,3.2c0.3-1.3,0.6-2.3,0.9-3.4C310.6,432.7,310.9,432.8,311.2,432.8z M308.8,431.4c0.2,0.1,0.5,0.2,0.7,0.3
	c-0.9,2.7-1.8,5.4-2.7,8C306,436.6,308.1,434.2,308.8,431.4z M306.4,432.9c0.5-1.3,1-2.6,1.5-4C307.8,430.4,307.7,431.8,306.4,432.9
	z M308,428.4c0.2-1.1,0.4-2.2,0.7-3.3C309.3,426.5,309,427.5,308,428.4z M298.3,442.9c-0.3-1.4-0.4-2.1-0.5-2.7c0,0-0.1,0-0.1,0.1
	c0.8-1.3,1.6-2.6,2.3-4c0.6-1,1.1-1.9,1.6-2.9C301.5,436.6,299.8,439.4,298.3,442.9z M303.3,428.9c-0.5,1.3-1,2.6-1.5,4
	C301.7,431.3,301.9,429.9,303.3,428.9z M303.6,428.4c0.2-1.7,0.5-3.4,0.7-5.1C305.1,425.2,304.8,426.9,303.6,428.4z M304.3,423.3
	c0.6-1.7,1.3-3.3,1.9-5C306.5,421.9,306.4,422.3,304.3,423.3z M301.1,421.9c-0.5,1.4-0.8,2.3-1.2,3.3
	C299.8,424.1,298.8,422.7,301.1,421.9z M294,429.6c-0.4-0.3-0.7-0.4-0.7-0.6c0-1.1,0-1.1,1.6-2.6C294.6,427.8,294.3,428.7,294,429.6
	z M294.5,434.1c-0.1-2.7,1.2-4.9,2.1-7.3c0.2,0.1,0.5,0.1,0.7,0.2c-0.6,2.5-1.2,4.9-1.8,7.4C295.1,434.3,294.8,434.2,294.5,434.1z
	 M298.6,429.4c-0.5,2.4-1.1,4.7-1.6,7.1C295.9,433.8,297.7,431.7,298.6,429.4z M296.9,436.5c0.6-1.2,1.4-2.3,1.9-3.5
	c1.4-4,2.6-8.2,4-12.2c0.2-0.5,0.7-0.9,1.1-1.3c0.2,0.1,0.5,0.2,0.7,0.3c-2.3,6.8-4.6,13.6-6.9,20.5c-0.3,0.2-0.7,0.5-1.3,0.9
	C296.6,439.4,296.8,438,296.9,436.5z M317.5,454.1c-4.2,0.2-8.4,1.7-13.2,2.7c-2.1-2.5-4.4-5.1-6.8-7.9c4.2-5,10.3-6.8,14.5-11.6
	c3.4,6.4,7.7,10.5,15.2,12.1C323.6,451.4,321.4,453.9,317.5,454.1z M333.4,456.4c-0.2-3.5,0.7-6,2.4-8.3
	C335.6,450.8,335.9,453.6,333.4,456.4z M337.4,457.6c-1.2-0.9-2-2-0.7-3.8C336.9,455.2,337.1,456.4,337.4,457.6
	C337.4,457.6,337.4,457.6,337.4,457.6z M337.4,457.6c0.7-0.8,1.3-1.6,2.2-2.7C340,457.2,338.6,457.3,337.4,457.6z M338,444
	c-2.5,2.5-6,3.3-9.4,3.4c-3.7,0.1-7.1-1.5-10.1-3.9c-4.6-3.9-5.6-9.3-6-14.7c-0.6-9.4-0.8-18.8-1.2-28.2l0.4,0
	c0-5.5,0.1-10.9,0-16.4c-0.1-6.2,1-12.1,2.4-18.1c1.4-6,5.9-9.4,12.2-9.5c7.7-0.1,13,3.7,16,11.1c1.7,4.3,1.9,8.7,2.1,13.1
	c0.5,9.5,0.6,19.1,0.7,28.6c0,6.7-0.3,13.4-0.4,20.2C344.6,435.3,342,440.1,338,444z M344.7,438.9c-0.7,2.8-1.4,5.7-2.1,8.5
	c-0.2-0.1-0.5-0.1-0.7-0.2c0.7-2.8,1.3-5.7,2-8.5C344.1,438.8,344.4,438.9,344.7,438.9z M340.9,456.6c0-1.1,0.2-2.3,0.5-3.4
	c1.7-5.6,3.5-11.1,5.2-16.7c0.1-0.3,0.4-0.6,1.1-0.8c-1.1,5.2-2.1,10.5-3.2,15.7c1.3-3.9,2.5-7.9,3.8-11.8c0.4-1.1,0.8-2.3,1.1-3.4
	c0.2,0.1,0.5,0.2,0.7,0.2c-1.2,5.1-2.4,10.2-3.6,15.3c1.1-3,2.3-6.1,3.4-9.1c0.5-1.5,0.7-3.1,1.3-4.6c0.8,6.1-1.7,11.5-3.4,17.1
	c-0.3,0-0.5,0-0.8-0.1c-0.1-1.1-0.2-2.3-0.4-3.4c-0.4,1.2-1.3,2.4-1.1,3.4c0.3,1.9-0.7,2.7-2.1,3.8c-0.4-0.5-0.8-0.9-1.1-1.4
	C341.8,457.2,340.9,456.9,340.9,456.6z M345.6,353c1.2-3,2.2-6,3.3-9.1c-3.3,4.9-5,10.5-7.1,15.9C343.3,357.6,344.6,355.4,345.6,353
	z M395.8,355C395.8,355.1,395.8,355.1,395.8,355C395.9,355.1,395.9,355.1,395.8,355L395.8,355z M308.6,370.4
	C308.6,370.4,308.6,370.4,308.6,370.4c0.1,0,0.1-0.1,0.1-0.1L308.6,370.4z M308.7,370.3C308.7,370.3,308.7,370.3,308.7,370.3
	c0,0-0.1,0.1-0.1,0.1L308.7,370.3z M209.9,402.9c1.8-2.9,3.1-5.9,3.1-9.3C211.6,396.6,209.9,399.5,209.9,402.9z M212.3,106.8
	c-11.7,9.3-23.6,18.1-37.5,23.9c-4.2,1.7-8.4,3.5-12.7,5.1c-4.9,1.8-9.8,3.6-14.8,5c-9.3,2.8-18.6,5.2-27.4,9.2
	c-9.7,4.5-16.3,13.8-15.4,25.2c0.8,10.3,10.6,19.8,18.1,20.7c3.9,0.5,7.9,0.8,11.8,0.6c6.3-0.4,12.6-1.1,18.6-3.7
	c15.2-6.6,28.1-16.3,39.1-28.6c1.6-1.8,3.6-3.4,4.9-5.3c5.1-7.5,10-15,14.8-22.7c2.4-3.8,4.6-7.6,6.4-11.7c2.1-4.8,3.6-9.8,5.3-14.7
	c1.7-5.2,2.1-10.6,1.5-17c-1.4,1.7-2.3,2.6-3,3.7C219.4,100.6,216.1,103.8,212.3,106.8z M126.3,194.3c0.7-1.6,1.2-2.8,3.6-3
	C128.7,192.7,128.6,194.5,126.3,194.3z M130.4,194.6c-0.2-0.2-0.4-0.4-0.6-0.5c0.5-0.5,0.9-1.1,1.4-1.6c0.2,0.1,0.3,0.2,0.5,0.3
	C131.2,193.4,130.8,194,130.4,194.6z M133.4,194.5c-0.2-1.8,0.5-2.9,2.2-3.2C134.8,192.4,134.1,193.5,133.4,194.5z M137.9,194
	c1.1-1.6,2-2.9,3.4-4.7C140.2,193.1,140.2,193.1,137.9,194z M142.1,194.1c-0.3-0.2-0.6-0.4-0.9-0.7c1.2-1.7,2.4-3.5,3.6-5.2
	c0.2,0.2,0.5,0.3,0.7,0.5C144.7,190.6,144,192.7,142.1,194.1z M146.1,193.2c-0.3-0.1-0.6-0.3-0.9-0.4c0.7-1.2,1.4-2.4,2.1-3.6
	C147.7,190.9,146.8,192,146.1,193.2z M148.7,192.6c1.7-4.7,2.4-5.7,4.8-6.8C152.2,188.3,151.9,191,148.7,192.6z M153.7,190.7
	c-0.3-0.2-0.7-0.4-1-0.6c1-1.6,2-3.1,3-4.7c0.2,0.1,0.5,0.3,0.7,0.4C155.5,187.4,154.6,189.1,153.7,190.7z M162.8,186.1
	c-0.3-0.1-0.5-0.3-0.8-0.4l1.4-2.7c0.3,0.1,0.6,0.3,0.8,0.4C163.7,184.3,163.3,185.2,162.8,186.1z M157.5,189.6
	c0.5-4.4,1.7-6.2,4.9-7.6C160.6,184.8,159.3,186.9,157.5,189.6z M166.9,183c-0.1-0.1-0.3-0.1-0.4-0.2c0.2-0.6,0.5-1.2,0.7-1.8
	c0.2,0.2,0.4,0.3,0.7,0.5C167.5,182,167.2,182.5,166.9,183z M170.7,181.3c-0.3-0.2-0.5-0.4-0.8-0.5c0.8-1.6,1.7-3.1,2.5-4.7
	C173.2,178.4,171.9,179.8,170.7,181.3z M174.2,177.9c0.8-1.4,1.2-2.2,2-3.6C176.3,176.2,176.5,177.3,174.2,177.9z M185.9,167.4
	c-0.3-0.1-0.8-0.4-0.8-0.4c0.2-0.5,0.4-1,0.7-1.5c0.2,0.1,0.4,0.2,0.7,0.3C186.2,166.4,186.1,166.9,185.9,167.4z M196.1,157.1
	c-0.1,0.4-0.6,0.7-1.2,1.5c0.2-1.3,0.2-2,0.3-2.8c0.2,0,0.4-0.1,0.6-0.1C195.9,156.2,196.2,156.7,196.1,157.1z M199.4,152l-0.6-0.6
	c0.5-1.4,2-2.1,3-3.1c0.2,0.2,0.4,0.4,0.6,0.6C201.4,149.9,200.4,151,199.4,152z M222.9,98.9c1.1,4.9-0.6,9-1.8,13.1
	c-0.7,2.3-1.4,4.6-2.4,6.8c-1.1,2.5-2.3,5.1-3.7,7.5c-1.8,3.1-3.9,6-5.8,9c-1.8,2.8-3.4,5.7-5.6,8.2c-5.9,6.9-11.6,13.9-18.1,20.2
	c-7.9,7.7-17.2,13.4-27.3,17.9c-7.9,3.5-15.9,6.2-24.4,7.2c-5,0.6-10.1,0.9-15.2-0.5c-3.5-1-6.1-3-8.3-5.8c-6.6-8.8-5.1-20,3.7-27
	c5.9-4.7,12.9-7.2,20-9.2c16.1-4.4,31.8-9.8,47-16.8c6.8-3.2,13.2-7.1,19.2-11.6c5.6-4.2,11.1-8.5,16.5-12.9
	C218.9,103.2,220.6,101.2,222.9,98.9z M114.4,330c-0.2-1-1.1-2-1.4-2.6c-2-0.1-3.3,1.3-3.3,3.1c0,1.2,0.2,2.4,1.8,2.4
	C112.9,332.8,114.7,331.3,114.4,330z M114,440.9c0-4.2-1.3-6.4-4.8-8.7C110.7,434.9,112.3,437.7,114,440.9z M92.3,459
	c-2,0.9-4.8,3.6-6.8,6.1C88.4,464.1,90.7,462.3,92.3,459z M184,330.5c0,0.8,0.6,1.6,0.9,2.2c2.1,0.2,4.4-1.9,4.5-3.5
	c0.1-1.5-0.9-2-2.1-2.2C185.8,326.8,183.9,328.7,184,330.5z M186.3,330.8c-0.3-0.2-0.5-0.5-0.8-0.7c0.5-0.5,1.1-1,1.6-1.5
	c0.2,0.2,0.4,0.4,0.6,0.5C187.3,329.6,186.8,330.2,186.3,330.8z M171.6,262c0.2,1,1.1,1.9,2.1,3.6c1.2-1.7,2.3-2.6,2.6-3.8
	c0.3-1.4-0.8-2.3-2.3-2.4C172.5,259.3,171.2,260.5,171.6,262z M129.6,267.4c-1.4-0.2-2.3,1-2.5,3.5c0.3,0.4,0.9,1.6,1.8,2
	c1,0.5,2.7-1.4,2.8-2.9C131.7,268.5,131,267.6,129.6,267.4z M113.5,119.4c-0.4,0.2-0.8,0.7-1.1,1c-1.5,1.3-1.4,2.9-0.7,4.5
	c0.7,1.6,2.2,1.9,3.3,0.6c1.1-1.3,2.2-2.9,2.8-4.5c1.3-4,4.2-6.1,7.5-8.1c1.5,5.1,4.7,5.7,9.7,1.9c-1.7,0.2-3.2,0.5-4.7,0.5
	c-2,0-3.1-1.3-2.5-3.2c0.3-1,1.1-2,1.8-2.8c1.2-1.3,2.6-2.4,3.9-3.7c1.2-1.2,1.6-2.5,0.2-4.1c-3.1,1.1-4.7,3.6-6.1,6.1
	c-1.4,2.6-3.6,4.1-6.4,5.6c0.5-3.8,2.8-6.9,2.2-10.5c-0.3-0.1-0.7-0.1-1-0.2c-0.4,1.4-0.8,2.8-1.1,4.2
	C119.9,111.9,118.6,116.8,113.5,119.4z M113.3,124.7c-0.6-3.1-0.5-3.2,3-4.9C115.6,122.8,115.6,122.8,113.3,124.7z M107.8,118.6
	c3.2-5,6.4-10,9.5-15.1c0.1-0.2-0.3-0.7-0.5-1.4c-1.6,2.8-3,5.2-4.4,7.5c-1.5,2.3-3.1,4.5-4.7,6.8c-0.3-0.1-0.6-0.3-0.9-0.4
	c-0.6-4.1,0.6-8.4-1.6-12.3c-0.4,5.5-0.8,11,0.1,16.8C106.4,119.6,107.3,119.2,107.8,118.6z M160.5,101.5c0.9-1,1.8-2,2.7-3
	c-0.2-0.2-0.3-0.5-0.5-0.7c-1.2,0.2-2.3,0.3-3.9,0.5c0.3,1.2,0.5,2.1,0.7,2.9C159.8,101.3,160.1,101.4,160.5,101.5z M143.2,114.8
	c2.1,4.1,3,4.3,6.5,1.4c1.4-1.1,2.7-2.3,4-3.5c2.2,2.8,2.2,2.8,5,1.6c-3.1-0.7-2.2-2.7-1.7-4.5c0.5-1.9,1.2-3.7,1.8-5.6
	c-0.3-0.1-0.6-0.3-0.9-0.4c-1.4,2.4-2.7,4.9-4.4,7.2c-1.7,2.4-4,4.2-7.1,5.2c-1.1-3.4-1.1-3.3,0.4-5.5c2.3-3.5,4.6-6.9,6.7-10.5
	c0.8-1.4,1.4-3.1-0.8-4.5c-1.2,1-2.9,1.8-3.6,3.2c-1.8,3-3.5,6.2-4.5,9.6c-0.9,3.1-2.3,5.2-5.1,6.6c-0.5,0.3-0.8,1-1.2,1.4
	c0.2,0.2,0.4,0.5,0.5,0.7C140.4,116.4,141.8,115.6,143.2,114.8z M152.8,97.4c-0.9,4.9-3.4,7.9-6.2,10.7
	C147.2,104,148.5,100.3,152.8,97.4z M124.8,97.1c0-0.2-0.3-0.5-0.5-0.8c-0.4,0.3-0.9,0.6-1.3,0.8c0.2,0.3,0.4,0.5,1.3,1.7
	C124.5,98.1,124.7,97.6,124.8,97.1z M273.6,325.3c1.5,0.1,2.7-1.4,2.7-3.1c0-1.4-1.1-2.5-2.4-2.5c-1.5,0-3,1.5-2.7,3
	C271.4,324.1,272.1,325.2,273.6,325.3z M273.9,321.8c0.2-0.1,0.7,0.4,1.3,0.8c-0.7,0.6-1.1,1-1.5,1.1c-0.2,0-0.8-0.7-0.8-1
	C273,322.4,273.5,321.9,273.9,321.8z M193.8,139.9c1.2-0.9,2.4-1.9,3.5-3c0.5-0.5,0.7-1.3,1.2-2.4c-3,2.2-5.4,3.9-7.8,5.7
	c-2.7-5.2-0.7-8.3,3.7-10.7c-3.3,0.4-6,1.8-7.5,4.1c0.5,2.1,0.9,3.6,1.1,5.2c0.6,3.4,0.9,6.8,1.6,10.2c0.4,2.2,1.9,3.1,3.5,2.1
	c3-1.9,5.7-4.1,6.5-8c-2.3,2.2-4.6,4.4-7.2,6.9C189.4,143.5,189.4,143.4,193.8,139.9z M222.7,192.7c-0.7-0.4-1.7-1.2-2.7-1.4
	c-1.4-0.2-2.6,1.5-2.5,3.1c0.1,1.3,1,1.6,2.1,1.6C221.3,195.8,222.9,194.5,222.7,192.7z M221.8,290.9c0.4,1.4,1.4,1.7,2.7,1.5
	c1.5-0.3,3.4-2.4,3.1-3.9c-0.2-0.8-1-1.5-1.3-2C223.9,286.3,221.3,289.3,221.8,290.9z M226.2,289c-0.6,0.6-1.1,1.2-2.2,2.4
	C223.8,289.1,224.4,288.5,226.2,289z M85,92.5c-1.5-0.6-0.8-3.1-3.4-2.8c0.4,1.7,0.7,3.3,1.1,5c-2.5,0.1-4.8,0.3-7.1,0.4
	c3.4,2.5,7.6-0.2,11.5,2.7c-2.1,1.8-3.8,3.5-5.6,4.9c-5.5,4.3-5.5,4.2-11.8,4c0.9,1.1,1.7,2,2.5,3c-1.8,1.8-3.6,3.5-5.3,5.2
	c3.9,4.3,15.7,5.7,20.3,2.4c-6.3,0.8-11.8-0.5-17.9-2.4c2.9-2.9,4.8-6,9-5.4c1.2,0.2,2.5,0,3.8,0c1,0,2,0,3.1,0c1-0.1,2-0.2,3-0.3
	c0-0.3,0-0.6,0-0.9c-3.4-0.2-6.8-0.5-11-0.7c1.4-1.1,2-1.6,2.7-2.2c2.6-2,5.3-3.9,7.7-6.2c2.1-2,1.8-3-0.9-4.4
	c-0.2-0.1-0.3-0.3-0.7-0.6c1.4-1.7,2.8-3.4,4.3-5.1c-0.2-0.2-0.4-0.3-0.6-0.5C88.1,90,86.5,91.3,85,92.5z M262.1,255.5
	c0,0.5,1,1.1,1.7,1.2c1.7,0.2,4.4-2.3,4.5-4.6c-0.3-0.4-1-1.7-1.5-1.7c-1.4,0.2-3,0.6-4,1.6C262,252.7,262,254.3,262.1,255.5z
	 M266,251.8c0.9,2.6,0.6,3-2.4,2.8C263.3,252.6,264.6,252.2,266,251.8z M261.8,199c1.4,0.1,2.6-1.2,2.6-2.7c0-1.5-1.4-3.1-2.7-3.1
	c-1.1,0-2.1,1.6-2,3.2C259.7,197.7,260.2,198.9,261.8,199z M262.3,195.1c0.2,0.7,0.5,1.1,0.4,1.5c0,0.2-0.4,0.4-0.7,0.6
	c-0.2-0.4-0.6-0.7-0.6-1.1C261.4,195.9,261.8,195.6,262.3,195.1z M171.6,161.9c-0.3,0.1-0.6,0.2-0.8,0.3c-4.3-4.1-8.6-8.2-13.2-12.6
	c-0.5,1.3-1.1,2.2-0.9,2.8c1.8,4.7,1.1,9.6,1.7,14.3c0.3,2.4,0.8,4.9,1.1,7.3c0.5,0,0.9-0.1,1.4-0.1c-0.6-6.3-1.8-12.6-1.6-19.5
	c4.5,3.9,8.1,8.3,13.7,11.3c0.2-1.8,0.4-3.2,0.3-4.5c-0.3-4.1-0.7-8.1-1.3-12.1c-0.4-2.4,0.5-4,2.4-5.1c1-0.6,2.1-0.9,3.5-1.5
	c0.8,5.5,1.6,10.7,2.3,15.9c0.4,0,0.7,0,1.1-0.1c0.2-2.7-0.3-5.4-0.6-8.2c-0.3-2.9-0.6-5.7-0.9-8.2c1.6-2,4.4-2,5.3-5.4
	c-5.5,2.9-10.1,5.3-14.8,7.7C170.7,150.5,171.1,156.2,171.6,161.9z M187.5,131.4c1.8-1.7,3.3-3.1,4.8-4.5
	C187.6,128.7,187.6,128.7,187.5,131.4z M129.2,153.9c-4.9,3.1-5.9,6.4-4,10.5c0.7,1.5,1.5,2.9,2.4,4.3c1.5,2.5,3.4,4.8,4.6,7.4
	c1.6,3.3-0.9,6.8-4.5,6.9c-4.5,0.1-7.2-2.7-7.6-8.5c-0.6,1.2-1,1.6-1,2c-0.5,3.6,2,7.2,5.8,8.3c4,1.2,7-0.2,8.8-4
	c1.3-2.7,1.1-5.2-0.4-7.6c-1.4-2.3-3.1-4.4-4.4-6.6c-0.9-1.5-1.8-3.1-2.2-4.8c-0.7-2.5,0.8-5,3.2-6.3c1.9-1,3.8-0.5,5.7,1.5
	c0.3,0.3,0.6,0.6,1.3,1.3c0.2-1,0.4-1.5,0.3-1.9C136,153.4,132.2,152,129.2,153.9z M152.2,161c-0.4-2.7-1.4-5.4-3.7-7.4
	c-1.9-1.5-3-1.7-4.5,0.2c-1.3,1.7-2.4,3.6-3,5.7c-2.1,6.3-2.9,12.9-3,19.5c0,0.8,0.2,1.6,0.3,2.4c0.3,0,0.5,0,0.8,0.1
	c0.2-0.9,0.5-1.7,0.6-2.6c0.2-1.6,0.1-3.3,0.3-4.9c0.2-0.9,0.6-2.1,1.3-2.5c3-2,6.2-3.7,9.9-5.8c0.2,3.6,0.4,6.6,0.6,9.6
	c1.6,0.1,1.7-1,1.6-2.1C153.1,169.1,152.9,165,152.2,161z M141.1,169.4c-0.3-0.3-0.6-0.6-0.9-0.8c1.9-4.6,1.4-10.2,5.8-13.9
	c3.7,1.9,4.3,5.3,5.2,9.1C147.8,165.6,144.5,167.5,141.1,169.4z M216.8,230.7c-1.1,0.1-2.4,1.8-1.9,3.1c0.2,0.7,1.2,1.6,2,1.7
	c1.5,0.3,3.1-1.4,3.1-2.7C219.8,231.7,218.3,230.6,216.8,230.7z M136.8,247.2c-0.5,1.5-0.1,2.7,1.8,3.8c0.8-0.7,1.8-1.2,2.3-2
	c0.8-1.3,0-3.5-1.4-3.8C138,244.9,137.3,245.9,136.8,247.2z M139.3,249c-0.4-0.2-0.7-0.6-0.8-1c-0.1-0.2,0.4-0.5,0.6-0.8
	c0.3,0.3,0.7,0.6,1.4,1.2C139.9,248.7,139.5,249.1,139.3,249z M101.4,56.4c3.1,0.8,6.2,1.8,9.5,0.6c-2.8-1.2-6.3-0.3-8.9-2.8
	c3.1-2.7,6.5-4,9.7-3.5c1.1-1.4,1.6-2.2,2.4-3c1-1.1,2-2.1,0.9-3.6c-1-1.4-5.6-2.2-7.8-1.4c2.4,0.8,4.6,1.5,6.8,2.2
	c-1.9,3.9-3,4.4-6.4,3.3c-1.2-0.4-2.4-1.2-3.9-0.1c1.2,0.8,2,1.4,3.1,2.1c-2,1-4,1.7-5.7,2.8C99.4,53.9,99.6,55.9,101.4,56.4z
	 M87.6,32.9c-4.3,1.3-7.2,4.2-9.7,7.7c-0.5,0.7-0.7,2.1-0.3,2.7c0.4,0.6,1.8,1,2.7,0.8c1.9-0.4,3.8-1.1,5.7-1.7
	c-0.5,6.7,0.6,7.9,7.9,7.8c-0.7-0.4-1.1-0.7-1.5-0.8c-5.2-1.7-5.9-3.7-2.8-8.2c1.1-1.5,2.5-2.9,3.7-4.3c-0.4-0.7-0.8-1.2-1.1-1.8
	C90.8,32.1,90.6,32.1,87.6,32.9z M90.1,37.6c-1.5,2.7-7.1,5.1-10.5,4.6c1.2-4.1,5.4-7.4,10.4-8C91.2,35.3,90.7,36.5,90.1,37.6z
	 M127.9,62.6c1.5-1.9,2.9-3.9,4.6-5.6c2.1-2.2,4.8-2.3,8.3-1.5c-1.7,1.4-3,2.4-4.2,3.4c-1.9,1.5-2.9,3.5-3.4,5.8
	c-0.5,2.5,0.6,3.7,3,3.5c3.5-0.3,7.7-3.8,8.5-7.3c0.5-1.9,0.2-3.4-1.5-4.7c-3.2-2.6-6.5-3.3-10.3-1c-0.2-1-0.4-1.9-0.7-3.3
	c-2.7,4.5-5,8.5-7.5,12.7C126.5,65.1,127.1,63.6,127.9,62.6z M142.5,63c-1.6,2.6-3.9,4.1-7.2,3.6c-0.5-4.8,1.7-7.7,7.1-9.8
	C144.4,58.8,143.8,61,142.5,63z M125.6,56.4c3.3-4.6,2.3-9.3-3.5-14.7c-0.5,0.8-1,1.5-1.3,2.2c-0.2,0.5,0,1.4-0.4,1.8
	c-3.1,3.8-6.3,7.5-9.4,11.3c-0.5,1.1-0.9,2.2-1.4,3.2C114.6,62.9,122.4,60.9,125.6,56.4z M122.6,45.1c4.1,3.8,4.1,8.5,0.3,12.2
	c-2.5,2.5-7.1,3.6-11.3,2.5C114.6,54.5,119.2,50.4,122.6,45.1z M70.2,39.2c0.6-0.1,1.1,0,1.4-0.2c6.8-5.6,13.6-11.3,20.4-16.9
	c-0.2-0.3-0.3-0.5-0.5-0.8c-6.4,4.1-11.7,9.7-18.4,13.9c-0.6-6.4,2.5-12.1,2.2-18.7c-7,5-13.3,9.6-19.7,14.2
	c6.6-1.6,10.9-7.2,17.3-10C72.1,27,71.2,33,70.2,39.2z M111,56.9C111,56.9,111,56.9,111,56.9L111,56.9C111,57,111,56.9,111,56.9z
	 M57.6,56.9c9.9,7.9,21,13.4,32.9,17.5c6.3,2.2,12.7,4.4,19.6,4.8c8.2,0.5,16.5,1.3,24.7,2c7.2,0.6,14.4,1.3,21.7,1.6
	c6.1,0.2,12.2-0.1,18.3,0c14.5,0.2,29-0.2,43.3-2.9c0.3-0.4,0.6-0.8,1-1.2c-0.5-0.1-1.1-0.2-1.6-0.3c-3-0.6-6-1.1-8.9-1.9
	c-3.8-1-7.8-1.9-11.2-3.7c-8.5-4.4-17.3-8.1-25-13.8c-7.9-5.9-16.1-11.5-24.1-17.5c-6.6-5-12.8-10.6-19.6-15.2
	c-12-8.1-25.1-13.9-39.2-17.3c-9.3-2.3-18.6-3-27.8,0.3c-3.7,1.3-7.5,2.5-10.3,5.5C47.4,19.1,45,24.2,45,30
	C44.8,40.9,49,50,57.6,56.9z M59.2,54.6c1-0.1,2.1-0.2,3.1-0.3c0,0.2,0,0.3,0.1,0.5c-1,0.1-2.1,0.3-3.1,0.4
	C59.3,55,59.2,54.8,59.2,54.6z M61.1,56.6l6.4-1c0,0.3,0,0.5,0,0.8l-6.2,1C61.2,57.2,61.2,56.9,61.1,56.6z M64.1,58.4
	c1.4-0.1,2.7-0.2,4.1-0.3c0,0.2,0.1,0.4,0.1,0.6c-1.4,0.1-2.7,0.2-4.1,0.4C64.2,58.9,64.2,58.6,64.1,58.4z M66.4,61.3l0-0.7
	c1.1-0.3,2.2-0.6,3.8-1.1c-0.7,1.1-1.2,1.7-1.6,2.3C67.9,61.6,67.1,61.5,66.4,61.3z M68.7,61.9c3.3-0.6,6.5-1.1,9.8-1.6
	c0.1,0.2,0.1,0.4,0.2,0.7c-2.5,1-5.1,1.9-8,3C70.2,63.4,69.5,62.6,68.7,61.9z M72.7,64.3c2.3-0.5,4.6-1.1,6.9-1.6
	C77.5,63.9,75.5,65.8,72.7,64.3z M75.8,66.1c3.4-1,6.3-1.9,9.2-2.7c0.1,0,0.2,0.1,0.6,0.5c-2.7,1.2-5.2,2.4-7.7,3.4
	C77.6,67.5,76.8,66.7,75.8,66.1z M90.7,65.4c-3.2,2-6.9,2.2-10.5,2.7C83.6,66.9,86.8,64.9,90.7,65.4z M86.9,70.4
	c-1.1-0.1-2.2-0.1-3.3-0.2c0-0.3-0.1-0.7-0.1-1c2.5-0.6,4.9-1.2,8.1-2C89.7,68.5,88.3,69.5,86.9,70.4C86.9,70.4,86.9,70.4,86.9,70.4
	z M88.7,71.8C88.3,72,87.6,71,87,70.5c3.5-0.9,6.9-1.8,10.4-2.7c0.4-0.1,0.9,0,1.5,0.7C95.5,69.6,92.1,70.8,88.7,71.8z M91.1,72.5
	c2.8-0.8,5.5-1.6,8.2-2.3C97.3,72.7,94.2,73.8,91.1,72.5z M98.4,74.6c3.1-1.4,5.5-2.5,8.3-3.8C104.1,74.2,101.9,75.3,98.4,74.6z
	 M109.1,77.1c-0.1-0.2-0.3-0.5-0.4-0.7l5.8-3C113.2,75.4,111.4,76.8,109.1,77.1z M117.8,77.5c-0.1-0.3-0.3-0.6-0.4-0.9
	c1.8-0.8,3.7-1.7,5.5-2.5c0.1,0.3,0.2,0.5,0.4,0.8L117.8,77.5z M131.7,78.3c1.1-0.5,2-1,3.3-1.6C134.4,79.1,133.3,79.1,131.7,78.3z
	 M159.1,80.7c-0.8,0.2-1.5,0.2-2.3,0.3c0-0.1-0.1-0.3-0.1-0.4c0.8-0.4,1.6-0.8,2.7-1.3C159.2,80.1,159.2,80.6,159.1,80.7z M163,80.9
	c0-0.1,0-0.3,0-0.4h4c0,0.1,0,0.3,0.1,0.4H163z M52.9,15.9c2-2.6,5.3-3.5,8.2-4.5c9.2-3.3,18.4-2.9,27.8-0.9
	c13.2,2.9,25.2,8.7,36.7,15.5c4.9,2.9,9.2,6.8,13.7,10.3C149.6,44.5,160,52.6,171,60c8.5,5.7,17.8,9.8,26.7,14.7
	c2.1,1.1,4.6,1.5,6.9,2.3c1.5,0.5,3.1,0.9,4.7,1.3c0,0.2,0,0.3,0,0.5c-0.8,0.2-1.6,0.6-2.5,0.6c-5.8,0.3-11.7,0.7-17.5,0.8
	c-4.2,0-8.4-0.4-12.6-0.8c-7-0.7-13.9-1.3-20.8-2.2c-10.5-1.4-21-2.5-31.3-4.5c-18.1-3.6-35.8-8.8-52.6-16.8
	c-6.2-3-12.1-6.7-16.3-12.3c-3.5-4.6-6.2-9.7-6.5-15.6C48.9,23.6,50.2,19.4,52.9,15.9z M49.4,41.7c0.8-0.1,1.5-0.2,2.3-0.3
	c0,0.3,0,0.6,0.1,0.8c-0.5,0-0.9,0.1-1.4,0.1C50.1,42.4,49.8,42.4,49.4,41.7z M54.3,46.6c-0.8,0.4-1.5,0.8-2.7,1.4
	C51.6,45.6,53,46.1,54.3,46.6z M53.2,49c1.2-0.3,2.4-0.6,3.6-0.8c0.1,0.3,0.2,0.5,0.3,0.8c-1.2,0.3-2.5,0.6-3.7,0.8
	C53.3,49.5,53.3,49.2,53.2,49z M85.8,473.3c1.3-0.6,2.5-1.1,3.8-1.7c-1.4,0.3-2.7,0.5-4,0.8C85.6,472.7,85.7,473,85.8,473.3z
	 M90,471.5C90,471.5,89.9,471.4,90,471.5c-0.2,0-0.3,0-0.5,0.1C89.7,471.6,89.8,471.5,90,471.5z M35.4,352.7c1-0.5,2.2-1.7,2.2-2.6
	c-0.1-2.1-2-2.1-3.6-2.5c-1.4,1.5-2.2,3.1-1.3,4.8C33.1,353,34.8,353.1,35.4,352.7z M35.8,349.9c0.2,0.3,0.4,0.6,0.5,0.9
	c-0.6,0.3-1.2,0.7-1.8,1c-0.1-0.2-0.3-0.4-0.4-0.6C34.7,350.7,35.3,350.3,35.8,349.9z M90,471.5C90,471.5,90.1,471.5,90,471.5
	C90,471.4,90,471.4,90,471.5L90,471.5z M162.7,71.2c-2,3.1-0.8,5.6,2.8,5.9c2.8,0.2,5.6,0,8.4,0c-2.7-0.6-5.5-0.9-8.2-1.4
	c-0.7-0.1-1.6-1.2-1.7-2c-0.2-1.1,0.6-1.8,1.8-1.9c0.9-0.1,1.7-0.3,2.6-0.5c2-0.4,3.7-1.5,5.3-3.4C169.9,66.8,164.3,68.7,162.7,71.2
	z M171.2,68.3l0.2,0.8c-0.9,0.2-1.7,0.3-2.6,0.5c0-0.2-0.1-0.3-0.1-0.5C169.5,68.9,170.3,68.6,171.2,68.3z M71.4,426.4
	C71.4,426.4,71.4,426.4,71.4,426.4L71.4,426.4C71.4,426.4,71.4,426.4,71.4,426.4z M63.6,215.8c-1.6,0-2.8,1.1-2.8,2.9
	c0,1.6,1,3,2.2,3.1c1.3,0.1,3.2-1.9,3.2-3.2C66.3,217.3,64.9,215.9,63.6,215.8z M63.4,219.7c-0.2,0-0.8-0.8-0.8-0.9
	c0.3-0.4,0.7-0.9,1.2-1c0.2-0.1,0.6,0.5,1.2,1C64.3,219.2,63.9,219.7,63.4,219.7z M65.9,284.4c1.9,0,3.4-1.7,3.4-3.1
	c0-1.4-0.9-2.1-2.1-2.3c-1.5-0.2-2.9,1.3-2.6,3C64.8,282.9,65.6,283.8,65.9,284.4z M86,383.1c-0.1,1.5,0.9,3.1,2,3.2
	c1.6,0.1,3.9-2.2,4-4.6c-0.6-0.4-1.4-1.4-2.5-1.7C88.2,379.5,86.1,381.6,86,383.1z M89.8,381.2c0.3,0.6,0.8,1.1,0.7,1.4
	c-0.4,1.6-1.2,2.4-3.2,0.8C88.3,382.5,88.9,381.9,89.8,381.2z M119.8,134.1c7.3-1.9,14.9-2.4,22-4.6c12-3.6,24.1-7.3,35.3-13.3
	c2-1.1,4.1-2.1,6.1-3.2c7.9-4.3,16.1-8.2,23-14.2c3.4-2.9,7-5.5,10.5-8.2c0.6-0.4,1.4-0.6,2.1-1c-1.5-2.5-2.9-1.7-4.1-1.5
	c-4.6,0.7-9.3,1.9-13.9,2.2c-6.5,0.5-13,0.3-19.4,0.6c-22.8,0.9-45.5-0.6-68.1-4.3c-6.4-1-12.8-1.7-19.3-2.3
	c-8-0.7-15.7,0.8-23.4,2.8c-9.2,2.5-15.5,8.4-18.4,17.6c-0.9,2.9-1.4,5.8-0.8,9c1.5,7.9,6.1,13.2,13.4,15.8
	c6.1,2.2,12.4,3.7,18.7,5.2c2.9,0.7,6,1.2,9,1.3C101.7,136.4,110.8,136.5,119.8,134.1z M96.1,134.1c1.7-1.4,3.4-2.8,5-4.2l0.5,0.6
	C100,132,99,134.2,96.1,134.1z M100.3,134.3c2.2-1,2.9-3.9,5.5-4.3C104.1,131.7,103.4,134.7,100.3,134.3z M105,134.7
	c2-3.6,5.2-3.9,7.6-5.5C110.3,130.9,109,134.2,105,134.7z M129.9,127.7c-0.1-0.3-0.2-0.6-0.4-0.9c0.5-0.1,1-0.3,1.6-0.4
	c0.1,0.2,0.1,0.3,0.2,0.5C130.9,127.1,130.4,127.4,129.9,127.7z M135.6,128.6c1.1-1.3,2.1-2.4,3-3.5c0.2,0.2,0.5,0.4,0.7,0.6
	C138.3,126.8,138.6,129.2,135.6,128.6z M144.2,126.8c0.9-2,1.4-3.9,4.1-3.5C147.6,125.3,146.6,126.6,144.2,126.8z M163.7,120.5
	c-0.2,0.1-0.8-0.3-0.8-0.4c0.1-0.4,0.2-1,0.5-1.1c0.3-0.1,0.8,0.2,1.6,0.5C164.4,119.9,164.1,120.3,163.7,120.5z M67.1,128.2
	c1.3-0.7,2.4-1.2,4.2-2.1C69,128.8,69,128.8,67.1,128.2z M77.3,130.9c0.8-0.7,1.7-1.4,3-2.5C80.1,130.7,78.5,130.7,77.3,130.9z
	 M84.4,133.3c-0.2-0.4-0.4-0.7-0.6-1.1c1.5-0.7,3-1.4,4.5-2.2c0.1,0.2,0.2,0.5,0.4,0.7C87.3,131.6,85.9,132.4,84.4,133.3z M64.5,122
	c-5.3-2.7-8.9-7.2-10.6-12.9c-0.4-1.4-0.1-3.1,0.3-4.5c2.2-7.4,7.2-12.5,14.2-14.9c9-3.1,18.4-4.9,28.1-3.5
	c10,1.5,20.1,2.7,30.2,4.1c12,1.7,24,2.4,36.1,2.4c10.2-0.1,20.4,0.1,30.6-0.2c5.2-0.2,10.3-1.2,15.5-1.9c1.2-0.2,2.5-0.4,4.4-0.7
	c-10.1,9.1-20.3,16.1-31.9,20.9c-5.9,2.4-12,4.1-18,6.2c-14,4.9-28.6,7-43.1,9.5c-10.1,1.8-20.5,2.4-30.8,1.8
	C80.9,127.8,72.4,125.9,64.5,122z M94.5,129.7c-1,2.7-1.3,3-4.1,3.6C91.6,132.2,92.9,131.1,94.5,129.7z M150.7,66.2
	c0.2,1.4,0.4,2.3,0.6,3.3c0.3,1.7,1.5,2.1,2.8,1.4c0.9-0.5,1.8-1.4,2.3-2.3c1-1.6,1.8-3.3,2.6-5.1c0.2-0.4,0.1-1,0.2-2
	c-3,2-2.8,5.8-6.2,7.6v-6.7c-2.3,1.8-4.1,3.2-5.9,4.6c0.1-1.8,0.7-3,1.2-4.2c0.5-1.2,1.8-2.3,0.5-3.7c-1.6,1.5-4.7,7.8-5.4,11.5
	C146.3,69,148.4,67.7,150.7,66.2z M92.4,118.1c2.6-1.6,2.6-4.5,3.5-6.8c1.6-3.9,1.6-5.6,0.6-7.1C95.1,108.8,93.7,113.5,92.4,118.1z
	 M163.9,63.7c-0.6,0.1-1.5-0.1-1.7,0.2c-1.6,3-3.1,6.2-4.6,9.3C160.3,72.1,163.1,67.4,163.9,63.7z M71.3,426.4c-1.3,0-2.5,0-3.8,0
	c0,0.2,0,0.4,0.1,0.6C68.8,426.8,70.1,426.6,71.3,426.4z M54.6,241.7c-1.8,0.6-2.1,1.6-1.1,4.8c3-0.8,4.5-2.2,3.9-3.7
	C56.9,241.5,55.8,241.3,54.6,241.7z M49,412.8c-1.4-0.1-2.9,1.2-2.6,2.7c0.2,0.9,1.1,1.7,2,3.1c1.2-1.4,2.3-2.1,2.7-3.1
	C51.5,414.3,50.1,412.8,49,412.8z"/>
</svg>
