<?xml version="1.0" encoding="utf-8"?>
<!-- Generator: Adobe Illustrator 18.0.0, SVG Export Plug-In . SVG Version: 6.00 Build 0)  -->
<!DOCTYPE svg PUBLIC "-//W3C//DTD SVG 1.1//EN" "http://www.w3.org/Graphics/SVG/1.1/DTD/svg11.dtd">
<svg version="1.1" id="Ebene_1" xmlns="http://www.w3.org/2000/svg" xmlns:xlink="http://www.w3.org/1999/xlink" x="0px" y="0px"
	 width="184.2px" height="204.3px" viewBox="0 0 184.2 204.3" enable-background="new 0 0 184.2 204.3" xml:space="preserve">
<path fill="#232323" d="M167.1,79.1c0.7,0.3,1.9,0.1,2.6-0.3c1.5-1,1.2-2.1-1.2-4.6c-0.8,1.1-1.6,1.8-1.9,2.8
	C166.4,77.6,166.7,79,167.1,79.1z M171.4,59.7c1,0.5,1.7,0,2.2-0.8c0.7-1.4,0.3-2.1-1.8-3.3C170.3,57.7,170.2,59.1,171.4,59.7z
	 M33.5,86.1c1.6,1.3,2.7,2.5,4.1,3.4c1.7,1.1,2.7,0.8,3.8-1c1.1-1.7,1.1-3.5,0.8-5.4c-0.3-2-0.6-4-0.9-6c0.8,0.5,1,1.1,1.3,1.7
	c1.4,2.9,2.9,5.9,4.4,8.8c0.3,0.5,1.1,1.1,1.5,1c0.6-0.2,1.4-0.8,1.6-1.4c0.2-0.9,0.2-2-0.2-2.8c-1.2-2.5-2.5-4.9-3.9-7.2
	c-1.8-3.1-4-6.1-4.7-9.7c-0.6-2.8-0.2-5.5,0.7-8.1c2.1,0.2,2.3,1.7,2.8,2.9c2.1,5.2,4.2,10.3,6.4,15.5c0.3,0.7,0.8,1.4,1.3,2.3
	c1.3-2.8,1.3-4.1,0.4-6.5c-1.6-4.2-3.4-8.3-4.6-12.6c-0.8-2.8-0.7-5.8-0.9-8.7c0-0.7,0.5-1.5,1.1-3c1.2,2,2.3,3.3,2.9,4.7
	c1.9,4.3,3.6,8.7,5.4,13c0.5,1.2,1.1,2.4,1.8,3.5c0.7,0.9,1.5,1,2.3,0c-0.7-1-1.5-1.8-1.9-2.7c-1.7-3.8-3.2-7.7-4.8-11.5
	c-0.9-2.2-1.9-4.4-3-6.6c-0.7-1.3-1.7-2.4-3.4-2c-1.7,0.4-2.7,1.5-2.9,3.2c-0.3,2-0.5,4.1-0.8,6.1c-3.8,0.3-4.1,0.7-5.3,4
	c-0.3,1-1.2,1.8-2.2,3.1c0.7,3.1,1.5,6.6,2.3,10.1c0.7,3,1.4,6,2,9c0.4,1.8,0.5,3.7-1.5,5.3c-1.3-1.2-2.8-2.2-3.9-3.5
	c-2.9-3.4-4.6-7.4-6-11.6c-0.4-1.2-0.4-2.7-2.4-3.4c0.1,1.4,0.3,2.4,0.4,3.7c-2.9-0.6-5,0.5-5.6,3.2c-0.5,2.1-1.1,4.5-0.6,6.5
	c1,4,2.5,7.9,4.1,11.7c0.9,2.3,2.8,4,5,5.1c2.6,1.3,4.3,0.5,4.9-2.3c0.3-1.7,0.1-3.5-0.1-5.2C34.6,90.6,34,88.5,33.5,86.1z M31.8,96
	c-4.5-4.5-6.9-10-7.9-16.2c-0.1-0.5-0.2-1.2,0-1.6c0.6-1,1.2-2.2,2.2-2.6c0.5-0.2,1.8,0.9,2.5,1.6c0.6,0.6,0.9,1.5,1.1,2.3
	c1.3,4.2,2.6,8.4,3.7,12.6c0.4,1.4,0.3,3,0.5,4.9C32.9,96.6,32.2,96.4,31.8,96z M53.7,180c-0.2,1,0.8,1.9,1.8,1.7
	c1.8-0.4,1.5-1.8,1.1-3.1C55,178,54,178.5,53.7,180z M59.5,151.3c-1.3,0.3-2.8,0.6-2.7,2.4c0,0.7,0.8,1.8,1.3,1.9
	c0.7,0.1,1.9-0.4,2.4-1C61.4,153.4,60.7,152.2,59.5,151.3z M46.6,160.5c-0.2,1.3,0.5,2.6,1.7,2.8c1.2,0.2,3-1,2.7-2.1
	c-0.2-0.9-1-1.6-1.4-2.1C47.8,158.9,46.8,159.2,46.6,160.5z M57.4,160.6c-1.4-0.2-2,0.2-2.2,1.7c-0.2,1.6,0.6,2.7,2,2.9
	c1.2,0.1,2.3-1,2.5-2.5C59.9,161.1,59,160.7,57.4,160.6z M31.4,108.1c0.1-0.2-0.1-0.5-0.1-0.9c-0.8,0.5-1.5,1-2.3,1.4
	c-2.5-1.1-3.7-3.2-4.7-5.4c-1-2.1-1.7-4.3-2.6-6.4c-0.9-2-1.9-3.9-2.9-5.9c-0.9-1.8-2.5-2.4-4.4-2.1c-1.9,0.2-3,1.5-3.2,3.2
	c-0.4,2.7-0.6,5.4-0.9,8.1c-0.1,0.7-0.1,1.4-0.1,2.2c-4.6-2.8-5.9-0.6-6.6,2.9c-0.2,1.1-0.1,2.2-0.1,3.3c0,1.2,0.2,2.4,0.3,3.5
	c-4.2,1.7-5,6.1-1.7,10.9c-0.2-2.4-0.4-4.2-0.4-6c0-0.7,0.6-1.8,1.2-2c0.5-0.2,1.7,0.5,2,1.1c2.2,3.8,4.2,7.7,6.2,11.5
	c0.2,0.4,0.2,0.9,0.5,1.2c0.5,0.4,1.1,0.8,1.6,0.7c0.4-0.1,1-0.9,1-1.4c-0.1-1-0.3-2.2-0.8-3.1c-1.4-2.7-3.2-5.3-4.5-8
	c-1.1-2.3-2-4.8-2.7-7.4c-0.5-1.9-0.3-3.9,0.8-5.7c2.2-0.1,2.9,1.6,3.5,3c2,4.5,3.8,9,5.7,13.6c0.4,1,0.5,2,1.9,1.8
	c1.4-0.2,1.8-1.2,1.6-2.4c-0.1-0.9-0.3-1.7-0.6-2.6c-1.5-4.4-3.3-8.8-4.5-13.3c-0.8-3.1-1-6.4-1.2-9.7c-0.1-1.5,0.1-3.4,1.9-3.7
	c1.8-0.3,2.6,1.4,3.2,2.7c1.3,2.9,2.5,5.8,3.6,8.8c0.9,2.5,2,4.8,3.9,6.8C28.4,111.3,29.8,111.1,31.4,108.1z M54.7,49
	c2.3,5.8,4.6,11.6,7,17.3c1.1,2.7,2.2,5.5,3.4,8.2c0.5,1,0.9,2.4,2.7,1.6c1.1-2.8,0.4-5.5-0.7-8.2c-1.1-2.6-2.2-5.2-3.1-7.4
	c1.1-1.7,1.9-3,2.7-4.2c0.3-0.5,0.7-1.1,1.2-1.5c0.8-0.8,1.8-1.5,2.4-2.4c2.9-4.7,4.5-9.9,5.2-15.4c0.2-1.8,0.5-3.5,0.8-5.3
	c1.6,1.9,2.6,3.8,3.6,5.8c1.7,3.4,1.7,3.6-1.2,6c-0.4,0.3-1,0.5-1.4,0.9c-0.4,0.4-0.6,0.9-1,1.5c3.4,1.4,3.6-2.6,6-2.9
	c0.5,0.8,1,1.8,1.6,2.7c0.6,0.9,1.2,1.9,1.8,2.7c2,2.7,4.3,2.9,6.2,0.4c1.2-1.6,1.9-3.6,2.8-5.5c0.2-0.4-0.1-1.1-0.3-2.2
	c-1,1.5-1.6,2.5-2.2,3.4c-4.1-1.2-6.6-5.6-5.5-9.4c0.4-1.4,0.6-2.8,0.9-4.2l-0.5-0.2c-0.8,1.4-1.5,2.7-2.6,4.5
	c-2.3-3.9-4.4-7.4-6.3-11.1c-0.7-1.3-1-2.9-1-4.4c-0.2-5.7-1.8-11-3.8-16.2c-0.3-0.9-1-1.7-1.6-2.4c-1.9-1.9-3.9-1.4-4.8,1.2
	c-0.6,1.8-0.6,3.6,0.2,5.5c2.4,5.7,4.9,11.5,7.2,17.3c0.5,1.3,0.9,2.8,0.7,4.1c-1.2,5.8-2.6,11.5-4.1,17.2c-0.4,1.6-1.2,3-2.1,4.9
	c-0.6-4.3-1.1-7.9-1.6-11.6c-0.4-2.4-1.4-4.6-3.1-6.4c-2.3-2.4-5.8-2-7.5,0.9c-0.6,1.1-1,2.4-1.6,3.9c-1.2-0.3-2.2-0.6-3.2-0.8
	c-1.3,2.2-1.3,2.2-0.7,3.7C52.4,43.6,53.6,46.3,54.7,49z M69.1,6.5c-0.7-1.4-0.9-2.9,0-4.3c3.3,1.4,6,8.3,5.9,15.7
	C72.9,13.8,70.9,10.2,69.1,6.5z M57.8,36.8c0.3-0.9,1.5-1.9,2.5-2.2c0.6-0.2,1.8,0.7,2.3,1.4c1,1.8,1.9,3.7,2.6,5.6
	c0.7,1.9,1.3,4,1.5,6c0.4,3.8,0,7.5-2.8,10.6c-1.8-1.2-2.1-2.8-2.6-4.3c-1.1-3.2-2-6.4-3.3-9.5C56.8,41.8,56.9,39.3,57.8,36.8z
	 M151.6,58.3c0.6,0,1.3-0.8,2.4-1.6c-1.2-0.9-1.8-1.6-2.6-1.8c-0.3-0.1-1.2,0.8-1.3,1.4C149.8,57.4,150.4,58.3,151.6,58.3z
	 M28.7,186.2c-0.1,0.9-0.1,1.8,1.1,2c1.1,0.2,2.9-1.4,2.8-2.6c0-0.6-0.7-1.1-0.8-1.5C29.7,183.9,28.8,184.6,28.7,186.2z M18.3,172.6
	c-0.1,0.1,0.8,0.9,1,0.8c0.5-0.2,1-0.7,1.3-1.2c0.1-0.2-0.5-0.7-1-1.5C19,171.5,18.5,172,18.3,172.6z M30,203.4
	c-0.1,0.2,0.6,0.9,0.9,0.9c0.4,0,0.7-0.5,1.2-0.9c-0.4-0.5-0.7-0.9-1.1-1.3C30.6,202.5,30.1,202.9,30,203.4z M170.4,102.3
	c-0.1-0.2-0.7-0.5-1-0.4c-1,0.4-1.1,1.2-0.4,2.3C170.1,103.7,170.8,103.3,170.4,102.3z M16.7,186c-1.5-0.3-2.2,0.5-2.6,1.8
	c-0.3,1.4,0.4,2.5,1.6,2.8c1.3,0.3,2.8-0.8,3-2.3C19,187,18.3,186.3,16.7,186z M16.2,189c-0.2,0-0.8-0.6-0.7-0.8
	c0.1-0.4,0.5-0.6,1-1.1c0.4,0.6,0.7,1,1,1.3C17.1,188.6,16.6,189,16.2,189z M8.3,167.5c-0.2,0.3,0,0.9,0,1.4c0.5-0.1,1.2,0,1.3-0.3
	c0.3-0.5,0.4-1.2,0.7-2.5C9.2,166.8,8.6,167,8.3,167.5z M154.9,72.6c-0.8,0.7-1.3,1.1-2,1.7C154.9,75.2,155.3,74.7,154.9,72.6z
	 M174.2,117.9c0.1,0.1,0.2,0.1,0.3,0.2c0.5-0.2,1.1-0.4,1.6-0.6c0.1-0.4,0.1-0.8,0.2-1.2C175.5,116.8,174.9,117.3,174.2,117.9z
	 M142.9,114.6c-4.1-1.4-6.8-4.1-8.7-7.9c-2.3-4.8-1.3-7.7,3.4-10.2c2.3-1.2,4.7-2.4,6.7-4.1c4.3-3.4,4.6-9.2,0.9-13.3
	c-2.9-3.2-6.1-4.1-10.4-2.6c-2.7,0.9-5.3,2.1-8,2.9c-2.5,0.7-4-0.3-4.8-2.7c-0.2-0.7-0.2-1.5-0.4-2.2c-1.1-5.1-1.8-10.4-4.7-14.9
	c-5.4-8.5-13.9-11-22.7-7.6c-7.1,2.8-10.9,8.7-11.2,17.4c-0.1,3.9,1.5,7.2,2.9,10.7c1.9,4.8,1.2,5.9-3.8,6.9
	c-4.2,0.9-8.2,2.4-11.6,5c-1.7,1.3-3.1,2.9-3.6,5.2c-1.4,5.9,5.3,13.9,13.4,11.6c1.7-0.5,3.3-1,5.1-1.6c0.5,0.5,0.8,0.7,0.9,0.9
	c2.4,4.3,3.5,8.9,4.2,13.7c0.2,1.6-0.5,3-1.9,3.9c-1.5,0.9-3,1.7-4.6,2.6c-6.8,3.9-7,13-0.6,17.4c2.4,1.7,4.9,1.5,7.5,1.1
	c4.6-0.6,9.1-1.8,12.9-4.5c4.2-3,8.1-6.3,12-9.7c2.2-2,4.5-2.5,7.1-1.4c4.2,1.9,8.7,2.9,13.2,3.9c4,0.9,7.9,0.7,11.4-1.5
	c2.9-1.8,5.8-6.2,4.2-10C150.2,119.5,147.5,116.2,142.9,114.6z M146.3,132.9c-2.5,1.4-5.2,1.4-8,1.1c-5.6-0.7-10.9-2.3-16-4.5
	c-1.1-0.4-2.3-0.7-3.3-1c-6.4,4.9-11.8,10.5-18.6,14.2c-3.6,2-7.6,2.8-11.6,3.2c-3.2,0.3-5.4-1.8-6.9-4.3c-1.7-2.6-1.9-5.7-0.1-8.4
	c1-1.5,2.5-2.7,4-3.8c1.2-0.9,2.7-1.4,4-2.3c2.4-1.6,3.4-4,2.6-6.8c-1.1-3.8-2.2-7.5-3.4-11.3c-1.1-3.3-2.1-3.7-5.3-2.7
	c-3,0.9-6,2.1-9.3,0.7c-2.7-1.1-4.6-3-5.6-5.7c-0.8-2.3-0.6-4.5,1.3-6.3c2.8-2.8,6.2-4.5,9.9-5.6c1.9-0.6,3.8-0.9,5.7-1.6
	c2.4-0.9,3.2-2,2.8-4.5c-0.3-2.1-1-4.3-2-6.2c-2.5-4.5-2.6-9-0.9-13.6c2.2-5.9,6.1-9.8,12.6-11c10.1-1.9,17.5,4.5,20,13.7
	c0.9,3.1,1.4,6.4,2,9.6c0.8,4.1,3.8,6,7.8,4.9c0.9-0.3,1.9-0.7,2.8-1c1.3-0.5,2.7-1,4-1.5c6.5-2.6,10.9,2,11.1,7.5
	c0.1,2.9-1.4,4.8-3.5,6.2c-2.1,1.4-4.4,2.5-6.6,3.6c-4.5,2.4-5.7,6.2-3.4,10.9c2.3,4.7,5.4,8.4,10.6,10.1c3.3,1.1,5.3,3.7,6.7,6.8
	C151.6,127.5,149.6,131.1,146.3,132.9z M176.3,116.1C176.3,116.1,176.3,116.1,176.3,116.1L176.3,116.1
	C176.3,116.1,176.3,116.1,176.3,116.1z M139.6,118.2c-3.9-1-7.3-2.9-9.4-6.6c-1.6-2.8-1.2-6-1.2-9c-0.1-3.2,0.5-6.4,3-8.7
	c1.1-1,2.5-1.8,3.7-2.7c2.1-1.6,4.2-3.2,4.8-6c0.4-2-0.1-2.9-1.9-3.5c-2-0.7-4.1-0.6-6.1,0.1c-2.1,0.7-4.1,1.4-6.2,2.1
	c-2.7,0.8-5.2,0.3-7.4-1.5c-2-1.6-3-3.7-3.4-6.2c-0.8-5.2-2.1-10.3-4.6-14.9c-3.2-5.9-12.6-7.4-17.6-2.9c-5.5,4.9-6.3,11-3.6,18.3
	c0.7,1.9,1.9,3.7,2.8,5.6c1.4,3.2,0.9,5.2-1.9,7.1c-0.7,0.5-1.5,0.9-2.4,1.1c-2.7,0.8-5.5,1.4-8.2,2.3c-1.7,0.6-3.5,1.3-5,2.3
	c-2.1,1.4-3.1,4.1-2.6,6.3c0.5,2.1,1.8,3.1,5.1,3.1c2.7,0,5.4-0.4,8.1-1c2.1-0.5,3.5,0,4.7,1.8c3.2,4.6,4.8,9.8,5.5,15.3
	c0.4,3.1-0.6,5.5-3,7.5c-2,1.7-3.9,3.6-5.3,5.8c-1.8,2.7-0.8,4.8,2.2,5.9c0.7,0.3,1.5,0.3,2.2,0.5c3.8,0.8,7-0.7,10.2-2.7
	c4.1-2.7,8.3-5.4,12.6-7.7c2.9-1.6,6-2.5,9.5-1.5c2.7,0.8,5.5,1.4,8.2,2.2c2,0.5,4,1.1,5.7,1.6c1.5,0,2.7,0.2,3.9,0.1
	c3.6-0.3,5.8-3.8,4.7-7.4C145.5,121.1,143.3,119.1,139.6,118.2z M89.6,133.3c0.5,1.8,0.8,3.3,1.2,4.8
	C87.9,137.6,87.6,136.8,89.6,133.3z M134.3,118c0.9,0.3,1.7,0.6,3,1c-1.8,0.8-2.5,0.1-3.2-0.8c-3.7-1.4-6.1-3.9-6.6-7.9
	C129,113.6,131.8,115.6,134.3,118z M127.7,97.8c0.1-2.5,0.9-4,2.7-4.8C129.6,94.4,128.8,95.9,127.7,97.8z M138.8,85.5
	c-2.3-2.1-2.3-2.1-5.9-2.2C137.2,81.8,139.1,82.6,138.8,85.5z M112.4,69.4c0.5,2.5,1.2,4.9,1.4,7.4c0.3,5.1,4.9,9.3,10.6,8.9
	c0.8-0.1,1.7-0.1,2.8-0.2c-5.8,4-11.1,0.7-13.5-5.1C112.3,77,111.7,73.3,112.4,69.4z M89.6,69.8c1,2.5,1.9,5,2.9,7.4
	C89.6,75.5,89.6,72.7,89.6,69.8z M92.8,77.9c0.9,2.3,2.5,4.3,2,7.1C94.1,82.6,93.5,80.3,92.8,77.9z M78.1,102.9
	c-0.7-0.1-1.4-0.2-2.1-0.3c0-0.1,0.1-0.2,0.1-0.2c0.7,0.1,1.3,0.2,2,0.3C78.1,102.7,78.1,102.8,78.1,102.9z M92.3,104.5
	c-0.2-0.4-0.5-0.9-0.7-1.3c0.3,0.4,0.6,0.7,1,1.1C92.5,104.4,92.4,104.5,92.3,104.5z M118.1,121.1c-0.3,0.3-0.8,1.3-1.6,1.6
	c-1,0.3-1.9-1.2-1.8-2.5c0.2-1.5,1.2-2.9,2.2-2.8C117.9,117.6,118.4,118.7,118.1,121.1z M124.9,126.5c3.3-0.2,6.1,0.8,8.8,1.5
	c2.8,0.7,5.6,1.4,8.5,2.1C138.6,130.7,134.5,129.8,124.9,126.5z M141.6,128.5c-3.6-1-7.4-2.2-11.2-3c-3.8-0.8-7.7-1-11.6-1.5
	c1.5-5.4,0.9-7.7-2.1-8.7c-2.1-0.7-5.6,1.2-6.3,3.5c-0.7,2.3,1.2,5,4.8,6.5c-6.5,3.5-11.9,8.4-18.6,11c-0.7,0.3-1.5,0.6-2.2,0.6
	c-0.8,0-2.1-0.1-2.3-0.6c-0.4-0.9-0.5-2.3-0.1-3c1.2-1.8,2.6-3.6,4.3-4.8c2.8-2,4-4.5,3.3-7.9c-0.4-1.6-0.8-3.2-1.3-4.7
	c-1-3.1-2-6.2-3-9.3c-0.4-1.2-0.9-2.5-1.6-3.6c-1.6-2.5-4.2-4.6-8.1-3c-2.6,1-5.1,0.9-7.7,0.8c-0.7,0-1.3-0.5-2.4-0.9
	c2.5-2.8,5.2-4.2,8.4-4.7c4-0.6,7.5-2.3,10.6-4.8c2.4-1.9,3-4.5,2.3-7.4c-0.4-1.6-1.2-3-1.8-4.6c-1.1-3-2.4-5.9-3-9
	c-0.8-4,2.1-8.1,5.8-9.2c5.1-1.5,8.9-0.3,10.9,4c1.1,2.3,1.4,5,2,7.5c0.5,2.4,0.7,5,1.4,7.4c0.4,1.7,1.2,3.3,2.1,4.8
	c3.4,5,7.9,6,13.9,3.5c2.1-0.9,4.3-1.6,6.5-2.3c0.6-0.2,1.2,0,1.8,0.1c0.7,1.6-0.3,2.1-1.3,2.7c-1.6,0.9-3.3,1.8-4.9,2.7
	c-1.9,1.1-3.3,2.8-3.5,4.9c-0.4,4.7-0.8,9.4-0.6,14c0.3,6.2,4.7,9.3,9.9,11.4c2.5,1,4.8,2.1,6.3,4.4
	C142.8,126.3,143,127.1,141.6,128.5z M113.6,118.4c-0.3,0.6-0.7,1.1-1,1.6c-0.1,0-0.3,0-0.3,0c-0.3-1.1-0.1-1.9,1.2-2.5
	C113.6,118,113.7,118.3,113.6,118.4z M97.1,124.8c0.2-1.7,0.4-3,0.5-4.2C97.6,121.9,99,123.3,97.1,124.8z M144.6,128.6
	c-0.5-4.9-1.3-5.1-5.3-8.2C143.6,120.3,145.8,123.7,144.6,128.6z M111.7,103.9c-2.6-0.3-4.5,1.5-4.9,4.5c-0.5,3.4,0.9,5.5,4,5.9
	c2.5,0.3,5-1.6,5.4-4.2C116.5,107.2,114.4,104.2,111.7,103.9z M109.5,111.6c-1.8-2.1-1.7-3.3,0.8-6
	C110,107.6,109.7,109.7,109.5,111.6z M113.7,112c-1.8-0.2-2.2-1.5-2.3-3c0-1.4,0.3-2.5,2.2-2.9C114.8,108.2,115.7,110,113.7,112z
	 M176.2,116.1c0,0,0,0.1,0,0.1C176.2,116.2,176.3,116.2,176.2,116.1L176.2,116.1z M165.5,100.9c-0.4-1.4-1.7-1.8-3.7-1.3
	c-0.6,0.2-1.3,0.1-2.2,0.2c-0.1,3.2-0.3,6.5-0.4,9.8c2.9-0.5,2.9-0.5,3.4-5.2c0.3-0.1,0.6-0.2,0.9-0.4
	C165.2,103.1,165.9,102.1,165.5,100.9z M163.9,101.5c-0.2,0.4-0.7,0.5-1.1,0.8c-0.2-0.3-0.6-0.7-0.6-0.9c0-0.3,0.5-0.6,1.3-1.3
	C163.7,100.8,164.1,101.3,163.9,101.5z M112.4,97.8c0.4-3.2-1.4-6-4.1-6.4c-2.7-0.4-5.2,2.1-5.6,5.6c-0.4,3,1,5.2,3.6,5.6
	C109.3,103,111.9,101,112.4,97.8z M108.1,94.4c0.7-1,1.7-1.1,2.3,0c0.8,1.3,0.8,2.6,0.2,4C107.5,97.5,106.8,96.3,108.1,94.4z
	 M105.2,100c-1.3-1.3-1.1-3.7,0.9-6.7c-0.7,4.9-0.4,5.5,3.5,6.7C108,101.1,106.4,101.1,105.2,100z M183.6,63.4
	c-0.4,0.2-0.9,0.5-1,0.9c-0.1,0.3,0.1,0.8,0.2,1.2c0.3-0.1,0.5-0.2,0.8-0.3c0.2-0.4,0.5-0.8,0.6-1.2
	C184.2,63.9,183.7,63.4,183.6,63.4z M166.8,107.5c-0.1-0.2-0.6-0.4-0.8-0.3c-0.9,0.5-0.9,1.2-0.2,2.1
	C166.7,108.9,167.3,108.5,166.8,107.5z M169.2,96c0.7,0,1.1,0.1,1.5,0.1c1.7-0.3,2.7,0.5,3.7,1.9c2.8,3.8,2.8,7.9,1.9,12.2
	c1.6-2,3.2-3.9,5-6.1c-0.5,2.6-2.3,5-5.2,7.3c-0.8,0.9-1.5,1.7-2.3,2.6c0.3,0.5,0.6,1,0.9,1.5c0.5-0.2,0.9-0.4,1.5-0.7
	c0,0.5,0,0.9,0,1.3c0.5-0.2,1.1-0.4,1.6-0.5c0.1,0.1,0.2,0.1,0.3,0.2c-0.7,0.6-1.4,1.1-2,1.7c0,0-0.1,0-0.1,0c0,0,0,0,0,0l0.1-0.1
	c-1.4,2.6-4,3.6-7.1,2.9c-1.1-0.3-2.2-0.8-3.2-0.6c-2.3,0.4-4.1-0.4-5.7-1.8c-1.2-1-2.3-2-3.3-2.8c0.6-5,1.3-9.7,1.8-14.5
	c0.1-1.1,0.3-1.9,1.1-2.5c1.9-1.7,4.1-2.4,6.6-2.6c0.6,0,1.1-0.1,1.7-0.1c0-0.2,0.1-0.5,0.1-0.7c-0.9-0.2-1.8-0.7-2.6-0.6
	c-3.6,0.6-6.8,1.9-8.7,5.2c-1.3,2.3-2.5,4.6-3.5,7c-1,2.5-1.1,5.3,0.5,7.6c2.9,4.1,6,8.1,11.9,7.9c0.5,0,1.1,0.2,1.6,0.3
	c6.7,1.5,13.8-3.2,15.4-10c1.3-5.6,0-10.3-4.1-14.4C175.9,94.7,172.7,94.1,169.2,96z M155.2,110.5c-0.2,0-0.4,0-0.6-0.1
	c0.1-1.2,0.3-2.3,0.4-3.5c0.2,0,0.3,0,0.5,0L155.2,110.5z M180,114.1c-0.1-0.1-0.3-0.2-0.4-0.3c0.4-0.4,0.7-0.8,1.1-1.3
	c0.1,0.1,0.2,0.2,0.4,0.3C180.7,113.2,180.4,113.6,180,114.1z M178.7,111.9c0.8-0.8,1.5-1.5,2.6-2.6
	C180.9,111,180.9,111,178.7,111.9z M179.8,103.5c-0.4,0.8-0.8,1.5-1.1,2.3c-0.1-0.1-0.3-0.1-0.4-0.2c0.4-0.8,0.8-1.5,1.1-2.3
	C179.5,103.4,179.7,103.4,179.8,103.5z M98.2,68.4c-1.2-0.2-2.1,0.4-2.4,1.7c-0.2,1,0.5,1.5,1.4,1.3c0.9-0.2,1.8-0.8,3.2-1.5
	C99.3,69.1,98.8,68.5,98.2,68.4z M76.5,130c0.1-1.1-0.3-1.9-1.5-2c-1.1-0.1-2.5,1.1-2.3,2.2c0.1,0.8,0.8,1.6,1,2.1
	C75.3,132.4,76.4,131.3,76.5,130z M104,158.3c0,0.5,0.5,1,0.8,1.6c0.4-0.3,1-0.6,1.1-1c0.1-0.4-0.2-0.9-0.5-1.6
	C104.7,157.7,104,158,104,158.3z M112.4,144.8c-1-0.1-1.5,0.7-1.6,1.7c-0.1,1.1,0.4,1.9,2,2.1c0.3-0.5,0.9-1,1.1-1.7
	C114.2,145.7,113.5,144.9,112.4,144.8z M91.1,168.5c-0.2-1-0.5-2-0.8-3c-3.2,0-3.1,3.1-4.9,4.2c-1.4,0.1-2.7,0.1-4.5,0.2
	c0.3,1.2,0.2,2.4,0.7,2.9c1.6,1.5,1.1,3,0.5,4.5c-0.3,0.9-0.8,1.7-1.5,3.1c2.6-0.6,4.8-1.7,6.8-1.4c2.2,0.3,4.1,2,6.4,3.2
	c1.3-1.4-1-3.2-0.1-4.7c0.9-1.5,2-2.8,3.2-4.5c-1-0.4-1.7-0.9-2.5-1.1C92.4,171.6,91.4,170.5,91.1,168.5z M103,171
	c-0.3-0.2-0.6-0.4-0.8-0.5c-3.7-1.6-6.9-3.6-7.4-8.2c-0.1-0.6-0.4-1.2-0.7-1.8c-0.6-1.4-0.8-3.2-2.5-4.4c-0.9,0.9-1.8,1.7-2.5,2.7
	c-1.1,1.5-2.2,3-3.2,4.6c-1,1.7-2.5,2.3-4.4,2.4c-2,0.1-3.9,0.2-5.9,0.5c-0.9,0.1-1.8,0.8-2.9,1.3c2.3,3.1,4.3,5.8,6.4,8.7
	c-1.3,2.9-2.6,5.7-3.9,8.6c-0.4,0.9-0.7,1.6,0.4,2.5c3.5-1.5,7.2-3.1,10.7-4.5c4.2,2.5,7.1,6.5,11.9,7.9c-0.4-3.4-0.7-6.7-1.2-9.9
	c-0.2-1.5,0.1-2.5,1.5-3.2c1.6-0.8,3-1.7,4.5-2.7c0.8-0.5,1.8-1.1,2-1.8C105.5,171.6,103.8,171.6,103,171z M97,176.8
	c-1.4,0.8-1.9,1.9-1.5,3.6c0.5,2.4,0.7,4.9,1.1,8.1c-2.9-2.3-5.2-3.9-7.3-5.8c-1.7-1.6-3.3-1.9-5.3-0.9c-2.1,1-4.3,1.9-7,3.1
	c1.2-2.7,2.1-5,3.2-7.3c0.7-1.4,0.6-2.6-0.6-3.8c-1.5-1.7-2.7-3.6-4.3-5.7c3.3-0.6,6.2-1.3,9.3-0.1c2.1-3,4.2-6,6.4-9.2
	c1.8,2.5,2.6,5,3.3,7.6c0.6,2.2,1.5,3.6,3.9,4.2c1.6,0.4,3,1.6,4.7,2.6C100.7,174.5,98.8,175.7,97,176.8z M107.1,78.2
	c0.3-0.7-0.1-1.8-0.3-2.6c-0.8,0.3-1.9,0.3-2.2,0.9c-1.5,2.5-3.5,3-6.3,2c0.6,2.1,2.3,2.5,3.8,2.2C104,80.5,106.3,80.4,107.1,78.2z
	 M116.2,158.9c-0.5,0.2-0.9,0.5-1.7,1c0.6,0.4,1.1,0.9,1.1,0.8c0.4-0.4,0.8-0.8,1.1-1.3C116.9,159.4,116.4,158.8,116.2,158.9z
	 M60.7,141.7c-5.3-0.2-8.8,2.4-9.4,7.7c-0.1,1.3-0.3,2.5-0.5,3.9c-1.6-0.2-2.9-0.2-4.2-0.6c-6.5-1.7-10.7,5.5-9,11.1
	c0.9,3,3.4,4.1,6,5.1c5.3,2,10.9,2.2,16.4,2.4c0.9,0,1.9-0.2,2.6,0.2c2.1,1.1,4,0.3,6.1,0.2c0.2-1.3,0.4-2.5,0.4-3.6
	c0.2-5.4,0.6-10.9,0.3-16.3C69.1,146.3,66.2,141.9,60.7,141.7z M65.3,159.6c-0.1,3.3-0.8,6.5-1.2,10c-3.6,0.1-7.1,0.5-10.5,0.1
	c-3.6-0.4-7.1-1.3-10.5-2.3c-2.2-0.7-4.1-2.2-4.2-4.9c-0.1-2.8,0.2-5.6,3-7.1c1-0.5,2.3-0.8,3.4-0.8c1.6,0.1,3.2,0.6,4.8,0.9
	c1,0.2,2.1,0.4,2.9,0.5c0-2.8-0.4-5.1,0-7.3c0.6-3.3,3.5-5.3,6.7-5c3.1,0.2,4.9,1.7,5.2,4.9C65.2,152.2,65.4,155.9,65.3,159.6z
	 M104.9,69.8c0.7,0,1.4-0.6,2.6-1.2c-1.1-0.8-1.6-1.4-2.2-1.5c-0.9-0.2-1.9,0.3-1.8,1.4C103.6,69,104.4,69.8,104.9,69.8z
	 M123.8,152.9c-0.9,0.2-1.6,1-2.1,1.2c-0.5,2.2-0.1,3.4,1,3.6c1.4,0.2,1.9-0.8,2.1-1.9C125.3,154.2,124.8,152.8,123.8,152.9z
	 M123.1,156.2l0-1.7c0.2,0,0.5-0.1,0.7-0.1c0.1,0.6,0.1,1.2,0.2,1.7C123.7,156.2,123.4,156.2,123.1,156.2z"/>
</svg>
