<?xml version="1.0" encoding="utf-8"?>
<!-- Generator: Adobe Illustrator 18.0.0, SVG Export Plug-In . SVG Version: 6.00 Build 0)  -->
<!DOCTYPE svg PUBLIC "-//W3C//DTD SVG 1.1//EN" "http://www.w3.org/Graphics/SVG/1.1/DTD/svg11.dtd">
<svg version="1.1" id="Ebene_1" xmlns="http://www.w3.org/2000/svg" xmlns:xlink="http://www.w3.org/1999/xlink" x="0px" y="0px"
	 width="106.2px" height="109.9px" viewBox="0 0 106.2 109.9" enable-background="new 0 0 106.2 109.9" xml:space="preserve">
<path fill="#232323" d="M62.2,53.7c-0.7,3-1.4,6-2,8.9c-0.6,3-1.2,6-1.7,9c-0.4,2.9-2.1,5.7-1.6,8.7C59.7,74.4,63.4,56.7,62.2,53.7z
	 M57.1,57c-0.1,3.8-3.7,4.7-5.6,7c0.2,0.2,0.3,0.4,0.5,0.5c1.4-1,2.9-2,4.5-3.2c0.1,1.2,0.1,2.1,0.3,2.9c0.1,0.8,0.4,1.5,0.7,2.2
	c0.2-0.1,0.5-0.1,0.7-0.2C58.2,63.3,58.9,60.2,57.1,57z M105.7,75c-1.5-7.7-3-15.5-4.7-23.2c-1-4.7-2.3-9.4-3.3-14.2
	c-1.4-6.8-2.5-13.7-4-20.6c-1.1-5-2.6-9.8-3.9-14.7c-0.6-2.2-1.6-2.7-3.5-2c-4.2,1.5-8.4,3.1-12.7,4.5C68,6.7,62.3,8.6,56.6,10.2
	c-5.3,1.5-10.7,2.7-16.2,3.8c-8,1.6-15.9,3.1-23.9,4.5c-4.2,0.7-8.4,1.3-12.6,1.9c0,0.4,0.1,0.8,0.1,1.3c14.2-1,28.1-4.7,42-7.5
	C60.3,11.3,74,6.3,87.8,1.6C89.4,7,91,12.1,92.2,17.2c1.5,6.5,2.6,13.1,3.9,19.6c0.9,4.2,1.9,8.4,2.8,12.6
	c1.8,8.8,3.6,17.7,5.4,26.5c0.2,1,0.7,1.9,1.1,2.9c0.3-0.1,0.5-0.2,0.8-0.2C106,77.3,105.9,76.1,105.7,75z M29.9,73
	c5.4-1.3,8.2-5.5,12-9c-0.8,7.8-2.3,14.9-1.6,22.1c0.2,0,0.5,0.1,0.7,0.1c0.1-0.8,0.3-1.7,0.4-2.5c0.5-4.9,1-9.9,1.5-14.8
	c0.3-2.8,0.9-5.6,1.2-8.4c0.1-0.9-0.1-1.8-0.2-2.6c-0.2,0-0.5-0.1-0.7-0.1c-2.3,6.3-6.8,10.5-12.5,13.6C30.4,71.6,30.3,72.2,29.9,73
	z M26.5,33.6c-2.2-0.9-7.9-0.6-12.6,0.5c0.5,0.6,0.8,1.2,1,1.2C18.8,35.1,22.7,34.6,26.5,33.6z M65,63.6c1.6,0.3,2.9-1.8,4.3,0
	c-0.4,3.1-2.1,4.9-5.4,4.6c-0.4,1.4-0.2,2.2,1.2,2.3c0.5,0,1.1,0,1.6,0.2c3.4,1.6,3.4,1.6,6-1.3c-1.6-0.1-3.3,1.8-4.7-0.6
	c0.9-1.6,1.9-3,2.5-4.6c0.7-1.8-0.2-3.1-2.2-3.1C66.6,61.1,65.6,61.9,65,63.6z M68.9,21.5l0.3,0.8c3.6-0.3,6.9-1.6,10-3.2
	c-0.1-0.3-0.1-0.5-0.2-0.8C75.6,19.3,72.2,20.4,68.9,21.5z M43.1,29.5c-2.2-0.8-4.2-0.7-6,1.1C39.2,30.8,41.2,30.3,43.1,29.5z
	 M34.2,40.8c-1.8,2-2.2,4.4-1.4,6.9c0.8,2.4,2.8,2.9,4.7,1.2c0.8-0.7,1.4-1.6,2.1-2.5c2.5,3.4,3.3,3.4,6.7-0.2
	c0.3,0.2,0.7,0.4,1.2,0.7c0.8-4.7,1.7-9.2,2.4-13.7c0.1-0.4-0.6-0.9-1.3-1.8c-0.5,2.5-0.9,4.4-1.2,5.8c-2.9,1.4-5,2.4-7.2,3.5
	C38,38.6,36.2,38.5,34.2,40.8z M42,42.2c0.6-1.9,2.1-2.7,4.4-2.5c-0.5,3-1,5.7-3.6,7.8C41,45.8,41.4,43.9,42,42.2z M38,41.4
	c0.5,0.5,1,1.6,0.8,2.3c-0.4,2-1.4,3.7-3.4,4.5c-1.7-2.1-1.7-4.8-0.1-6.3C36.1,41.1,37.1,40.6,38,41.4z M20.7,85.5
	c-2.5-9.7-5.2-19.4-7.7-29.1c-2.4-9.5-4.6-19.1-7-28.6c-0.5-2-0.9-4.1-2.9-5.8c-0.8,2-1.5,3.8-2.1,5.6c-0.3,1-1.4,2.2,0.4,3
	c-0.7,1,1.4,3-1.4,3.3c2,6.6,4,12.8,5.7,19C9.6,67.4,13.3,82.2,17.1,97c0.7,2.7,1.2,5.6,2.6,8c0.8,1.4,1.4,2.9,1.8,4.7
	c1.7,0.1,3.2,0.4,4.8,0.2c5.4-0.7,10.7-1.3,16.1-2.3c4.5-0.8,9-2,13.5-3c3.9-0.9,8-1.6,11.8-2.8c10.4-3.1,20.7-6.3,30.5-11
	c2.2-1.1,4.1-2.6,5.2-4.7c0.6-1.2,0.2-2.9,1.6-4.1c-25.7,10.8-51.9,19-79.7,20.8C23.5,96.8,22.2,91.1,20.7,85.5z M6.7,50.2
	c-0.5-2.3,0.6-3.2,1.2-4.3c0.3,0.1,0.5,0.2,0.8,0.3C8.1,47.3,7.5,48.4,6.7,50.2z M9.9,60.4L9.3,60c0.6-0.8,1.1-1.7,1.7-2.5
	c0.3,0.2,0.5,0.4,0.8,0.6C11.2,58.8,10.5,59.6,9.9,60.4z M15.2,81.2c-0.3-0.1-0.6-0.2-0.9-0.3c0.3-0.8,0.6-1.6,1-2.4
	c0.2,0.1,0.4,0.1,0.6,0.2C15.6,79.5,15.4,80.4,15.2,81.2z M16.5,87.8c-0.7-2.1-0.5-2.7,1.7-5.2C17.7,84.2,17.2,85.8,16.5,87.8z
	 M17.7,93c0.5-1.3,0.9-2.5,1.5-4.2c1.2,2.2-1,3.1-0.6,4.6C18.4,93.2,18,93.1,17.7,93z M19.4,99.1c0.5-1.1,0.9-2.2,1.5-3.6
	c1.7,2.3-0.3,2.8-0.9,3.9C19.8,99.2,19.6,99.1,19.4,99.1z M21.1,103.2c-0.3-0.1-0.6-0.3-0.8-0.4c0.5-1.2,1-2.4,1.7-4.1
	C23.4,101.2,20.7,101.7,21.1,103.2z M23.3,102.2c0.8,1.6,0.1,2.1-1.2,2.4C22.4,103.9,22.7,103.2,23.3,102.2z M22.4,107.8
	c-0.4-1.9,1.1-2.3,2.1-3C24.7,106.4,24.5,107.8,22.4,107.8z M98.6,87.4c0.3-0.3,0.6-0.6,1.3-0.6c-0.4,0.6-0.9,1.3-1.3,1.9
	c-0.2-0.1-0.3-0.2-0.5-0.3C98.3,88,98.4,87.7,98.6,87.4z M91.6,90.8c0.2,0.1,0.4,0.3,0.6,0.4c-0.4,0.5-0.7,0.9-1.1,1.4
	c-0.1-0.1-0.3-0.2-0.4-0.3C91,91.8,91.3,91.3,91.6,90.8z M89.5,91.5c-0.7,0.9-1.3,1.9-2,2.8c-0.3-0.2-0.6-0.4-0.9-0.7
	c0.8-0.9,1.6-1.7,2.4-2.6C89.1,91.1,89.3,91.3,89.5,91.5z M82.4,94.5c0.7-0.6,1.5-1.2,2.1-1.9c0.6-0.7,1.2-1.5,1.8-2.2
	c0.2,0.2,0.5,0.3,0.7,0.5c-1,1.4-2,2.9-3.1,4.2C83.4,95.6,82.6,95.4,82.4,94.5c-0.8,0.8-1.7,1.6-2.9,2.6
	C79.8,95,80.9,94.5,82.4,94.5z M73.6,96c0.1,0.5,0.1,1,0.2,1.6c2.3-0.7,2.5-4.2,5.5-4c-1.1,4.4-4.7,4.8-8.3,5.6
	C71.3,97.5,72.6,97,73.6,96z M69.8,96.4c0.2,0.2,0.4,0.3,0.6,0.5c-0.7,1.3-0.5,3.3-3.5,3.5C68.1,98.7,68.9,97.6,69.8,96.4z
	 M66.8,97.3c-0.9,2.4-1.3,4.7-4.2,4.3C63.6,99.2,63.8,99,66.8,97.3z M60.6,100.2c0.3,0.3,0.5,0.5,0.8,0.8l-2.4,1.9
	c-0.2-0.2-0.3-0.4-0.5-0.5C59.2,101.7,59.9,100.9,60.6,100.2z M56.2,102c0.2-0.3,0.6-0.5,1-0.7c0.1,0.1,0.2,0.2,0.3,0.3
	c-0.4,0.6-0.8,1.3-1.3,1.9l-0.5-0.3C55.9,102.8,56,102.3,56.2,102z M54.8,100.2c0.2,0.2,0.5,0.4,0.7,0.6c-0.7,1.3-1.1,2.9-2.7,3.5
	c-0.2-0.2-0.4-0.3-0.6-0.5C53,102.6,53.9,101.4,54.8,100.2z M47.6,101.8c0.5,0.7,0.7,1,1.2,1.7c0.8-0.8,1.7-1.5,2.5-2.3
	c0.2,0.1,0.4,0.3,0.5,0.4c-0.3,1-0.7,2.1-1,3.2c-1.7,0.2-3.4,0.4-5.5,0.7C46.2,104.1,46.8,103.2,47.6,101.8z M44.6,102.4
	c-0.5,1.3,0.7,3.7-2.7,3.6C43.1,104.4,43.8,103.4,44.6,102.4z M38.7,103.6c-0.3,2.1-0.4,2.1-2,3.1C37,104.9,37,104.9,38.7,103.6z
	 M32.2,104.1c-0.1,1.5,0.5,3.4-2.5,3.8C30.7,106.4,31.5,105.3,32.2,104.1z M27.2,104.3c0.2,2.3,0.2,2.3-1.7,3.9
	C25.4,106.6,26.5,105.8,27.2,104.3z M76.4,74.8c-0.4,0.8-0.7,1.7-1,2.6c0.2,0.1,0.5,0.2,0.7,0.4c1.4-2.3,2.8-4.6,4.4-7.2
	c3.6,5.2,7.1,4.3,10-2c-0.9,0.8-1.7,1.5-2.6,2.2c-2.5,2.1-4.2,1.7-5.4-1.3c-0.7-1.6-0.2-2.9,0.4-4.5c1.4-3.5,2.5-7.2,3.3-10.9
	c0.6-2.8-0.3-3.6-3.4-4c-1.8,1.9-3.1,4.2-3.2,6.8c-0.1,2.8-0.1,5.6,0.3,8.4c0.3,2.1,0,4-1.1,5.8C77.9,72.3,77.1,73.5,76.4,74.8z
	 M84.2,51.2c1.2,5.2-0.8,9.1-2.8,12.9C81.1,59.9,79.7,55.3,84.2,51.2z M54,36.8c-2.7,0.7-3.8,2.7-4.4,4.8c-0.5,1.6-0.1,3.2,1.3,4.3
	c1.6,1.2,2.7,0.2,3.9-0.7c0.5-0.4,1.1-0.7,1.7-1.1c0.2,0.9,0.3,1.6,0.4,2.3c0.2,0,0.5,0.1,0.7,0.1c0.5-1.5,1-3,1.6-4.4
	c6,1.7,6.3,1.6,9-1.5c-2.3,0.9-4.3,1.5-6.4,0c0.7-1.9,1.4-3.5,1.9-5.2c0.3-1.2-0.3-2.4-1.5-2.7c-0.8-0.2-1.9,0.2-2.7,0.7
	c-1.8,1.3-2.2,3.4-2.2,5.4c0,2.6-1.3,4.2-3.4,5.4c-1.4,0.9-2,0.2-2.6-1C52.5,41.2,54.9,39.8,54,36.8z M60.3,34.6
	c0.4-0.3,1.1-0.5,1.5-0.3c0.4,0.2,0.7,0.9,0.7,1.3c-0.1,1.8-1.2,3-3.2,3.7C58.8,37.2,59,35.7,60.3,34.6z"/>
</svg>
