<?xml version="1.0" encoding="utf-8"?>
<!-- Generator: Adobe Illustrator 18.0.0, SVG Export Plug-In . SVG Version: 6.00 Build 0)  -->
<!DOCTYPE svg PUBLIC "-//W3C//DTD SVG 1.1//EN" "http://www.w3.org/Graphics/SVG/1.1/DTD/svg11.dtd">
<svg version="1.1" id="Ebene_1" xmlns="http://www.w3.org/2000/svg" xmlns:xlink="http://www.w3.org/1999/xlink" x="0px" y="0px"
	 width="254.6px" height="373.2px" viewBox="0 0 254.6 373.2" enable-background="new 0 0 254.6 373.2" xml:space="preserve">
<path fill="#232323" d="M186.3,102.3c-0.5,1-1,2-1.5,2.9l0.2,0.2C186.1,104.7,186.8,103.9,186.3,102.3z M184.8,106.7
	C184.8,106.7,184.8,106.7,184.8,106.7C184.8,106.7,184.8,106.7,184.8,106.7C184.8,106.7,184.9,106.7,184.8,106.7
	c0.1,0,0.1-0.1,0.1-0.1C184.9,106.6,184.9,106.6,184.8,106.7z M174.2,147.2c-2.2,1.5-4.7,2.7-5.7,5.7c2.1-1.7,4.2-3.4,6.2-5.1
	C174.5,147.6,174.3,147.4,174.2,147.2z M181.1,106.6c1.4-1.9,2.5-3.4,3.8-5.2C180.9,101.4,180.1,102.5,181.1,106.6z M177.4,117.7
	c5.6-5.2,8.5-9.3,9.2-12.1c-0.6,0.4-1.1,0.7-1.7,1.1c-2,3-4,5.9-6.1,8.9C178.3,116.3,177.9,117,177.4,117.7z M172,139.8
	c0.9-0.9,1.7-1.6,2.6-2.4C172.8,137.8,172.8,137.9,172,139.8z M178.3,120.9c0.4-0.7,0.8-1.4,1.2-2.2c-0.6,0.5-1.2,1.1-1.9,1.6
	C177.9,120.5,178.1,120.7,178.3,120.9z M179.5,118.7c0.1-0.1,0.1-0.1,0.2-0.2l0,0c0-0.1,0.1-0.1,0.1-0.2c-0.1,0-0.1,0.1-0.2,0.1
	C179.6,118.6,179.5,118.7,179.5,118.7z M164.5,159.9c2-1.7,3.6-3,5.1-4.3C167.3,155.9,165.2,156.6,164.5,159.9z M171.4,147.2
	c2-1.8,4-3.6,6-5.4C174.3,142.5,172.6,144.6,171.4,147.2z M174.6,137.4c0.1,0,0.1,0,0.2-0.1l0,0c0,0,0-0.1-0.1-0.1c0,0,0,0,0,0
	C174.7,137.3,174.6,137.3,174.6,137.4z M178.8,135.1c-2.2,2.3-4.4,4.7-6.6,7c0.2,0.2,0.4,0.4,0.6,0.6c2.3-2.3,4.6-4.5,6.7-7
	C179.3,135.5,179.1,135.3,178.8,135.1z M186.2,110.3c-2.6,2.6-5.1,4.9-6.4,8C182.1,116.8,184.7,113.6,186.2,110.3z M161.7,164.5
	c1.3-0.9,2.1-1.5,3.2-2.3C163.1,162,162.3,162.5,161.7,164.5z M144.8,30c1.4-0.1,3-1.6,2.7-2.8c-0.2-1-1.1-1.8-1.5-2.4
	c-1.8,0-3.3,1.9-3.3,3.4C142.8,29.4,143.5,30,144.8,30z M146.1,25.6c0.5,2.1,0.2,2.9-2,2.4C144.7,27.3,145.2,26.7,146.1,25.6z
	 M126.1,13.6c0.4-0.5,1.1-0.9,1.3-1.5c0.1-0.3-0.5-0.8-1-1.6c-0.6,0.8-1.2,1.3-1.4,1.9C124.9,12.7,125.7,13.2,126.1,13.6z
	 M127.2,70.4c-1.5-0.9-2.5-1.6-2.9,0.1c-0.1,0.6,0.4,1.4,0.8,2.7C126,72,126.6,71.3,127.2,70.4z M117.9,94.9c0,1.3,0.7,2.1,1.9,2.2
	c1.3,0.1,2.1-0.6,2.1-1.9c0-1-0.3-2.1-0.4-3.1C118.7,92.4,117.9,93.1,117.9,94.9z M184.8,105.2c-0.7,0.9-1.3,1.9-2,2.8
	c0.7-0.4,1.3-0.9,2-1.3c0-0.4,0.1-0.9,0.1-1.3L184.8,105.2z M112.5,164.4C112.5,164.3,112.5,164.3,112.5,164.4
	C112.5,164.3,112.5,164.3,112.5,164.4L112.5,164.4z M168,58c0.4,0,0.8-0.2,1.2-0.4c-0.1-0.4-0.3-0.7-0.6-1.4
	c-0.6,0.5-0.9,0.8-1.1,1.1C167.5,57.4,167.9,58,168,58z M130.1,0c-1.1,0.9-1.6,1.4-2.4,2.2C129.6,2.9,130.4,2.8,130.1,0z
	 M150.4,58.5c1.4,0.1,3.1-1.7,3.2-3.4c0-1.4-1-2.3-2.6-2.4c-1.8-0.1-3,0.9-3.1,2.8C147.7,57,148.8,58.3,150.4,58.5z M151.1,54
	c0.4,0,1.2,0.5,1.2,0.9c0.2,1.8-1,2-2.8,2.4C149.4,55.4,149.1,54,151.1,54z M126.8,35.9c-0.4,1.7-1,3,0.8,3.6
	c0.4,0.1,1.6-0.7,1.7-1.3C129.6,36.6,128.4,36.3,126.8,35.9z M140.7,52.8c1.1-1.1,1-2.3-0.8-3.3c-0.7,1-2.3,1.6-1.3,3.2
	C138.8,53,140.3,53.1,140.7,52.8z M112.3,351.9c-2.2-2-2.2-2-4-0.4C109.8,351.7,111,351.8,112.3,351.9z M139.4,75.1
	c-0.2,0.3,0.2,1.3,0.6,1.4c1.8,0.8,2.1-0.6,2.7-1.8C141.3,73.3,140.2,73.8,139.4,75.1z M112.5,164.4L112.5,164.4
	c-0.1,0-0.1,0.1-0.2,0.1C112.4,164.4,112.5,164.4,112.5,164.4z M120.7,9.2c1.5-0.7,1.5-1.9,0-4.5c-2.8,1.5-3.2,2.3-2.5,3.8
	C118.8,9.6,119.7,9.6,120.7,9.2z M174.1,130.8c0.1,0.1,0.2,0.1,0.3,0.2c1.8-1.4,3.6-2.7,5.5-4.1c0,0-0.1,0.1-0.1,0.1
	c1.5-2.4,3-4.7,4.7-7.6c-1.1,0.3-1.7,0.5-2.3,0.7c0.3-0.5,0.6-1,0.9-1.6c-0.2-0.2-0.4-0.3-0.7-0.5c-2,2.6-4.1,5.1-6.1,7.7
	c0.2,0.2,0.4,0.4,0.7,0.6c0.8-0.9,1.5-1.8,2.3-2.7c-0.9,1.4-1.7,2.9-2.6,4.2C175.9,128.9,174.9,129.8,174.1,130.8z M181.9,120.4
	c-0.1,1.7-1.2,2.7-2.7,3.3C180.1,122.6,181,121.5,181.9,120.4z M170.9,352.6c0-0.1-0.5-0.4-0.8-0.7c-0.2,0.4-0.5,0.7-0.5,1
	c0.1,0.3,0.4,0.5,0.7,0.8C170.5,353.3,170.8,353,170.9,352.6z M179.9,112.3c0.8-1.2,1.6-2.4,2.4-3.7c-1,1-2.1,2.1-3.1,3.1
	C179.4,111.9,179.7,112.1,179.9,112.3z M182.3,108.6c0.1-0.1,0.2-0.2,0.4-0.4l-0.1-0.1C182.5,108.3,182.4,108.5,182.3,108.6z
	 M193,345.2l-2.8,2.2c0,0.1,0.1,0.2,0.1,0.3c1.4-0.6,2.8-1.2,4.2-1.8C194,345.7,193.5,345.4,193,345.2z M182.6,108.2
	c0.1-0.1,0.1-0.2,0.2-0.2C182.7,108.1,182.7,108.1,182.6,108.2L182.6,108.2z M139.1,361c1.1-0.3,2-0.5,3.3-0.9
	C139.8,359.1,139.8,359.1,139.1,361z M179.9,126.9L179.9,126.9c-2,2.4-4,4.9-6.1,7.3c0.2,0.1,0.4,0.3,0.6,0.4
	c2.9-3.2,6.1-6.1,8-10.1c-0.9,0.8-1.8,1.6-2.6,2.4C179.7,127,179.9,126.9,179.9,126.9C179.9,126.9,179.9,126.9,179.9,126.9z
	 M203.1,156.1c1.1-0.3,2-1.1,3.2-1.9c-1.8-3.6-3.8-3.9-5.4-1.4c-0.4,0.7-0.7,2-0.3,2.6C200.9,156,202.3,156.3,203.1,156.1z
	 M144.6,360.9c0.5-0.1,1-0.3,1.6-0.5c-0.1-0.3-0.3-0.5-0.4-0.8c-0.5,0.2-0.9,0.4-1.4,0.7C144.4,360.3,144.6,360.9,144.6,360.9z
	 M113.4,161.2c-0.3,1-0.6,2.1-0.8,3.1c1.9,0.5,1.3,1.6,0.5,2.7c-1.6,2.2-2.6,4.6-3,7.3c1.1-1.8,2.2-3.6,3.3-5.4
	c0.3,0.1,0.6,0.3,0.9,0.4c-1.3,3.1-2.6,6.2-3.9,9.4c1.3-1.8,2.5-3.6,3.8-5.4c0.2,0.1,0.5,0.3,0.7,0.4c-0.6,1.3-1.3,2.7-1.9,4
	c0.6-0.4,1.1-0.7,2.1-1.3c-0.2,2.6-1.3,3.9-3.4,5.5c0.3-1.5,0.4-2.4,0.6-3.3c-0.6,0.4-1.2,0.9-1.8,1.3c-0.1,2.8-3.1,2.1-5,4.1
	c2.7-0.4,4.6-0.6,6.5-1c4.4-0.8,5.6-2.4,5-6.9c-1.6-12.1-3.3-24.2-5-36.4c-0.1-0.6-0.4-1.1-0.7-2.2c-1.8,6.4-1.9,10.1-0.3,14.6
	c0.4-0.1,0.7-0.1,1.7-0.2c-3,2.9-2.6,6.1-2.5,9.2c0.5-0.1,0.8-0.2,1.1-0.2c-0.7,1.9-1.4,3.9-2.3,6.3c0.9-0.4,1.2-0.6,1.5-0.7
	l0.1-0.1C110.3,164.1,111.3,162.4,113.4,161.2z M111.1,160.6c0.2-0.9,0.5-1.8,0.7-2.8C112.7,159.2,112.5,160.2,111.1,160.6z
	 M108.1,172.5c0.2,0.1,0.4,0.2,0.7,0.3c1.2-2.8,2.4-5.5,3.6-8.3c-0.7,0.6-1.4,1.2-2.1,1.7l-0.1,0.1
	C109.5,168.4,108.8,170.4,108.1,172.5z M179.9,126.9L179.9,126.9C179.9,126.9,179.9,126.9,179.9,126.9
	C179.9,126.9,179.9,126.9,179.9,126.9z M163.5,259.4c-0.8,0.2-1.5,0.9-2.2,1.3c0.5,0.6,1,1.7,1.4,1.7c0.8-0.1,1.5-0.8,2.7-1.4
	C164.5,260.2,163.9,259.3,163.5,259.4z M124.7,253.1c0.4,0.6,1.8,1.3,2.3,1.1c1-0.4,2.2-1.5,2.4-2.4c0.3-2-1.7-2.3-3.1-3.2
	C124.5,250,123.6,251.4,124.7,253.1z M126.9,251.2c0.3,0,0.7,0.5,0.9,0.8c0.1,0.1-0.4,0.5-0.7,0.9c-0.4-0.4-0.7-0.6-1.1-0.9
	C126.3,251.7,126.6,251.2,126.9,251.2z M139.5,281.8c0.5-0.5,1.2-1,1.6-1.6c0.1-0.3-0.5-0.9-1-1.8c-0.7,0.9-1.3,1.5-1.5,2.2
	C138.5,280.9,139.1,281.4,139.5,281.8z M177.3,241c-0.1-1.9-1.3-3.3-2.8-3.1c-1.7,0.1-3.2,2.1-3,3.9c0.2,1.5,1.5,2.5,3.1,2.4
	C176.3,244.1,177.4,242.7,177.3,241z M174.6,243.1c-0.5-0.8-1.2-1.4-1.2-1.8c0.1-0.5,0.9-0.9,1.4-1.3c0.4,0.6,0.9,1.1,1,1.7
	C175.8,242,175.1,242.4,174.6,243.1z M147.3,225c0.2,0.6,0.9,1,1.7,1.9c0.7-1.2,1.4-2,1.7-2.9c0.1-0.3-0.7-1.3-1.2-1.3
	C148.3,222.5,147,224,147.3,225z M70.1,175.6c0.2-0.2,0.1-0.8,0.2-1.8c-1.1,0.6-1.8,1-2.5,1.4c-3.9,2.7-7.7,5.7-11.8,8.2
	c-6.4,3.8-12.9,7.6-20.3,9.4c-10.8,2.6-20.7,1.6-29.4-5.9c-1.8-1.5-3.9-2.7-6.1-4.2c-0.4,2.4-0.4,2.4,0.3,3
	c4.6,4.6,9.8,8.6,15.8,11.2c2.3,1,4.9,1.9,7.4,2.1c6.6,0.4,12.9-1,18.8-4.1c7.5-4,14.8-8.2,21.5-13.4
	C66.3,179.8,68.1,177.7,70.1,175.6z M195.4,350c-1.1,0.1-2.2,0.3-3.2,0.4c-0.5,0.7-0.9,1.4-1.4,2.1
	C192.6,352.2,194.4,351.8,195.4,350z M172.3,283.8c1.8,0.7,2.6-0.7,2.9-2.5c-1-0.3-1.8-0.6-2.9-0.9
	C171.5,281.8,170.7,283.2,172.3,283.8z M168.8,205.1c-0.8,0.8-1.2,1.9-0.3,2.9c0.9,0.9,2,0.4,3.8-1.9
	C171.3,204.6,170.3,203.5,168.8,205.1z M175.3,224c-0.1-0.3-0.9-0.7-1.2-0.6c-1.5,0.5-1.2,1.5-0.6,2.6
	C174.9,225.9,175.7,225.4,175.3,224z M158.5,242.3c0.9,0.7,2,0.4,2.5-0.6c0.8-1.7-0.7-2-2-2.6C157.8,240.2,157.3,241.3,158.5,242.3z
	 M184.3,355c0.1-0.1,0.2-0.2,0.3-0.2C184.5,354.8,184.4,354.8,184.3,355L184.3,355z M184.3,355C184.3,355,184.2,354.9,184.3,355
	c-0.1-0.1-0.2,0-0.2,0C184.2,354.9,184.2,355,184.3,355z M114,316.4L114,316.4c-0.1,0-0.2,0.1-0.2,0.2
	C113.8,316.6,113.9,316.5,114,316.4z M127.8,296.6c0.2-0.3,0.5-0.8,0.7-1.2c-3.1,0.1-6.3,1-9.6-1.3c0.9-0.3,1.5-0.6,2.2-0.8
	c-1.7-2-1.6-2.1-3.8-2.1c-2.5-0.1-5.1,0-7.6,0c-1.1,0-2.2-0.1-3.3-0.2c0-0.3,0-0.6,0-1c3.7-0.3,7.3-0.6,11-0.8
	c0.8,0,1.7,0.8,2.6,1.3c2.8,1.6,5.7,3.2,8.5,4.9c1.1,0.9,2.3,1.8,3.3,2.7c1,1,1.8,0.5,3.4-0.2c-18.6-12-38-21.1-56-31.3
	c-4,0.5-5.9,2.4-5.9,5.6c0,3.7,0.4,7.3,0.9,11c0.2,1.8,1.3,3.2,3.2,3.7c2.8,0.8,5.7,1.7,8.6,2.1c11.3,1.5,22.4,4.1,33.4,7.1
	c1.2,0.3,2.4,0.9,4.3,1.6c-1.1,0.1-1.5,0.1-1.9,0.1c-9.5-1.3-18.9-2.9-28.4-4c-4-0.5-8.2-1.1-12.2-0.1c-0.9,4.3-1,4.4,1,7.3
	c1.7,2.4,3.7,4.6,5.8,7.3c14.2-2.2,28.8-4.5,43.8-6.8C130.4,299.6,129.1,298.1,127.8,296.6z M97.5,279.6l-16,2.5
	c-0.1-0.4-0.1-0.7-0.2-1.1c5.3-0.7,10.6-1.5,15.9-2.2C97.3,279,97.4,279.3,97.5,279.6z M78.5,281.6c-0.5,0.3-0.8,0.5-0.9,0.4
	c-1.8-0.8-1.8-0.8-1.8-3.8c4.6-0.6,8.9-1.1,13.3-1.6c0,0.2,0.1,0.4,0.1,0.5c-2,0.4-4,0.9-6,1.3c-2,0.3-4.1,0.5-6.2,0.8
	C77.5,280.1,78,280.8,78.5,281.6z M90,274.8c-2.5,0.6-5,1.1-7.6,1.7c-1.1,0.2-2.1,0.5-3.2,0.4c-0.5,0-1-0.6-1.5-1
	c4-0.5,8.1-1,12.1-1.5C89.9,274.6,89.9,274.7,90,274.8z M80,270c0,0.1,0,0.3,0,0.4c-0.7,0.1-1.3,0.1-2,0.2c0-0.1,0-0.3,0-0.4
	C78.7,270.1,79.4,270.1,80,270z M82.7,271.2c0,0.2,0.1,0.5,0.1,0.7c-2.3,0.5-4.6,1.1-6.9,1.6c-0.1-0.4-0.1-0.8-0.2-1.2
	C78.1,271.9,80.4,271.6,82.7,271.2z M80.8,273.8c1.9-0.4,3.7-0.8,5.7-0.7c-2.9,0.9-5.9,1.9-8.8,2.8c0,0,0,0-0.1,0
	c-0.7-0.1-1.3-0.2-2-0.3c0-0.2-0.1-0.5-0.1-0.7C77.3,274.5,79.1,274.1,80.8,273.8z M104.8,290.5c-9.5-2.2-19.4-1.7-29.1-6.3
	c4.7-2.5,9.3-1.5,13.5-2.3c4.1-0.8,8.3-0.9,12.6-0.9c-7,2-14.2,2.4-21.4,3.5c8.3-0.2,16.6-0.9,24.9-2.2c0,0.3,0.1,0.7,0.1,1
	c-4.9,0.6-9.8,1.2-14.7,1.7c0,0.2,0,0.4,0,0.6c5.8-0.4,11.5-0.7,17.3-1.1c0,0.2,0.1,0.4,0.1,0.6c-2.8,0.4-5.5,0.8-8.3,1.1
	c-2.8,0.4-5.8-0.4-8.5,1.4c2.6-0.1,5.3-0.2,8-0.4c1.1,3.7,4,0.9,6.2,1.5C105.2,289.3,105,289.8,104.8,290.5z M106,286.4
	c1.6-0.1,3.1-0.2,4.7-0.3c0,0.2-0.1,0.4-0.1,0.7H106C106,286.7,106,286.5,106,286.4z M113.2,292.2h4.6
	C114.3,293.2,114.3,293.2,113.2,292.2z M98,295.9c0.1,0.3,0.2,0.7,0.3,1c-2.1,0.5-4.3,1.1-6.4,1.6C93.8,297.2,95.8,296.1,98,295.9z
	 M91.1,296.9c-2.4,1.1-4.7,2.2-7.8,2.7C85.2,297.1,86.2,296.8,91.1,296.9z M87.8,304.7c-0.9-1-2-2.2-3.3-3.6
	c2.2-1.7,4.6-2.3,7.1-2.4c-1.5,0.9-3.1,1.7-4.6,2.6c0,0.1,0.1,0.3,0.1,0.4c1.5-0.4,3-0.7,4.4-1.1c0.1,0.1,0.1,0.2,0.2,0.3l-3.3,1.9
	c0.1,0.2,0.2,0.5,0.3,0.7c4.2-1.8,8.5-3.5,12.7-5.3c2.5-1.1,2.4-1.2,5.5-0.5C100.9,301.1,94.6,303,87.8,304.7z M88.8,305.4
	c2.2-0.5,4.5-1.1,7-1.7C94.3,306,93.8,306.1,88.8,305.4z M116.7,298.4c0.1,0.3,0.3,0.6,0.4,1c-5.4,1.7-10.3,4.7-16.3,4.5
	C106.1,302.1,111.4,300.3,116.7,298.4z M115,302.4c-0.1-0.2-0.1-0.5-0.2-0.7c2.6-0.8,5.1-1.7,7.7-2.5c0.1,0.4,0.2,0.8,0.4,1.2
	C120.3,301.1,117.7,301.7,115,302.4z M114,316.4c0.1-0.1,0.1-0.2,0.2-0.3C114.1,316.2,114,316.3,114,316.4L114,316.4z M133.5,363.5
	c-1.3-0.3-2.1-2.2-3.6-0.8c0.7,0.7,1.4,1.4,2.1,2c0,0-0.1-0.1-0.1-0.1C132.4,364.3,132.9,363.9,133.5,363.5z M112.4,319.2
	c0.4-0.8,0.9-1.7,1.3-2.5c-0.7,0.7-1.4,1.3-2.1,2C111.9,318.8,112.2,319,112.4,319.2z M190.8,352.6
	C190.8,352.6,190.8,352.6,190.8,352.6C190.8,352.5,190.7,352.6,190.8,352.6L190.8,352.6z M189.7,351.1c-1.7,1.2-3.4,2.4-5.1,3.6
	c2-0.7,4-1.4,6-2.1C190,352.3,188.3,352.8,189.7,351.1z M181.6,356.4c0.8-0.5,1.7-1,2.5-1.5C183,354.8,182,354.9,181.6,356.4z
	 M190.6,352.6c0,0,0.1,0,0.1,0.1L190.6,352.6C190.7,352.6,190.7,352.6,190.6,352.6z M254.5,338.8c-8.7,0.3-17.4,0.6-26.8,1
	c4-8.3,7.5-16.1,8-24.8c0.5-8.5-1-22.3-2.9-25.5c-10.9,2.8-21.5,7.3-32.8,8.6c-0.5-3.3-1.2-4.2-3.2-4c-0.7,0.1-1.7,0.5-1.8,0.9
	c-0.4,1.3-0.4,2.7-0.7,4.3c-2.9,0.3-5.9,0.8-8.9,1c-5.8,0.4-11.5,0.4-17.3,0.8c-6.8,0.5-13.5-0.3-20.1-1.4c-1.3-0.2-2.8-0.2-3.9-0.8
	c-5.4-2.8-10.9-5.6-16.1-8.8c-12-7.2-24.1-14.3-35.9-21.9c-7.4-4.7-14.7-9.3-22.9-12.5c-2.2-0.9-4.4-1.9-7.2-3.1
	c-2.6,9.4-1.3,18.3-0.7,27.1c0.5,9,2.4,17.8,5.6,26.2c3.3,8.4,8.2,15.9,13.5,23.2c5.2,7.2,11.8,13.3,18.5,19.3
	c-4.4,0.7-8.7,0.9-12.9,1.3c-4.3,0.4-8.6,0.9-12.8,1.2c-4.1,0.2-8.2,0.3-12.1,1.8c0.8,0.2,1.5,0.2,2.2,0.2
	c12.2-0.9,24.5-1.8,36.8-2.6c1.1-0.1,2.5,0.2,3.3,0.9c9.1,6.5,18.3,12.8,29.4,15.7c5.1,1.4,10.1,3,15.2,4.2c3.3,0.8,6.5,0.2,9.2-2.3
	c2.2-2.1,4.7-3.9,7-5.9c0.1-0.1,0.1-0.4,0.1-0.6c-0.9-0.3-1.8-0.5-3-0.9c0.6,3.4-2.2,4-3.9,5.4c-1.7,1.5-3.1,3.9-6.3,3.2
	c1.7-2.7,6-2.6,5.8-7.2c-2.9,2.5-5.5,4.8-8.2,7.2c-1.8-0.5-3.6-1-6-1.6c1.7-1.1,2.9-1.9,4.2-2.7c-0.7-1-1.3-1.8-2-2.8
	c-0.8,0.4-1.5,0.8-2.4,1.2c0.6,0.8,1,1.3,1.7,2.3c-1.7,0.5-3.3,1.5-4.5,1.2c-2.7-0.7-5.2-2-7.8-3.1l0.1,0.1
	c-4.7-1.4-9.8-2.1-13.1-6.5c-0.2-0.2-0.6-0.2-1-0.2c-0.8-0.2-1.8-0.1-2.4-0.6c-6.8-4.9-13.7-9.5-20.2-14.8
	c-7.8-6.3-14-14.1-19.3-22.6c-3.4-5.4-6.5-11-8.6-17c-3.9-11-5-22.5-5.3-34.1c-0.1-3.6,0-7.3,0-11.6c0.7,0.9,0.9,1.1,0.9,1.3
	c0.1,0.7,0.1,1.5,0.2,2.2c0.7,10.3,1.2,20.6,3.6,30.7c1.9,7.9,5.1,15.1,9.4,21.9c5.3,8.3,12,15.3,20.2,21.1
	c8.8,6.2,18.3,10.3,28.6,12.9c6.7,1.7,13.7,1.4,20.5,1.4c6.4,0,12.8-0.6,18.9-2.7c11.9-4.1,22.6-10.6,33-17.7
	c3.9-2.6,7.6-5.5,11.3-8.2c-0.3,1.5-1.1,2.6-1.6,3.8c-0.6,1.6-2.6,1.8-3.1,3.5c-0.4,1.6-1.2,3.3-2.4,4.3c-1.4,1.3-1.7,3.4-3.1,4.4
	c-1.5,1.1-1.1,2.2-0.9,3.5c-1.1,1.3-3.5,1.5-3.2,3.9c1.5-0.9,3-1.9,4.5-2.7c0.2-0.1,0.8,0.4,1.2,0.7c0,0,0,0,0,0
	c-1.5,2.1-3.7,3.3-5.9,4.4c0.5,0.1,1.1,0.1,2.4,0.2c-1.7,1.1-2.9,1.8-4,2.6c-0.9,0.7-1.8,1.5-2.7,2.3c0.7-0.3,1.4-0.5,2.2-0.8
	l-0.1,0.1c0,0,0.1,0,0.1,0c0,0,0,0,0-0.1c1.1-0.6,2.1-1.3,3.2-1.8c0.2-0.1,0.8,0.7,1.2,1.1c0.7,0.1,1.4,0.1,2,0.2
	c-0.2,1.8-2.9,2.1-2.1,4.2c1-0.8,2-1.6,3.2-2.6c0.1,0.9,0.1,1.4,0.1,2c0,0,0,0,0,0c-0.7,0.5-1.4,1-2.1,1.4c-0.7,0.4-1.3,1.3-2,0
	c-2.4,1.2-4.8,2.4-7.2,3.6c0.5-0.7,0.9-1.5,1.6-1.9c1.6-1.2,3.4-2.2,5.8-3.8c-2,0.4-3.1,0.5-4,0.9c-2.9,1.5-5.9,2.9-8.6,4.7
	c-2.5,1.6-6,1.1-7.8,4.5c-0.7,1.2-3.1,1.5-5,2.3c1.1-3.4,4.9-4.2,5.9-7.3c-2.5,0.9-3.8,4-7,3.2c-0.1,0-0.2,0.1-0.3,0.2
	c-3.1,2.7-6.5,5-8.9,8.4c1.4-0.5,2.9-1,4.6-1.6c0.1,0.5,0.1,0.9,0.3,1.6c1.9-0.8,3.7-1.5,5.5-2.3c0,0,0,0,0,0.1
	c1.8-0.2,3.6-0.5,5.4-0.7c0.1,0.2,0.2,0.5,0.3,0.7c-1.4,0.8-2.9,1.7-4.3,2.5c0.5-0.1,1.1-0.3,1.6-0.4c0.1,0.2,0.1,0.5,0.2,0.7
	c-0.8,0.2-1.6,0.3-2.4,0.4c0,0-0.1-0.2-0.1-0.2c0-0.1,0.1-0.2,0.2-0.3c-3.5,1.1-7.1,1.8-10.8,1.6c-1-0.1-1.6-0.4-1.7-1.4
	c-1.2,0.5-2.2,1.2-3,2.4c7.5,1.2,14.5-0.1,21.5-1.3c8.7-1.6,17.1-4.5,25-8.4c4.2-2.1,8.6-4,12-7c4.2-3.7,7.5-8.4,11-12.8
	c0.9-1.2,1.7-1.9,3.2-1.9c3.7,0,7.4-0.2,11-0.5c4.9-0.3,9.9-0.7,14.8-1.1C254.5,339.4,254.5,339.1,254.5,338.8z M233.1,314.3
	c0.2,0,0.4,0.1,0.7,0.1c-0.3,1.3-0.7,2.7-1,4c-0.2,0-0.4-0.1-0.6-0.1C232.5,317,232.8,315.6,233.1,314.3z M228.9,299
	c-0.1-0.1-0.3-0.2-0.4-0.3c0.4-0.8,0.9-1.5,1.3-2.3c0.2,0.1,0.3,0.2,0.5,0.3C229.8,297.5,229.4,298.3,228.9,299z M199.2,296.6
	c-1.5,0.3-2.3,0.5-3.6,0.8C196.4,295.2,197.3,295.4,199.2,296.6z M218.9,311.9h-2c1.5-1.3,2.5-2.1,3.5-3c0.1,0.2,0.3,0.3,0.4,0.5
	C220.1,310.2,219.5,311,218.9,311.9z M221,318.7c-1,0.5-2.1,1-3.4,1.7c0.3-2.4,1.8-2.2,3.1-2.4C220.8,318.2,220.9,318.5,221,318.7z
	 M218.8,312C218.8,312,218.8,312,218.8,312c0.2,0.3,0.6,0.8,0.5,0.8c-1.3,1.3-2.5,2.8-4,3.8c-1.1,0.7-2.5,0.7-2.7,2.4
	c0,0.2-1.2,0.3-2.5,0.6C212.5,315.8,216.1,314.4,218.8,312z M212.7,329.3c-0.2-0.2-0.4-0.4-0.7-0.6c0.4-0.4,0.8-0.9,1.2-1.3
	c0.2,0.2,0.4,0.3,0.5,0.5C213.5,328.4,213.1,328.9,212.7,329.3z M212.9,333.6c-0.9,0.8-1.7,1.5-2.6,2.3c-0.3-0.3-0.5-0.6-0.8-0.9
	c0.9-0.7,1.9-1.4,2.8-2.1C212.5,333.1,212.7,333.4,212.9,333.6z M210.4,324.8c0.7-1,1-1.5,1.3-1.9c0.7,0.1,1.4,0.2,2.7,0.4
	C213,323.8,212.1,324.1,210.4,324.8z M216.4,329.1c0.2,0.3,0.3,0.6,0.5,0.8c-0.9,0.4-1.8,0.8-2.6,1.2c-0.1-0.2-0.2-0.4-0.3-0.6
	C214.8,330.1,215.6,329.6,216.4,329.1z M214.3,320.5c-1,1-1.8,1.6-2.5,2.3c-0.4,0.1-0.9,0.2-1.8,0.4
	C210.9,321.2,212,320.4,214.3,320.5z M213.1,325.4c-1.9,1-3,1.6-4.3,2.3C209.6,325.6,209.6,325.6,213.1,325.4z M210,331.1
	c0.2,0.3,0.3,0.5,0.5,0.8c-1,0.6-1.9,1.3-2.9,1.9c-0.2-0.3-0.3-0.5-0.5-0.8C208.1,332.3,209,331.7,210,331.1z M200.4,341.6
	c0.9-0.7,1.8-1.4,2.7-2.1c0.2,0.2,0.3,0.3,0.5,0.5c-0.9,1.1-1.8,2.1-3.2,3.8C200.4,342.4,200.4,342,200.4,341.6z M206,343.9
	c-0.6,1.7-0.6,1.7-2.5,1.8C204.3,345.1,205.2,344.5,206,343.9z M204.5,341.5c-0.2-0.2-0.4-0.4-0.6-0.7c1.6-1.2,3.2-2.5,4.9-3.7
	C208.5,340,206.8,341.1,204.5,341.5z M203.9,337.2c0.7-0.7,1.3-1.4,2.4-2.6c0.5,2.5-0.6,2.8-1.6,3.3
	C204.4,337.6,204.2,337.4,203.9,337.2z M207.9,328.9c0.2,0.3,0.5,0.6,0.7,0.9c-0.8,0.6-1.6,1.1-2.5,1.7c-0.2-0.2-0.3-0.4-0.5-0.6
	C206.4,330.2,207.1,329.6,207.9,328.9z M204.9,332.6c0.3,0.3,0.5,0.6,0.8,0.9c-1,0.8-2,1.6-3,2.4c-0.2-0.3-0.4-0.5-0.7-0.8
	C203,334.3,203.9,333.4,204.9,332.6z M197.9,339.7c1.5-1.1,2.6-2.8,4.9-2.8C201.3,339.9,200.7,340.2,197.9,339.7z M197.2,348.8
	c1.4-2.7,3.8-3.3,6-4c0.1,0.3,0.1,0.6,0.2,1C201.7,347.4,199.9,348.6,197.2,348.8z M165.7,366.1c1.2-1.1,2.5-2.1,3.7-3.2l0.6,0.7
	c-1.2,1.1-2.4,2.1-3.7,3.2C166.1,366.6,165.9,366.4,165.7,366.1z M170.7,367.3c-0.7,0-1.3,0.1-2,0.1c-0.1-0.2-0.1-0.3-0.2-0.5
	c0.7-0.3,1.4-0.7,2.5-1.2C170.9,366.6,170.8,367,170.7,367.3z M172.5,365.4c4.5-2.3,9-4.6,13.6-6.8c0.7-0.3,1.6-0.1,2.4-0.1
	C183.5,361.7,178.1,363.7,172.5,365.4z M185.8,368.2c-0.1-0.3-0.2-0.7-0.3-1c1.6-0.4,3.2-0.7,4.9-1.1
	C188.8,366.8,187.3,367.5,185.8,368.2z M191.3,365.7c1.5-0.7,2.9-1.5,4.4-2.2c0.1,0.3,0.2,0.6,0.3,0.9
	C194.5,364.8,192.9,365.3,191.3,365.7z M204,359.9c1.3-0.9,2.6-1.8,3.9-2.8C207.7,359.5,205.9,359.8,204,359.9z M208.1,348.2
	c0.1,0.2,0.2,0.4,0.3,0.5c-1.3,1.1-2.6,2.2-3.9,3.4c-0.1,1.2-0.4,2.2-1.7,2.7c-0.9,0.4-1.7,1-2.6,1.6c0.5,0.2,1.1,0.4,1.6,0.6
	c1.5-1,3-1.9,5.2-3.3c-3.1,5.3-3.1,5.3-6.7,6.3v-1.4c-1,1.1-1.8,2.3-3,3.1c-0.9,0.7-2.2,0.9-3.3,1.1c-0.1,0-0.4-1-0.6-1.5
	c-4.6,3-9.8,4.3-15.9,6c1-1.1,1.3-1.9,1.9-2.1c3.5-1.4,7.1-2.6,10.6-3.9c1.1-0.4,2.1-1.2,3.4-1.9c0.1,0.6,0.3,1,0.4,1.5
	c1.7-2.3,4.4-3.2,6.7-4.6c-0.6-0.1-1.2-0.1-2-0.2c2.2-1.5,4.2-2.8,6.2-4c-1.5,0.4-2.9,0.9-4.4,1.3c1.4-1.2,2.7-2.5,4.1-3.7
	c0.6-0.5,1.3-1,2-1.5c-0.4-0.1-0.9-0.2-2.2-0.4c2.4-1.2,4.1-2.1,5.9-3.1c0.1,0.1,0.2,0.3,0.3,0.4c-1.4,1.1-2.8,2.1-4.1,3.2
	C206.7,348.3,207.4,348.2,208.1,348.2z M208.9,343.9c-0.2-0.2-0.4-0.4-0.6-0.7c0.7-0.6,1.3-1.2,2-1.7c0.2,0.2,0.4,0.4,0.6,0.6
	C210.2,342.7,209.5,343.3,208.9,343.9z M211.3,356.2c0.2-1.6,1.3-1.7,2.6-1.7C213,355.1,212.1,355.7,211.3,356.2z M211.9,353.2
	c-0.2-0.2-0.4-0.3-0.6-0.5c1.1-1.3,2.1-2.6,3.2-3.9c0.2,0.2,0.4,0.3,0.6,0.5C214.5,350.9,213.2,352,211.9,353.2z M214,336.5
	c1.1-0.9,2.2-1.7,3.8-3C216.8,336,216.8,336,214,336.5z M215.4,325.1c0-0.3,0-0.5,0-0.8c1-0.4,2.1-0.7,3.7-1.3
	C218,325.2,216.7,325.1,215.4,325.1z M219.4,326.7c-0.1-0.2-0.2-0.4-0.3-0.7c0.7-0.3,1.4-0.6,2.1-0.9c0.1,0.2,0.2,0.4,0.3,0.7
	C220.7,326.2,220.1,326.5,219.4,326.7z M210.4,315.3c-5.1,4.5-9.9,9.2-15.5,13c-10.7,7-21.3,14.2-34,17.1
	c-5.8,1.3-11.9,1.6-17.9,1.9c-4.4,0.2-8.9,0.1-13.2-0.6c-8.6-1.5-17-3.7-24.6-8.4c-4.1-2.5-8.1-5.1-12-7.9
	c-7.2-5.2-12.4-12.2-17-19.6c-6.9-11.2-9.4-23.6-10.4-36.4c-0.5-5.6-0.9-11.2-1.4-16.8c0-0.5,0.1-0.9,0.2-1.9c1.6,0.8,3,1.5,4.4,2
	c9.8,3.3,18,9.5,26.7,14.8c13.5,8.3,27.1,16.4,40.6,24.7c6.2,3.8,13,4.9,20,5.4c4.6,0.3,9.3,0.2,13.9,0.2c13.3,0,26.4-1.8,39.3-4.9
	c6.7-1.6,13.3-3.9,20.3-5.9c-1.5,4.1-3.9,7.5-6.6,10.6C219.2,307,215,311.3,210.4,315.3z M224.4,322.9c-0.2-0.2-0.4-0.5-0.6-0.7
	c0.6-0.5,1.3-0.9,1.9-1.4c0.2,0.2,0.3,0.4,0.5,0.5C225.6,321.9,225,322.4,224.4,322.9z M226.4,331.1c0.3-0.7,0.5-1.4,0.8-2
	c0.2,0.1,0.4,0.1,0.6,0.2c-0.2,0.7-0.4,1.4-0.6,2.1C226.9,331.3,226.7,331.2,226.4,331.1z M228.4,332.2c0.1,0.1,0.3,0.1,0.4,0.2
	c-0.2,0.7-0.4,1.4-0.7,2.2c-0.2-0.1-0.5-0.2-0.7-0.2C227.7,333.6,228.1,332.9,228.4,332.2z M166,327c-2.5,1-3.1,1.6-4.2,4.8
	C163.1,330.3,164.4,328.8,166,327z M165.9,331.1c-0.1,0.1-0.1,0.1-0.2,0.2c0,0,0,0,0,0c0,0,0.1,0.1,0.1,0.1c0,0,0,0,0,0
	C165.9,331.3,165.9,331.2,165.9,331.1z M165.9,331.1c1-1,2-2.1,3-3.1C166.6,329.4,166.5,329.4,165.9,331.1z M194,201
	c0.5,0.4,1.2,1.1,1.6,1c0.6-0.2,1.1-0.9,2-1.7c-0.9-0.4-1.6-1-1.8-0.9C195,199.8,194.6,200.4,194,201z M153.3,333.7
	C153.3,333.7,153.3,333.6,153.3,333.7C153.3,333.7,153.3,333.7,153.3,333.7C153.3,333.7,153.3,333.7,153.3,333.7L153.3,333.7
	c0.1,0,0.1-0.1,0-0.2C153.3,333.6,153.3,333.6,153.3,333.7L153.3,333.7z M171.3,109.4c-7,2.7-13.9,5.5-21,8
	c-6.8,2.5-13.7,4.8-20.5,7c-1.9,0.6-3.1,1.7-3.5,3.9c0.6,0.1,1.2,0.3,1.7,0.3c5.1-0.4,10.3-0.7,15.4-1.4c7.4-0.9,14.8-2,22.2-3.3
	c4.7-0.8,5.5-2.6,3.9-7.5c-2.6,1.7-3.9,5.2-7.9,6.2c1-1.7,1.7-2.8,2.6-4.1c-3.1,0.4-3.1,4.4-6.4,4.3c0.7-1.1,1.3-1.9,2.2-3.1
	c-3.3,0.2-3.8,4.2-7.4,4.3c1.5-1.4,2.5-2.3,3.5-3.2c-0.1-0.2-0.2-0.4-0.4-0.6c-1.1,0.4-2.1,0.8-3.2,1.2c-0.3-0.5-0.6-0.9-0.8-1.4
	c-3.2,0.7-3.7,5.1-7.2,5c-0.3-0.3-0.5-0.6-0.8-0.8c1-0.5,2.1-1,3.7-1.8c-1.6-0.4-2.2-0.5-3.5-0.8c10.1-4,19.6-7.6,29.7-11.6
	c-0.4,3.3-0.6,5.9-1,8.6c-0.9,6.3-2.7,12.4-5.3,18.3c0.1-2.6,0.3-5.1,0.4-7.7c0.1-2.2-0.6-3-2.7-3.1c-1.2-0.1-2.4,0.1-3.7,0.2
	c-2.7,0.4-5.3,0.9-8,1.2c-7.3,0.8-14.7,1.5-22,2.2c-0.3,0-0.7,0.2-1.2,0.4c-0.4,0.9-0.8,1.9-1.3,3.1c1.8,0.7,3.4,1.5,5,1.9
	c8.1,1.9,15.8,4.6,22.8,9.1c1.8,1.2,3.9,1.9,5.4,1.5c1.8-3,3.3-5.4,4.7-7.8c-0.4,1.3-0.7,2.6-1.2,3.9c-7.2,17.1-19.2,29.8-35.5,38.5
	c-5.9,3.2-12.1,6.1-19,6.7c-2.7,0.2-5.3,1.2-7.9,1.8c2.9,0.8,10.7-0.2,14.5-1.6c9.1-3.4,17.9-7.4,25.5-13.6
	c7.5-6.2,14.3-13.1,19.1-21.7c3.8-6.8,6.7-13.9,9.1-21.3c1.5-4.7,2.2-9.5,3-14.4c0.4-2.3,0.1-4.8,0.1-7.6
	C173.1,108.9,172.1,109.1,171.3,109.4z M132,126.4c-0.1-0.2-0.2-0.3-0.3-0.5c0.5-0.3,1.1-0.6,1.6-0.9c0.1,0.2,0.3,0.4,0.4,0.7
	C133.2,126,132.6,126.2,132,126.4z M152.3,121.6c-0.9,1.4-1.5,3.1-4.2,3.5C149.5,123.2,150.5,121.9,152.3,121.6z M161.5,132.6
	c0.1,0,0.2,0,0.4,0c-0.1,1.2-0.2,2.4-0.4,3.7V132.6z M140.4,130.9c0.2,1.2,0.4,2.5,0.6,4.3C138.5,133.7,139.6,132.3,140.4,130.9z
	 M144.2,135.8c-0.2,0-0.3,0-0.5,0v-5c0.2,0,0.3,0,0.5,0V135.8z M146.1,132.8c-0.2-1.4-0.7-2.4,1.2-3.3
	C146.8,130.8,146.5,131.6,146.1,132.8z M156.6,138c-0.2,0-0.5,0-0.7,0c0.1-2.2,0.3-4.3,0.4-6.5C157.2,133.6,156.8,135.8,156.6,138z
	 M156.3,131.3C156.3,131.3,156.3,131.3,156.3,131.3c-0.3-0.1-0.7-0.2-1-0.3c-0.2,1.9-0.5,3.8-0.7,5.8c-0.1,1.1,0,2.1-0.6,3.2v-8.2
	c-0.2-0.1-0.5-0.1-0.7-0.2c-0.5,0.7-0.9,1.4-1.3,2c-0.2-0.5-0.5-1.1-0.8-1.7c-0.2,0-0.5,0.1-0.7,0.1c-0.1,1.9-0.2,3.7-0.4,5.6
	c-0.2,0-0.4,0-0.7,0c0-1.3,0.1-2.5,0-3.8c-0.1-1.3-0.5-2.5-0.8-4c2.9-0.2,5.8-0.4,8.6-0.5C157.5,130.4,157.6,131.2,156.3,131.3z
	 M158.1,135.3c0.1-2.1-0.3-4.5,1.7-6.2c0.1,4.4,0.1,8.8-1.2,13.2C156.6,140,158,137.5,158.1,135.3z M159.7,142.3
	c0.7-1.8,0-3.7,1.7-4.9c0,1.3,0,2.5,0,3.8C160.9,141.5,160.5,141.8,159.7,142.3z M163.5,139.7c-0.1,0.6-0.1,2.7-2,1.4
	c0,0-0.1,0-0.1,0.1c0.9-3.9,1.7-7.7,2.6-11.8c-1,0.1-1.5,0.1-2.1,0.1c0.3-0.4,0.5-1,0.9-1.1c0.5-0.2,1.2,0,2.3,0.1
	C164.6,132.3,164.2,136,163.5,139.7z M174.6,136.7c-0.1,0.1,0.1,0.3,0.2,0.5c2.2-2.4,5.1-4.2,6.4-7.4
	C178.5,131.7,176.1,133.7,174.6,136.7z M191.4,303.8c-4.2,0-8.4,0.1-12.5,0c-10.6-0.2-21.1,0.7-31.6-1.2c-0.6-0.1-1.3,0.1-2.8,0.3
	c1.2,0.9,1.7,1.3,2.3,1.6c1.7,0.8,3.5,1.3,5,2.2c8.5,4.9,17.3,9.2,26.3,13.1c4.4,2,8.2,1.5,11.5-1.5c3.2-3,6.1-6.4,9-9.7
	c0.4-0.5,0.6-1.2,0.9-2.2c-0.9-0.1-1.4-0.2-2-0.3C195.9,304.2,193.7,303.8,191.4,303.8z M195.7,305.6
	C195.7,305.6,195.7,305.6,195.7,305.6c-1.2,0.4-2.4,1.9-3.8-0.3C193.3,305.4,194.5,305.5,195.7,305.6z M188.3,305.5
	c0.2,0.2,0.5,0.4,0.7,0.5c-0.9,1.2-1.9,2.3-2.8,3.5c-0.1-0.1-0.3-0.2-0.4-0.3C186.6,308,187.5,306.7,188.3,305.5z M154.5,306.2
	c-0.9-0.4-1.9-0.7-2.8-1.1c0.1-0.2,0.1-0.4,0.2-0.6c1,0.2,2.1,0.4,3.1,0.6C154.8,305.4,154.6,305.8,154.5,306.2z M157,307.3
	c-0.3-0.2-0.6-0.3-0.9-0.5c0.4-0.5,0.8-1.1,1.2-1.6c0.2,0.1,0.5,0.3,0.7,0.4C157.7,306.2,157.3,306.7,157,307.3z M164.7,311.6
	c-0.3-0.2-0.5-0.3-0.8-0.5c0.5-0.6,1.1-1.2,1.6-1.9C165.2,310,164.9,310.8,164.7,311.6z M174.5,311.6c0.8-1.2,1.6-2.4,2.2-3.7
	c-3,1.3-4,4.5-6.3,7.2c-1.1-3,1.7-3.7,2.3-5.6c-0.4-0.3-1-0.7-1.8-1.2c-1.4,1.6-2.7,3.1-4.1,4.7c-0.2-0.2-0.5-0.3-0.7-0.5
	c0.7-1.4,1.5-2.9,2.4-4.8c-1.2,0.5-2,0.9-2.9,1.3c-0.1-0.3-0.1-0.7-0.2-1.4c-1.2,1.1-2.3,2.1-3.4,3.2c-1.5-1.9,1.2-2.9-0.2-5.1
	c-0.6,1.3-1.3,2.5-1.9,3.8c-0.8-3.5-0.4-4.1,1.9-4.1c7-0.1,13.9,0,21.6,0c-1,1.4-1.6,2.3-2.7,3.8c0.2-1.4,0.3-1.9,0.5-3
	c-3.3,3-5.5,6.3-7.7,9.8C173,313.7,173,313.7,174.5,311.6z M176.9,317.5c-0.7-0.4-1.4-0.7-2.5-1.2c1.4-2,2.6-3.7,3.9-5.5
	c0.2,0.1,0.4,0.2,0.5,0.3c-0.8,1.5-1.6,3-2.4,4.5c3.8-2.6,5.5-7.2,9.3-9.9C183.3,309.9,180.8,314.1,176.9,317.5z M178.2,318.2
	c0.8-1,1.5-1.9,2.2-2.8c0.1,0.1,0.3,0.2,0.4,0.3c-0.3,0.6-0.6,1.1-0.9,1.7c0.8,0.3,1.6,0.7,2.4,1c2-2.1,4-4.3,6-6.5
	c0.2,0.2,0.4,0.4,0.6,0.5c-1.1,1.3-2.2,2.6-3.3,3.9c-0.7,0.8-0.6,1.5,0.5,1.7C183.8,320.8,181.2,319.4,178.2,318.2z M197.2,306.7
	c-3.4,3.7-6.8,7.4-10.3,11.1c-0.1,0.1-0.3,0.1-0.6,0c0.6-1,1.1-2,1.8-2.9c2.5-3.2,5-6.3,7.5-9.4c0.6,0.2,1.2,0.4,1.8,0.6
	C197.4,306.4,197.4,306.6,197.2,306.7z M123.8,133.4c-0.3,1-0.5,1.8-0.8,3c-0.9-0.8-1.6-1.4-2.2-2c-0.2,0.2-0.4,0.3-0.5,0.5
	c0.1,0.3,0.2,0.7,0.3,1c2.6,4.2,5.5,8,8.7,11.8c4.6,5.3,8.6,11,12.9,16.6c1.5,1.9,3,2.4,4.6,0.8c3.3-3.3,6.4-6.9,8.4-11.1
	c1.1-2.4,0.4-4.4-1.8-5.6c-4.7-2.4-9.4-4.7-14.1-7.1c-4.8-2.5-9.6-5-14.3-7.5C124.4,133.6,124.1,133.5,123.8,133.4z M147.7,162.5
	c-0.3-0.1-0.5-0.1-0.8-0.2c1.2-4.1,2.3-8.2,3.5-12.3C151,154.6,150.1,158.7,147.7,162.5z M149.3,148.7c-1.1,4.4-2.2,8.6-3.3,12.8
	c-0.3-0.1-0.5-0.1-0.8-0.2c0.7-3.8,1.3-7.5,2-11.3c-2.9,3.1-1.5,7.5-4.2,10.7c0.7-4.1,1.4-8.2,2.1-12.2c-2.9,2.9-1.5,7-3.7,10.1
	c0.4-3.4,0.7-6.7,1.1-10.1c-0.3,0-0.7-0.1-1-0.1c-0.4,2.7-0.9,5.3-1.3,8c-0.1,0-0.2,0-0.3,0v-9.7c-2.2,2.8-0.8,5.8-2.2,8.4v-9.8
	c-2.5,2.4-0.7,5.2-2.2,7.4v-8.7c-1.4-0.2-1.8-0.6-2.6-2.3c-0.3,0.3-0.7,0.6-1.3,1.1c-0.2-0.9-0.4-1.7-0.7-2.9
	C137.6,142.2,143.2,145.6,149.3,148.7z M125.3,136.2c1,0.5,2.1,1,2.8,1.4c-0.2,1.8-0.4,3.3-0.7,5.6c-0.4-1.8-0.5-3-0.8-4
	c-0.4-0.9-1-1.7-1.6-2.5C125.1,136.5,125.2,136.4,125.3,136.2z M116,135.1c-1.1,1.2-1.9,2.1-2.9,3.2c2,13.8,3.2,27.9,6.2,42.5
	c6.1-1.7,10.9-4.3,14.1-9.4c0.3,0.8,0.6,1.3,0.8,1.7c3.5-3.2,3.5-6.6,0.8-10.4c-5.3-7.7-10.4-15.5-15.6-23.2
	C118.3,137.9,117,136.4,116,135.1z M116.7,151.1c0.4-1.3,0.7-2.6,1.1-3.9c0.2,0.2,0.5,0.3,0.7,0.5c-0.4,1.2-0.8,2.4-1.2,3.6
	C117.1,151.2,116.9,151.2,116.7,151.1z M122.1,170.5c-0.1,1.1-0.3,2.2-0.4,3.3c-0.3,0.3-0.7,0.5-1.4,1.1
	C120.5,173,120.9,171.6,122.1,170.5z M120.5,169.4c0.3-0.7,0.7-1.3,1-2c0.2,0.1,0.3,0.1,0.5,0.2c-0.3,0.7-0.5,1.4-0.8,2.1
	C120.9,169.6,120.7,169.5,120.5,169.4z M122.8,147.2c3.9,6.1,7.8,12.1,11.7,18.2c0.3,0.5,0.6,1.2,0.6,1.7c-0.1,0.6-0.4,1.4-0.9,1.7
	c-0.4,0.2-1.1-0.4-2.1-0.8c-1.6,2.2-0.9,6.6-5.4,6.9c0.2-2.4,2.5-3.8,3.3-6.5c-1,0.6-1.6,1-2.6,1.6c0.5-1.2,0.8-2.1,1.2-3.1
	c-0.4,0.1-0.9,0.1-1,0.3c-1.5,2.6-3,5.3-4.1,8.4c0.4-0.2,0.8-0.4,1.2-0.5c0.2,2.2-0.5,2.6-4,2.4c0.3-1.2,0.7-2.4,1-3.5
	c2.4-3,3.7-6.6,5.6-9.8c-0.3-0.2-0.5-0.3-0.8-0.5c-1.3,2-2.5,4-3.8,6c1-2.6,2-5.1,3.3-8.4c-1.2,1.3-1.9,2.1-2.6,2.9
	c-0.2-0.1-0.3-0.2-0.5-0.3c0.7-1.8,1.5-3.6,2.2-5.4c-3.4,2.6-3.4,7-6.4,9.8c1.6-4.1,3.2-8.1,4.9-12.3c-0.5-0.3-1-0.6-1.4-0.8
	c-0.2-1.5,2.4-3.3-0.3-4.5c1-1.2,0-2.4-0.5-3.9C122.2,147,122.6,147,122.8,147.2z M119.3,160.5c0.6-0.7,1.1-1.4,1.6-2.1
	c0.2,0.1,0.3,0.1,0.5,0.2c-0.6,1.4-1.1,2.9-1.7,4.3c-0.1,0-0.3-0.1-0.4-0.1L119.3,160.5C119.3,160.5,119.3,160.5,119.3,160.5z
	 M121.8,150.9c-0.2,1-0.3,2.1-0.5,3.1c-0.2,0-0.4-0.1-0.6-0.1C121.1,152.9,121.5,151.9,121.8,150.9z M119.2,160.5
	c-0.4,0.2-0.8,0.3-1.5,0.6c0.5-1.7,1-3.2,1.5-4.7c0.2,0,0.4,0.1,0.5,0.1C119.6,157.9,119.4,159.2,119.2,160.5z M143,304.7
	c-0.1,0-0.2,0-0.3,0.1c-0.1,0.1-0.2,0.1-0.5,0.3c0.1,1.1,0,2.4,0.5,3.4c2.1,4.8,4.4,9.6,6.4,14.4c1.5,3.5,4,6.6,4.3,10.5
	c0.4-0.7,1.2-1.1,1.5-0.1c0.9,2.7,2.8,2.8,5.2,2.5c5.6-0.7,10.1-3.6,14.4-6.9c1.6-1.2,2.7-3,4.1-4.6c-11.8-6.6-23.1-13-34.4-19.3
	C143.7,304.8,143.4,304.8,143,304.7z M149.3,310c9,4.8,17.8,9.6,26.8,14.4c-2.6,3.6-5.9,6-9.9,7.3c-0.1,0-0.3-0.2-0.4-0.3
	c-0.5,0.4-1,0.8-1.6,1.1c-0.9,0.5-1.8,1.2-2.8,1.5c-0.5,0.2-1.2-0.6-1.7-0.5c-0.6,0.2-1.1,0.8-1.9,1.5c-0.7-2.7,1.5-3.7,2.3-5.2
	c0.9-1.7,2.1-3.1,3.2-4.7c-0.2-0.2-0.5-0.3-0.7-0.5c-1.9,2.5-3.8,5.1-5.8,7.7c-1.9-0.9-1.2-2.2-0.5-3.3c1-1.6,2.2-3.1,3.4-4.6
	c-0.2-0.2-0.4-0.4-0.7-0.5c-1.4,1.7-2.7,3.4-4.4,5.4c-0.4-2.2,1.2-3.2,1.9-4.6c0.8-1.5,1.9-2.9,3.1-4.7c-2.7,0.7-3.1,3.3-5.4,4.1
	c0.8-1.7,1.7-3.3,2.5-5c-0.2-0.1-0.4-0.3-0.6-0.4c-1.3,1.7-2.6,3.3-3.9,5c-0.2-0.1-0.3-0.2-0.5-0.3c1.3-2.5,2.6-5,3.9-7.5
	c-2.5,1.1-3.4,3.5-4.9,5.5c-1.2-2.1-1.2-2.1,1.5-8c-0.9,1-1.8,2-3.2,3.4c0.4-1.6,0.7-2.7,1.1-4.1c-0.9,0.4-1.5,0.6-2.4,1
	C148.4,312.5,148.8,311.5,149.3,310z M147.9,309.4c-0.4,0.8-0.7,1.6-1.4,3.2C146,310.5,146.1,309.5,147.9,309.4z M144.4,330
	c-0.2-0.1-0.3-0.2-0.5-0.3c-1.6,2.1-3.2,4.1-4.7,6.1c0.5,0.8,0.8,1.3,1.1,1.8c0,0,0,0,0,0C141.7,335,143,332.5,144.4,330z
	 M104.3,204.8c2.7-0.2,5.4-0.5,8-1.2c6.1-1.7,12.3-3.4,18.3-5.6c4.7-1.7,9.5-3.6,13.7-6.1c5.5-3.4,10.7-7.5,15.8-11.4
	c1.2-0.9,2.2-1.1,3.7-1c4.8,0.5,9.5,1,14.3,1.2c5.5,0.1,11-0.2,16.5-0.2c7-0.1,14,0,21-0.1c2.7,0,5.4,0,8.1,0c0.7,0,1.4-0.4,2.1-0.6
	c-0.9-0.4-1.6-0.5-2.3-0.5c-9.9-0.2-19.9-1.1-29.8-0.5c-9.8,0.6-19.4-0.1-29.4-1.3c0.4-0.8,0.4-1.1,0.7-1.4c0.8-1.1,1.7-2.1,2.6-3.1
	c11-12.6,18.5-27,23.6-42.8c2.2-7,3.9-14.2,4.6-21.6c0.3-3.7,0-7.4-1.2-10.9c-1.2-3.9-3.8-5.1-7.6-3.7c-1.4,0.5-2.7,1.2-4,1.8
	c-11.6,5-23.2,10-34.8,15c-7.1,3.1-14.2,6.2-21.2,9.3c-5.7,2.5-11.5,5-17.2,7.6c-0.5,0.2-0.9,0.9-1.3,1.4
	c27.4-10.2,53.5-23.6,80.9-33.9c0,3.1,0.2,5.8,0,8.5c-0.6,9-2.6,17.7-5,26.4c-4.5,16.8-11.9,31.9-24.1,44.6c-1.8,1.8-3.8,3.5-5.8,5
	c-2.7,2.1-5.6,4-8.4,5.9c-6.7,4.5-13.6,8.7-21.5,10.4c-8.6,1.8-17.2,4.4-26.1,4c-1.7-0.1-3.3,0.1-4.8,1.5c11,1.2,21.1-2.5,31.6-3.5
	c-5.6,2.3-11.3,4.2-17.2,5c-5.3,0.7-10.7,1-16.1,1.5c-0.6,0.1-1.1,0.3-1.7,0.5c0.8,0.6,1.5,0.7,2.2,0.7
	C96.2,205.3,100.3,205.2,104.3,204.8z M191.4,96.3c0.1,0.6,0.1,1.2,0.2,1.8c-0.2,0-0.4,0-0.6,0.1c0-0.6-0.1-1.2-0.1-1.8
	C191.1,96.4,191.2,96.3,191.4,96.3z M189.8,121.6c-0.9,2.1-1.5,3.7-2.5,6C187.1,124.7,188.1,123.1,189.8,121.6z M186,130.4
	c0.5-1.3,2.4-2.1,3.6-3.1c0.1,0.1,0.3,0.2,0.4,0.3c-0.5,0.7-0.9,1.5-1.5,2.2c-1.3,1.8-3.1,3.2-2.4,6c0.3,1.3-0.9,2.9-1.5,4.3
	c-0.3,0.7-0.8,1.2-1.2,1.9c-0.2-0.2-0.5-0.3-0.7-0.5C183.7,137.7,184.6,133.9,186,130.4z M171.3,164.5c-0.1,0.5-0.1,0.8-0.2,1.1
	c-0.6,0.8-1.2,1.5-2,2.4C169.3,165.9,169.3,165.9,171.3,164.5z M166.9,169.4c-1,3.3-4.6,7.4-7.9,8.7
	C161.5,175.4,164.1,172.6,166.9,169.4z M156.7,180l0.5,0.6c-0.9,0.7-1.9,1.5-2.8,2.2c-0.2-0.2-0.3-0.4-0.5-0.6
	C154.4,180.9,155.7,180.6,156.7,180z M152.2,183.2c-1.1,2.8-6,5.9-10,6.8C145.4,187.8,148.6,185.6,152.2,183.2z M141.9,190.2
	c0,0.4,0.1,1.1-0.1,1.2c-1.8,0.9-3.7,1.7-5.5,2.5c-0.1-0.2-0.2-0.4-0.3-0.6C137.9,192.2,139.9,191.2,141.9,190.2z M132.6,302.5
	c-9.2,2.6-18.5,5.2-27.8,7.8c-2.8,0.8-5.7,1.5-8.5,2.4c-3.2,1.1-3.6,2.3-1.7,5.2c2,3.1,4.3,6,8,7.4c0.6,0.2,1,0.6,1.6,1
	c-0.5,0.3-0.9,0.5-1.5,0.9c3.5,1.4,4.5,1.5,6.8-0.6c2.9-2.7,5.4-5.7,8.2-8.4c2.7-2.7,5.6-5.2,8.5-7.9c0.2,0.3,0.4,0.5,0.7,0.8
	c-0.9,1-1.7,2-2.7,3c-3.5,3.7-7.1,7.4-10.6,11.2c-3.1,3.4-3,4.8,0.5,7.6c0.4,0.3,0.8,0.4,1.3,0.7c4.9,2.6,10,4.3,15.9,4.9
	c0.2-1.4,0.5-2.6,0.6-3.9c0.9-9.3,1.8-18.5,2.8-27.8C134.7,304.9,134.3,303.6,132.6,302.5z M114.2,316.2c1-0.8,2-1.6,3.2-2.5
	c-0.6,3.1-7.8,10.7-11.8,12.6c-2.3-1.8-4.7-3.6-7.2-5.5c2.1-3.1,3.9-5.8,5.7-8.5c0.3,0.2,0.5,0.3,0.8,0.5c-1.5,2.5-3.1,5-4.9,8
	c2.6-0.9,4.6-1.5,5.9-3.9c1.2-2.3,3.2-4.2,4.9-6.2l0.7,0.5c-1.6,2.6-3.2,5.2-4.9,7.7c0.2,0.2,0.5,0.3,0.7,0.5
	c1.2-1.6,2.3-3.2,3.5-4.8c1.2-1.6,2.4-3,4.2-4.2l-4.5,6.9c3.4-2.4,5.2-6.3,8.8-8.5C117.5,311.2,115.8,313.7,114.2,316.2z
	 M120.4,312.9c0.6-0.8,1.5-2.2,2.5-3.6C122.6,311.4,121.2,312.4,120.4,312.9z M114.9,330.3c-0.6-2.5,1.1-4.1,2.2-6.2
	C117.1,326.7,116.7,327.7,114.9,330.3z M130,323.3c-1,2.6-2.3,5.2-3.3,7.8c-0.3,0.9-0.3,2,0.3,3.1c1-2.7,1.9-5.4,3.1-8.6
	c1.8,4.2-0.9,7.1-0.5,10.8c-2.2-0.5-3.9-0.8-5.8-1.2c0.8-2.4,1.5-4.5,2.2-6.5c-1.2,2-2.3,4-3.6,6.1c-1.1-0.5-2.3-1-3.6-1.6
	c0.6-1,1.2-1.9,1.8-2.9c-0.4,0.2-0.8,0.4-1.2,0.7c1-3.3,2-6.6,2.9-9.8c-1.1,2.3-2.1,4.6-3.2,6.9c-0.6,1.3-1.4,2.7-2.5,3.8
	c0.7-4.3,3.1-8,4.8-12.2c0.4,0.8,0.6,1.2,0.9,1.7c1-1.8,2-3.5,3-5.2c0.2,0,0.3,0.1,0.5,0.1c-0.5,2.1-1,4.2-1.6,6.2
	c1.2-1.9,2.4-3.8,3.8-6.1c-1,6.3-4.7,11.2-6,17c1.6-3.2,3.1-6.4,4.7-9.6c0.1,0,0.3,0.1,0.4,0.1c-0.4,1.7-0.8,3.3-1.2,5
	c1.2-2.5,2.4-5,3.6-7.6c0.5-1.2,0.9-2.4,1.4-3.6c0.3,0.1,0.6,0.2,0.9,0.3C131.2,319.7,130.7,321.5,130,323.3z M131.6,312.5
	c-0.2-0.1-0.4-0.1-0.6-0.2c0.2-0.9,0.5-1.9,0.7-2.8c0.2,0.1,0.5,0.2,0.7,0.3C132.2,310.6,131.9,311.6,131.6,312.5z M130.7,306.8
	c-0.2-1.6,0.2-2.6,2.1-2C132,305.6,131.4,306.2,130.7,306.8z M191.4,148.2c0,0.3,0.6,0.9,0.8,0.8c0.5-0.2,0.8-0.6,1.6-1.2
	c-0.8-0.3-1.3-0.6-1.6-0.5C191.8,147.3,191.4,147.8,191.4,148.2z M186.1,166.2c-0.3,0.6,0.2,2.2,0.7,2.3c2,0.7,2.7-0.7,3.2-2.7
	C188.3,165.2,186.9,164.3,186.1,166.2z M104.1,77.5c0.6-0.2,1.3-0.8,1.3-1.3c0.1-0.4-0.7-0.9-1.4-1.7c-0.5,0.9-1,1.5-1,2
	C103,76.9,103.9,77.6,104.1,77.5z M100.4,64.5c1.5-0.6,3-2.8,2.9-4.7c-0.2-0.7-0.7-1.4-2-1.2c-1.7,0.3-3.5,2.4-3.5,4.2
	C98,64.2,99.1,65,100.4,64.5z M101.7,60.4c0.2,0.2,0.4,0.4,0.5,0.5c-0.6,0.6-1.3,1.2-2.3,2.2C99.7,60.9,101.1,61,101.7,60.4z
	 M95.1,79.2c0.6,0.4,1.3,1.1,1.5,1c0.5-0.3,1.1-0.9,1.1-1.4c0-0.4-0.8-0.9-1.2-1.3C96.1,78,95.7,78.5,95.1,79.2z M150.7,331.8
	c-2.8-6.8-5.8-13.5-8.7-20.2c-0.9-2.1-1.8-4.3-2.8-6.4c-0.3-0.6-1.1-1-1.8-1.6c-2.2,5.2-3.5,27.1-2.3,35.2c0.8-0.1,1.6-0.4,2.4-0.2
	c0.8,0.2,1.5,0.8,2.3,1.1c4.4,1.6,8.7,1.3,12.4-0.4c0.5-2.3,0.8-3.9,1.1-5.5C152.1,333.5,151.3,333.1,150.7,331.8z M140.5,311.8
	c0.4,1.2,0.5,1.8,0.7,2.4c-0.6,0.2-1.2,0.5-2.2,0.9C139.5,313.9,139.9,313.2,140.5,311.8z M141.2,314.2c1.5,1,1.1,2.1,0.3,3.3
	c-1.2,1.8-2.4,3.5-4.2,5C138.6,319.8,139.9,317,141.2,314.2z M142.6,338.5c0.8-1.3,1.4-2.3,2.1-3.5c-1.7,1-3,1.8-4.4,2.6l0,0
	c-1.1-0.5-2.2-0.9-3.7-1.5c2.4-3.5,4.7-6.8,6.9-10.1c-0.2-0.2-0.4-0.3-0.7-0.5c-2.7,2-3.6,5.6-6.3,7.8c1.1-3.9,4-6.8,4.8-10.9
	c-1.4,1.9-2.8,3.8-4.3,5.7c0.5-3.9,3.5-6.4,5.5-10.3c3,6.8,5.7,13,8.4,19.2C148.6,339.4,145.8,338.5,142.6,338.5z M93.5,29.4
	c1.2,0.8,2.1,0.2,2.9-0.7c0.7-0.8,1.2-1.7,1.8-2.7c-0.4-0.9-0.5-2.1-1.1-2.4c-0.7-0.4-2.1-0.5-2.7-0.1c-0.9,0.6-1.6,1.7-2.1,2.8
	C91.6,27.6,92.4,28.7,93.5,29.4z M93.6,26.6c0.4-1,1.3-1.8,2.1-2.8c1.4,2.2,0.9,4-0.8,4.3C93.8,28.3,93.2,27.5,93.6,26.6z"/>
</svg>
