<?xml version="1.0" encoding="utf-8"?>
<!-- Generator: Adobe Illustrator 18.0.0, SVG Export Plug-In . SVG Version: 6.00 Build 0)  -->
<!DOCTYPE svg PUBLIC "-//W3C//DTD SVG 1.1//EN" "http://www.w3.org/Graphics/SVG/1.1/DTD/svg11.dtd">
<svg version="1.1" id="Ebene_1" xmlns="http://www.w3.org/2000/svg" xmlns:xlink="http://www.w3.org/1999/xlink" x="0px" y="0px"
	 width="100px" height="100px" viewBox="0 0 100 100" enable-background="new 0 0 100 100" xml:space="preserve">
<g>
	<circle fill="#871312" cx="50" cy="50" r="50"/>
	<g>
		<path fill="#FFFFFF" d="M45.2,41.9c0.1,0.9,0.2,2,0,3.1c-0.1,1.1-0.4,2.2-0.9,3.3c-0.5,1.1-1.1,2.2-1.9,3.3
			c-0.8,1.1-1.8,2-2.9,2.9c0.3,0.3,0.6,0.7,0.8,1c0.3,0.4,0.5,0.8,0.8,1.3c0.4,0.6,0.7,1.3,1,2c0.3,0.7,0.6,1.4,0.9,2
			s0.5,1.3,0.7,1.8c0.2,0.6,0.4,1,0.5,1.4c0.2,0.6,0.6,1,1,1.2c0.4,0.2,0.8,0.2,1.2,0.2c0.4-0.1,0.8-0.2,1.2-0.5
			c0.4-0.2,0.7-0.5,0.9-0.7c0,0-0.1,0.2-0.2,0.7c-0.1,0.4-0.3,0.9-0.6,1.3c-0.3,0.5-0.6,0.9-1,1.4c-0.4,0.4-1,0.7-1.6,0.7
			c-0.4,0-0.9,0-1.3-0.1c-0.4-0.1-0.8-0.4-1.1-0.8c-0.4-0.4-0.7-0.9-1-1.5c-0.3-0.6-0.6-1.5-0.9-2.4c-0.4-1.3-0.8-2.6-1.1-3.8
			c-0.4-1.2-0.9-2.3-1.5-3.2c-0.1-0.2-0.2-0.3-0.3-0.4c-0.1-0.1-0.2-0.3-0.3-0.4c-0.8,0.4-1.8,0.8-2.9,1.2c0.1,0.9,0.1,1.7,0.2,2.6
			c0,0.9,0.1,1.8,0.1,2.6c0,0.9,0,1.7,0,2.4c0,0.8-0.1,1.4-0.1,2c-0.1,0.6-0.2,1.1-0.5,1.5c-0.2,0.4-0.7,0.7-1.5,0.9
			c-0.4,0.1-0.8,0.1-1.2,0c-0.4-0.1-0.7-0.3-1.1-0.6c0.1-0.1,0.2-0.2,0.3-0.4c0.1-0.2,0.3-0.5,0.4-1c0.1-0.5,0.3-1.1,0.4-2
			c0.1-0.8,0.1-2,0.1-3.3c0-0.6,0-1.2,0-2c0-0.8,0-1.6,0-2.5c-1-0.3-1.5-0.8-1.7-1.6c-0.1-0.5,0-1,0.4-1.4c0.3-0.4,0.8-0.8,1.3-1.1
			c0-1.2,0-2.4,0-3.6c0-1.2,0-2.3,0-3.4c0-1.1,0-2,0-2.9c0-0.9,0-1.5,0-2c-0.3,0.4-0.6,0.7-0.9,1.2c-0.3,0.4-0.6,0.8-0.9,1.2
			c-0.3,0.5-0.6,0.9-0.8,1.4c-0.2-0.1-0.4-0.2-0.5-0.3c-0.1-0.1-0.3-0.2-0.4-0.3c-0.1-0.1-0.2-0.2-0.3-0.4c-0.2-0.3-0.4-0.6-0.5-0.9
			c-0.1-0.4,0.1-0.8,0.5-1.3c0.2-0.3,0.6-0.7,1.1-1.2c0.5-0.5,1.1-1,1.8-1.6c0.7-0.6,1.6-1.1,2.7-1.6c1-0.5,2.2-1,3.6-1.3
			c1.4-0.3,2.5-0.4,3.5,0c1,0.3,1.8,0.8,2.4,1.5c0.6,0.7,1.1,1.4,1.5,2.2C44.8,40.5,45.1,41.2,45.2,41.9z M34.5,55.1
			c0.2-0.1,0.5-0.2,0.7-0.3c0.2-0.1,0.5-0.3,0.8-0.4c-0.5-0.3-1-0.3-1.6-0.3C34.5,54.5,34.5,54.8,34.5,55.1z M37.7,53.2
			c0.7-0.6,1.3-1.2,1.9-1.9c0.6-0.7,1.1-1.5,1.5-2.4c0.4-0.9,0.7-1.9,0.9-2.9c0.2-1.1,0.1-2.2,0-3.4c-0.2-1.1-0.5-2-0.9-2.6
			c-0.4-0.7-0.9-1.2-1.4-1.5c-0.5-0.3-1.1-0.5-1.7-0.5c-0.6,0-1.2,0-1.7,0.2c-0.5,0.1-1,0.3-1.5,0.6c-0.5,0.3-0.9,0.6-1.4,1
			c0.1,0,0.2,0,0.3,0.1c0.1,0.1,0.1,0.1,0.2,0.2c0.1,0.1,0.1,0.2,0.2,0.3c0,2.2,0.1,4,0.1,5.5c0.1,1.5,0.1,2.7,0.1,3.6
			c0,1.1,0.1,2,0.1,2.6c0,0.1,0,0.2,0,0.3c0,0.1,0,0.2,0,0.3c0.5,0,1,0,1.6,0.1S37.1,52.9,37.7,53.2z"/>
		<path fill="#FFFFFF" d="M57.2,51.3c0,0.9-0.1,1.7-0.3,2.5c-0.2,0.8-0.5,1.5-0.8,2.2c-0.4,0.6-0.8,1.2-1.4,1.6
			c-0.6,0.5-1.2,0.8-2,1c-0.9,0.2-1.6,0.2-2.2,0c-0.6-0.2-1.1-0.6-1.5-1.1c-0.4-0.5-0.7-1.1-0.9-1.7c-0.2-0.7-0.4-1.3-0.6-1.8
			c-0.1-0.4-0.2-0.9-0.2-1.4c0-0.5,0-1.1,0-1.6c0-0.6,0.1-1.1,0.3-1.7c0.1-0.6,0.3-1.1,0.6-1.7c0-0.4,0.2-0.8,0.4-1.1
			c0.2-0.3,0.4-0.7,0.8-0.9c0.3-0.3,0.7-0.5,1-0.7c0.4-0.2,0.8-0.3,1.2-0.4c0.1,0,0.1,0,0.2,0c0.1,0,0.1,0,0.2,0
			c0.3,0,0.7,0,1.1,0.1s0.9,0.3,1.4,0.6c0.5,0.3,1,0.7,1.4,1.2c0.4,0.5,0.7,1.2,1,2c0,0.2,0.1,0.4,0.1,0.6c0,0.3,0.1,0.5,0.1,0.6
			c0.4-0.3,0.9-0.7,1.4-1.1c0.5-0.4,0.9-0.8,1.3-1.3c0.4-0.4,0.8-0.9,1.2-1.3c0.3-0.4,0.6-0.8,0.8-1.1c0.2-0.2,0.3-0.4,0.5-0.5
			c0.1-0.1,0.3,0,0.4,0c0.1,0.1,0.1,0.2,0.1,0.4c0,0.2-0.1,0.4-0.2,0.7c-0.1,0.2-0.3,0.5-0.6,1c-0.3,0.5-0.8,1-1.2,1.7
			c-0.5,0.6-1,1.2-1.6,1.8C58.4,50.5,57.8,51,57.2,51.3z M49.9,54c0.1,0.4,0.2,0.8,0.4,1.1c0.1,0.4,0.3,0.7,0.5,0.9
			c0.2,0.3,0.4,0.4,0.7,0.6c0.3,0.1,0.6,0.1,0.9,0.1c0.4-0.1,0.7-0.3,1-0.5c0.3-0.3,0.5-0.6,0.7-0.9c0.2-0.4,0.3-0.7,0.4-1.2
			c0.1-0.4,0.2-0.9,0.2-1.3c-0.1,0.1-0.3,0.1-0.4,0.2c-0.1,0-0.3,0.1-0.5,0.1c-0.8,0.2-1.6,0.1-2.3-0.2c-0.7-0.3-1.3-0.8-1.8-1.5
			c0,0.5,0,1,0,1.4C49.7,53.2,49.8,53.6,49.9,54z M50.5,47.8c0,0.2,0,0.4,0.1,0.6c0.1,0.3,0.2,0.7,0.3,1.1c0.1,0.4,0.3,0.7,0.6,0.9
			c0.2,0.3,0.6,0.4,1,0.5c0.4,0.1,1,0.1,1.6-0.1c0.1,0,0.2-0.1,0.3-0.1c0.1,0,0.2-0.1,0.3-0.1c0-0.3,0-0.6,0-0.8
			c0-0.2,0-0.4-0.1-0.6c-0.1-0.4-0.2-0.8-0.3-1.3c-0.2-0.4-0.3-0.8-0.5-1.1c-0.2-0.3-0.4-0.6-0.7-0.8c-0.2-0.2-0.5-0.2-0.7-0.2
			c-0.4,0.1-0.8,0.3-1.1,0.6C51,46.9,50.7,47.3,50.5,47.8z"/>
		<path fill="#FFFFFF" d="M71.7,44.4c0.1-0.2,0.1-0.3,0.3-0.3c0.1-0.1,0.2-0.1,0.4,0c0.1,0,0.2,0.1,0.2,0.3c0,0.1,0,0.4,0,0.7
			c-0.2,0.9-0.6,1.9-1,3.1c-0.5,1.1-1,2.2-1.5,3.2c-0.6,1-1.1,1.9-1.7,2.6c-0.6,0.7-1.1,1.1-1.6,1.3c-0.7,0.2-1.3,0.2-1.9,0
			c-0.5-0.2-1-0.4-1.4-0.7c-0.4-0.3-0.7-0.7-0.9-1.2c-0.2-0.5-0.4-0.9-0.4-1.3c-0.1-0.3-0.1-1-0.2-1.9c-0.1-0.9-0.2-2-0.3-3.2
			c-0.1-1.2-0.2-2.5-0.2-3.9c-0.1-1.4-0.1-2.8-0.1-4.1c-0.4,0.1-0.7,0.3-1.1,0.4c-0.4,0.1-0.7,0.2-1,0.3c-0.7,0.2-1.4,0.3-2,0.3
			s-1.1,0-1.5-0.1c-0.2,0-0.3-0.1-0.3-0.3c0-0.2,0-0.3,0.1-0.5c0.1-0.2,0.2-0.4,0.3-0.5c0.1-0.2,0.3-0.3,0.4-0.3
			c0.4-0.1,0.9-0.1,1.3-0.2c0.5-0.1,1-0.2,1.5-0.4c0.4-0.1,0.8-0.3,1.2-0.4c0.4-0.1,0.7-0.3,1.1-0.4c0-1.1,0.1-2.1,0.1-2.9
			c0.1-0.8,0.2-1.4,0.3-1.8c0-0.1,0.2-0.3,0.4-0.4c0.2-0.1,0.4-0.2,0.7-0.3C63,31,63.2,31,63.5,31c0.2,0,0.4,0,0.6,0.1
			c0.2,0.1,0.3,0.6,0.5,1.3c0.2,0.7,0.3,1.6,0.3,2.8c0.9-0.2,1.7-0.4,2.4-0.5c0.7-0.1,1.3-0.1,1.9-0.1c0.5,0,1,0,1.3,0.1
			c0.3,0,0.6,0.1,0.7,0.1c0.2,0,0.3,0.1,0.3,0.3c0.1,0.2,0.1,0.4,0,0.6c0,0.2-0.1,0.4-0.3,0.6c-0.1,0.2-0.3,0.3-0.5,0.3
			c-0.2,0-0.5,0.1-0.8,0.1c-0.3,0-0.6,0-1,0.1c-0.4,0.1-0.8,0.1-1.4,0.2c-0.5,0.1-1.1,0.2-1.8,0.4c-0.1,0-0.3,0.1-0.4,0.1
			c-0.2,0.1-0.3,0.1-0.5,0.1c0,0.4,0,0.7,0,1.1c0,0.4,0,0.7,0,1.1c-0.1,0.9-0.1,1.9-0.3,3c-0.1,1-0.2,2.1-0.4,3.3
			c-0.2,1.3-0.4,2.6-0.6,4c0.1,1,0.3,1.7,0.6,2.1s0.6,0.7,0.9,0.9c0.3,0.2,0.7,0.2,1.1,0.1c0.3,0,0.7-0.3,1.1-0.6
			c0.4-0.4,0.8-0.9,1.2-1.4c0.4-0.6,0.8-1.2,1.1-1.9c0.4-0.7,0.7-1.3,1-1.9c0.3-0.6,0.6-1.2,0.8-1.7C71.5,45,71.7,44.6,71.7,44.4z"
			/>
	</g>
</g>
</svg>
