<?xml version="1.0" encoding="utf-8"?>
<!-- Generator: Adobe Illustrator 18.0.0, SVG Export Plug-In . SVG Version: 6.00 Build 0)  -->
<!DOCTYPE svg PUBLIC "-//W3C//DTD SVG 1.1//EN" "http://www.w3.org/Graphics/SVG/1.1/DTD/svg11.dtd">
<svg version="1.1" id="Ebene_1" xmlns="http://www.w3.org/2000/svg" xmlns:xlink="http://www.w3.org/1999/xlink" x="0px" y="0px"
	 width="155.2px" height="173.4px" viewBox="0 0 155.2 173.4" enable-background="new 0 0 155.2 173.4" xml:space="preserve">
<path fill="#232323" d="M74.3,96.1c-0.5-1-0.7-2-1.1-3c-0.3,1.1-0.5,2-0.3,3c0.5,2.5,2.4,3.9,4.7,3.5c2.8-0.5,6-3.6,5.6-5.7
	c-0.1-0.7-0.5-1.4-0.8-2c-0.4-1-0.9-2-1.2-3c-1-3.4,1.6-6.1,5-5.2c1,0.2,1.9,0.8,2.8,1.2c-1.6-2.9-3.6-3.5-6.2-2.4
	c-2.7,1.2-4.1,3.4-3.6,6c0.3,1.6,1.2,3.1,1.8,4.7c0.8,2.1,0.1,3.6-2.1,4.7C77.2,98.7,75.4,98.1,74.3,96.1z M111.5,140.8
	c-2.6,3.3-4.2,3.2-6.3-0.6c-0.2-0.3-0.3-0.7-0.5-1.2c0.5-0.8,0.9-1.3,1.3-2c1.7-2.7,3.6-5.4,5.1-8.3c0.8-1.5,1.1-3.5,1-5.2
	c0-0.9-1-2.2-1.9-2.7c-1.2-0.7-2.4,0.1-3.1,1.2c-1.1,1.9-2.3,3.8-2.8,5.8c-0.7,3.1-0.9,6.4-1.3,9.6c-0.4,2.6,0.9,4.7,2.5,6.5
	c1.4,1.6,3.7,1.7,5.1,0.2c1.2-1.3,2-3.1,3-4.6c-0.2-0.1-0.4-0.3-0.6-0.4C112.5,139.6,112,140.2,111.5,140.8z M110,122.2
	c1.8,3.5-0.1,8.5-4.8,13.3C103.6,130.4,105.6,124.7,110,122.2z M97.1,40c1.3,0,2.4-0.2,2.6-1.6c0-1.3-1.2-2.7-2.3-2.7
	c-1.3,0-2.5,1.2-2.4,2.5C95.1,39.4,95.9,40,97.1,40z M125.7,117.6c-0.8-0.1-1.6-0.4-2.2-0.2c-3.4,1.3-3.7,4.9-5.3,7.7
	c-0.9-1.1,0.2-2.8-1.4-3.5c0,5,0,9.7,0,14.5c0,0.4,0.3,0.8,0.8,1.9c0.5-1.3,0.9-1.9,1-2.7c0.2-2,0.1-4.1,0.5-6.1
	c1-4.3,1.2-9.3,6.7-10.9C125.8,118.1,125.7,117.9,125.7,117.6z M87.2,87.2h5.4c-0.6,2.3-1.2,4.2-1.6,6c-0.6,3,0.5,4.4,3.5,4.3
	c2.8-0.1,5.3-1.1,7.5-2.7c-1.1,0.1-2.1,0.2-3.1,0.5c-1.8,0.4-4.2,1.7-5.3-0.1c-0.8-1.3-0.1-3.7,0.3-5.5c0.8-3,1-3,4.2-3.4
	c1.6-0.2,3.3,0.3,4.6-1.4h-6.6c-0.1-2.7,2.3-4.7,0.8-7.4c-1.2,2.6-2.4,5.3-3.4,7.6C91.7,86.7,89.2,84.9,87.2,87.2z M129.8,110.7
	c-1.9,2.1-2.2,4.4-0.8,7c0.5,0.8,1.1,1.6,1.6,2.4c0.7,1.3,1.5,2.6,0.3,4c-1.2,1.4-2.6,1-3.8,0c-0.2-0.2-0.6-0.2-1.2-0.3
	c0.6,2.3,1.9,2.8,3.7,2.9c1.8,0,2.8-1.1,2.8-2.6c0-1.9-0.4-3.7-0.8-5.6c-0.2-0.9-1-1.6-1.4-2.5c-1.1-2.4,0.3-4.5,2.9-4.8
	c0.5,0,0.9-0.2,1.8-0.3C132.1,109.2,131.1,109.2,129.8,110.7z M97.7,147.6c-2.1,1.9-2.5,1.8-5.3-0.5c1.6-2.6,3.1-5.1,4.6-7.5
	c1.2-2,1.7-4.2,1.4-6.6c-0.3-2.2-2.2-3-3.9-1.7c-0.6,0.4-1,1-1.4,1.6c-2.3,4.4-2.8,9.2-2.6,14c0.1,3,3.2,4.7,5.7,3.7
	c2.4-0.9,4.7-4,5.2-7C100.1,145,99,146.4,97.7,147.6z M94.1,134.2c0.4-0.7,1.5-1.5,2.1-1.4c1.4,0.2,1.2,1.6,1,2.7
	c-0.7,3.1-2.3,5.7-4.7,8.7C92,140.1,92.5,137,94.1,134.2z M146.1,91.7c-9.7,9.2-20.9,16-33.6,20.1c-10.6,3.4-21.3,6.2-31.9,9.6
	c-10.9,3.5-20.5,8.9-27.6,18.2c-5.4,6.9-7.1,14.6-4.1,22.8c1.9,5.2,5.6,8.8,11.5,9.9c5.5,1.1,10.9,1.5,16.5,0.6
	c6.8-1.1,13.7-1.8,19.5-5.9c4.3-3,8.6-6.2,13-9.2c7.7-5.3,14.1-12,20.3-19c7.9-8.9,14.2-18.8,19.5-29.5c4.1-8.3,5.9-17,6-26.5
	C152,86.1,149.1,88.9,146.1,91.7z M59.2,170.3c0-0.2,0-0.4,0-0.6h1.9c0,0.2,0,0.4,0,0.6H59.2z M64.3,167.2c0.2,0.2,0.4,0.3,0.6,0.5
	c-0.7,1.2-1.5,2.3-2.2,3.5C62.2,169.2,63.4,168.3,64.3,167.2z M73.8,172.2c0.1-0.9,0.1-1.3,0.2-1.8c-3.1,2.8-6.4,1.7-10.1,0.7
	c1.1-1.6,2-2.9,3-4.1c0.2,0.1,0.4,0.2,0.6,0.3c-0.3,0.9-0.7,1.7-1.2,3c1.2-1.4,2-2.4,2.9-3.4c0.2,0.2,0.5,0.4,0.7,0.5
	c-0.4,1-0.7,2-1.1,3.1c3,1.2,3.8-2.1,6-3.1c0,0.7-0.1,1.1-0.1,1.6l2.7-2.5C77.1,168.8,76,170.6,73.8,172.2z M79.8,168
	c-0.4,0.6-1,1.2-1.5,1.8c-0.2-0.2-0.3-0.3-0.5-0.5c0.5-0.7,1-1.5,1.7-2.6C79.7,167.4,79.9,167.8,79.8,168z M81.1,169.5
	c0-0.8-0.1-1.2,0-1.4c0.4-0.6,0.9-1.1,1.3-1.6c0,0,0.2,0,0.3,0c0.1,0.1,0.1,0.2,0.3,0.4C82.5,167.6,82,168.4,81.1,169.5z
	 M86.8,165.8c0.3-0.7,0.6-1.5,1-2.2c0.2,0.1,0.4,0.3,0.5,0.4c-0.4,0.7-0.8,1.3-1.2,2C87,165.9,86.9,165.9,86.8,165.8z M87.4,167.9
	c0.7-1.1,1.5-2.2,2.2-3.3c0.1,0,0.3,0.1,0.4,0.1c-0.1,0.8-0.2,1.5-0.4,2.3c-0.6,0.4-1.2,0.8-1.8,1.2C87.6,168,87.5,168,87.4,167.9z
	 M88.8,169.6c0.4-1.4,0.7-2.1,0.9-2.8c0,0,0,0-0.1,0c1.7-2.3,3.4-4.6,5.1-6.8C94.2,163.8,92.5,166.9,88.8,169.6z M97,164.5
	c0.7-1.7,1.4-3.3,2.4-5.5c-1.1,0.5-1.7,0.8-2.5,1.2c0.9-1.9,0.9-1.9,4.4-3.3C100.7,160.1,99.7,162.6,97,164.5z M103.2,157.5
	l-0.7-0.5c0.4-0.8,0.9-1.5,1.3-2.3c0.2,0.1,0.5,0.3,0.7,0.4C104.1,155.9,103.6,156.7,103.2,157.5z M138.9,121.8
	c-7.8,9.6-16.7,18-26.3,25.7c-8.4,6.7-17.9,11.3-27.8,15.2c-3.1,1.2-6.6,1.6-9.9,1.9c-5,0.4-10.1,1.1-15.1-0.2
	c-8.3-2.2-12.8-10.1-8.7-18.3c3.3-6.7,8.3-11.9,14.5-15.8c6.1-3.9,12.6-7.1,19.7-8.7c5.7-1.4,11.5-2.8,17.1-4.7
	c10.7-3.6,21.6-7,31.2-13.3c6.4-4.2,12.3-8.9,17.3-14.7c0.6-0.7,1.1-1.5,1.7-2.3c0.4,0.2,0.8,0.4,1.1,0.5c-0.7,4.5-1.1,9.1-2.7,13.4
	C148.2,108.3,144.1,115.3,138.9,121.8z M69.4,111.7c7.8,0.5,15.4-1,23-2.2c0.5-0.1,0.9-0.3,1.4-0.5c10.6-3.4,20.6-8,30.3-13.5
	c9.5-5.4,18-12.1,26.3-19.1c0.2-0.2,0.3-0.6,0.8-1.5c-3.2,0.3-5.9,0.8-8.7,0.9c-6.5,0.1-13,0.2-19.4-0.1c-5.4-0.3-10.9-0.8-16.1-2
	c-10.5-2.3-20.9-5-30.9-9c-7.4-3-15-5.4-22.2-8.8c-10.5-5.1-21.4-7.2-32.9-6.9C10.9,49.1,0,57.5,0,68.7c0,5,0.5,9.9,3.5,14.2
	c5.2,7.3,12,12.8,20.1,16.6c3.7,1.7,7.4,3.5,11.3,4.8c5.4,1.9,11,3.5,16.6,5.1C57.4,111.1,63.4,111.3,69.4,111.7z M61.1,108.9
	c1.6-1,3.1-2,4.7-2.9C64.8,107.8,63.6,109.4,61.1,108.9z M64.9,109.1c1.7-1,3.3-2,5-3l1.9-2.1c0.2,0.2,0.4,0.5,0.6,0.7
	c-0.8,0.5-1.5,1-2.3,1.5C67.9,108.9,67.5,109.2,64.9,109.1z M65.9,104.2h2.8c0,0.1,0,0.2,0,0.3h-2.8
	C65.9,104.4,65.9,104.3,65.9,104.2z M69.8,110c3.2-2.4,5.9-4.4,8.5-6.5C75.9,108.1,73,110.2,69.8,110z M85.5,108.8
	c2.4-1.6,4.3-2.8,6.3-4.1C90.2,106.5,89.3,109.3,85.5,108.8z M86,106.9c-1.2,2-3,2.9-5.4,3c-1.9,0.1-3.8,0.4-5.8,0.2
	c2.7-2.7,5.6-5.2,8.9-6.9l0.5,0.7c-2.2,1.7-4.4,3.4-6.5,5.1c0.1,0.1,0.1,0.2,0.2,0.3c2.6-0.9,5.3-1.8,7.9-2.7
	c1.7-1.5,2.8-3.9,6.2-4.6C90.1,104.7,88.1,105.8,86,106.9z M97.7,102.9c0.1-1.9,0.9-1.9,2.5-1.7C99.2,101.9,98.6,102.3,97.7,102.9z
	 M21.8,96.6c-0.1-0.3-0.2-0.5-0.3-0.8c0.7-0.3,1.4-0.5,2.1-0.8c0.1,0.3,0.2,0.5,0.3,0.8C23.3,96.1,22.5,96.3,21.8,96.6z M19.8,91.3
	c-5.3-3.9-10.8-7.3-14.9-13c-5-6.9-3-17.1,2.9-22.3c4.4-3.9,9.3-5.9,15.2-5.7c8,0.3,15.9,0.7,23.4,3.8c9,3.8,18,7.6,27.1,11.1
	c13.1,5,26.5,9.1,40.4,11.1c6.3,0.9,12.7,1.1,19.1,0.9c4.3-0.1,8.5,0,12.8,0l0.3,0.5c-2.7,2.1-5.3,4.3-8.2,6.2
	c-3.3,2.2-6.9,3.9-10.3,6.1c-6.7,4.3-14.2,6-21.7,7.7c-8.5,1.9-17,3.4-25.6,4.3c-10.2,1-20.6,0.5-30.6-1.5c-8-1.6-15.9-4.1-23.7-6.3
	C23.7,93.7,21.6,92.6,19.8,91.3z M27.1,99.3c-0.1-0.3-0.2-0.6-0.2-0.9c1.3-0.3,2.5-0.6,3.8-0.9C29.8,99,28.5,99.4,27.1,99.3z
	 M33.1,101.7c-0.1-0.3-0.2-0.6-0.3-0.8c1.5-0.4,2.9-0.9,4.4-1.3c0.1,0.3,0.2,0.6,0.3,0.8L33.1,101.7z M38.5,103.3
	c1.3-0.3,2.6-0.7,3.8-1c0.1,0.2,0.1,0.5,0.2,0.7c-1.3,0.3-2.6,0.7-3.8,1C38.6,103.8,38.5,103.5,38.5,103.3z M41.8,104.3
	c1.1-0.4,2.3-0.7,3.4-1.1C44.4,104.5,43.3,105.1,41.8,104.3z M54.2,103.1c0.5-0.2,1.2,0.1,2.7,0.4c-3.6,1.6-6.3,3-9.5,3.1
	C49.7,105.4,51.9,104.1,54.2,103.1z M54.6,106c0.2,0.6,0.3,1,0.6,1.8c2.2-1.9,4.5-3.5,7.7-4c-5.5,5.7-6.6,5.9-12.2,3.3
	C52.1,106.7,53.3,106.4,54.6,106z M78.7,44.7c-1,1.2-0.4,2.3,0.8,3c0.7,0.4,1.6,0.5,2.4,0.5c2.2,0,4.5-0.2,6.9-0.3
	c-0.3,0.8-0.6,1.4-0.8,2.1c-0.7,2.1-0.1,3.7,1.8,4.4c1,0.3,2.1,0.4,3.2,0.4c1.7-0.1,3.5-0.5,5.2-0.7c1.6,4.9,3.4,6.3,8.3,6.2
	c-1-0.5-1.7-0.8-2.4-1.2c-1.6-0.9-3.2-1.9-3.2-4c0-2.4,2-2.7,3.6-3.4c2.5-1.1,5.1-2.2,7.3-3.7c2.1-1.5,2.9-3.7,2.1-4.5
	c-1.5-1.5-3.3-1.1-5.1-0.5c-3.7,1.2-6.5,3.6-8.4,7c-0.5,0.8-0.9,2-1.6,2.2c-2.2,0.6-4.5,1.1-6.7,1.1c-2,0.1-2.8-1.5-1.7-3.3
	c0.6-1,1.6-1.8,2.5-2.6c1-0.9,2-1.7,3-2.6c-0.5-1-1-1.7-1.1-2.4c-0.4-2.7-2.4-3.7-4.7-3.6C85.4,38.7,81.7,41.1,78.7,44.7z
	 M112.6,44.2c-2,4.5-5.9,5.4-9.8,6.8C104.3,46.4,108,43.8,112.6,44.2z M90.6,40.1c0.9,0.2,2,1,2.4,1.8c0.3,0.6-0.1,2-0.7,2.6
	c-2.1,2.3-8.7,3.1-11.8,1.7C82,42.6,87.2,39.4,90.6,40.1z M85.5,142.7c-0.8-0.5-2.3,0.2-3.4,0.3c-0.4-3.8,1.8-7.7-0.5-11.6
	c-1.7,3.1-2.8,6.4-2.8,9.9c0,4,0.4,8-2.8,11.7c3-0.1,2.4,1.6,2.5,3c0.1,1.3-1.1,2.8,1.1,4.1c1-5.6-1-12,5.4-16
	c0.3,1.2,0.7,2.1,0.7,2.9c0.2,2.2,0.1,4.3,0.3,6.5c0,0.5,0.6,0.9,0.9,1.4c0.4-3.2,0.3-6.2-0.1-9.1C86.7,144.7,86.3,143.1,85.5,142.7
	z M81.4,138.8c-0.2,1.1-0.5,2.3-0.9,3.3c-0.3-2-0.7-4,1-5.8C81.4,137.2,81.5,138,81.4,138.8z M59.7,50.6c6.1,5,13,8.8,20.2,11.9
	c8.1,3.6,16.5,6.1,25,8.4c10,2.7,20,4.4,30.3,2.4c6.4-1.2,12.8-2.3,19.2-3.4c0.1-0.4,0.1-0.8,0.2-1.1c-2.2-1.3-4.6-2.5-6.7-4.1
	c-7.5-5.9-15-11.7-22.3-17.9c-5.2-4.4-10.2-9.2-15.1-14c-3.7-3.6-7.4-7.3-10.7-11.3C95,15.7,89.7,10.5,83.4,6.4
	c-9.6-6.2-20-8.1-31.1-4.7c-3.8,1.2-7.5,3-9.4,6.9c-3.9,8-3.3,15.9,0.7,23.7C47.4,39.7,53.3,45.4,59.7,50.6z M55.8,39.5
	c-1.1-0.3-2.3-0.6-3.4-0.9c0.1-0.2,0.3-0.5,0.4-0.7c1.1,0.3,2.1,0.6,3.2,0.9C55.9,39,55.8,39.3,55.8,39.5z M58,46.8
	c3.7-0.3,6.6-0.2,9.4,0.8C64.5,48.1,61.5,48.6,58,46.8z M60.6,49h3.9C62.8,50,61.9,50.5,60.6,49z M74,51.4c-3,1.2-7.5,1-10.2-0.7
	C67.3,50.9,70.6,51.2,74,51.4z M73.8,57.5c1.7,0.1,2.6,0.2,3.7,0.3C76.3,59.5,75.4,59,73.8,57.5z M78.1,55.4
	c-3.7-0.3-7.6,1.2-10.9-2.2c3.7,0.4,7.3,0.8,11,1.2L78.1,55.4z M81.6,61.9c0-0.3,0-0.6,0-0.9h8.6l0,0.9
	C87.4,62.7,84.5,61.6,81.6,61.9z M44.7,12.2c0.5-2.7,2.5-4.3,4.6-5.8C54,3.1,59.6,2.5,65.1,2.3c8.3-0.3,15.1,3.5,21.5,8.2
	c6.6,4.8,11.6,11.3,17.1,17.2c7.7,8.2,15.6,16.2,24.4,23.1c6.8,5.4,13.6,10.8,20.4,16.2c0.3,0.2,0.4,0.5,0.9,1.1
	c-9.6,1.7-18.7,1.3-27.8,0.1c-11.2-1.4-22-4.6-32.2-9.3C79.9,54.5,71,48.8,62.6,42.4c-3.9-3-7.7-6.3-11.1-9.8
	C46,27,43.2,20.2,44.7,12.2z M56.5,94.7c0.1,2.1,0.2,4.6,2.6,5.6c2.4,1,4.6-0.3,6.3-1.8c4.6-4.1,7.7-9.2,9.9-14.9
	c0.2-0.5,0.3-1.2,0.4-1.8c0.5-4.2-1.8-6.3-6.6-6c1,0.4,1.8,0.6,2.5,0.9c2.3,1.3,3.4,3.2,2.6,5.8c-1.8,6-4.9,11.3-9.9,15.2
	c-3.1,2.4-5.5,1.1-5.9-2.8c-0.8-7.1,4.3-18.4,12.2-21.4c-2.3-1.1-3.6-0.1-4.8,0.8c-4.7,3.6-7.1,8.8-8.8,14.2
	C56.3,90.5,56.4,92.7,56.5,94.7z M74.2,157.5c-0.5,0.5-1,1.1-1.5,1.6c-2.1,2.1-3.4,2.1-5.2-0.4c-3.8-5.4-4.8-11.2-2.7-17.5
	c1.4-4.1,3.1-4.8,6.9-2.6c0.1,0.1,0.4-0.1,0.8-0.2c-0.1-0.3,0-0.7-0.2-0.9c-2.5-2.8-6.1-2.2-8,1.2c-3.6,6.4-2.4,17.1,2.6,22.5
	c2.2,2.3,4.4,2.4,6.4-0.1c1.2-1.4,2-3,3-4.5l-0.6-0.4C75.1,156.5,74.7,157,74.2,157.5z M43.4,79.1c0.9-0.3,1.5-0.4,2-0.6
	c3.7-1.5,7.5-2.7,10.9-4.7c3.5-2,3.1-4.8-0.3-7c-3-1.9-6.4-2.1-9.7-2.2c-1.7-0.1-3.6,0.4-4.8-2.7c-3.8,10.2-7.2,19.4-10.6,28.6
	c3.3-2.8,4.3-6.9,5.9-10.5c4.3-0.4,4.6-0.2,6.3,3.3c1.1,2.3,2.1,4.6,3.4,6.8c1.5,2.5,2.7,2.7,5.8,1.9C46.1,89.8,46.2,83.7,43.4,79.1
	z M37.6,77.5c1.5-3.9,2.8-7.5,4.1-11.2c5.6,0,11.1-0.5,15.7,4.6C51.7,76.1,45.4,78.1,37.6,77.5z M34.7,63.4c0.5-3-1.4-6.3-4.2-7.3
	c-2.4-0.9-4.3,0-6.2,3c-0.8,1.2-1.6,2.5-2.1,3.8c-1.9,4.6-3.7,9.2-5.3,13.8c-0.6,1.8-0.6,3.9-0.8,5.9c0.3,0.1,0.6,0.1,0.9,0.2
	c0.9-3.1,1.8-6.3,2.7-9.4c1,0,1.8,0,2.5,0C28.4,73.8,33.7,69.6,34.7,63.4z M20.2,71.5c1.8-4,3.5-8,5.5-11.8c1.7-3.1,4.7-2.8,6.4,0.2
	c0.9,1.6,0.9,3.2,0.4,4.9C31.1,69.9,26.1,72.8,20.2,71.5z M85.2,21.9c0.3-0.3,0.3-1.1,0.6-2.3c-2.5,2-4.4,3.5-6.2,4.9
	c-1.8,1.4-3.8,2.6-5.6,4c-1.9,1.5-3.6,3.2-5.6,4.6c-4.3,3.1-4.4,3-4.6,5.1c2.9-1.8,5.5-3.6,8.5-5.5c0.9,4.6,0.2,9.2,3.2,12.8
	c0.7-4.1-1-8-0.6-12.8c1.8,0,3.5,0,5.2,0c1.8,0,3.6,0,5.4-0.3c1.5-0.3,3.3-0.1,4.3-1.8c-2.5,0-4.9,0.5-7.3,0.7c-2.6,0.2-5.2,0-7.8,0
	c-0.1-0.2-0.2-0.4-0.3-0.7c1.3-1.1,2.7-2.2,4-3.3C80.7,25.5,83,23.8,85.2,21.9z M57.5,31.7c3.4,0.8,6.5-0.9,8-4.1
	c1.4-2.9,2.1-5.9,2.2-9.1c0.1-1.4,0.2-2.9,0.8-4.2c1.1-2.6,4.9-3.5,7.5-2c2.2,1.3,2.9,4.6,1.4,7c-0.4,0.7-1,1.2-2,2.6
	c1.4-0.4,2-0.4,2.4-0.7c3.6-2.8,2.6-8.8-1.8-10.7c-4.3-1.8-9.1,0.6-10.1,5.2c-0.3,1.3,0,2.7-0.3,4c-0.7,2.8-1.2,5.7-2.5,8.2
	c-1.5,2.9-4.8,3.3-8.3,1.6c-2.7-1.3-3.7-3.9-2.4-7c0.8-1.8,2-3.4,3-4.9c-4.3,1.9-6.1,6.6-4.2,10.8C52.4,30.9,55.1,31.1,57.5,31.7z"
	/>
</svg>
