<?xml version="1.0" encoding="utf-8"?>
<!-- Generator: Adobe Illustrator 18.0.0, SVG Export Plug-In . SVG Version: 6.00 Build 0)  -->
<!DOCTYPE svg PUBLIC "-//W3C//DTD SVG 1.1//EN" "http://www.w3.org/Graphics/SVG/1.1/DTD/svg11.dtd">
<svg version="1.1" id="Ebene_1" xmlns="http://www.w3.org/2000/svg" xmlns:xlink="http://www.w3.org/1999/xlink" x="0px" y="0px"
	 width="146.1px" height="130.1px" viewBox="0 0 146.1 130.1" enable-background="new 0 0 146.1 130.1" xml:space="preserve">
<path fill="#232323" d="M14.5,6.9c0.4-1.1,0.7-2.3,1.3-3.4c0.5-1,1.2-1.9,2.2-3.4c-5.1,2.9-6.7,9.1-4,12.8
	C17.6,11,17.8,9.5,14.5,6.9z M44.2,115.3c0.6,4.3-1.7,6.6-5.3,8c-1.2,0.5-2.3,0.8-3.6,1.3c-3.3-4.5-3.2-5.2,0-8.7
	c0.9-1,1.8-2.1,2.5-3.3c1.1-1.8,0.9-3-0.6-3.9c-1.6-1-3-0.7-4.1,1.3c-2.6,4.5-3.4,9.2-1.1,14.1c0.8,1.7,2.1,2.6,4,1.9
	c1.9-0.7,3.6-1.8,5.4-2.7c1-0.5,2.1-0.7,3.4-1.2c1.2-3.8,1.2-10.2-0.4-12.6C44.2,111.4,43.9,113.4,44.2,115.3z M36.3,109.1
	c1.6,3.5-1,4.5-2.8,6.6C33.4,112.8,34,110.9,36.3,109.1z M30.2,77.2c0.3,0,0.6-0.1,0.9-0.1c-0.1-0.9,0.1-2.1-0.4-2.6
	c-1.2-1.2-2.6-2.4-4.2-3.1c-1.9-0.8-3.7,0.4-4.5,2.9c-0.4,1.2-0.3,2.5-0.3,3.7c0,2.5,1.8,4.1,3.2,5.8c2.3,2.7,3.5,5.8,3.4,9.4
	c0,1.9-1.5,3.6-2.9,3.4c-1.7-0.3-2.6-1.5-2.8-3.1c-0.2-1.3-0.2-2.6-0.3-4.3c-1.2,2.5-1.5,5-0.8,6.4c1.5,3.2,4.7,3.8,6.9,1.1
	c0.9-1.2,1.8-3,1.7-4.4c-0.5-3.7-0.8-7.6-4.1-10.3c-0.7-0.5-1.2-1.3-1.7-2c-1.7-2.6-1.4-4.4,1.1-7C28.1,73.1,29,75.3,30.2,77.2z
	 M19.6,24.2c-1.6,1.6-2.3,3.2-3.1,5.1c-1.2,3.1,0.2,5.7,3.5,5.7c2.9,0,5.4-0.9,6.6-4c-1.4,0.6-2.7,1.2-4.1,1.7
	c-1.7,0.6-3.8-0.2-4.2-1.5c-0.4-1.1,0.8-3.5,2-4.1c0.7-0.3,1.5-0.4,2.2-0.7c1.5-0.6,2.9-1.2,4.4-1.8l-0.2-0.7
	c-1.4,0.2-2.8,0.5-4.7,0.8c0.6-1.3,1.1-2.2,1.5-3.1c1-2.2,1.9-4.4,2.8-6.6c0.5-1.2,0.7-2.5-0.7-3.3c-1.4-0.8-5.1,0.5-6.6,2.6
	c2-0.4,3.7-0.7,5.7-1.1C24,17.8,22.3,21.5,19.6,24.2z M25.3,107.8c-1.6-2.1-3.1-2.3-5-0.4c-1.3,1.3-2.5,2.8-4.2,4.9
	c-0.6-3-0.9-4.9-1.3-6.9c-0.8,0.5-1.2,0.9-1.2,1.3c0,6.6,0,13.2,0.1,19.7c0,0.6,0.7,1.2,1.1,1.8c0.3-0.1,0.6-0.2,0.9-0.3
	c0-2.6,0.2-5.3,0-7.9c-0.5-5.7,2.7-9.1,6.9-12.4c2.5,1.8,2.7,4,2.7,6.4c0,4,0,7.9,0,11.9c1-0.2,1.4-0.5,1.5-0.9
	c1.3-2.8,0.6-14-1.1-16.7C25.6,108.2,25.5,108,25.3,107.8z M29.4,40.1c0.7-0.2,1.2-0.9,2.2-1.6c-1.1-0.6-1.9-1.3-2.2-1.1
	c-0.6,0.4-1,1.2-1.3,1.9C28.1,39.3,29.1,40.2,29.4,40.1z M47,101.2c-0.8,0.4-1.6,0.9-2.2,1.5c-0.1,0.1,0.4,0.9,0.9,2
	c0.9-1.1,1.6-1.8,2-2.5C47.8,102,47.1,101.2,47,101.2z M7.5,12.8c1.3,0,2.7-1.3,2.7-2.7c0.1-1.4-0.8-2-2.1-2.1
	C7.6,8,7.2,7.8,6.7,7.7c0-0.6,0-0.9,0-1.3c0-0.3-0.2-0.7-0.3-1.1c-1.6,1.5-1.2,3.3-1.2,5C5.2,11.8,5.9,12.7,7.5,12.8z M65.6,8.4
	c-0.1-0.4-1-0.9-1.4-0.8c-1.8,0.4-1.5,1.6-0.9,3C64.8,10.5,65.9,10.1,65.6,8.4z M44.5,48.9C44.5,48.9,44.6,48.8,44.5,48.9
	c0.1-0.1,0.1-0.1,0.1-0.1c0,0,0,0,0,0c0,0-0.1-0.1-0.1-0.1C44.5,48.8,44.5,48.8,44.5,48.9L44.5,48.9z M42.5,60.6
	c0.1,2.1,0.4,4.3,2.6,5.1c2.2,0.8,3.3-1.3,4.5-2.7c0.1-0.1-0.1-0.4-0.1-0.6c-0.4,0.2-0.7,0.3-1,0.5c-2.6,1.3-3.2,1-3.8-1.8
	c-0.8-3.7-0.2-7.3,1.4-10.6c1.7-3.4,2.7-3.6,6-1.4c0.1,0.1,0.5-0.1,0.7-0.1c-1.1-3.6-3.1-4.5-5.8-2.4c-0.9,0.6-1.5,1.5-2.3,2.3
	C43.2,52.6,42.3,56.5,42.5,60.6z M68.5,21.3c2.1,2.7,4,5.1,5.9,7.4c0.9-0.5,1.4-0.8,1.9-1c0.4,1.3,0.6,2.5,1,3.5
	c1.3,3.1,3.7,3.7,6.3,1.7c1.4-1,2.6-2.4,3.9-3.6c-0.1-0.2-0.2-0.4-0.4-0.6c-1.1,0.8-2.2,1.6-3.3,2.3c-1.9,1.2-3.3,1-4.3-0.4
	c-1.5-2-1.4-3.9,0.2-5.3c1.4-1.2,3.1-2.3,4.3-3.7c1-1.2,1.8-2.7,2.3-4.2c0.2-0.7-0.3-2.1-1-2.6c-0.6-0.4-2.1-0.4-2.6,0.1
	c-1.5,1.3-2.7,2.9-4,4.5c-0.6,0.8-1,1.8-1.6,2.7c0.4-4.9,1.1-9.6,0.9-14.4c-1,2.7-1.6,5.4-2.1,8.2c-0.5,2.8-1,5.6-1.6,9.4
	c-2.2-3-3.9-5.1-5.5-7.4c-0.7-1.1-1.3-1.9-2.7-1.1c-0.6,6.9-0.4,11.4,0.8,13.8C69,27.7,67.4,24.5,68.5,21.3z M84.6,16.1
	c0.1,4-2.7,5.2-4.8,6.8C80.2,19.8,81.5,17.6,84.6,16.1z M136.5,67.7c2.1-1.3,3.6-3,3.8-5.3c0.1-0.9-0.8-1.9-1.5-2.7
	c-0.2-0.3-1.5-0.3-1.6,0c-0.5,0.9-1.2,2-1.1,3c0,0.8,1,1.6,1.6,2.3C137.3,65.9,136.9,66.8,136.5,67.7z M18.3,42.1
	c-0.5,4-1.1,7.5-1.4,11.1c-0.3,3.1-0.3,6.3-0.2,9.5c0.2,3.7,2.1,4.6,5.3,2.9c0.9-0.5,2.1-1.4,2.6-1.2c2.5,1.2,4.1-0.6,5.9-1.5
	c0.4,0.6,0.7,1.2,1.2,2.1c2.9-6.2,3.1-12.3,2.6-18.5c-0.2-3.3-1.9-4.3-4.9-3.4c-2.9,0.8-5,2.6-6.1,5.3c0.2,0.2,0.4,0.5,0.7,0.7
	c0.6-0.6,1.2-1.2,1.8-1.7c1.1-0.8,2.2-1.8,3.4-2.3c2.4-1.1,4,0,3.9,2.7c-0.1,2.1-0.4,4.2-0.7,6.6c-0.8-0.3-1.3-0.5-1.9-0.7
	c-4-1.5-6.3-0.3-7,4c-0.3,1.8,0,3.7,0,6c-1.1,0.3-2.5,0.6-4.2,1c-0.2-1.9-0.5-3.2-0.4-4.6c0.2-4.5,0.5-9.1,0.6-13.6
	C19.4,45.2,20.2,43.6,18.3,42.1z M25,58c0.3-1.6,0.8-3.2,2.6-3.2c1.7-0.1,3.1,0.9,3.8,2.6c0.6,1.6,0.6,3-1,4
	c-0.3,0.2-0.6,0.6-0.9,0.7c-1,0.3-2.4,0.9-3.1,0.5c-0.9-0.5-1.3-1.9-1.7-2.5C24.9,59,25,58.5,25,58z M35.3,31.2
	c0.7-0.5,1.3-1.1,2-1.7c1.7,4.3,1.9,4.4,5.5,2.2c-3-0.9-3.5-1.5-3.4-4.4c0.1-2.1,0.6-4.2,1.1-6.3c0.4-1.7,0.9-3.3-0.2-5.7
	C38,20.5,38.7,26.2,34.1,30c-1.3-2.1-1.7-3.7-1.3-5.8c0.4-1.9,0.5-4,0.6-6c0-0.5-0.6-1-1-1.5c-0.1,5.3-3.5,10.7,0.8,15.8
	C34.1,32,34.7,31.6,35.3,31.2z M37.2,47.9c-1.1,2.9-0.3,5.7,0.8,8.5c1,2.6,2.1,5.1,0.8,8.5c-1.4-0.7-2.6-1.2-4.2-2
	c0.6,1.1,0.8,1.8,1.2,2.1c1,0.6,2.3,1.6,3.2,1.4c0.9-0.3,1.5-1.8,2-2.9c0.3-0.6,0.3-1.5,0.1-2.2c-0.5-2.2-1.1-4.4-1.6-6.6
	c-0.4-1.7-0.9-3.5-0.7-5.2c0.2-2.5,2.3-3.2,4.4-1.8c0.5,0.3,0.9,0.8,1.3,1.2c0-2.5-0.5-3.5-2.2-3.8C40.3,44.5,37.9,45.9,37.2,47.9z
	 M35.7,39c-0.8-0.7-1.3-1.5-1.8-1.4c-0.5,0.1-1.1,0.8-1.2,1.4c-0.1,0.3,0.7,1.2,1,1.1C34.3,40.1,34.8,39.5,35.7,39z M40.3,93.9
	c0.2-0.5,0.6-1,0.7-1.5c0.6-5,1.2-10,1.6-15.1c0.1-1-0.4-2.3-1-3.2c-0.4-0.6-1.4-1.2-2.1-1.3c-2.4-0.3-4.7,1.6-4.9,4
	c-0.4,3.9-0.9,7.8-1.1,11.7c-0.1,1.7,0.2,3.4,0.3,5.1c0.4,0,0.7,0,1.1,0.1c0.2-1.6,0.3-3.2,0.6-5.1c1.4-0.7,3-1.5,5-2.5
	c-0.3,2.9-0.5,5.2-0.8,7.6C39.8,93.7,40.1,93.8,40.3,93.9z M35.6,85.8c0.2-2.9,0.4-5.8,0.6-8.6c0.2-1.7,1.3-2.4,2.9-2.3
	c1.5,0.1,1.7,1.3,1.8,2.4c0.1,1.1,0,2.3-0.1,3.4C40.6,85.1,40.6,85.1,35.6,85.8z M13.4,53.2c-0.2-0.6-1.1-1.5-1.5-1.4
	c-1.2,0.3-2.3,0.9-3.4,1.5c-1,0.5-2.3,0.8-2.3,2.9c2-1,3.7-1.8,5.3-2.6c1.5,2.5,1.5,9.2,0.1,11c-2.2,3-5.2,3-7.4,0
	C1,59.9,1.3,50,5.1,44.9c2.2-3,3.7-3.4,7.2-1.9c1.1,0.5,2.1,1.1,3.6,1.9c-2.7-5.2-8.1-6-11.2-2.2C1.8,46.1,0.8,50,0.2,54.3
	c-0.7,5,0.6,9.3,3.4,13.2c0.6,0.8,1.9,1.5,2.8,1.5c1.4-0.1,2.8-0.8,4.2-1.3c0.3-0.1,0.7-0.2,1-0.3c0,0.7,0.1,1.4,0.1,2
	c0.2,0.1,0.5,0.2,0.7,0.3c0.3-0.7,0.8-1.4,0.9-2.1c0.3-3.3,0.6-6.6,0.7-9.8C14.2,56.2,13.8,54.7,13.4,53.2z M115.2,64.9
	c1.5-1.3,3-2.7,4.4-4.1c0.5,0.4,1,0.9,1.5,1.4c1.9-4.4,1.7-11.9-0.8-14.2c1.7,7.2,0.2,12.7-6.5,15.5c-3.7-3.7-3.7-5-0.1-8.5
	c1.5-1.5,2.9-3.1,4-4.9c1.3-2,1-4.3-0.2-5.2c-1.3-1-3.2-0.4-4.9,1.6c-0.7,0.8-1.4,1.6-2.1,2.5c-1.4-3.4-0.6-7-3.1-9.7
	c-0.3,1-0.3,1.9-0.2,2.8c0.4,2.9,1.2,5.7,1.3,8.6c0.1,3.8,0.4,7.8-2.1,11.3c-3.9-2.2-3.5-7.1-6.8-9.7c-1,2.8-1.9,5.3-2.9,7.8
	c-2.8-4.9-1.1-10.4-3.5-15.1c-0.4,1.8-0.3,3.6-0.2,5.4c0.3,3.5,0.5,7.1,1,10.6c0.1,0.7,0.9,1.7,1.5,1.8c0.6,0.1,1.7-0.6,2.1-1.2
	c0.9-1.3,1.5-2.8,2.5-4.7c1.4,2.3,2.3,4.3,3.6,5.9c1.5,1.9,2.6,1.8,4.3-0.1c0.4-0.4,0.6-0.9,0.9-1.4c1.5,1.7,2.8,3.2,4,4.6
	C114.1,65.5,114.8,65.3,115.2,64.9z M116.5,46.4c0.7,2.8-0.8,5.1-4.8,7.7C111.8,49.9,113.1,47.7,116.5,46.4z M112.7,74.4
	c0-0.1-0.7-0.5-0.7-0.5c-0.3,0.3-0.6,0.7-0.8,1.1c0,0.1,0.4,0.4,0.8,0.7C112.3,75.2,112.6,74.8,112.7,74.4z M112,91.8
	c1.6-3.6,1.4-7.3,0.3-11C111.3,84.4,111.5,88.1,112,91.8z M96.7,31.8c0.6-0.6,1-1.1,1-1.8c0.3-2.3,0.4-4.5,0.6-6.8
	c0.3-3.2,2.1-5.2,5-6.8c2.2,2.9,0.5,5.7,0.2,8.3c-0.4,2.8-0.8,5.6-1.2,8.4c1-0.2,1.3-0.6,1.4-1c0.7-3.7,1.3-7.5,1.9-11.2
	c0.2-1.2,0.2-2.5,0-3.8c-0.3-2.3-1.8-2.9-3.8-1.7c-0.9,0.5-1.8,1.1-2.7,1.7c-0.8-1.4-1.5-2.5-2.4-4c-2,1.2-3.6,2.2-5.1,3.1
	c-0.7-0.5-1.2-0.8-2.2-1.5c0.7,6.3-1,12,0.1,17.7c0.6-0.6,0.9-1.2,1-1.8c0.2-2.6,0.6-5.3,0.5-7.9c-0.1-3.7,2-5.4,5.3-7.1
	C99.2,21.1,94.9,26.5,96.7,31.8z M100.4,80.8c-0.1,0.1-0.2,0.1-0.4,0.1c-0.5-0.7-1-1.3-1.6-2c-0.3,0.1-0.5,0.1-0.8,0.2
	c0.7,6.3-1,12.5-0.1,18.8c0.5-0.3,0.8-0.7,0.8-1.1c0.3-3.3,0.8-6.5,0.9-9.8c0.1-2.3,1.2-3.8,2.7-5.2c1.6-1.4,2.9-1,3.4,0.9
	c0.5,1.7,0.6,3.5,0.7,5.2c0.1,2.2,0,4.5,0,7.6c0.9-1.2,1.5-1.7,1.5-2.2c0-3.4,0.3-6.9-0.4-10.2C106.3,78.1,104.7,77.7,100.4,80.8z
	 M123.2,82.4c-1.1-2.5-2.6-2.9-4.7-1.3c-4,3.2-4.7,7.6-4.3,12.3c0.2,1.9,0.4,4.4,2.7,5.1c2.3,0.7,3.6-1.2,5-2.8
	c0.1-0.1,0.1-0.4,0.2-1c-0.8,0.4-1.2,0.7-1.8,1c-2.3,1.3-3.1,1-3.9-1.4c-0.9-2.6-0.9-5.2,0-7.8C117.6,82.8,119.4,81.7,123.2,82.4z
	 M127.7,49.2c-0.5,0.3-1,0.6-1.6,0.9c-0.5-0.8-1-1.5-1.5-2.4c-1.2,3.7-0.9,16.2,0.4,18.4c0.3-0.9,0.6-1.6,0.6-2.2
	c0-2.5,0.1-5.1-0.1-7.6c-0.2-2.2,0.5-3.7,2.3-4.7c0.9-0.5,2.3-1,3-0.6c0.8,0.4,1.5,1.7,1.5,2.7c0.1,2.5-0.1,5.1-0.2,7.6
	c0,0.8,0.1,1.5,0.2,2.3c0.3,0,0.6,0,0.9,0c1.2-3.9,1.7-7.9,0.6-12C133,48.4,130.8,47.7,127.7,49.2z M142.3,93.3
	c-0.7,0-2.1-0.6-2.1-1c-0.2-2.2-0.4-4.6,0-6.8c0.2-1,1.8-1.8,2.8-2.6c0.5-0.5,1.1-0.9,2-1.7c-1.8,0.3-3,0.5-4.2,0.7
	c-1-2.5,0.6-5.3-1.6-7.4c-0.4,1.1-0.4,2.1-0.4,3.2c0,2.8,0.2,5.6-2.9,7.1c-0.3,0.1-0.3,0.8-0.5,1.6c1.2-0.2,1.9-0.3,2.8-0.5
	c0,1.6,0.1,3.2,0,4.7c-0.4,4.7,1.2,6.4,6.1,3.7c0.6-0.3,1-0.9,1.9-1.7C144.5,92.9,143.4,93.4,142.3,93.3z M132,76.7V84
	c-2,0.9-3.7,1.6-6,2.7c0-2.2,0.1-3.9,0-5.6c-0.1-1.6,0.7-3.4-1.5-5.4c0,7.5,0,14.1,0,20.8c0,0.6,0.4,1.3,0.7,1.9
	c0.3,0,0.6-0.1,0.8-0.1c0-2.4-0.1-4.8,0-7.1c0.1-0.9,0.4-2.1,1.1-2.6c1.2-1,2.7-1.6,4.7-2.6v11.6c0.3,0,0.6,0,0.9,0
	c0.2-3.4,0.5-6.9,0.6-10.3C133.7,78.3,133.7,78.3,132,76.7z M89.6,120.7c-1.4-0.5-2.4,0.5-2.8,1.8c-0.5,1.3,0.1,2.2,1.4,2.5
	c0.4,0.1,0.9,0.3,1.5,0.5c-0.6,1.4-1.1,2.6-1.7,4c3.1-1.5,3.7-4,3.1-6.8C91,122,90.3,121,89.6,120.7z M121,41.5
	c-0.8,0.8-1.4,1.9,0.3,3.3c0.7-0.7,1.5-1.1,1.8-1.8c0.2-0.5-0.1-1.3-0.2-1.9C122.3,41.2,121.4,41.1,121,41.5z M70.3,127.6
	c0,0.1,1.1,1,1.2,0.9c0.8-0.6,1.5-1.4,2.2-2.1c-0.4-0.4-0.8-0.7-1.7-1.5C71.3,125.9,70.7,126.7,70.3,127.6z M52.9,91
	c0.2,1.1,0.4,2,0.7,3.5c2.2-3.3,2-6.5,2.3-9.5c0.1-1.6-0.4-3-2.2-3.5c-1.5-0.4-3.9,0.7-5,2.4c1.7-0.1,3.3-0.3,5.1-0.4
	c0.5,4.8,0.2,5.3-3.4,6.9c-2.6,1.1-3.6,0.6-4.3-2.2c-1-4.2,0.8-7.7,3.5-10.7c0.7-0.7,2.2-0.7,3.4-1c0.5-0.1,1,0,2.4,0
	c-1.1-1-1.5-1.7-2.1-1.9c-2.2-0.7-4.3,0.2-5.3,1.9c-1.6,2.6-3.1,5.5-3.8,8.5c-0.5,1.9,0.2,4.2,0.9,6.2c0.6,1.9,2.1,2.3,4,1.5
	C50.4,92.2,51.6,91.6,52.9,91z M64.8,92.9c2.1-4.3,1.8-15.9,0-18.2V92.9z M63.2,16.5c-0.3,2.7-0.5,5.2-0.8,7.7
	c-0.1,0.8-0.1,1.9-0.7,2.5c-2.4,2.4-4.9,4.6-7.5,7.1c-4-4.5-3.9-5.8-0.9-9.6c1.5-1.8,2.6-4,3.7-6.1c0.3-0.7,0.1-2.3-0.4-2.6
	c-0.8-0.5-2.2-0.7-3.1-0.4c-0.9,0.4-1.7,1.5-2.2,2.4c-2.5,4.4-2.9,9.1-1.4,13.9c1.4,4.6,3.6,5.1,7.1,1.8c1.6-1.5,3.1-3.1,4.8-4.8
	c0.3,1.4,0.5,2.4,0.8,3.8C64.7,27.9,65,18.6,63.2,16.5z M53.7,17.2c0.4-0.4,1.2-0.4,2.2-0.7c-0.4,3-2.1,4.7-4.2,7.3
	C51.5,20.7,52.2,18.8,53.7,17.2z M57.3,48.4c-0.3,0-0.7-0.1-1-0.1c-0.9-2.6,0.6-5.6-1.5-8.2c-0.3,4.5-0.5,8.7-0.8,12.8
	c-0.2,3.3-0.6,6.5-0.8,9.8c0,0.6,0.3,1.2,0.5,1.9c0.3,0,0.5,0,0.8,0c0.2-0.9,0.5-1.8,0.6-2.6c0.2-2.4,0.2-4.8,0.4-7.2
	c0.3-2.7,1.4-3.8,4.2-4.5c2.8,4.4-0.9,9.3,0.6,13.7c0.3,0,0.6,0,1,0c0.3-3.8,0.9-7.7,1-11.5C62.3,48.9,60.8,47.9,57.3,48.4z
	 M86.9,91.8c-0.1,1.1-0.5,2.2,0.9,2.8c0.9-2.5,1.3-6.3,1-9.3c-0.4-4.7-2.4-5.8-6.8-3.9c-0.2,0.1-0.5,0.1-0.9,0.2
	c-0.3-3.2-0.6-6.1-0.9-8.9c-0.3,0-0.6,0-0.9,0.1v21c1.4-2.3,1.4-2.3,1.7-6.2c0.3-3.5,0.8-4.2,5.1-5.4c0.4,1.2,1.1,2.4,1.1,3.7
	C87.4,87.7,87.1,89.7,86.9,91.8z M53.2,108c-1.3,1-2.3,1-3.7,0.2c-0.9,6.7-0.3,12.9,1,19l1.2-0.1c-0.2-3.6-0.3-7.3-0.8-10.9
	c-0.4-3,0.6-5.2,3-6.8c2.3-1.5,4.5-1,5.4,1.7c0.5,1.4,0.6,3,0.6,4.5c0.1,3.7,0,7.4,0,11.1c0.3-0.2,0.6-0.2,0.6-0.4
	c2-5.3,1.9-10.7,0.4-16C60.1,106.7,56.3,105.6,53.2,108z M83.4,120.8c-0.6-0.3-2,0-2.3,0.5c-0.4,0.7-0.1,1.8,0.1,2.7
	c0.1,0.5,0.8,0.9,1.4,1.6c-0.9,1.6-1.7,3.1-2.4,4.5c3.1-1.5,4.8-3.9,4.8-7.1C85,122.2,84.2,121.2,83.4,120.8z M72.3,101.8
	c-0.3,0-0.6,0-0.9-0.1c-0.1,2.3-0.2,4.6-0.2,6.9c-0.1,2.5-0.1,5-0.1,7.5c0,2.2-1.2,4.5,0.4,6.9C73,119.2,73.4,105.7,72.3,101.8z
	 M82,63.1c1.8-3.8,2-11.5,0.6-14.4c-0.9-1.9-2.1-2.3-4-1.5c-0.7,0.3-1.4,0.7-2.1,1.1c-0.4-0.9-0.6-1.5-1.2-2.9
	c-0.4,1.6-0.8,2.4-0.8,3.2c-0.1,2.8,0,5.6-0.2,8.4c-0.1,3-2.1,5.2-5,5.8c-1.6,0.3-2.7-0.2-3.5-1.6c-1.3-2.3-0.9-4.1,1.1-6
	c1.6-1.6,3.3-3.2,4.6-5c1-1.5,0.4-3.5-0.9-4.4c-1.5-1-2.6-0.1-3.6,1c-3.8,4-4.6,9-3.6,14.1c0.8,3.9,4.5,5.1,7.9,2.8
	c0.6-0.4,1.2-0.9,1.7-1.2c0.6,0.8,1.1,1.4,2.1,2.5c0.3-4.1,0.7-7.4,0.8-10.8c0.1-2.8,1.4-4.7,4.2-5.6C84.1,53,80.3,58.3,82,63.1z
	 M70.2,47.8c0,3.1-2.1,4.5-4.7,6.5C66.4,49.1,67.1,48.2,70.2,47.8z M75.3,76.3c-1.8-1-2.9,0-3.9,1.2c-2.7,3.3-3.8,7.1-3.6,11.3
	c0.1,2.7,0.3,5.5,3.3,6.7c2.8,1.1,4.4-1.2,6-2.9c0.1-0.1,0.1-0.4,0.1-0.8c-0.9,0.4-1.6,0.9-2.4,1.2c-2.6,1.1-4.7,0.2-5-2.6
	c-0.4-3-0.4-6.1,0.9-8.9c0.7-1.5,1.5-3.3,3.3-3.2c1.1,0.1,2,1.6,3.2,2.6C77.6,78.3,77.1,77.3,75.3,76.3z"/>
</svg>
