<?xml version="1.0" encoding="utf-8"?>
<!-- Generator: Adobe Illustrator 18.0.0, SVG Export Plug-In . SVG Version: 6.00 Build 0)  -->
<!DOCTYPE svg PUBLIC "-//W3C//DTD SVG 1.1//EN" "http://www.w3.org/Graphics/SVG/1.1/DTD/svg11.dtd">
<svg version="1.1" id="Ebene_1" xmlns="http://www.w3.org/2000/svg" xmlns:xlink="http://www.w3.org/1999/xlink" x="0px" y="0px"
	 width="110.8px" height="98.6px" viewBox="0 0 110.8 98.6" enable-background="new 0 0 110.8 98.6" xml:space="preserve">
<path fill="#232323" d="M90.1,75.3c-7.9-3.1-16-3.9-24.2-1.7c-1.3,0.3-2.2,1.2-2.6,3.2c1.7-0.8,2.9-1.5,4.2-2
	c4.5-1.5,9.1-0.9,13.7-0.2c0.2,0,0.5,0.4,0.7,0.6c3.7-0.8,6.7,1.7,10.4,2.8c-0.5-0.9-0.7-1.4-1-1.7C91,75.8,90.6,75.5,90.1,75.3z
	 M81.8,75.2C81.8,75.2,81.8,75.2,81.8,75.2L81.8,75.2c-3.7,0.2-7.6,0.2-11.4,0.3c-1.2,0-2.6,0.2-2.7,1.8c-0.1,1.6,1.4,1.9,2.4,2.3
	c5,1.9,10.1,2.2,15.3,1.4c1-0.1,1.8-1.2,3.4-2.3C86,77.3,83.9,76.2,81.8,75.2C81.8,75.2,81.8,75.1,81.8,75.2
	C81.8,75.1,81.8,75.1,81.8,75.2C81.8,75.1,81.8,75.1,81.8,75.2z M82,31.7c2,0,3.7-1.8,3.8-4c0.1-2.4-1.3-3.8-3.7-3.9
	c-2.8,0-4.5,1.5-4.4,4C77.7,29.9,79.8,31.7,82,31.7z M81.6,25.1c1.1,0.7,2,1.3,2.8,1.8c0.1,1.7-0.1,3.1-2,3.3
	c-1.4,0.2-2.3-0.6-2.9-1.7C78.7,26.7,80.1,26,81.6,25.1z M68,51.8c1-0.2,1.9-1,3.5-1.9c-1.4-1.2-2.2-2.2-3.2-2.6
	c-1.2-0.4-2.4,1-2.4,2.5C66,51.2,66.8,52.1,68,51.8z M90.1,80.8c-0.3,0.7-0.5,1.4-0.7,2.1c-1.3,4.3-3.6,7.9-7.2,10.6
	c-4.4,3.4-9.3,4.1-14.4,2.4c-1.3-0.4-2.4-1.4-3.6-2.2c2.6,0,4.8,0.6,7,1.1c0.9,0.2,1.9,0.5,2.8,0.4c4.4-0.6,8-2.7,10.8-6.2
	c0.7-0.9,1.4-2,1.7-3.2c0.5-1.5-0.5-2.8-2.1-2.6c-2.2,0.3-4.4,0.6-6.4,1.3c-1.2,0.4-3.1,1.8-3,2.3c0.6,2.1-1.9,0.6-1.8,1.8
	c0.9,0.1,1.8,0.2,2.7,0.3c0,0.1,0,0.3-0.1,0.4c-1.2,0.1-2.4,0.2-4,0.3c0.9,0.5,1.4,0.7,2.5,1.3c-3.5,0-6.2-0.1-9,0
	c-1.2,0-2.5,0.9-3.5,0.5c-3.1-1.2-6-0.1-8.9,0.3c-12.9,1.6-25.8,2.7-38.9,2.8c-2.5,0-5.1,0.1-7.6,0.2c-3.5,0.2-4.7-1-4.4-5.1
	c1.4,0,2.6,0,3.8,0C9.3,89.8,12.6,90,16,90c6.8-0.1,13.6-0.3,20.4-0.5c7.1-0.2,14-0.9,20.8-3.2c3.3-1.1,5.8-3.1,6.5-6.7
	c0.1-0.5-0.3-1.1-0.4-1.7c-2.2,6.1-6.8,8.4-12.5,8.9c-5.7,0.5-11.4,1.1-17,1.3c-9,0.3-17.9,0.3-26.9,0.4c-2,0-4.1-0.3-6-0.4
	c-2.2,4.7,0,8.4,4.6,8.2c7.9-0.2,15.8-0.2,23.6-0.8c9.1-0.6,18.1-1.7,27.1-2.7c2.2-0.3,4,0,5.6,1.7c2.8,2.9,6.5,4.3,10.5,4.2
	c9.7-0.2,17.2-7.4,19.3-16.4c0.1-0.6-0.3-1.3-0.5-2.2C90.5,80.5,90.2,80.6,90.1,80.8z M81.5,52.8c-1.6-1.1-2.4-1.6-3.2-2.2
	c-0.2,0.1-0.5,0.3-0.7,0.4l0.8,2.7C79.1,53.5,79.9,53.3,81.5,52.8z M99.8,21.7c1.1,1.2,2,1.3,3.1-0.5
	C101.6,20.7,100.6,20.1,99.8,21.7z M97.4,12.4c-0.2,0.3-0.3,0.5-0.3,0.7c0,0.2,0.3,0.4,0.3,0.6c0.2,1.3-0.8,2.1-1.4,1.3
	c-0.5-0.6-0.4-1.6-0.6-2.8c-1.8,1.7-1.9,2.4-0.8,3.4c1.1,1,3,1,3.8-0.2C99.4,14,98.8,13,97.4,12.4z M109.6,35.3
	c-1.9-0.1-4.4,1.8-4.4,3.1c0,1.2,0.8,2,2.1,2c1.8,0,3.4-1.4,3.4-3.1C110.8,36.3,110.6,35.4,109.6,35.3z M96.4,56
	c0.3,0.3,0.7,0.7,1,0.7c0.3,0,0.7-0.4,1.2-0.8c-0.5-0.4-1-1-1.1-0.9C97.1,55.1,96.8,55.6,96.4,56z M98.2,2.4c-1.4-1.1-2-1.6-2.7-2
	c-1.4-0.9-2.5-0.1-3.5,0.8c-0.4,0.4-0.5,1.4-0.3,1.9c0.6,1.2,1.8,1.4,3.1,0.9C95.8,3.7,96.6,3.2,98.2,2.4z M92.8,2.6
	c1.3-1.7,2.1-1,2.8-0.4c0,0.3-0.1,0.6-0.1,0.9C94.7,3,93.9,2.8,92.8,2.6z M88.6,43.2c-2.8-0.1-5.4,2.3-5.5,5.2
	c-0.1,2.3,2.2,4.8,4.5,4.9c2.9,0.1,5.5-2.1,5.6-4.6C93.2,46.6,90.4,43.3,88.6,43.2z M88.7,51.9c-1.6,0.1-3.6-1.5-3.8-3.2
	c-0.2-1.7,1.4-3.8,3-3.9c1.8-0.1,3.7,1.7,3.7,3.7C91.7,50.3,90.5,51.8,88.7,51.9z M93.9,29.6c0.1,0.5,0.6,0.9,0.9,1.3
	c0.3-0.3,1-0.6,0.9-0.8c-0.1-0.5-0.5-1-1-1.7C94.3,28.9,93.8,29.3,93.9,29.6z"/>
</svg>
