<?xml version="1.0" encoding="utf-8"?>
<!-- Generator: Adobe Illustrator 18.0.0, SVG Export Plug-In . SVG Version: 6.00 Build 0)  -->
<!DOCTYPE svg PUBLIC "-//W3C//DTD SVG 1.1//EN" "http://www.w3.org/Graphics/SVG/1.1/DTD/svg11.dtd">
<svg version="1.1" id="Ebene_1" xmlns="http://www.w3.org/2000/svg" xmlns:xlink="http://www.w3.org/1999/xlink" x="0px" y="0px"
	 width="170.4px" height="144.6px" viewBox="0 0 170.4 144.6" enable-background="new 0 0 170.4 144.6" xml:space="preserve">
<path fill="#A59164" d="M88.3,50.6c-0.3-0.1-0.7,0.2-1.1,0.4c0.3,0.4,0.5,0.9,0.9,1.2c0,0,0.5-0.3,0.9-0.5
	C88.8,51.2,88.6,50.7,88.3,50.6z M168.6,123.8c-2.3,0-4.7-0.1-7,0.2c-5.7,0.9-11.4,2.1-17.3,0.6c-0.8-0.2-1.8-0.1-2.7,0
	c-3.3,0.3-6.7,0.7-10,1.1c-2.5,0.3-5,0.5-7.7,0.8c6.6-15.4,2-27.6-9.7-37.9c1.3-2.1,2.5-4.1,3.8-6.1c0.4-0.1,0.9-0.2,1.3-0.2
	c5.5-0.9,8.2-3,6.9-10.1c-0.1-0.8-0.3-1.5-0.5-2.3c-0.9-2.8-3.3-4.1-6.3-3.4c-0.6,0.2-1.3,0.2-1.7,0.3c-1.9-3.1-3.6-5.9-5.4-8.7
	c-1.4-2.1-3.3-3.7-5.6-4.6c-0.7-0.2-1.5,0-2.3,0c1.6,1.7,3.4,2.6,4.8,3.9c1.4,1.4,2.6,3.1,3.5,4.9c1.4,2.7,2.7,5.4,3.8,8.2
	c2.1,5.6,1,10.7-2.3,15.5c-2.1,3-4.7,5.4-7.8,7.2c-1,0.6-1.9,1.3-2.8,2c0.1,0.2,0.3,0.4,0.4,0.6c3.3-1.3,6.2-3.2,9-5.5
	c3.4,2.6,6.7,5.2,8.3,9.2c1.4,3.4,3,6.8,3.6,10.4c1.6,9.5-2,18.5-10.4,23.5c-2.7,1.6-5.6,2.8-8.4,4.2c-1.8,0.9-3.7,1.7-5.5,3.9
	c1.2-0.3,1.7-0.3,2.2-0.6c3.3-1.6,6.7-3.1,9.9-5c2.7-1.5,5.4-3.2,7.7-5.3c1.7-1.5,3.4-2.5,5.5-2.8c4.4-0.6,8.9-1.1,13.3-1.6
	c2.6-0.3,5.1-0.1,7.6,0.4c2.2,0.4,4.5,0.5,6.7,0.2c5.5-0.7,10.9-2.4,16.6-1.9c0.1,0,0.1-0.1,0.4-0.3
	C169.8,124.3,169.2,123.8,168.6,123.8z M118.8,68.8c2.5-1.6,4-1.1,5,1.8c0.3,0.9,0.5,1.9,0.6,2.9c0.7,4.9-0.2,6.2-5.6,7.2V68.8z
	 M93.2,50.7c-0.7,0.2-1.2,0.7-1.8,1.1c0.3,0.4,0.6,1.2,0.8,1.1c0.7-0.1,1.3-0.4,2.3-0.8C93.8,51.3,93.4,50.6,93.2,50.7z M94.5,66.1
	c-2.4-0.1-3.7,1.1-3.7,3.5c0,2.8,0.9,4.2,2.7,4.1c1.8-0.1,3.5-2.2,3.5-4.2C97,67.9,95.7,66.2,94.5,66.1z M98.3,49
	c-0.1,0.1,0.4,0.7,0.5,0.7c0.3-0.1,0.6-0.4,1.3-0.9c-0.6-0.3-0.9-0.6-1.1-0.6C98.7,48.3,98.4,48.6,98.3,49z M85.3,24.7
	c-0.1-0.2-0.1-0.4-0.2-0.5c-0.7,0.2-1.4,0.5-2.1,0.7c0.1,0.2,0.1,0.4,0.2,0.6L85.3,24.7z M92.5,86.5c-1.7,0-2.8,1.5-2.8,3.8
	c0,2.6,1.1,4.3,3,4.4c2.1,0.1,4.1-1.9,4-4C96.7,88.6,94.6,86.5,92.5,86.5z M44.8,125.4c-5,0.5-9.9,1.5-14.8,2.8
	c-2.7,0.7-5.7,0.6-8.6,0.6c-4.2,0-8.5-0.4-12.7-0.2c-3.1,0.1-6,1.2-8.7,2.7c0.1,0.4,0.2,0.8,0.3,1.2c1.1-0.3,2.3-0.4,3.4-0.8
	c4.8-2,9.7-1.8,14.8-1.4c4.8,0.4,9.6,1,14.2-1.3c0.4-0.2,0.9-0.2,1.3-0.3c6.3-1.6,12.7-2.2,19.3-1.4c0.5,0.1,1.1-0.2,2.1-0.4
	C52.6,125.6,47.8,125.1,44.8,125.4z M98.6,41.6c1,0.3,2.2-1.1,2-2.1c-0.1-0.6-0.7-1.2-1.4-2.2c-0.9,1.2-1.7,2-2,2.9
	C97.1,40.5,98.1,41.5,98.6,41.6z M76.9,35.8c-1.1,2.4-1.2,4.8-0.4,7.2c0.7,2.2,1.4,4.5,2.6,6.5c2.7,4.6,6.7,7.1,12.1,7.1
	c3.8,0,7.1-1.6,10.5-3.1c8.1-3.7,10.5-14.1,6.2-20.8c-0.9-1.5-2-2.8-3-4.2c2.8-1.3,5.6-2.6,8.3-3.9c-0.1-0.2-0.2-0.4-0.3-0.7
	c-2.5,0.9-5.1,1.9-7.9,2.9c0-2.6,0-4.7,0-6.8c0-5.1,0.2-10.3,0-15.4c-0.3-4.8-1.7-4.7-4.8-4.5c-4.8,0.3-9.6,0-14.4,0.2
	c-1.9,0.1-3.8,0.5-5.5,1.3c-2.7,1.3-2.8,3.1-0.7,5.3c0.8,0.8,0.6,1.8-0.5,2.3c-0.5,0.2-1.1,0.3-1.7,0.4c2.5,7.1,2.6,14.2,2.1,21.1
	c-3,1.4-5.8,2.7-8.5,4.1c-0.5,0.2-0.7,1-1.4,2.1c3.2-0.7,4.9-3.2,8-3.1C77.3,34.6,77.2,35.2,76.9,35.8z M97.8,2.1
	c0.1,0.1,0.3,0.2,0.4,0.3c-0.4,0.5-0.9,1-1.3,1.5c-0.1-0.1-0.3-0.2-0.4-0.3C97,3.2,97.4,2.6,97.8,2.1z M94.3,25.7
	c0.2,0.1,0.4,0.3,0.6,0.4c-0.7,1.1-1.3,2.2-2,3.2C92.5,27.6,93.6,26.7,94.3,25.7z M81,10.5c2.3,0.5,2.7,1.8,2.7,3.4
	c0.1,1.5,2.4,2.6,0.9,4.6l6.9-9.6c0.3,0.2,0.5,0.3,0.8,0.5c-1,1.6-1.9,3.4-3.2,4.9c-2.2,2.5-3.4,5.1-2.7,9.1
	c0.8-0.9,1.3-1.4,1.8-1.9c0.4-0.5,0.8-1,1.4-1.4c-0.3,1.7-1.5,3-2.5,4.3c-1.2,1.6-2.5,3.1-1.7,5.6c-1.4,0.2-2.6,0.4-4.3,0.6
	C82.2,23.7,80,17.2,81,10.5z M89.3,28.4c0.6,0.1,1.2,0.2,1.8,0.3c0,0.2,0,0.4-0.1,0.6h-1.9L89.3,28.4z M86.5,29.6
	c0.7-3,1.7-4,4.3-4.3C88.8,28.4,88.5,28.8,86.5,29.6z M79.4,34.3c0.8-1.3,1.8-2.2,3.5-2.3c1.6-0.1,3.1-0.4,4.6-0.6
	c5.2-0.7,10.3-1.4,15.8-2.2c3.3,3.5,5.8,7.6,5,13c-0.5,3.5-1.9,6.4-5,8.4c-3.8,2.5-7.7,4.5-12.5,4.1c-3.5-0.3-6.4-1.4-8.6-4.4
	c-1.9-2.7-3.5-5.4-4.3-8.6C77.3,39,78,36.6,79.4,34.3z M57.7,57.6c0.4-1,0.7-1.5,0.9-2c0.1-0.3,0-0.7,0-1c0,0,0,0,0,0
	c1.5-1.6,0.6-3.6,0.5-5.4c-0.3-6-0.9-12-1.3-18c0-0.5,0.1-1.1,0.1-1.6c2.4,7.8,3.4,15.7,1.9,24.2c1.9-1.7,1.3-3.6,1.5-5.1
	c0.2-1.8,0.1-3.6,0.1-5.4c0-1.5,0-3.1,0-4.6c0.9,4.3,1.4,8.6,0.6,13c-0.6,3-1.2,6-4.9,6.7c-0.4,0.1-0.7,0.5-0.4,0.3
	c-0.2,2.8-0.3,4.9-0.4,7c-0.1,1.2-0.3,2.5,0,3.7c0.5,1.8,0.1,3.5,0.1,5.3c0.1,2.3,0.6,4.7,1.6,6.7c0.4,0.8,2.5,0.9,4.2,1.5
	c0.6,4.4,1.3,9,1.8,13.6c1.1,9.5,1.9,19.1,4.1,28.5c0.4,1.7,0.8,3.5,1.2,5.2l0.8-0.1c0.1-1,0.2-2.1,0.1-3.1c-0.3-3.1-0.7-6.2-1-9.3
	c-0.8-8.1-1.5-16.2-2.5-24.3c-0.7-5.5-1.7-11-2.5-16.6c-0.2-1.2-0.2-2.5-0.3-3.7c-0.2-2.2-0.1-2.6,0.2-3.2c0.4-1,0.7-2,1-3.1
	c2,1.7,2.3,2,2.1,4.1c-0.3,5.1,0.4,10,2.5,14.7c-2.1,1.1-2.1,1.1-2,3.6c0.5-0.7,0.8-1.2,1.2-1.5c0.4-0.3,0.8-0.6,1.4-0.9
	c2.2,4.4,5.3,7.2,10.4,7.2c-0.8-0.8-1.7-1.3-2.6-1.9c-1-0.6-2.3-1.1-3.1-2c-4.8-5.6-7-12.3-5.8-19.6c1.1-6.5,4.8-11.7,10.5-15.3
	c0.3-0.2,0.5-0.8,1.1-1.8c-1.3,0.5-2,0.5-2.5,0.9c-3.2,2-5.8,4.5-7.7,7.8c-0.9,1.6-2,2.7-4.1,2.1c-1-2.4-3.6-4.2-2.7-7.2
	c-0.9-0.2-1.5-0.4-2.2-0.6c0.7-1.3,1.4-2.3,1.8-3.3c0.4-1.2,0.4-2.4,0.5-3.6c1-11.7-3.8-21.3-10.5-30.3c-0.2-0.2-0.7-0.3-1.5-0.6
	c1.3,3.5,5.4,5.8,3.1,10.1c-0.6-2.2-1-4.1-1.5-5.9c-0.5,3.7,0.6,7.2-0.4,10.7c-0.7,2.5-1.1,5-1.7,7.5c-1.2,5.2-0.1,10,3.1,14.2
	C55.4,55.9,56.6,56.6,57.7,57.6z M65.4,92.6c0.3,2.1,0.6,4.3,0.8,6.4l-0.6,0.1c-0.3-2.2-0.5-4.3-0.8-6.5
	C65,92.6,65.2,92.6,65.4,92.6z M64.4,63.4c0.3,0.5,0.6,0.9,0.8,1.4c-0.2,0.1-0.5,0.2-0.7,0.4c-0.2-0.5-0.3-1.1-0.5-1.6
	C64.2,63.5,64.3,63.5,64.4,63.4z M58.3,64.8c-0.1,1.5,0.7,3.2-0.4,4.8C57,67.4,57,67.4,58.3,64.8z M60.9,81
	c-0.6-0.4-1.4-0.7-1.8-1.3c-1.4-2.2-1.4-5.1,0.2-9.1c2,3.6,1.3,6.9,2.3,9.9C61.3,80.6,61.1,80.8,60.9,81z M63.8,82.1
	c-1.4-2.5-2.2-8.4-1.3-10.6C62.9,75.1,63.4,78.6,63.8,82.1z M62.3,65.2c-1.2-0.9-0.9-1.9-0.7-3C62.6,63.1,63.1,63.9,62.3,65.2z
	 M55.1,37.1c0.1,1.5,0.2,3,0.2,4.5c0.1,0,0.3,0,0.4,0c0.1-2.3,0.2-4.5,0.3-6.8c0.1,0,0.3,0,0.4,0c0.4,2.6,0.8,5.2,1.1,7.9
	c0.4,3.3,0.7,6.7,1.1,10c0.1,0.6-0.1,1.2-0.2,1.8c-0.6-0.8-1.3-1.5-1.6-2.3C55.1,47.3,54,42.4,55.1,37.1z M53.1,42.5
	c0.8,3.6,1.7,7.2,2.5,10.8C53.2,50.2,51.9,46.7,53.1,42.5z M93.2,83.3c1.4-0.1,2.6-0.6,3.1-2.1c0.5-1.5,0-2.9-1.2-3.8
	c-0.7-0.6-1.7-0.8-3.3-1.6c-0.6,1.9-1.3,3.3-1.5,4.7C90.1,82.3,91.5,83.5,93.2,83.3z M89.6,38.8c-1.3-0.7-2.1-1.4-2.5-1.3
	c-0.7,0.3-1.1,1.1-1.6,1.8c0.5,0.3,1,1,1.5,1C87.7,40.1,88.4,39.6,89.6,38.8z M96.4,51.9c0.3-0.6,0.7-1.1,1-1.7
	c-0.3-0.2-0.9-0.5-1-0.5c-0.4,0.5-0.7,1-1,1.6C95.8,51.6,96.1,51.8,96.4,51.9z M93.6,141.6c-5.6,1.9-11.2,1.7-16.7-0.5
	c-6.9-2.7-13-6.6-16.4-13.6c-2-4.2-3.2-8.6-3.8-13.1c-0.3-2-0.3-4-0.2-6c0.2-4.8,1.4-9.3,4.4-13.2c-0.2-0.2-0.4-0.4-0.6-0.5
	c-0.5,0.3-1.3,0.5-1.4,0.9c-1.3,2.8-2.7,5.7-3.5,8.6c-1.9,7.1,0,14,2.2,20.7c1.3,3.9,3.5,7.3,6.4,10.1c4.8,4.8,10.8,7.4,17.3,8.9
	c5.2,1.2,9.8-0.4,14.7-2.6c-0.6-0.1-0.9-0.2-1.1-0.2C94.4,141.4,94,141.5,93.6,141.6z M93.9,41.1c-3,2.2-6.1,4.4-9,6.8
	c-0.5,0.4-0.3,1.4-0.5,2.3c3.2-1.2,5.7-2.2,8.2-3C96.3,46,96.8,44.3,93.9,41.1z M90.9,45.3c0.8-0.6,1.7-1.3,2.5-1.9
	C93.8,45.8,92.3,45.4,90.9,45.3z"/>
</svg>
