<?xml version="1.0" encoding="utf-8"?>
<!-- Generator: Adobe Illustrator 18.0.0, SVG Export Plug-In . SVG Version: 6.00 Build 0)  -->
<!DOCTYPE svg PUBLIC "-//W3C//DTD SVG 1.1//EN" "http://www.w3.org/Graphics/SVG/1.1/DTD/svg11.dtd">
<svg version="1.1" id="Ebene_1" xmlns="http://www.w3.org/2000/svg" xmlns:xlink="http://www.w3.org/1999/xlink" x="0px" y="0px"
	 width="129.1px" height="150.1px" viewBox="0 0 129.1 150.1" enable-background="new 0 0 129.1 150.1" xml:space="preserve">
<path fill="#232323" d="M115.5,52.3C115.5,52.3,115.5,52.2,115.5,52.3C115.5,52.2,115.5,52.2,115.5,52.3L115.5,52.3z M128.5,38.6
	c-2.3,1-1.5,2.5-1.4,3.7c0.5,8.2-2.3,15.6-5.3,22.9c-0.4,1-1.5,2.2-2.5,2.4c-4.3,1-8.7,0.7-13-0.4c2.5-0.5,5.1-0.6,7.6-1.3
	c2.2-0.6,5-1.3,6.2-2.9c2.6-3.7,4.5-7.9,4.3-12.7c0-0.2-0.3-0.4-0.7-1.1c-2.5,0.6-5.2,1.3-7.9,2c-0.1,0-0.1,0.6-0.2,0.9
	c1.6-0.4,3.2-0.8,5.5-1.4c-0.8,0.7-1,0.9-1.2,1c-2.2,1.1-4.7,1.3-6.4,3.6c-1,1.5-4.4,1.3-5.8,0.4c-0.9,1.3-0.4,2.2,0.7,3
	c1.2-0.7,2.5-1.4,3.7-2.2c-1.9,2.4-1.9,2.4-3.8,2.2c0,0.6,0,1.2,0,1.9c0.4,0,0.8,0.1,1.5,0.1c-1.2,1.3-2.3,1.6-3.6,0.7
	c-1.3,2.6-3,4.7-6.3,4.6c-1,0-2.1,0.1-2.9,0.6c-1.7,1.2-3.7,1.2-5.6,1.6c-5.2,1-10.4,2.2-15.5,3.5c-4.2,1.1-8.3,2.6-12.4,3.8
	c-1.1,0.3-2.3,1.1-3.4-0.2c-9.3,4-19.2,5.5-29.1,6.5c-4.5,0.4-9.1-0.7-13.6-1c-3.4-0.2-6.5-1-9.6-2.4c-5-2.2-7.8-8.5-3.6-13.5
	c2-2.4,4.1-4.6,6.3-6.7c0.6-0.6,1.8-0.6,2.7-0.9c1-0.4,2-0.8,3-1.3c-0.4,1.5-1.7,1.4-2.8,1.5c-1.4,2-2.5,4.3-4.2,6.1
	c-1.1,1.1-1,2-0.8,3.3c9.9-3.9,15.9-12,21.7-20.5c14.6,5.8,30,7.2,45.6,10.6c-0.8,1.3-1.5,2.6-2.3,3.7c-1,1.3-1.5,2.6,0.2,4.1
	c-11.3,5.7-22.2,11.7-34.8,13.2c-4.5,0.5-9.1,0-13.7,0c-0.5,0-0.9,0-1.6,0.6c0.6,0.4,1.1,1.1,1.7,1.1c7.3,0.5,14.5,0.7,21.6-1.6
	c9.9-3.2,19.4-7.5,28.4-12.6c5-2.8,10-5.8,15.1-8.7c0.6-0.3,1.3-0.5,2-0.5c-8.5,6.6-18.2,11.2-27.2,16.8c0.9-0.2,2-0.3,2.8-0.7
	c4.2-2.1,8.5-3.9,12.5-6.4c8-4.9,15.9-10.1,23.6-15.4c5.6-3.8,11.5-6.7,18.2-8c0.6-0.1,1.2-0.5,1.8-0.8c-4.5-1.1-8.2,1.3-12.3,1.9
	c4.2-2.4,8.6-4.1,14-4.9c-3.8-1.9-6.6,0.2-9.8,0.3c0-1.2,0-2.3,0-3.4c-0.1-3.8-0.1-7.7-0.5-11.5c-0.2-1.6,0-2.8,0.7-4.2
	c2.7-5.3,5.4-10.6,8-15.9c0.6-1.3,0.9-2.6,1.6-4.6c-6.1,3.1-11.5,5.8-16.9,8.4l0,0c-1.8,2-3.5,4-5.3,6c-2.4-1.6-4.3-1.5-5.6,0.9
	c-1.4,2.4-2.4,5.1-3.7,8.1c-0.5-1-1-2-1.3-2.7c-3.9,1.9-5.5,4.3-7.1,9.7c-2.4,0-4.1,1.2-4.7,3.4c-0.7,2.6-1,5.3-1.5,8
	c-0.2,1.3-0.4,2.6-0.5,3.9c-9.7-0.4-36.4-8-43.3-11.5c0.4-2,0.6-4,1.2-6c1.9-6.5,2.6-13.4,6.7-19.1c1.3-1.9,2.6-3.5,4.9-4.3
	c0.8-0.3,1.6-0.9,2.4-1.4c-0.1-0.2-0.3-0.5-0.4-0.7c-3.3,0.4-6.3,1.8-8,4.8c-2,3.4-3.6,7-4.9,10.7c-1.1,3-1.7,6.2-2.4,9.3
	C34,34.1,31.7,40.3,28.1,46c-0.6,0.9-1.4,1.7-2.3,2.2c-3.4,1.7-7,3.1-10.4,4.9c-5.5,3-10.1,7-13.7,12.2c-3.5,5-1.3,11.9,3.8,14.7
	c1.8,1,3.8,1.9,5.9,2.2c4.4,0.7,8.8,1.2,13.2,1.5c2.4,0.2,4.9,0.1,7.4-0.1c14.9-1.3,29.2-5.2,43.3-9.7c7.4-2.4,15-4.1,22.9-4.2
	c6.2,0,12.3-0.1,18.5,0c4,0,6.6-2.1,7.9-5.6c1.5-4.2,2.9-8.4,3.8-12.8c0.7-3.1,0.7-6.4,0.8-9.6C129.2,40.8,128.8,39.7,128.5,38.6z
	 M121.1,56.5c-0.4,1-0.7,1.8-1.1,2.7c-0.4-0.2-0.7-0.3-0.7-0.4C118.9,57.4,118.8,56.3,121.1,56.5z M116,63c0.1,0.2,0.2,0.5,0.3,0.7
	c-0.8,0.3-1.6,0.7-2.4,1c-0.1-0.2-0.2-0.5-0.3-0.7C114.4,63.6,115.2,63.3,116,63z M108.7,64.5l0.1,0.6h-2.5c0-0.1,0-0.2,0-0.3
	C107.1,64.7,107.9,64.6,108.7,64.5z M37.4,47.6c-0.1-0.3-0.2-0.6-0.3-0.9c1.4-0.5,2.9-1,4.3-1.5c0.1,0.2,0.2,0.4,0.3,0.6
	C40.2,46.4,38.8,47,37.4,47.6z M76.6,63.4c1.9-5.1,2.9-5.8,7.5-5C81.4,60.1,79.2,61.6,76.6,63.4z M77.6,54.9
	c2.6-1.1,5.3-2.1,7.9-3.2C83.5,54.2,80.9,55.6,77.6,54.9z M82.6,56.5c-0.1-0.2-0.2-0.5-0.3-0.7c1.6-0.8,3.1-1.5,4.7-2.3
	c0.1,0.2,0.2,0.4,0.3,0.6C85.6,54.9,84.1,55.7,82.6,56.5z M96.3,54.1l-0.5-0.7c1.7-1.1,3.4-2.1,5.1-3.2c0.1,0.3,0.3,0.5,0.4,0.8
	C99.7,52,98,53.1,96.3,54.1z M114.3,39.2c0,0.8-0.9,1.7-1.6,2.2c-3.5,2.1-7,4.1-10.5,6.2c-1.6,1-3.1,1-5.1,0.7
	c1.5-2.7,5.2-2.3,6.2-5.4c-0.7-0.4-1.3-0.8-1.9-1.1c1.2-1.3,2.5-2.6,3.6-4.1c0.8-1.1,1.8-2.2,2.1-3.4c0.8-3.8,3.9-5.7,6-9.2
	C114.6,30.1,114.6,34.7,114.3,39.2z M84.2,32.5c0.9,1.1,1.7,2.1,3,3.7c0.3-3,0.4-5.3,0.9-7.4c0.5-2.2,1.5-4.1,3.3-5.5
	c0.4,0.1,0.7,0.2,0.8,0.3c0.8,0.9,1,3,2.7,2.3c0.8-0.3,1.1-1.9,1.6-3c0.9-2,1.6-4.1,2.6-6.1c0.3-0.7,1.1-1.1,1.9-1.9
	c0.7,1.4,1.2,2.4,1.9,3.7c0.7-0.6,1.6-0.9,1.7-1.4c0.9-3.4,3.5-5.4,6.2-7.1c3.6-2.3,7.4-4.3,11.7-6c-0.8,1.8-1.6,3.7-2.5,5.5
	c-3,5.8-5.8,11.8-9.9,17c-2.2,2.8-4.6,5.2-7.7,6.9c-0.7,0.4-1.1,1.1-2.1,1.9c1.4,0.2,2.2,0.3,3.3,0.4c-1.3,3.4-4.4,4.4-7.4,6
	c1,0.8,1.7,1.5,2.6,2.3c-0.2,0.2-0.4,0.5-0.7,0.7c-2.9,2.5-6,4-10,2.8c-2.2-0.7-4.6-0.7-7.2-1.1C81.9,41.7,80.5,36.7,84.2,32.5z
	 M81.8,51c-1.5,2-3.4,3-6,2.5C77.8,52.6,79.8,51.8,81.8,51z M70.3,54.4c-0.1-0.2-0.2-0.5-0.3-0.7c2.6-1.1,5.2-2.2,7.8-3.3
	C75.6,52.5,73.1,53.8,70.3,54.4z M74.2,49.9c-1.9,1.3-3.7,2.6-5.7,3.8c-0.6,0.4-1.6,0.1-2.5,0.1c0-0.3-0.1-0.6-0.1-0.9
	c2.7-1.1,5.4-2.2,8.1-3.3C74.2,49.7,74.2,49.8,74.2,49.9z M60.7,52.3c4.5-2,8.7-3.9,12.9-5.7C71.1,50.4,64,53.4,60.7,52.3z
	 M66.1,45.7c-2.2,2.3-9.3,5.5-12.3,5c3.9-1.8,7.8-3.5,11.7-5.3C65.6,45.3,65.9,45.6,66.1,45.7z M62.1,45.3c-3.2,1.5-6.4,3-9.7,4.6
	c-0.1-0.3-0.3-0.5-0.4-0.8c3.2-1.5,6.4-3,9.7-4.5C61.9,44.8,62,45.1,62.1,45.3z M53.4,43.5l0.5,0.9c-2.7,1.4-5.3,2.7-8,4.1
	c-0.1-0.3-0.3-0.6-0.4-0.8C48.1,46.2,50.8,44.8,53.4,43.5z M42.2,38.4c-1.8,2.6-4.6,4-8,3.8C36.7,41,39.1,39.8,42.2,38.4z
	 M13.9,61.8c-0.1-0.3-0.3-0.5-0.4-0.8c1.1-0.6,2.3-1.1,3.4-1.7c0.2,0.3,0.4,0.5,0.6,0.8C16.3,60.6,15.1,61.2,13.9,61.8z M22.6,53.1
	c-1.9,1.5-3.8,3-6.3,3.2C18,54.4,20.4,54,22.6,53.1z M101.8,5.4c-5.1-1.9-10.6-2.2-15.9-3c-9.3-1.5-18.7-1.2-28.1-0.8
	c-1.1,0-2.2,0.1-2.8,1.7c0.9,0.1,1.6,0.2,2.3,0.2c6,0,12.1-0.4,18.1-0.1c10,0.4,19.9,1.5,29.5,4.7c1.2,0.4,2.6,0.2,3.9,0.3
	c0,0,0,0,0,0C106.5,7.4,104.2,6.3,101.8,5.4z M115.5,52.3C115.5,52.3,115.4,52.2,115.5,52.3C115.4,52.2,115.4,52.2,115.5,52.3
	C115.4,52.3,115.5,52.3,115.5,52.3z M111.7,53c1.3-0.3,2.5-0.5,3.7-0.7C114,51.8,112.8,51.7,111.7,53z M88.7,42.5
	c4.7-6.2,9.3-12.5,14.1-18.9c-4.9,3.1-14.4,15.5-14.5,18.8C88.4,42.4,88.6,42.5,88.7,42.5z M98.6,122.3c0.2,7.2-2.8,11.5-8.2,14.4
	c-1-0.7-2-1.3-2.8-1.9c-1.4-1-2.8-1.1-4.1,0.1c0,0,0,0,0,0c-1.1-0.5-1.6-1.2-1.5-2.4c0.9-0.1,1.6-0.3,2.7-0.4c-3-1.6-5.4-1.9-8.4-1
	c-2.2,0.7-4.7,0.3-7.1,0.4c-1.2,0-2.5-0.5-3.5-0.1c-2.1,0.9-4.2,0.7-6.4,0.8c-1.6,0.1-3.5,0.2-4.9,1c-2.7,1.5-5.1,3.5-8.2,5.6
	c-2.2-0.8-4.9-1.9-7.3-3.9c-2.6-2.1-2.5-5.2-2.5-8.9c-2,1.9-2.6,3.7-3.2,5.4c-1.5,4.4-1.7,8.5,2.4,11.8c0.4,0.3,0.7,0.7,1,1
	c3,3,6.3,5.3,10.9,4.5c0.7-0.1,1.4,0.1,2.1,0.2c0,0,0,0,0,0c0.9,0.4,2,1.3,2.8,1.1c1-0.2,1.8-1.3,2.7-2.1c2,1.6,3.5-0.3,5.5-0.9
	c1.4,1.4,3.2,1.4,5.1,0.4c0.8-0.4,1.8-0.7,2.8-0.7c3.3,0,6.5-0.9,9.9-0.6c3.2,0.3,6.4-0.1,9.3,1.3c0.6-0.7,1-1.1,1.6-1.8
	c0.7,1.2,1.3,2.2,2,3.4c1-1.3,1.8-2.4,2.6-3.5c5.8-0.7,9.2-3.2,10.6-7.9c0.9-2.8,0.5-5.7-0.3-8.6
	C103.4,126.1,100.6,125.2,98.6,122.3z M34.7,138.1c-0.1-1-0.3-2-0.4-3c0.2,0,0.5-0.1,0.7-0.1c0.2,1,0.3,1.9,0.5,2.9
	C35.4,138,35.1,138,34.7,138.1z M44.3,139.4c0.7,0.1,1.4,0.3,2.1,0.4c-0.1,0.3-0.2,0.6-0.3,0.9c-0.6-0.3-1.3-0.5-1.9-0.8
	C44.2,139.8,44.3,139.6,44.3,139.4z M39.4,138.9c1.9,1.9,5,1.8,7.2,4.1C42.7,143.3,40.8,142.2,39.4,138.9z M43.6,144.6l2,0.2
	c-0.1,0.3-0.1,0.6-0.2,0.9c-0.6-0.2-1.3-0.4-1.9-0.5C43.5,144.9,43.6,144.7,43.6,144.6z M47,148.2c-1-0.3-2-0.5-3.1-0.8
	c0-0.3,0.1-0.6,0.1-0.9c1.1,0.3,2.1,0.5,3.2,0.8L47,148.2z M49.6,148.8c-0.4-0.8-0.9-1.5-1.5-2.5C50.1,146.7,49.9,147.7,49.6,148.8z
	 M51.2,143.8c0.6-3.2,2.5-5.5,4.7-7.6c-1,3.7-5.6,6.1-3.1,10.8C50.8,145.8,50.9,145.8,51.2,143.8z M53.5,145c-0.5-2.5,1.1-4,2.5-5.9
	C56.2,143,55.9,143.7,53.5,145z M58.5,145.3c0.5,1.2-0.1,2.2-1.9,1.4c0.4-4.9,1.5-9.5,5.7-12.8c-1,2-2.1,3.9-3,5.9
	C58.6,141.5,57.6,143.2,58.5,145.3z M62.9,144.1c-1.2,0.3-2.2,0.6-3.3,0.9c-0.6-3.5,1.5-5.7,3.7-8.1C63.1,139.3,63,141.7,62.9,144.1
	z M66.8,142c0.4-1.7,0.6-3.6,0.7-5.4c0-0.7-0.4-1.4-1.2-2c-0.5,4-1,8-1.4,12.1c-1.2,0.4-2.1,0.3-1.8-1.2c0.9-4.1,1.8-8.2,2.9-12.6
	c0.7,0.1,1.7,0.2,2.6,0.3c1.1,4.1,0.5,7.9-0.1,11.7C67,144.4,66.3,143.7,66.8,142z M73.1,143.9c-1.3,0.2-3.4-1-2.6,2.2
	c-1-0.6-1.5-0.9-1.9-1.2c2.3-2.3,2.2-5.3,2.4-8.3c0-1,0-2,0.3-3C72.7,136.8,73.6,140.1,73.1,143.9z M74.9,142.7
	c-0.2-1.8-0.4-3.6-0.6-5.5C75.6,138.9,75.9,140.3,74.9,142.7z M77.6,142.8c-0.6-2.7-1.2-5.7-1.8-8.8c3.5,0.7,5.4,3.8,5.8,9.8
	C80.1,143.4,79,143.1,77.6,142.8z M86.3,145c-0.6-2.1-1.1-3.7-1.5-5.3c-0.4-1.5-0.9-3.1-1.3-4.6C86.8,137.2,87.9,140.6,86.3,145z
	 M89.3,139.7c0.7,1.2,1.5,2.4,2.5,4.2C89,142.8,89,142.8,89.3,139.7z M98.9,133.9c-1.5,2.6-3.6,4.2-6.8,4.2
	C94.4,136.7,96.7,135.3,98.9,133.9z M93.9,143.7c-0.1-0.4-0.2-0.8-0.3-1.1c2-0.5,3.9-1,6.5-1.7C98.1,143.2,96.2,144.2,93.9,143.7z"
	/>
</svg>
