<?xml version="1.0" encoding="utf-8"?>
<!-- Generator: Adobe Illustrator 18.0.0, SVG Export Plug-In . SVG Version: 6.00 Build 0)  -->
<!DOCTYPE svg PUBLIC "-//W3C//DTD SVG 1.1//EN" "http://www.w3.org/Graphics/SVG/1.1/DTD/svg11.dtd">
<svg version="1.1" id="Ebene_1" xmlns="http://www.w3.org/2000/svg" xmlns:xlink="http://www.w3.org/1999/xlink" x="0px" y="0px"
	 width="207.3px" height="244.3px" viewBox="0 0 207.3 244.3" enable-background="new 0 0 207.3 244.3" xml:space="preserve">
<path fill="#232323" d="M81.4,151.4C81.4,151.5,81.4,151.5,81.4,151.4L81.4,151.4L81.4,151.4C81.4,151.5,81.4,151.5,81.4,151.4
	C81.5,151.5,81.5,151.4,81.4,151.4C81.5,151.4,81.4,151.4,81.4,151.4z M206.1,217.9c-1.8-2.1-3.7-4.2-5.9-6
	c-4.7-3.9-9.1-8.3-12.3-13.4c-3.7-5.9-6.9-12.1-10-18.3c-1.5-3-2.5-6.3-4-10.2c0.1,4.4,0.8,7.8,2.4,10.9c2.1,4.3,4.4,8.5,6.6,12.6
	c4.5,8.3,10.3,15.3,17.8,21.1c1.7,1.4,3.6,2.8,4.5,5.7c-3.5-0.9-6-2.4-8.2-4.6c-2.1-2.2-4.1-4.5-6.2-6.8c-0.4,0.2-1.1,0.4-1.7,0.7
	c-0.7-0.8-1.3-1.5-2-2.2c0.3,0.7,0.3,1.6,0.8,1.9c3.2,1.9,4.1,5.3,5.7,8.2c0.7,1.3,1.1,2.9,1.6,4.3c-2.4-2.3-4.2-4.8-6.1-7.3
	c-0.4-0.5-1.1-0.7-2.2-1.2c2,5.9,4.5,10.8,5.8,16.2c-1.5-1.5-2.8-3.2-3.7-5c-1.4-2.7-2.5-5.6-3.8-8.3c-0.8-1.6-1.6-3.2-2.7-4.7
	c-6.2-8.5-11.7-17.4-13.3-28.1c0-0.3-0.4-0.5-0.9-1.2c0,1.1-0.1,1.7,0,2.3c1,7.7,4.5,14.4,8.5,20.8c1.6,2.6,3.7,4.9,5.1,7.5
	c1.9,3.9,3.4,8.1,5,12.1c0.9,2.3,2.2,4.5,1.5,7.4c-3.1-4.7-6.3-9.3-9.4-14c-0.2,0-0.5,0.1-0.7,0.1c-0.2,2.3-0.5,4.6-0.8,7.5
	c-0.9-1.6-1.6-2.7-2.6-4.4c-0.9,2.1-1.6,3.7-2.4,5.5c-1.2-1.5-2.2-2.8-3.5-4.6c-1,3.3,1.1,6.5-1.7,8.8c-3-3.2-3-8.5-7.5-11
	c-1.3,4.2,1,8.1-0.4,12.8c-1.1-3-1.9-5.1-2.7-7.3c-0.2,0.1-0.5,0.1-0.7,0.2c-0.3,2.4-0.6,4.7-0.9,7.4c-2.2-2.3-0.6-5.5-3.3-7.4
	c-0.7,2.5-1.3,4.6-1.9,6.7c-0.2,0-0.5,0-0.7,0c-0.9-2.6-1.8-5.2-2.8-7.9c-0.3,0-0.5,0.1-0.8,0.1c-1,4.7-2,9.5-3.1,14.2
	c-0.3,0-0.6-0.1-0.9-0.1c-0.1-3-0.1-6-0.3-9c-0.4-5.6-0.8-11.2-1.4-16.8c-0.1-1,0.1-2.5-1.9-3.2c0.1,1.3,0.1,2.4,0.3,3.4
	c0.3,2.4,0.8,4.8,1.1,7.2c0.1,0.9-0.2,1.9-0.5,2.8c-0.4,1.4-1.2,2.6-1.5,4c-0.6,2.4-1,4.9-1.5,7.3c-0.3,0-0.6-0.1-0.8-0.1
	c0-1.2,0-2.3,0-3.5c0.1-3.8,0.2-7.6,0.2-11.4c0-0.8-0.3-1.6-0.5-2.4c-2.5,5.9-1.8,12.4-4.7,18.3c-3-3.2-0.9-7.3-3.2-10.6
	c-1.1,1.6-2,2.9-3,4.3c-0.7-2,0.4-3.9-1.4-6c-1.1,2.6-2.1,4.8-3,7.1c-0.4-2-0.5-3.7-0.4-5.5c0.1-1.7,0.7-3.4,0.8-5
	c0.1-1.6,1.4-3.3,0-5.6c-1.5,4.2-2.8,7.8-4.1,11.4c-1.3,3.5-1.6,7.5-4.1,10.9c-0.9-4.7,2.5-8.7,0.5-13.8c-1.6,3.4-2.9,6.2-4.2,9.1
	c-0.7-4.2,0.8-7.9,2-11.5c2.5-7.1,5.1-14.3,6.4-21.7c0.4-2.4,0.8-4.9,1.2-7.3c-0.3-0.1-0.6-0.1-0.8-0.2c-0.8,1.6-0.9,3.4-1.2,5.1
	c-1.1,7.4-3.1,14.6-5.8,21.5c-0.3,0.8-0.5,2-1.1,2.2c-1.7,0.7-1.6,2.3-2.2,3.5c-1.3,2.9-2.7,5.8-4.1,8.8c0-3.2,0.6-6.1,1.2-9.1
	c0.6-3,1.2-6,1.7-9c0.4-2.8,1.9-5.6,0.6-8.6C102.1,216.6,96,226,91,236.1c-0.2-2-0.1-3.9,0.3-5.7c0.8-4.1,2-8,4-11.7
	c0.6-1.1,1.3-2.4-0.6-3.9c-3.9,6.2-7.7,12.3-11.5,18.4c0.3-3,1.2-5.7,2.1-8.5c0.5-1.5,1.2-2.9-0.5-4.6c-2.3,3.6-4.4,7-6.6,10.4
	c-0.2-0.1-0.4-0.2-0.7-0.3c0.7-1.6,1.5-3.2,2.1-4.8c0.6-1.6,1.8-3.2,0.2-5.1c-2.2,3.3-4.2,6.5-6.2,9.6c0.3-2.3,1.2-4.2,1.9-6.2
	c1.4-3.5,1.4-4.5,0.1-6.1c-3,4.5-6.1,9.1-9.4,14.1c-0.1-1-0.3-1.3-0.2-1.5c3.6-6.4,5.7-13.4,9.1-19.9c3.4-6.4,5.8-13.4,8.5-20.2
	c1.5-4,2.7-8.1,3.9-12.1c0.3-0.9,0.6-2.1-1.1-2.7c-0.8,5.6-2.2,11-4.9,15.9c1.2-5.8,3.2-11.4,3.4-17.3c-0.2,0-0.5-0.1-0.7-0.1
	c-2.3,8.6-4.6,17.2-6.9,25.8c0.4-0.2,0.9-0.6,1.9-1.2C75,210.9,68,221.3,59,230.3c2.4-4.2,5.1-8.2,7.6-12.3c3.5-5.7,4.9-10.5,4-13.5
	c-2.2,1.2-2.8,4.3-5.5,4.8c2.7-3.5,5.4-6.9,8-10.4c3.3-4.6,5.8-9.6,6.8-15.3c0.9-5,2-10,2.8-15.1c0.3-1.6,0.8-2.1,2.6-1.5
	c0,1.2-0.1,2.4,0,3.6c0.2,3.5,2.5,4.8,5.8,3.8c2.4-0.7,3.1-2.9,4.2-4.6c0.9,0,1.6-0.1,2.3,0c0.6,0.1,1.2,0.4,1.8,0.4
	c2.4,0.2,4.3-1.2,4.7-4c0.3-1.9,1.5-2.5,2.8-2.9c0.5-0.2,1.6,0.5,2,1.1c0.8,1.4-0.1,2.5-1.1,3.5c-0.1,0.1-0.2,0.2-0.3,0.3
	c-2.3,1.9-3.2,4.5-3.5,7.4c-0.1,1.3-1,2.6-1.6,4.1c-3.9-2.1-5.5-5.3-6.5-9c-0.5,0.9-0.9,1.8-0.7,2.6c0.8,3.1,0,6-0.7,9
	c-0.5,2.4-1.2,4.7-1.9,7.1c-1.1,3.8-2.1,7.6-3.2,11.5c0.9-1.7,2-3.4,2.5-5.3c1.8-5.8,3.3-11.6,5-17.7c2.3,1.4,3.9,5.1,6.9,2.7
	c1.3,1.7,2.4,3.3,3.7,4.6c1.3,1.3,2,1,3.1-0.7c0.5-0.8,1-1.8,1.8-2.2c2.4-1.1,3.3-3.1,3.9-5.4c-0.6-1.2-1.1-2.4-1.6-3.5
	c1.2-1.3,2.1-2.4,3.1-3.4c2-1.7,4.5-0.9,5,1.6c0.2,1.3,0.2,2.7-0.1,4c-0.8,3.3-1.7,6.5-2.7,10.1c-2.8,0.9-3.1-2.7-5.1-4.1
	c0.9,5.5,3.1,6.8,7.7,5c2.6,4.2,4.7,4.6,8.5,1.2c-0.8-1.5-2-3.2,0-4.7c2-1.6,1.6-3.3,0.5-5.2c-0.5-1-1-2-1.3-2.6
	c1.8-1.2,3.1-2.1,4.4-3c2.6-1.6,4.5-0.6,4.6,2.5c0.1,2.9,0.2,5.8,0.3,8.7c0,0.9-0.1,1.9-0.2,2.7c-2.5,1.2-4.3-0.4-6.9-1.1
	c1.1,2,2.7,2.8,4.1,2.9c1.8,0.1,3.7-0.6,5.8-1c0.8,0.8,1.9,1.2,3.6,0.4c2.8-1.3,5.1-2.8,5.5-5.7c2.7-0.7,5.1-1.3,7.7-2
	c1.1,0.4,2.6,1.1,4.1,1.6c2.2,0.6,2.8,0,2.7-2.3c0-1,0.2-2.1,0.6-3c0.8-1.9,2.6-2.4,4.5-2.7c1.4-2.7,1.8-5.9,4.7-7.8
	c0.7-0.5,1.1-1.6,1.4-2.5c0.8-2.7,0.3-5.8,2.2-8.3c0.2-0.2,0.1-0.7,0-1.1c-0.6-2.8-1.1-5.7-1.8-8.5c-0.3-1.4-1.1-2.4-2.7-2.6
	c-1.7-0.2-2.6,0.4-3.6,1.8c-1.4,2.1-2.2,4.6-5,5.9c-1.3,0.6-2.4,2.9-2.6,4.6c-0.3,2.7-1.7,4.2-3.7,5.4c-2,1.2-3.9,2.4-4.5,4
	c-2,1-3.5,1.8-5,2.5c-0.6,0.3-1.3,0.9-1.9,0.8c-3.4-0.5-5.9,0.8-8,3.5c-3.4-2.8-6.1-0.5-8.8,1.3c-0.4-3-0.4-3-3-2.8
	c-1.4,0.2-2.8,0.5-4.4,0.7c-1.6-3.4-4.4-3.4-7.7-2.1c-1.2-3.2-4-1.7-6.2-2.3c-0.3-1.9-1.3-3.1-2.8-4.4c-2-1.8-3.7-3.7-6.2-4.8
	c-0.4-0.2-0.7-0.7-0.8-1.1c-0.8-2.9-2.9-4.1-5.6-4.5c-0.6-0.1-1.1-0.5-1.9-0.9c0.4-0.9,0.7-1.6,1-2.3c0.3-0.9,0.7-1.8,0.6-2.7
	c-0.1-0.7-0.9-1.5-1.5-1.9c-2.2-1.2-4.4-0.8-6.5,1.4c0.2-3.1-0.4-5.4-3.5-6.6c-2.8-1-5.4-0.2-5.3,2.7c0.1,2.6-0.9,4.6-1.4,6.9
	c-0.1,0.5-0.2,1.1,0,1.4c1,1.6,0.1,2.9-0.3,4.4c-1.2,3.9-0.4,5.9,3.4,8c0.9-0.8,2-1.6,2.8-2.5c1.3-1.5,2.9-2.5,4.7-2.4
	c3.1,0.1,5.4-0.8,6.7-3.8c1.3,0.4,2.4,0.5,3.4,1c1.4,0.6,1.9,1.9,1.5,3.4c-0.3,1.3-1.3,1.7-2.6,1.5c-0.4,0-0.7,0-1.1,0
	c-2.3-0.3-4,0.6-5.1,2.7c-1.3,2.3-3.6,3-6.3,3.3c-0.3-1.5-0.5-2.7-0.8-4c-1.2,3.6-2,7.2-2.7,10.8c-1.1,5.1-1.9,10.3-3.4,15.3
	c-2.3,7.8-6.7,14.3-12.4,20c-1.7,1.7-3.3,3.4-3.6,6.1c3,0.5,4.3-2.6,7-3c-0.7,4.4-3,7.5-5.1,10.8c-2.9,4.5-6.1,8.8-9.1,13.3
	c-0.4,0.5-0.2,1.5-0.2,2.2c0.8-0.2,1.7-0.1,2.2-0.5c1.6-1.5,3-3.2,4.5-4.8c2-2.2,3.9-4.5,5.9-6.8c0.2,0.1,0.5,0.3,0.7,0.4
	c-2.4,5-4.8,10.1-7.2,15.1c0.3,0.2,0.5,0.3,0.8,0.5c2.8-1.9,4.6-4.8,6.5-7.5c1.9-2.8,3.7-5.6,5.5-8.4c0,3.8-2.8,6.7-2.3,10.6
	c0.6-0.1,1.1,0,1.2-0.2c1.2-1.5,2.4-3,3.6-4.5c1,1.5-1.5,3.3,0.5,4.8c3.2-1.2,3.7-4.8,6.2-6.8c-0.1,3.9-2.8,7.3-2,11.4
	c1.8-0.1,2.5-1.2,3.1-2.4c1.2-2.3,2.3-4.6,3.6-6.8c1.2-2,2.5-4,3.8-5.9c-0.4,5.4-2.3,10.4-0.9,16.5c4-3.6,4.9-8,7-11.7
	c2.1-3.7,3.9-7.6,5.8-11.5c-0.3,6.8-3.2,13.2-2.6,20.5c3.4-2.1,3.2-6.2,5.7-8.5c0.7,2.2-1,4.5,0.8,6.4c2.4-1.2,2.5-3.8,4-6.2
	c0.3,4-1.5,7.4,0.7,11.4c0.9-1.4,1.6-2.4,2-3.4c1.1-2.8,2.1-5.7,3.2-8.6c0.2-0.6,0.6-1,1.1-1.8c0.6,2.6-0.6,5.1,1.6,7.5
	c1-1.9,1.9-3.4,3-5.2c0.2,1.7,0.3,3.1,0.5,4.6c2.9-0.8,2.2-3.7,3.8-5.1c1.3,2.9,0.1,6.8,3.5,8.7c2.7-1.9,2.9-4.9,3.8-7.8
	c0.7,3.2-0.8,6.4,1.8,9.1c2.8-2.7,1.7-6.3,3.5-9.5c-0.1,5.3,1.7,9.5,4.3,14.4c1.9-4.7,1.3-9.2,3.3-13.2c1,1.7,1.9,3.2,3,5.2
	c1.2-1.7,2-2.9,2.8-4c0.9,1.5,1.8,2.8,2.6,4.2c0.3-0.1,0.5-0.1,0.8-0.2c0.4-1.4,0.8-2.8,1.2-4.3c1.1,1.6,2.1,3.2,3.4,5.1
	c3-4.2,0-8.4,1.3-12.7c2.8,3.1,2.4,7.8,6.6,9.8c0.9-2.2,1.7-4.2,2.5-6.2c0.9,0.9,1.8,1.8,3.1,3c0.3-2.2,0.5-3.8,0.8-5.3
	c0.2-0.1,0.5-0.1,0.7-0.2c1.1,1.9,2.2,3.8,3.5,6c1.8-2.9-0.6-5.8,1.1-8.5c3.3,3.9,5.1,9,9.5,12.7c0.8-1.7,1.4-2.9,2-4.2
	c0.9,0.7,1.7,1.4,2.6,2.2c2.6-4.2-0.9-7.4-1.5-11.3c1.8,2,3.3,3.7,4.8,5.4c1.8-1.9,0.6-3.3,0.1-4.8c-0.5-1.5-1-3-1.5-4.6
	c3.6,2,6.7,4.1,10.7,4C208,220.8,207.1,219.2,206.1,217.9z M174.8,144.1c0.6,0.8,1.7,1.6,1.7,2.4c0.2,3.1,1.5,6.2,1.3,9.9
	C170.4,153.4,169.4,148.7,174.8,144.1z M166.3,158.5c3,0.3,4.4,1.9,4.8,5.4c0.2,1.7,0.2,3.3,0.1,5c-0.1,1.8-0.8,3.3-2.9,3.9
	c-0.3-0.1-0.5-0.1-0.6-0.1c-2.9-1.6-4.5-3.6-3.5-7.2c0.3-1.2-0.2-2.6-0.5-3.9C163.3,159.4,164.2,158.3,166.3,158.5z M159.8,162.5
	c0.2,0.2,0.4,0.4,0.6,0.6c-1,1.1-1.9,2.1-2.9,3.2c-0.2-0.2-0.5-0.4-0.7-0.6C157.8,164.5,158.8,163.5,159.8,162.5z M149.9,175.6
	c0.4-2.1,0.5-4.3,1-6.4c0.4-1.6,2.1-2.4,4.3-2.1c0.5,3,0.5,6,2.3,8.7c0.4,0.5,0,1.9-0.4,2.5c-0.8,1.2-4.1,1.8-5.3,1
	C150.6,178.6,149.5,177.5,149.9,175.6z M142.5,184.7c0.5-3.1,3-4.4,5.2-6C146.8,181.5,144.5,183,142.5,184.7z M142.7,178.4
	c1.3-3.3,3.7-4.4,5.3-6.3c0.2,0.2,0.3,0.3,0.5,0.5C146.8,174.3,145,176,142.7,178.4z M147.6,169.6c0.2-0.1,0.8,0.4,1.5,0.7
	c-0.9,0.5-1.5,0.9-2.1,1.2C146.2,170.6,147,170,147.6,169.6z M146.9,171.6c-1.6,1.5-3.2,2.9-4.9,4.4
	C143,173.8,144.1,171.8,146.9,171.6z M128.4,186.7c-0.4,0.5-0.8,1-1.2,1.4l-0.6-0.5c0.4-0.5,0.8-0.9,1.2-1.4L128.4,186.7z
	 M127.1,181.1c0.2,0.2,0.4,0.4,0.5,0.5c-0.7,0.7-1.5,1.3-2.2,2c-0.1-0.1-0.3-0.3-0.4-0.4C125.7,182.5,126.4,181.8,127.1,181.1z
	 M106.5,180.1c-1.4-0.8-1.5-2.1-0.6-3c0.5-0.5,1.8-0.4,2.9-0.6C108.1,177.7,107.3,178.9,106.5,180.1z M112.9,168.1l0.6,0.6
	c-2,2.1-4.1,3.9-6.7,5.1c-0.2-0.2-0.4-0.5-0.5-0.7C108.5,171.5,110.7,169.8,112.9,168.1z M78.3,157.9c-0.1-0.3-0.3-0.6-0.4-1
	c1.6-0.9,3.2-1.9,4.8-2.8c0.4-0.2,0.8-0.3,1.4-0.2C82.4,155.7,80.9,157.6,78.3,157.9z M80.7,153.7c0.7-0.3,1.6-0.5,2.3-0.8
	C82.3,153.2,81.5,153.3,80.7,153.7C80.7,153.7,80.7,153.7,80.7,153.7z M84.3,150.7c-1,0.3-1.9,0.5-2.9,0.8c-0.2,0.7-0.5,1.5-0.7,2.2
	c-0.5-0.2-1.1-0.4-2.3-0.9c1.3-0.6,2.1-0.9,2.9-1.3c1.5-1.9,1.5-1.9,3.4-2C84.6,149.9,84.5,150.3,84.3,150.7z M85.1,144.4
	c-0.1,0.5-0.4,1.2-0.8,1.5c-1.7,1.3-3.5,2.4-5.5,3.8c-1.3-2.4,0.9-3.4,1.5-5c0.6-1.5-1.3-3.3,0.4-4.8c0.3-0.2,0.6-0.4,0.9-0.6
	C85,140.6,85.8,141.7,85.1,144.4z M87.2,154.5c-0.1-0.2-0.3-0.4-0.4-0.6c0.8-0.5,1.6-1.1,2.4-1.6c0.1,0.2,0.3,0.4,0.4,0.6
	C88.8,153.5,88,154,87.2,154.5z M90.6,168.9c-1.1,1.4-1.7,2.2-2.7,3.5C88.3,170.1,88.3,170.1,90.6,168.9z M86.3,209.5
	c0.6-1.4,1.3-2.7,1.9-4.1C86.2,206,86.6,207.9,86.3,209.5z M89.5,201.3L89.5,201.3c-0.1,0-0.1,0.1-0.1,0.2
	C89.4,201.4,89.4,201.4,89.5,201.3z M89.5,201.3c0-0.2,0.1-0.3,0.1-0.5C89.5,201,89.5,201.1,89.5,201.3L89.5,201.3z M170.9,181
	c-0.6,1.4-0.2,2.7,0.4,4c3.2,6.8,6.4,13.6,9.7,20.4c0.2,0.3,0.5,0.6,0.8,0.8c-1.2-2.9-2.3-5.9-3.6-8.8
	C175.8,191.9,173.3,186.5,170.9,181z M88.3,205.4c0.1,0,0.1,0,0.2,0c0,0-0.1-0.1-0.1-0.1C88.3,205.3,88.3,205.4,88.3,205.4z
	 M88.4,205.4c0-0.1-0.1-0.1-0.1-0.2c0,0,0,0.1,0,0.1C88.3,205.3,88.4,205.4,88.4,205.4z M88.3,205.2c0.3-1.2,0.7-2.5,1-3.7
	C88.4,202.5,87.7,203.7,88.3,205.2z M143.1,207.8c-0.2-5.3-0.4-10.9-0.5-16.6C140.6,194,141.1,204.8,143.1,207.8z M102.4,186.1
	c-1.1,4.3-2.1,8.7-3.2,13c2.3-4,3.4-8.4,4.1-12.8C103,186.3,102.7,186.2,102.4,186.1z M90.4,186.1C90.4,186.1,90.4,186.1,90.4,186.1
	L90.4,186.1C90.4,186.1,90.4,186.1,90.4,186.1C90.4,186.1,90.4,186.1,90.4,186.1C90.4,186.1,90.4,186.1,90.4,186.1z M104.6,190.1
	c-1.1,3.7-2.2,7.5-3.3,11.2c2.6-3.3,3.6-7.2,4.1-11.2C105.1,190.1,104.9,190.1,104.6,190.1z M90.4,186.1c-0.3,1.7-0.5,3.4-0.8,5
	C90.6,189.5,91.6,187.9,90.4,186.1z M96.1,196.6c0,0.1-0.1,0.2-0.1,0.2l0.1,0.1C96,196.8,96.1,196.7,96.1,196.6z M110.2,189.6
	c-0.6,2.5-1.1,4.9-1.7,7.4c0.2,0.1,0.4,0.2,0.6,0.3c0.6-2.4,1.1-4.9,1.7-7.3C110.8,189.9,110.5,189.8,110.2,189.6z M96,196.8
	C96,196.8,95.9,196.8,96,196.8c-0.1,0.1-0.1,0.2-0.1,0.3C95.9,197,96,196.9,96,196.8z M99.3,181.9c-1.1,5.3-2.2,10-3.2,14.7
	C98.3,193.1,100.3,184.9,99.3,181.9z M95.4,199.7c0.2-0.9,0.3-1.7,0.5-2.6c-0.4,0.8-0.8,1.6-1.2,2.4
	C94.9,199.6,95.2,199.7,95.4,199.7z M118.3,197.6c-1.8,7.6-3.6,15.2-5.4,22.8C116.1,213.2,118.1,205.6,118.3,197.6z M81.4,201.8
	c-0.2,1-0.3,2.1-0.5,3.1C81.8,204.1,82.2,203.1,81.4,201.8z M77.9,210.2l0.7,0.3c0.7-1.8,1.3-3.5,2-5.3
	C79.1,206.6,78.7,208.5,77.9,210.2z M80.7,205.2c0.1,0,0.1-0.1,0.2-0.1l-0.1-0.1C80.7,205.1,80.7,205.2,80.7,205.2z M107.2,215.1
	c1.9-7,3.8-14.1,5.6-21.1c0-0.2-0.4-0.5-0.9-1.1c-1.9,7.6-3.8,14.8-5.7,22C106.6,214.9,106.9,215,107.2,215.1z M80.7,205
	C80.7,205,80.8,205.1,80.7,205c0.1,0,0.1,0,0.1-0.1C80.8,205,80.8,205,80.7,205z M87.2,198.9c0.6-1.3,1.1-2.6,1.7-4
	c-0.2-0.1-0.5-0.3-0.7-0.4c-0.5,1.4-1,2.8-1.5,4.2C86.9,198.8,87,198.9,87.2,198.9z M83.2,199.3c3-7.4,7.3-14.4,7.8-22.6
	c-0.2,0-0.5-0.1-0.7-0.1C87.9,184.1,85.5,191.7,83.2,199.3z M91.6,185.7c0.9-2.7,2.2-5.3,1.6-8.3c-0.9,2.9-1.9,5.8-2.8,8.7
	C90.8,186,91.5,185.9,91.6,185.7z M75.1,204.7c0.3-0.7,0.6-1.4,0.9-2.1c-0.1,0-0.2-0.1-0.4-0.1c-0.3,0.7-0.6,1.4-0.9,2.1L75.1,204.7
	z M174.8,206.4c-3.2-7.5-6.5-15.2-9.8-22.9C164.6,187.5,170.9,202.2,174.8,206.4z M159.5,192.3c1.6,5.1,3.6,10.2,5.6,15.2
	c0.1,0.1,0.5,0.1,0.8,0.1C164,202.4,162.3,197.1,159.5,192.3z M165.5,215.2c-0.3-1.3-0.5-2.4-0.8-3.5
	C163.9,213.1,164.4,214.1,165.5,215.2z M164.8,211.8C164.8,211.8,164.8,211.8,164.8,211.8C164.8,211.8,164.8,211.8,164.8,211.8
	C164.8,211.7,164.8,211.8,164.8,211.8z M167.2,211.6c-0.4-1.2-0.8-2.4-1.2-3.5c0.1,1.2,0.2,2.5,0.4,3.7
	C166.7,211.7,167,211.6,167.2,211.6z M166,208c0-0.1,0-0.3,0-0.4l0,0c0,0-0.1,0-0.1,0c0,0,0,0.1,0,0.1C166,207.8,166,207.9,166,208z
	 M128.1,210.1c0.7-6,1.3-11.9,2-17.9c-0.4,0-0.9,0-1.3,0C128.1,198.1,127.8,204.1,128.1,210.1z M153.8,191.7
	c-0.4,0.1-0.8,0.1-1.2,0.2c0.2,6,1.8,11.6,4.3,17.1C155.8,203.3,154.8,197.5,153.8,191.7z M181.9,199.4c-3.9-7.8-7-15.8-9-24.3
	c-0.1-0.6-0.8-1.1-1.3-1.6c0.2,1.9,0.2,3.9,0.7,5.7c0.8,2.9,1.8,5.8,3,8.6c2.4,5.4,5,10.8,7.7,16.1c0.7,1.4,1.4,3.2,3.5,3.3
	C185.1,204.6,183.2,202.1,181.9,199.4z M182.1,206.8c-0.1-0.1-0.1-0.3-0.2-0.4c0,0,0,0,0,0l0,0c0,0-0.1-0.1-0.2-0.1
	c0,0.1,0.1,0.1,0.1,0.2l0,0C181.9,206.6,182,206.7,182.1,206.8z M164.8,211.7c-0.5-0.8-1.1-1.6-2.1-2.9
	C163,210.7,163.3,211.7,164.8,211.7z M164.8,211.7C164.8,211.8,164.8,211.8,164.8,211.7L164.8,211.7
	C164.8,211.8,164.8,211.7,164.8,211.7z M167.1,201.9c-2.2-4.9-3.7-10.1-5.6-15.2c1.9,11,5.6,21.2,13.5,30.2
	C172.1,211.5,169.3,206.9,167.1,201.9z M149.5,210.4c-0.6-6.5-1.1-13-1.7-19.5c-0.4,0-0.8,0-1.2,0C147,197.4,147.5,204,149.5,210.4z
	 M162.1,206.5l-2.3-8.5c-0.2,0.1-0.5,0.1-0.7,0.2c0.8,2.8,1.5,5.7,2.3,8.5C161.6,206.7,161.8,206.6,162.1,206.5z M135.1,193
	c-0.5,5.2-1,10.2-1.5,15.2C136.6,199.1,136.9,195.3,135.1,193z M184.8,210.8c-0.9-1.4-1.8-2.7-2.8-4.1c0.6,1.5,1.2,3,1.9,4.5
	C184.2,211.2,184.5,211,184.8,210.8z M158.4,199.8c-0.6-7.4-0.6-7.4-2.5-9.9c1.1,7.1,1.2,13.5,3.6,19.6
	C159.1,206.3,158.6,203,158.4,199.8z M153.3,209.1c-0.6-5.8-1.2-11.9-1.9-18.3C150.1,196.9,151.2,206.1,153.3,209.1z M48.9,10.6
	c-0.2-0.1-0.4-0.3-0.5-0.4c-1.1,1.9-2.7,3.7-0.7,6.3C48,14.5,48.4,12.5,48.9,10.6z M79.3,42.8C74,41.3,68.9,41,63.7,41.9
	C65.6,43.4,74.6,43.8,79.3,42.8z M32.7,0c-1.1,4.2-0.1,7.8,0.4,12C34.8,9.9,34.6,6.2,32.7,0z M57.5,41.8c0.4-1.4,0.3-3.1,0.1-4.5
	c-1.4-7.9-6.9-12.6-13.5-15.9c-2.8-1.4-6.4-2-9.7-0.8c-5.6,2-10,5.5-12.5,10.9c-5.3,11.4,3.6,26,16.9,25.3
	C48.2,57.2,55.7,49.5,57.5,41.8z M43.2,23.2c0.3,0.1,0.5,0.2,0.8,0.3c-0.4,1.1-0.8,2.3-1.3,3.7C41.4,25.3,42.1,24.2,43.2,23.2z
	 M28.6,49c-0.5,0.2-1,0.3-1.6,0.5c-6.5-6.1-5.9-12.8-2.4-19.3c2.6-4.9,12.1-10.7,16.7-7.9c-0.2,2-0.3,4-0.6,5.9
	c-1,5.7-3.4,10.7-8.6,13.4c-2.7,1.4-4,3.4-5.1,6.2C27.5,48.2,28,48.6,28.6,49C28.6,48.9,28.6,49,28.6,49z M31.9,43
	c-1.4,2.5-2.3,4.2-3.3,5.9C28.3,46.5,28.5,46.3,31.9,43z M35.9,42.7c0.7-1.4,1.4-2.8,2.4-4.8c0.2,1.2,0.3,1.5,0.4,1.8
	C37.8,40.7,36.9,41.7,35.9,42.7c-0.7,1.6-1.5,3.3-2.3,4.9c-0.8,0.9-1.6,1.8-2.3,2.8C32,47.3,33.7,44.8,35.9,42.7z M33.7,50.1
	c0.2-0.8,0.5-1.6,0.7-2.3c0.7-0.5,1.3-1,2-1.5c0.3-0.7,0.7-1.4,1-2c0.4-0.1,1.1,0,1.2-0.3c1.6-2.5,3.1-5.1,4.6-7.6l0,0
	c2.5-2.3,3.7-5.2,4.7-8.4c-2,2.5-4,5-4.9,8.2l0,0c0,0,0,0,0,0c-0.6,0.8-1.2,1.7-1.8,2.5c-1.1,1.5-2.2,3-3.3,4.5
	c0.3-1.1,0.7-2.2,1-3.3l0,0c0.9-1.6,1.9-3.3,2.8-4.9c2.1-2.8,3.4-5.7,3.6-8.4c-0.3,0.2-0.6,0.4-0.9,0.6c0.2-0.9,0.4-1.7,0.8-3.4
	c1.8,1.7,3.2,3,4.6,4.3c-4.2,7.1-8.3,13.8-12.3,20.5c-0.2,0.4-0.3,0.9-0.4,1.3c-1.3,1.2-2.5,2.4-4.1,4
	C33.3,52.4,33.5,51.2,33.7,50.1z M37.5,55.2c1-2.2,1.7-3.7,2.3-5.3c-1.3,1.5-2.6,3-4.2,4.8c-0.8-2.4,1.8-3.2,1.8-4.9
	c0,0-0.1,0.1-0.1,0.1c1.8-2.3,3.7-4.5,5.2-7c2.3-3.6,4.2-7.4,6.3-11.1c1.5-2.5,2.3-2.5,4.5,0.2c-1,1.1-2,2.2-3,3.3
	c0.2-1.1,0.4-2.1,0.7-3.2c-1,0.3-1.4,0.7-1.6,1.2c-2,3.6-4.1,7.2-6,10.9c-0.2,0.4-0.2,0.8-0.2,1.3c-1.5,0.6-2.1,1.8-2.1,3.3
	c0.7-1.1,1.5-2.2,2.2-3.3c0,0,0,0,0,0c1.5-2.2,3.1-4.5,4.6-6.7c0.7-1,1.5-2,2.3-3c-0.8,1.9-1.5,3.9-2.6,5.7
	c-2.6,4.3-5.4,8.4-8.1,12.6C39.1,54.4,38.6,54.5,37.5,55.2z M41.2,54.8c0-0.8-0.1-1.2,0-1.4c4.1-6.6,8.3-13.2,12.7-20.2
	c0.4,0.9,0.9,1.4,0.8,1.7c-3.1,5.3-6.2,10.6-9.4,15.8C44.3,52.1,43.7,54.1,41.2,54.8z M46.3,50.8c2.9-4.8,5.7-9.3,8.4-13.8
	c0.3,0.2,0.6,0.3,0.9,0.5c-1.8,3.1-3.6,6.2-5.4,9.3c-0.7,1.3-1.5,2.5-2.3,3.8C47.6,50.7,47.2,50.7,46.3,50.8z M48.7,52.2
	c-0.4-0.7-0.6-1.1-0.8-1.5c0.7-0.4,1.4-0.9,2.1-1.3c0.1,0.1,0.3,0.2,0.4,0.3C49.9,50.4,49.4,51.2,48.7,52.2z M60.5,53.2
	c1.4,2.1,3.4,3,6.7,3.1C64.9,54.2,63.3,52.7,60.5,53.2z M63.5,17.2c-3.2,1.7-5.9,3.9-8.2,6.7c-0.2,0.2,0,0.8,0.1,1.1
	C58.1,22.4,60.8,19.8,63.5,17.2z M61.8,34.2c2.5-0.3,4.3-1.7,6.1-3.5C64.4,31,63,31.8,61.8,34.2z M0,52.2c5.4-1.8,9.8-3.7,13.8-6.3
	c0.4-0.2,0.4-1,0.8-1.9C9.8,46.5,5.4,48.7,1,51C0.8,51.1,0.7,51.4,0,52.2z M18.8,13.5c-0.2,0.2-0.4,0.3-0.6,0.5
	c1.7,1.9,3.4,3.8,5.3,5.9C24.2,17.7,24.2,17.7,18.8,13.5z M3.3,36.8c2.5,0.4,5,0.8,7.6,1.2C9.3,35.4,7.1,35.1,3.3,36.8z M52.3,62.3
	c-0.1-0.3-0.4-0.8-0.6-0.8c-0.6-0.1-1.2,0-2.4,0c2.9,4.9,4.8,9.7,8.7,13.3C56.2,70.6,54.3,66.4,52.3,62.3z M36,42.7
	C36,42.6,36,42.6,36,42.7C36,42.6,35.9,42.7,36,42.7c-0.1,0.1-0.1,0.1-0.1,0.1C35.9,42.7,36,42.7,36,42.7z M40.9,65.2
	c-1.8,1.6-1.8,3-0.1,6.7C40.5,69.7,42.3,67.5,40.9,65.2z M36.4,46.3c-0.7,0.5-1.3,1-2,1.5c-0.2,0.8-0.5,1.6-0.7,2.3
	C35.7,49.3,36,48.9,36.4,46.3z M14.6,25.8c-2-1.1-4-2.1-6.1-2.9c-1.4-0.5-2.9-0.6-4.4-0.9c0,0.1,0,0.2,0,0.4
	c3.6,1.9,7.2,3.8,10.7,5.6c0.2-0.2,0.3-0.4,0.5-0.6C15.1,26.8,15,26,14.6,25.8z M28.9,74c1.9-5.2,2.6-9.5,1.8-11.5
	C28.9,64.3,27.8,71.3,28.9,74z M15.2,61.1c2-1,4.3-1.7,4.9-4c-0.3-0.2-0.5-0.4-0.8-0.6C18,58,16.6,59.5,15.2,61.1z"/>
</svg>
