<?xml version="1.0" encoding="utf-8"?>
<!-- Generator: Adobe Illustrator 18.0.0, SVG Export Plug-In . SVG Version: 6.00 Build 0)  -->
<!DOCTYPE svg PUBLIC "-//W3C//DTD SVG 1.1//EN" "http://www.w3.org/Graphics/SVG/1.1/DTD/svg11.dtd">
<svg version="1.1" id="Ebene_1" xmlns="http://www.w3.org/2000/svg" xmlns:xlink="http://www.w3.org/1999/xlink" x="0px" y="0px"
	 width="517.1px" height="272.1px" viewBox="0 0 517.1 272.1" enable-background="new 0 0 517.1 272.1" xml:space="preserve">
<path fill="#232323" d="M383.3,27.7c-0.2,0-0.4,0-0.6,0c-0.3,4.4-0.6,8.8-1,13.2c0.2,0,0.4,0,0.6,0C382.6,36.5,383,32.1,383.3,27.7z
	 M407.3,65.7c-0.9-1-0.6-3-0.9-4.5c-0.2,0-0.4,0-0.6,0c-0.4,1.2-0.9,2.3-1.3,3.5c-1-0.1-2-0.2-3.1-0.3c0.5,1.9,1,3.4,1.5,5.2
	c1.6-2.1,2.8,0.2,4.7,0.6C407.1,68.6,408.8,67.5,407.3,65.7z M356.7,93.4c1.3-0.5,2.5-1,3.8-1.6c-1.1-1.2-1.8-2-2.6-2.9
	C356.8,89.9,355.3,90.8,356.7,93.4z M433.1,37.7c0.3-1.3,0.6-2.7,0.9-4c-0.2,0-0.5-0.1-0.7-0.1c-0.3,1.3-0.5,2.7-0.8,4
	C432.8,37.7,432.9,37.7,433.1,37.7z M487.5,26.8c1.7-1,3.3-2,5-3.1C490.4,24,488.4,24.6,487.5,26.8z M438.5,31.4
	c-1.8,2.6-1.7,2.6-1.3,5.1C437.6,34.7,438,33.3,438.5,31.4z M394.1,19.1c0,0.2,0.4,0.5,0.7,0.9c0.5-1,1-1.8,1.3-2.5
	c0.9,0.2,1.5,0.3,2.2,0.4c0.2-1.8,0.4-3.3,0.6-5c-0.8,0.1-1.5,0.2-2.2,0.3c-0.6-1.1-1.3-2.2-2.2-3.8c-0.7,2.2-1.2,3.8-1.7,5.5
	c0.5,0.4,1.1,0.8,1.6,1.2C394.3,17.2,394.1,18.2,394.1,19.1z M361.7,67.3c-9.6,7.8-12.2,17.7-10.6,30c2.8-3.7,3-7.7,3.9-11.4
	c0.1,0.4,0.2,0.7,0.3,0.8c0.2,0.2,0.6,0.3,1,0.5c1-4.3,3-7.8,5.7-11.1c5.1-6.2,12.1-9.4,19.4-12c8.1-2.9,16.5-4.6,24.9-6.1
	c10.1-1.8,18.7-6.4,26.1-13.2c2.3-2.1,4.9-4.2,6.4-7.1c-2,1.6-3.8,3.4-5.7,5.1c-1.9,1.7-3.9,3.2-5.9,4.7c-0.2-0.1-0.4-0.3-0.5-0.4
	c0.7-2.8,1.5-5.7,2.2-8.5c-0.3-0.1-0.5-0.2-0.8-0.2c-0.7,2.3-1.8,4.6-2,6.9c-0.2,2.3-1,3.8-2.8,5.1c0.7-3.4,1.4-6.9,2.1-10.3
	c0.1-0.4,0.4-0.9,0.8-1.2c2-2.3,4.1-4.5,6.1-6.8c2.5-2.9,5-5.9,7.5-8.8c-3.1,1.2-5,3.8-7.1,6c-2.9,3.1-5.6,6.6-8.8,9.4
	c-10,8.6-22.1,13-34.6,16.3C379.4,57.3,370,60.6,361.7,67.3z M357.3,80.3c-0.3,0-0.5,0-0.8-0.1c0.1-1.1,0.2-2.2,0.3-3.3
	c0.2,0,0.3,0,0.5,0V80.3z M360.7,74.8v-4.3C362,71.7,361.6,72.9,360.7,74.8z M365.8,70c-0.3-0.1-0.6-0.1-1-0.2
	c0.2-1.1,0.4-2.1,0.6-3.2c0.3,0.1,0.7,0.1,1,0.2C366.2,67.9,366,68.9,365.8,70z M368.6,68.1c-0.3-0.1-0.7-0.1-1-0.2
	c0.3-1.1,0.6-2.2,0.9-3.2c0.3,0.1,0.5,0.1,0.8,0.2C369.1,65.9,368.9,67,368.6,68.1z M375.1,65.6c-0.7-3-0.7-3,1-4.3
	C375.8,62.4,375.5,63.6,375.1,65.6z M379.4,62.3c-0.2-0.1-0.3-0.1-0.5-0.2c0.3-0.7,0.5-1.5,0.8-2.2c0.2,0.1,0.4,0.2,0.6,0.3
	C380,61,379.7,61.6,379.4,62.3z M388.7,59.8c-0.3-0.1-0.6-0.1-1-0.2c0.3-0.8,0.5-1.6,0.8-2.4c0.2,0,0.4,0.1,0.5,0.1
	C388.9,58.1,388.8,59,388.7,59.8z M423.7,41.5c-0.3,1.9-0.6,3.9-1,5.8c-0.3,1.2-0.2,2.1,0.7,3c-1.2,0.4-2.5,0.9-4.2,1.4
	C419.6,47.7,420,44.1,423.7,41.5z M418.8,45.1c-0.3,2.4-0.6,4.8-1,7.4c-0.3,0.1-0.8,0.3-1.6,0.7C416,50,417,47.5,418.8,45.1z
	 M415.7,46.9c-0.4,2.6-0.7,4.6-1,7c-0.6,0.2-1.4,0.5-2.4,0.8C412.4,50.2,412.9,49,415.7,46.9z M411,49.7c0,2,0.8,4.2-1.6,6
	C408.7,53.1,409.5,51.3,411,49.7z M408,50.8c-0.7,1.7,0.6,4.2-2.1,5.5C405.8,52.7,405.9,52.4,408,50.8z M403.6,52.2
	c0.9,2.6,0.9,2.6-0.6,4.7c-0.3-0.1-0.5-0.1-0.8-0.2C402.7,55.2,403.1,53.7,403.6,52.2z M400.6,53.2c1.2,1.9,0.5,3.2-0.1,4.5
	c-0.4-0.2-0.8-0.4-1.2-0.6C399.7,55.8,400.1,54.5,400.6,53.2z M393.6,55.7c0.3,0.1,0.6,0.2,0.9,0.3c-0.3,0.9-0.6,1.8-0.9,2.7
	c-0.3-0.1-0.7-0.3-1-0.4C392.9,57.4,393.2,56.5,393.6,55.7z M15.5,170.5c0.6-0.9,1.1-1.8,1.7-2.7c-1.3-1.1-2.5-2.2-3.7-3.2
	c-1.8,1.5-1.8,1.5-1.5,4.4C13.2,169.5,14.2,170,15.5,170.5z M134.1,182.4c0.8,0.3,1.4,1,2.2,1.7c0.1-1.7,0.6-4.1,0.2-4.2
	c-2-0.8-1.6-2.8-2.8-4.8c-0.5,1.5-0.7,2.3-1,3h-1.9c0.4,1.6,0.7,2.9,1,4.3C132.6,182.3,133.4,182.1,134.1,182.4z M390.2,32v4.1
	C390.8,34.8,391.5,33.4,390.2,32z M0.7,166.9c0.2,0.1,0.4,0.3,0.6,0.4c0.9-0.8,1.9-1.6,2.5-2.1c1.8,0.2,1.7,2.9,4.4,1.7
	c-2.1-1.4-1.4-2.8-0.4-4.2c-2.4-1.1-2.4-1.1-2.9-3c-0.2-0.7-0.5-1.4-0.7-2c-0.1-0.1-0.4-0.1-0.8-0.2c-0.2,1-0.4,2-0.7,2.9
	c-0.7,0.1-1.2,0.1-2.5,0.2c1.2,1.4,1.9,2.1,2.6,2.8C1.8,164.7,1.3,165.8,0.7,166.9z M30.2,193.9c0.3-0.5,0.3-1.2,0.5-2.3
	c-0.7,0.6-1.1,0.7-1.2,1c-2.4,4.2-4.9,8.4-7.2,12.7c-0.3,0.6,0,1.6,0.1,2.4c0.5-1.2,1-2.4,1.6-3.5C26.1,200.7,28.2,197.3,30.2,193.9
	z M153.2,183.5c0.6-0.8,1.2-1.6,1.6-2.2c-1.1-0.9-2.2-1.7-3.3-2.6c-0.7,0.6-1.4,1.2-2.2,1.9c0.3,1,0.6,2,0.9,2.8H153.2z M341,37.4
	c1.1,0.8,1.9,1.4,2.7,2.1c-0.6,1.6-1,2.9-1.5,4.2c1.4-0.6,2-1.8,3-2.2c1-0.4,2.3-0.1,3.7-0.1c-0.1-1.1-0.3-2-0.4-2.7
	c1-1.2,3-1.6,2.5-3.7c-1.7,0.5-3.2,1-4.6,1.4c-1-1.1-1.9-2.1-2.7-3c-0.5-0.1-1-0.1-1.4-0.2C343.8,35.4,342.6,36.4,341,37.4z
	 M387.6,26.4c-0.3,0-0.6,0-0.9,0c-0.9,4.1-0.4,8.3,0.1,12.5C387,34.7,387.3,30.6,387.6,26.4z M500.4,35.7c-3,1.3-6,2.8-9,4
	c-4.9,2-9.4,4.7-13.1,8.5c-0.8,0.8-1.8,1.2-3.4,2.3c1.3-4.1,2.3-7.3,3.3-10.5c-0.3-0.1-0.6-0.2-0.8-0.2c-1,3.1-2,6.2-2.9,9.4
	c-0.7,2.6-2.3,4.6-5.3,6c1.1-4,2.1-7.9,3.1-11.7c-0.3-0.1-0.6-0.1-0.8-0.2c-0.9,3.3-1.9,6.7-2.6,10c-0.8,4-2.9,7.3-6.6,9.6
	c0-0.4-0.1-0.8-0.1-1.2c-0.4,0.8-0.8,1.6-1.2,2.3c-0.4,0.8-0.6,1.8-1.3,2.5c-2,2-4,4-6.1,5.8c-1.9,1.7-4,3.3-7.2,3.8
	c1.3-2.9,2.7-5.3,3.3-7.8c0.7-2.7,2.4-4.2,4.5-5.5c4.8-6,9.4-12.1,14.5-17.8c5-5.7,10.5-10.9,15.8-16.3c-0.5,0.1-0.9,0.3-1.2,0.6
	C473.7,36,466.5,45,459.3,54c-5,6.3-10.7,11.7-17.2,16.4c-3,2.2-6.4,3.2-9.9,3.6c-8.5,0.9-17.1,1.4-25.6,2.1
	c-4,0.3-8.1,0.5-12.1,1.1c-6.6,1.1-12.7,3.7-18.3,7.3c-5.2,3.3-9.6,7.2-12.1,12.9c-1.1,2.6-2.1,5.2-3.1,7.8
	c-2.2,5.7-4.3,11.5-6.8,17c-2.6,5.6-6.7,10.2-12.1,13.7c1.1,1.7,1.6,3.2,0.3,5c-0.2-1-0.4-1.7-0.6-2.5c-0.6,0.8-0.8,1.5-0.7,2.1
	c0.5,2.6-0.8,4.2-2.9,5.3c-2.8,1.5-5.6,3-8.4,4.5c-0.4,0.2-0.7,0.7-1.3,1.3c0.8,0.1,1.2,0.3,1.4,0.2c4.8-2.9,9.8-5.5,14.2-8.9
	c3.8-3,6.9-6.8,10.1-10.5c2.8-3.3,5.5-6.8,7.4-10.9c1.4-3.1,3.4-5.9,4.9-9c1.3-2.6,2.1-5.5,3.6-8c2.3-3.6,4.6-7.4,7.6-10.3
	c5.4-5.1,12.4-7.5,19.5-8.6c6.9-1,13.9-1.2,20.9-1.4c6.3-0.2,12.5-0.6,18.5-2.2c10.4-2.7,18.8-8.8,25.8-16.6
	c5.9-6.6,12-12.8,18.9-18.3c3.6-2.8,7.2-5.4,11.4-7.2c3.5-1.6,7-3.3,10.5-5C502.5,35.3,501.4,35.3,500.4,35.7z M345.1,140.4
	c-0.2,0-0.5,0-0.7-0.1v-2.6c0.3,0,0.7,0.1,1,0.1C345.3,138.7,345.2,139.6,345.1,140.4z M346.6,137.9c0.1-1.1,0.3-2.1,0.4-3.2
	C347.8,136.5,347.8,136.5,346.6,137.9z M354.5,128.2c0.1-0.7,0.1-1.4,0.2-2.1c0.1,0,0.2,0,0.4,0c0.1,0.7,0.1,1.5,0.2,2.2
	C354.9,128.2,354.7,128.2,354.5,128.2z M357.1,126.3c-1.2-2.7-1.2-3.3,0-5.6V126.3z M360.8,117.5c-0.8-1.4-2-2.7-0.3-5.2
	c0.3,1.1,0.5,1.5,0.5,2C361.1,115.3,361,116.4,360.8,117.5z M362.6,115l-1.1-7.1c0.3,0,0.5-0.1,0.8-0.1
	C363.6,110.1,363.2,112.6,362.6,115z M362.7,106c0.3-1.1,0.6-2.1,0.8-3.1c0.3,0,0.5,0,0.8,0c0.2,1.3,0.3,2.5,0.5,4
	C364,106.6,363.5,106.3,362.7,106z M366.5,107.7c-0.1,0-0.2,0-0.4-0.1c-0.4-2.4-0.9-4.8-1.1-7.3c-0.1-1.4,0.5-2.7,2.3-3.9
	C367,100.6,366.8,104.1,366.5,107.7z M368.3,104.7c-1.7-3.6,1.8-6.9-1-10.1c0.9-0.7,1.7-1.4,2.6-2.1
	C369.4,96.3,368.9,100.2,368.3,104.7z M370.2,99.9c0.3-2.1,0.6-4.2,1-6.2c0.2-1.1-0.5-1.1-1.1-1.4c0.6-0.8,1.3-1.6,1.9-2.5
	c0.2,0.1,0.5,0.3,0.7,0.4c-0.6,3.3-1.2,6.5-1.8,9.8C370.7,100,370.4,99.9,370.2,99.9z M372.6,96c0.6-2.7,1.2-5.5,1.8-8.2
	c0.2,0,0.4,0.1,0.7,0.1c-0.5,2.7-1,5.5-1.4,8.2C373.3,96.1,373,96.1,372.6,96z M374.9,94.4c1.1-3.5,1.1-6.7,3.3-9.4
	C378.5,88,377.2,91.9,374.9,94.4z M378.5,90.8c0.4-1.2,0.8-2.4,1.2-3.9C380.4,89.8,380.4,89.8,378.5,90.8z M381.4,89.9
	c0-3.1,0.9-5.2,2.3-7C383.3,85.1,383.6,87.5,381.4,89.9z M386.1,86.9c0.4-1.9,0.9-3.8,1.3-5.7c0.3,0.1,0.7,0.1,1,0.2
	C388.3,83.4,388.5,85.5,386.1,86.9z M392.5,85.6c-0.4-0.1-0.7-0.1-1.1-0.2c-0.6-2,0.8-3.4,1.4-5.1c0.3,0.1,0.5,0.1,0.8,0.2
	C393.3,82.2,392.9,83.9,392.5,85.6z M399.9,84c-0.4-0.1-0.8-0.2-1.3-0.3c0.4-1.6,0.8-3.2,1.3-4.7c0.3,0.1,0.5,0.1,0.8,0.2
	C400.5,80.7,400.2,82.3,399.9,84z M402.2,83.3c-0.3-2.8-0.3-2.8,1.7-4.5C403.4,80.1,402.8,81.5,402.2,83.3z M403.9,83.4
	c1.1-2.1,0.2-4.7,3.5-5.8C406.1,82.8,406.1,82.8,403.9,83.4z M409.4,83.2c-0.2-0.2-0.4-0.3-0.6-0.5c0.9-1.6,1.7-3.2,2.8-5.4
	C411.5,80.6,411.1,81.6,409.4,83.2z M412.4,82.5c0.2-1.9,0.6-3.6,2.5-5.1C414.4,81.1,414.3,81.2,412.4,82.5z M421,77.5
	c-0.7,1.8-1.5,3.5-2.5,5.9C418,80.3,418.4,79.4,421,77.5z M421.6,82.4c-0.3-0.1-0.6-0.2-0.9-0.3c0.7-1.6,1.4-3.2,2.1-4.8
	c0.3,0.1,0.5,0.2,0.8,0.3C423,79.2,422.3,80.8,421.6,82.4z M424.3,82.9c-0.7-3.3,0.7-5.7,3.4-6C426.3,78.7,426.4,81.3,424.3,82.9z
	 M426.3,82.3c1.4-2.5,2.5-4.4,3.5-6.2C429.6,79.9,428.9,81.2,426.3,82.3z M430.6,81.5c0.9-2.4,0.7-5.7,5-6
	C433.4,77.6,433.8,80.9,430.6,81.5z M434,80.6c1.4-2.3,2.5-4.2,3.7-6.2C438,79.2,437.3,80.4,434,80.6z M438.3,79.5
	c1.3-2.6,2.4-4.9,3.6-7.1c0.2,0.1,0.5,0.2,0.7,0.3C441.4,78.2,441.1,78.7,438.3,79.5z M441.9,78.3c1.8-3.8,3.1-7.2,5.3-10.2
	c0.2,0.1,0.5,0.2,0.7,0.4c-0.9,2.6-1.8,5.2-2.7,7.8C444.7,77.8,443.7,78,441.9,78.3z M451.1,72.7c1.2-3.1,2.5-6.2,3.7-9.3
	c0-0.1-0.4-0.4-0.7-0.6c-1.3,3.2-2.6,6.3-3.9,9.5C450.5,72.5,450.8,72.6,451.1,72.7z M454.1,62.8c0,0,0-0.1,0.1-0.1l0,0
	C454.1,62.7,454.1,62.7,454.1,62.8C454.1,62.8,454,62.8,454.1,62.8C454,62.8,454.1,62.8,454.1,62.8z M334.4,141.7
	c1.6-0.8,3.9-0.3,4.4-2.4c-1-1.1-1.9-2.1-2.8-3.1c-0.8,0.8-1.5,1.7-2.4,2.6C333.8,139.6,334.1,140.6,334.4,141.7z M462,61.5
	c0,0.1,0,0.1,0,0.2C462.1,61.7,462.1,61.6,462,61.5L462,61.5z M373.7,104.5v4c-0.9,0.3-1.6,0.4-1.9,0.5c0.1,1.8,0.2,3.3,0.3,5.1
	c1-0.6,1.8-1.1,2.7-1.6c0.6,0.7,1.2,1.3,1.7,1.9c0.4,0.1,0.9,0.2,1.3,0.2c-1.3-2.6,0.2-3.8,2.3-5.3c-1.8-0.1-2.8-0.1-3.8-0.2
	C375.4,107.7,376.2,105.4,373.7,104.5z M180.5,202.5c-14,6-28.6,9.4-43.8,9.7c-5.7,0.1-11.5,0.6-17.2,1c-3,0.2-6.1,0.2-9.1,0.7
	c-3.8,0.7-7.6,1.8-11.3,2.8c-13.9,3.5-26.8,9.2-38.2,18c-4.7,3.6-9.2,7.3-13.8,10.9c-4,3.2-8.3,6.1-12.1,9.5
	c-6.6,5.9-13.5,11.2-21,15.9c-0.5,0.3-0.9,0.8-1.4,1.2c3.1-1.2,5.8-2.8,8.5-4.5c2.6-1.7,5.2-3.5,8.4-5.7c-0.6,2.4-1,4-1.4,5.6
	c1.2-1.4,2-3,2.6-4.5c1.2-3,1.2-3,3.1-3.9c-0.5,1.5-1,2.9-1.4,4.3c0.7-0.8,1.5-1.7,2.2-2.5c0,0,0.2,0.2,0.4,0.3
	c0,0.2-0.1,0.3-0.1,0.5c0.1-0.1,0.1-0.3,0.2-0.4c0,0,0,0-0.1-0.1c0,0,0,0,0,0l-0.1-0.1c0.6-0.3,1.4-0.5,1.6-1
	c0.6-1.4,1.3-2.9,1.5-4.5c0.2-1.5,1-2,2.6-2.6c-0.9,2.8-1.6,5.2-2.3,7.6c3.1-3.4,2.6-8.8,7.7-12c-1.1,3.1-1.9,5.5-2.7,7.8
	c0.3,0.1,0.5,0.2,0.8,0.3c0.9-2.3,1.9-4.6,2.7-7c0.8-2.4,2.2-4.1,4.9-5.4c-1.6,4.3-3,8.1-4.5,11.9c2.2-3.5,4.2-7.2,5.3-11.1
	c0.7-2.6,2.3-3.8,4.8-5.5c-0.6,2.2-1.1,3.8-1.5,5.4c-0.4,1.7-0.7,3.3-1,5c1.3-3.3,2.8-6.6,3.9-10c0.7-2.3,2-3.8,4.7-4.9
	c-1.8,4.9-3.5,9.4-5.1,13.9c0.2,0.1,0.5,0.2,0.7,0.3c1.9-4.7,4-9.4,5.6-14.2c0.6-1.7,1.4-2.4,3.3-2.9c-0.5,1.6-0.9,2.8-1.3,4
	c-0.6,1.9-1.1,3.8-1.7,5.8c0.5-1,1-2,1.6-2.9c0.6-1.1,1.3-2.2,2-3.3c-0.7,3.2-1.4,6.5-3.8,9c0-0.7,0-1.4,0-2.1
	c-0.7,1.3-1.5,2.7-2.2,4c0.1,0,0.2,0.1,0.3,0.1c0.7-0.7,1.4-1.4,2-2.1c0.1,0.5,0.2,0.9,0.3,2c2.4-5.3,4.5-10,6.6-14.8
	c0.2-0.5-0.2-1.2-0.4-1.8c-1,2-2,3.9-3,5.9c0.3-1.5,0.5-3,1.1-4.4c0.3-0.7,1.2-1.1,1.9-1.6c0,0,0,0,0,0.1l0.1-0.1h0l-0.1,0
	c0.8-0.5,1.6-1.1,2.4-1.6c0.3,1.2,0.2,1.9,0,2.5c-1.4,3.8-3.1,7.5-4.3,11.3c-1.1,3.6-3,6.6-5.6,9.3c-0.9,0.9-2.1,1.8-2.5,3.6
	c3.8-3.4,7.3-6.5,10.8-9.5c7.9-6.7,16.4-12.4,25.8-16.7c1.7-0.8,3.4-1.4,5.2-1.8c5.1-1.1,10.3-2.2,15.5-3.2
	c11.8-2.2,23.6-4.2,35.4-6.3c6.1-1.1,11.6-4.1,17.2-6.9c-1.5,0.3-3,0.6-5.1,1c2.3-3.1,4.8-4.3,7.8-4.6c0.1,0.7,0.1,1.2,0.2,1.7
	c1.3-2.8,4-3.5,6.3-4.7c1.2-0.6,2.4-1.5,3.6-2.2C182.4,201.7,181.4,202.1,180.5,202.5z M35.6,258.6c-0.2-0.1-0.4-0.1-0.6-0.2
	c0.2-0.7,0.3-1.4,0.5-2.1c0.3,0.1,0.5,0.1,0.8,0.2C36.1,257.2,35.8,257.9,35.6,258.6z M94.3,219.4c-0.1,1.8-0.5,3.1-1.8,3.9
	C92.4,221.9,92.4,220.5,94.3,219.4z M92.4,223.5c-0.2,1.4-0.6,2.7-2,3.4C91.1,225.8,91.8,224.7,92.4,223.5z M76.3,239.4
	c-0.2,0-0.3-0.1-0.5-0.1c0-0.5-0.1-1-0.1-1.5c-0.8,1.2-1.6,2.4-2.4,3.5c-0.9,1.2-2,2.3-2.9,3.4c-0.2-0.2-0.5-0.3-0.7-0.5
	c1.1-2.1,2.2-4.2,3.3-6.2c1.2-2.3,2.3-4.6,3.5-6.8c1.1-1.9,0.9-4.6,3.7-6.4c-0.4,5-3.2,8.4-4.1,12.3c0.4-0.3,0.9-0.7,1.3-1
	c0.1,0.1,0.3,0.2,0.4,0.3C77.3,237.5,76.8,238.5,76.3,239.4z M81.7,235c-0.9,0.9-1.8,1.9-2.7,2.8c-0.2-0.1-0.4-0.2-0.5-0.4
	c2.1-4.1,4.2-8.3,6.3-12.4c-0.2-0.2-0.5-0.3-0.7-0.5c-0.7,1-1.4,2.1-2.4,3.5v-3.7c2.3-1,4.8-2,7.2-3C84.4,224.9,84.5,230.7,81.7,235
	C81.8,235,81.7,235,81.7,235z M81.8,235c1.7-1.7,3.3-3.5,5.1-5.3C86.9,232.9,85.9,234,81.8,235z M88.3,230.8
	c-0.2-0.1-0.3-0.2-0.5-0.3c0.8-1.1,1.6-2.1,2.3-3.2c-0.2,0.9-0.4,1.8-0.7,2.7C89.1,230.2,88.7,230.5,88.3,230.8z M96.1,227.1
	c-1.4,1.6-3.6,3.5-6.4,2.8c0,0,0,0-0.1,0c1.9-2.5,3.8-4.9,5.7-7.4c0.4-1.1,0.7-2.1,1.1-3.2c0.3,0.1,0.5,0.2,0.8,0.4
	c-0.6,1-1.1,2-1.7,3c0,0.6,0,1.2,0,1.9c3-1.4,2.1-5.7,5.9-7.1C99.5,221.1,98.3,224.5,96.1,227.1z M105.5,225.1
	c-2.5,0.5-4.8,1-7.7,1.6c1.6-3.9,4-6.7,5.9-9.7c0.2,0.1,0.4,0.2,0.6,0.3c-1.1,2.4-2.3,4.7-3.4,7.1c0.2,0.1,0.4,0.2,0.7,0.4
	c1.9-2.7,2.9-6,6.1-8.2C107.5,219.7,104.2,221.6,105.5,225.1z M137.1,214c-0.6,2.9-3.5,0-4.4,1.7C134.1,213.6,134.1,213.6,137.1,214
	z M113.8,215.5c-1.4,2.6-2.4,4.4-3.4,6.3C110.3,218.6,110.3,218.5,113.8,215.5z M110.8,224c0.9-1.3,1.4-2.1,2-3.1
	c0.1,0.7,0.2,1.2,0.3,1.7C112.6,222.9,112,223.2,110.8,224z M118.3,221.9c0.2-0.9,0.4-1.9,0.6-2.8c-0.8,1-1.6,2-2.4,3
	c-0.8,0.7-1.9,2.3-3.2,0.4c0,0,0,0,0,0c2.2-2.6,4.4-5.2,6.6-7.8c0.2,0.1,0.3,0.2,0.5,0.3c-0.5,1.4-1,2.8-1.5,4.2
	c1-1.2,2-2.4,3.1-3.6c0.5-0.5,1.1-1,1.9-1.2C123.1,217.7,120.4,219.5,118.3,221.9z M121.4,221.9c-0.2-0.2-0.5-0.3-0.7-0.5
	c1.7-2,3.3-4,5-6C124.9,218.1,123.6,220.3,121.4,221.9z M127.5,220.7c1.1-1.2,1.9-2.1,3.1-3.4C129.6,220.1,129.6,220.1,127.5,220.7z
	 M125,221.6c-0.2-0.2-0.5-0.4-0.7-0.6c1.2-2.9,3.6-4.8,5.7-7.1c0.3,0.2,0.5,0.5,0.8,0.7C128.9,217,127,219.3,125,221.6z
	 M132.4,220.4c-0.3-0.2-0.6-0.4-0.9-0.6c0.8-0.9,1.5-1.8,2.3-2.7c0.2,0.1,0.4,0.3,0.6,0.4C133.7,218.4,133.1,219.4,132.4,220.4z
	 M135.2,219.8c-0.2-0.2-0.3-0.4-0.5-0.7c1.2-1.3,2.4-2.6,3.6-3.8C137.9,217.4,137.1,219.1,135.2,219.8z M139.3,219
	c-0.3-0.2-0.5-0.4-0.8-0.6c0.8-0.7,1.6-1.4,2.4-2.2C140.3,217.2,139.8,218.1,139.3,219z M144.4,213.6c-1.4,0.9-2.3,1.5-3.2,2.1
	C141.8,214.8,141.6,212.9,144.4,213.6z M142,217.8c1.4-1.5,2.8-3,4.2-4.5c0.2,0.2,0.4,0.4,0.5,0.6C145.3,215.3,145,217.9,142,217.8z
	 M152.2,215.9c0.9-0.7,1.9-1.3,2.8-2C154.7,215.2,154.1,216.3,152.2,215.9z M155,213.7C155,213.7,155,213.7,155,213.7
	c-2.2-0.9-4.1,1.1-6.5,0.6c2.2-2.4,5.3-1.6,8-2.2C156,212.7,155.5,213.2,155,213.7z M157.2,215.3c-0.2-0.2-0.4-0.4-0.6-0.6
	c1.4-1.5,2.9-3.1,4.3-4.6c0.2,0.2,0.4,0.4,0.6,0.6C160.5,212.5,159.5,214.5,157.2,215.3z M162.5,213.5c-0.2-0.2-0.3-0.4-0.5-0.5
	c0.5-0.4,0.9-0.8,1.4-1.2c0.2,0.2,0.3,0.4,0.5,0.6C163.4,212.7,162.9,213.1,162.5,213.5z M310.4,129.8c-0.6-0.9-0.7-2.1-1.1-3.2
	c-0.2,0-0.4,0.1-0.6,0.1c-0.1,1-0.2,2-0.2,2.9h-3.2c0.8,1.1,1.3,1.9,1.8,2.6c-0.4,0.9-0.7,1.8-1.4,3.3c1.4-1,2.2-1.5,2.9-2
	c0.8,0.6,1.5,1.1,2.2,1.7c0.4-0.9,0.5-1.6,0.9-2.2c0.3-0.6,0.9-1,1.3-1.6C312.1,130.9,311,130.5,310.4,129.8z M64.7,242
	c-0.1,0.2-0.2,0.3-0.2,0.5c0,0.1,0,0.1,0,0.2l0.1-0.2C64.6,242.4,64.7,242.2,64.7,242z M340,121.1c4.8-7.8,5.5-15.8,0.7-24
	c-2.6-4.5-4.4-9.3-5-14.5c-0.6-5,0.4-9.6,3.9-13.3c4.9-5.2,10.7-9.4,17.4-12c5.8-2.2,11.7-4.2,17.6-6.4c4.1-1.6,8.2-3.2,12.1-5.2
	c8.1-4.4,13.8-11.1,18-19.3c2.1-4,3.7-8.2,5.2-12.5c1.7-4.8,4.1-9.3,6.2-13.9c-0.8,0.5-1.4,1.1-1.9,1.9c-2.6,4.3-4.9,8.7-6.4,13.6
	c-2.1,6.8-5.5,13-9.9,18.7c-5.1,6.6-11.8,10.5-19.2,13.6c-0.5,0.2-1.1,0.6-1.3,0.5c-0.7-0.4-1.3-1.1-1.5-1.3
	c-0.6,0.8-1.2,2.2-2.1,2.6c-2.6,1-5.3,1.6-8,2.3c-1.4-2.3-0.2-4.3,0.1-6.2c0.3-1.7-0.3-4.2,2.4-5.2c-0.2,3.2-0.3,6.2-0.4,9.1
	c1-2.6,1.3-5.2,1.7-7.8c0.3-1.9,0.4-4,3.1-5c-0.3,3.8-0.7,7.3-1,10.8c2-4.7,1-10,3.7-14.4c0.3,0,0.6,0.1,0.8,0.1v10
	c1.1-4.8,0.4-9.8,3.2-14.2c-0.3,5.3-0.6,10.6-0.9,15.9c0.2,0,0.3,0,0.5,0c0.6-7,1.2-14,1.9-20.9c-2.5,3-5.1,6.1-7.7,9.1
	c-2.7,3.2-5.8,6-9.6,7.9c-5.3,2.5-10.7,4.9-16,7.5c-5.7,2.8-11.3,5.6-15.2,11.2c-5.8,8.3-7.6,16.9-5.1,26.7c1.4,5.7,3.9,10.8,7,15.7
	c4.3,6.9,3.2,13.5-0.9,20c-2.7,4.2-6,7.7-10.5,9.9c0.8,3.7,0,6.5-3.4,8.2c-0.4,0.2-0.6,0.9-0.9,1.3c1.3,0,2.2-0.4,3.1-1
	c0.9-0.6,1.7-1.5,2.5-2.1C330.3,133.3,335.9,127.9,340,121.1z M364,42.7c0.3,0,0.6,0,0.9,0c-0.4,3.3-0.8,6.7-1.3,10
	c0,0.2-0.6,0.3-1.5,0.6C362,49.4,362.6,46,364,42.7z M359.4,46.4c0.2-1.2,0.1-2.5,2.1-2.3c-0.2,3.1-0.4,6.2-0.6,9.7
	c-0.9,0.2-1.6,0.4-2.4,0.6C357.9,51.5,359.1,49,359.4,46.4z M357.7,45.6c-0.4,9-0.4,9-2.2,10.3c0.1-2.4,0.2-4.7,0.3-6.9
	c0.1-1-0.4-1.5-1.3-1.6C355.6,46.8,356.5,46.3,357.7,45.6z M354.4,47.6c0,2.5,0,5,0,7.4c0,1.1-0.2,2-1.6,1.9
	C352.6,53.2,353.2,49.6,354.4,47.6z M348,50.1c1.1-0.5,2.2-1,3.5-1.6c0.5,3.5,0.2,7.3-1.4,9.8v-6.7c-0.2,0-0.5-0.1-0.7-0.1
	c-0.3,1.5-0.5,3-0.8,4.5c-0.2,1.3,0.7,2.9-1.5,4.3C347.4,56.6,347.7,53.4,348,50.1z M346.3,50.8c-0.4,3.6,1,7.4-1.5,10.6
	C345.3,57.9,344.3,54.1,346.3,50.8z M343.9,51.9c-0.3,4.3-0.5,8.2-0.8,12C342.1,62,342.8,54.2,343.9,51.9z M336.7,63.8
	c0.3,0,0.5,0,0.8,0c0,0.7,0.1,1.3,0.1,2c0.4-1.1,0.8-2.3,1.3-3.8c0.2,1.1,0.4,1.9,0.6,2.6c0.1,0,0.3,0,0.4,0
	c0.3-3.2,0.6-6.5,0.9-9.7c0.2,0,0.3,0,0.5,0c0,3.3,0.2,6.5-0.1,9.8c-0.1,1-1.3,1.8-2.3,3.1c-0.5-1-0.8-1.6-1.1-2.2
	c-0.1,0.7-0.5,1.6-0.2,2.1c0.7,1.3-0.4,1.4-1.4,1.9C336.2,67.8,336.4,65.8,336.7,63.8z M328.7,83c-0.1,0-0.2,0-0.4,0
	c-0.1-2.5-0.3-5-0.4-7.5c0.3-0.1,0.5-0.1,0.8-0.2V83z M330.6,79c0.3,4.5,0.6,8.9,0.9,13.4C328.8,88.1,330.4,83.5,330.6,79z
	 M333.3,61.1c1.2,2.3,0.2,4.2,0,6.1V61.1z M332.7,93.4c0.9,1.7,1.4,2.8,2.1,4.3C332.8,96.1,332.8,96.1,332.7,93.4z M334.1,74.7v-2.8
	C335.9,73,335,73.8,334.1,74.7z M335.2,67.7c-0.1,0-0.2,0-0.3,0V64c0.2,0,0.3,0,0.5,0C335.3,65.2,335.3,66.5,335.2,67.7z
	 M339.2,103.2c1.2,2.6,1.6,5.3,0,8V103.2z M337.9,117.8c0.3,0.1,0.9,0.2,0.9,0.4c0.1,0.6,0,1.3,0,2c-0.4,0-0.7-0.1-1.1-0.1
	C337.9,119.3,337.9,118.6,337.9,117.8z M336.4,119.7c0.6,1.1,1,1.6,1,2.1c0,0.4-0.5,0.8-1,1.7V119.7z M324.1,135.9
	c0.1-0.9,0.2-1.6,0.4-2.3C325.5,134.7,325.5,134.7,324.1,135.9z M342.4,89.5c0.9,0.1,2,0.3,3,0.5c0.7-1.3,1.2-2.6,1.7-3.4
	c-1.3-1.2-2.3-2.1-3.4-3.2c-0.7,1-1.5,1.8-1.7,2.7C341.7,87.1,342.2,88.2,342.4,89.5z M462.1,61.6c0-0.1,0-0.2,0-0.3
	C462.1,61.3,462,61.4,462.1,61.6C462,61.5,462.1,61.6,462.1,61.6z M506.7,33.3c-0.8,0.5-1.6,1-2.4,1.5c0.9-0.2,1.8-0.5,2.8-0.7
	C506.9,33.8,506.8,33.5,506.7,33.3z M464.2,55.2c0.1-0.1,0.1-0.1,0.2-0.2l-0.1-0.1C464.2,55,464.2,55.1,464.2,55.2z M457.5,65.1
	c0.6-2.1,1.2-4.2,1.8-6.3c-0.3-0.1-0.5-0.2-0.8-0.2c-0.7,2.1-1.3,4.2-2,6.3C456.9,64.9,457.2,65,457.5,65.1z M516.8,56.9h-4.6
	c-1-2.1-1.8-4-2.7-5.9c-0.4,0.1-0.7,0.2-1.1,0.3c0.2,1.3,0.4,2.5,0.5,3.8c0.2,1.8-0.5,2.5-2.3,2.3c-0.8-0.1-1.6-0.6-2.5-0.7
	c-0.5,0-1,0.4-1.5,0.6c0,0.3,0,0.5-0.1,0.8c1.9,0.6,3.7,1.1,5.5,1.6c0.2,3-2.5,5.5-1.1,9.1c1.4-3,1.9-6.2,5.3-6.8
	c1.3,1.7,2.6,3.2,4.2,5.3c1.3-3.5-2.2-4.7-2-6.8C514.9,58.9,518.1,59.6,516.8,56.9z M464.2,55.2c-1.7,1.7-2.1,3.8-2.1,6.1
	C462.8,59.2,463.5,57.2,464.2,55.2z M482,42.8c0.4-1.6,0.8-3.2,1.2-4.8c-0.2-0.1-0.4-0.1-0.6-0.2c-0.4,1.6-0.9,3.2-1.3,4.7
	C481.5,42.6,481.7,42.7,482,42.8z M22.6,199.5c1.6-1.6,2.6-3.5,3.8-5.3c0.6-1,1.4-2,2.4-2.5c6.1-3.2,12.2-6.2,18.4-9.2
	c2.1-1,4.4-1.8,6.7-2.6c-1.8,4-4,7.6-6.3,10.9c-0.8,1.2-1.3,2.3-1,3.7c2-2.7,4-5.5,6-8.2c1.6-2.3,3.1-4.7,4.6-7c0.3-0.4,0.9-0.5,2-1
	c-2.4,4.4-4.4,8.2-6.4,12c1.6-2.2,3.3-4.3,4.9-6.6c1.1-1.5,2.1-3,2.9-4.7c0.7-1.4,1.6-1.6,3.6-1.4c-1.3,1.9-2.4,3.4-3.4,4.9
	c-0.8,1.3-1.5,2.7-2.2,4.1c0.4-0.1,0.9-0.3,2-0.6c-1.4,2.3-2.5,4.2-3.9,6.6c-0.1-1.3-0.2-1.8-0.2-2.4c-0.6,0.7-1.2,1.5-1.9,2.1
	c-0.8,0.7-1.7,1.3-3,1.4c0.4-1.2,0.9-2.4,1.3-3.6c-1,1.3-1.9,2.7-3,3.9c-0.9,1-2.1,1.8-3.2,2.6c-0.1,0.1-0.7-0.6-1.1-0.9
	c-1.4,1.3-2.5,3.2-4.2,3.8c-1,0.4-2,0.6-2.9,1.4c-0.6,0.6-1.7,0.6-2.6,0.8c-0.4,0.1-1,0.1-1.2,0.4c-0.8,1.5-2.3,2.7-3.7,2.3
	c-2.2-0.6-2,2.5-3.8,1.9c-0.2-0.1-0.4-0.2-0.6-0.4c1.4-2.5,2.7-5.1,4.1-7.6l0,0c2.7-3.1,4.5-6.3,4.6-9.1c-2.2,3.2-4.2,5.7-4.6,9.1
	c-0.8,0.9-1.7,1.7-2.3,2.6c-1.1,1.8-2,3.7-3,5.4c-0.9,1.5-1.6,1.8-3,1.3c0,0,0,0,0,0c0,0,0,0,0,0c0,0,0,0,0,0
	c-1.4,0.3-1.4,0.3-3.4,2.3c0.4,0,0.8,0,1.1-0.1c7.1-1.5,13.7-4.5,20.1-7.8c5.5-2.8,11.1-5.6,16.8-8.2c2.8-1.3,5.7-2.2,8.7-3
	c9.2-2.4,18.5-2,27.7-0.4c11.8,2.1,23.5,4.6,35.4,6.6c12.8,2.1,25.6,2,38.2-1.5c1.6-0.4,3.2-1.1,4.7-1.7c0-0.2,0-0.5,0-0.7
	c-1.2-0.4-2.3-0.9-3.6-1.3c2.7-1.4,6.1-1,8.8-3.9c-1.2,0.1-1.8,0.1-2.3,0.3c-3.3,0.8-6.6,1.8-9.9,2.5c-8.9,1.8-17.7,1.5-26.6-0.3
	c-11.2-2.3-21.8-6.6-32.6-10.1c-10.1-3.3-20.2-5.8-30.9-5.7c-7.4,0.1-14.8,0.8-21.6,3.7c-7.5,3.2-14.8,7-22.2,10.6
	c-7.5,3.7-15.2,6.7-23.6,7.6c-2.4,0.2-4.7,0.9-7,1.4c8.6,1.3,16.4-1.9,24.8-4.1C24.1,196,23.4,197.8,22.6,199.5z M165,192.8
	c-1.4,1.1-2.7,2-3.9,2.9c-0.2-0.2-0.4-0.4-0.5-0.6C161.3,193.3,162.4,192,165,192.8z M153.5,193.5c0.2,0.3,0.4,0.6,0.6,0.9
	c-1.7,0.5-2.3,3.1-5.2,2.3C150.7,195.5,152.1,194.5,153.5,193.5z M64.8,189.4c0.4-1,0.8-1.9,1.2-2.8c0.4-0.1,0.9-0.2,1.8-0.5
	C66.6,187.4,67.2,189.2,64.8,189.4z M67.8,189c1.3-3.9,3.7-6.3,6.1-8.6c-1.2,2.3-2.3,4.6-3.5,6.9C69.7,187.7,69.1,188.2,67.8,189z
	 M76,186.8c0.7-0.4,1.3-0.7,2-1.1C77.4,187.5,77.4,187.5,76,186.8z M79.7,187.2l-0.4-0.3c0.5-0.7,1-1.4,1.6-2.1
	c0.1,0.1,0.3,0.2,0.4,0.3C80.7,185.8,80.2,186.5,79.7,187.2z M81.6,187.5c0.9-1.5,1.8-3,2.7-4.5c0.3,0.2,0.6,0.4,0.8,0.6
	c-0.9,1.5-1.8,3-2.6,4.5C82.2,187.9,81.9,187.7,81.6,187.5z M92.2,188.7c0.9-2.6,2.2-4.8,4.8-6.1C95.6,184.8,94.3,187.1,92.2,188.7z
	 M143.6,195.5c-0.9,0.5-1.8,1-2.8,1.5c-0.1-0.3-0.3-0.5-0.4-0.8l2.7-1.5C143.3,194.9,143.4,195.2,143.6,195.5z M141.6,192.7
	c0.1,0.3,0.2,0.5,0.3,0.8c-0.5,0.1-1,0.2-1.5,0.4c-0.1-0.2-0.1-0.3-0.2-0.5C140.7,193.1,141.1,192.9,141.6,192.7z M137.8,196.5
	c-0.3,0.2-0.9,0-2.1,0c1.3-1,1.9-1.5,2.6-2c0.2,0.2,0.3,0.4,0.5,0.5C138.4,195.6,138.2,196.2,137.8,196.5z M138.7,192.4
	c-2,0.2-4,0.4-6,0.5c-0.3-0.4-0.6-0.8-0.9-1c-1.1-0.5-2.2-0.8-3.2-1.5C132.2,190.1,135.4,191.4,138.7,192.4z M132.6,193.2
	c-0.9,1.5-1.8,2.9-4.2,1.9C129.8,194.5,131.2,193.8,132.6,193.2z M128.1,193.8c-0.8,0.5-1.6,1-2.7,1.7c0.2-0.7,0.2-1.1,0.4-1.2
	c0.6-0.4,1.4-0.7,2-1.1C127.9,193.4,128,193.6,128.1,193.8z M126.1,188.9c0.1-0.1,0.6,0.3,1.3,0.7c-2.8,1.8-4.8,4.3-8,4.9
	c-0.2-0.3-0.4-0.6-0.6-0.9C121.2,192,123.7,190.4,126.1,188.9z M115.7,185.3c1,0.5,2,0.9,3,1.4c-3.9,4.4-6.2,6-9,5.7
	c1.6-1.2,2.9-2.3,4.2-3.2C115.2,188.2,116.3,187.3,115.7,185.3z M113.8,184.4c-2,2.8-6.2,6.4-8.5,6.6c1.7-1.5,3.5-2.9,5.2-4.5
	c0.5-0.5,1.6-0.8,0.9-1.9C112.1,184.6,112.8,184.5,113.8,184.4z M106.2,181.9c2.2,1.1,4.4,0.4,5,2.8c-1.4,1.1-2.9,2-4.1,3.2
	c-1.9,1.8-1.9,1.9-5.3,2.9c1.7-1.6,2.7-2.6,3.8-3.6c1-1,2.1-2,3.7-3.6c-5.1,0.6-6.1,5.7-9.6,6.9c-0.2-0.3-0.4-0.5-0.6-0.8
	c1.3-1.2,2.6-2.3,3.8-3.6C104.1,184.8,105.1,183.3,106.2,181.9z M104.9,182.4c-1.7,1.7-3.5,3.3-5.2,5c-0.2-0.2-0.5-0.5-0.7-0.7
	c1.7-1.7,3.4-3.4,5.2-5C104.4,181.9,104.7,182.2,104.9,182.4z M101.9,181.4c-0.7,0.8-1.4,1.5-2,2.3c-0.2-0.2-0.4-0.3-0.6-0.5
	c0.7-0.8,1.3-1.5,2-2.3C101.5,181.1,101.7,181.2,101.9,181.4z M92.1,180.7c2.2-2.4,2.6-2.5,7.4,0c-4.1-0.6-5.7,2.5-7.6,5
	c-0.7,0.8-1.1,1.8-2.1,3.4c-0.1-4.1,2.9-5.6,4.7-8.6c-1.2,0.4-1.8,0.6-2.3,0.7C92.2,181.1,92,180.8,92.1,180.7z M91.4,178.2
	c-0.8,1.5-0.8,1.5-2.3-0.4C90,177.9,90.6,178,91.4,178.2z M89.9,182.7c0.2,0.2,0.4,0.3,0.7,0.5c-0.5,0.6-1.1,1.1-1.6,1.7L89.9,182.7
	z M88.7,185.2c-0.2,1-0.3,2-0.5,3.1c-1.3-0.2-2.4-0.3-4-0.5c0.9-1.5,1.7-2.6,2.4-3.8c0.1,0,0.3,0.1,0.4,0.1
	c-0.2,0.9-0.3,1.8-0.6,3.4C87.5,186.5,88.1,185.9,88.7,185.2z M87,178.2h-3.1C84.7,176.7,85.5,176.8,87,178.2z M82.4,177.5
	c-0.7,1.1-1.4,2.3-2.2,3.4c-1.4,2-2.8,3.9-4.2,5.9c-0.5,0.2-1,0.5-2,0.9c2.1-4.4,5.1-7.4,7.8-10.6C81.9,177.2,82.1,177.4,82.4,177.5
	z M79.1,176.2c0.2,0.2,0.5,0.3,0.7,0.5c-0.2,0.5-0.4,1-0.6,1.4c-1.9,3-4,5.9-5.9,8.8c-0.8,1.3-1.7,1.7-2.8,0.3c0,0,0,0-0.1,0
	c2.3-3.1,4.7-6.1,7-9.2C77.9,177.4,78.5,176.8,79.1,176.2z M74.9,176.5c-5.6,1.8-6.9,6.3-9.1,10.1c-1,0.9-2,1.9-3,2.8
	c-0.1-0.1-0.2-0.1-0.4-0.2c0.3-0.7,0.6-1.5,1-2.1c2.2-3.1,4.5-6.1,6.5-9.3C71.1,176,72.5,176.1,74.9,176.5z M68.5,177.5
	c-2.8,4.3-5.6,8.6-8.4,12.9c1.2-5.3,4.7-9.2,7.5-13.5C67.9,177.1,68.2,177.3,68.5,177.5z M503.9,35c0.1-0.1,0.2-0.1,0.3-0.2
	C504.1,34.8,504,34.9,503.9,35L503.9,35L503.9,35c-0.2,0-0.3,0-0.4,0.1C503.7,35.1,503.8,35,503.9,35L503.9,35z M464.2,54.9
	C464.3,54.9,464.3,55,464.2,54.9l0.1-0.3C464.3,54.7,464.3,54.8,464.2,54.9z M464.6,51.3c-0.1,1.1-0.1,2.2-0.2,3.3
	c0.4-1.1,0.8-2.1,1.1-3.2C465.2,51.4,464.9,51.3,464.6,51.3z M17.1,200c0.7-1.2,1.1-2.1,2-3.7C17.2,198.1,17.2,198.1,17.1,200z
	 M16.6,204.6c1.4-3.1,4.3-5.2,5.4-8.5c-0.3-0.2-0.5-0.3-0.8-0.5c-1.8,2.8-3.6,5.7-5.4,8.5C16.1,204.3,16.4,204.4,16.6,204.6z
	 M38.1,197c2.9-3,4.8-6.6,6.1-10.4c-0.2-0.1-0.5-0.2-0.7-0.4C41.7,189.8,39.9,193.4,38.1,197z M40.4,262.8c0.2,0.1,0.4,0.2,0.5,0.3
	c0.5-1.2,1-2.4,1.5-3.5c-0.2-0.1-0.4-0.1-0.5-0.2C41.4,260.5,40.9,261.7,40.4,262.8z M31.9,263.8C31.9,263.7,31.9,263.7,31.9,263.8
	C31.9,263.7,31.9,263.7,31.9,263.8c0.1-0.2,0.1-0.3,0.1-0.4c-0.1,0.1-0.1,0.1-0.2,0.2C31.9,263.6,31.9,263.7,31.9,263.8z
	 M32.2,200.6c3.1-3.9,6.2-7.9,7.7-12.7c-0.3-0.1-0.6-0.3-0.8-0.4C36.8,191.9,34.5,196.3,32.2,200.6z M96.3,202.9
	c12.2,0.6,24.5,0.9,36.7,1c4.2,0,8.5-0.2,12.3-2.7c-1.1,0.1-2.2,0.3-3.2,0.4c-2.5,0.3-5.1,1-7.6,0.9c-12.6-0.1-25.2-0.4-37.8-0.8
	c-7.8-0.2-15.4,0.6-22.8,2.9c-4.3,1.3-8.4,3.2-12.7,4.9c-0.6-0.5-1.4-1.2-2.6-2.2c-0.1,1.5-0.2,2.3-0.2,3.2
	c-0.9,0.2-1.8,0.3-3.4,0.6c2.2,1.5,2.5,3.1,2,5c-0.1,0.3,0.3,0.7,0.6,1.2c0.6-1.1,1.1-2.1,1.8-3.2c1.5,0.9,2.8,1.6,4,2.4
	c0.2-0.2,0.4-0.3,0.6-0.5c-0.4-1.1-0.9-2.2-1.3-3.4c0.9-0.5,1.8-0.7,2.3-1.3c0.3-0.4,0.1-1.3,0.1-2.5c5.4-1.5,10.9-3.3,16.5-4.4
	C86.3,203.6,91.1,202.7,96.3,202.9z M70.2,200c0.7,0.8,1.5,1.7,2.3,2.6c0.3-0.1,0.5-0.2,0.8-0.3c0-1,0.1-2,0.1-2.7
	c0.8-0.6,1.5-1,2.7-1.8c-1.6-0.7-2.5-1.1-3.3-1.5c-0.3-1.9-0.6-3.6-0.9-5.3c-0.3,0-0.6,0-0.9,0c-0.3,1.5-0.5,3-0.8,4.6
	c-1.2-0.5-2.1-0.8-3.1-1.2c-0.9,1.6,0.7,2.1,0.9,3c0.2,0.9-0.3,1.9-0.6,3.3C68.5,200.4,69.2,200.2,70.2,200z M42.6,223.6
	c3.2-2.4,6.5-4.7,9.8-7.1c0.7-0.5,1.2-1.2,1.8-1.8c-0.2-0.2-0.4-0.5-0.6-0.7c-8.2,4.3-14.3,12-23.4,14.8
	C34.9,228.1,39,226.4,42.6,223.6z M20.3,261.7c0.9-0.8,1.8-1.6,2.6-2.4c0.2-0.2,0.2-0.6,0.4-1.1c-1-0.2-1.9-0.3-2.8-0.5
	c-0.7-1.3,0.3-3.2-2.1-3.7c-0.1,1-0.2,2-0.3,3c-0.9,0.2-1.7,0.3-2.9,0.5c0.9,1,1.4,1.7,2,2.3c-0.6,0.7-1.2,1.4-1.5,1.8H20.3z
	 M50.9,183c-0.3-0.2-0.7-0.4-1-0.6l-6.7,11.7c0.2,0.1,0.4,0.2,0.6,0.3C46.2,190.6,48.5,186.8,50.9,183z M54.4,250.7
	c0,0-0.1-0.1-0.1-0.1c-0.1,0.2-0.1,0.4-0.2,0.6C54.2,251,54.3,250.9,54.4,250.7z M53.2,254c0.3-0.9,0.6-1.9,0.9-2.8
	c-0.5,0.8-1,1.7-1.5,2.5C52.8,253.8,53,253.9,53.2,254z M33.9,266.2c0.2-1.5,0.5-3,0.7-4.5c-0.5,1.4-1.1,2.8-1.7,4.2
	C33.2,266,33.6,266.1,33.9,266.2z M31.9,263.8c-0.7,1.4-1.4,2.8-2.1,4.2C31,266.7,32.5,265.7,31.9,263.8z M54.4,257.4
	c0.2,0.1,0.4,0.1,0.6,0.2c0.3-0.8,0.6-1.6,0.9-2.4c-0.2-0.1-0.5-0.2-0.7-0.4C54.9,255.7,54.6,256.6,54.4,257.4z M119.4,246.5
	c-1.4-0.9-0.7-3.4-3.2-4.1c0.2,1.7,0.4,3,0.7,4.5c-1.4-0.2-2.5-0.3-3.8-0.5c0.1,2.8,3.1,2,3.8,4.2v3.6c1-1.4,1.7-2.2,2.2-2.9
	c1.1,0.5,2,1,2.9,1.4c0.2-0.2,0.4-0.3,0.6-0.5c-0.6-1.2-1.2-2.4-1.7-3.4c0.5-1.7,3.6-0.4,3-3.5C122.5,245.7,121.1,246.1,119.4,246.5
	z M59.2,253.8c0.2,0.1,0.4,0.2,0.6,0.3c0.3-0.7,0.6-1.4,0.9-2.2c-0.1-0.1-0.3-0.1-0.4-0.2C59.9,252.4,59.6,253.1,59.2,253.8z
	 M139.5,224.4c-1.3,0.1-2.7,0.2-4,0.3c-11.4,0.9-21.4,5.5-29.7,13.2c-5,4.7-8.8,10.6-14.4,14.9c4.4-1.9,8.3-4.6,11.3-8.4
	c8-10.4,18.7-16.3,31.6-18.2c1.9-0.3,3.8-0.5,6.2-0.8C139.9,224.7,139.7,224.4,139.5,224.4z M54.4,250.7c0-0.2,0.1-0.4,0.1-0.7
	c-0.1,0.2-0.2,0.4-0.2,0.6L54.4,250.7z"/>
</svg>
