<?xml version="1.0" encoding="utf-8"?>
<!-- Generator: Adobe Illustrator 18.0.0, SVG Export Plug-In . SVG Version: 6.00 Build 0)  -->
<!DOCTYPE svg PUBLIC "-//W3C//DTD SVG 1.1//EN" "http://www.w3.org/Graphics/SVG/1.1/DTD/svg11.dtd">
<svg version="1.1" id="Ebene_1" xmlns="http://www.w3.org/2000/svg" xmlns:xlink="http://www.w3.org/1999/xlink" x="0px" y="0px"
	 width="119.6px" height="145.5px" viewBox="0 0 119.6 145.5" enable-background="new 0 0 119.6 145.5" xml:space="preserve">
<path fill="#A59164" d="M105.5,23.9c0.3,1.1,0.7,2.1,1,3.2l0.6-0.2c-0.3-1.1-0.6-2.1-0.9-3.2C106,23.8,105.8,23.8,105.5,23.9z
	 M64,43.7c1-0.8,2-1.5,3-2.3C65.8,41.8,64.4,42.1,64,43.7z M117.7,29.6c-2.6-6.1-6.3-11.3-12.5-14.2c-2.1-1-4.3-1.7-6.5-2.6
	c1.2-1.5,2.5-3,3.6-4.7c0.4-0.6,0.7-1.5,0.8-2.2c0.2-1.4-0.8-2.7-2.3-3.1c-1.8-0.5-2.7-0.1-3.2,1.7c-0.4,1.4-0.3,2.8-0.4,4.4
	c-3.8,2.5-6.3,2.3-9.6-0.7c-1.3-1.2-2.5-2.6-3.9-3.8C83,3.8,82.2,3,81.2,2.6c-5.5-2-11.1-2.8-16.9-2.6c-4.1,0.2-8.1,1.1-12.1,2.2
	c-4.1,1.1-7.5,2.6-9.3,6.8c-1,2.4-3.7,3-5.9,2.8c-2.1-0.2-4.5-0.9-4.4-3.9c0-0.3-0.2-0.6-0.3-0.8c-0.6-1.1-2.9-2.2-3.8-2
	c-1.1,0.3-2.4,2.1-2.1,3.3c0.2,0.9,0.8,1.8,1.4,2.6c0.9,1.3,1.8,2.5,3,4c-1.9-0.1-3.2-0.3-4.5-0.3c-3-0.1-5.9,0-8.5,1.4
	c-4.3,2.4-8.5,5-11.7,8.9c-3.2,3.8-5.4,8.2-5.8,13.1c-0.4,4.5,0.4,9,1.8,13.4c0.3,0.9,1,1.6,1.8,2.7c4.8-3.6,9.4-7,14-10.5
	c-0.6,1.4-1.5,2.5-2.3,3.6c-1.6,2.3-3.4,4.5-4.8,7c-2.8,5-4.3,10.4-5.1,16c-1,6.7-1.4,13.5-0.5,20.2c1,7.5,3.4,14.6,7.7,21.1
	c2.9,4.3,6.2,8.1,10.5,11c1.3,0.8,1.5,1.7,1,3c-0.3,0.7-0.7,1.5-1,2.2c-0.9,2.7-1.9,5.5-2.8,8.2c-0.4,0.8-1.3,1.3-2,2
	c-1.6,1.5-2.2,4.6-0.9,6.1c0.6,0.8,1.8,1.5,2.8,1.5c1.8,0,3.5-1.1,3.9-2.8c0.5-2,1.8-3.3,3.2-4.6c2.3-2.1,4.8-4,7.1-6.1
	c1.2-1.2,2.5-1.3,3.8-0.5c4.1,2.3,8.8,2.8,13.3,3.7c2.3,0.5,4.6,0.9,6.9,0.8c6.3-0.2,12.6-1.1,18.8-2.6c4.3-1.1,8.4-2.5,12.7-3.8
	c1.5,1.9,3.1,4,4.9,5.9c1.5,1.6,3.2,3,4,5.2c0.5,1.3,1.5,2.1,3,2.2c1.7,0.1,3-0.7,4-2.7c0.9-1.8,0.6-3.6-0.7-5
	c-0.8-1-1.9-1.9-2.2-3.1c-1.1-3.9-1.9-7.8-2.8-11.7c1.1-1.2,2.2-2.2,3.1-3.4c7.8-10.5,12.6-22.2,14-35.2c0.5-4.6,0.5-9.4-0.5-13.8
	c-1.2-5.2-3.7-10.2-5.8-15.2c-0.6-1.5-1.9-2.8-2.9-4.2c-1.9-2.7-3.7-5.4-5.6-8c0.1-0.2,0.3-0.4,0.4-0.5c5.1,2.5,9.9,5.6,15.4,6.5
	c0.2-0.4,0.3-0.5,0.3-0.5c0-0.5-0.1-1-0.1-1.4c0,0,0,0-0.1,0c0.3-0.9,0.8-1.8,0.8-2.7C119.6,37.6,119.4,33.5,117.7,29.6z M100.2,4.2
	c1,0.1,1.8,1.2,1.4,2.2c-0.4,1-1.1,1.8-1.7,2.7C99.7,9.1,99.4,9,99.1,9c-0.2-1-0.4-2.1-0.5-3.1C98.6,4.9,99,4.1,100.2,4.2z
	 M28.9,10.3c-1.1-1-1.4-2.1-0.8-3.5c2.8,0.4,3.1,0.7,3.3,3.8c2.8,3.1,6.1,3.3,9.7,1.8c2.2-0.9,3.5-2.7,4.4-4.8
	c0.7-1.5,1.7-2.6,3.2-3C54.6,3.1,60.7,1,67.2,1.4c4.3,0.3,8.6,1,12.8,2.2c0.8,0.2,1.5,0.9,2.1,1.5c1.3,1.2,2.6,2.5,3.8,3.9
	c3.2,3.6,7,3.9,11.2,2c0.3-0.1,0.5-0.3,0.8-0.4c0.2-0.1,0.4-0.3,0.9-0.6c-0.2,2-1.2,3.1-2.7,3.3C90.4,14,85.5,12.5,81.7,8
	c-0.7-0.9-1.8-1.6-2.9-1.9c-2.2-0.7-4.5-1.2-6.7-1.5c-6.8-1.1-13.4-0.4-20,1.2c-1.5,0.4-2.4,1.3-3.2,2.5c-2.1,3.2-5,5.5-8.5,7
	c-3.5,1.6-6.7,0.7-9.1-2.4C30.5,12,29.7,11.1,28.9,10.3z M61.3,74.4c-0.2-0.2-0.3-0.3-0.5-0.5c0.4-0.5,0.7-1.3,1.3-1.6
	c1.7-1.1,3.5-1.9,5.2-3.1c4.9-3.3,9.8-6.7,14.7-9.9c5.2-3.3,10.6-6.5,15.9-9.7c0.3-0.2,0.9-0.1,1.3-0.1C87.4,59.5,74,66.4,61.3,74.4
	z M62.3,79.6c0.1,1.2-0.7,2.1-1.9,2.2c-1.1,0.1-2-0.3-2-1.6c0-1,0.1-2.1,1.4-2.2C60.9,77.8,62.2,78.7,62.3,79.6z M62.3,36.4
	c-0.1-0.3-0.3-0.6-0.6-1.3c0.7-0.5,1.5-1.1,2.3-1.6c0.1,0.1,0.1,0.2,0.2,0.3C63.7,34.7,63,35.6,62.3,36.4c1.1-0.3,2.2-0.6,3.2-0.9
	c0.8-0.2,1.6-0.4,2.5-0.6c-0.6,0.8-1.2,1.5-1.8,2.2c-1.5,0.6-2.9,1.3-3.6,2.9c1.2-1,2.4-1.9,3.6-2.9c0,0-0.1,0.1-0.1,0.1
	c1.5-0.8,2.9-1.6,4.4-2.5c0.8-0.5,1.7-0.9,2.7-1c-1.3,1.1-2.5,2.2-3.8,3.3c0.1,0.1,0.2,0.3,0.3,0.4c1.9-1.2,3.9-2.4,5.8-3.6
	c0.1,0.2,0.2,0.3,0.4,0.5c-3,2.3-6,4.6-9,7c0.9-0.2,1.7-0.4,2.6-0.5c-1.1,1.1-2.1,2.2-3.1,3.3c1.6-1.2,3.2-2.3,4.8-3.5
	c1-0.7,2-1.3,3-2c-0.9,0.4-1.8,0.8-2.7,1.1c1.3-2.4,3.8-3.4,5.7-5.2c0.2,0.2,0.3,0.3,0.5,0.5c-1.2,1.2-2.4,2.4-3.6,3.7
	c1.9-1.1,3.8-2.1,5.7-3.2c0.1,0.1,0.2,0.2,0.3,0.3c-0.5,0.5-0.9,1.1-1.5,1.5c-2.3,1.7-4.6,3.3-7,5c0,0,0,0,0,0
	c-1.2,0.8-2.4,1.7-3.5,2.5c1.5-0.4,2.9-1.1,3.7-2.6c3-1.7,5.9-3.4,8.9-5.1c0.5-0.3,1-0.5,1.5-0.7c0.1,0.2,0.2,0.4,0.3,0.5
	c-1.3,1-2.5,2.1-3.8,3c-2.8,1.9-5.7,3.7-8.5,5.7c-1,0.7-1.8,1.5-2.6,2.3c0,0,0-0.1,0.1-0.1c-2,1-4,2-6,3.1c-0.1-0.1-0.1-0.1-0.2-0.2
	c1.3-1.2,2.5-2.3,3.8-3.5c-1.3,0.6-2.6,1.2-4.3,1.9c0.5-2.5,3-2.7,3.7-4.4c-1.1,0.6-2.2,1.1-3.8,2c0.6-1.1,1-1.8,1.3-2.5
	c-0.4-0.1-1.2-0.2-1.2-0.3c-0.2-1.5-0.9-3.1,0.5-4.4c0.4-0.7,0.8-1.3,1.3-2C62.7,37.4,62.5,36.9,62.3,36.4z M71.2,40.2
	c0.1-0.1,0.2-0.1,0.2-0.2C71.3,40.1,71.2,40.1,71.2,40.2L71.2,40.2L71.2,40.2z M93.9,44.1c-1.6,2.3-24.2,17.5-32.7,21.7
	c0.5-1.7,1.9-2.3,3.2-3.2c6.9-4.6,13.9-9.2,20.9-13.8c2.3-1.5,4.4-3.2,6.6-4.7C92.5,43.7,93.1,43.1,93.9,44.1z M92.3,40.1l0.2-0.3
	c0.5,0.4,0.9,0.7,1.4,1.1c-0.1,0.1-0.2,0.3-0.3,0.4C93.2,40.8,92.8,40.4,92.3,40.1z M65.8,65.1c-1,1.6-2.6,2.4-4.5,3.4
	C62.5,66.6,63.3,66,65.8,65.1z M62.8,61.6c9.4-6.5,18.8-13,28.2-19.5C89.4,45.4,67.5,60.5,62.8,61.6z M61.4,60.8
	c-0.9-1.1-0.2-1.8,0.7-2.4c1.8-1.3,3.5-2.7,5.4-3.9c6.8-4.5,13.6-8.9,20.5-13.4c0.5-0.3,1.1-0.4,2.1-0.8
	C88.3,43.2,72.4,54.3,61.4,60.8z M61.1,57c0-0.3-0.1-0.7,0-0.8c8.4-5.6,16.3-12.1,25.2-17c0.2-0.1,0.7,0.1,1.1,0.3
	C84.7,42,63.2,56.3,61.1,57z M61.7,54.3c-0.9-1-0.5-1.6,0.3-2.1c1.5-1,3.1-1.9,4.6-2.9c0.4-0.3,0.7-0.7,1.1-1.1
	c2.2-1.2,4.3-2.4,6.5-3.7c3.4-2.1,6.8-4.4,10.2-6.6c0.1,0.2,0.3,0.4,0.4,0.6C77,43.7,69.3,49,61.7,54.3z M66.6,66.3
	c1.2-0.7,2.4-1.4,3.6-2.1c0.1,0.2,0.2,0.4,0.3,0.6c-1.2,0.7-2.4,1.4-3.6,2.1C66.9,66.7,66.7,66.5,66.6,66.3z M68.9,72
	c-1,0.6-2,1.1-3,1.6c-0.1-0.2-0.2-0.5-0.4-0.7c5.7-3.4,11.5-6.7,17.2-10.2c5.7-3.5,11.3-7.2,17.4-10.6c-0.2,0.5-0.4,1.1-0.8,1.4
	c-2,1.4-4,2.8-6,4c-6.6,4-13.3,7.9-20,11.8C71.8,70.3,70.4,71.2,68.9,72z M71.4,72.7c-2,2.3-4.5,3.8-7.1,4.9
	c-0.1-0.2-0.2-0.4-0.3-0.6C66.4,75.6,68.9,74.1,71.4,72.7z M102.1,54.5c-3.7,1.7-6.5,5-10.6,6C95.1,58.4,97.9,55.2,102.1,54.5z
	 M96.9,37.4c1.7,0.2,3.4,1.8,5.3,5.5C100.4,41.1,98.6,39.3,96.9,37.4z M97.8,47.8c-2,2.3-21.5,14.3-25,15.2
	c7.5-5,14.3-9.6,21.3-14.2C95.1,48.1,96.2,46.9,97.8,47.8z M94.7,47.1c-4.7,3.1-9.4,6.3-14.1,9.4c-2.6,1.7-5.1,3.6-7.8,5.1
	c-2.2,1.3-4.5,2.2-6.7,3.3c1-0.9,2-1.9,3.1-2.7c5-3.3,10.1-6.6,15.2-9.9c3.5-2.2,6.9-4.5,10.4-6.7c0.1-0.1,0.4,0,0.8,0.1
	C95.3,46.3,95.1,46.9,94.7,47.1z M88.4,31c-3.5-2.5-7.5-3.3-11.6-4.1c-7.2-1.4-14.5-2-21.9-1.5c-6.3,0.5-12.2,2.1-18,4.6
	c-4.7,2-9,4.5-13.2,7.5c0.2-0.4,0.4-0.9,0.7-1.3c3.9-5.4,7.9-10.7,11-16.6c0.5-0.9,1.5-1.8,2.4-1.9c5.2-1,8.8-4.4,12-8.1
	C51,8.1,52.2,7.2,54,6.8c8-1.9,15.9-1.7,23.9,0.4c0.6,0.2,1.4,0.5,1.8,1c2,3.2,5.2,4.8,8.7,6.3c-1.8,1.1-3.4,2.1-5.3,3.2
	c2,2.8,3.7,5.4,5.7,8c1.9,2.5,3.9,4.8,5.9,7.2C92.5,32.8,89.8,31.9,88.4,31z M3.5,52.3C2.9,50,2.4,48,2,46
	c-1.3-5.8-0.5-11.4,2.5-16.6c1.2-2.1,2.9-4.1,4.8-5.8c7.3-6.4,13.8-9.4,23.4-5.8c0.5,0.2,0.9,0.4,1.6,0.8
	C26.8,32.5,17.1,43.9,3.5,52.3z M33.4,131.1c-2.5,2.3-5,4.6-7.6,6.8c-1.1,1-2,1.9-2.1,3.5c0,0.6-0.3,1.4-0.7,1.6
	c-0.8,0.4-1.8,0.9-2.7,0.8c-1.3-0.2-1.6-1.5-1.6-2.6c0-0.8,0.5-1.7,0.9-2.7c1.4,0.5,2.3,0.8,3.3,1.1c2-2.4,2.7-5.2,3.8-8
	c0.6-1.5,2.1-2.5,3.3-3.9c1.4,0.7,2.8,1.4,4.3,2.2C33.9,130.4,33.8,130.8,33.4,131.1z M25.4,129c0.5-0.4,1-0.9,1.5-1.3
	c0.1,0.2,0.2,0.3,0.3,0.5c-0.5,0.4-1,0.8-1.5,1.2C25.6,129.2,25.5,129.1,25.4,129z M93.4,130.3c-0.2,0-0.3-0.1-0.5-0.1
	c0.2-0.6,0.4-1.1,0.5-1.7c0.1,0,0.2,0.1,0.3,0.1C93.6,129.1,93.5,129.7,93.4,130.3z M95.1,130.2c0.2,0.6,0.4,1.2,0.5,1.7
	c0.1,0.6,0.2,1.2,0.3,2.1C94.1,132.8,94.2,131.6,95.1,130.2z M101,129.5c0.5,2.4,0.7,4.8,3.2,6.4c1.4,0.9,1.4,3,0.3,4.3
	c-0.5,0.5-1.3,0.9-2,1c-1,0.1-0.9-0.9-1.2-1.6c-1.1-2.5-1.8-5.1-2.1-7.9c-0.2-0.1-0.4-0.1-0.6-0.2c-0.3,1.3-0.5,2.5-0.8,3.8
	c-0.2,0-0.3,0-0.5-0.1c0.1-1.5,0.2-3,0.4-4.5c0.1-1,0.3-1.7-0.6-2.7c-1.3-1.5-0.5-3.7,2-6.2C99.8,124.5,100.5,127,101,129.5z
	 M109.7,55.6c0.6,0.1,1.1,0.1,1.7,0.2c0,0.2,0,0.4-0.1,0.6c-0.6,0-1.1,0-1.7-0.1C109.6,56.1,109.6,55.8,109.7,55.6z M105.6,47.5
	c0.5,0.5,1,1,1.5,1.6c-0.2,0.1-0.4,0.3-0.6,0.4c-0.5-0.5-0.9-1.1-1.4-1.6C105.3,47.8,105.4,47.7,105.6,47.5z M103.6,56.2
	c3.8,6.6,5.9,13.5,6.2,21c-2.3,0.9-4.7-0.2-6.8,1.5c2.1,1.7,4.2,0.7,6.4,0.6c0.3,3.3-0.3,6.6-1.2,9.7c-2.2,8.1-5.4,15.9-11.1,22.2
	c-3.3,3.6-6.8,7-11.6,9c-6.5,2.7-13,5-20,5.4c-1.3,0.1-2.6,0.1-4,0.1c-0.1-2.4,0.4-4.6-1-6.7c-1.9,1.9-1.2,4.2-1.6,6.4
	c-23.3,0.8-46-17-45.5-41.8c1.2,0,2.4,0.3,3.5,0.1c1.1-0.2,2.2-0.8,3.5-1.3c-1.4-1.4-2.6-0.8-3.7-0.9c-1.2-0.1-2.4,0-3.7,0.1
	c-0.7-2.3-0.2-4.5,0.1-6.6c0.9-5.9,2.5-11.6,5-17c3.3-7.2,8.5-12.7,15.1-16.8c3.6-2.2,7.4-4.2,11.4-5.5c4.5-1.5,9.4-2.1,14.2-3.1
	c0.9,8.1,1.1,15.8,1.1,23.5c0,5.2-0.2,10.5,0,15.7c0.1,2.2-0.4,3.9-2.2,5.2c-1.6,1.1-2,2.6-1.3,4.5c0.7,1.8,1.7,2.6,3.3,2.7
	c1.8,0.1,4.1-1.2,4.2-2.8c0.2-2.2,1.6-3,3.2-3.9c8.1-4.7,16.1-9.6,24.2-14.3C95.3,60.8,99.3,58.6,103.6,56.2z M116.2,44.3
	c-4.7-2.1-9.3-4.2-13.8-6.7c-2-1.1-3.5-2.9-5.3-4.5c-4.7-4.3-8.4-9.4-12-14.8c1.9-1.6,4-2.2,6.3-2.7c8.6-1.8,15.6,0.7,21,7.8
	c3.9,5.2,5.6,11,5.6,17.5c0,1.2,0.5,2.4,0.8,3.6C117.9,44.4,116.9,44.6,116.2,44.3z M16.7,33.3c-1.3,2-2.6,4.1-4,6.1
	c-0.5,1.5-1,3.1-1.4,4.6c1.3-1.6,2.1-3.4,3.1-5.1c1-1.8,2-3.4,3.1-5.2C17.2,33.6,17,33.4,16.7,33.3z M103.2,21.1
	c-0.2,0.7-0.5,1.4-0.7,2.1c-0.1,0-0.2-0.1-0.3-0.1c0-1.1-0.1-2.2-0.1-3.4c-1.4-0.6-2.5-1.2-3.6-1.6c-2.5-1-5.1-1.3-7.6-0.4
	c-1.9,0.7-2.8,1.5-1.7,3.6c1.1,2.3,2.2,4.5,4.3,6.1c1.7,1.4,3.4,2.7,5.6,3.4c1.1,0.3,1.8,1.8,3.4,0.5c-0.1-1.8-0.1-3.7-0.2-5.7
	c0.2,0,0.4-0.1,0.5-0.1c0.3,1.5,0.7,3.1,1,4.6c0.2,0,0.3-0.1,0.5-0.1c-0.2-3-0.5-5.9-0.7-8.9C103.5,21.2,103.3,21.2,103.2,21.1z
	 M92.7,24.9c-0.3-1.1-0.5-2.1-0.8-3.2c0.1,0,0.3-0.1,0.4-0.1c0.3,1,0.6,2.1,0.9,3.1C93.1,24.8,92.9,24.8,92.7,24.9z M95.7,18.6
	c0.5,3.1,0.9,5.5,1.4,8.7C95.5,24.5,95,21.2,95.7,18.6z M98.8,21c0.1,0.7,0.1,1.4,0.2,2.1c-0.1,0-0.2,0-0.3,0
	c-0.1-0.7-0.1-1.4-0.2-2.1C98.6,21,98.7,21,98.8,21z M99.3,29.4c-0.2-1.2-0.3-2.4-0.6-4.1C99.9,26.9,99.9,26.9,99.3,29.4z
	 M100.6,30.2c-0.1-3.2-0.2-6.3-0.3-9.4C101.2,22.5,101.4,25.4,100.6,30.2z M12.8,39.2C12.8,39.2,12.8,39.2,12.8,39.2L12.8,39.2
	L12.8,39.2z M15.9,31.4c-0.7,0.4-1.1,0.6-1.8,1c0.8-1.7,1.4-3,2-4.4c-1.4-1.2,0.5-3.1-0.9-4.3c-1.5,0.5-3.1,0.9-4.5,1.6
	c-0.9,0.5-1.8,1.3-2.5,2.1c-0.7,0.7-1.1,1.7-1.7,2.4C3,34.2,2.1,39.1,3.3,44.5c0.3,1.4,0.3,3,2,4.3c2.9-1.5,2.5-5.2,4.7-7.4
	c0,0.9-0.1,1.6-0.1,2.8c1.2-2,2.1-3.5,3-5c0,0,0,0,0,0c0,0,0,0,0,0c0,0,0,0,0,0l0,0c0,0-0.1,0.2-0.1,0.2c0,0,0,0,0,0
	c0,0,0-0.1,0-0.1C13.8,36.8,14.8,34.2,15.9,31.4z M5.9,48c-1-1.6-1-1.6,0.5-2.2C6.3,46.4,6.1,47,5.9,48z M6.6,45.5
	c0.2-3.2,2.1-5.5,3.6-8.1C9.6,40.4,8.4,43,6.6,45.5z M5,43.1c-0.5-1.5-0.8-2.4-1.2-3.7c1,0.1,1.5,0.2,2.1,0.2
	c-0.1-0.8-0.5-1.7-0.3-2.4c0.6-1.6,1.5-3.2,2.8-4.6c-0.1,0.6-0.1,1.1-0.2,1.7c1-1.7,2-3.4,2.9-5.1C9.8,34,7.7,38.3,5,43.1z
	 M16.5,39.5c0.7-1.3,1.1-2.3,1.6-3.2c0.5-1,1.1-1.9,1.7-2.9C17.3,35.1,16.4,36.9,16.5,39.5z"/>
</svg>
