<?xml version="1.0" encoding="utf-8"?>
<!-- Generator: Adobe Illustrator 18.0.0, SVG Export Plug-In . SVG Version: 6.00 Build 0)  -->
<!DOCTYPE svg PUBLIC "-//W3C//DTD SVG 1.1//EN" "http://www.w3.org/Graphics/SVG/1.1/DTD/svg11.dtd">
<svg version="1.1" id="Ebene_1" xmlns="http://www.w3.org/2000/svg" xmlns:xlink="http://www.w3.org/1999/xlink" x="0px" y="0px"
	 width="98.3px" height="85.1px" viewBox="0 0 98.3 85.1" enable-background="new 0 0 98.3 85.1" xml:space="preserve">
<path fill="#232323" d="M90.9,21c-4.3-1.7-10.3,0.1-13.8,4.1c-1.5,1.7-1.8,3.5-0.8,4.9c0.9,1.4,2.7,1.9,4.9,1.2
	c0.9-0.3,1.7-0.8,2.6-1.2c1.1-0.4,2.3-0.7,3.2,0.5c1,1.2,0.6,2.5-0.3,3.5c-1.1,1.1-2.3,2.3-3.6,3.1c-3.9,2.3-8,4.5-12,6.7
	c-1.8,1-3.7,1.8-6,3c2.1-6.4,4.1-12.2,5.8-18.1c2.3-8,2.4-15.8-2.8-22.9C64.3,0.4,57-1.5,51.3,1.2c-7.5,3.5-10.9,12.2-8.8,19.3
	c0.9,3.1,3.3,4.3,5.8,5.5c0.5,0.2,1.3,0,1.8-0.2c2.2-0.9,2.9-2.5,2.5-4.9c-0.3-1.7-0.6-3.3-0.6-5c0-1.4,0.4-2.9,2.1-3.1
	c1.7-0.2,2.4,1.1,3.1,2.3c0.2,0.3,0.2,0.6,0.3,0.9c1.3,4.2,1.9,8.6,0.7,12.9c-2.3,8.1-4.9,16-7.2,23.2c-4.4,1.9-8.1,3.3-11.5,5.1
	c-3.3,1.8-6.6,0.7-10,0.9c-0.3,0-0.8-0.4-1-0.7c-1.5-2.1-3-4.3-4.8-7c2.4,0.2,4,0.3,5.1,0.3c1.4,1.6,2.5,2.8,3.6,4.1
	c0.2-0.1,0.4-0.2,0.5-0.3c-0.3-1-0.7-2.1-1-3.3h2.7c1,1.4,2,2.6,2.9,3.8c0.2-0.1,0.4-0.2,0.6-0.3c-0.5-1.4-1-2.9-1.5-4.4
	c0.9-0.7,1.8-1.3,2.7-2c-2.5,0-4.6,2.3-7.2,0.6c0.2-0.5,0.5-0.9,0.7-1.4c-2.8,2.4-5.6,1.4-9.2,0.7c3.2-2.1,5.7-3.8,8.3-5.4
	c0.6-0.4,1.7-0.5,2.3-0.3c3,1.1,6.5,1.3,8.3,4.5c0,0.1,0.2,0,0.7,0.1c-0.5-1.5-1-2.9-1.5-4.3c0.9-0.8,1.7-1.5,2.5-2.2
	c-0.9-0.1-1.9,0-2.5,0.4c-2.4,1.9-4.4,0.9-6.5-0.6c1.5-3.5,5.3-1.7,7.7-3.6c-1.8-0.4-3.4-0.7-4.8-1c-0.4-1.5,0.9-2.8-0.6-4.1
	c-0.9,3.1-0.3,6.7-4.3,7.7c-1.4-5.3-0.9-6.6,4.4-11.6c-1.6,0.4-2.8,0.7-3.9,0.9c-1.1-0.3-1.4-2-3-1.6c-0.3,1.6,1.4,2.1,1.5,2.7
	c-0.3,3-0.9,5.4-0.7,7.8c0.3,2.5-0.3,4.1-2.7,5.1c-1,0.4-1.7,1.3-2.6,1.9c-0.7,0.5-1.6,0.8-2.8,1.4c0.6-3.6,4.1-4.4,4.6-7.3
	c-1.3,1.2-2.6,2.5-4.1,3.9c-0.9-4.2,4-5,4.3-8.6c-1.6,1.3-3,2.4-4.3,3.4c-1.9-0.2-1.3-3.8-4-2.6c0.3,2.2,3.4,3.1,2.3,5.7
	c-0.7-0.3-1.4-0.6-2.2-0.9c-0.8,2.4,1.6,2.4,2.3,3.8c-0.1,1.1,0.3,2.4-0.8,3.9c-1.7-2.8-3.3-5.2-4.8-7.8c-1.8-3.2,0.2-6.4,0.5-9.5
	c0-0.3,0.6-0.5,1-0.7c0.4-0.4,0.9-0.7,1.6-1.3c-1.6-0.3-2.9-0.4-4.1-0.7C15,27,15.5,24.7,13.2,25c1,1.8,1.8,3.3,2.8,5.1
	c-0.3,1.6-0.6,3.5-1.1,6.1c-2.1-3.4-5.2-5.5-5.1-9.5c0-0.6-0.6-1.2-0.9-1.7c-0.2,0-0.3,0.1-0.5,0.1c-0.1,1.2-0.2,2.4-0.3,3.5
	c-1.2,0.6-2.6-1.4-3.6,0.4c2.1,1.2,4.3,1.9,5.7,3.4c1.5,1.5,3.1,3.3,3.8,5.7c-3.4-0.4-6.3-1.2-8.7-3.4c-0.1,0.2-0.3,0.4-0.4,0.5
	c0.6,0.9,1.3,1.7,1.8,2.5C6,38.9,4,38.9,4.4,41.2c1-0.6,1.7-0.9,2.3-1.4c1-0.8,2-1.1,3.2-0.9c1.7,0.3,3.3,0.4,5.4,0.6
	c1.6,2.4,3.3,5.2,5.2,8.2c-1.3,0-2,0-2.7,0c-2.5,0.1-4.8-0.3-5.9-3.1c-0.2-0.6-1-0.9-1.5-1.3c-0.2,0.1-0.4,0.3-0.6,0.4
	c0.5,1,1,2,1.5,3.2c-2.7,0.2-3.8-2.2-5.8-3.2c0.4,1,0.8,2.1,1.2,3.1c-0.9,1-1.8,2-2.8,3.1c3.8-1.8,3.8-1.8,8-1
	c-0.2,0.8-0.3,1.6-0.5,2.3c0.1,0.1,0.3,0.2,0.4,0.3c0.6-0.8,1.2-1.6,1.8-2.4c1.8,0.1,3.5,0.2,5.5,0.4c-1.8,2.8-4.5,3.8-6.7,5.3
	c-0.3,0.2-0.8,0.2-1.2,0.1c-2.9-0.4-6-0.3-8-3.1C2.8,51.3,2,51,1.3,50.5c-0.1,0.1-0.2,0.2-0.4,0.3c0.4,0.8,0.8,1.5,1.1,2.2
	c-0.6,0.8-1.2,1.6-2.1,2.7c3.9-1.2,6.9-0.2,10.3,0.8c-2,2.1-3.8,3.2-6.3,3C3,59.6,1.5,59.4,0.6,61c1.5-0.1,2.8-0.1,4-0.2
	c1,1.7-0.8,3.3,0.7,5.1c1.1-3.4,1.9-6.8,6.2-7.6c-0.1,2.1,0.2,4.1-0.4,5.9c-0.6,1.7-2,3.1-3.1,4.6c0.8-0.2,1.4-0.6,2-1
	c0.6-0.4,1.2-0.8,1.8-1.3c0.6,1,1.1,1.7,1.6,2.5c0.5-1,0.6-2,0.2-2.7c-0.9-1.7-0.6-3.4-0.7-5.2c-0.2-3.9,1.4-6.4,4.8-8.1
	c1.4-0.7,2.6-1.9,4.3-3.2c0.1,1.4,0.1,2.1,0.2,2.8c0.2,2.4-0.6,4.1-3.1,4.8c-0.7,0.2-1.3,0.8-1.9,1.2c0.1,0.2,0.2,0.5,0.3,0.7
	c1.3-0.6,2.6-1.1,3.9-1.7c1.3,3.5-2.9,4.6-3.4,8c1.4-1.3,2.5-2.2,3.7-3.3c0.8,1.3,1.5,2.3,2.1,3.3c1.9-2.4-2.1-4.2-0.4-6.7
	c0.9,0.5,1.6,0.9,2.6,1.5c-0.1-2.7-3.7-3.9-2-6.9c4.7,4.5,5.5,9.5,2.4,15.4c0.7-0.4,1.3-0.7,2-1.1c0.9,1,1.7,2,2.5,3
	c0.2-0.1,0.4-0.3,0.6-0.4c-0.7-1.3-1.6-2.5-1.9-3.9c-0.3-1.4-0.1-2.9-0.1-4.3c0.3-0.1,0.7-0.1,1-0.2c0.3,0.8,0.6,1.7,0.8,2.5
	c0.7,4.1,2.1,5.1,6.1,4c2.9-0.8,5.7-1.9,8.9-3c-0.4,1.4-0.5,2.5-1,3.6c-1.4,3.4-1.7,7-1.9,10.6c-0.1,2.7,0.9,4.4,2.9,5.1
	c1.8,0.7,4.1-0.2,5.3-2.5c2.5-5,5-10.1,7-15.4c1.4-3.8,3.3-6.1,7.4-7.8c8.3-3.3,16.1-7.7,23.6-12.6c3.4-2.2,5.9-5.2,7.6-8.8
	C100.2,31.2,97.4,23.5,90.9,21z M82.1,28.9c-2.1-3.3-1.4-5.1,2.5-6.3C86.6,25.9,85.8,27.9,82.1,28.9z M50.1,18.3
	c-1,0.2-2.1,0.5-3.2,0.6c-2,0.2-3.4-0.8-3.5-2.3c-0.1-1.5,1.5-3.2,3.3-3.1c1.1,0,2.2,0.4,3.4,0.7V18.3z M53.3,10.9
	c-0.3-2.7-1.4-4.9-4-6.2c1.5-2.1,3.5-2.5,5.8-2.3C56.9,6.3,56.3,9,53.3,10.9z M61.7,43.2c-0.2-0.1-0.3-0.3-0.5-0.4
	c1.5-1.7,3-3.4,4.5-5.1C65.7,40.7,62.9,41.3,61.7,43.2z M69.4,28.5c-0.9,2.6-1.6,5.2-2.6,7.8c-0.1,0.4-0.8,0.6-1.7,0.5
	c0.5-1.1,1.1-2.2,1.7-3.4c-7.1-0.4-8-1.3-6.3-6.4c2.6,0.4,5.4,1.1,7.5-1.2C69.2,26.5,69.9,27.2,69.4,28.5z M68.6,24.8
	c-0.1-0.1-0.3-0.2-0.4-0.3c0.3-0.4,0.5-0.9,0.8-1.3c0.3-0.4,0.7-0.7,1-1c0.2,0.2,0.4,0.4,0.7,0.7L68.6,24.8z M69.5,21.1
	c-0.2-0.1-0.4-0.3-0.5-0.4c0.4-0.6,0.8-1.3,1.2-1.9l0.7,0.6C70.4,20,69.9,20.5,69.5,21.1z M70.4,17.2c-1.7-2.1-1.7-2.2-0.5-4.3
	C70.1,14.2,70.2,15.5,70.4,17.2z M61.8,5.7c0.1,0.1,0.2,0.2,0.4,0.3c-0.3,0.4-0.5,0.9-0.8,1.3c-0.5,0-0.9,0.1-1.4,0.2
	c-0.1-0.1-0.1-0.2-0.2-0.4L61.8,5.7z M60.5,8.3c0.3-0.3,0.6-0.5,0.8-0.8c-0.1,1.2-0.1,1.2-1.8,1.6C59.9,8.8,60.2,8.6,60.5,8.3z
	 M62.3,10.4c0.7-1.8,1.2-3.7,1.8-5.8c3.2,1.9,4.6,5.1,5.9,8.3c0,0,0,0,0,0c-1.9,0.9-3.8,1.7-5.7,2.6c-1.6,0.8-3.2,0.7-5-0.2
	C59.3,13.1,61.6,12.2,62.3,10.4z M60.1,34.6c0.2,0.1,0.4,0.2,0.5,0.4l-1.5,1.7c-0.1-0.1-0.3-0.2-0.4-0.3
	C59.2,35.8,59.7,35.2,60.1,34.6z M59.2,40.2c0.1,0.1,0.2,0.2,0.3,0.3c-0.4,0.5-0.9,1-1.3,1.5c-0.1-0.1-0.3-0.3-0.4-0.4L59.2,40.2z
	 M55.5,43.1c1.4,1.5,3,2.2,4.8,1.6c1.5-0.5,2.9-1.4,4.5-2.3c-0.4,2.1-0.9,4.4-2.3,6.3c0,0,0,0,0,0c-3.2,1.1-6.1,1.2-8.1-2.4
	C54.6,45.5,55,44.5,55.5,43.1z M56.3,52.9L53.4,56C53.6,54.2,54.8,53.4,56.3,52.9z M56.6,54.9c-0.5,0.6-1,1.2-1.5,1.8
	c-0.1-0.1-0.3-0.2-0.4-0.3c0.5-0.7,0.9-1.3,1.4-2C56.2,54.6,56.4,54.8,56.6,54.9z M31.7,62.3c-0.4-1.1-0.6-1.7-1-2.6
	c1.1-0.1,2-0.1,2.9-0.2c0.2,0.2,0.3,0.4,0.5,0.7C33.4,60.8,32.7,61.4,31.7,62.3z M37.3,67c-1.4,0.5-2.9,1.2-3.9-0.6
	c-0.8-1.3-0.6-3.4,0.7-4.7c0.8-0.7,1.8-1.2,2.7-1.8c0.7,2.3,1.2,4.3,1.9,6.5C38.2,66.7,37.7,66.9,37.3,67z M38.9,58.7
	c1.1-0.2,2.3-0.5,3.4-0.7c0,0.2,0.1,0.4,0.1,0.6c-1.1,0.3-2.3,0.6-3.4,0.8C39,59.2,38.9,59,38.9,58.7z M39.7,61.9
	c0.8-0.2,1.7-0.5,2.5-0.7c0.1,0.2,0.1,0.4,0.2,0.5l-2.5,0.8C39.8,62.3,39.8,62.1,39.7,61.9z M41.7,65.7c-0.3,0.2-0.7,0.2-1.1,0.2
	c-0.1-0.2-0.1-0.3-0.2-0.5c0.7-0.4,1.4-0.7,2.1-1.1c0.1,0.1,0.2,0.3,0.3,0.4C42.5,65.1,42.1,65.5,41.7,65.7z M45.2,55.9
	c1.4-0.5,2.8-1,4.4-1.6c0,3.5-1.9,6-3,9.2C43.9,61,44.9,58.4,45.2,55.9z M46.6,83.6c0.6-0.9,1.1-1.6,1.6-2.3
	c0.2,0.1,0.4,0.3,0.6,0.4C48.4,82.5,48.6,83.8,46.6,83.6z M51.1,80.8c-2-0.9-3.7-1.5-5.3-2.5c-0.6-0.4-0.9-1.6-1-2.4
	c-0.1-0.8,0.3-1.6,0.6-2.7c2.4,1.3,4.5,3.6,7.7,1.7c0.1,0.2,0.2,0.5,0.3,0.7C52.6,77.2,51.9,78.8,51.1,80.8z M47.7,71.9
	c0.9-1.1,1.6-1.9,2.7-3.2C49.5,71.1,49.5,71.1,47.7,71.9z M52.8,73.7c0.5-0.8,1.1-1.6,1.6-2.4C54.9,72.6,54.3,73.4,52.8,73.7z
	 M54.4,71.1C54.4,71.2,54.4,71.2,54.4,71.1c-1.5-0.7-1.5,1.5-3.1,1.4c1-1.1,1.8-1.9,2.8-3c-0.4-0.3-0.8-0.5-1.6-1
	c1.4-0.8,2.6-1.4,4.3-2.3C56.4,68.5,56.2,70.2,54.4,71.1z M57.9,64.2c-0.4,0.9-1.7,1.5-2.7,1.8c-2.3,0.8-3.7-0.9-5.1-2.3
	c-1.2-1.1-1.5-2.4-0.5-4c0.5-0.8,0.7-1.7,1.3-3c2.8,2.6,5.6,3.4,9.3,0.9C59.3,60.4,58.8,62.4,57.9,64.2z M59.9,54.5
	c-1.3,1-2.3,2.4-3.6,4c-0.3-2,1.1-2.5,1.6-3.5c0.7-1.3,2.4-1.9,2.1-4c-0.1-0.6,1.5-1.5,2.3-2.2C62.6,51.1,62,53,59.9,54.5z
	 M63.8,58.7c-2.6-3.5-0.2-6.1,0.8-8.9c0.1,3,2.1,4.6,4.6,6.4C67.2,57.1,65.6,57.9,63.8,58.7z M67.4,50.5c-0.1-0.2-0.1-0.5-0.2-0.7
	l3.5-1c0.1,0.2,0.1,0.4,0.2,0.6C69.8,49.8,68.6,50.1,67.4,50.5z M74.8,51.6c-1.7-0.8-1.6-2.5-1.7-4.1c-0.2-3,1.4-4.4,4.2-5.1
	c-0.1,3,0.1,5.9,2.9,7.8C78.6,51.8,76.8,52.5,74.8,51.6z M80.9,48.7l-0.4-0.6c0.9-0.5,1.7-1.1,2.6-1.6c0.1,0.2,0.2,0.4,0.4,0.6
	C82.6,47.6,81.8,48.1,80.9,48.7z M89.3,44.8c-1.3,0.8-2.7,0.3-3.6-0.9c-1.9-2.6-1-6.3,2-8c1.3,2.3,2.6,4.7,5.9,4.5
	C92.7,42.6,91,43.7,89.3,44.8z M95.4,31.6c-1.3,1.1-3.4,1.3-5,0.4c-0.4-0.2-0.8-0.7-1.4-1.2c1-0.9,2.2-1.6,2.8-2.6
	c0.6-1,0.7-2.3,1.3-4.3c1,1.5,2,2.5,2.4,3.7C96,28.8,96.9,30.3,95.4,31.6z"/>
</svg>
